<svg width="866" height="609" viewBox="0 0 866 609" fill="none" xmlns="http://www.w3.org/2000/svg">
<mask id="mask0_5_12150" style="mask-type:alpha" maskUnits="userSpaceOnUse" x="0" y="0" width="866" height="609">
<rect width="866" height="609" fill="#D9D9D9"/>
</mask>
<g mask="url(#mask0_5_12150)">
<path d="M536.666 -44.1867V-19.6082H325.794V-44.1867H112.246H4.12268V604.188H261.751L604.615 604.285L861.797 604.386V-44.1867H536.666Z" fill="#D8A96C"/>
<path d="M268.593 6.11463H217.449C217.188 6.11463 216.977 5.88396 216.977 5.59918C216.977 5.31441 217.188 5.08376 217.449 5.08376H268.593C268.854 5.08376 269.065 5.31441 269.065 5.59918C269.065 5.88396 268.854 6.11463 268.593 6.11463Z" fill="black"/>
<path d="M225.93 6.11464C225.669 6.11464 225.458 5.88397 225.458 5.59919V-10.3993C225.458 -10.6841 225.669 -10.9147 225.93 -10.9147C226.19 -10.9147 226.402 -10.6841 226.402 -10.3993V5.59919C226.401 5.88397 226.19 6.11464 225.93 6.11464Z" fill="black"/>
<path d="M264.088 6.11464C263.827 6.11464 263.616 5.88397 263.616 5.59919V-10.3993C263.616 -10.6841 263.827 -10.9147 264.088 -10.9147C264.349 -10.9147 264.56 -10.6841 264.56 -10.3993V5.59919C264.559 5.88397 264.348 6.11464 264.088 6.11464Z" fill="black"/>
<path d="M245.317 22.1131C245.057 22.1131 244.845 21.8825 244.845 21.5977V5.59984C244.845 5.31506 245.057 5.08441 245.317 5.08441C245.578 5.08441 245.789 5.31506 245.789 5.59984V21.5983C245.789 21.8825 245.578 22.1131 245.317 22.1131Z" fill="black"/>
<path d="M389.8 5.24353H332.719C332.458 5.24353 332.247 5.01288 332.247 4.72811C332.247 4.44333 332.458 4.21268 332.719 4.21268H389.8C390.061 4.21268 390.272 4.44333 390.272 4.72811C390.272 5.01288 390.061 5.24353 389.8 5.24353Z" fill="black"/>
<path d="M369.74 5.24354C369.479 5.24354 369.268 5.0129 369.268 4.72812V-11.2704C369.268 -11.5551 369.479 -11.7858 369.74 -11.7858C370 -11.7858 370.212 -11.5551 370.212 -11.2704V4.72812C370.211 5.0129 370 5.24354 369.74 5.24354Z" fill="black"/>
<path d="M350.351 21.242C350.091 21.242 349.879 21.0114 349.879 20.7266V4.72811C349.879 4.44333 350.091 4.21268 350.351 4.21268C350.612 4.21268 350.823 4.44333 350.823 4.72811V20.7266C350.823 21.0114 350.612 21.242 350.351 21.242Z" fill="black"/>
<path d="M434.467 21.242C434.207 21.242 433.995 21.0114 433.995 20.7266V4.72811C433.995 4.44333 434.207 4.21268 434.467 4.21268C434.728 4.21268 434.939 4.44333 434.939 4.72811V20.7266C434.939 21.0114 434.728 21.242 434.467 21.242Z" fill="black"/>
<path d="M440.355 5.24353H428.579C428.318 5.24353 428.107 5.01288 428.107 4.72811C428.107 4.44333 428.318 4.21268 428.579 4.21268H440.355C440.616 4.21268 440.827 4.44333 440.827 4.72811C440.827 5.01288 440.616 5.24353 440.355 5.24353Z" fill="black"/>
<path d="M663.573 5.17137H629.654C629.393 5.17137 629.182 4.94072 629.182 4.65595C629.182 4.37117 629.393 4.14052 629.654 4.14052H663.573C663.834 4.14052 664.045 4.37117 664.045 4.65595C664.045 4.94072 663.834 5.17137 663.573 5.17137Z" fill="black"/>
<path d="M655.094 5.17137C654.833 5.17137 654.622 4.94072 654.622 4.65594V-11.3425C654.622 -11.6273 654.833 -11.858 655.094 -11.858C655.355 -11.858 655.566 -11.6273 655.566 -11.3425V4.65594C655.566 4.94072 655.355 5.17137 655.094 5.17137Z" fill="black"/>
<path d="M635.706 21.1692C635.446 21.1692 635.234 20.9386 635.234 20.6538V4.65531C635.234 4.37053 635.446 4.13988 635.706 4.13988C635.967 4.13988 636.178 4.37053 636.178 4.65531V20.6538C636.178 20.9386 635.966 21.1692 635.706 21.1692Z" fill="black"/>
<path d="M602.016 5.17137H568.096C567.836 5.17137 567.625 4.94072 567.625 4.65595C567.625 4.37117 567.836 4.14052 568.096 4.14052H602.016C602.276 4.14052 602.488 4.37117 602.488 4.65595C602.488 4.94072 602.276 5.17137 602.016 5.17137Z" fill="black"/>
<path d="M576.576 5.17137C576.315 5.17137 576.104 4.94072 576.104 4.65594V-11.3425C576.104 -11.6273 576.315 -11.858 576.576 -11.858C576.837 -11.858 577.048 -11.6273 577.048 -11.3425V4.65594C577.048 4.94072 576.837 5.17137 576.576 5.17137Z" fill="black"/>
<path d="M595.964 21.1692C595.703 21.1692 595.492 20.9386 595.492 20.6538V4.65531C595.492 4.37053 595.703 4.13988 595.964 4.13988C596.225 4.13988 596.436 4.37053 596.436 4.65531V20.6538C596.436 20.9386 596.225 21.1692 595.964 21.1692Z" fill="black"/>
<path d="M846.451 5.17137H807.951C807.691 5.17137 807.479 4.94072 807.479 4.65595C807.479 4.37117 807.691 4.14052 807.951 4.14052H846.451C846.711 4.14052 846.922 4.37117 846.922 4.65595C846.922 4.94072 846.711 5.17137 846.451 5.17137Z" fill="black"/>
<path d="M837.971 5.17137C837.71 5.17137 837.499 4.94072 837.499 4.65594V-11.3425C837.499 -11.6273 837.71 -11.858 837.971 -11.858C838.232 -11.858 838.443 -11.6273 838.443 -11.3425V4.65594C838.442 4.94072 838.231 5.17137 837.971 5.17137Z" fill="black"/>
<path d="M818.583 21.1692C818.322 21.1692 818.111 20.9386 818.111 20.6538V4.65531C818.111 4.37053 818.322 4.13988 818.583 4.13988C818.843 4.13988 819.055 4.37053 819.055 4.65531V20.6538C819.055 20.9386 818.843 21.1692 818.583 21.1692Z" fill="black"/>
<path d="M770.469 5.17137C770.208 5.17137 769.997 4.94072 769.997 4.65594V-11.3425C769.997 -11.6273 770.208 -11.858 770.469 -11.858C770.73 -11.858 770.941 -11.6273 770.941 -11.3425V4.65594C770.941 4.94072 770.73 5.17137 770.469 5.17137Z" fill="black"/>
<path d="M779.236 21.1692C778.975 21.1692 778.764 20.9386 778.764 20.6538V4.65531C778.764 4.37053 778.975 4.13988 779.236 4.13988C779.497 4.13988 779.708 4.37053 779.708 4.65531V20.6538C779.707 20.9386 779.496 21.1692 779.236 21.1692Z" fill="black"/>
<path d="M786.063 5.17137H763.191C762.93 5.17137 762.719 4.94072 762.719 4.65595C762.719 4.37117 762.93 4.14052 763.191 4.14052H786.063C786.323 4.14052 786.535 4.37117 786.535 4.65595C786.535 4.94072 786.323 5.17137 786.063 5.17137Z" fill="black"/>
<path d="M497.649 5.17137C497.389 5.17137 497.177 4.94072 497.177 4.65594V-11.3425C497.177 -11.6273 497.389 -11.858 497.649 -11.858C497.91 -11.858 498.121 -11.6273 498.121 -11.3425V4.65594C498.121 4.94072 497.91 5.17137 497.649 5.17137Z" fill="black"/>
<path d="M506.416 21.1692C506.156 21.1692 505.944 20.9386 505.944 20.6538V4.65531C505.944 4.37053 506.156 4.13988 506.416 4.13988C506.677 4.13988 506.888 4.37053 506.888 4.65531V20.6538C506.888 20.9386 506.677 21.1692 506.416 21.1692Z" fill="black"/>
<path d="M513.243 5.17137H490.372C490.111 5.17137 489.9 4.94072 489.9 4.65595C489.9 4.37117 490.111 4.14052 490.372 4.14052H513.243C513.504 4.14052 513.715 4.37117 513.715 4.65595C513.715 4.94072 513.504 5.17137 513.243 5.17137Z" fill="black"/>
<path d="M545.731 45.2394H511.812C511.551 45.2394 511.34 45.0088 511.34 44.724C511.34 44.4392 511.551 44.2086 511.812 44.2086H545.731C545.992 44.2086 546.203 44.4392 546.203 44.724C546.203 45.0088 545.991 45.2394 545.731 45.2394Z" fill="black"/>
<path d="M537.251 61.2373C536.99 61.2373 536.779 61.0066 536.779 60.7219V44.7234C536.779 44.4386 536.99 44.2079 537.251 44.2079C537.512 44.2079 537.723 44.4386 537.723 44.7234V60.7219C537.723 61.0066 537.512 61.2373 537.251 61.2373Z" fill="black"/>
<path d="M517.863 45.2395C517.602 45.2395 517.391 45.0088 517.391 44.724V28.7255C517.391 28.4407 517.602 28.2101 517.863 28.2101C518.123 28.2101 518.335 28.4407 518.335 28.7255V44.724C518.335 45.0088 518.123 45.2395 517.863 45.2395Z" fill="black"/>
<path d="M229.364 45.2394H195.445C195.184 45.2394 194.973 45.0088 194.973 44.724C194.973 44.4392 195.184 44.2086 195.445 44.2086H229.364C229.625 44.2086 229.836 44.4392 229.836 44.724C229.836 45.0088 229.625 45.2394 229.364 45.2394Z" fill="black"/>
<path d="M220.885 61.2373C220.624 61.2373 220.413 61.0066 220.413 60.7219V44.7234C220.413 44.4386 220.624 44.2079 220.885 44.2079C221.146 44.2079 221.357 44.4386 221.357 44.7234V60.7219C221.356 61.0066 221.145 61.2373 220.885 61.2373Z" fill="black"/>
<path d="M201.497 45.2395C201.236 45.2395 201.025 45.0088 201.025 44.724V28.7255C201.025 28.4407 201.236 28.2101 201.497 28.2101C201.758 28.2101 201.969 28.4407 201.969 28.7255V44.724C201.969 45.0088 201.758 45.2395 201.497 45.2395Z" fill="black"/>
<path d="M649.384 45.2394H615.465C615.204 45.2394 614.993 45.0088 614.993 44.724C614.993 44.4392 615.204 44.2086 615.465 44.2086H649.384C649.645 44.2086 649.856 44.4392 649.856 44.724C649.856 45.0088 649.645 45.2394 649.384 45.2394Z" fill="black"/>
<path d="M623.945 45.2395C623.684 45.2395 623.473 45.0088 623.473 44.724V28.7255C623.473 28.4407 623.684 28.2101 623.945 28.2101C624.205 28.2101 624.416 28.4407 624.416 28.7255V44.724C624.416 45.0088 624.205 45.2395 623.945 45.2395Z" fill="black"/>
<path d="M643.333 61.2373C643.072 61.2373 642.861 61.0066 642.861 60.7219V44.7234C642.861 44.4386 643.072 44.2079 643.333 44.2079C643.594 44.2079 643.805 44.4386 643.805 44.7234V60.7219C643.805 61.0066 643.594 61.2373 643.333 61.2373Z" fill="black"/>
<path d="M427.093 45.5332H375.95C375.689 45.5332 375.478 45.3026 375.478 45.0178C375.478 44.733 375.689 44.5024 375.95 44.5024H427.093C427.354 44.5024 427.565 44.733 427.565 45.0178C427.565 45.3026 427.353 45.5332 427.093 45.5332Z" fill="black"/>
<path d="M418.613 45.5332C418.352 45.5332 418.141 45.3026 418.141 45.0178V29.02C418.141 28.7352 418.352 28.5045 418.613 28.5045C418.874 28.5045 419.085 28.7352 419.085 29.02V45.0184C419.085 45.3026 418.874 45.5332 418.613 45.5332Z" fill="black"/>
<path d="M380.455 45.5332C380.194 45.5332 379.983 45.3026 379.983 45.0178V29.02C379.983 28.7352 380.194 28.5045 380.455 28.5045C380.716 28.5045 380.927 28.7352 380.927 29.02V45.0184C380.927 45.3026 380.716 45.5332 380.455 45.5332Z" fill="black"/>
<path d="M399.225 61.5317C398.964 61.5317 398.753 61.3011 398.753 61.0163V45.0178C398.753 44.733 398.964 44.5024 399.225 44.5024C399.486 44.5024 399.697 44.733 399.697 45.0178V61.0163C399.697 61.3011 399.486 61.5317 399.225 61.5317Z" fill="black"/>
<path d="M609.228 77.8549H558.084C557.824 77.8549 557.613 77.6243 557.613 77.3395C557.613 77.0547 557.824 76.8241 558.084 76.8241H609.228C609.489 76.8241 609.7 77.0547 609.7 77.3395C609.7 77.6243 609.489 77.8549 609.228 77.8549Z" fill="black"/>
<path d="M600.749 77.8549C600.488 77.8549 600.277 77.6243 600.277 77.3395V61.341C600.277 61.0562 600.488 60.8256 600.749 60.8256C601.009 60.8256 601.221 61.0562 601.221 61.341V77.3395C601.22 77.6243 601.009 77.8549 600.749 77.8549Z" fill="black"/>
<path d="M562.59 77.8549C562.329 77.8549 562.118 77.6243 562.118 77.3395V61.341C562.118 61.0562 562.329 60.8256 562.59 60.8256C562.851 60.8256 563.062 61.0562 563.062 61.341V77.3395C563.062 77.6243 562.851 77.8549 562.59 77.8549Z" fill="black"/>
<path d="M581.361 93.8528C581.1 93.8528 580.889 93.6221 580.889 93.3373V77.3389C580.889 77.0541 581.1 76.8234 581.361 76.8234C581.621 76.8234 581.833 77.0541 581.833 77.3389V93.3373C581.833 93.6221 581.621 93.8528 581.361 93.8528Z" fill="black"/>
<path d="M503.826 77.6024H446.745C446.484 77.6024 446.273 77.3717 446.273 77.0869C446.273 76.8022 446.484 76.5715 446.745 76.5715H503.826C504.087 76.5715 504.298 76.8022 504.298 77.0869C504.298 77.3717 504.087 77.6024 503.826 77.6024Z" fill="black"/>
<path d="M466.806 77.6024C466.545 77.6024 466.334 77.3717 466.334 77.0869V61.0885C466.334 60.8037 466.545 60.573 466.806 60.573C467.067 60.573 467.278 60.8037 467.278 61.0885V77.0869C467.278 77.3717 467.067 77.6024 466.806 77.6024Z" fill="black"/>
<path d="M486.194 93.6008C485.933 93.6008 485.722 93.3702 485.722 93.0854V77.0869C485.722 76.8022 485.933 76.5715 486.194 76.5715C486.455 76.5715 486.666 76.8022 486.666 77.0869V93.0854C486.666 93.3702 486.455 93.6008 486.194 93.6008Z" fill="black"/>
<path d="M377.798 135.711H320.716C320.456 135.711 320.244 135.48 320.244 135.195C320.244 134.91 320.456 134.68 320.716 134.68H377.798C378.059 134.68 378.27 134.91 378.27 135.195C378.27 135.48 378.059 135.711 377.798 135.711Z" fill="black"/>
<path d="M340.778 135.711C340.517 135.711 340.306 135.48 340.306 135.195V119.197C340.306 118.912 340.517 118.681 340.778 118.681C341.038 118.681 341.249 118.912 341.249 119.197V135.195C341.249 135.48 341.038 135.711 340.778 135.711Z" fill="black"/>
<path d="M360.165 151.709C359.905 151.709 359.693 151.479 359.693 151.194V135.195C359.693 134.91 359.905 134.68 360.165 134.68C360.426 134.68 360.637 134.91 360.637 135.195V151.194C360.637 151.479 360.426 151.709 360.165 151.709Z" fill="black"/>
<path d="M358.067 218.012H300.985C300.725 218.012 300.514 217.782 300.514 217.497C300.514 217.212 300.725 216.981 300.985 216.981H358.067C358.328 216.981 358.539 217.212 358.539 217.497C358.539 217.782 358.328 218.012 358.067 218.012Z" fill="black"/>
<path d="M321.047 218.012C320.786 218.012 320.575 217.782 320.575 217.497V201.498C320.575 201.214 320.786 200.983 321.047 200.983C321.307 200.983 321.519 201.214 321.519 201.498V217.497C321.519 217.782 321.307 218.012 321.047 218.012Z" fill="black"/>
<path d="M340.434 234.011C340.174 234.011 339.962 233.78 339.962 233.495V217.497C339.962 217.212 340.174 216.981 340.434 216.981C340.695 216.981 340.906 217.212 340.906 217.497V233.495C340.906 233.78 340.695 234.011 340.434 234.011Z" fill="black"/>
<path d="M496.222 145.949H553.303C553.564 145.949 553.775 146.179 553.775 146.464C553.775 146.749 553.564 146.979 553.303 146.979H496.222C495.961 146.979 495.75 146.749 495.75 146.464C495.75 146.179 495.961 145.949 496.222 145.949Z" fill="black"/>
<path d="M533.242 145.949C533.503 145.949 533.714 146.179 533.714 146.464V162.462C533.714 162.747 533.503 162.978 533.242 162.978C532.981 162.978 532.77 162.747 532.77 162.462V146.464C532.77 146.179 532.981 145.949 533.242 145.949Z" fill="black"/>
<path d="M513.855 129.95C514.115 129.95 514.327 130.181 514.327 130.465V146.464C514.327 146.749 514.115 146.979 513.855 146.979C513.594 146.979 513.383 146.749 513.383 146.464V130.465C513.383 130.181 513.594 129.95 513.855 129.95Z" fill="black"/>
<path d="M317.435 45.2395C317.174 45.2395 316.963 45.0088 316.963 44.724V28.7255C316.963 28.4407 317.174 28.2101 317.435 28.2101C317.696 28.2101 317.907 28.4407 317.907 28.7255V44.724C317.907 45.0088 317.696 45.2395 317.435 45.2395Z" fill="black"/>
<path d="M323.323 45.2394H311.547C311.286 45.2394 311.075 45.0088 311.075 44.724C311.075 44.4392 311.286 44.2086 311.547 44.2086H323.323C323.584 44.2086 323.795 44.4392 323.795 44.724C323.795 45.0088 323.584 45.2394 323.323 45.2394Z" fill="black"/>
<path d="M846.45 45.2394H807.951C807.69 45.2394 807.479 45.0088 807.479 44.724C807.479 44.4392 807.69 44.2086 807.951 44.2086H846.45C846.711 44.2086 846.922 44.4392 846.922 44.724C846.922 45.0088 846.711 45.2394 846.45 45.2394Z" fill="black"/>
<path d="M837.971 45.2395C837.71 45.2395 837.499 45.0088 837.499 44.724V28.7255C837.499 28.4407 837.71 28.2101 837.971 28.2101C838.232 28.2101 838.443 28.4407 838.443 28.7255V44.724C838.442 45.0088 838.231 45.2395 837.971 45.2395Z" fill="black"/>
<path d="M779.912 45.2395C779.651 45.2395 779.44 45.0088 779.44 44.724V28.7255C779.44 28.4407 779.651 28.2101 779.912 28.2101C780.173 28.2101 780.384 28.4407 780.384 28.7255V44.724C780.384 45.0088 780.173 45.2395 779.912 45.2395Z" fill="black"/>
<path d="M818.583 61.2373C818.322 61.2373 818.111 61.0066 818.111 60.7219V44.7234C818.111 44.4386 818.322 44.2079 818.583 44.2079C818.843 44.2079 819.055 44.4386 819.055 44.7234V60.7219C819.055 61.0066 818.843 61.2373 818.583 61.2373Z" fill="black"/>
<path d="M788.679 61.2373C788.418 61.2373 788.207 61.0066 788.207 60.7219V44.7234C788.207 44.4386 788.418 44.2079 788.679 44.2079C788.939 44.2079 789.151 44.4386 789.151 44.7234V60.7219C789.151 61.0066 788.939 61.2373 788.679 61.2373Z" fill="black"/>
<path d="M795.506 45.2394H772.634C772.374 45.2394 772.163 45.0088 772.163 44.724C772.163 44.4392 772.374 44.2086 772.634 44.2086H795.506C795.767 44.2086 795.978 44.4392 795.978 44.724C795.978 45.0088 795.766 45.2394 795.506 45.2394Z" fill="black"/>
<path d="M281.047 77.5296H247.128C246.867 77.5296 246.656 77.2989 246.656 77.0141C246.656 76.7294 246.867 76.4987 247.128 76.4987H281.047C281.308 76.4987 281.519 76.7294 281.519 77.0141C281.519 77.2989 281.308 77.5296 281.047 77.5296Z" fill="black"/>
<path d="M272.567 77.5296C272.307 77.5296 272.095 77.2989 272.095 77.0141V61.0157C272.095 60.7309 272.307 60.5002 272.567 60.5002C272.828 60.5002 273.039 60.7309 273.039 61.0157V77.0141C273.039 77.2989 272.828 77.5296 272.567 77.5296Z" fill="black"/>
<path d="M253.18 93.5281C252.919 93.5281 252.708 93.2974 252.708 93.0126V77.0141C252.708 76.7294 252.919 76.4987 253.18 76.4987C253.44 76.4987 253.652 76.7294 253.652 77.0141V93.0126C253.652 93.2974 253.44 93.5281 253.18 93.5281Z" fill="black"/>
<path d="M348.785 77.5296C348.524 77.5296 348.313 77.2989 348.313 77.0141V61.0157C348.313 60.7309 348.524 60.5002 348.785 60.5002C349.046 60.5002 349.257 60.7309 349.257 61.0157V77.0141C349.257 77.2989 349.046 77.5296 348.785 77.5296Z" fill="black"/>
<path d="M340.018 93.5281C339.758 93.5281 339.547 93.2974 339.547 93.0126V77.0141C339.547 76.7294 339.758 76.4987 340.018 76.4987C340.279 76.4987 340.49 76.7294 340.49 77.0141V93.0126C340.49 93.2974 340.279 93.5281 340.018 93.5281Z" fill="black"/>
<path d="M356.063 77.5296H333.191C332.93 77.5296 332.719 77.2989 332.719 77.0141C332.719 76.7294 332.93 76.4987 333.191 76.4987H356.063C356.323 76.4987 356.535 76.7294 356.535 77.0141C356.535 77.2989 356.323 77.5296 356.063 77.5296Z" fill="black"/>
<path d="M673.017 130.171H639.097C638.837 130.171 638.625 129.94 638.625 129.656C638.625 129.371 638.837 129.14 639.097 129.14H673.017C673.277 129.14 673.489 129.371 673.489 129.656C673.489 129.94 673.277 130.171 673.017 130.171Z" fill="black"/>
<path d="M647.577 130.171C647.316 130.171 647.105 129.94 647.105 129.656V113.657C647.105 113.372 647.316 113.142 647.577 113.142C647.838 113.142 648.049 113.372 648.049 113.657V129.656C648.049 129.94 647.838 130.171 647.577 130.171Z" fill="black"/>
<path d="M666.965 146.169C666.704 146.169 666.493 145.938 666.493 145.653V129.655C666.493 129.37 666.704 129.14 666.965 129.14C667.226 129.14 667.437 129.37 667.437 129.655V145.653C667.437 145.938 667.226 146.169 666.965 146.169Z" fill="black"/>
<path d="M253.531 130.465H217.55C217.289 130.465 217.078 130.234 217.078 129.949C217.078 129.665 217.289 129.434 217.55 129.434H253.531C253.791 129.434 254.003 129.665 254.003 129.949C254.003 130.234 253.791 130.465 253.531 130.465Z" fill="black"/>
<path d="M222.055 130.465C221.795 130.465 221.583 130.234 221.583 129.949V113.951C221.583 113.666 221.795 113.435 222.055 113.435C222.316 113.435 222.527 113.666 222.527 113.951V129.949C222.527 130.234 222.316 130.465 222.055 130.465Z" fill="black"/>
<path d="M240.825 146.463C240.565 146.463 240.353 146.232 240.353 145.947V129.949C240.353 129.664 240.565 129.433 240.825 129.433C241.086 129.433 241.297 129.664 241.297 129.949V145.947C241.297 146.232 241.086 146.463 240.825 146.463Z" fill="black"/>
<path d="M647.084 172.353H605.262C605.001 172.353 604.79 172.122 604.79 171.838C604.79 171.553 605.001 171.322 605.262 171.322H647.084C647.345 171.322 647.556 171.553 647.556 171.838C647.556 172.122 647.345 172.353 647.084 172.353Z" fill="black"/>
<path d="M638.605 172.353C638.344 172.353 638.133 172.122 638.133 171.838V155.839C638.133 155.554 638.344 155.324 638.605 155.324C638.866 155.324 639.077 155.554 639.077 155.839V171.838C639.077 172.122 638.866 172.353 638.605 172.353Z" fill="black"/>
<path d="M619.217 188.352C618.956 188.352 618.745 188.121 618.745 187.836V171.838C618.745 171.553 618.956 171.322 619.217 171.322C619.478 171.322 619.689 171.553 619.689 171.838V187.836C619.689 188.121 619.478 188.352 619.217 188.352Z" fill="black"/>
<path d="M839.748 97.6032H801.249C800.988 97.6032 800.777 97.3726 800.777 97.0878C800.777 96.803 800.988 96.5723 801.249 96.5723H839.748C840.009 96.5723 840.22 96.803 840.22 97.0878C840.22 97.3726 840.009 97.6032 839.748 97.6032Z" fill="black"/>
<path d="M831.268 97.6032C831.007 97.6032 830.796 97.3726 830.796 97.0878V81.0893C830.796 80.8045 831.007 80.5739 831.268 80.5739C831.529 80.5739 831.74 80.8045 831.74 81.0893V97.0878C831.74 97.3726 831.529 97.6032 831.268 97.6032Z" fill="black"/>
<path d="M779.912 130.171C779.651 130.171 779.44 129.94 779.44 129.656V113.657C779.44 113.372 779.651 113.142 779.912 113.142C780.173 113.142 780.384 113.372 780.384 113.657V129.656C780.384 129.94 780.173 130.171 779.912 130.171Z" fill="black"/>
<path d="M811.88 113.601C811.62 113.601 811.408 113.37 811.408 113.086V97.0871C811.408 96.8024 811.62 96.5717 811.88 96.5717C812.141 96.5717 812.352 96.8024 812.352 97.0871V113.086C812.352 113.37 812.141 113.601 811.88 113.601Z" fill="black"/>
<path d="M788.679 146.169C788.418 146.169 788.207 145.938 788.207 145.653V129.655C788.207 129.37 788.418 129.14 788.679 129.14C788.939 129.14 789.151 129.37 789.151 129.655V145.653C789.151 145.938 788.939 146.169 788.679 146.169Z" fill="black"/>
<path d="M795.506 130.171H772.634C772.374 130.171 772.163 129.94 772.163 129.656C772.163 129.371 772.374 129.14 772.634 129.14H795.506C795.767 129.14 795.978 129.371 795.978 129.656C795.977 129.94 795.766 130.171 795.506 130.171Z" fill="black"/>
<path d="M218.456 171.404H184.536C184.276 171.404 184.065 171.173 184.065 170.889C184.065 170.604 184.276 170.373 184.536 170.373H218.456C218.717 170.373 218.928 170.604 218.928 170.889C218.928 171.173 218.717 171.404 218.456 171.404Z" fill="black"/>
<path d="M193.017 171.404C192.756 171.404 192.545 171.173 192.545 170.889V154.89C192.545 154.605 192.756 154.375 193.017 154.375C193.277 154.375 193.488 154.605 193.488 154.89V170.889C193.488 171.173 193.277 171.404 193.017 171.404Z" fill="black"/>
<path d="M212.405 187.402C212.144 187.402 211.933 187.172 211.933 186.887V170.889C211.933 170.604 212.144 170.373 212.405 170.373C212.665 170.373 212.877 170.604 212.877 170.889V186.887C212.877 187.172 212.665 187.402 212.405 187.402Z" fill="black"/>
<path d="M669.089 218.528H635.169C634.908 218.528 634.697 218.297 634.697 218.012C634.697 217.727 634.908 217.497 635.169 217.497H669.089C669.349 217.497 669.561 217.727 669.561 218.012C669.561 218.297 669.349 218.528 669.089 218.528Z" fill="black"/>
<path d="M643.649 234.526C643.388 234.526 643.177 234.296 643.177 234.011V218.012C643.177 217.727 643.388 217.497 643.649 217.497C643.909 217.497 644.121 217.727 644.121 218.012V234.011C644.121 234.295 643.909 234.526 643.649 234.526Z" fill="black"/>
<path d="M663.037 218.528C662.776 218.528 662.565 218.297 662.565 218.012V202.014C662.565 201.729 662.776 201.498 663.037 201.498C663.298 201.498 663.509 201.729 663.509 202.014V218.012C663.509 218.297 663.298 218.528 663.037 218.528Z" fill="black"/>
<path d="M371.504 276.561H337.584C337.323 276.561 337.112 276.331 337.112 276.046C337.112 275.761 337.323 275.53 337.584 275.53H371.504C371.765 275.53 371.976 275.761 371.976 276.046C371.976 276.331 371.765 276.561 371.504 276.561Z" fill="black"/>
<path d="M346.065 292.56C345.804 292.56 345.593 292.329 345.593 292.044V276.046C345.593 275.761 345.804 275.53 346.065 275.53C346.325 275.53 346.537 275.761 346.537 276.046V292.044C346.537 292.328 346.325 292.56 346.065 292.56Z" fill="black"/>
<path d="M365.453 276.561C365.192 276.561 364.981 276.331 364.981 276.046V260.047C364.981 259.763 365.192 259.532 365.453 259.532C365.714 259.532 365.925 259.763 365.925 260.047V276.046C365.924 276.331 365.714 276.561 365.453 276.561Z" fill="black"/>
<path d="M249.069 218.821H215.15C214.889 218.821 214.678 218.591 214.678 218.306C214.678 218.021 214.889 217.791 215.15 217.791H249.069C249.33 217.791 249.541 218.021 249.541 218.306C249.541 218.591 249.33 218.821 249.069 218.821Z" fill="black"/>
<path d="M240.589 218.821C240.329 218.821 240.117 218.591 240.117 218.306V202.308C240.117 202.023 240.329 201.792 240.589 201.792C240.85 201.792 241.061 202.023 241.061 202.308V218.306C241.061 218.591 240.85 218.821 240.589 218.821Z" fill="black"/>
<path d="M221.201 234.82C220.94 234.82 220.729 234.589 220.729 234.305V218.306C220.729 218.021 220.94 217.791 221.201 217.791C221.462 217.791 221.673 218.021 221.673 218.306V234.305C221.673 234.589 221.462 234.82 221.201 234.82Z" fill="black"/>
<path d="M819.346 186.531H785.426C785.165 186.531 784.954 186.301 784.954 186.016C784.954 185.731 785.165 185.5 785.426 185.5H819.346C819.607 185.5 819.818 185.731 819.818 186.016C819.818 186.301 819.607 186.531 819.346 186.531Z" fill="black"/>
<path d="M810.866 186.531C810.606 186.531 810.395 186.301 810.395 186.016V170.017C810.395 169.733 810.606 169.502 810.866 169.502C811.127 169.502 811.338 169.733 811.338 170.017V186.016C811.338 186.301 811.127 186.531 810.866 186.531Z" fill="black"/>
<path d="M791.478 202.529C791.218 202.529 791.006 202.299 791.006 202.014V186.015C791.006 185.73 791.218 185.5 791.478 185.5C791.739 185.5 791.95 185.73 791.95 186.015V202.014C791.95 202.299 791.739 202.529 791.478 202.529Z" fill="black"/>
<path d="M617.406 249.259H605.262C605.002 249.259 604.791 249.029 604.791 248.744C604.791 248.459 605.002 248.228 605.262 248.228H617.406C617.667 248.228 617.878 248.459 617.878 248.744C617.878 249.029 617.666 249.259 617.406 249.259Z" fill="black"/>
<path d="M611.354 265.258C611.093 265.258 610.882 265.027 610.882 264.742V248.744C610.882 248.459 611.093 248.228 611.354 248.228C611.615 248.228 611.826 248.459 611.826 248.744V264.742C611.826 265.027 611.615 265.258 611.354 265.258Z" fill="black"/>
<path d="M846.451 234.82H807.951C807.691 234.82 807.479 234.589 807.479 234.305C807.479 234.02 807.691 233.789 807.951 233.789H846.451C846.711 233.789 846.922 234.02 846.922 234.305C846.922 234.589 846.711 234.82 846.451 234.82Z" fill="black"/>
<path d="M837.971 234.82C837.71 234.82 837.499 234.589 837.499 234.305V218.306C837.499 218.021 837.71 217.791 837.971 217.791C838.232 217.791 838.443 218.021 838.443 218.306V234.305C838.442 234.589 838.231 234.82 837.971 234.82Z" fill="black"/>
<path d="M818.583 250.818C818.322 250.818 818.111 250.587 818.111 250.302V234.304C818.111 234.019 818.322 233.788 818.583 233.788C818.843 233.788 819.055 234.019 819.055 234.304V250.302C819.055 250.587 818.843 250.818 818.583 250.818Z" fill="black"/>
<path d="M770.469 234.82C770.208 234.82 769.997 234.589 769.997 234.305V218.306C769.997 218.021 770.208 217.791 770.469 217.791C770.73 217.791 770.941 218.021 770.941 218.306V234.305C770.941 234.589 770.73 234.82 770.469 234.82Z" fill="black"/>
<path d="M779.236 250.818C778.975 250.818 778.764 250.587 778.764 250.302V234.304C778.764 234.019 778.975 233.788 779.236 233.788C779.497 233.788 779.708 234.019 779.708 234.304V250.302C779.707 250.587 779.496 250.818 779.236 250.818Z" fill="black"/>
<path d="M786.063 234.82H763.191C762.93 234.82 762.719 234.589 762.719 234.305C762.719 234.02 762.93 233.789 763.191 233.789H786.063C786.323 233.789 786.535 234.02 786.535 234.305C786.535 234.589 786.323 234.82 786.063 234.82Z" fill="black"/>
<path d="M225.437 284.56H191.517C191.256 284.56 191.045 284.33 191.045 284.045C191.045 283.76 191.256 283.529 191.517 283.529H225.437C225.698 283.529 225.909 283.76 225.909 284.045C225.909 284.33 225.697 284.56 225.437 284.56Z" fill="black"/>
<path d="M216.957 284.56C216.696 284.56 216.485 284.33 216.485 284.045V268.047C216.485 267.762 216.696 267.531 216.957 267.531C217.218 267.531 217.429 267.762 217.429 268.047V284.045C217.429 284.33 217.218 284.56 216.957 284.56Z" fill="black"/>
<path d="M197.569 300.559C197.308 300.559 197.097 300.328 197.097 300.043V284.045C197.097 283.76 197.308 283.529 197.569 283.529C197.83 283.529 198.041 283.76 198.041 284.045V300.043C198.041 300.328 197.83 300.559 197.569 300.559Z" fill="black"/>
<path d="M831.996 284.56H798.077C797.816 284.56 797.605 284.33 797.605 284.045C797.605 283.76 797.816 283.529 798.077 283.529H831.996C832.257 283.529 832.468 283.76 832.468 284.045C832.468 284.33 832.257 284.56 831.996 284.56Z" fill="black"/>
<path d="M823.517 284.56C823.256 284.56 823.045 284.33 823.045 284.045V268.047C823.045 267.762 823.256 267.531 823.517 267.531C823.777 267.531 823.989 267.762 823.989 268.047V284.045C823.989 284.33 823.777 284.56 823.517 284.56Z" fill="black"/>
<path d="M804.128 300.559C803.868 300.559 803.656 300.328 803.656 300.043V284.045C803.656 283.76 803.868 283.529 804.128 283.529C804.389 283.529 804.6 283.76 804.6 284.045V300.043C804.6 300.328 804.389 300.559 804.128 300.559Z" fill="black"/>
<path d="M638.741 297.231H605.262C605.001 297.231 604.79 297 604.79 296.715C604.79 296.431 605.001 296.2 605.262 296.2H638.741C639.001 296.2 639.213 296.431 639.213 296.715C639.213 297 639.001 297.231 638.741 297.231Z" fill="black"/>
<path d="M634.235 297.231C633.974 297.231 633.763 297 633.763 296.715V280.717C633.763 280.432 633.974 280.202 634.235 280.202C634.496 280.202 634.707 280.432 634.707 280.717V296.715C634.707 297 634.496 297.231 634.235 297.231Z" fill="black"/>
<path d="M615.465 313.229C615.204 313.229 614.993 312.999 614.993 312.714V296.715C614.993 296.431 615.204 296.2 615.465 296.2C615.726 296.2 615.937 296.431 615.937 296.715V312.714C615.937 312.999 615.726 313.229 615.465 313.229Z" fill="black"/>
<path d="M261.774 317.794H217.449C217.189 317.794 216.978 317.564 216.978 317.279C216.978 316.994 217.189 316.763 217.449 316.763H261.774C262.035 316.763 262.246 316.994 262.246 317.279C262.246 317.564 262.035 317.794 261.774 317.794Z" fill="black"/>
<path d="M225.93 317.794C225.669 317.794 225.458 317.564 225.458 317.279V301.28C225.458 300.995 225.669 300.765 225.93 300.765C226.19 300.765 226.401 300.995 226.401 301.28V317.279C226.401 317.564 226.19 317.794 225.93 317.794Z" fill="black"/>
<path d="M245.317 333.793C245.056 333.793 244.845 333.562 244.845 333.277V317.279C244.845 316.994 245.056 316.763 245.317 316.763C245.578 316.763 245.789 316.994 245.789 317.279V333.277C245.789 333.562 245.578 333.793 245.317 333.793Z" fill="black"/>
<path d="M457.101 172.868H412.777C412.516 172.868 412.305 172.638 412.305 172.353C412.305 172.068 412.516 171.838 412.777 171.838H457.101C457.362 171.838 457.573 172.068 457.573 172.353C457.573 172.638 457.362 172.868 457.101 172.868Z" fill="black"/>
<path d="M421.257 172.868C420.996 172.868 420.785 172.638 420.785 172.353V156.355C420.785 156.07 420.996 155.839 421.257 155.839C421.517 155.839 421.728 156.07 421.728 156.355V172.353C421.728 172.638 421.517 172.868 421.257 172.868Z" fill="black"/>
<path d="M440.644 188.867C440.384 188.867 440.172 188.636 440.172 188.352V172.353C440.172 172.068 440.384 171.838 440.644 171.838C440.905 171.838 441.116 172.068 441.116 172.353V188.352C441.116 188.636 440.905 188.867 440.644 188.867Z" fill="black"/>
<path d="M56.5825 266.86H18.0834C17.8226 266.86 17.6115 266.629 17.6115 266.345C17.6115 266.06 17.8226 265.829 18.0834 265.829H56.5825C56.8432 265.829 57.0544 266.06 57.0544 266.345C57.0544 266.629 56.8432 266.86 56.5825 266.86Z" fill="black"/>
<path d="M26.5628 266.86C26.3021 266.86 26.0909 266.629 26.0909 266.345V250.346C26.0909 250.061 26.3021 249.831 26.5628 249.831C26.8236 249.831 27.0348 250.061 27.0348 250.346V266.345C27.0348 266.629 26.8236 266.86 26.5628 266.86Z" fill="black"/>
<path d="M84.6219 266.86C84.3612 266.86 84.15 266.629 84.15 266.345V250.346C84.15 250.061 84.3612 249.831 84.6219 249.831C84.8826 249.831 85.0938 250.061 85.0938 250.346V266.345C85.0932 266.629 84.8821 266.86 84.6219 266.86Z" fill="black"/>
<path d="M45.951 282.859C45.6903 282.859 45.4791 282.628 45.4791 282.343V266.345C45.4791 266.06 45.6903 265.829 45.951 265.829C46.2118 265.829 46.4229 266.06 46.4229 266.345V282.343C46.4229 282.628 46.2118 282.859 45.951 282.859Z" fill="black"/>
<path d="M75.8551 282.859C75.5944 282.859 75.3832 282.628 75.3832 282.343V266.345C75.3832 266.06 75.5944 265.829 75.8551 265.829C76.1158 265.829 76.327 266.06 76.327 266.345V282.343C76.327 282.628 76.1158 282.859 75.8551 282.859Z" fill="black"/>
<path d="M91.8993 266.86H69.0278C68.7671 266.86 68.5559 266.629 68.5559 266.345C68.5559 266.06 68.7671 265.829 69.0278 265.829H91.8993C92.16 265.829 92.3712 266.06 92.3712 266.345C92.3712 266.629 92.16 266.86 91.8993 266.86Z" fill="black"/>
<path d="M663.573 333.353H629.654C629.393 333.353 629.182 333.123 629.182 332.838C629.182 332.553 629.393 332.322 629.654 332.322H663.573C663.834 332.322 664.045 332.553 664.045 332.838C664.045 333.123 663.834 333.353 663.573 333.353Z" fill="black"/>
<path d="M655.094 333.353C654.833 333.353 654.622 333.123 654.622 332.838V316.839C654.622 316.555 654.833 316.324 655.094 316.324C655.355 316.324 655.566 316.555 655.566 316.839V332.838C655.566 333.123 655.355 333.353 655.094 333.353Z" fill="black"/>
<path d="M635.706 349.352C635.446 349.352 635.234 349.121 635.234 348.836V332.838C635.234 332.553 635.446 332.322 635.706 332.322C635.967 332.322 636.178 332.553 636.178 332.838V348.836C636.178 349.12 635.966 349.352 635.706 349.352Z" fill="black"/>
<path d="M550.202 333.353H516.282C516.022 333.353 515.811 333.123 515.811 332.838C515.811 332.553 516.022 332.322 516.282 332.322H550.202C550.463 332.322 550.674 332.553 550.674 332.838C550.674 333.123 550.463 333.353 550.202 333.353Z" fill="black"/>
<path d="M541.722 333.353C541.462 333.353 541.25 333.123 541.25 332.838V316.839C541.25 316.555 541.462 316.324 541.722 316.324C541.983 316.324 542.194 316.555 542.194 316.839V332.838C542.194 333.123 541.983 333.353 541.722 333.353Z" fill="black"/>
<path d="M522.335 349.352C522.074 349.352 521.863 349.121 521.863 348.836V332.838C521.863 332.553 522.074 332.322 522.335 332.322C522.595 332.322 522.807 332.553 522.807 332.838V348.836C522.806 349.12 522.595 349.352 522.335 349.352Z" fill="black"/>
<path d="M846.451 340.921H807.951C807.691 340.921 807.479 340.69 807.479 340.405C807.479 340.12 807.691 339.89 807.951 339.89H846.451C846.711 339.89 846.922 340.12 846.922 340.405C846.922 340.69 846.711 340.921 846.451 340.921Z" fill="black"/>
<path d="M837.971 340.921C837.71 340.921 837.499 340.69 837.499 340.405V324.407C837.499 324.122 837.71 323.891 837.971 323.891C838.232 323.891 838.443 324.122 838.443 324.407V340.405C838.442 340.69 838.231 340.921 837.971 340.921Z" fill="black"/>
<path d="M818.583 356.919C818.322 356.919 818.111 356.688 818.111 356.404V340.405C818.111 340.12 818.322 339.89 818.583 339.89C818.843 339.89 819.055 340.12 819.055 340.405V356.404C819.055 356.688 818.843 356.919 818.583 356.919Z" fill="black"/>
<path d="M91.8993 321.809H18.5954C18.3347 321.809 18.1235 321.579 18.1235 321.294C18.1235 321.009 18.3347 320.779 18.5954 320.779H91.8993C92.1601 320.779 92.3712 321.009 92.3712 321.294C92.3712 321.579 92.1601 321.809 91.8993 321.809Z" fill="black"/>
<path d="M66.4596 337.808C66.1988 337.808 65.9877 337.577 65.9877 337.293V321.294C65.9877 321.009 66.1988 320.779 66.4596 320.779C66.7203 320.779 66.9315 321.009 66.9315 321.294V337.293C66.9315 337.577 66.7203 337.808 66.4596 337.808Z" fill="black"/>
<path d="M85.8478 321.809C85.587 321.809 85.3759 321.579 85.3759 321.294V305.296C85.3759 305.011 85.587 304.78 85.8478 304.78C86.1085 304.78 86.3197 305.011 86.3197 305.296V321.294C86.3197 321.579 86.1085 321.809 85.8478 321.809Z" fill="black"/>
<path d="M34.3033 337.808C34.0426 337.808 33.8314 337.577 33.8314 337.293V321.294C33.8314 321.009 34.0426 320.779 34.3033 320.779C34.5641 320.779 34.7752 321.009 34.7752 321.294V337.293C34.7752 337.577 34.5641 337.808 34.3033 337.808Z" fill="black"/>
<path d="M479.902 321.809H406.598C406.338 321.809 406.126 321.579 406.126 321.294C406.126 321.009 406.338 320.779 406.598 320.779H479.902C480.163 320.779 480.374 321.009 480.374 321.294C480.374 321.579 480.163 321.809 479.902 321.809Z" fill="black"/>
<path d="M454.462 337.808C454.202 337.808 453.99 337.577 453.99 337.293V321.294C453.99 321.009 454.202 320.779 454.462 320.779C454.723 320.779 454.934 321.009 454.934 321.294V337.293C454.934 337.577 454.723 337.808 454.462 337.808Z" fill="black"/>
<path d="M473.851 321.809C473.59 321.809 473.379 321.579 473.379 321.294V305.296C473.379 305.011 473.59 304.78 473.851 304.78C474.112 304.78 474.323 305.011 474.323 305.296V321.294C474.323 321.579 474.112 321.809 473.851 321.809Z" fill="black"/>
<path d="M422.306 337.808C422.046 337.808 421.834 337.577 421.834 337.293V321.294C421.834 321.009 422.046 320.779 422.306 320.779C422.567 320.779 422.778 321.009 422.778 321.294V337.293C422.778 337.577 422.567 337.808 422.306 337.808Z" fill="black"/>
<path d="M770.469 326.789C770.208 326.789 769.997 326.558 769.997 326.274V310.275C769.997 309.99 770.208 309.76 770.469 309.76C770.73 309.76 770.941 309.99 770.941 310.275V326.274C770.941 326.558 770.73 326.789 770.469 326.789Z" fill="black"/>
<path d="M779.236 342.788C778.975 342.788 778.764 342.557 778.764 342.272V326.274C778.764 325.989 778.975 325.758 779.236 325.758C779.497 325.758 779.708 325.989 779.708 326.274V342.272C779.707 342.556 779.496 342.788 779.236 342.788Z" fill="black"/>
<path d="M786.063 326.789H763.191C762.93 326.789 762.719 326.559 762.719 326.274C762.719 325.989 762.93 325.758 763.191 325.758H786.063C786.323 325.758 786.535 325.989 786.535 326.274C786.535 326.559 786.323 326.789 786.063 326.789Z" fill="black"/>
<path d="M229.364 356.919H195.445C195.184 356.919 194.973 356.688 194.973 356.404C194.973 356.119 195.184 355.888 195.445 355.888H229.364C229.625 355.888 229.836 356.119 229.836 356.404C229.836 356.688 229.625 356.919 229.364 356.919Z" fill="black"/>
<path d="M220.885 372.917C220.624 372.917 220.413 372.686 220.413 372.401V356.403C220.413 356.118 220.624 355.887 220.885 355.887C221.146 355.887 221.357 356.118 221.357 356.403V372.401C221.356 372.686 221.145 372.917 220.885 372.917Z" fill="black"/>
<path d="M201.497 356.919C201.236 356.919 201.025 356.688 201.025 356.404V340.405C201.025 340.12 201.236 339.89 201.497 339.89C201.758 339.89 201.969 340.12 201.969 340.405V356.404C201.969 356.688 201.758 356.919 201.497 356.919Z" fill="black"/>
<path d="M344.959 356.919H311.039C310.779 356.919 310.568 356.688 310.568 356.404C310.568 356.119 310.779 355.888 311.039 355.888H344.959C345.219 355.888 345.431 356.119 345.431 356.404C345.431 356.688 345.219 356.919 344.959 356.919Z" fill="black"/>
<path d="M336.479 372.917C336.218 372.917 336.007 372.686 336.007 372.401V356.403C336.007 356.118 336.218 355.887 336.479 355.887C336.74 355.887 336.951 356.118 336.951 356.403V372.401C336.951 372.686 336.739 372.917 336.479 372.917Z" fill="black"/>
<path d="M317.091 356.919C316.83 356.919 316.619 356.688 316.619 356.404V340.405C316.619 340.12 316.83 339.89 317.091 339.89C317.352 339.89 317.563 340.12 317.563 340.405V356.404C317.563 356.688 317.352 356.919 317.091 356.919Z" fill="black"/>
<path d="M649.384 379.61H615.465C615.204 379.61 614.993 379.379 614.993 379.094C614.993 378.81 615.204 378.579 615.465 378.579H649.384C649.645 378.579 649.856 378.81 649.856 379.094C649.856 379.379 649.645 379.61 649.384 379.61Z" fill="black"/>
<path d="M623.945 379.61C623.684 379.61 623.473 379.379 623.473 379.094V363.096C623.473 362.811 623.684 362.58 623.945 362.58C624.205 362.58 624.416 362.811 624.416 363.096V379.094C624.416 379.379 624.205 379.61 623.945 379.61Z" fill="black"/>
<path d="M643.333 395.608C643.072 395.608 642.861 395.378 642.861 395.093V379.095C642.861 378.81 643.072 378.58 643.333 378.58C643.594 378.58 643.805 378.81 643.805 379.095V395.093C643.805 395.378 643.594 395.608 643.333 395.608Z" fill="black"/>
<path d="M626.174 414.907H605.262C605.002 414.907 604.791 414.676 604.791 414.391C604.791 414.107 605.002 413.876 605.262 413.876H626.174C626.434 413.876 626.646 414.107 626.646 414.391C626.646 414.676 626.434 414.907 626.174 414.907Z" fill="black"/>
<path d="M548.179 223.348H527.267C527.007 223.348 526.795 223.117 526.795 222.832C526.795 222.547 527.007 222.317 527.267 222.317H548.179C548.439 222.317 548.65 222.547 548.65 222.832C548.65 223.117 548.439 223.348 548.179 223.348Z" fill="black"/>
<path d="M261.774 389.209H247.128C246.867 389.209 246.656 388.978 246.656 388.694C246.656 388.409 246.867 388.178 247.128 388.178H261.774C262.035 388.178 262.246 388.409 262.246 388.694C262.246 388.978 262.035 389.209 261.774 389.209Z" fill="black"/>
<path d="M253.18 405.208C252.919 405.208 252.708 404.977 252.708 404.692V388.694C252.708 388.409 252.919 388.178 253.18 388.178C253.44 388.178 253.652 388.409 253.652 388.694V404.692C253.652 404.977 253.44 405.208 253.18 405.208Z" fill="black"/>
<path d="M323.697 305.326H309.05C308.79 305.326 308.578 305.189 308.578 305.02C308.578 304.852 308.79 304.715 309.05 304.715H323.697C323.958 304.715 324.169 304.852 324.169 305.02C324.169 305.189 323.958 305.326 323.697 305.326Z" fill="black"/>
<path d="M315.102 314.805C314.842 314.805 314.63 314.669 314.63 314.5V305.02C314.63 304.852 314.842 304.715 315.102 304.715C315.363 304.715 315.574 304.852 315.574 305.02V314.5C315.574 314.668 315.363 314.805 315.102 314.805Z" fill="black"/>
<path d="M60.2675 382.735H21.7678C21.5071 382.735 21.2959 382.504 21.2959 382.219C21.2959 381.934 21.5071 381.704 21.7678 381.704H60.267C60.5277 381.704 60.7389 381.934 60.7389 382.219C60.7389 382.504 60.5277 382.735 60.2675 382.735Z" fill="black"/>
<path d="M30.2479 382.735C29.9872 382.735 29.776 382.504 29.776 382.219V366.221C29.776 365.936 29.9872 365.705 30.2479 365.705C30.5086 365.705 30.7198 365.936 30.7198 366.221V382.219C30.7198 382.504 30.5086 382.735 30.2479 382.735Z" fill="black"/>
<path d="M49.6361 398.733C49.3754 398.733 49.1642 398.502 49.1642 398.218V382.219C49.1642 381.934 49.3754 381.704 49.6361 381.704C49.8968 381.704 50.108 381.934 50.108 382.219V398.218C50.1074 398.502 49.8962 398.733 49.6361 398.733Z" fill="black"/>
<path d="M94.0648 419.157C93.8041 419.157 93.5929 418.927 93.5929 418.642V402.643C93.5929 402.359 93.8041 402.128 94.0648 402.128C94.3255 402.128 94.5367 402.359 94.5367 402.643V418.642C94.5367 418.927 94.3255 419.157 94.0648 419.157Z" fill="black"/>
<path d="M85.298 435.156C85.0372 435.156 84.826 434.925 84.826 434.64V418.642C84.826 418.357 85.0372 418.126 85.298 418.126C85.5587 418.126 85.7699 418.357 85.7699 418.642V434.64C85.7699 434.925 85.5587 435.156 85.298 435.156Z" fill="black"/>
<path d="M101.343 419.157H78.4713C78.2106 419.157 77.9994 418.927 77.9994 418.642C77.9994 418.357 78.2106 418.126 78.4713 418.126H101.343C101.603 418.126 101.815 418.357 101.815 418.642C101.814 418.927 101.603 419.157 101.343 419.157Z" fill="black"/>
<path d="M386.799 419.157C386.538 419.157 386.327 418.927 386.327 418.642V402.643C386.327 402.359 386.538 402.128 386.799 402.128C387.06 402.128 387.271 402.359 387.271 402.643V418.642C387.271 418.927 387.06 419.157 386.799 419.157Z" fill="black"/>
<path d="M378.032 435.156C377.771 435.156 377.56 434.925 377.56 434.64V418.642C377.56 418.357 377.771 418.126 378.032 418.126C378.293 418.126 378.504 418.357 378.504 418.642V434.64C378.504 434.925 378.293 435.156 378.032 435.156Z" fill="black"/>
<path d="M394.077 419.157H371.206C370.945 419.157 370.734 418.927 370.734 418.642C370.734 418.357 370.945 418.126 371.206 418.126H394.077C394.338 418.126 394.549 418.357 394.549 418.642C394.548 418.927 394.337 419.157 394.077 419.157Z" fill="black"/>
<path d="M673.017 449.562H639.097C638.837 449.562 638.625 449.331 638.625 449.047C638.625 448.762 638.837 448.531 639.097 448.531H673.017C673.277 448.531 673.489 448.762 673.489 449.047C673.489 449.331 673.277 449.562 673.017 449.562Z" fill="black"/>
<path d="M647.577 449.562C647.316 449.562 647.105 449.331 647.105 449.047V433.048C647.105 432.763 647.316 432.533 647.577 432.533C647.838 432.533 648.049 432.763 648.049 433.048V449.047C648.049 449.331 647.838 449.562 647.577 449.562Z" fill="black"/>
<path d="M666.965 465.561C666.704 465.561 666.493 465.33 666.493 465.045V449.047C666.493 448.762 666.704 448.531 666.965 448.531C667.226 448.531 667.437 448.762 667.437 449.047V465.045C667.437 465.33 667.226 465.561 666.965 465.561Z" fill="black"/>
<path d="M354.072 449.562H320.152C319.892 449.562 319.681 449.331 319.681 449.047C319.681 448.762 319.892 448.531 320.152 448.531H354.072C354.332 448.531 354.544 448.762 354.544 449.047C354.544 449.331 354.332 449.562 354.072 449.562Z" fill="black"/>
<path d="M328.632 449.562C328.371 449.562 328.16 449.331 328.16 449.047V433.048C328.16 432.763 328.371 432.533 328.632 432.533C328.893 432.533 329.104 432.763 329.104 433.048V449.047C329.104 449.331 328.893 449.562 328.632 449.562Z" fill="black"/>
<path d="M348.02 465.561C347.76 465.561 347.548 465.33 347.548 465.045V449.047C347.548 448.762 347.76 448.531 348.02 448.531C348.281 448.531 348.492 448.762 348.492 449.047V465.045C348.492 465.33 348.281 465.561 348.02 465.561Z" fill="black"/>
<path d="M72.2072 451.154H38.2873C38.0266 451.154 37.8154 450.924 37.8154 450.639C37.8154 450.354 38.0266 450.123 38.2873 450.123H72.2072C72.468 450.123 72.6791 450.354 72.6791 450.639C72.6791 450.924 72.468 451.154 72.2072 451.154Z" fill="black"/>
<path d="M46.7674 451.154C46.5067 451.154 46.2955 450.923 46.2955 450.639V434.64C46.2955 434.355 46.5067 434.125 46.7674 434.125C47.0282 434.125 47.2393 434.355 47.2393 434.64V450.639C47.2393 450.923 47.0282 451.154 46.7674 451.154Z" fill="black"/>
<path d="M66.1556 467.152C65.8949 467.152 65.6837 466.921 65.6837 466.637V450.639C65.6837 450.354 65.8949 450.123 66.1556 450.123C66.4163 450.123 66.6275 450.354 66.6275 450.639V466.637C66.6275 466.921 66.4158 467.152 66.1556 467.152Z" fill="black"/>
<path d="M261.774 439.542H225.793C225.533 439.542 225.321 439.311 225.321 439.027C225.321 438.742 225.533 438.511 225.793 438.511H261.774C262.035 438.511 262.246 438.742 262.246 439.027C262.246 439.311 262.035 439.542 261.774 439.542Z" fill="black"/>
<path d="M230.299 439.542C230.038 439.542 229.827 439.311 229.827 439.027V423.028C229.827 422.743 230.038 422.513 230.299 422.513C230.56 422.513 230.771 422.743 230.771 423.028V439.027C230.771 439.311 230.559 439.542 230.299 439.542Z" fill="black"/>
<path d="M249.069 455.54C248.808 455.54 248.597 455.309 248.597 455.024V439.026C248.597 438.741 248.808 438.511 249.069 438.511C249.33 438.511 249.541 438.741 249.541 439.026V455.024C249.541 455.309 249.33 455.54 249.069 455.54Z" fill="black"/>
<path d="M647.084 497.236H605.262C605.001 497.236 604.79 497.005 604.79 496.721C604.79 496.436 605.001 496.205 605.262 496.205H647.084C647.345 496.205 647.556 496.436 647.556 496.721C647.556 497.005 647.345 497.236 647.084 497.236Z" fill="black"/>
<path d="M638.605 497.236C638.344 497.236 638.133 497.005 638.133 496.721V480.722C638.133 480.437 638.344 480.207 638.605 480.207C638.866 480.207 639.077 480.437 639.077 480.722V496.721C639.077 497.005 638.866 497.236 638.605 497.236Z" fill="black"/>
<path d="M619.217 513.235C618.956 513.235 618.745 513.004 618.745 512.719V496.721C618.745 496.436 618.956 496.205 619.217 496.205C619.478 496.205 619.689 496.436 619.689 496.721V512.719C619.689 513.004 619.478 513.235 619.217 513.235Z" fill="black"/>
<path d="M807.222 400.055H768.723C768.462 400.055 768.251 399.824 768.251 399.539C768.251 399.254 768.462 399.024 768.723 399.024H807.222C807.483 399.024 807.694 399.254 807.694 399.539C807.694 399.824 807.483 400.055 807.222 400.055Z" fill="black"/>
<path d="M777.203 400.055C776.942 400.055 776.731 399.824 776.731 399.539V383.541C776.731 383.256 776.942 383.025 777.203 383.025C777.463 383.025 777.675 383.256 777.675 383.541V399.539C777.675 399.823 777.463 400.055 777.203 400.055Z" fill="black"/>
<path d="M835.262 400.055C835.001 400.055 834.79 399.824 834.79 399.539V383.541C834.79 383.256 835.001 383.025 835.262 383.025C835.522 383.025 835.734 383.256 835.734 383.541V399.539C835.733 399.823 835.522 400.055 835.262 400.055Z" fill="black"/>
<path d="M796.591 416.052C796.33 416.052 796.119 415.822 796.119 415.537V399.538C796.119 399.254 796.33 399.023 796.591 399.023C796.852 399.023 797.063 399.254 797.063 399.538V415.537C797.063 415.822 796.852 416.052 796.591 416.052Z" fill="black"/>
<path d="M826.495 416.052C826.234 416.052 826.023 415.822 826.023 415.537V399.538C826.023 399.254 826.234 399.023 826.495 399.023C826.756 399.023 826.967 399.254 826.967 399.538V415.537C826.967 415.822 826.755 416.052 826.495 416.052Z" fill="black"/>
<path d="M842.539 400.055H819.668C819.407 400.055 819.196 399.824 819.196 399.539C819.196 399.254 819.407 399.024 819.668 399.024H842.539C842.8 399.024 843.011 399.254 843.011 399.539C843.011 399.824 842.8 400.055 842.539 400.055Z" fill="black"/>
<path d="M537.546 400.055H499.047C498.786 400.055 498.575 399.824 498.575 399.539C498.575 399.254 498.786 399.024 499.047 399.024H537.546C537.807 399.024 538.018 399.254 538.018 399.539C538.018 399.824 537.807 400.055 537.546 400.055Z" fill="black"/>
<path d="M507.526 400.055C507.266 400.055 507.054 399.824 507.054 399.539V383.541C507.054 383.256 507.266 383.025 507.526 383.025C507.787 383.025 507.998 383.256 507.998 383.541V399.539C507.998 399.823 507.787 400.055 507.526 400.055Z" fill="black"/>
<path d="M565.585 400.055C565.325 400.055 565.114 399.824 565.114 399.539V383.541C565.114 383.256 565.325 383.025 565.585 383.025C565.846 383.025 566.057 383.256 566.057 383.541V399.539C566.057 399.823 565.846 400.055 565.585 400.055Z" fill="black"/>
<path d="M526.915 416.052C526.654 416.052 526.443 415.822 526.443 415.537V399.538C526.443 399.254 526.654 399.023 526.915 399.023C527.175 399.023 527.386 399.254 527.386 399.538V415.537C527.386 415.822 527.175 416.052 526.915 416.052Z" fill="black"/>
<path d="M556.819 416.052C556.558 416.052 556.347 415.822 556.347 415.537V399.538C556.347 399.254 556.558 399.023 556.819 399.023C557.079 399.023 557.29 399.254 557.29 399.538V415.537C557.29 415.822 557.079 416.052 556.819 416.052Z" fill="black"/>
<path d="M572.863 400.055H549.991C549.731 400.055 549.52 399.824 549.52 399.539C549.52 399.254 549.731 399.024 549.991 399.024H572.863C573.124 399.024 573.335 399.254 573.335 399.539C573.335 399.824 573.124 400.055 572.863 400.055Z" fill="black"/>
<path d="M446.87 400.055H408.371C408.11 400.055 407.899 399.824 407.899 399.539C407.899 399.254 408.11 399.024 408.371 399.024H446.87C447.131 399.024 447.342 399.254 447.342 399.539C447.342 399.824 447.131 400.055 446.87 400.055Z" fill="black"/>
<path d="M416.85 400.055C416.59 400.055 416.378 399.824 416.378 399.539V383.541C416.378 383.256 416.59 383.025 416.85 383.025C417.111 383.025 417.322 383.256 417.322 383.541V399.539C417.322 399.823 417.111 400.055 416.85 400.055Z" fill="black"/>
<path d="M474.909 400.055C474.649 400.055 474.438 399.824 474.438 399.539V383.541C474.438 383.256 474.649 383.025 474.909 383.025C475.17 383.025 475.381 383.256 475.381 383.541V399.539C475.381 399.823 475.17 400.055 474.909 400.055Z" fill="black"/>
<path d="M436.238 416.052C435.978 416.052 435.767 415.822 435.767 415.537V399.538C435.767 399.254 435.978 399.023 436.238 399.023C436.499 399.023 436.71 399.254 436.71 399.538V415.537C436.71 415.822 436.499 416.052 436.238 416.052Z" fill="black"/>
<path d="M466.143 416.052C465.882 416.052 465.671 415.822 465.671 415.537V399.538C465.671 399.254 465.882 399.023 466.143 399.023C466.403 399.023 466.614 399.254 466.614 399.538V415.537C466.614 415.822 466.403 416.052 466.143 416.052Z" fill="black"/>
<path d="M482.187 400.055H459.315C459.054 400.055 458.843 399.824 458.843 399.539C458.843 399.254 459.054 399.024 459.315 399.024H482.187C482.447 399.024 482.659 399.254 482.659 399.539C482.659 399.824 482.447 400.055 482.187 400.055Z" fill="black"/>
<path d="M234.88 471.538H200.961C200.7 471.538 200.489 471.308 200.489 471.023C200.489 470.738 200.7 470.508 200.961 470.508H234.88C235.141 470.508 235.352 470.738 235.352 471.023C235.352 471.308 235.141 471.538 234.88 471.538Z" fill="black"/>
<path d="M209.44 471.538C209.179 471.538 208.968 471.308 208.968 471.023V455.024C208.968 454.74 209.179 454.509 209.44 454.509C209.701 454.509 209.912 454.74 209.912 455.024V471.023C209.912 471.308 209.701 471.538 209.44 471.538Z" fill="black"/>
<path d="M228.828 487.536C228.568 487.536 228.356 487.306 228.356 487.021V471.023C228.356 470.738 228.568 470.508 228.828 470.508C229.089 470.508 229.3 470.738 229.3 471.023V487.021C229.3 487.306 229.088 487.536 228.828 487.536Z" fill="black"/>
<path d="M56.5825 511.05H18.0834C17.8226 511.05 17.6115 510.82 17.6115 510.535C17.6115 510.25 17.8226 510.02 18.0834 510.02H56.5825C56.8432 510.02 57.0544 510.25 57.0544 510.535C57.0544 510.82 56.8432 511.05 56.5825 511.05Z" fill="black"/>
<path d="M26.5628 511.05C26.3021 511.05 26.0909 510.82 26.0909 510.535V494.537C26.0909 494.252 26.3021 494.021 26.5628 494.021C26.8236 494.021 27.0348 494.252 27.0348 494.537V510.535C27.0348 510.82 26.8236 511.05 26.5628 511.05Z" fill="black"/>
<path d="M45.951 527.049C45.6903 527.049 45.4791 526.818 45.4791 526.533V510.535C45.4791 510.25 45.6903 510.02 45.951 510.02C46.2118 510.02 46.4229 510.25 46.4229 510.535V526.533C46.4229 526.818 46.2118 527.049 45.951 527.049Z" fill="black"/>
<path d="M367.563 511.05H329.064C328.803 511.05 328.592 510.82 328.592 510.535C328.592 510.25 328.803 510.02 329.064 510.02H367.563C367.824 510.02 368.035 510.25 368.035 510.535C368.035 510.82 367.824 511.05 367.563 511.05Z" fill="black"/>
<path d="M337.543 511.05C337.282 511.05 337.071 510.82 337.071 510.535V494.537C337.071 494.252 337.282 494.021 337.543 494.021C337.804 494.021 338.015 494.252 338.015 494.537V510.535C338.015 510.82 337.804 511.05 337.543 511.05Z" fill="black"/>
<path d="M356.931 527.049C356.671 527.049 356.459 526.818 356.459 526.533V510.535C356.459 510.25 356.671 510.02 356.931 510.02C357.192 510.02 357.403 510.25 357.403 510.535V526.533C357.403 526.818 357.192 527.049 356.931 527.049Z" fill="black"/>
<path d="M841.748 455.246H768.444C768.183 455.246 767.972 455.015 767.972 454.731C767.972 454.446 768.183 454.215 768.444 454.215H841.748C842.009 454.215 842.22 454.446 842.22 454.731C842.22 455.015 842.009 455.246 841.748 455.246Z" fill="black"/>
<path d="M793.884 471.245C793.623 471.245 793.412 471.014 793.412 470.729V454.731C793.412 454.446 793.623 454.215 793.884 454.215C794.145 454.215 794.356 454.446 794.356 454.731V470.729C794.355 471.014 794.144 471.245 793.884 471.245Z" fill="black"/>
<path d="M774.496 455.246C774.235 455.246 774.024 455.015 774.024 454.731V438.732C774.024 438.447 774.235 438.217 774.496 438.217C774.756 438.217 774.967 438.447 774.967 438.732V454.731C774.967 455.015 774.756 455.246 774.496 455.246Z" fill="black"/>
<path d="M826.04 471.245C825.779 471.245 825.568 471.014 825.568 470.729V454.731C825.568 454.446 825.779 454.215 826.04 454.215C826.301 454.215 826.512 454.446 826.512 454.731V470.729C826.511 471.014 826.3 471.245 826.04 471.245Z" fill="black"/>
<path d="M564.039 455.246H490.735C490.474 455.246 490.263 455.015 490.263 454.731C490.263 454.446 490.474 454.215 490.735 454.215H564.039C564.299 454.215 564.511 454.446 564.511 454.731C564.511 455.015 564.299 455.246 564.039 455.246Z" fill="black"/>
<path d="M516.175 471.245C515.914 471.245 515.703 471.014 515.703 470.729V454.731C515.703 454.446 515.914 454.215 516.175 454.215C516.435 454.215 516.646 454.446 516.646 454.731V470.729C516.646 471.014 516.435 471.245 516.175 471.245Z" fill="black"/>
<path d="M496.786 455.246C496.526 455.246 496.314 455.015 496.314 454.731V438.732C496.314 438.447 496.526 438.217 496.786 438.217C497.047 438.217 497.258 438.447 497.258 438.732V454.731C497.258 455.015 497.047 455.246 496.786 455.246Z" fill="black"/>
<path d="M548.331 471.245C548.07 471.245 547.859 471.014 547.859 470.729V454.731C547.859 454.446 548.07 454.215 548.331 454.215C548.592 454.215 548.803 454.446 548.803 454.731V470.729C548.802 471.014 548.591 471.245 548.331 471.245Z" fill="black"/>
<path d="M94.0648 488.481C93.8041 488.481 93.5929 488.25 93.5929 487.965V471.967C93.5929 471.682 93.8041 471.451 94.0648 471.451C94.3255 471.451 94.5367 471.682 94.5367 471.967V487.965C94.5367 488.25 94.3255 488.481 94.0648 488.481Z" fill="black"/>
<path d="M85.298 504.479C85.0372 504.479 84.826 504.249 84.826 503.964V487.965C84.826 487.681 85.0372 487.45 85.298 487.45C85.5587 487.45 85.7699 487.681 85.7699 487.965V503.964C85.7699 504.249 85.5587 504.479 85.298 504.479Z" fill="black"/>
<path d="M101.343 488.481H78.4713C78.2106 488.481 77.9994 488.25 77.9994 487.965C77.9994 487.681 78.2106 487.45 78.4713 487.45H101.343C101.603 487.45 101.815 487.681 101.815 487.965C101.815 488.25 101.603 488.481 101.343 488.481Z" fill="black"/>
<path d="M669.089 532.136H635.169C634.908 532.136 634.697 531.906 634.697 531.621C634.697 531.336 634.908 531.105 635.169 531.105H669.089C669.349 531.105 669.561 531.336 669.561 531.621C669.561 531.906 669.349 532.136 669.089 532.136Z" fill="black"/>
<path d="M663.037 532.136C662.776 532.136 662.565 531.906 662.565 531.621V515.622C662.565 515.338 662.776 515.107 663.037 515.107C663.298 515.107 663.509 515.338 663.509 515.622V531.621C663.509 531.906 663.298 532.136 663.037 532.136Z" fill="black"/>
<path d="M249.069 511.606H215.15C214.889 511.606 214.678 511.376 214.678 511.091C214.678 510.806 214.889 510.576 215.15 510.576H249.069C249.33 510.576 249.541 510.806 249.541 511.091C249.541 511.376 249.33 511.606 249.069 511.606Z" fill="black"/>
<path d="M240.589 511.606C240.329 511.606 240.117 511.376 240.117 511.091V495.093C240.117 494.808 240.329 494.577 240.589 494.577C240.85 494.577 241.061 494.808 241.061 495.093V511.091C241.061 511.376 240.85 511.606 240.589 511.606Z" fill="black"/>
<path d="M221.201 527.605C220.94 527.605 220.729 527.374 220.729 527.09V511.091C220.729 510.806 220.94 510.576 221.201 510.576C221.462 510.576 221.673 510.806 221.673 511.091V527.09C221.673 527.374 221.462 527.605 221.201 527.605Z" fill="black"/>
<path d="M831.996 515.26H798.077C797.816 515.26 797.605 515.029 797.605 514.744C797.605 514.459 797.816 514.229 798.077 514.229H831.996C832.257 514.229 832.468 514.459 832.468 514.744C832.468 515.029 832.257 515.26 831.996 515.26Z" fill="black"/>
<path d="M823.517 515.26C823.256 515.26 823.045 515.029 823.045 514.744V498.746C823.045 498.461 823.256 498.23 823.517 498.23C823.777 498.23 823.989 498.461 823.989 498.746V514.744C823.989 515.029 823.777 515.26 823.517 515.26Z" fill="black"/>
<path d="M804.128 531.258C803.868 531.258 803.656 531.027 803.656 530.743V514.744C803.656 514.459 803.868 514.229 804.128 514.229C804.389 514.229 804.6 514.459 804.6 514.744V530.743C804.6 531.027 804.389 531.258 804.128 531.258Z" fill="black"/>
<path d="M536.213 515.26H502.293C502.033 515.26 501.822 515.029 501.822 514.744C501.822 514.459 502.033 514.229 502.293 514.229H536.213C536.473 514.229 536.685 514.459 536.685 514.744C536.685 515.029 536.473 515.26 536.213 515.26Z" fill="black"/>
<path d="M527.733 515.26C527.472 515.26 527.261 515.029 527.261 514.744V498.746C527.261 498.461 527.472 498.23 527.733 498.23C527.994 498.23 528.205 498.461 528.205 498.746V514.744C528.205 515.029 527.994 515.26 527.733 515.26Z" fill="black"/>
<path d="M508.345 531.258C508.084 531.258 507.873 531.027 507.873 530.743V514.744C507.873 514.459 508.084 514.229 508.345 514.229C508.606 514.229 508.817 514.459 508.817 514.744V530.743C508.817 531.027 508.606 531.258 508.345 531.258Z" fill="black"/>
<path d="M459.078 515.775H425.159C424.898 515.775 424.687 515.544 424.687 515.26C424.687 514.975 424.898 514.744 425.159 514.744H459.078C459.339 514.744 459.55 514.975 459.55 515.26C459.55 515.544 459.339 515.775 459.078 515.775Z" fill="black"/>
<path d="M450.599 515.775C450.338 515.775 450.127 515.544 450.127 515.26V499.261C450.127 498.976 450.338 498.746 450.599 498.746C450.859 498.746 451.071 498.976 451.071 499.261V515.26C451.071 515.544 450.859 515.775 450.599 515.775Z" fill="black"/>
<path d="M431.21 531.774C430.95 531.774 430.739 531.543 430.739 531.258V515.26C430.739 514.975 430.95 514.744 431.21 514.744C431.471 514.744 431.682 514.975 431.682 515.26V531.258C431.682 531.543 431.471 531.774 431.21 531.774Z" fill="black"/>
<path d="M617.406 568.651H605.262C605.002 568.651 604.791 568.42 604.791 568.136C604.791 567.851 605.002 567.62 605.262 567.62H617.406C617.667 567.62 617.878 567.851 617.878 568.136C617.878 568.42 617.666 568.651 617.406 568.651Z" fill="black"/>
<path d="M611.354 584.649C611.093 584.649 610.882 584.418 610.882 584.133V568.135C610.882 567.85 611.093 567.62 611.354 567.62C611.615 567.62 611.826 567.85 611.826 568.135V584.133C611.826 584.418 611.615 584.649 611.354 584.649Z" fill="black"/>
<path d="M846.451 579.709H826.282C826.021 579.709 825.81 579.478 825.81 579.194C825.81 578.909 826.021 578.678 826.282 578.678H846.451C846.711 578.678 846.922 578.909 846.922 579.194C846.922 579.478 846.711 579.709 846.451 579.709Z" fill="black"/>
<path d="M837.971 579.709C837.71 579.709 837.499 579.478 837.499 579.194V563.195C837.499 562.91 837.71 562.68 837.971 562.68C838.232 562.68 838.443 562.91 838.443 563.195V579.194C838.442 579.478 838.231 579.709 837.971 579.709Z" fill="black"/>
<path d="M94.0647 567.894H60.1949C59.9342 567.894 59.723 567.663 59.723 567.379C59.723 567.094 59.9342 566.863 60.1949 566.863H94.0647C94.3254 566.863 94.5366 567.094 94.5366 567.379C94.5366 567.663 94.3254 567.894 94.0647 567.894Z" fill="black"/>
<path d="M52.8085 567.894H20.7608C20.5001 567.894 20.2889 567.663 20.2889 567.379C20.2889 567.094 20.5001 566.863 20.7608 566.863H52.8085C53.0692 566.863 53.2804 567.094 53.2804 567.379C53.2804 567.663 53.0692 567.894 52.8085 567.894Z" fill="black"/>
<path d="M46.2007 575.09C45.9399 575.09 45.7288 574.859 45.7288 574.575V567.379C45.7288 567.094 45.9399 566.864 46.2007 566.864C46.4614 566.864 46.6726 567.094 46.6726 567.379V574.575C46.6726 574.859 46.4614 575.09 46.2007 575.09Z" fill="black"/>
<path d="M26.8125 567.894C26.5518 567.894 26.3406 567.663 26.3406 567.379V551.381C26.3406 551.096 26.5518 550.865 26.8125 550.865C27.0732 550.865 27.2844 551.096 27.2844 551.381V567.379C27.2844 567.663 27.0732 567.894 26.8125 567.894Z" fill="black"/>
<path d="M78.3568 578.172C78.0961 578.172 77.8849 577.942 77.8849 577.657V567.379C77.8849 567.094 78.0961 566.864 78.3568 566.864C78.6175 566.864 78.8287 567.094 78.8287 567.379V577.657C78.8287 577.942 78.6175 578.172 78.3568 578.172Z" fill="black"/>
<path d="M412.363 567.894H378.493C378.233 567.894 378.021 567.663 378.021 567.379C378.021 567.094 378.233 566.863 378.493 566.863H412.363C412.624 566.863 412.835 567.094 412.835 567.379C412.835 567.663 412.623 567.894 412.363 567.894Z" fill="black"/>
<path d="M371.107 567.894H339.059C338.799 567.894 338.587 567.663 338.587 567.379C338.587 567.094 338.799 566.863 339.059 566.863H371.107C371.368 566.863 371.579 567.094 371.579 567.379C371.579 567.663 371.367 567.894 371.107 567.894Z" fill="black"/>
<path d="M364.499 575.09C364.238 575.09 364.027 574.859 364.027 574.575V567.379C364.027 567.094 364.238 566.864 364.499 566.864C364.759 566.864 364.97 567.094 364.97 567.379V574.575C364.97 574.859 364.76 575.09 364.499 575.09Z" fill="black"/>
<path d="M345.111 567.894C344.85 567.894 344.639 567.663 344.639 567.379V551.381C344.639 551.096 344.85 550.865 345.111 550.865C345.372 550.865 345.583 551.096 345.583 551.381V567.379C345.583 567.663 345.371 567.894 345.111 567.894Z" fill="black"/>
<path d="M396.655 578.172C396.394 578.172 396.183 577.942 396.183 577.657V567.379C396.183 567.094 396.394 566.864 396.655 566.864C396.915 566.864 397.127 567.094 397.127 567.379V577.657C397.127 577.942 396.916 578.172 396.655 578.172Z" fill="black"/>
<path d="M770.469 555.712C770.208 555.712 769.997 555.481 769.997 555.196V539.198C769.997 538.913 770.208 538.682 770.469 538.682C770.73 538.682 770.941 538.913 770.941 539.198V555.196C770.941 555.48 770.73 555.712 770.469 555.712Z" fill="black"/>
<path d="M779.236 571.71C778.975 571.71 778.764 571.479 778.764 571.194V556.129C778.764 555.844 778.975 555.614 779.236 555.614C779.497 555.614 779.708 555.844 779.708 556.129V571.194C779.707 571.479 779.496 571.71 779.236 571.71Z" fill="black"/>
<path d="M777.942 555.712H763.192C762.931 555.712 762.72 555.481 762.72 555.196C762.72 554.911 762.931 554.681 763.192 554.681H777.942C778.203 554.681 778.414 554.911 778.414 555.196C778.414 555.481 778.203 555.712 777.942 555.712Z" fill="black"/>
<path d="M526.988 555.712C526.728 555.712 526.516 555.481 526.516 555.196V539.198C526.516 538.913 526.728 538.682 526.988 538.682C527.249 538.682 527.46 538.913 527.46 539.198V555.196C527.46 555.48 527.249 555.712 526.988 555.712Z" fill="black"/>
<path d="M535.755 571.71C535.494 571.71 535.283 571.479 535.283 571.194V556.129C535.283 555.844 535.494 555.614 535.755 555.614C536.016 555.614 536.227 555.844 536.227 556.129V571.194C536.226 571.479 536.015 571.71 535.755 571.71Z" fill="black"/>
<path d="M534.461 555.712H519.711C519.45 555.712 519.239 555.481 519.239 555.196C519.239 554.911 519.45 554.681 519.711 554.681H534.461C534.722 554.681 534.933 554.911 534.933 555.196C534.933 555.481 534.722 555.712 534.461 555.712Z" fill="black"/>
<path d="M79.2746 604.901H4.12266C3.86193 604.901 3.65076 604.67 3.65076 604.386C3.65076 604.101 3.86193 603.87 4.12266 603.87H79.2746C79.5354 603.87 79.7465 604.101 79.7465 604.386C79.7465 604.67 79.5354 604.901 79.2746 604.901Z" fill="black"/>
<path d="M112.246 604.901H77.0497C76.7889 604.901 76.5778 604.67 76.5778 604.386C76.5778 604.101 76.7889 603.87 77.0497 603.87H112.246C112.507 603.87 112.718 604.101 112.718 604.386C112.718 604.67 112.507 604.901 112.246 604.901Z" fill="black"/>
<path d="M239.296 604.901H183.693C183.432 604.901 183.221 604.67 183.221 604.386C183.221 604.101 183.432 603.87 183.693 603.87H239.296C239.556 603.87 239.768 604.101 239.768 604.386C239.768 604.67 239.556 604.901 239.296 604.901Z" fill="black"/>
<path d="M667.201 604.901H238.134C237.873 604.901 237.662 604.67 237.662 604.386C237.662 604.101 237.873 603.87 238.134 603.87H667.201C667.462 603.87 667.673 604.101 667.673 604.386C667.673 604.67 667.461 604.901 667.201 604.901Z" fill="black"/>
<path d="M681.847 604.901H662.376C662.116 604.901 661.905 604.67 661.905 604.386C661.905 604.101 662.116 603.87 662.376 603.87H681.847C682.107 603.87 682.319 604.101 682.319 604.386C682.319 604.67 682.107 604.901 681.847 604.901Z" fill="black"/>
<path d="M785.459 604.901H753.294C753.033 604.901 752.822 604.67 752.822 604.386C752.822 604.101 753.033 603.87 753.294 603.87H785.459C785.72 603.87 785.931 604.101 785.931 604.386C785.931 604.67 785.72 604.901 785.459 604.901Z" fill="black"/>
<path d="M861.798 604.901H781.148C780.887 604.901 780.676 604.67 780.676 604.386C780.676 604.101 780.887 603.87 781.148 603.87H861.798C862.059 603.87 862.27 604.101 862.27 604.386C862.27 604.67 862.058 604.901 861.798 604.901Z" fill="black"/>
<path d="M261.774 235.764H255.306C255.045 235.764 254.834 235.533 254.834 235.248C254.834 234.964 255.045 234.733 255.306 234.733H261.774C262.035 234.733 262.246 234.964 262.246 235.248C262.246 235.533 262.035 235.764 261.774 235.764Z" fill="black"/>
<path d="M301.527 260.047H295.058C294.798 260.047 294.586 259.817 294.586 259.532C294.586 259.247 294.798 259.016 295.058 259.016H301.527C301.788 259.016 301.999 259.247 301.999 259.532C301.999 259.817 301.788 260.047 301.527 260.047Z" fill="black"/>
<path d="M261.774 544.841H255.306C255.045 544.841 254.834 544.61 254.834 544.326C254.834 544.041 255.045 543.81 255.306 543.81H261.774C262.035 543.81 262.246 544.041 262.246 544.326C262.246 544.61 262.035 544.841 261.774 544.841Z" fill="black"/>
<path d="M183.692 -82.1003V604.187C183.692 606.561 176.406 608.485 167.42 608.485C158.681 608.485 151.553 606.666 151.165 604.383C151.153 604.319 151.148 604.253 151.148 604.187V-82.1003H183.692Z" fill="#A06B44"/>
<path d="M144.792 -82.1003V604.187C144.792 604.253 144.786 604.319 144.774 604.383C144.386 606.667 137.258 608.485 128.519 608.485C119.533 608.485 112.247 606.561 112.247 604.187V-82.1003H144.792Z" fill="#A06B44"/>
<path d="M112.247 604.853C111.986 604.853 111.775 604.623 111.775 604.338V-82.1003C111.775 -82.3851 111.986 -82.6157 112.247 -82.6157C112.507 -82.6157 112.719 -82.3851 112.719 -82.1003V604.338C112.719 604.623 112.507 604.853 112.247 604.853Z" fill="black"/>
<path d="M144.792 604.853C144.531 604.853 144.32 604.623 144.32 604.338V-82.1003C144.32 -82.3851 144.531 -82.6157 144.792 -82.6157C145.052 -82.6157 145.264 -82.3851 145.264 -82.1003V604.338C145.264 604.623 145.052 604.853 144.792 604.853Z" fill="black"/>
<path d="M151.148 604.853C150.887 604.853 150.676 604.623 150.676 604.338V-82.1003C150.676 -82.3851 150.887 -82.6157 151.148 -82.6157C151.408 -82.6157 151.619 -82.3851 151.619 -82.1003V604.338C151.619 604.623 151.408 604.853 151.148 604.853Z" fill="black"/>
<path d="M183.692 604.853C183.432 604.853 183.22 604.623 183.22 604.338V-82.1003C183.22 -82.3851 183.432 -82.6157 183.692 -82.6157C183.953 -82.6157 184.164 -82.3851 184.164 -82.1003V604.338C184.164 604.623 183.953 604.853 183.692 604.853Z" fill="black"/>
<path d="M151.148 604.9H144.792C144.531 604.9 144.32 604.67 144.32 604.385C144.32 604.1 144.531 603.869 144.792 603.869H151.148C151.408 603.869 151.619 604.1 151.619 604.385C151.619 604.67 151.408 604.9 151.148 604.9Z" fill="black"/>
<path d="M128.519 609C120.402 609 111.775 607.313 111.775 604.187C111.775 603.902 111.986 603.672 112.247 603.672C112.507 603.672 112.719 603.902 112.719 604.187C112.719 605.766 118.729 607.97 128.519 607.97C137.456 607.97 144.015 606.03 144.311 604.289C144.317 604.254 144.32 604.221 144.32 604.187C144.32 603.902 144.531 603.672 144.792 603.672C145.052 603.672 145.263 603.902 145.263 604.187C145.263 604.286 145.255 604.384 145.238 604.48C144.733 607.447 136.445 609 128.519 609Z" fill="black"/>
<path d="M167.42 609C159.494 609 151.206 607.447 150.7 604.477C150.684 604.384 150.676 604.286 150.676 604.187C150.676 603.902 150.887 603.672 151.148 603.672C151.408 603.672 151.619 603.902 151.619 604.187C151.619 604.221 151.622 604.253 151.628 604.286C151.924 606.03 158.483 607.97 167.42 607.97C177.21 607.97 183.221 605.767 183.221 604.187C183.221 603.902 183.432 603.672 183.692 603.672C183.953 603.672 184.164 603.902 184.164 604.187C184.164 607.313 175.537 609 167.42 609Z" fill="black"/>
<path d="M753.293 -82.0507V604.188C753.293 606.562 746.009 608.485 737.021 608.485C728.033 608.485 720.748 606.562 720.748 604.188V-82.0507H753.293Z" fill="#A06B44"/>
<path d="M714.394 -82.0507V604.188C714.394 606.562 707.108 608.485 698.12 608.485C689.134 608.485 681.847 606.562 681.847 604.188V-82.0507H714.394Z" fill="#A06B44"/>
<path d="M681.847 604.9C681.587 604.9 681.375 604.67 681.375 604.385V-82.0507C681.375 -82.3355 681.587 -82.5661 681.847 -82.5661C682.108 -82.5661 682.319 -82.3355 682.319 -82.0507V604.386C682.319 604.67 682.108 604.9 681.847 604.9Z" fill="black"/>
<path d="M714.394 604.9C714.133 604.9 713.922 604.67 713.922 604.385V-82.0507C713.922 -82.3355 714.133 -82.5661 714.394 -82.5661C714.655 -82.5661 714.866 -82.3355 714.866 -82.0507V604.386C714.866 604.67 714.655 604.9 714.394 604.9Z" fill="black"/>
<path d="M720.748 604.9C720.487 604.9 720.276 604.67 720.276 604.385V-82.0507C720.276 -82.3355 720.487 -82.5661 720.748 -82.5661C721.008 -82.5661 721.219 -82.3355 721.219 -82.0507V604.386C721.219 604.67 721.008 604.9 720.748 604.9Z" fill="black"/>
<path d="M753.292 604.9C753.032 604.9 752.821 604.67 752.821 604.385V-82.0507C752.821 -82.3355 753.032 -82.5661 753.292 -82.5661C753.553 -82.5661 753.764 -82.3355 753.764 -82.0507V604.386C753.764 604.67 753.553 604.9 753.292 604.9Z" fill="black"/>
<path d="M698.12 609C690.002 609 681.375 607.313 681.375 604.187C681.375 603.902 681.587 603.672 681.847 603.672C682.108 603.672 682.319 603.902 682.319 604.187C682.319 605.766 688.33 607.97 698.12 607.97C707.911 607.97 713.922 605.767 713.922 604.187C713.922 603.902 714.133 603.672 714.394 603.672C714.655 603.672 714.866 603.902 714.866 604.187C714.866 607.313 706.238 609 698.12 609Z" fill="black"/>
<path d="M737.02 609C728.903 609 720.276 607.313 720.276 604.187C720.276 603.902 720.487 603.672 720.748 603.672C721.008 603.672 721.219 603.902 721.219 604.187C721.219 605.766 727.23 607.97 737.02 607.97C746.81 607.97 752.821 605.767 752.821 604.187C752.821 603.902 753.032 603.672 753.292 603.672C753.553 603.672 753.764 603.902 753.764 604.187C753.764 607.313 745.137 609 737.02 609Z" fill="black"/>
<path d="M720.748 604.703H714.394C714.133 604.703 713.922 604.472 713.922 604.187C713.922 603.902 714.133 603.672 714.394 603.672H720.748C721.008 603.672 721.22 603.902 721.22 604.187C721.22 604.472 721.008 604.703 720.748 604.703Z" fill="black"/>
<path d="M91.8999 5.172H18.5954C18.3347 5.172 18.1235 4.94135 18.1235 4.65658C18.1235 4.3718 18.3347 4.14113 18.5954 4.14113H91.8999C92.1606 4.14113 92.3718 4.3718 92.3718 4.65658C92.3718 4.94135 92.1606 5.172 91.8999 5.172Z" fill="black"/>
<path d="M44.0357 21.1686C43.775 21.1686 43.5638 20.9379 43.5638 20.6531V4.65658C43.5638 4.3718 43.775 4.14113 44.0357 4.14113C44.2965 4.14113 44.5077 4.3718 44.5077 4.65658V20.6531C44.5071 20.9379 44.2959 21.1686 44.0357 21.1686Z" fill="black"/>
<path d="M24.6476 5.172C24.3868 5.172 24.1757 4.94135 24.1757 4.65658V-11.3426C24.1757 -11.6273 24.3868 -11.858 24.6476 -11.858C24.9083 -11.858 25.1195 -11.6273 25.1195 -11.3426V4.65658C25.1195 4.94135 24.9083 5.172 24.6476 5.172Z" fill="black"/>
<path d="M76.192 21.1686C75.9313 21.1686 75.7201 20.9379 75.7201 20.6531V4.65658C75.7201 4.3718 75.9313 4.14113 76.192 4.14113C76.4527 4.14113 76.6639 4.3718 76.6639 4.65658V20.6531C76.6633 20.9379 76.4521 21.1686 76.192 21.1686Z" fill="black"/>
<path d="M66.4577 45.2394H32.5372C32.2765 45.2394 32.0653 45.0088 32.0653 44.724C32.0653 44.4392 32.2765 44.2086 32.5372 44.2086H66.4577C66.7184 44.2086 66.9296 44.4392 66.9296 44.724C66.9296 45.0081 66.7184 45.2394 66.4577 45.2394Z" fill="black"/>
<path d="M41.0179 45.2394C40.7572 45.2394 40.546 45.0088 40.546 44.724V28.7249C40.546 28.4401 40.7572 28.2094 41.0179 28.2094C41.2787 28.2094 41.4898 28.4401 41.4898 28.7249V44.724C41.4898 45.0081 41.2787 45.2394 41.0179 45.2394Z" fill="black"/>
<path d="M60.4061 61.2379C60.1454 61.2379 59.9342 61.0072 59.9342 60.7225V44.7233C59.9342 44.4386 60.1454 44.2079 60.4061 44.2079C60.6668 44.2079 60.878 44.4386 60.878 44.7233V60.7225C60.878 61.0072 60.6668 61.2379 60.4061 61.2379Z" fill="black"/>
<path d="M56.5825 77.5295H18.084C17.8232 77.5295 17.6121 77.2989 17.6121 77.0141C17.6121 76.7293 17.8232 76.4987 18.084 76.4987H56.5825C56.8433 76.4987 57.0544 76.7293 57.0544 77.0141C57.0544 77.2989 56.8433 77.5295 56.5825 77.5295Z" fill="black"/>
<path d="M26.563 77.5295C26.3022 77.5295 26.0911 77.2989 26.0911 77.0141V61.0156C26.0911 60.7309 26.3022 60.5002 26.563 60.5002C26.8237 60.5002 27.0349 60.7309 27.0349 61.0156V77.0148C27.0349 77.2989 26.8237 77.5295 26.563 77.5295Z" fill="black"/>
<path d="M45.9512 93.5287C45.6904 93.5287 45.4792 93.298 45.4792 93.0132V77.0141C45.4792 76.7293 45.6904 76.4987 45.9512 76.4987C46.2119 76.4987 46.4231 76.7293 46.4231 77.0141V93.0132C46.4225 93.298 46.2113 93.5287 45.9512 93.5287Z" fill="black"/>
<path d="M94.0642 77.5295C93.8035 77.5295 93.5923 77.2989 93.5923 77.0141V61.0156C93.5923 60.7309 93.8035 60.5002 94.0642 60.5002C94.3249 60.5002 94.5361 60.7309 94.5361 61.0156V77.0148C94.5361 77.2989 94.3249 77.5295 94.0642 77.5295Z" fill="black"/>
<path d="M85.2986 93.5287C85.0378 93.5287 84.8267 93.298 84.8267 93.0132V77.0141C84.8267 76.7293 85.0378 76.4987 85.2986 76.4987C85.5593 76.4987 85.7705 76.7293 85.7705 77.0141V93.0132C85.7705 93.298 85.5593 93.5287 85.2986 93.5287Z" fill="black"/>
<path d="M101.343 77.5295H78.4718C78.2111 77.5295 77.9999 77.2989 77.9999 77.0141C77.9999 76.7293 78.2111 76.4987 78.4718 76.4987H101.343C101.604 76.4987 101.815 76.7293 101.815 77.0141C101.815 77.2989 101.603 77.5295 101.343 77.5295Z" fill="black"/>
<path d="M89.1675 120.196H55.2464C54.9857 120.196 54.7745 119.965 54.7745 119.681C54.7745 119.396 54.9857 119.165 55.2464 119.165H89.1669C89.4277 119.165 89.6388 119.396 89.6388 119.681C89.6388 119.965 89.4277 120.196 89.1675 120.196Z" fill="black"/>
<path d="M63.7272 120.196C63.4664 120.196 63.2552 119.965 63.2552 119.681V103.681C63.2552 103.397 63.4664 103.166 63.7272 103.166C63.9879 103.166 64.1991 103.397 64.1991 103.681V119.681C64.1991 119.965 63.9879 120.196 63.7272 120.196Z" fill="black"/>
<path d="M83.1153 136.195C82.8546 136.195 82.6434 135.964 82.6434 135.679V119.68C82.6434 119.395 82.8546 119.165 83.1153 119.165C83.3761 119.165 83.5872 119.395 83.5872 119.68V135.679C83.5872 135.964 83.3761 136.195 83.1153 136.195Z" fill="black"/>
<path d="M55.0335 146.464H16.5349C16.2742 146.464 16.063 146.233 16.063 145.948C16.063 145.664 16.2742 145.433 16.5349 145.433H55.0335C55.2942 145.433 55.5054 145.664 55.5054 145.948C55.5054 146.233 55.2942 146.464 55.0335 146.464Z" fill="black"/>
<path d="M25.0133 146.464C24.7526 146.464 24.5414 146.233 24.5414 145.948V129.949C24.5414 129.665 24.7526 129.434 25.0133 129.434C25.274 129.434 25.4852 129.665 25.4852 129.949V145.948C25.4852 146.233 25.274 146.464 25.0133 146.464Z" fill="black"/>
<path d="M44.4015 162.46C44.1407 162.46 43.9296 162.23 43.9296 161.945V145.948C43.9296 145.664 44.1407 145.433 44.4015 145.433C44.6622 145.433 44.8734 145.664 44.8734 145.948V161.945C44.8734 162.23 44.6622 162.46 44.4015 162.46Z" fill="black"/>
<path d="M89.456 159.62C89.1953 159.62 88.9841 159.39 88.9841 159.105V143.108C88.9841 142.824 89.1953 142.593 89.456 142.593C89.7168 142.593 89.9279 142.824 89.9279 143.108V159.105C89.9279 159.39 89.7168 159.62 89.456 159.62Z" fill="black"/>
<path d="M80.6886 175.619C80.4278 175.619 80.2167 175.388 80.2167 175.103V159.104C80.2167 158.82 80.4278 158.589 80.6886 158.589C80.9493 158.589 81.1605 158.82 81.1605 159.104V175.103C81.1605 175.388 80.9493 175.619 80.6886 175.619Z" fill="black"/>
<path d="M96.7346 159.62H73.8631C73.6024 159.62 73.3912 159.39 73.3912 159.105C73.3912 158.82 73.6024 158.59 73.8631 158.59H96.7346C96.9953 158.59 97.2065 158.82 97.2065 159.105C97.2065 159.39 96.9953 159.62 96.7346 159.62Z" fill="black"/>
<path d="M91.8999 206.834H18.5954C18.3347 206.834 18.1235 206.603 18.1235 206.318C18.1235 206.034 18.3347 205.803 18.5954 205.803H91.8999C92.1606 205.803 92.3718 206.034 92.3718 206.318C92.3718 206.603 92.1606 206.834 91.8999 206.834Z" fill="black"/>
<path d="M44.0357 206.834C43.775 206.834 43.5638 206.603 43.5638 206.318V190.319C43.5638 190.034 43.775 189.804 44.0357 189.804C44.2965 189.804 44.5077 190.034 44.5077 190.319V206.318C44.5071 206.603 44.2959 206.834 44.0357 206.834Z" fill="black"/>
<path d="M24.6476 222.832C24.3868 222.832 24.1757 222.602 24.1757 222.317V206.318C24.1757 206.033 24.3868 205.802 24.6476 205.802C24.9083 205.802 25.1195 206.033 25.1195 206.318V222.317C25.1195 222.602 24.9083 222.832 24.6476 222.832Z" fill="black"/>
<path d="M76.192 206.834C75.9313 206.834 75.7201 206.603 75.7201 206.318V190.319C75.7201 190.034 75.9313 189.804 76.192 189.804C76.4527 189.804 76.6639 190.034 76.6639 190.319V206.318C76.6633 206.603 76.4521 206.834 76.192 206.834Z" fill="black"/>
<path d="M4.12327 604.853C3.86254 604.853 3.65137 604.623 3.65137 604.338V-161.386C3.65137 -161.671 3.86254 -161.901 4.12327 -161.901C4.384 -161.901 4.59518 -161.671 4.59518 -161.386V604.337C4.59518 604.623 4.384 604.853 4.12327 604.853Z" fill="black"/>
<path d="M861.798 604.703C861.537 604.703 861.326 604.473 861.326 604.188V-127.39C861.326 -127.674 861.537 -127.905 861.798 -127.905C862.059 -127.905 862.27 -127.674 862.27 -127.39V604.188C862.269 604.473 862.058 604.703 861.798 604.703Z" fill="black"/>
<path d="M132.792 80.1828C132.531 80.1828 132.32 79.9521 132.32 79.6673V39.6715C132.32 39.3867 132.531 39.156 132.792 39.156C133.052 39.156 133.264 39.3867 133.264 39.6715V79.6673C133.264 79.9521 133.052 80.1828 132.792 80.1828Z" fill="black"/>
<path d="M123.516 180.958C123.255 180.958 123.044 180.728 123.044 180.443V140.447C123.044 140.162 123.255 139.931 123.516 139.931C123.776 139.931 123.988 140.162 123.988 140.447V180.443C123.988 180.728 123.776 180.958 123.516 180.958Z" fill="black"/>
<path d="M176.708 25.169C176.448 25.169 176.236 24.9384 176.236 24.6536V-15.3423C176.236 -15.6271 176.448 -15.8577 176.708 -15.8577C176.969 -15.8577 177.18 -15.6271 177.18 -15.3423V24.6536C177.18 24.9384 176.969 25.169 176.708 25.169Z" fill="black"/>
<path d="M167.777 136.484C167.517 136.484 167.306 136.253 167.306 135.968V95.9725C167.306 95.6877 167.517 95.4571 167.777 95.4571C168.038 95.4571 168.249 95.6877 168.249 95.9725V135.968C168.249 136.253 168.038 136.484 167.777 136.484Z" fill="black"/>
<path d="M157.918 221.687C157.657 221.687 157.446 221.456 157.446 221.171V181.175C157.446 180.891 157.657 180.66 157.918 180.66C158.178 180.66 158.389 180.891 158.389 181.175V221.171C158.389 221.456 158.178 221.687 157.918 221.687Z" fill="black"/>
<path d="M119.18 301.678C118.919 301.678 118.708 301.447 118.708 301.162V261.166C118.708 260.882 118.919 260.651 119.18 260.651C119.44 260.651 119.651 260.882 119.651 261.166V301.162C119.651 301.447 119.44 301.678 119.18 301.678Z" fill="black"/>
<path d="M132.792 413.752C132.531 413.752 132.32 413.521 132.32 413.236V373.24C132.32 372.955 132.531 372.725 132.792 372.725C133.052 372.725 133.264 372.955 133.264 373.24V413.236C133.264 413.521 133.052 413.752 132.792 413.752Z" fill="black"/>
<path d="M123.516 514.526C123.255 514.526 123.044 514.296 123.044 514.011V474.016C123.044 473.731 123.255 473.5 123.516 473.5C123.776 473.5 123.988 473.731 123.988 474.016V514.011C123.988 514.296 123.776 514.526 123.516 514.526Z" fill="black"/>
<path d="M176.708 358.737C176.448 358.737 176.236 358.507 176.236 358.222V318.226C176.236 317.941 176.448 317.71 176.708 317.71C176.969 317.71 177.18 317.941 177.18 318.226V358.222C177.18 358.507 176.969 358.737 176.708 358.737Z" fill="black"/>
<path d="M167.777 470.052C167.517 470.052 167.306 469.821 167.306 469.537V429.541C167.306 429.257 167.517 429.026 167.777 429.026C168.038 429.026 168.249 429.257 168.249 429.541V469.537C168.249 469.821 168.038 470.052 167.777 470.052Z" fill="black"/>
<path d="M157.918 555.255C157.657 555.255 157.446 555.025 157.446 554.74V514.744C157.446 514.459 157.657 514.229 157.918 514.229C158.178 514.229 158.389 514.459 158.389 514.744V554.74C158.389 555.025 158.178 555.255 157.918 555.255Z" fill="black"/>
<path d="M688.48 301.678C688.22 301.678 688.009 301.447 688.009 301.162V261.166C688.009 260.882 688.22 260.651 688.48 260.651C688.741 260.651 688.952 260.882 688.952 261.166V301.162C688.952 301.447 688.741 301.678 688.48 301.678Z" fill="black"/>
<path d="M702.092 413.752C701.831 413.752 701.62 413.521 701.62 413.236V373.24C701.62 372.956 701.831 372.725 702.092 372.725C702.353 372.725 702.564 372.956 702.564 373.24V413.236C702.564 413.521 702.353 413.752 702.092 413.752Z" fill="black"/>
<path d="M692.817 514.526C692.556 514.526 692.345 514.296 692.345 514.011V474.016C692.345 473.731 692.556 473.5 692.817 473.5C693.077 473.5 693.289 473.731 693.289 474.016V514.011C693.288 514.296 693.077 514.526 692.817 514.526Z" fill="black"/>
<path d="M746.009 358.737C745.748 358.737 745.537 358.507 745.537 358.222V318.226C745.537 317.941 745.748 317.71 746.009 317.71C746.269 317.71 746.48 317.941 746.48 318.226V358.222C746.48 358.507 746.269 358.737 746.009 358.737Z" fill="black"/>
<path d="M737.078 470.052C736.817 470.052 736.606 469.821 736.606 469.537V429.541C736.606 429.257 736.817 429.026 737.078 429.026C737.339 429.026 737.55 429.257 737.55 429.541V469.537C737.55 469.821 737.339 470.052 737.078 470.052Z" fill="black"/>
<path d="M727.218 555.255C726.957 555.255 726.746 555.025 726.746 554.74V514.744C726.746 514.459 726.957 514.229 727.218 514.229C727.479 514.229 727.69 514.459 727.69 514.744V554.74C727.69 555.025 727.479 555.255 727.218 555.255Z" fill="black"/>
<path d="M702.092 99.4072C701.831 99.4072 701.62 99.1766 701.62 98.8918V58.8959C701.62 58.6111 701.831 58.3805 702.092 58.3805C702.353 58.3805 702.564 58.6111 702.564 58.8959V98.8918C702.564 99.1766 702.353 99.4072 702.092 99.4072Z" fill="black"/>
<path d="M692.817 200.183C692.556 200.183 692.345 199.952 692.345 199.667V159.671C692.345 159.387 692.556 159.156 692.817 159.156C693.077 159.156 693.289 159.387 693.289 159.671V199.667C693.288 199.952 693.077 200.183 692.817 200.183Z" fill="black"/>
<path d="M746.009 44.3935C745.748 44.3935 745.537 44.1628 745.537 43.8781V3.88216C745.537 3.59738 745.748 3.36671 746.009 3.36671C746.269 3.36671 746.48 3.59738 746.48 3.88216V43.8781C746.48 44.1628 746.269 44.3935 746.009 44.3935Z" fill="black"/>
<path d="M737.078 155.708C736.817 155.708 736.606 155.478 736.606 155.193V115.197C736.606 114.912 736.817 114.682 737.078 114.682C737.339 114.682 737.55 114.912 737.55 115.197V155.193C737.55 155.478 737.339 155.708 737.078 155.708Z" fill="black"/>
<path d="M727.218 240.911C726.957 240.911 726.746 240.68 726.746 240.396V200.4C726.746 200.115 726.957 199.884 727.218 199.884C727.479 199.884 727.69 200.115 727.69 200.4V240.396C727.69 240.68 727.479 240.911 727.218 240.911Z" fill="black"/>
</g>
</svg>
