<svg width="866" height="200" viewBox="0 0 866 200" fill="none" xmlns="http://www.w3.org/2000/svg">
<mask id="mask0_3_6962" style="mask-type:alpha" maskUnits="userSpaceOnUse" x="0" y="0" width="866" height="200">
<rect width="866" height="200" fill="#D9D9D9"/>
</mask>
<g mask="url(#mask0_3_6962)">
<path d="M536.664 129.906H325.999V134.155H536.664V129.906Z" fill="#6D4122"/>
<path d="M329.997 129.906H325.999V183.098H329.997V129.906Z" fill="#6D4122"/>
<path d="M536.664 134.155H329.997V183.098H536.664V134.155Z" fill="#2274A5"/>
<path d="M326 154.929H4.12299V160.595H326V154.929Z" fill="#6D4122"/>
<path d="M861.795 106.704H4.12299V154.929H325.999V129.906H536.664V154.929H861.795V106.704Z" fill="#D8A96C"/>
<path d="M4.12299 160.595H112.246H325.793V183.098H536.664V160.595H861.795V753.097H605.237V286.595H261.75V754.21H4.12299V160.595Z" fill="#D8A96C"/>
<path d="M861.795 154.929H537.249V160.595H861.795V154.929Z" fill="#6D4122"/>
<path d="M861.796 84.42H4.12299V106.705H861.796V84.42Z" fill="#6D4122"/>
<path d="M861.796 53.295H4.12299V84.42H861.796V53.295Z" fill="#D8A96C"/>
<path d="M865.395 24.362V53.295H857.687H8.18098H0.471985V24.362H8.18098H857.687H865.395Z" fill="#6D4122"/>
<path d="M857.687 53.295H8.18097V67.171H857.687V53.295Z" fill="#A06B44"/>
<path d="M857.687 0.102966V24.362H8.18097V0.102966H15.684H28.212H56.783H69.309H97.882H110.408H138.979H151.507H180.078H192.606H221.177H233.703H262.276H274.803H303.373H315.902H344.472H357.001H385.571H398.098H426.67H439.197H467.767H480.296H508.866H521.395H549.966H562.494H591.065H603.591H632.162H644.69H673.261H685.789H714.36H726.888H755.459H767.985H796.558H809.084H837.655H850.183H857.687Z" fill="#D8A96C"/>
<path d="M857.686 67.642H8.18098C7.91998 67.642 7.70898 67.431 7.70898 67.17C7.70898 66.909 7.91998 66.698 8.18098 66.698H857.687C857.948 66.698 858.159 66.909 858.159 67.17C858.158 67.431 857.947 67.642 857.686 67.642Z" fill="black"/>
<path d="M865.395 24.834H0.472C0.211 24.834 0 24.623 0 24.362C0 24.101 0.211 23.89 0.472 23.89H865.396C865.657 23.89 865.868 24.101 865.868 24.362C865.868 24.623 865.656 24.834 865.395 24.834Z" fill="black"/>
<path d="M857.686 0.574982H8.18098C7.91998 0.574982 7.70898 0.363982 7.70898 0.102982C7.70898 -0.158018 7.91998 -0.369019 8.18098 -0.369019H857.687C857.948 -0.369019 858.159 -0.158018 858.159 0.102982C858.159 0.363982 857.947 0.574982 857.686 0.574982Z" fill="black"/>
<path d="M865.395 53.767C865.134 53.767 864.923 53.556 864.923 53.295V24.362C864.923 24.101 865.134 23.89 865.395 23.89C865.656 23.89 865.867 24.101 865.867 24.362V53.295C865.867 53.555 865.656 53.767 865.395 53.767Z" fill="black"/>
<path d="M0.472 53.767C0.211 53.767 0 53.556 0 53.295V24.362C0 24.101 0.211 23.89 0.472 23.89C0.733 23.89 0.944 24.101 0.944 24.362V53.295C0.944 53.555 0.732 53.767 0.472 53.767Z" fill="black"/>
<path d="M857.686 24.834C857.425 24.834 857.214 24.623 857.214 24.362V0.102982C857.214 -0.158018 857.425 -0.369019 857.686 -0.369019C857.947 -0.369019 858.158 -0.158018 858.158 0.102982V24.362C858.158 24.622 857.947 24.834 857.686 24.834Z" fill="black"/>
<path d="M8.18098 24.834C7.91998 24.834 7.70898 24.623 7.70898 24.362V0.102982C7.70898 -0.158018 7.91998 -0.369019 8.18098 -0.369019C8.44198 -0.369019 8.65298 -0.158018 8.65298 0.102982V24.362C8.65198 24.622 8.44098 24.834 8.18098 24.834Z" fill="black"/>
<path d="M865.395 53.767H0.472C0.211 53.767 0 53.556 0 53.295C0 53.035 0.211 52.823 0.472 52.823H865.396C865.657 52.823 865.868 53.034 865.868 53.295C865.867 53.555 865.656 53.767 865.395 53.767Z" fill="black"/>
<path d="M857.686 67.642C857.425 67.642 857.214 67.431 857.214 67.17V53.294C857.214 53.033 857.425 52.822 857.686 52.822C857.947 52.822 858.158 53.033 858.158 53.294V67.17C858.158 67.431 857.947 67.642 857.686 67.642Z" fill="black"/>
<path d="M8.18098 67.642C7.91998 67.642 7.70898 67.431 7.70898 67.17V53.294C7.70898 53.033 7.91998 52.822 8.18098 52.822C8.44198 52.822 8.65298 53.033 8.65298 53.294V67.17C8.65198 67.431 8.44098 67.642 8.18098 67.642Z" fill="black"/>
<path d="M37.851 67.171V72.613C37.851 73.44 37.181 74.109 36.355 74.109H17.195C16.368 74.109 15.699 73.439 15.699 72.613V67.171H37.851Z" fill="#6D4122"/>
<path d="M36.355 74.581H17.195C16.11 74.581 15.227 73.698 15.227 72.613V66.699H38.323V72.613C38.323 73.698 37.44 74.581 36.355 74.581ZM16.171 67.642V72.613C16.171 73.178 16.631 73.638 17.196 73.638H36.356C36.921 73.638 37.381 73.178 37.381 72.613V67.642H16.171Z" fill="black"/>
<path d="M85.634 67.171V72.613C85.634 73.44 84.964 74.109 84.138 74.109H64.978C64.151 74.109 63.482 73.439 63.482 72.613V67.171H85.634Z" fill="#6D4122"/>
<path d="M84.138 74.581H64.978C63.893 74.581 63.01 73.698 63.01 72.613V66.699H86.106V72.613C86.106 73.698 85.223 74.581 84.138 74.581ZM63.954 67.642V72.613C63.954 73.178 64.414 73.638 64.979 73.638H84.139C84.704 73.638 85.164 73.178 85.164 72.613V67.642H63.954Z" fill="black"/>
<path d="M230.873 67.171V72.613C230.873 73.44 230.203 74.109 229.377 74.109H210.217C209.39 74.109 208.722 73.439 208.722 72.613V67.171H230.873Z" fill="#6D4122"/>
<path d="M229.376 74.581H210.216C209.132 74.581 208.25 73.698 208.25 72.613V66.699H231.344V72.613C231.345 73.698 230.462 74.581 229.376 74.581ZM209.194 67.642V72.613C209.194 73.178 209.653 73.638 210.217 73.638H229.377C229.942 73.638 230.402 73.178 230.402 72.613V67.642H209.194Z" fill="black"/>
<path d="M278.656 67.171V72.613C278.656 73.44 277.986 74.109 277.16 74.109H258C257.175 74.109 256.505 73.439 256.505 72.613V67.171H278.656Z" fill="#6D4122"/>
<path d="M277.16 74.581H258C256.916 74.581 256.034 73.698 256.034 72.613V66.699H279.128V72.613C279.128 73.698 278.245 74.581 277.16 74.581ZM256.977 67.642V72.613C256.977 73.178 257.436 73.638 258 73.638H277.16C277.725 73.638 278.185 73.178 278.185 72.613V67.642H256.977Z" fill="black"/>
<path d="M324.55 67.171V72.613C324.55 73.44 323.882 74.109 323.055 74.109H303.895C303.068 74.109 302.399 73.439 302.399 72.613V67.171H324.55Z" fill="#6D4122"/>
<path d="M323.056 74.581H303.896C302.811 74.581 301.928 73.698 301.928 72.613V66.699H325.022V72.613C325.022 73.698 324.14 74.581 323.056 74.581ZM302.871 67.642V72.613C302.871 73.178 303.331 73.638 303.896 73.638H323.056C323.62 73.638 324.079 73.178 324.079 72.613V67.642H302.871Z" fill="black"/>
<path d="M372.335 67.171V72.613C372.335 73.44 371.665 74.109 370.839 74.109H351.679C350.852 74.109 350.183 73.439 350.183 72.613V67.171H372.335Z" fill="#6D4122"/>
<path d="M370.839 74.581H351.679C350.594 74.581 349.711 73.698 349.711 72.613V66.699H372.807V72.613C372.807 73.698 371.924 74.581 370.839 74.581ZM350.654 67.642V72.613C350.654 73.178 351.114 73.638 351.679 73.638H370.839C371.404 73.638 371.864 73.178 371.864 72.613V67.642H350.654Z" fill="black"/>
<path d="M420.118 67.171V72.613C420.118 73.44 419.448 74.109 418.622 74.109H399.462C398.635 74.109 397.966 73.439 397.966 72.613V67.171H420.118Z" fill="#6D4122"/>
<path d="M418.622 74.581H399.462C398.377 74.581 397.494 73.698 397.494 72.613V66.699H420.59V72.613C420.59 73.698 419.707 74.581 418.622 74.581ZM398.437 67.642V72.613C398.437 73.178 398.897 73.638 399.462 73.638H418.622C419.187 73.638 419.647 73.178 419.647 72.613V67.642H398.437Z" fill="black"/>
<path d="M467.901 67.171V72.613C467.901 73.44 467.231 74.109 466.405 74.109H447.245C446.418 74.109 445.749 73.439 445.749 72.613V67.171H467.901Z" fill="#6D4122"/>
<path d="M466.405 74.581H447.245C446.16 74.581 445.277 73.698 445.277 72.613V66.699H468.373V72.613C468.373 73.698 467.49 74.581 466.405 74.581ZM446.221 67.642V72.613C446.221 73.178 446.681 73.638 447.246 73.638H466.406C466.971 73.638 467.431 73.178 467.431 72.613V67.642H446.221Z" fill="black"/>
<path d="M515.685 67.171V72.613C515.685 73.44 515.015 74.109 514.189 74.109H495.029C494.202 74.109 493.533 73.439 493.533 72.613V67.171H515.685Z" fill="#6D4122"/>
<path d="M514.188 74.581H495.028C493.943 74.581 493.06 73.698 493.06 72.613V66.699H516.156V72.613C516.156 73.698 515.273 74.581 514.188 74.581ZM494.004 67.642V72.613C494.004 73.178 494.464 73.638 495.029 73.638H514.189C514.754 73.638 515.214 73.178 515.214 72.613V67.642H494.004Z" fill="black"/>
<path d="M563.468 67.171V72.613C563.468 73.44 562.798 74.109 561.972 74.109H542.812C541.985 74.109 541.317 73.439 541.317 72.613V67.171H563.468Z" fill="#6D4122"/>
<path d="M561.971 74.581H542.811C541.727 74.581 540.845 73.698 540.845 72.613V66.699H563.939V72.613C563.94 73.698 563.057 74.581 561.971 74.581ZM541.789 67.642V72.613C541.789 73.178 542.248 73.638 542.812 73.638H561.972C562.537 73.638 562.997 73.178 562.997 72.613V67.642H541.789Z" fill="black"/>
<path d="M613.215 67.171V72.613C613.215 73.44 612.545 74.109 611.72 74.109H592.558C591.733 74.109 591.063 73.439 591.063 72.613V67.171H613.215Z" fill="#6D4122"/>
<path d="M611.721 74.581H592.559C591.475 74.581 590.593 73.698 590.593 72.613V66.699H613.687V72.613C613.687 73.698 612.805 74.581 611.721 74.581ZM591.536 67.642V72.613C591.536 73.178 591.995 73.638 592.559 73.638H611.721C612.285 73.638 612.744 73.178 612.744 72.613V67.642H591.536Z" fill="black"/>
<path d="M660.998 67.171V72.613C660.998 73.44 660.328 74.109 659.503 74.109H640.341C639.516 74.109 638.846 73.439 638.846 72.613V67.171H660.998Z" fill="#6D4122"/>
<path d="M659.504 74.581H640.342C639.258 74.581 638.376 73.698 638.376 72.613V66.699H661.47V72.613C661.47 73.698 660.588 74.581 659.504 74.581ZM639.319 67.642V72.613C639.319 73.178 639.778 73.638 640.342 73.638H659.504C660.068 73.638 660.527 73.178 660.527 72.613V67.642H639.319Z" fill="black"/>
<path d="M802.383 67.171V72.613C802.383 73.44 801.715 74.109 800.888 74.109H781.728C780.901 74.109 780.232 73.439 780.232 72.613V67.171H802.383Z" fill="#6D4122"/>
<path d="M800.889 74.581H781.729C780.644 74.581 779.761 73.698 779.761 72.613V66.699H802.855V72.613C802.855 73.698 801.973 74.581 800.889 74.581ZM780.704 67.642V72.613C780.704 73.178 781.164 73.638 781.729 73.638H800.889C801.453 73.638 801.912 73.178 801.912 72.613V67.642H780.704Z" fill="black"/>
<path d="M850.168 67.171V72.613C850.168 73.44 849.498 74.109 848.672 74.109H829.512C828.685 74.109 828.016 73.439 828.016 72.613V67.171H850.168Z" fill="#6D4122"/>
<path d="M848.672 74.581H829.512C828.427 74.581 827.544 73.698 827.544 72.613V66.699H850.64V72.613C850.64 73.698 849.757 74.581 848.672 74.581ZM828.488 67.642V72.613C828.488 73.178 828.948 73.638 829.513 73.638H848.673C849.238 73.638 849.698 73.178 849.698 72.613V67.642H828.488Z" fill="black"/>
<path d="M861.795 84.891H753.255C752.994 84.891 752.783 84.68 752.783 84.419C752.783 84.158 752.994 83.947 753.255 83.947H861.795C862.056 83.947 862.267 84.158 862.267 84.419C862.267 84.68 862.056 84.891 861.795 84.891Z" fill="black"/>
<path d="M681.52 84.602H183.84C183.579 84.602 183.368 84.391 183.368 84.13C183.368 83.869 183.579 83.658 183.84 83.658H681.52C681.781 83.658 681.992 83.869 681.992 84.13C681.992 84.391 681.781 84.602 681.52 84.602Z" fill="black"/>
<path d="M861.795 84.891C861.534 84.891 861.323 84.68 861.323 84.419V53.294C861.323 53.033 861.534 52.822 861.795 52.822C862.056 52.822 862.267 53.033 862.267 53.294V84.419C862.267 84.68 862.056 84.891 861.795 84.891Z" fill="black"/>
<path d="M512.549 139.841H491.222L490.947 139.563H486.473L477.182 142.502V145.371L475.119 143.308C472.717 140.867 469.65 139.523 466.48 139.523C463.519 139.523 460.715 140.651 458.37 142.785C457.168 143.879 456.145 145.183 455.328 146.653C454.988 146.204 454.633 145.793 454.265 145.426L451.965 143.126C451.857 143.016 451.756 142.917 451.658 142.825L451.55 142.724L451.455 142.661C451.444 142.65 451.433 142.639 451.421 142.627L451.363 142.571C449.155 140.555 446.274 139.444 443.251 139.444C440.303 139.444 437.464 140.507 435.257 142.436C433.076 144.343 431.649 146.969 431.241 149.83L431.115 150.714L434.654 154.253H441.778L431.223 162.255V165.794C430.995 165.303 430.678 164.853 430.276 164.464L428.27 162.458C430.201 161.967 431.634 160.214 431.634 158.133C431.634 156.914 431.152 155.777 430.276 154.928L427.992 152.644C427.144 151.768 426.007 151.286 424.788 151.286C424.186 151.286 423.613 151.406 423.088 151.623V142.993L419.658 139.562H395.576V143.247L395.229 142.9C395.093 142.758 394.942 142.61 394.769 142.449C394.634 142.318 394.495 142.191 394.357 142.07L394.325 142.042C392.046 140.135 389.073 139.085 385.954 139.085C382.86 139.085 379.901 140.135 377.622 142.042L377.59 142.069C377.4 142.236 377.218 142.407 377.042 142.581L374.022 139.561H352.759V170.153L356.189 173.584H377.81V169.309L379.527 171.02L379.548 171.04C379.689 171.176 379.832 171.308 379.974 171.432L380.006 171.459C382.285 173.366 385.244 174.416 388.338 174.416C391.457 174.416 394.43 173.366 396.709 171.459L396.741 171.432C399.079 169.381 400.366 166.662 400.366 163.777C400.366 161.173 399.169 158.417 397.242 156.579C395.923 155.26 395.337 154.673 395.072 154.409H400.365V152.662H402.76V170.152L406.19 173.583H415.901V152.663H421.564C420.796 153.465 420.323 154.551 420.323 155.746C420.323 156.965 420.805 158.102 421.68 158.95L423.686 160.956C421.755 161.447 420.322 163.2 420.322 165.281C420.322 166.5 420.804 167.637 421.679 168.485L423.964 170.77C424.812 171.646 425.949 172.128 427.168 172.128C428.962 172.128 430.512 171.063 431.22 169.532V170.152L434.651 173.582H457.661V167.519C457.741 167.602 457.821 167.685 457.903 167.766L460.205 170.068C462.615 172.513 465.69 173.86 468.863 173.86C472.502 173.86 475.897 172.149 478.422 169.042C479.546 167.659 480.437 166.068 481.071 164.342V170.152L484.501 173.583H494.371V152.504H499.641L494.931 170.226L498.566 173.861H508.435L516.174 143.465L512.549 139.841ZM373.229 151.593H374.116C374.202 152.01 374.318 152.42 374.46 152.823L373.229 151.593ZM375.624 155.125C376.014 155.698 376.465 156.243 376.979 156.75L379.334 159.093H375.625V155.125H375.624ZM469.497 155.481C469.497 158.149 468.115 160.403 466.48 160.403C466.406 160.403 466.333 160.398 466.259 160.389C465.963 159.627 465.808 158.767 465.808 157.865C465.808 154.964 467.419 152.943 468.865 152.943C468.925 152.943 468.986 152.946 469.046 152.953C469.339 153.718 469.497 154.593 469.497 155.481Z" fill="black"/>
<path d="M373.638 169.415H361.729H354.544V141.35H361.729H373.281V147.424H361.729V152.346H371.455V158.42H361.729V163.342H373.638V169.415Z" fill="white"/>
<path d="M389.326 150.241V149.725C389.326 148.177 387.817 146.946 385.991 146.946C384.086 146.946 382.537 148.216 382.537 149.725C382.537 150.439 382.855 151.035 383.569 151.432C384.403 151.988 385.355 152.305 386.268 152.544C386.705 152.623 387.102 152.742 387.578 152.822C389.404 153.259 391.984 153.973 393.255 155.164L393.612 155.482C395.2 156.99 396.192 159.253 396.192 161.397C396.192 163.779 395.12 166.002 393.175 167.709C391.23 169.337 388.689 170.25 385.95 170.25C383.251 170.25 380.71 169.337 378.765 167.709C376.82 166.002 375.708 163.779 375.708 161.397V160.881H382.655V161.397C382.655 162.905 384.124 164.176 385.95 164.176C387.855 164.176 389.403 162.906 389.403 161.397C389.403 160.682 389.006 160.166 388.331 159.65C387.617 159.094 386.584 158.816 385.671 158.578C385.234 158.459 384.837 158.38 384.361 158.26C382.455 157.784 380.233 157.307 378.684 155.918C378.644 155.878 378.605 155.839 378.525 155.759C376.739 154.131 375.707 152.028 375.707 149.725C375.707 147.343 376.818 145.12 378.764 143.413C380.709 141.785 383.25 140.872 385.949 140.872C388.688 140.872 391.229 141.785 393.174 143.413C395.119 145.12 396.191 147.343 396.191 149.725V150.241H389.326Z" fill="white"/>
<path d="M418.916 148.495H411.731V169.415H404.546V148.495H397.361V141.35H418.916V148.495Z" fill="white"/>
<path d="M453.491 162.508V169.415H433.008V163.143L437.176 159.967L445.155 153.933C445.234 153.893 445.274 153.854 445.353 153.814C446.782 152.623 447.02 150.479 445.829 149.05C444.638 147.621 442.534 147.383 441.105 148.574C440.589 148.971 440.232 149.527 440.033 150.082H433.007C433.722 145.08 438.009 141.23 443.249 141.23C445.909 141.23 448.33 142.222 450.156 143.89C450.235 143.969 450.315 144.049 450.434 144.128C451.069 144.723 451.625 145.438 452.101 146.192C453.927 149.527 453.768 154.449 449.799 158.22C449.402 158.577 449.005 158.934 448.568 159.252C446.861 160.522 444.201 162.507 444.201 162.507L453.491 162.508Z" fill="white"/>
<path d="M478.032 155.481C478.032 163.341 472.871 169.692 466.48 169.692C460.089 169.692 454.889 163.341 454.889 155.481C454.889 147.661 460.089 141.309 466.48 141.309C472.871 141.31 478.032 147.661 478.032 155.481ZM471.283 155.481C471.283 151.789 469.139 148.772 466.48 148.772C463.821 148.772 461.637 151.789 461.637 155.481C461.637 159.212 463.82 162.19 466.48 162.19C469.14 162.19 471.283 159.213 471.283 155.481Z" fill="white"/>
<path d="M490.203 141.349V169.414H482.859V149.566L478.969 150.797V143.81L486.749 141.349H490.203Z" fill="white"/>
<path d="M511.81 141.627L504.665 169.692H496.924L502.601 148.335H491.804V141.626L511.81 141.627Z" fill="white"/>
<path d="M424.786 158.424C426.264 158.424 427.462 157.226 427.462 155.748C427.462 154.27 426.264 153.072 424.786 153.072C423.308 153.072 422.11 154.27 422.11 155.748C422.11 157.226 423.308 158.424 424.786 158.424Z" fill="#F2BF2E"/>
<path d="M424.786 167.96C426.264 167.96 427.462 166.762 427.462 165.284C427.462 163.806 426.264 162.608 424.786 162.608C423.308 162.608 422.11 163.806 422.11 165.284C422.11 166.762 423.308 167.96 424.786 167.96Z" fill="#F2BF2E"/>
<path d="M537.136 183.57H325.528V129.435H537.137V183.57H537.136ZM326.471 182.626H536.193V130.378H326.471V182.626Z" fill="black"/>
<path d="M329.997 183.57C329.736 183.57 329.525 183.359 329.525 183.098V134.155C329.525 133.894 329.736 133.683 329.997 133.683C330.258 133.683 330.469 133.894 330.469 134.155V183.098C330.469 183.359 330.258 183.57 329.997 183.57Z" fill="black"/>
<path d="M536.665 134.627H329.997C329.736 134.627 329.525 134.416 329.525 134.155C329.525 133.894 329.736 133.683 329.997 133.683H536.664C536.925 133.683 537.136 133.894 537.136 134.155C537.136 134.416 536.925 134.627 536.665 134.627Z" fill="black"/>
<path d="M329.997 134.627C329.871 134.627 329.746 134.577 329.653 134.479L325.655 130.23C325.476 130.04 325.486 129.742 325.675 129.563C325.865 129.385 326.163 129.394 326.342 129.583L330.34 133.832C330.519 134.022 330.509 134.32 330.32 134.499C330.229 134.584 330.113 134.627 329.997 134.627Z" fill="black"/>
<path d="M861.795 155.401H753.425C753.164 155.401 752.953 155.19 752.953 154.929C752.953 154.668 753.164 154.457 753.425 154.457H861.795C862.056 154.457 862.267 154.668 862.267 154.929C862.267 155.19 862.056 155.401 861.795 155.401Z" fill="black"/>
<path d="M325.793 155.401H183.84C183.579 155.401 183.368 155.19 183.368 154.929C183.368 154.668 183.579 154.457 183.84 154.457H325.793C326.054 154.457 326.265 154.668 326.265 154.929C326.265 155.19 326.054 155.401 325.793 155.401Z" fill="black"/>
<path d="M681.845 155.401H536.665C536.404 155.401 536.193 155.19 536.193 154.929C536.193 154.668 536.404 154.457 536.665 154.457H681.845C682.106 154.457 682.317 154.668 682.317 154.929C682.316 155.19 682.105 155.401 681.845 155.401Z" fill="black"/>
<path d="M861.795 107.176H753.255C752.994 107.176 752.783 106.965 752.783 106.704C752.783 106.443 752.994 106.232 753.255 106.232H861.795C862.056 106.232 862.267 106.443 862.267 106.704C862.267 106.965 862.056 107.176 861.795 107.176Z" fill="black"/>
<path d="M681.52 107.176H183.84C183.579 107.176 183.368 106.965 183.368 106.704C183.368 106.443 183.579 106.232 183.84 106.232H681.52C681.781 106.232 681.992 106.443 681.992 106.704C681.992 106.965 681.781 107.176 681.52 107.176Z" fill="black"/>
<path d="M151.01 107.176H144.935C144.674 107.176 144.463 106.965 144.463 106.704C144.463 106.443 144.674 106.232 144.935 106.232H151.01C151.271 106.232 151.482 106.443 151.482 106.704C151.482 106.965 151.271 107.176 151.01 107.176Z" fill="black"/>
<path d="M151.01 155.401H144.935C144.674 155.401 144.463 155.19 144.463 154.929C144.463 154.668 144.674 154.457 144.935 154.457H151.01C151.271 154.457 151.482 154.668 151.482 154.929C151.482 155.19 151.271 155.401 151.01 155.401Z" fill="black"/>
<path d="M151.01 84.602H144.935C144.674 84.602 144.463 84.391 144.463 84.13C144.463 83.869 144.674 83.658 144.935 83.658H151.01C151.271 83.658 151.482 83.869 151.482 84.13C151.482 84.391 151.271 84.602 151.01 84.602Z" fill="black"/>
<path d="M720.425 84.518H714.391C714.13 84.518 713.919 84.307 713.919 84.046C713.919 83.785 714.13 83.574 714.391 83.574H720.425C720.686 83.574 720.897 83.785 720.897 84.046C720.897 84.307 720.686 84.518 720.425 84.518Z" fill="black"/>
<path d="M720.425 107.176H714.391C714.13 107.176 713.919 106.965 713.919 106.704C713.919 106.443 714.13 106.232 714.391 106.232H720.425C720.686 106.232 720.897 106.443 720.897 106.704C720.897 106.965 720.686 107.176 720.425 107.176Z" fill="black"/>
<path d="M720.425 155.401H714.391C714.13 155.401 713.919 155.19 713.919 154.929C713.919 154.668 714.13 154.457 714.391 154.457H720.425C720.686 154.457 720.897 154.668 720.897 154.929C720.897 155.19 720.686 155.401 720.425 155.401Z" fill="black"/>
<path d="M225.436 176.221H191.516C191.255 176.221 191.044 176.01 191.044 175.749C191.044 175.488 191.255 175.277 191.516 175.277H225.436C225.697 175.277 225.908 175.488 225.908 175.749C225.908 176.01 225.697 176.221 225.436 176.221Z" fill="black"/>
<path d="M216.956 176.221C216.695 176.221 216.484 176.01 216.484 175.749V161.102C216.484 160.841 216.695 160.63 216.956 160.63C217.217 160.63 217.428 160.841 217.428 161.102V175.749C217.428 176.01 217.217 176.221 216.956 176.221Z" fill="black"/>
<path d="M197.568 190.868C197.307 190.868 197.096 190.657 197.096 190.396V175.75C197.096 175.489 197.307 175.278 197.568 175.278C197.829 175.278 198.04 175.489 198.04 175.75V190.397C198.04 190.657 197.829 190.868 197.568 190.868Z" fill="black"/>
<path d="M311.545 176.221H277.625C277.364 176.221 277.153 176.01 277.153 175.749C277.153 175.488 277.364 175.277 277.625 175.277H311.545C311.806 175.277 312.017 175.488 312.017 175.749C312.017 176.01 311.806 176.221 311.545 176.221Z" fill="black"/>
<path d="M303.066 176.221C302.805 176.221 302.594 176.01 302.594 175.749V161.102C302.594 160.841 302.805 160.63 303.066 160.63C303.327 160.63 303.538 160.841 303.538 161.102V175.749C303.537 176.01 303.326 176.221 303.066 176.221Z" fill="black"/>
<path d="M283.678 190.868C283.417 190.868 283.206 190.657 283.206 190.396V175.75C283.206 175.489 283.417 175.278 283.678 175.278C283.939 175.278 284.15 175.489 284.15 175.75V190.397C284.15 190.657 283.938 190.868 283.678 190.868Z" fill="black"/>
<path d="M831.994 176.221H798.075C797.814 176.221 797.603 176.01 797.603 175.749C797.603 175.488 797.814 175.277 798.075 175.277H831.994C832.255 175.277 832.466 175.488 832.466 175.749C832.466 176.01 832.254 176.221 831.994 176.221Z" fill="black"/>
<path d="M823.514 176.221C823.253 176.221 823.042 176.01 823.042 175.749V161.102C823.042 160.841 823.253 160.63 823.514 160.63C823.775 160.63 823.986 160.841 823.986 161.102V175.749C823.986 176.01 823.775 176.221 823.514 176.221Z" fill="black"/>
<path d="M804.126 190.868C803.865 190.868 803.654 190.657 803.654 190.396V175.75C803.654 175.489 803.865 175.278 804.126 175.278C804.387 175.278 804.598 175.489 804.598 175.75V190.397C804.598 190.657 804.387 190.868 804.126 190.868Z" fill="black"/>
<path d="M661.515 131.289H620.945C620.684 131.289 620.473 131.078 620.473 130.817C620.473 130.556 620.684 130.345 620.945 130.345H661.515C661.776 130.345 661.987 130.556 661.987 130.817C661.987 131.078 661.775 131.289 661.515 131.289Z" fill="black"/>
<path d="M646.384 131.289C646.123 131.289 645.912 131.078 645.912 130.817V116.17C645.912 115.909 646.123 115.698 646.384 115.698C646.645 115.698 646.856 115.909 646.856 116.17V130.817C646.856 131.077 646.645 131.289 646.384 131.289Z" fill="black"/>
<path d="M626.996 145.936C626.735 145.936 626.524 145.725 626.524 145.464V130.817C626.524 130.556 626.735 130.345 626.996 130.345C627.257 130.345 627.468 130.556 627.468 130.817V145.464C627.468 145.725 627.257 145.936 626.996 145.936Z" fill="black"/>
<path d="M601.833 131.289H550.69C550.429 131.289 550.218 131.078 550.218 130.817C550.218 130.556 550.429 130.345 550.69 130.345H601.833C602.094 130.345 602.305 130.556 602.305 130.817C602.305 131.078 602.094 131.289 601.833 131.289Z" fill="black"/>
<path d="M559.169 131.289C558.908 131.289 558.697 131.078 558.697 130.817V116.17C558.697 115.909 558.908 115.698 559.169 115.698C559.43 115.698 559.641 115.909 559.641 116.17V130.817C559.641 131.077 559.43 131.289 559.169 131.289Z" fill="black"/>
<path d="M597.328 131.289C597.067 131.289 596.856 131.078 596.856 130.817V116.17C596.856 115.909 597.067 115.698 597.328 115.698C597.589 115.698 597.8 115.909 597.8 116.17V130.817C597.799 131.077 597.588 131.289 597.328 131.289Z" fill="black"/>
<path d="M578.557 145.936C578.296 145.936 578.085 145.725 578.085 145.464V130.817C578.085 130.556 578.296 130.345 578.557 130.345C578.818 130.345 579.029 130.556 579.029 130.817V145.464C579.029 145.725 578.818 145.936 578.557 145.936Z" fill="black"/>
<path d="M638.739 176.49H587.596C587.335 176.49 587.124 176.279 587.124 176.018C587.124 175.757 587.335 175.546 587.596 175.546H638.739C639 175.546 639.211 175.757 639.211 176.018C639.21 176.279 638.999 176.49 638.739 176.49Z" fill="black"/>
<path d="M596.075 176.49C595.814 176.49 595.603 176.279 595.603 176.018V161.371C595.603 161.11 595.814 160.899 596.075 160.899C596.336 160.899 596.547 161.11 596.547 161.371V176.018C596.547 176.279 596.336 176.49 596.075 176.49Z" fill="black"/>
<path d="M634.233 176.49C633.972 176.49 633.761 176.279 633.761 176.018V161.371C633.761 161.11 633.972 160.899 634.233 160.899C634.494 160.899 634.705 161.11 634.705 161.371V176.018C634.705 176.279 634.494 176.49 634.233 176.49Z" fill="black"/>
<path d="M615.463 191.137C615.202 191.137 614.991 190.926 614.991 190.665V176.018C614.991 175.757 615.202 175.546 615.463 175.546C615.724 175.546 615.935 175.757 615.935 176.018V190.665C615.935 190.926 615.724 191.137 615.463 191.137Z" fill="black"/>
<path d="M225.929 206.649C225.668 206.649 225.457 206.438 225.457 206.177V191.53C225.457 191.269 225.668 191.058 225.929 191.058C226.19 191.058 226.401 191.269 226.401 191.53V206.177C226.4 206.437 226.189 206.649 225.929 206.649Z" fill="black"/>
<path d="M264.087 206.649C263.826 206.649 263.615 206.438 263.615 206.177V191.53C263.615 191.269 263.826 191.058 264.087 191.058C264.348 191.058 264.559 191.269 264.559 191.53V206.177C264.559 206.437 264.347 206.649 264.087 206.649Z" fill="black"/>
<path d="M827.251 131.289H793.332C793.071 131.289 792.86 131.078 792.86 130.817C792.86 130.556 793.071 130.345 793.332 130.345H827.251C827.512 130.345 827.723 130.556 827.723 130.817C827.723 131.078 827.511 131.289 827.251 131.289Z" fill="black"/>
<path d="M818.771 131.289C818.51 131.289 818.299 131.078 818.299 130.817V116.17C818.299 115.909 818.51 115.698 818.771 115.698C819.032 115.698 819.243 115.909 819.243 116.17V130.817C819.243 131.077 819.031 131.289 818.771 131.289Z" fill="black"/>
<path d="M799.383 145.936C799.122 145.936 798.911 145.725 798.911 145.464V130.817C798.911 130.556 799.122 130.345 799.383 130.345C799.644 130.345 799.855 130.556 799.855 130.817V145.464C799.855 145.725 799.643 145.936 799.383 145.936Z" fill="black"/>
<path d="M201.474 131.289C201.213 131.289 201.002 131.078 201.002 130.817V116.17C201.002 115.909 201.213 115.698 201.474 115.698C201.735 115.698 201.946 115.909 201.946 116.17V130.817C201.946 131.077 201.735 131.289 201.474 131.289Z" fill="black"/>
<path d="M305.133 131.289C304.872 131.289 304.661 131.078 304.661 130.817V116.17C304.661 115.909 304.872 115.698 305.133 115.698C305.394 115.698 305.605 115.909 305.605 116.17V130.817C305.605 131.077 305.393 131.289 305.133 131.289Z" fill="black"/>
<path d="M385.571 130.378C385.31 130.378 385.099 130.167 385.099 129.906V116.17C385.099 115.909 385.31 115.698 385.571 115.698C385.832 115.698 386.043 115.909 386.043 116.17V129.906C386.043 130.167 385.832 130.378 385.571 130.378Z" fill="black"/>
<path d="M487.317 130.378C487.056 130.378 486.845 130.167 486.845 129.906V116.17C486.845 115.909 487.056 115.698 487.317 115.698C487.578 115.698 487.789 115.909 487.789 116.17V129.906C487.789 130.167 487.578 130.378 487.317 130.378Z" fill="black"/>
<path d="M283.357 131.289H226.276C226.015 131.289 225.804 131.078 225.804 130.817C225.804 130.556 226.015 130.345 226.276 130.345H283.357C283.618 130.345 283.829 130.556 283.829 130.817C283.829 131.078 283.618 131.289 283.357 131.289Z" fill="black"/>
<path d="M263.296 131.289C263.035 131.289 262.824 131.078 262.824 130.817V116.17C262.824 115.909 263.035 115.698 263.296 115.698C263.557 115.698 263.768 115.909 263.768 116.17V130.817C263.768 131.077 263.557 131.289 263.296 131.289Z" fill="black"/>
<path d="M243.909 145.936C243.648 145.936 243.437 145.725 243.437 145.464V130.817C243.437 130.556 243.648 130.345 243.909 130.345C244.17 130.345 244.381 130.556 244.381 130.817V145.464C244.38 145.725 244.169 145.936 243.909 145.936Z" fill="black"/>
<path d="M369.738 205.851C369.477 205.851 369.266 205.64 369.266 205.379V190.732C369.266 190.471 369.477 190.26 369.738 190.26C369.999 190.26 370.21 190.471 370.21 190.732V205.379C370.21 205.64 369.999 205.851 369.738 205.851Z" fill="black"/>
<path d="M208.721 145.936C208.46 145.936 208.249 145.725 208.249 145.464V130.817C208.249 130.556 208.46 130.345 208.721 130.345C208.982 130.345 209.193 130.556 209.193 130.817V145.464C209.193 145.725 208.982 145.936 208.721 145.936Z" fill="black"/>
<path d="M315.901 131.289H305.132C304.871 131.289 304.66 131.078 304.66 130.817C304.66 130.556 304.871 130.345 305.132 130.345H315.901C316.162 130.345 316.373 130.556 316.373 130.817C316.373 131.078 316.162 131.289 315.901 131.289Z" fill="black"/>
<path d="M215.349 131.289H195.113C194.852 131.289 194.641 131.078 194.641 130.817C194.641 130.556 194.852 130.345 195.113 130.345H215.349C215.61 130.345 215.821 130.556 215.821 130.817C215.821 131.078 215.609 131.289 215.349 131.289Z" fill="black"/>
<path d="M106.647 131.289H89.114C88.853 131.289 88.642 131.078 88.642 130.817C88.642 130.556 88.853 130.345 89.114 130.345H106.647C106.908 130.345 107.119 130.556 107.119 130.817C107.119 131.078 106.908 131.289 106.647 131.289Z" fill="black"/>
<path d="M776.76 131.289C776.499 131.289 776.288 131.078 776.288 130.817V116.17C776.288 115.909 776.499 115.698 776.76 115.698C777.021 115.698 777.232 115.909 777.232 116.17V130.817C777.232 131.077 777.021 131.289 776.76 131.289Z" fill="black"/>
<path d="M765.192 145.936C764.931 145.936 764.72 145.725 764.72 145.464V130.817C764.72 130.556 764.931 130.345 765.192 130.345C765.453 130.345 765.664 130.556 765.664 130.817V145.464C765.664 145.725 765.453 145.936 765.192 145.936Z" fill="black"/>
<path d="M782.152 131.289H759.173C758.912 131.289 758.701 131.078 758.701 130.817C758.701 130.556 758.912 130.345 759.173 130.345H782.152C782.413 130.345 782.624 130.556 782.624 130.817C782.624 131.078 782.412 131.289 782.152 131.289Z" fill="black"/>
<path d="M844.98 145.936C844.719 145.936 844.508 145.725 844.508 145.464V130.817C844.508 130.556 844.719 130.345 844.98 130.345C845.241 130.345 845.452 130.556 845.452 130.817V145.464C845.452 145.725 845.241 145.936 844.98 145.936Z" fill="black"/>
<path d="M850.868 131.289H839.092C838.831 131.289 838.62 131.078 838.62 130.817C838.62 130.556 838.831 130.345 839.092 130.345H850.868C851.129 130.345 851.34 130.556 851.34 130.817C851.34 131.078 851.129 131.289 850.868 131.289Z" fill="black"/>
<path d="M16.672 32.784H0.472C0.211 32.784 0 32.573 0 32.312C0 32.051 0.211 31.84 0.472 31.84H16.672C16.933 31.84 17.144 32.051 17.144 32.312C17.144 32.573 16.933 32.784 16.672 32.784Z" fill="black"/>
<path d="M53.974 43.577H37.774C37.513 43.577 37.302 43.366 37.302 43.105C37.302 42.844 37.513 42.633 37.774 42.633H53.974C54.235 42.633 54.446 42.844 54.446 43.105C54.446 43.366 54.235 43.577 53.974 43.577Z" fill="black"/>
<path d="M116.75 32.784H100.55C100.289 32.784 100.078 32.573 100.078 32.312C100.078 32.051 100.289 31.84 100.55 31.84H116.75C117.011 31.84 117.222 32.051 117.222 32.312C117.222 32.573 117.01 32.784 116.75 32.784Z" fill="black"/>
<path d="M165.948 43.577H149.748C149.487 43.577 149.276 43.366 149.276 43.105C149.276 42.844 149.487 42.633 149.748 42.633H165.948C166.209 42.633 166.42 42.844 166.42 43.105C166.42 43.366 166.209 43.577 165.948 43.577Z" fill="black"/>
<path d="M221.431 43.577H205.231C204.97 43.577 204.759 43.366 204.759 43.105C204.759 42.844 204.97 42.633 205.231 42.633H221.431C221.692 42.633 221.903 42.844 221.903 43.105C221.902 43.366 221.691 43.577 221.431 43.577Z" fill="black"/>
<path d="M276.639 32.784H260.439C260.178 32.784 259.967 32.573 259.967 32.312C259.967 32.051 260.178 31.84 260.439 31.84H276.639C276.9 31.84 277.111 32.051 277.111 32.312C277.111 32.573 276.9 32.784 276.639 32.784Z" fill="black"/>
<path d="M338.097 43.577H321.897C321.636 43.577 321.425 43.366 321.425 43.105C321.425 42.844 321.636 42.633 321.897 42.633H338.097C338.358 42.633 338.569 42.844 338.569 43.105C338.569 43.366 338.358 43.577 338.097 43.577Z" fill="black"/>
<path d="M532.297 32.784H516.097C515.836 32.784 515.625 32.573 515.625 32.312C515.625 32.051 515.836 31.84 516.097 31.84H532.297C532.558 31.84 532.769 32.051 532.769 32.312C532.769 32.573 532.558 32.784 532.297 32.784Z" fill="black"/>
<path d="M569.599 43.577H553.399C553.138 43.577 552.927 43.366 552.927 43.105C552.927 42.844 553.138 42.633 553.399 42.633H569.599C569.86 42.633 570.071 42.844 570.071 43.105C570.071 43.366 569.86 43.577 569.599 43.577Z" fill="black"/>
<path d="M632.375 32.784H616.175C615.914 32.784 615.703 32.573 615.703 32.312C615.703 32.051 615.914 31.84 616.175 31.84H632.375C632.636 31.84 632.847 32.051 632.847 32.312C632.847 32.573 632.635 32.784 632.375 32.784Z" fill="black"/>
<path d="M681.573 43.577H665.373C665.112 43.577 664.901 43.366 664.901 43.105C664.901 42.844 665.112 42.633 665.373 42.633H681.573C681.834 42.633 682.045 42.844 682.045 43.105C682.045 43.366 681.834 43.577 681.573 43.577Z" fill="black"/>
<path d="M737.056 43.577H720.856C720.595 43.577 720.384 43.366 720.384 43.105C720.384 42.844 720.595 42.633 720.856 42.633H737.056C737.317 42.633 737.528 42.844 737.528 43.105C737.528 43.366 737.316 43.577 737.056 43.577Z" fill="black"/>
<path d="M792.264 32.784H776.064C775.803 32.784 775.592 32.573 775.592 32.312C775.592 32.051 775.803 31.84 776.064 31.84H792.264C792.525 31.84 792.736 32.051 792.736 32.312C792.736 32.573 792.525 32.784 792.264 32.784Z" fill="black"/>
<path d="M408.154 43.577H391.954C391.693 43.577 391.482 43.366 391.482 43.105C391.482 42.844 391.693 42.633 391.954 42.633H408.154C408.415 42.633 408.626 42.844 408.626 43.105C408.625 43.366 408.414 43.577 408.154 43.577Z" fill="black"/>
<path d="M463.362 32.784H447.162C446.901 32.784 446.69 32.573 446.69 32.312C446.69 32.051 446.901 31.84 447.162 31.84H463.362C463.623 31.84 463.834 32.051 463.834 32.312C463.834 32.573 463.623 32.784 463.362 32.784Z" fill="black"/>
<path d="M853.722 43.577H837.522C837.261 43.577 837.05 43.366 837.05 43.105C837.05 42.844 837.261 42.633 837.522 42.633H853.722C853.983 42.633 854.194 42.844 854.194 43.105C854.194 43.366 853.983 43.577 853.722 43.577Z" fill="black"/>
<path d="M48.784 15.613H42.965C42.704 15.613 42.493 15.402 42.493 15.141C42.493 14.88 42.704 14.669 42.965 14.669H48.784C49.045 14.669 49.256 14.88 49.256 15.141C49.256 15.402 49.044 15.613 48.784 15.613Z" fill="black"/>
<path d="M122.089 9.94699H116.27C116.009 9.94699 115.798 9.73599 115.798 9.47499C115.798 9.21399 116.009 9.00299 116.27 9.00299H122.089C122.35 9.00299 122.561 9.21399 122.561 9.47499C122.561 9.73599 122.349 9.94699 122.089 9.94699Z" fill="black"/>
<path d="M226.412 15.613H220.593C220.332 15.613 220.121 15.402 220.121 15.141C220.121 14.88 220.332 14.669 220.593 14.669H226.412C226.673 14.669 226.884 14.88 226.884 15.141C226.884 15.402 226.672 15.613 226.412 15.613Z" fill="black"/>
<path d="M388.931 8.814H383.112C382.851 8.814 382.64 8.603 382.64 8.342C382.64 8.081 382.851 7.87 383.112 7.87H388.931C389.192 7.87 389.403 8.081 389.403 8.342C389.403 8.603 389.191 8.814 388.931 8.814Z" fill="black"/>
<path d="M330.908 15.613H325.089C324.828 15.613 324.617 15.402 324.617 15.141C324.617 14.88 324.828 14.669 325.089 14.669H330.908C331.169 14.669 331.38 14.88 331.38 15.141C331.38 15.402 331.168 15.613 330.908 15.613Z" fill="black"/>
<path d="M655.121 8.814H649.302C649.041 8.814 648.83 8.603 648.83 8.342C648.83 8.081 649.041 7.87 649.302 7.87H655.121C655.382 7.87 655.593 8.081 655.593 8.342C655.593 8.603 655.381 8.814 655.121 8.814Z" fill="black"/>
<path d="M745.315 8.814H739.496C739.235 8.814 739.024 8.603 739.024 8.342C739.024 8.081 739.235 7.87 739.496 7.87H745.315C745.576 7.87 745.787 8.081 745.787 8.342C745.787 8.603 745.576 8.814 745.315 8.814Z" fill="black"/>
<path d="M815.814 14.858H809.995C809.734 14.858 809.523 14.647 809.523 14.386C809.523 14.125 809.734 13.914 809.995 13.914H815.814C816.075 13.914 816.286 14.125 816.286 14.386C816.286 14.647 816.075 14.858 815.814 14.858Z" fill="black"/>
<path d="M576.465 15.613H570.646C570.385 15.613 570.174 15.402 570.174 15.141C570.174 14.88 570.385 14.669 570.646 14.669H576.465C576.726 14.669 576.937 14.88 576.937 15.141C576.937 15.402 576.726 15.613 576.465 15.613Z" fill="black"/>
<path d="M483.205 15.613H477.386C477.125 15.613 476.914 15.402 476.914 15.141C476.914 14.88 477.125 14.669 477.386 14.669H483.205C483.466 14.669 483.677 14.88 483.677 15.141C483.677 15.402 483.466 15.613 483.205 15.613Z" fill="black"/>
<path d="M229.035 94.997H205.194C204.933 94.997 204.722 94.786 204.722 94.525C204.722 94.264 204.933 94.053 205.194 94.053H229.035C229.296 94.053 229.507 94.264 229.507 94.525C229.507 94.786 229.295 94.997 229.035 94.997Z" fill="black"/>
<path d="M310.686 94.997H286.845C286.584 94.997 286.373 94.786 286.373 94.525C286.373 94.264 286.584 94.053 286.845 94.053H310.686C310.947 94.053 311.158 94.264 311.158 94.525C311.157 94.786 310.946 94.997 310.686 94.997Z" fill="black"/>
<path d="M391.933 94.997H368.092C367.831 94.997 367.62 94.786 367.62 94.525C367.62 94.264 367.831 94.053 368.092 94.053H391.933C392.194 94.053 392.405 94.264 392.405 94.525C392.405 94.786 392.194 94.997 391.933 94.997Z" fill="black"/>
<path d="M482.378 94.997H458.537C458.276 94.997 458.065 94.786 458.065 94.525C458.065 94.264 458.276 94.053 458.537 94.053H482.378C482.639 94.053 482.85 94.264 482.85 94.525C482.849 94.786 482.638 94.997 482.378 94.997Z" fill="black"/>
<path d="M786.857 94.997H763.016C762.755 94.997 762.544 94.786 762.544 94.525C762.544 94.264 762.755 94.053 763.016 94.053H786.857C787.118 94.053 787.329 94.264 787.329 94.525C787.328 94.786 787.117 94.997 786.857 94.997Z" fill="black"/>
<path d="M841.753 94.997H817.912C817.651 94.997 817.44 94.786 817.44 94.525C817.44 94.264 817.651 94.053 817.912 94.053H841.753C842.014 94.053 842.225 94.264 842.225 94.525C842.224 94.786 842.013 94.997 841.753 94.997Z" fill="black"/>
<path d="M585.476 94.997H561.635C561.374 94.997 561.163 94.786 561.163 94.525C561.163 94.264 561.374 94.053 561.635 94.053H585.476C585.737 94.053 585.948 94.264 585.948 94.525C585.948 94.786 585.737 94.997 585.476 94.997Z" fill="black"/>
<path d="M666.724 94.997H642.883C642.622 94.997 642.411 94.786 642.411 94.525C642.411 94.264 642.622 94.053 642.883 94.053H666.724C666.985 94.053 667.196 94.264 667.196 94.525C667.196 94.786 666.985 94.997 666.724 94.997Z" fill="black"/>
<path d="M223.502 101.625C223.241 101.625 223.03 101.414 223.03 101.153V95.334C223.03 95.073 223.241 94.862 223.502 94.862C223.763 94.862 223.974 95.073 223.974 95.334V101.153C223.974 101.414 223.763 101.625 223.502 101.625Z" fill="black"/>
<path d="M386.021 94.826C385.76 94.826 385.549 94.615 385.549 94.354V88.535C385.549 88.274 385.76 88.063 386.021 88.063C386.282 88.063 386.493 88.274 386.493 88.535V94.354C386.493 94.615 386.282 94.826 386.021 94.826Z" fill="black"/>
<path d="M294.586 94.826C294.325 94.826 294.114 94.615 294.114 94.354V88.535C294.114 88.274 294.325 88.063 294.586 88.063C294.847 88.063 295.058 88.274 295.058 88.535V94.354C295.058 94.615 294.846 94.826 294.586 94.826Z" fill="black"/>
<path d="M208.721 94.826C208.46 94.826 208.249 94.615 208.249 94.354V88.535C208.249 88.274 208.46 88.063 208.721 88.063C208.982 88.063 209.193 88.274 209.193 88.535V94.354C209.193 94.615 208.982 94.826 208.721 94.826Z" fill="black"/>
<path d="M372.334 101.625C372.073 101.625 371.862 101.414 371.862 101.153V95.334C371.862 95.073 372.073 94.862 372.334 94.862C372.595 94.862 372.806 95.073 372.806 95.334V101.153C372.806 101.414 372.595 101.625 372.334 101.625Z" fill="black"/>
<path d="M305.133 101.625C304.872 101.625 304.661 101.414 304.661 101.153V95.334C304.661 95.073 304.872 94.862 305.133 94.862C305.394 94.862 305.605 95.073 305.605 95.334V101.153C305.605 101.414 305.393 101.625 305.133 101.625Z" fill="black"/>
<path d="M464.122 94.826C463.861 94.826 463.65 94.615 463.65 94.354V88.535C463.65 88.274 463.861 88.063 464.122 88.063C464.383 88.063 464.594 88.274 464.594 88.535V94.354C464.594 94.615 464.383 94.826 464.122 94.826Z" fill="black"/>
<path d="M570.977 94.826C570.716 94.826 570.505 94.615 570.505 94.354V88.535C570.505 88.274 570.716 88.063 570.977 88.063C571.238 88.063 571.449 88.274 571.449 88.535V94.354C571.449 94.615 571.238 94.826 570.977 94.826Z" fill="black"/>
<path d="M474.669 101.625C474.408 101.625 474.197 101.414 474.197 101.153V95.334C474.197 95.073 474.408 94.862 474.669 94.862C474.93 94.862 475.141 95.073 475.141 95.334V101.153C475.141 101.414 474.93 101.625 474.669 101.625Z" fill="black"/>
<path d="M652.211 94.826C651.95 94.826 651.739 94.615 651.739 94.354V88.535C651.739 88.274 651.95 88.063 652.211 88.063C652.472 88.063 652.683 88.274 652.683 88.535V94.354C652.683 94.615 652.472 94.826 652.211 94.826Z" fill="black"/>
<path d="M782.152 94.826C781.891 94.826 781.68 94.615 781.68 94.354V88.535C781.68 88.274 781.891 88.063 782.152 88.063C782.413 88.063 782.624 88.274 782.624 88.535V94.354C782.624 94.615 782.412 94.826 782.152 94.826Z" fill="black"/>
<path d="M828.016 94.826C827.755 94.826 827.544 94.615 827.544 94.354V88.535C827.544 88.274 827.755 88.063 828.016 88.063C828.277 88.063 828.488 88.274 828.488 88.535V94.354C828.488 94.615 828.277 94.826 828.016 94.826Z" fill="black"/>
<path d="M831.589 100.87C831.328 100.87 831.117 100.659 831.117 100.398V94.579C831.117 94.318 831.328 94.107 831.589 94.107C831.85 94.107 832.061 94.318 832.061 94.579V100.398C832.061 100.659 831.85 100.87 831.589 100.87Z" fill="black"/>
<path d="M768.172 100.87C767.911 100.87 767.7 100.659 767.7 100.398V94.579C767.7 94.318 767.911 94.107 768.172 94.107C768.433 94.107 768.644 94.318 768.644 94.579V100.398C768.644 100.659 768.433 100.87 768.172 100.87Z" fill="black"/>
<path d="M573.556 101.625C573.295 101.625 573.084 101.414 573.084 101.153V95.334C573.084 95.073 573.295 94.862 573.556 94.862C573.817 94.862 574.028 95.073 574.028 95.334V101.153C574.028 101.414 573.817 101.625 573.556 101.625Z" fill="black"/>
<path d="M663.572 101.625C663.311 101.625 663.1 101.414 663.1 101.153V95.334C663.1 95.073 663.311 94.862 663.572 94.862C663.833 94.862 664.044 95.073 664.044 95.334V101.153C664.043 101.414 663.832 101.625 663.572 101.625Z" fill="black"/>
<path d="M655.092 205.785C654.831 205.785 654.62 205.574 654.62 205.313V190.666C654.62 190.405 654.831 190.194 655.092 190.194C655.353 190.194 655.564 190.405 655.564 190.666V205.313C655.564 205.573 655.352 205.785 655.092 205.785Z" fill="black"/>
<path d="M576.575 205.785C576.314 205.785 576.103 205.574 576.103 205.313V190.666C576.103 190.405 576.314 190.194 576.575 190.194C576.836 190.194 577.047 190.405 577.047 190.666V205.313C577.046 205.573 576.835 205.785 576.575 205.785Z" fill="black"/>
<path d="M837.968 205.785C837.707 205.785 837.496 205.574 837.496 205.313V190.666C837.496 190.405 837.707 190.194 837.968 190.194C838.229 190.194 838.44 190.405 838.44 190.666V205.313C838.44 205.573 838.229 205.785 837.968 205.785Z" fill="black"/>
<path d="M770.467 205.785C770.206 205.785 769.995 205.574 769.995 205.313V190.666C769.995 190.405 770.206 190.194 770.467 190.194C770.728 190.194 770.939 190.405 770.939 190.666V205.313C770.939 205.573 770.728 205.785 770.467 205.785Z" fill="black"/>
<path d="M497.648 205.785C497.387 205.785 497.176 205.574 497.176 205.313V190.666C497.176 190.405 497.387 190.194 497.648 190.194C497.909 190.194 498.12 190.405 498.12 190.666V205.313C498.12 205.573 497.909 205.785 497.648 205.785Z" fill="black"/>
<path d="M861.795 161.067H753.425C753.164 161.067 752.953 160.856 752.953 160.595C752.953 160.334 753.164 160.123 753.425 160.123H861.795C862.056 160.123 862.267 160.334 862.267 160.595C862.267 160.856 862.056 161.067 861.795 161.067Z" fill="black"/>
<path d="M325.793 161.067H183.84C183.579 161.067 183.368 160.856 183.368 160.595C183.368 160.334 183.579 160.123 183.84 160.123H325.793C326.054 160.123 326.265 160.334 326.265 160.595C326.265 160.856 326.054 161.067 325.793 161.067Z" fill="black"/>
<path d="M681.845 161.067H536.665C536.404 161.067 536.193 160.856 536.193 160.595C536.193 160.334 536.404 160.123 536.665 160.123H681.845C682.106 160.123 682.317 160.334 682.317 160.595C682.317 160.856 682.105 161.067 681.845 161.067Z" fill="black"/>
<path d="M720.425 161.067H714.391C714.13 161.067 713.919 160.856 713.919 160.595C713.919 160.334 714.13 160.123 714.391 160.123H720.425C720.686 160.123 720.897 160.334 720.897 160.595C720.897 160.856 720.686 161.067 720.425 161.067Z" fill="black"/>
<path d="M151.01 161.067H144.935C144.674 161.067 144.463 160.856 144.463 160.595C144.463 160.334 144.674 160.123 144.935 160.123H151.01C151.271 160.123 151.482 160.334 151.482 160.595C151.482 160.856 151.271 161.067 151.01 161.067Z" fill="black"/>
<path d="M187.726 121.198V125.884H183.692H151.147H147.827V121.198H187.726Z" fill="#6D4122"/>
<path d="M187.726 116.509V121.198H147.827V116.509H151.011H183.841H187.726Z" fill="#6D4122"/>
<path d="M186.698 67.171V74.109H183.841H151.011H148.154V67.171H186.698Z" fill="#6D4122"/>
<path d="M183.841 79.793V116.509H151.011V79.793H151.079H183.758H183.841Z" fill="#A06B44"/>
<path d="M183.841 74.109V79.793H183.758H151.079H151.011V74.109H183.841Z" fill="#6D4122"/>
<path d="M183.692 125.884V754.209C183.692 756.383 176.406 758.144 167.42 758.144C158.681 758.144 151.553 756.48 151.165 754.389C151.154 754.331 151.148 754.27 151.148 754.21V125.884H183.692Z" fill="#A06B44"/>
<path d="M147.827 121.198V125.884H144.791H112.246H108.253V121.198H147.827Z" fill="#6D4122"/>
<path d="M147.827 116.509V121.198H108.253V116.509H112.105H144.935H147.827Z" fill="#6D4122"/>
<path d="M147.827 67.171V74.109H144.935H112.105H109.212V67.171H147.827Z" fill="#6D4122"/>
<path d="M144.935 79.793V116.509H112.105V79.793H112.246H144.793H144.935Z" fill="#A06B44"/>
<path d="M144.935 74.109V79.793H144.793H112.246H112.105V74.109H144.935Z" fill="#6D4122"/>
<path d="M144.791 125.884V754.209C144.791 754.269 144.785 754.33 144.774 754.388C144.385 756.479 137.258 758.143 128.519 758.143C119.533 758.143 112.247 756.382 112.247 754.208V125.884H144.791Z" fill="#A06B44"/>
<path d="M148.299 74.581H144.934C144.673 74.581 144.462 74.37 144.462 74.109C144.462 73.848 144.673 73.637 144.934 73.637H147.355V67.642H109.683V73.637H112.104C112.365 73.637 112.576 73.848 112.576 74.109C112.576 74.37 112.365 74.581 112.104 74.581H108.739V66.699H148.298L148.299 74.581Z" fill="black"/>
<path d="M187.17 74.581H183.841C183.58 74.581 183.369 74.37 183.369 74.109C183.369 73.848 183.58 73.637 183.841 73.637H186.226V67.642H148.626V73.637H151.011C151.272 73.637 151.483 73.848 151.483 74.109C151.483 74.37 151.272 74.581 151.011 74.581H147.682V66.699H187.169L187.17 74.581Z" fill="black"/>
<path d="M144.935 116.981C144.674 116.981 144.463 116.77 144.463 116.509V74.582H112.577V116.509C112.577 116.77 112.366 116.981 112.105 116.981C111.844 116.981 111.633 116.77 111.633 116.509V73.638H145.406V116.509C145.406 116.769 145.195 116.981 144.935 116.981Z" fill="black"/>
<path d="M183.841 116.981C183.58 116.981 183.369 116.77 183.369 116.509V74.582H151.483V116.509C151.483 116.77 151.272 116.981 151.011 116.981C150.75 116.981 150.539 116.77 150.539 116.509V73.638H184.312V116.509C184.312 116.769 184.101 116.981 183.841 116.981Z" fill="black"/>
<path d="M144.793 80.265H112.246C111.985 80.265 111.774 80.054 111.774 79.793C111.774 79.532 111.985 79.321 112.246 79.321H144.793C145.054 79.321 145.265 79.532 145.265 79.793C145.265 80.054 145.054 80.265 144.793 80.265Z" fill="black"/>
<path d="M183.758 80.265H151.079C150.818 80.265 150.607 80.054 150.607 79.793C150.607 79.532 150.818 79.321 151.079 79.321H183.758C184.019 79.321 184.23 79.532 184.23 79.793C184.229 80.054 184.018 80.265 183.758 80.265Z" fill="black"/>
<path d="M147.827 126.356H107.781V116.037H147.827C148.088 116.037 148.299 116.248 148.299 116.509C148.299 116.77 148.088 116.981 147.827 116.981H108.725V125.412H147.827C148.088 125.412 148.299 125.623 148.299 125.884C148.299 126.144 148.088 126.356 147.827 126.356Z" fill="black"/>
<path d="M188.198 126.356H147.356V116.037H188.198V126.356ZM148.299 125.412H187.254V116.981H148.299V125.412Z" fill="black"/>
<path d="M187.726 121.67H108.253C107.992 121.67 107.781 121.459 107.781 121.198C107.781 120.937 107.992 120.726 108.253 120.726H187.726C187.987 120.726 188.198 120.937 188.198 121.198C188.198 121.459 187.987 121.67 187.726 121.67Z" fill="black"/>
<path d="M112.246 754.819C111.985 754.819 111.774 754.608 111.774 754.347V125.884C111.774 125.623 111.985 125.412 112.246 125.412C112.507 125.412 112.718 125.623 112.718 125.884V754.347C112.718 754.607 112.507 754.819 112.246 754.819Z" fill="black"/>
<path d="M144.791 754.819C144.53 754.819 144.319 754.608 144.319 754.347V125.884C144.319 125.623 144.53 125.412 144.791 125.412C145.052 125.412 145.263 125.623 145.263 125.884V754.347C145.263 754.607 145.052 754.819 144.791 754.819Z" fill="black"/>
<path d="M151.147 754.819C150.886 754.819 150.675 754.608 150.675 754.347V125.884C150.675 125.623 150.886 125.412 151.147 125.412C151.408 125.412 151.619 125.623 151.619 125.884V754.347C151.619 754.607 151.407 754.819 151.147 754.819Z" fill="black"/>
<path d="M183.692 754.819C183.431 754.819 183.22 754.608 183.22 754.347V125.884C183.22 125.623 183.431 125.412 183.692 125.412C183.953 125.412 184.164 125.623 184.164 125.884V754.347C184.164 754.607 183.952 754.819 183.692 754.819Z" fill="black"/>
<path d="M757.304 121.242V125.929H753.291H720.746H717.406V121.242H757.304Z" fill="#6D4122"/>
<path d="M757.304 116.552V121.242H717.406V116.552H720.425H753.255H757.304Z" fill="#6D4122"/>
<path d="M756.112 67.216V74.153H753.255H720.425H717.568V67.216H756.112Z" fill="#6D4122"/>
<path d="M753.291 125.929V754.209C753.291 756.383 746.007 758.144 737.019 758.144C728.031 758.144 720.747 756.383 720.747 754.209V125.929H753.291Z" fill="#A06B44"/>
<path d="M753.255 79.839V116.552H720.425V79.839H753.17H753.255Z" fill="#A06B44"/>
<path d="M753.255 74.153V79.839H753.17H720.425V74.153H753.255Z" fill="#6D4122"/>
<path d="M717.406 121.242V125.929H714.392H681.845H677.831V121.242H717.406Z" fill="#6D4122"/>
<path d="M717.406 116.552V121.242H677.831V116.552H681.521H714.35H717.406Z" fill="#6D4122"/>
<path d="M717.241 67.216V74.153H714.35H681.521H678.628V67.216H717.241Z" fill="#6D4122"/>
<path d="M714.392 125.929V754.209C714.392 756.383 707.106 758.144 698.118 758.144C689.132 758.144 681.846 756.383 681.846 754.209V125.929H714.392Z" fill="#A06B44"/>
<path d="M714.351 79.839H681.521V116.552H714.351V79.839Z" fill="#A06B44"/>
<path d="M714.351 74.153H681.521V79.839H714.351V74.153Z" fill="#6D4122"/>
<path d="M717.713 74.625H714.35C714.089 74.625 713.878 74.414 713.878 74.153C713.878 73.892 714.089 73.681 714.35 73.681H716.769V67.688H679.099V73.681H681.52C681.781 73.681 681.992 73.892 681.992 74.153C681.992 74.414 681.781 74.625 681.52 74.625H678.155V66.745H717.712V74.625H717.713Z" fill="black"/>
<path d="M756.583 74.625H753.254C752.993 74.625 752.782 74.414 752.782 74.153C752.782 73.892 752.993 73.681 753.254 73.681H755.639V67.688H718.039V73.681H720.424C720.685 73.681 720.896 73.892 720.896 74.153C720.896 74.414 720.685 74.625 720.424 74.625H717.095V66.745H756.582V74.625H756.583Z" fill="black"/>
<path d="M714.35 117.024C714.089 117.024 713.878 116.813 713.878 116.552V74.625H681.992V116.552C681.992 116.813 681.781 117.024 681.52 117.024C681.259 117.024 681.048 116.813 681.048 116.552V73.681H714.821V116.552C714.822 116.813 714.611 117.024 714.35 117.024Z" fill="black"/>
<path d="M753.255 117.024C752.994 117.024 752.783 116.813 752.783 116.552V74.625H720.897V116.552C720.897 116.813 720.686 117.024 720.425 117.024C720.164 117.024 719.953 116.813 719.953 116.552V73.681H753.726V116.552C753.727 116.813 753.515 117.024 753.255 117.024Z" fill="black"/>
<path d="M714.35 80.31H681.52C681.259 80.31 681.048 80.099 681.048 79.838C681.048 79.577 681.259 79.366 681.52 79.366H714.35C714.611 79.366 714.822 79.577 714.822 79.838C714.822 80.099 714.611 80.31 714.35 80.31Z" fill="black"/>
<path d="M753.17 80.31H720.425C720.164 80.31 719.953 80.099 719.953 79.838C719.953 79.577 720.164 79.366 720.425 79.366H753.17C753.431 79.366 753.642 79.577 753.642 79.838C753.642 80.099 753.43 80.31 753.17 80.31Z" fill="black"/>
<path d="M717.405 126.401H677.359V116.08H717.405C717.666 116.08 717.877 116.291 717.877 116.552C717.877 116.813 717.666 117.024 717.405 117.024H678.303V125.458H717.405C717.666 125.458 717.877 125.669 717.877 125.93C717.877 126.19 717.666 126.401 717.405 126.401Z" fill="black"/>
<path d="M757.776 126.401H716.933V116.08H757.776V126.401ZM717.877 125.457H756.832V117.023H717.877V125.457Z" fill="black"/>
<path d="M757.304 121.713H677.831C677.57 121.713 677.359 121.502 677.359 121.241C677.359 120.98 677.57 120.769 677.831 120.769H757.304C757.565 120.769 757.776 120.98 757.776 121.241C757.776 121.502 757.565 121.713 757.304 121.713Z" fill="black"/>
<path d="M681.845 754.862C681.584 754.862 681.373 754.651 681.373 754.39V125.929C681.373 125.668 681.584 125.457 681.845 125.457C682.106 125.457 682.317 125.668 682.317 125.929V754.39C682.317 754.651 682.106 754.862 681.845 754.862Z" fill="black"/>
<path d="M714.392 754.862C714.131 754.862 713.92 754.651 713.92 754.39V125.929C713.92 125.668 714.131 125.457 714.392 125.457C714.653 125.457 714.864 125.668 714.864 125.929V754.39C714.864 754.651 714.652 754.862 714.392 754.862Z" fill="black"/>
<path d="M720.746 754.862C720.485 754.862 720.274 754.651 720.274 754.39V125.929C720.274 125.668 720.485 125.457 720.746 125.457C721.007 125.457 721.218 125.668 721.218 125.929V754.39C721.217 754.651 721.006 754.862 720.746 754.862Z" fill="black"/>
<path d="M753.291 754.862C753.03 754.862 752.819 754.651 752.819 754.39V125.929C752.819 125.668 753.03 125.457 753.291 125.457C753.552 125.457 753.763 125.668 753.763 125.929V754.39C753.762 754.651 753.551 754.862 753.291 754.862Z" fill="black"/>
<path d="M112.105 84.602H4.123C3.862 84.602 3.651 84.391 3.651 84.13C3.651 83.869 3.862 83.658 4.123 83.658H112.104C112.365 83.658 112.576 83.869 112.576 84.13C112.577 84.391 112.365 84.602 112.105 84.602Z" fill="black"/>
<path d="M112.246 155.402H4.123C3.862 155.402 3.651 155.191 3.651 154.93C3.651 154.669 3.862 154.458 4.123 154.458H112.246C112.507 154.458 112.718 154.669 112.718 154.93C112.718 155.191 112.507 155.402 112.246 155.402Z" fill="black"/>
<path d="M112.105 107.175H4.123C3.862 107.175 3.651 106.964 3.651 106.703C3.651 106.442 3.862 106.231 4.123 106.231H112.104C112.365 106.231 112.576 106.442 112.576 106.703C112.577 106.964 112.365 107.175 112.105 107.175Z" fill="black"/>
<path d="M73.719 131.289H39.823C39.562 131.289 39.351 131.078 39.351 130.817C39.351 130.556 39.562 130.345 39.823 130.345H73.719C73.98 130.345 74.191 130.556 74.191 130.817C74.191 131.077 73.98 131.289 73.719 131.289Z" fill="black"/>
<path d="M65.261 131.289C65 131.289 64.789 131.078 64.789 130.817V116.169C64.789 115.908 65 115.697 65.261 115.697C65.522 115.697 65.733 115.908 65.733 116.169V130.817C65.733 131.077 65.522 131.289 65.261 131.289Z" fill="black"/>
<path d="M24.359 131.289C24.098 131.289 23.887 131.078 23.887 130.817V116.169C23.887 115.908 24.098 115.697 24.359 115.697C24.62 115.697 24.831 115.908 24.831 116.169V130.817C24.83 131.077 24.619 131.289 24.359 131.289Z" fill="black"/>
<path d="M97.882 131.289C97.621 131.289 97.41 131.078 97.41 130.817V116.169C97.41 115.908 97.621 115.697 97.882 115.697C98.143 115.697 98.354 115.908 98.354 116.169V130.817C98.353 131.077 98.142 131.289 97.882 131.289Z" fill="black"/>
<path d="M45.873 145.936C45.612 145.936 45.401 145.725 45.401 145.464V130.817C45.401 130.556 45.612 130.345 45.873 130.345C46.134 130.345 46.345 130.556 46.345 130.817V145.464C46.345 145.725 46.134 145.936 45.873 145.936Z" fill="black"/>
<path d="M105.158 145.936C104.897 145.936 104.686 145.725 104.686 145.464V130.817C104.686 130.556 104.897 130.345 105.158 130.345C105.419 130.345 105.63 130.556 105.63 130.817V145.464C105.63 145.725 105.419 145.936 105.158 145.936Z" fill="black"/>
<path d="M17.442 145.936C17.181 145.936 16.97 145.725 16.97 145.464V130.817C16.97 130.556 17.181 130.345 17.442 130.345C17.703 130.345 17.914 130.556 17.914 130.817V145.464C17.914 145.725 17.703 145.936 17.442 145.936Z" fill="black"/>
<path d="M28.118 131.289H11.06C10.799 131.289 10.588 131.078 10.588 130.817C10.588 130.556 10.799 130.345 11.06 130.345H28.117C28.378 130.345 28.589 130.556 28.589 130.817C28.589 131.077 28.378 131.289 28.118 131.289Z" fill="black"/>
<path d="M64.248 94.998H40.406C40.145 94.998 39.934 94.787 39.934 94.526C39.934 94.265 40.145 94.054 40.406 94.054H64.248C64.509 94.054 64.72 94.265 64.72 94.526C64.72 94.787 64.509 94.998 64.248 94.998Z" fill="black"/>
<path d="M45.873 101.625C45.612 101.625 45.401 101.414 45.401 101.153V95.335C45.401 95.074 45.612 94.863 45.873 94.863C46.134 94.863 46.345 95.074 46.345 95.335V101.153C46.345 101.414 46.134 101.625 45.873 101.625Z" fill="black"/>
<path d="M56.583 176.222H18.084C17.823 176.222 17.612 176.011 17.612 175.75C17.612 175.489 17.823 175.278 18.084 175.278H56.583C56.844 175.278 57.055 175.489 57.055 175.75C57.054 176.011 56.843 176.222 56.583 176.222Z" fill="black"/>
<path d="M26.563 176.222C26.302 176.222 26.091 176.011 26.091 175.75V161.102C26.091 160.841 26.302 160.63 26.563 160.63C26.824 160.63 27.035 160.841 27.035 161.102V175.75C27.034 176.011 26.823 176.222 26.563 176.222Z" fill="black"/>
<path d="M84.621 176.222C84.36 176.222 84.149 176.011 84.149 175.75V161.102C84.149 160.841 84.36 160.63 84.621 160.63C84.882 160.63 85.093 160.841 85.093 161.102V175.75C85.093 176.011 84.882 176.222 84.621 176.222Z" fill="black"/>
<path d="M45.951 190.868C45.69 190.868 45.479 190.657 45.479 190.396V175.75C45.479 175.489 45.69 175.278 45.951 175.278C46.212 175.278 46.423 175.489 46.423 175.75V190.396C46.423 190.657 46.211 190.868 45.951 190.868Z" fill="black"/>
<path d="M75.855 190.868C75.594 190.868 75.383 190.657 75.383 190.396V175.75C75.383 175.489 75.594 175.278 75.855 175.278C76.116 175.278 76.327 175.489 76.327 175.75V190.396C76.327 190.657 76.116 190.868 75.855 190.868Z" fill="black"/>
<path d="M91.9 176.222H69.028C68.767 176.222 68.556 176.011 68.556 175.75C68.556 175.489 68.767 175.278 69.028 175.278H91.9C92.161 175.278 92.372 175.489 92.372 175.75C92.371 176.011 92.16 176.222 91.9 176.222Z" fill="black"/>
<path d="M24.647 205.785C24.386 205.785 24.175 205.574 24.175 205.313V190.665C24.175 190.404 24.386 190.193 24.647 190.193C24.908 190.193 25.119 190.404 25.119 190.665V205.313C25.119 205.574 24.908 205.785 24.647 205.785Z" fill="black"/>
<path d="M112.246 161.067H4.123C3.862 161.067 3.651 160.856 3.651 160.595C3.651 160.334 3.862 160.123 4.123 160.123H112.246C112.507 160.123 112.718 160.334 112.718 160.595C112.718 160.856 112.507 161.067 112.246 161.067Z" fill="black"/>
<path d="M4.123 754.819C3.862 754.819 3.651 754.608 3.651 754.347V53.295C3.651 53.034 3.862 52.823 4.123 52.823C4.384 52.823 4.595 53.034 4.595 53.295V754.347C4.595 754.607 4.384 754.819 4.123 754.819Z" fill="black"/>
<path d="M861.795 754.681C861.534 754.681 861.323 754.47 861.323 754.209V84.42C861.323 84.159 861.534 83.948 861.795 83.948C862.056 83.948 862.267 84.159 862.267 84.42V754.21C862.267 754.47 862.056 754.681 861.795 754.681Z" fill="black"/>
<path d="M119.179 171.853C118.918 171.853 118.707 171.642 118.707 171.381V134.763C118.707 134.502 118.918 134.291 119.179 134.291C119.44 134.291 119.651 134.502 119.651 134.763V171.381C119.651 171.642 119.44 171.853 119.179 171.853Z" fill="black"/>
<path d="M176.708 224.093C176.447 224.093 176.236 223.882 176.236 223.621V187.003C176.236 186.742 176.447 186.531 176.708 186.531C176.969 186.531 177.18 186.742 177.18 187.003V223.621C177.179 223.882 176.968 224.093 176.708 224.093Z" fill="black"/>
<path d="M688.478 189.454C688.217 189.454 688.006 189.243 688.006 188.982V152.364C688.006 152.103 688.217 151.892 688.478 151.892C688.739 151.892 688.95 152.103 688.95 152.364V188.982C688.95 189.243 688.739 189.454 688.478 189.454Z" fill="black"/>
</g>
</svg>
