<?xml version="1.0" encoding="utf-8"?>
<!-- Generator: Adobe Illustrator 26.3.1, SVG Export Plug-In . SVG Version: 6.00 Build 0)  -->
<svg version="1.1" id="Layer_1" xmlns="http://www.w3.org/2000/svg" xmlns:xlink="http://www.w3.org/1999/xlink" x="0px" y="0px"
	 viewBox="0 0 1337.751 176.568" style="enable-background:new 0 0 1337.751 176.568;" xml:space="preserve">
<style type="text/css">
	.st0{fill:#D3EAEA;}
</style>
<g>
	<g>
		<g id="XMLID_00000150821811604630014300000017025778841233037494_">
			<g>
				<g>
					<path class="st0" d="M1158.785,76.916c4.676,0,8.468,3.793,8.468,8.468c0,4.679-3.793,8.468-8.468,8.468
						c-3.064,0-5.744-1.624-7.233-4.061c-3.228,2.544-7.302,4.061-11.728,4.061c-5.782,0-10.959-2.588-14.437-6.668
						c-4.291,4.127-10.12,6.668-16.543,6.668c-5.584,0-10.719-1.917-14.783-5.133c-5.032,3.247-11.029,5.133-17.463,5.133
						c-7.21,0-13.866-2.365-19.235-6.362c-4.49,3.963-10.385,6.362-16.842,6.362c-6.725,0-12.841-2.604-17.394-6.86
						c-2.693,4.13-7.352,6.86-12.649,6.86c-3.421,0-6.574-1.135-9.105-3.055c-1.728,1.879-4.209,3.055-6.964,3.055
						c-5.227,0-9.465-4.237-9.465-9.465s4.237-9.465,9.465-9.465c0.492,0,0.974,0.038,1.444,0.11
						c1.661-6.529,7.579-11.356,14.626-11.356c1.699,0,3.336,0.281,4.862,0.801c1.876-12.22,12.435-21.578,25.181-21.578
						c3.08,0,6.031,0.549,8.765,1.548c5.71-9.064,15.805-15.089,27.313-15.089c12.334,0,23.053,6.927,28.473,17.101
						c1.23-0.195,2.491-0.296,3.774-0.296c9.099,0,17.009,5.098,21.026,12.592c2.894-1.788,6.302-2.822,9.953-2.822
						c10.47,0,18.961,8.49,18.961,18.961c0,0.684-0.038,1.359-0.11,2.021C1158.713,76.916,1158.747,76.916,1158.785,76.916z"/>
				</g>
			</g>
			<g>
				<g>
					<path d="M1158.785,94.641c-2.962,0-5.677-1.376-7.42-3.72c-3.372,2.436-7.344,3.72-11.541,3.72
						c-5.519,0-10.754-2.297-14.49-6.33c-4.538,4.088-10.361,6.33-16.489,6.33c-5.419,0-10.534-1.713-14.829-4.959
						c-5.222,3.246-11.232,4.959-17.418,4.959c-6.952,0-13.575-2.123-19.195-6.145c-4.72,3.968-10.69,6.145-16.883,6.145
						c-6.381,0-12.474-2.289-17.257-6.463c-2.992,4.064-7.706,6.463-12.786,6.463c-3.262,0-6.366-0.968-9.02-2.808
						c-1.893,1.792-4.425,2.808-7.05,2.808c-5.654,0-10.253-4.6-10.253-10.253c0-5.653,4.6-10.253,10.253-10.253
						c0.288,0,0.578,0.012,0.865,0.036c2.01-6.678,8.166-11.282,15.205-11.282c1.443,0,2.864,0.192,4.237,0.572
						c1.097-5.786,4.136-11.066,8.623-14.95c4.767-4.126,10.87-6.399,17.183-6.399c2.887,0,5.722,0.466,8.439,1.386
						c6.141-9.36,16.426-14.927,27.639-14.927c12.05,0,23.073,6.511,28.903,17.029c1.101-0.149,2.224-0.225,3.344-0.225
						c8.824,0,16.919,4.689,21.321,12.292c2.943-1.652,6.265-2.521,9.658-2.521c10.89,0,19.749,8.859,19.749,19.749
						c0,0.42-0.014,0.843-0.041,1.263c4.756,0.381,8.51,4.374,8.51,9.227C1168.042,90.488,1163.889,94.641,1158.785,94.641z
						 M1151.762,88.623l0.463,0.758c1.408,2.306,3.86,3.683,6.56,3.683c4.235,0,7.68-3.445,7.68-7.68c0-4.235-3.445-7.68-7.68-7.68
						h-0.99l0.096-0.874c0.07-0.638,0.106-1.289,0.106-1.935c0-10.02-8.152-18.173-18.173-18.173c-3.376,0-6.675,0.935-9.539,2.704
						l-0.713,0.44l-0.396-0.739c-4.025-7.511-11.816-12.176-20.331-12.176c-1.226,0-2.454,0.096-3.65,0.287l-0.555,0.088
						l-0.264-0.496c-5.482-10.291-16.126-16.683-27.778-16.683c-10.878,0-20.839,5.503-26.646,14.721l-0.339,0.539l-0.598-0.219
						c-2.723-0.995-5.58-1.5-8.494-1.5c-12.082,0-22.572,8.989-24.403,20.909l-0.143,0.93l-0.891-0.304
						c-1.477-0.503-3.027-0.759-4.607-0.759c-6.549,0-12.249,4.426-13.862,10.763l-0.177,0.694l-0.708-0.109
						c-0.434-0.067-0.88-0.101-1.323-0.101c-4.784,0-8.677,3.892-8.677,8.677c0,4.784,3.892,8.677,8.677,8.677
						c2.421,0,4.748-1.021,6.384-2.8l0.485-0.528l0.571,0.433c2.497,1.894,5.481,2.895,8.629,2.895
						c4.852,0,9.334-2.431,11.989-6.503l0.513-0.787l0.686,0.641c4.585,4.287,10.572,6.648,16.856,6.648
						c6.021,0,11.817-2.189,16.321-6.165l0.479-0.423l0.513,0.382c5.453,4.06,11.942,6.206,18.764,6.206
						c6.07,0,11.961-1.731,17.036-5.007l0.474-0.306l0.443,0.35c4.103,3.247,9.046,4.963,14.294,4.963
						c5.992,0,11.673-2.29,15.996-6.448l0.603-0.58l0.543,0.637c3.462,4.062,8.506,6.391,13.837,6.391
						c4.123,0,8.01-1.346,11.24-3.892L1151.762,88.623z"/>
				</g>
				<g>
					<path d="M1090.483,40.977c-0.209,0-0.418-0.083-0.574-0.248c-3.634-3.856-9.674-5.362-14.688-3.659
						c-0.412,0.14-0.86-0.081-1-0.493s0.081-0.86,0.493-1c5.579-1.894,12.299-0.22,16.342,4.071
						c0.299,0.317,0.284,0.816-0.033,1.114C1090.871,40.906,1090.677,40.977,1090.483,40.977z"/>
				</g>
				<g>
					<path d="M1054.879,65.395c-0.235,0-0.467-0.104-0.622-0.304c-3.207-4.113-3.415-10.238-0.495-14.562
						c0.244-0.361,0.733-0.456,1.094-0.212c0.361,0.244,0.456,0.734,0.212,1.094c-2.549,3.774-2.367,9.12,0.432,12.71
						c0.267,0.343,0.206,0.839-0.137,1.106C1055.219,65.341,1055.049,65.395,1054.879,65.395z"/>
				</g>
				<g>
					<path d="M1052.425,58.097c-0.382,0-0.717-0.278-0.778-0.668c-0.559-3.603-3.573-6.673-7.166-7.299
						c-0.429-0.075-0.716-0.483-0.641-0.912c0.075-0.429,0.482-0.716,0.912-0.641c4.238,0.739,7.793,4.36,8.453,8.61
						c0.067,0.43-0.228,0.833-0.658,0.9C1052.506,58.094,1052.465,58.097,1052.425,58.097z"/>
				</g>
				<g>
					<path d="M1041.302,88.478c-2.5,0-5.005-0.818-6.951-2.4c-0.338-0.275-0.389-0.771-0.114-1.109
						c0.275-0.338,0.771-0.389,1.109-0.114c2.851,2.318,7.102,2.719,10.337,0.974c0.383-0.206,0.861-0.063,1.068,0.32
						c0.207,0.383,0.063,0.861-0.32,1.068C1044.859,88.063,1043.082,88.478,1041.302,88.478z"/>
				</g>
				<g>
					<path d="M1021.036,69.516c-0.319,0-0.62-0.195-0.738-0.512c-1.422-3.799-0.112-8.344,3.113-10.809
						c0.346-0.264,0.841-0.198,1.105,0.148c0.264,0.346,0.198,0.841-0.148,1.105c-2.644,2.02-3.759,5.89-2.593,9.003
						c0.152,0.408-0.054,0.862-0.462,1.015C1021.222,69.5,1021.128,69.516,1021.036,69.516z"/>
				</g>
				<g>
					<path d="M1002.33,78.158c-0.353,0-0.675-0.239-0.764-0.598c-0.413-1.656-0.045-3.456,0.985-4.813
						c1.034-1.359,2.668-2.197,4.372-2.241c0.007,0,0.014,0,0.021,0c0.426,0,0.776,0.339,0.788,0.768
						c0.011,0.435-0.332,0.797-0.767,0.808c-1.212,0.032-2.422,0.652-3.158,1.619c-0.732,0.965-1.005,2.298-0.71,3.478
						c0.105,0.422-0.152,0.85-0.574,0.956C1002.458,78.15,1002.393,78.158,1002.33,78.158z"/>
				</g>
				<g>
					<path d="M995.01,90.8c-0.685,0-1.37-0.146-1.986-0.444c-1.515-0.727-2.565-2.349-2.611-4.033
						c-0.012-0.435,0.331-0.797,0.767-0.809c0.431-0.007,0.797,0.332,0.809,0.766c0.03,1.109,0.721,2.177,1.719,2.656
						c0.999,0.483,2.265,0.36,3.152-0.305c0.349-0.261,0.842-0.19,1.104,0.158c0.261,0.348,0.19,0.842-0.158,1.103
						C997.008,90.491,996.007,90.8,995.01,90.8z"/>
				</g>
				<g>
					<path d="M1088.092,87.374c-0.37,0-0.7-0.262-0.773-0.639c-0.082-0.428,0.197-0.841,0.625-0.923
						c3.618-0.699,6.515-4.265,6.458-7.95c-0.007-0.435,0.341-0.794,0.776-0.8c0.449-0.013,0.794,0.34,0.801,0.776
						c0.07,4.489-3.328,8.672-7.736,9.522C1088.192,87.369,1088.142,87.374,1088.092,87.374z"/>
				</g>
				<g>
					<path d="M1102.604,89.691c-0.024,0-0.048-0.001-0.072-0.003c-2.62-0.238-5.091-1.664-6.61-3.814
						c-1.517-2.15-2.032-4.955-1.378-7.505c0.108-0.422,0.537-0.675,0.959-0.568c0.422,0.108,0.676,0.538,0.568,0.959
						c-0.54,2.108-0.115,4.427,1.139,6.204c1.256,1.777,3.299,2.956,5.465,3.153c0.433,0.04,0.753,0.423,0.713,0.856
						C1103.35,89.383,1103.006,89.691,1102.604,89.691z"/>
				</g>
				<g>
					<path d="M1127.145,64.144c-0.015,0-0.031,0-0.047-0.001c-0.435-0.025-0.766-0.398-0.741-0.833
						c0.206-3.533-2.698-6.982-6.216-7.381c-0.432-0.049-0.744-0.439-0.695-0.872c0.049-0.432,0.438-0.747,0.872-0.694
						c4.308,0.488,7.865,4.712,7.613,9.039C1127.906,63.82,1127.559,64.144,1127.145,64.144z"/>
				</g>
				<g>
					<path d="M1136.092,90.049c-0.59,0-1.179-0.072-1.751-0.219c-2.213-0.567-4.101-2.244-4.927-4.375
						c-0.157-0.406,0.044-0.862,0.45-1.02c0.406-0.158,0.862,0.044,1.02,0.45c0.645,1.665,2.12,2.975,3.849,3.418
						c1.728,0.445,3.654,0.008,5.027-1.14c0.333-0.279,0.83-0.235,1.11,0.099c0.279,0.334,0.235,0.831-0.099,1.11
						C1139.47,89.46,1137.78,90.049,1136.092,90.049z"/>
				</g>
				<g>
					<path d="M1152.757,72.584c-0.083,0-0.168-0.013-0.252-0.041c-0.412-0.139-0.634-0.586-0.495-0.999
						c0.807-2.394-0.529-5.352-2.859-6.33c-0.401-0.168-0.59-0.63-0.422-1.032c0.169-0.401,0.63-0.59,1.032-0.422
						c3.104,1.303,4.818,5.098,3.743,8.287C1153.393,72.376,1153.086,72.584,1152.757,72.584z"/>
				</g>
				<g>
					<path d="M1159.564,89.238c-0.422,0-0.844-0.068-1.245-0.209c-0.411-0.144-0.626-0.595-0.482-1.005
						c0.144-0.411,0.594-0.627,1.005-0.482c0.797,0.28,1.767,0.058,2.36-0.54c0.592-0.599,0.805-1.571,0.518-2.364
						c-0.148-0.409,0.063-0.861,0.472-1.01c0.409-0.148,0.861,0.063,1.01,0.472c0.495,1.365,0.141,2.977-0.88,4.01
						C1161.598,88.84,1160.582,89.238,1159.564,89.238z"/>
				</g>
			</g>
		</g>
	</g>
	<g>
		<g id="XMLID_00000122707624524081928370000006401613601274078617_">
			<g>
				<g>
					<path class="st0" d="M309.062,38.344c3.692,0,6.687,2.995,6.687,6.69c0,3.692-2.995,6.687-6.687,6.687
						c-2.418,0-4.537-1.283-5.713-3.206c-2.547,2.008-5.763,3.206-9.26,3.206c-4.568,0-8.658-2.043-11.404-5.268
						c-3.386,3.26-7.992,5.268-13.065,5.268c-4.408,0-8.465-1.516-11.675-4.055c-3.973,2.566-8.708,4.055-13.79,4.055
						c-5.694,0-10.95-1.866-15.19-5.026c-3.547,3.128-8.204,5.026-13.302,5.026c-5.312,0-10.139-2.056-13.737-5.42
						c-2.125,3.263-5.807,5.42-9.991,5.42c-2.699,0-5.189-0.899-7.188-2.412c-1.365,1.482-3.326,2.412-5.502,2.412
						c-4.127,0-7.475-3.348-7.475-7.475c0-4.13,3.348-7.475,7.475-7.475c0.388,0,0.769,0.028,1.141,0.085
						c1.312-5.155,5.987-8.967,11.549-8.967c1.343,0,2.636,0.221,3.84,0.634c1.485-9.651,9.821-17.041,19.888-17.041
						c2.431,0,4.764,0.432,6.924,1.223c4.508-7.16,12.482-11.918,21.568-11.918c9.742,0,18.204,5.47,22.486,13.503
						c0.971-0.154,1.967-0.233,2.979-0.233c7.188,0,13.434,4.026,16.606,9.944c2.286-1.412,4.978-2.226,7.863-2.226
						c8.267,0,14.973,6.703,14.973,14.973c0,0.539-0.028,1.072-0.085,1.595C309.005,38.344,309.033,38.344,309.062,38.344z"/>
				</g>
			</g>
			<g>
				<g>
					<path d="M309.062,52.51c-2.337,0-4.484-1.06-5.895-2.874c-2.661,1.883-5.782,2.874-9.077,2.874
						c-4.354,0-8.484-1.789-11.456-4.935c-3.595,3.189-8.184,4.935-13.013,4.935c-4.275,0-8.315-1.341-11.719-3.883
						c-4.125,2.542-8.865,3.883-13.746,3.883c-5.484,0-10.708-1.661-15.151-4.811c-3.746,3.107-8.459,4.811-13.341,4.811
						c-5.02,0-9.815-1.779-13.602-5.029c-2.397,3.166-6.118,5.029-10.126,5.029c-2.561,0-5.003-0.749-7.105-2.171
						c-1.517,1.387-3.515,2.171-5.585,2.171c-4.556,0-8.263-3.707-8.263-8.263s3.707-8.263,8.263-8.263
						c0.189,0,0.378,0.006,0.565,0.019c1.647-5.274,6.539-8.9,12.126-8.9c1.098,0,2.176,0.138,3.218,0.411
						c0.903-4.537,3.306-8.673,6.832-11.725c3.795-3.285,8.652-5.094,13.678-5.094c2.259,0,4.475,0.357,6.598,1.063
						C227.149,4.383,235.286,0,244.155,0c9.537,0,18.266,5.133,22.915,13.434c0.839-0.109,1.694-0.163,2.55-0.163
						c6.974,0,13.376,3.677,16.901,9.649c2.31-1.265,4.91-1.931,7.568-1.931c8.691,0,15.761,7.07,15.761,15.761
						c0,0.283-0.008,0.566-0.022,0.846c3.764,0.385,6.71,3.574,6.71,7.44C316.537,49.156,313.184,52.51,309.062,52.51z
						 M303.558,47.346l0.463,0.758c1.083,1.772,2.968,2.829,5.04,2.829c3.253,0,5.899-2.646,5.899-5.899
						c0-3.254-2.646-5.902-5.899-5.902h-0.964l0.095-0.873c0.053-0.492,0.081-1,0.081-1.51c0-7.821-6.363-14.185-14.184-14.185
						c-2.641,0-5.217,0.729-7.449,2.108l-0.713,0.441l-0.396-0.739c-3.15-5.877-9.247-9.528-15.911-9.528
						c-0.963,0-1.923,0.075-2.855,0.224l-0.555,0.088l-0.264-0.496c-4.302-8.072-12.652-13.086-21.79-13.086
						c-8.534,0-16.348,4.318-20.901,11.549l-0.34,0.539l-0.598-0.219c-2.128-0.78-4.367-1.175-6.652-1.175
						c-9.458,0-17.673,7.039-19.109,16.373l-0.143,0.931l-0.891-0.306c-1.144-0.392-2.35-0.591-3.584-0.591
						c-5.096,0-9.53,3.443-10.785,8.373l-0.176,0.693l-0.707-0.108c-0.331-0.05-0.675-0.076-1.022-0.076
						c-3.687,0-6.687,3-6.687,6.687s3,6.687,6.687,6.687c1.865,0,3.659-0.787,4.922-2.158l0.485-0.526l0.571,0.432
						c1.946,1.473,4.267,2.252,6.712,2.252c3.779,0,7.267-1.892,9.331-5.062l0.513-0.787l0.686,0.642
						c3.591,3.358,8.278,5.207,13.199,5.207c4.71,0,9.249-1.715,12.78-4.828l0.48-0.423l0.513,0.382
						c4.276,3.186,9.366,4.869,14.719,4.869c4.764,0,9.385-1.358,13.363-3.928l0.474-0.306l0.443,0.35
						c3.214,2.541,7.082,3.885,11.186,3.885c4.692,0,9.137-1.793,12.519-5.048l0.604-0.581l0.543,0.638
						c2.701,3.172,6.639,4.991,10.804,4.991c3.218,0,6.252-1.05,8.772-3.037L303.558,47.346z"/>
				</g>
				<g>
					<path d="M250.423,9.474c-0.207,0-0.413-0.081-0.568-0.241c-2.367-2.457-6.262-3.362-9.471-2.202
						c-0.41,0.148-0.861-0.064-1.009-0.473c-0.148-0.409,0.064-0.861,0.473-1.009c3.775-1.365,8.357-0.3,11.142,2.59
						c0.302,0.314,0.293,0.813-0.021,1.115C250.817,9.401,250.62,9.474,250.423,9.474z"/>
				</g>
				<g>
					<path d="M279.892,38.846c-0.172,0-0.345-0.056-0.489-0.171c-0.341-0.271-0.398-0.766-0.128-1.107
						c1.162-1.465,1.866-3.331,1.981-5.254c0.059-0.922-0.017-1.827-0.226-2.694c-0.102-0.423,0.159-0.849,0.582-0.951
						c0.422-0.102,0.849,0.159,0.951,0.582c0.246,1.021,0.335,2.084,0.266,3.161c-0.134,2.24-0.958,4.421-2.319,6.137
						C280.354,38.743,280.124,38.846,279.892,38.846z"/>
				</g>
				<g>
					<path d="M286.189,38.625c-0.063,0-0.127-0.008-0.19-0.023c-2.736-0.679-4.82-3.43-4.744-6.263c0-0.057,0.003-0.135,0.007-0.217
						c0.02-0.435,0.386-0.774,0.824-0.75c0.435,0.02,0.771,0.389,0.75,0.824c-0.003,0.057-0.005,0.111-0.005,0.165
						c-0.057,2.144,1.501,4.204,3.548,4.711c0.422,0.105,0.68,0.532,0.575,0.955C286.864,38.385,286.543,38.625,286.189,38.625z"/>
				</g>
				<g>
					<path d="M309.181,48.492c-0.131,0-0.262-0.008-0.395-0.024c-0.882-0.107-1.653-0.559-2.117-1.241
						c-0.245-0.36-0.151-0.85,0.209-1.095c0.36-0.245,0.85-0.151,1.095,0.209c0.204,0.301,0.579,0.511,1.003,0.562
						c0.423,0.052,0.837-0.062,1.107-0.305c0.27-0.243,0.428-0.643,0.422-1.07c-0.006-0.427-0.174-0.822-0.451-1.057
						c-0.332-0.282-0.372-0.78-0.089-1.111c0.282-0.332,0.78-0.372,1.111-0.089c0.627,0.533,0.993,1.349,1.005,2.237
						c0.012,0.888-0.333,1.713-0.945,2.264C310.616,48.238,309.919,48.492,309.181,48.492z"/>
				</g>
				<g>
					<path d="M302.481,33.104c-0.399,0-0.741-0.301-0.783-0.707c-0.271-2.611-2.714-4.811-5.337-4.811c-0.006,0-0.011,0.001-0.017,0
						c-0.434,0-0.787-0.351-0.788-0.786c-0.001-0.435,0.35-0.789,0.786-0.791c0.006,0,0.013,0,0.019,0
						c3.395,0,6.554,2.846,6.906,6.224c0.045,0.433-0.27,0.82-0.703,0.865C302.536,33.103,302.508,33.104,302.481,33.104z"/>
				</g>
				<g>
					<path d="M294.274,48.936c-0.31,0-0.62-0.025-0.925-0.075c-1.63-0.269-3.131-1.264-4.015-2.661
						c-0.233-0.368-0.123-0.855,0.245-1.088c0.368-0.232,0.855-0.123,1.088,0.245c0.647,1.023,1.746,1.751,2.94,1.948
						c1.189,0.197,2.464-0.14,3.41-0.902c0.339-0.273,0.835-0.219,1.108,0.12c0.273,0.339,0.22,0.835-0.12,1.108
						C296.957,48.475,295.613,48.936,294.274,48.936z"/>
				</g>
				<g>
					<path d="M207.699,20.169c-0.135,0-0.272-0.035-0.397-0.108c-0.376-0.22-0.502-0.702-0.283-1.078
						c1.635-2.797,4.798-4.571,8.031-4.53c0.435,0.006,0.783,0.364,0.777,0.799c-0.006,0.435-0.363,0.792-0.799,0.777
						c-2.656-0.041-5.316,1.47-6.648,3.749C208.233,20.029,207.969,20.169,207.699,20.169z"/>
				</g>
				<g>
					<path d="M231.181,31.039c-0.133,0-0.268-0.034-0.392-0.105c-0.377-0.217-0.507-0.699-0.29-1.076
						c0.863-1.5,1.082-3.385,0.584-5.043c-0.5-1.657-1.721-3.109-3.265-3.882c-0.389-0.195-0.547-0.669-0.352-1.058
						c0.195-0.389,0.669-0.547,1.058-0.352c1.924,0.964,3.445,2.772,4.068,4.837c0.62,2.066,0.348,4.415-0.727,6.283
						C231.719,30.898,231.453,31.039,231.181,31.039z"/>
				</g>
				<g>
					<path d="M241.687,47.283c-2.74,0-5.456-0.843-7.716-2.437c-0.356-0.251-0.441-0.743-0.19-1.098
						c0.251-0.356,0.743-0.441,1.098-0.19c2.555,1.802,5.914,2.529,8.983,1.944c0.427-0.081,0.84,0.199,0.922,0.627
						c0.081,0.428-0.199,0.84-0.627,0.922C243.34,47.207,242.512,47.283,241.687,47.283z"/>
				</g>
				<g>
					<path d="M275.563,20.399c-0.197,0-0.394-0.073-0.547-0.221c-1.472-1.421-3.713-2.047-5.709-1.592
						c-0.425,0.095-0.847-0.17-0.943-0.594c-0.096-0.424,0.169-0.847,0.594-0.943c2.54-0.577,5.282,0.187,7.154,1.996
						c0.313,0.303,0.322,0.801,0.019,1.115C275.976,20.318,275.769,20.399,275.563,20.399z"/>
				</g>
				<g>
					<path d="M215.043,46.878c-2.502,0-5.024-1.156-6.59-3.106c-0.273-0.339-0.218-0.835,0.121-1.108
						c0.339-0.272,0.836-0.218,1.108,0.121c1.512,1.882,4.123,2.852,6.497,2.414c0.429-0.078,0.839,0.204,0.918,0.632
						c0.079,0.428-0.204,0.839-0.632,0.918C215.996,46.836,215.52,46.878,215.043,46.878z"/>
				</g>
				<g>
					<path d="M186.816,37.613c-0.011,0-0.022,0-0.033-0.001c-0.435-0.018-0.773-0.385-0.755-0.82
						c0.095-2.325,1.609-4.476,3.767-5.352c0.403-0.164,0.863,0.031,1.027,0.434c0.164,0.403-0.031,0.863-0.434,1.027
						c-1.57,0.637-2.715,2.264-2.784,3.955C187.585,37.281,187.236,37.613,186.816,37.613z"/>
				</g>
				<g>
					<path d="M179.46,48.578c-0.003,0-0.006,0-0.008,0c-1.493-0.016-2.929-0.934-3.572-2.284c-0.639-1.353-0.444-3.046,0.486-4.216
						c0.271-0.341,0.767-0.398,1.107-0.127c0.341,0.271,0.397,0.767,0.127,1.107c-0.555,0.699-0.677,1.751-0.295,2.559
						c0.383,0.804,1.274,1.374,2.165,1.384c0.435,0.005,0.785,0.361,0.78,0.797C180.243,48.231,179.891,48.578,179.46,48.578z"/>
				</g>
				<g>
					<path d="M194.064,48.806c-0.766,0-1.531-0.218-2.184-0.641c-0.365-0.236-0.47-0.724-0.233-1.09
						c0.236-0.365,0.724-0.47,1.09-0.233c0.612,0.396,1.417,0.495,2.103,0.26c0.69-0.235,1.267-0.806,1.508-1.493
						c0.145-0.411,0.594-0.627,1.005-0.482c0.411,0.144,0.626,0.594,0.482,1.005c-0.404,1.15-1.333,2.07-2.485,2.461
						C194.933,48.736,194.498,48.806,194.064,48.806z"/>
				</g>
				<g>
					<path d="M256.798,29.381c-0.328,0-0.635-0.207-0.746-0.535c-0.275-0.81-0.327-1.703-0.149-2.581
						c0.277-1.389,1.088-2.603,2.224-3.33c0.366-0.235,0.854-0.128,1.089,0.239c0.235,0.367,0.127,0.854-0.239,1.089
						c-0.766,0.49-1.337,1.354-1.528,2.312c-0.123,0.608-0.089,1.218,0.096,1.765c0.14,0.412-0.081,0.86-0.493,1
						C256.967,29.368,256.882,29.381,256.798,29.381z"/>
				</g>
				<g>
					<path d="M256.741,27.426c-0.35,0-0.67-0.235-0.762-0.589c-0.014-0.052-0.03-0.105-0.048-0.157
						c-0.545-1.705-1.926-3.077-3.61-3.599c-0.416-0.129-0.649-0.57-0.52-0.986c0.129-0.416,0.571-0.648,0.986-0.52
						c2.168,0.672,3.945,2.436,4.638,4.605c0.026,0.073,0.054,0.166,0.078,0.258c0.11,0.421-0.142,0.852-0.563,0.962
						C256.874,27.418,256.807,27.426,256.741,27.426z"/>
				</g>
			</g>
		</g>
	</g>
	<g>
		<g id="XMLID_00000025404248718530167780000004212245296307419013_">
			<g>
				<g>
					<path class="st0" d="M723.229,123.87c7.611,0,13.778,6.17,13.778,13.778c0,7.611-6.167,13.781-13.778,13.781
						c-4.981,0-9.345-2.645-11.766-6.608c-5.249,4.136-11.877,6.608-19.078,6.608c-9.411,0-17.835-4.212-23.492-10.855
						c-6.98,6.719-16.464,10.855-26.915,10.855c-9.083,0-17.438-3.124-24.053-8.355c-8.188,5.287-17.943,8.355-28.413,8.355
						c-11.728,0-22.558-3.85-31.292-10.354c-7.308,6.444-16.902,10.354-27.407,10.354c-10.937,0-20.887-4.241-28.296-11.167
						c-4.382,6.725-11.965,11.167-20.581,11.167c-5.565,0-10.694-1.851-14.812-4.972c-2.815,3.055-6.848,4.972-11.331,4.972
						c-8.506,0-15.401-6.895-15.401-15.401c0-8.506,6.895-15.401,15.401-15.401c0.801,0,1.583,0.06,2.349,0.18
						c2.705-10.622,12.331-18.475,23.794-18.475c2.768,0,5.429,0.457,7.91,1.302c3.055-19.878,20.235-35.103,40.967-35.103
						c5.013,0,9.818,0.889,14.266,2.519c9.285-14.752,25.714-24.554,44.432-24.554c20.068,0,37.506,11.268,46.33,27.823
						c1.999-0.318,4.048-0.482,6.135-0.482c14.806,0,27.675,8.295,34.211,20.487c4.707-2.91,10.256-4.587,16.196-4.587
						c17.035,0,30.844,13.809,30.844,30.847c0,1.11-0.057,2.21-0.173,3.288C723.113,123.87,723.172,123.87,723.229,123.87z"/>
				</g>
			</g>
			<g>
				<g>
					<path d="M723.229,152.217c-4.824,0-9.234-2.322-11.962-6.253c-5.488,4.094-11.997,6.253-18.882,6.253
						c-9.01,0-17.545-3.82-23.546-10.508c-7.342,6.783-16.848,10.508-26.861,10.508c-8.814,0-17.134-2.826-24.098-8.179
						c-8.484,5.353-18.28,8.179-28.367,8.179c-11.334,0-22.126-3.502-31.251-10.133c-7.645,6.54-17.367,10.133-27.448,10.133
						c-10.438,0-20.399-3.813-28.155-10.758c-4.755,6.754-12.433,10.758-20.722,10.758c-5.338,0-10.413-1.628-14.724-4.716
						c-3.025,3.005-7.147,4.716-11.42,4.716c-8.927,0-16.189-7.263-16.189-16.189c0-8.927,7.263-16.19,16.189-16.19
						c0.594,0,1.186,0.032,1.768,0.096c3.086-10.864,13.011-18.392,24.376-18.392c2.486,0,4.931,0.357,7.281,1.062
						c1.678-9.511,6.614-18.208,13.968-24.573c7.666-6.635,17.478-10.29,27.629-10.29c4.784,0,9.47,0.792,13.94,2.353
						c9.869-15.284,26.553-24.388,44.759-24.388c19.535,0,37.4,10.618,46.76,27.749c1.875-0.271,3.791-0.408,5.705-0.408
						c14.343,0,27.489,7.71,34.508,20.178c4.811-2.802,10.289-4.278,15.899-4.278c17.442,0,31.632,14.192,31.632,31.635
						c0,0.849-0.033,1.692-0.098,2.516c7.712,0.362,13.876,6.75,13.876,14.55C737.795,145.681,731.261,152.217,723.229,152.217z
						 M711.673,143.652l0.463,0.758c2.384,3.902,6.531,6.231,11.094,6.231c7.162,0,12.989-5.828,12.989-12.993
						c0-7.162-5.827-12.99-12.989-12.99h-1.052l0.094-0.873c0.112-1.037,0.169-2.115,0.169-3.204
						c0-16.574-13.483-30.059-30.056-30.059c-5.595,0-11.052,1.546-15.782,4.47l-0.713,0.441l-0.396-0.739
						c-6.637-12.38-19.48-20.071-33.517-20.071c-2.02,0-4.043,0.159-6.011,0.472l-0.555,0.089l-0.264-0.496
						c-9.011-16.905-26.497-27.406-45.635-27.406c-17.872,0-34.233,9.041-43.765,24.186l-0.34,0.54l-0.599-0.219
						c-4.475-1.64-9.183-2.471-13.995-2.471c-19.894,0-37.171,14.804-40.188,34.435l-0.143,0.93l-0.89-0.303
						c-2.455-0.836-5.03-1.26-7.656-1.26c-10.879,0-20.349,7.353-23.03,17.882l-0.177,0.695l-0.709-0.111
						c-0.723-0.113-1.473-0.17-2.227-0.17c-8.058,0-14.613,6.556-14.613,14.613s6.555,14.613,14.613,14.613
						c4.07,0,7.988-1.72,10.752-4.718l0.485-0.527l0.571,0.433c4.153,3.148,9.11,4.812,14.336,4.812
						c8.063,0,15.51-4.041,19.921-10.809l0.513-0.787l0.686,0.641c7.556,7.064,17.414,10.955,27.758,10.955
						c9.91,0,19.458-3.607,26.886-10.157l0.479-0.423l0.513,0.382c8.958,6.671,19.615,10.198,30.821,10.198
						c9.972,0,19.649-2.846,27.985-8.229l0.474-0.306l0.443,0.35c6.772,5.355,14.92,8.185,23.564,8.185
						c9.879,0,19.244-3.777,26.369-10.635l0.603-0.581l0.543,0.638c5.724,6.722,14.068,10.578,22.891,10.578
						c6.815,0,13.244-2.227,18.59-6.439L711.673,143.652z"/>
				</g>
				<g>
					<path d="M548.893,92.916c-0.266,0-0.525-0.134-0.674-0.377c-3.021-4.951-2.771-11.704,0.609-16.422
						c0.253-0.354,0.746-0.435,1.1-0.182c0.354,0.253,0.435,0.746,0.182,1.1c-3.022,4.219-3.246,10.257-0.545,14.683
						c0.227,0.372,0.109,0.857-0.262,1.083C549.174,92.879,549.033,92.916,548.893,92.916z"/>
				</g>
				<g>
					<path d="M629.399,117.284c-0.248,0-0.493-0.117-0.646-0.336c-0.25-0.357-0.163-0.848,0.194-1.098
						c4.118-2.882,5.932-8.62,4.219-13.346c-0.148-0.409,0.063-0.861,0.473-1.01c0.409-0.148,0.861,0.063,1.01,0.473
						c1.947,5.374-0.115,11.898-4.798,15.174C629.713,117.238,629.555,117.284,629.399,117.284z"/>
				</g>
				<g>
					<path d="M600.059,63.996c-0.223,0-0.444-0.094-0.6-0.276c-4.362-5.106-12.275-6.894-18.406-4.159
						c-0.398,0.177-0.863-0.001-1.041-0.399c-0.177-0.397,0.001-0.864,0.399-1.041c6.745-3.009,15.449-1.042,20.247,4.575
						c0.283,0.331,0.244,0.828-0.087,1.111C600.422,63.933,600.24,63.996,600.059,63.996z"/>
				</g>
				<g>
					<path d="M534.981,145.366c-3.245,0-6.49-0.93-9.203-2.771c-0.36-0.244-0.454-0.735-0.209-1.095
						c0.244-0.36,0.735-0.454,1.095-0.209c4.556,3.094,11.048,3.301,15.788,0.506c0.375-0.221,0.858-0.096,1.079,0.278
						c0.221,0.375,0.096,0.858-0.279,1.079C540.745,144.633,537.863,145.366,534.981,145.366z"/>
				</g>
				<g>
					<path d="M458.443,140.899c-2.997,0-5.8-2.305-6.333-5.271c-0.555-3.065,1.412-6.318,4.386-7.251
						c0.416-0.131,0.858,0.101,0.988,0.516c0.13,0.415-0.101,0.857-0.516,0.988c-2.204,0.691-3.718,3.195-3.307,5.467
						c0.409,2.276,2.705,4.094,5.009,3.969c0.433-0.03,0.806,0.31,0.829,0.745c0.023,0.435-0.31,0.806-0.745,0.829
						C458.651,140.897,458.547,140.899,458.443,140.899z"/>
				</g>
				<g>
					<path d="M507.872,98.027c-0.056,0-0.113-0.006-0.17-0.018c-0.425-0.093-0.694-0.514-0.601-0.939
						c0.865-3.945,3.695-7.416,7.385-9.06c3.69-1.644,8.164-1.425,11.676,0.571c0.378,0.215,0.511,0.696,0.296,1.075
						c-0.215,0.378-0.696,0.511-1.075,0.296c-3.084-1.753-7.014-1.945-10.255-0.502c-3.241,1.444-5.727,4.493-6.487,7.959
						C508.56,97.776,508.234,98.027,507.872,98.027z"/>
				</g>
				<g>
					<path d="M723.312,146.256c-3.678,0-7.382-1.543-9.861-4.259c-0.293-0.321-0.271-0.82,0.051-1.114
						c0.322-0.293,0.82-0.27,1.114,0.051c2.809,3.077,7.406,4.445,11.441,3.403c0.421-0.108,0.852,0.145,0.96,0.566
						c0.109,0.421-0.145,0.851-0.566,0.96C725.426,146.129,724.37,146.256,723.312,146.256z"/>
				</g>
				<g>
					<path d="M712.864,113.627c-0.009,0-0.018,0-0.027,0c-0.435-0.015-0.776-0.379-0.762-0.814
						c0.147-4.404-2.528-8.811-6.505-10.717c-0.393-0.188-0.559-0.659-0.37-1.051c0.188-0.392,0.659-0.559,1.051-0.37
						c4.524,2.168,7.567,7.181,7.4,12.191C713.636,113.291,713.287,113.627,712.864,113.627z"/>
				</g>
				<g>
					<path d="M643.023,143.984c-4.248,0-8.499-1.432-11.814-4.101c-0.339-0.273-0.393-0.769-0.12-1.108
						c0.273-0.339,0.769-0.393,1.108-0.119c4.194,3.377,10.027,4.592,15.222,3.171c0.419-0.116,0.853,0.132,0.968,0.552
						c0.115,0.42-0.133,0.853-0.552,0.968C646.268,143.775,644.645,143.984,643.023,143.984z"/>
				</g>
				<g>
					<path d="M586.178,117.464c-0.067,0-0.135-0.009-0.203-0.027c-0.421-0.112-0.671-0.544-0.559-0.964
						c1.755-6.598-1.289-14.298-7.08-17.91c-0.37-0.23-0.482-0.716-0.252-1.086c0.23-0.369,0.717-0.482,1.086-0.252
						c6.46,4.029,9.727,12.294,7.77,19.653C586.845,117.231,586.526,117.464,586.178,117.464z"/>
				</g>
				<g>
					<path d="M586.772,113.122c-0.425,0-0.776-0.339-0.787-0.767c-0.168-6.115,1.933-12.359,5.763-17.13
						c0.272-0.34,0.769-0.394,1.108-0.121c0.339,0.272,0.394,0.768,0.121,1.108c-3.6,4.484-5.575,10.353-5.417,16.1
						c0.012,0.435-0.331,0.797-0.766,0.809C586.787,113.122,586.78,113.122,586.772,113.122z"/>
				</g>
				<g>
					<path d="M484.049,136.537c-1.223,0-2.386-0.358-3.33-1.045c-0.352-0.256-0.43-0.749-0.173-1.101
						c0.256-0.352,0.75-0.429,1.101-0.173c0.966,0.703,2.274,0.921,3.591,0.596c1.317-0.324,2.377-1.125,2.906-2.196
						c0.193-0.39,0.665-0.55,1.056-0.357c0.39,0.193,0.55,0.666,0.357,1.056c-0.736,1.489-2.173,2.593-3.943,3.029
						C485.09,136.473,484.564,136.537,484.049,136.537z"/>
				</g>
				<g>
					<path d="M656.708,87.531c-0.327,0-0.632-0.205-0.745-0.531c-0.677-1.962-2.906-3.344-4.966-3.082
						c-0.433,0.055-0.827-0.25-0.882-0.682c-0.055-0.432,0.25-0.827,0.682-0.882c2.807-0.36,5.732,1.456,6.656,4.132
						c0.142,0.411-0.076,0.86-0.488,1.002C656.88,87.517,656.794,87.531,656.708,87.531z"/>
				</g>
				<g>
					<path d="M603.462,142.412c-0.683,0-1.365-0.087-2.028-0.272c-0.419-0.117-0.665-0.551-0.549-0.97
						c0.116-0.419,0.552-0.663,0.97-0.549c3.307,0.918,7.185-1.124,8.297-4.37c0.141-0.411,0.589-0.631,1.001-0.49
						c0.412,0.141,0.631,0.589,0.49,1.001C610.498,140.106,606.969,142.412,603.462,142.412z"/>
				</g>
				<g>
					<path d="M674.439,132.446c-0.167,0-0.335-0.053-0.478-0.162c-2.134-1.633-3.573-4.096-3.946-6.756
						c-0.374-2.66,0.331-5.423,1.936-7.579c0.26-0.349,0.753-0.422,1.103-0.162c0.349,0.26,0.422,0.754,0.162,1.103
						c-1.359,1.826-1.956,4.166-1.639,6.419c0.316,2.253,1.535,4.339,3.343,5.723c0.345,0.264,0.411,0.759,0.147,1.105
						C674.911,132.339,674.676,132.446,674.439,132.446z"/>
				</g>
				<g>
					<path d="M670.453,123.946c-0.401,0-0.743-0.304-0.784-0.711c-0.353-3.575-2.971-6.892-6.368-8.065
						c-0.411-0.142-0.63-0.591-0.488-1.002c0.142-0.411,0.591-0.629,1.002-0.488c4.022,1.39,7.005,5.168,7.422,9.401
						c0.042,0.433-0.274,0.819-0.707,0.862C670.506,123.945,670.479,123.946,670.453,123.946z"/>
				</g>
				<g>
					<path d="M630.517,79.76c-0.395,0-0.735-0.296-0.782-0.697c-0.451-3.88-3.037-7.444-6.587-9.079
						c-0.395-0.182-0.568-0.65-0.386-1.046c0.182-0.395,0.651-0.568,1.046-0.386c4.039,1.86,6.98,5.915,7.493,10.329
						c0.05,0.432-0.26,0.824-0.692,0.874C630.578,79.758,630.547,79.76,630.517,79.76z"/>
				</g>
				<g>
					<path d="M551.613,119.816c-0.08,0-0.162-0.013-0.243-0.038c-0.414-0.134-0.641-0.579-0.507-0.993
						c1.073-3.316,0.438-7.109-1.656-9.9c-0.261-0.348-0.191-0.842,0.157-1.104c0.348-0.261,0.842-0.191,1.103,0.157
						c2.397,3.194,3.123,7.536,1.895,11.332C552.255,119.604,551.946,119.816,551.613,119.816z"/>
				</g>
				<g>
					<path d="M469.867,112.369c-0.164,0-0.33-0.051-0.472-0.157c-0.348-0.261-0.419-0.755-0.158-1.103
						c2.16-2.884,6.085-4.193,9.544-3.181c0.418,0.122,0.658,0.56,0.536,0.978c-0.122,0.417-0.56,0.658-0.978,0.535
						c-2.796-0.817-6.094,0.282-7.84,2.614C470.343,112.26,470.106,112.369,469.867,112.369z"/>
				</g>
				<g>
					<path d="M571.06,141.797c-0.068,0-0.138-0.009-0.207-0.028c-2.295-0.623-4.249-2.289-5.226-4.457
						c-0.179-0.397-0.002-0.864,0.395-1.043c0.397-0.179,0.864-0.002,1.042,0.395c0.774,1.717,2.383,3.09,4.201,3.583
						c0.42,0.114,0.668,0.547,0.555,0.967C571.725,141.566,571.407,141.797,571.06,141.797z"/>
				</g>
			</g>
		</g>
	</g>
	<g>
		<g id="XMLID_00000097462330338714295570000017343176353305344182_">
			<g>
				<g>
					<path class="st0" d="M4.905,126.468c-2.274,0-4.117,1.843-4.117,4.115c0,2.274,1.843,4.117,4.117,4.117
						c1.488,0,2.792-0.79,3.513-1.973c1.569,1.236,3.548,1.973,5.7,1.973c2.809,0,5.325-1.259,7.015-3.242
						c2.085,2.006,4.918,3.242,8.039,3.242c2.714,0,5.209-0.933,7.184-2.495c2.446,1.577,5.358,2.495,8.487,2.495
						c3.502,0,6.738-1.15,9.345-3.092c2.182,1.924,5.048,3.092,8.187,3.092c3.267,0,6.239-1.267,8.453-3.335
						c1.308,2.008,3.572,3.335,6.146,3.335c1.663,0,3.195-0.553,4.423-1.486c0.842,0.914,2.047,1.486,3.385,1.486
						c2.539,0,4.6-2.06,4.6-4.6c0-2.541-2.06-4.6-4.6-4.6c-0.239,0-0.473,0.017-0.702,0.052c-0.807-3.172-3.682-5.517-7.106-5.517
						c-0.826,0-1.622,0.136-2.363,0.388c-0.912-5.936-6.043-10.484-12.236-10.484c-1.498,0-2.933,0.266-4.262,0.753
						c-2.772-4.406-7.678-7.335-13.27-7.335c-5.995,0-11.203,3.366-13.838,8.311c-0.598-0.095-1.211-0.144-1.833-0.144
						c-4.421,0-8.266,2.477-10.218,6.119c-1.406-0.869-3.063-1.37-4.836-1.37c-5.089,0-9.213,4.124-9.213,9.213
						c0,0.332,0.017,0.66,0.052,0.982C4.94,126.468,4.922,126.468,4.905,126.468z"/>
				</g>
			</g>
			<g>
				<g>
					<path d="M84.782,135.487c-1.268,0-2.497-0.453-3.462-1.26c-1.297,0.827-2.786,1.26-4.346,1.26
						c-2.453,0-4.739-1.094-6.274-2.965c-2.348,1.918-5.271,2.965-8.325,2.965c-2.999,0-5.895-1.02-8.225-2.883
						c-2.744,1.889-5.948,2.883-9.306,2.883c-2.987,0-5.895-0.803-8.444-2.328c-2.113,1.525-4.6,2.328-7.227,2.328
						c-2.947,0-5.755-1.033-7.989-2.924c-1.87,1.867-4.403,2.924-7.065,2.924c-1.995,0-3.891-0.573-5.529-1.665
						c-0.922,1.055-2.247,1.665-3.684,1.665c-2.705,0-4.905-2.2-4.905-4.905c0-2.437,1.787-4.464,4.12-4.84
						c-0.002-0.085-0.003-0.171-0.003-0.256c0-5.515,4.487-10.001,10.001-10.001c1.588,0,3.143,0.375,4.544,1.09
						c2.252-3.621,6.208-5.839,10.51-5.839c0.471,0,0.942,0.026,1.405,0.079c2.938-5.101,8.354-8.246,14.266-8.246
						c5.483,0,10.519,2.673,13.594,7.181c1.27-0.397,2.591-0.599,3.937-0.599c6.146,0,11.521,4.363,12.851,10.284
						c0.57-0.125,1.155-0.188,1.748-0.188c3.492,0,6.559,2.216,7.677,5.466c0.044-0.001,0.087-0.002,0.131-0.002
						c2.971,0,5.388,2.417,5.388,5.388C90.17,133.07,87.753,135.487,84.782,135.487z M81.491,132.152l0.486,0.527
						c0.722,0.783,1.744,1.232,2.806,1.232c2.102,0,3.812-1.71,3.812-3.811c0-2.102-1.71-3.812-3.812-3.812
						c-0.198,0-0.394,0.014-0.584,0.043l-0.706,0.107l-0.176-0.692c-0.737-2.899-3.346-4.923-6.342-4.923
						c-0.725,0-1.434,0.116-2.109,0.346l-0.89,0.303l-0.143-0.929c-0.859-5.596-5.785-9.815-11.456-9.815
						c-1.373,0-2.715,0.237-3.991,0.705l-0.599,0.219l-0.34-0.54c-2.745-4.362-7.456-6.967-12.602-6.967
						c-5.513,0-10.548,3.024-13.142,7.893l-0.264,0.496l-0.555-0.088c-0.557-0.089-1.132-0.134-1.709-0.134
						c-3.989,0-7.638,2.185-9.523,5.703l-0.396,0.739l-0.713-0.441c-1.326-0.819-2.855-1.252-4.422-1.252
						c-4.645,0-8.425,3.779-8.425,8.425c0,0.302,0.016,0.604,0.048,0.897l0.095,0.873H4.905c-1.835,0-3.328,1.492-3.328,3.327
						c0,1.835,1.493,3.328,3.328,3.328c1.17,0,2.231-0.596,2.84-1.595l0.462-0.759l0.698,0.55c1.499,1.18,3.301,1.804,5.212,1.804
						c2.471,0,4.809-1.081,6.415-2.965l0.543-0.637l0.603,0.58c2.025,1.949,4.686,3.022,7.493,3.022
						c2.456,0,4.771-0.804,6.695-2.325l0.442-0.35l0.474,0.305c2.404,1.55,5.191,2.369,8.06,2.369c3.226,0,6.295-1.015,8.874-2.936
						l0.513-0.382l0.479,0.423c2.118,1.867,4.84,2.895,7.665,2.895c2.949,0,5.759-1.109,7.914-3.123l0.686-0.641l0.512,0.787
						c1.214,1.864,3.265,2.977,5.486,2.977c1.44,0,2.805-0.458,3.946-1.325L81.491,132.152z"/>
				</g>
				<g>
					<path d="M40.985,109.006c-0.197,0-0.394-0.073-0.547-0.221c-0.313-0.302-0.323-0.801-0.021-1.114
						c1.794-1.862,4.745-2.548,7.177-1.669c0.409,0.148,0.621,0.6,0.473,1.009c-0.148,0.41-0.6,0.621-1.009,0.473
						c-1.865-0.674-4.13-0.148-5.506,1.28C41.398,108.926,41.191,109.006,40.985,109.006z"/>
				</g>
				<g>
					<path d="M22.854,127.079c-0.232,0-0.462-0.102-0.618-0.298c-0.855-1.077-1.384-2.447-1.49-3.857
						c-0.032-0.434,0.293-0.813,0.727-0.845c0.44-0.034,0.813,0.293,0.845,0.727c0.083,1.099,0.492,2.162,1.152,2.995
						c0.271,0.341,0.213,0.837-0.128,1.107C23.199,127.024,23.026,127.079,22.854,127.079z"/>
				</g>
				<g>
					<path d="M21.532,123.638c-0.409,0-0.754-0.315-0.785-0.729c-0.053-0.713,0.003-1.422,0.167-2.108
						c0.101-0.423,0.526-0.685,0.95-0.583c0.423,0.101,0.685,0.526,0.583,0.95c-0.126,0.527-0.169,1.074-0.128,1.624
						c0.032,0.434-0.293,0.813-0.727,0.845C21.571,123.637,21.551,123.638,21.532,123.638z"/>
				</g>
				<g>
					<path d="M18.977,126.944c-0.354,0-0.675-0.24-0.764-0.599c-0.105-0.422,0.153-0.85,0.575-0.955
						c1.097-0.272,1.957-1.382,1.957-2.525c0-0.061-0.003-0.108-0.006-0.153l1.573-0.099l-0.787,0.049l0.787-0.047
						c0.005,0.078,0.009,0.158,0.009,0.235c0,1.881-1.356,3.624-3.153,4.071C19.104,126.936,19.04,126.944,18.977,126.944z"/>
				</g>
				<g>
					<path d="M4.83,133.015c-0.529,0-1.03-0.184-1.406-0.522c-0.442-0.397-0.691-0.989-0.682-1.623
						c0.009-0.634,0.273-1.218,0.725-1.603c0.332-0.282,0.829-0.242,1.111,0.09c0.282,0.332,0.242,0.829-0.09,1.111
						c-0.104,0.089-0.168,0.247-0.171,0.423c-0.002,0.177,0.057,0.337,0.159,0.429c0.102,0.091,0.267,0.133,0.442,0.112
						c0.175-0.021,0.326-0.102,0.403-0.215c0.245-0.36,0.735-0.454,1.095-0.209c0.36,0.245,0.454,0.735,0.209,1.095
						c-0.334,0.492-0.887,0.817-1.516,0.894C5.016,133.01,4.922,133.015,4.83,133.015z"/>
				</g>
				<g>
					<path d="M8.953,123.547c-0.027,0-0.055-0.001-0.082-0.004c-0.433-0.045-0.748-0.432-0.703-0.865
						c0.232-2.226,2.315-4.101,4.553-4.101c0.004,0,0.008,0,0.013,0c0.435,0.001,0.787,0.355,0.786,0.791
						c-0.001,0.434-0.354,0.786-0.788,0.786c-0.003,0-0.007,0-0.01,0c-1.442,0-2.836,1.254-2.985,2.688
						C9.694,123.245,9.351,123.547,8.953,123.547z"/>
				</g>
				<g>
					<path d="M14.001,133.287c-0.893,0-1.788-0.307-2.483-0.869c-0.339-0.273-0.392-0.77-0.118-1.108
						c0.273-0.339,0.77-0.391,1.108-0.118c0.512,0.414,1.206,0.597,1.856,0.49c0.651-0.106,1.249-0.502,1.602-1.06
						c0.233-0.368,0.72-0.478,1.087-0.244c0.368,0.232,0.478,0.72,0.245,1.087c-0.591,0.933-1.592,1.596-2.679,1.773
						C14.415,133.27,14.208,133.287,14.001,133.287z"/>
				</g>
				<g>
					<path d="M67.276,115.587c-0.271,0-0.534-0.139-0.681-0.39c-0.768-1.312-2.308-2.173-3.827-2.158
						c-0.442-0.007-0.793-0.342-0.799-0.777c-0.006-0.435,0.342-0.793,0.777-0.799c2.101-0.027,4.147,1.124,5.209,2.937
						c0.22,0.376,0.094,0.859-0.282,1.079C67.549,115.552,67.412,115.587,67.276,115.587z"/>
				</g>
				<g>
					<path d="M52.825,122.274c-0.273,0-0.538-0.142-0.684-0.395c-0.713-1.239-0.886-2.734-0.475-4.102
						c0.413-1.369,1.383-2.522,2.66-3.163c0.389-0.195,0.863-0.038,1.058,0.351c0.195,0.389,0.038,0.863-0.351,1.058
						c-0.879,0.441-1.573,1.267-1.857,2.208c-0.282,0.939-0.158,2.009,0.332,2.861c0.217,0.377,0.087,0.859-0.29,1.076
						C53.094,122.24,52.959,122.274,52.825,122.274z"/>
				</g>
				<g>
					<path d="M46.36,132.271c-0.526,0-1.054-0.049-1.576-0.148c-0.428-0.081-0.709-0.494-0.627-0.922
						c0.081-0.427,0.495-0.709,0.921-0.627c1.812,0.344,3.792-0.084,5.296-1.146c0.355-0.25,0.847-0.166,1.098,0.19
						c0.251,0.356,0.166,0.848-0.19,1.099C49.842,131.733,48.109,132.271,46.36,132.271z"/>
				</g>
				<g>
					<path d="M25.516,115.727c-0.206,0-0.412-0.08-0.567-0.24c-0.303-0.313-0.294-0.812,0.019-1.115
						c1.225-1.184,3.018-1.683,4.681-1.304c0.424,0.097,0.69,0.52,0.593,0.944c-0.097,0.424-0.52,0.689-0.944,0.593
						c-1.131-0.259-2.4,0.095-3.234,0.9C25.91,115.653,25.713,115.727,25.516,115.727z"/>
				</g>
				<g>
					<path d="M62.783,132.025c-0.32,0-0.64-0.029-0.958-0.087c-0.428-0.079-0.711-0.49-0.632-0.918
						c0.079-0.428,0.491-0.71,0.918-0.632c1.355,0.25,2.844-0.304,3.706-1.379c0.272-0.34,0.768-0.394,1.108-0.122
						c0.34,0.272,0.394,0.768,0.122,1.108C66.015,131.281,64.413,132.025,62.783,132.025z"/>
				</g>
				<g>
					<path d="M80.125,126.319c-0.42,0-0.769-0.331-0.787-0.755c-0.039-0.926-0.667-1.816-1.527-2.165
						c-0.403-0.164-0.598-0.623-0.434-1.027c0.164-0.403,0.624-0.598,1.027-0.434c1.435,0.582,2.443,2.012,2.509,3.558
						c0.018,0.435-0.319,0.803-0.754,0.821C80.148,126.319,80.137,126.319,80.125,126.319z"/>
				</g>
				<g>
					<path d="M84.65,133.068c-0.43,0-0.782-0.346-0.788-0.778c-0.006-0.435,0.342-0.793,0.778-0.799
						c0.439-0.006,0.876-0.286,1.064-0.681c0.188-0.395,0.129-0.909-0.145-1.252c-0.272-0.34-0.216-0.836,0.124-1.108
						c0.34-0.271,0.836-0.216,1.108,0.124c0.646,0.809,0.781,1.979,0.336,2.912c-0.442,0.931-1.434,1.566-2.467,1.58
						C84.657,133.068,84.653,133.068,84.65,133.068z"/>
				</g>
				<g>
					<path d="M75.665,133.207c-0.3,0-0.601-0.048-0.889-0.146c-0.796-0.27-1.438-0.906-1.718-1.701
						c-0.144-0.41,0.071-0.861,0.482-1.005c0.411-0.145,0.861,0.071,1.005,0.482c0.118,0.337,0.401,0.617,0.738,0.731
						c0.339,0.115,0.736,0.066,1.035-0.127c0.365-0.236,0.853-0.132,1.09,0.233c0.236,0.365,0.132,0.853-0.234,1.09
						C76.724,133.057,76.196,133.207,75.665,133.207z"/>
				</g>
				<g>
					<path d="M37.062,121.256c-0.084,0-0.169-0.014-0.253-0.042c-0.412-0.14-0.633-0.587-0.493-0.999
						c0.097-0.286,0.114-0.606,0.049-0.926c-0.103-0.516-0.403-0.974-0.803-1.23c-0.367-0.234-0.475-0.721-0.241-1.088
						c0.233-0.367,0.721-0.476,1.088-0.241c0.768,0.489,1.315,1.309,1.502,2.249c0.119,0.59,0.084,1.193-0.102,1.741
						C37.697,121.049,37.391,121.256,37.062,121.256z"/>
				</g>
				<g>
					<path d="M37.098,120.053c-0.065,0-0.132-0.008-0.198-0.026c-0.422-0.109-0.675-0.539-0.566-0.96
						c0.017-0.065,0.036-0.127,0.059-0.192c0.449-1.411,1.619-2.573,3.048-3.016c0.415-0.129,0.857,0.103,0.986,0.519
						c0.129,0.416-0.104,0.857-0.52,0.986c-0.929,0.288-1.721,1.076-2.018,2.007c-0.014,0.042-0.022,0.065-0.028,0.09
						C37.768,119.817,37.448,120.053,37.098,120.053z"/>
				</g>
			</g>
		</g>
	</g>
	<g>
		<g id="XMLID_00000103252632727255297010000015786081796423155338_">
			<g>
				<g>
					<path class="st0" d="M1248.086,167.12c-2.392,0-4.33,1.938-4.33,4.33c0,2.39,1.938,4.33,4.33,4.33
						c1.565,0,2.937-0.83,3.698-2.076c1.649,1.301,3.732,2.076,5.995,2.076c2.956,0,5.604-1.323,7.382-3.411
						c2.192,2.112,5.173,3.411,8.458,3.411c2.855,0,5.479-0.982,7.557-2.624c2.574,1.66,5.638,2.624,8.93,2.624
						c3.685,0,7.087-1.209,9.833-3.253c2.295,2.025,5.311,3.253,8.612,3.253c3.437,0,6.564-1.331,8.893-3.507
						c1.375,2.112,3.759,3.507,6.467,3.507c1.749,0,3.361-0.582,4.654-1.562c0.885,0.961,2.152,1.562,3.561,1.562
						c2.672,0,4.839-2.166,4.839-4.839c0-2.674-2.166-4.841-4.839-4.841c-0.251,0-0.498,0.019-0.738,0.056
						c-0.849-3.337-3.875-5.806-7.476-5.806c-0.87,0-1.707,0.145-2.487,0.411c-0.959-6.248-6.357-11.032-12.873-11.032
						c-1.575,0-3.085,0.279-4.483,0.791c-2.917-4.636-8.08-7.715-13.962-7.715c-6.307,0-11.786,3.54-14.559,8.743
						c-0.629-0.1-1.272-0.152-1.928-0.152c-4.654,0-8.696,2.605-10.751,6.438c-1.48-0.916-3.222-1.443-5.089-1.443
						c-5.353,0-9.692,4.339-9.692,9.692c0,0.35,0.018,0.695,0.055,1.035C1248.122,167.12,1248.104,167.12,1248.086,167.12z"/>
				</g>
			</g>
			<g>
				<g>
					<path d="M1332.124,176.568c-1.335,0-2.628-0.48-3.639-1.335c-1.365,0.875-2.933,1.335-4.576,1.335
						c-2.583,0-4.989-1.157-6.596-3.135c-2.467,2.028-5.547,3.135-8.764,3.135c-3.157,0-6.204-1.076-8.651-3.044
						c-2.886,1.993-6.259,3.044-9.794,3.044c-3.146,0-6.206-0.848-8.886-2.457c-2.22,1.609-4.836,2.457-7.6,2.457
						c-3.106,0-6.062-1.092-8.407-3.09c-1.962,1.973-4.628,3.09-7.433,3.09c-2.104,0-4.101-0.608-5.823-1.765
						c-0.964,1.118-2.358,1.765-3.869,1.765c-2.822,0-5.118-2.296-5.118-5.118c0-2.555,1.883-4.68,4.334-5.058
						c-0.003-0.102-0.004-0.204-0.004-0.307c0-5.779,4.702-10.48,10.481-10.48c1.678,0,3.32,0.399,4.797,1.16
						c2.359-3.816,6.52-6.156,11.043-6.156c0.501,0,1.003,0.029,1.499,0.086c3.081-5.367,8.773-8.677,14.987-8.677
						c5.766,0,11.061,2.814,14.287,7.56c1.339-0.423,2.735-0.636,4.158-0.636c6.461,0,12.109,4.596,13.488,10.828
						c0.612-0.138,1.238-0.208,1.871-0.208c3.665,0,6.883,2.333,8.047,5.752c0.056-0.002,0.111-0.002,0.167-0.002
						c3.103,0,5.627,2.525,5.627,5.629C1337.751,174.043,1335.226,176.568,1332.124,176.568z M1328.658,173.157l0.485,0.527
						c0.766,0.831,1.852,1.308,2.981,1.308c2.233,0,4.051-1.817,4.051-4.051c0-2.235-1.817-4.052-4.051-4.052
						c-0.207,0-0.415,0.016-0.618,0.047l-0.708,0.11l-0.177-0.694c-0.781-3.069-3.541-5.213-6.712-5.213
						c-0.764,0-1.515,0.124-2.233,0.369l-0.891,0.304l-0.143-0.93c-0.907-5.908-6.106-10.363-12.094-10.363
						c-1.45,0-2.866,0.25-4.212,0.743l-0.599,0.219l-0.34-0.54c-2.895-4.6-7.865-7.346-13.295-7.346
						c-5.814,0-11.126,3.19-13.863,8.326l-0.264,0.496l-0.555-0.088c-0.591-0.094-1.198-0.142-1.804-0.142
						c-4.211,0-8.065,2.308-10.057,6.022l-0.396,0.739l-0.713-0.441c-1.4-0.866-3.017-1.325-4.674-1.325
						c-4.91,0-8.904,3.994-8.904,8.904c0,0.324,0.017,0.643,0.05,0.95l0.095,0.873h-0.933c-1.953,0-3.541,1.589-3.541,3.541
						c0,1.953,1.589,3.541,3.541,3.541c1.245,0,2.376-0.635,3.025-1.699l0.463-0.759l0.698,0.551
						c1.582,1.248,3.486,1.907,5.507,1.907c2.614,0,5.086-1.142,6.782-3.134l0.543-0.638l0.604,0.581
						c2.135,2.057,4.945,3.19,7.911,3.19c2.593,0,5.037-0.849,7.068-2.454l0.442-0.35l0.474,0.306
						c2.535,1.634,5.475,2.498,8.503,2.498c3.404,0,6.641-1.071,9.362-3.097l0.513-0.382l0.479,0.423
						c2.234,1.971,5.108,3.056,8.091,3.056c3.113,0,6.08-1.17,8.355-3.295l0.686-0.641l0.512,0.787
						c1.284,1.972,3.454,3.149,5.807,3.149c1.523,0,2.967-0.485,4.177-1.402L1328.658,173.157z"/>
				</g>
				<g>
					<path d="M1283.005,149.132c-0.194,0-0.388-0.071-0.541-0.215c-0.317-0.298-0.332-0.797-0.033-1.114
						c2.201-2.336,5.721-3.213,8.76-2.182c0.412,0.14,0.633,0.587,0.493,0.999c-0.139,0.412-0.587,0.635-0.999,0.493
						c-2.427-0.823-5.349-0.095-7.107,1.771C1283.423,149.049,1283.214,149.132,1283.005,149.132z"/>
				</g>
				<g>
					<path d="M1301.209,161.616c-0.169,0-0.34-0.054-0.484-0.166c-0.343-0.268-0.405-0.763-0.138-1.106
						c1.309-1.681,1.397-4.28,0.204-6.046c-0.244-0.361-0.148-0.851,0.212-1.095c0.361-0.243,0.851-0.148,1.094,0.212
						c1.583,2.345,1.471,5.666-0.267,7.897C1301.676,161.511,1301.443,161.616,1301.209,161.616z"/>
				</g>
				<g>
					<path d="M1302.463,157.883c-0.04,0-0.081-0.003-0.122-0.009c-0.43-0.067-0.725-0.47-0.658-0.9
						c0.362-2.33,2.312-4.316,4.636-4.721c0.431-0.075,0.837,0.212,0.912,0.641c0.075,0.429-0.212,0.837-0.641,0.912
						c-1.652,0.288-3.092,1.754-3.349,3.41C1303.18,157.605,1302.845,157.883,1302.463,157.883z"/>
				</g>
				<g>
					<path d="M1308.147,173.414c-0.973,0-1.944-0.227-2.802-0.69c-0.383-0.207-0.526-0.685-0.319-1.068
						c0.207-0.383,0.685-0.526,1.068-0.319c1.519,0.82,3.517,0.632,4.857-0.457c0.339-0.275,0.835-0.223,1.109,0.115
						c0.275,0.338,0.223,0.834-0.115,1.109C1310.881,172.967,1309.513,173.414,1308.147,173.414z"/>
				</g>
				<g>
					<path d="M1318.51,163.723c-0.092,0-0.185-0.016-0.276-0.05c-0.408-0.153-0.614-0.607-0.462-1.014
						c0.539-1.44,0.024-3.229-1.199-4.161c-0.346-0.264-0.413-0.759-0.149-1.105c0.264-0.346,0.758-0.413,1.105-0.149
						c1.783,1.359,2.506,3.869,1.719,5.968C1319.129,163.527,1318.829,163.723,1318.51,163.723z"/>
				</g>
				<g>
					<path d="M1328.074,168.141c-0.064,0-0.128-0.008-0.193-0.024c-0.422-0.106-0.678-0.535-0.572-0.957
						c0.124-0.49,0.01-1.046-0.297-1.451c-0.306-0.403-0.811-0.662-1.319-0.676c-0.435-0.012-0.778-0.375-0.766-0.81
						c0.012-0.428,0.362-0.766,0.788-0.766c0.007,0,0.015,0,0.022,0c0.989,0.028,1.934,0.514,2.531,1.3
						c0.598,0.788,0.811,1.831,0.57,2.788C1328.747,167.902,1328.426,168.141,1328.074,168.141z"/>
				</g>
				<g>
					<path d="M1331.811,174.609c-0.588,0-1.175-0.185-1.655-0.545c-0.349-0.261-0.42-0.755-0.159-1.103
						c0.261-0.349,0.755-0.42,1.103-0.159c0.337,0.252,0.836,0.3,1.214,0.118c0.378-0.183,0.65-0.605,0.663-1.026
						c0.013-0.435,0.37-0.78,0.811-0.765c0.435,0.013,0.777,0.376,0.765,0.811c-0.03,1.015-0.639,1.957-1.552,2.398
						C1332.626,174.52,1332.218,174.609,1331.811,174.609z"/>
				</g>
				<g>
					<path d="M1284.227,172.852c-0.05,0-0.1-0.005-0.15-0.014c-2.432-0.47-4.306-2.777-4.266-5.254
						c0.007-0.431,0.359-0.775,0.788-0.775c0.004,0,0.009,0,0.013,0c0.435,0.007,0.782,0.366,0.775,0.801
						c-0.028,1.705,1.312,3.356,2.988,3.68c0.428,0.083,0.707,0.496,0.625,0.923
						C1284.927,172.591,1284.597,172.852,1284.227,172.852z"/>
				</g>
				<g>
					<path d="M1276.809,174.037c-0.403,0-0.747-0.308-0.784-0.717c-0.04-0.434,0.28-0.817,0.713-0.856
						c0.997-0.091,1.936-0.633,2.512-1.451c0.579-0.818,0.774-1.884,0.524-2.853c-0.109-0.422,0.145-0.851,0.566-0.96
						c0.421-0.108,0.851,0.145,0.96,0.566c0.365,1.412,0.079,2.966-0.763,4.157c-0.839,1.189-2.206,1.979-3.657,2.111
						C1276.857,174.036,1276.833,174.037,1276.809,174.037z"/>
				</g>
				<g>
					<path d="M1264.261,160.974c-0.414,0-0.762-0.323-0.786-0.742c-0.143-2.449,1.796-4.75,4.234-5.025
						c0.436-0.047,0.823,0.263,0.872,0.695c0.049,0.433-0.262,0.823-0.695,0.872c-1.577,0.178-2.929,1.782-2.836,3.366
						c0.025,0.434-0.306,0.807-0.741,0.833C1264.292,160.974,1264.276,160.974,1264.261,160.974z"/>
				</g>
				<g>
					<path d="M1259.69,174.219c-0.954,0-1.908-0.332-2.642-0.947c-0.334-0.279-0.377-0.777-0.098-1.11
						c0.28-0.333,0.776-0.378,1.11-0.098c0.597,0.5,1.471,0.699,2.225,0.505c0.754-0.193,1.423-0.788,1.706-1.515
						c0.158-0.406,0.614-0.605,1.021-0.449c0.405,0.158,0.606,0.615,0.448,1.021c-0.468,1.203-1.535,2.149-2.784,2.47
						C1260.355,174.179,1260.022,174.219,1259.69,174.219z"/>
				</g>
				<g>
					<path d="M1251.167,165.29c-0.329,0-0.636-0.208-0.747-0.538c-0.609-1.814,0.366-3.972,2.13-4.712
						c0.402-0.168,0.864,0.02,1.032,0.422c0.169,0.401-0.02,0.863-0.422,1.032c-1.014,0.426-1.596,1.714-1.245,2.757
						c0.139,0.413-0.083,0.859-0.496,0.998C1251.334,165.276,1251.25,165.29,1251.167,165.29z"/>
				</g>
				<g>
					<path d="M1247.691,173.805c-0.623,0-1.244-0.244-1.688-0.691c-0.625-0.631-0.842-1.616-0.539-2.452
						c0.148-0.409,0.6-0.62,1.01-0.473c0.409,0.148,0.621,0.6,0.473,1.01c-0.096,0.266-0.022,0.604,0.176,0.805
						c0.199,0.202,0.538,0.279,0.804,0.186c0.41-0.146,0.86,0.071,1.005,0.481c0.145,0.41-0.071,0.861-0.481,1.005
						C1248.206,173.763,1247.948,173.805,1247.691,173.805z"/>
				</g>
			</g>
		</g>
	</g>
</g>
<g>
</g>
<g>
</g>
<g>
</g>
<g>
</g>
<g>
</g>
<g>
</g>
</svg>
