<?xml version="1.0" encoding="utf-8"?>
<!-- Generator: Adobe Illustrator 26.3.1, SVG Export Plug-In . SVG Version: 6.00 Build 0)  -->
<svg version="1.1" id="Layer_1" xmlns="http://www.w3.org/2000/svg" xmlns:xlink="http://www.w3.org/1999/xlink" x="0px" y="0px"
	 viewBox="0 0 232.7 633.5" style="enable-background:new 0 0 232.7 633.5;" xml:space="preserve">
<style type="text/css">
	.st0{fill:#A06B44;}
	.st1{fill:#00CC66;}
	.st2{fill:#D90368;}
	.st3{fill:#F2BF2E;}
</style>
<g>
	<polygon class="st0" points="231.9,620.9 231.9,632.7 0.8,632.7 0.8,620.9 56.2,620.9 69,620.9 142.8,620.9 155.7,620.9 	"/>
	<path class="st1" d="M231.9,543.9v77.1h-76.3v-77.1H231.9z M206,584c0-2.7,0.7-5.5,2.1-8c-2.8,0-5.6-0.8-8-2.1
		c-2.4-1.4-4.4-3.4-5.8-5.8c-2.8,4.9-8.1,8-13.8,8c1.4,2.5,2.1,5.2,2.1,8s-0.7,5.5-2.1,8c2.8,0,5.6,0.8,8,2.1
		c2.4,1.4,4.4,3.4,5.8,5.8c1.4-2.5,3.4-4.5,5.8-5.8c2.4-1.4,5.1-2.1,8-2.1C206.8,589.5,206,586.8,206,584z"/>
	<path class="st2" d="M231.9,531.1v12.8h-76.3v77.1h-12.9v-77.1H69v77.1H56.2v-77.1H0.8v-12.8h55.3v-77H0.8v-12.8h55.4v-77H0.8
		v-12.8h55.4v-77H3.8l0.4-3c0-0.1,0-0.1,0-0.2L5,266l0.8-4.4h50.4v-77H29.3l1.4-3.1l1.9-4.1l2.7-5.6h20.9v-36.2l3.1-4.6l4.6-6.5
		l5.2-7v54.2h73.8V94.6H88.1l12.3-12.8h42.4V46.6l12.9-8.6v43.9h76.3v12.8h-76.3v77.1h76.3v12.8h-76.3v77h76.3v12.8h-76.3v77h76.3
		v12.8h-76.3v77h76.3V454h-76.3v77H231.9z M153,88.5c0-1.9-1.5-3.4-3.4-3.4s-3.4,1.5-3.4,3.4c0,1.9,1.5,3.4,3.4,3.4
		S153,90.4,153,88.5z M153,178.2c0-1.9-1.5-3.4-3.4-3.4s-3.4,1.5-3.4,3.4s1.5,3.4,3.4,3.4S153,180.1,153,178.2z M153,267.9
		c0-1.9-1.5-3.4-3.4-3.4s-3.4,1.5-3.4,3.4s1.5,3.4,3.4,3.4S153,269.8,153,267.9z M153,357.6c0-1.9-1.5-3.4-3.4-3.4s-3.4,1.5-3.4,3.4
		c0,1.9,1.5,3.4,3.4,3.4S153,359.5,153,357.6z M153,447.3c0-1.9-1.5-3.4-3.4-3.4s-3.4,1.5-3.4,3.4s1.5,3.4,3.4,3.4
		S153,449.2,153,447.3z M153,536.9c0-1.9-1.5-3.4-3.4-3.4s-3.4,1.5-3.4,3.4c0,1.9,1.5,3.4,3.4,3.4S153,538.8,153,536.9z
		 M143.2,531.1v-77H69.8v77H143.2z M143.2,441.2v-77H69.8v77H143.2z M143.2,351.4v-77H69.8v77H143.2z M143.2,261.5v-77H69.8v77
		H143.2z M66.8,178.2c0-1.9-1.5-3.4-3.4-3.4c-1.9,0-3.4,1.5-3.4,3.4s1.5,3.4,3.4,3.4C65.2,181.6,66.8,180.1,66.8,178.2z M66.8,267.9
		c0-1.9-1.5-3.4-3.4-3.4c-1.9,0-3.4,1.5-3.4,3.4s1.5,3.4,3.4,3.4C65.2,271.3,66.8,269.8,66.8,267.9z M66.8,357.6
		c0-1.9-1.5-3.4-3.4-3.4c-1.9,0-3.4,1.5-3.4,3.4c0,1.9,1.5,3.4,3.4,3.4C65.2,361,66.8,359.5,66.8,357.6z M66.8,447.3
		c0-1.9-1.5-3.4-3.4-3.4c-1.9,0-3.4,1.5-3.4,3.4s1.5,3.4,3.4,3.4C65.2,450.7,66.8,449.2,66.8,447.3z M66.8,536.9
		c0-1.9-1.5-3.4-3.4-3.4c-1.9,0-3.4,1.5-3.4,3.4c0,1.9,1.5,3.4,3.4,3.4C65.2,540.4,66.8,538.8,66.8,536.9z"/>
	<path class="st1" d="M231.9,454v77h-76.3v-77H231.9z M206,494.2c0-2.8,0.7-5.5,2.1-8c-2.8,0-5.6-0.8-8-2.1
		c-2.4-1.4-4.4-3.4-5.8-5.8c-2.8,4.9-8.1,8-13.8,8c1.4,2.5,2.1,5.2,2.1,8c0,2.7-0.7,5.5-2.1,8c2.8,0,5.6,0.8,8,2.1
		c2.4,1.4,4.4,3.4,5.8,5.8c1.4-2.5,3.4-4.5,5.8-5.8c2.4-1.4,5.1-2.1,8-2.1C206.8,499.7,206,496.9,206,494.2z"/>
	<path class="st1" d="M231.9,364.2v77h-76.3v-77H231.9z M206,401.3c0-2.8,0.7-5.5,2.1-8c-2.8,0-5.6-0.8-8-2.1
		c-2.4-1.4-4.4-3.4-5.8-5.8c-2.8,4.9-8.1,8-13.8,8c1.4,2.5,2.1,5.2,2.1,8c0,2.7-0.7,5.5-2.1,8c2.8,0,5.6,0.8,8,2.1
		c2.4,1.4,4.4,3.4,5.8,5.8c1.4-2.5,3.4-4.5,5.8-5.8c2.4-1.4,5.1-2.1,8-2.1C206.8,406.8,206,404,206,401.3z"/>
	<path class="st1" d="M231.9,274.3v77h-76.3v-77H231.9z M206,312.2c0-2.8,0.7-5.5,2.1-8c-2.8,0-5.6-0.8-8-2.1
		c-2.4-1.4-4.4-3.4-5.8-5.8c-2.8,4.9-8.1,8-13.8,8c1.4,2.5,2.1,5.2,2.1,8c0,2.8-0.7,5.5-2.1,8c2.8,0,5.6,0.8,8,2.1
		c2.4,1.4,4.4,3.4,5.8,5.8c1.4-2.5,3.4-4.5,5.8-5.8c2.4-1.4,5.1-2.1,8-2.1C206.8,317.7,206,315,206,312.2z"/>
	<path class="st1" d="M231.9,184.5v77h-76.3v-77H231.9z M206,222.5c0-2.8,0.7-5.5,2.1-8c-2.8,0-5.6-0.8-8-2.1
		c-2.4-1.4-4.4-3.4-5.8-5.8c-2.8,4.9-8.1,8-13.8,8c1.4,2.5,2.1,5.2,2.1,8s-0.7,5.5-2.1,8c2.8,0,5.6,0.8,8,2.1
		c2.4,1.4,4.4,3.4,5.8,5.8c1.4-2.5,3.4-4.5,5.8-5.8c2.4-1.4,5.1-2.1,8-2.1C206.8,228,206,225.2,206,222.5z"/>
	<path class="st1" d="M231.9,94.6v77.1h-76.3V94.6H231.9z M206,132.8c0-2.8,0.7-5.5,2.1-8c-2.8,0-5.6-0.8-8-2.1
		c-2.4-1.4-4.4-3.4-5.8-5.8c-2.8,4.9-8.1,8-13.8,8c1.4,2.5,2.1,5.2,2.1,8s-0.7,5.5-2.1,8c2.8,0,5.6,0.8,8,2.1
		c2.4,1.4,4.4,3.4,5.8,5.8c1.4-2.5,3.4-4.5,5.8-5.8c2.4-1.4,5.1-2.1,8-2.1C206.8,138.3,206,135.5,206,132.8z"/>
	<path class="st1" d="M231.9,1.4v80.4h-76.3V38l-12.9,8.6l-0.1-0.1c21.9-15.4,45.8-28.1,71.2-38L231.9,1.4z M206,45.5
		c0-2.8,0.7-5.5,2.1-8c-2.8,0-5.6-0.8-8-2.1c-2.4-1.4-4.4-3.4-5.8-5.8c-2.8,4.9-8.1,8-13.8,8c1.4,2.5,2.1,5.2,2.1,8s-0.7,5.5-2.1,8
		c2.8,0,5.6,0.8,8,2.1c2.4,1.4,4.4,3.4,5.8,5.8c1.4-2.5,3.4-4.5,5.8-5.8c2.4-1.4,5.1-2.1,8-2.1C206.8,51,206,48.3,206,45.5z"/>
	<path class="st3" d="M208.2,37.6c-1.4,2.5-2.1,5.2-2.1,8s0.7,5.5,2.1,8c-2.8,0-5.6,0.8-8,2.1c-2.4,1.4-4.4,3.4-5.8,5.8
		c-1.4-2.5-3.4-4.5-5.8-5.8c-2.4-1.4-5.1-2.1-8-2.1c1.4-2.5,2.1-5.2,2.1-8s-0.7-5.5-2.1-8c5.7,0,10.9-3,13.8-8
		c1.4,2.5,3.4,4.5,5.8,5.8C202.6,36.8,205.3,37.6,208.2,37.6z M204.1,51.1c-1.1-3.6-1.1-7.5,0-11.2c-3.7-0.8-7.1-2.8-9.7-5.6
		c-2.6,2.8-6,4.7-9.7,5.6c1.1,3.6,1.1,7.5,0,11.2c3.7,0.8,7.1,2.8,9.7,5.6C197,53.9,200.4,52,204.1,51.1z"/>
	<path class="st3" d="M208.2,124.8c-1.4,2.5-2.1,5.2-2.1,8s0.7,5.5,2.1,8c-2.8,0-5.6,0.8-8,2.1c-2.4,1.4-4.4,3.4-5.8,5.8
		c-1.4-2.5-3.4-4.5-5.8-5.8c-2.4-1.4-5.1-2.1-8-2.1c1.4-2.5,2.1-5.2,2.1-8s-0.7-5.5-2.1-8c5.7,0,10.9-3,13.8-8
		c1.4,2.5,3.4,4.5,5.8,5.8C202.6,124,205.3,124.8,208.2,124.8z M204.1,138.3c-1.1-3.6-1.1-7.5,0-11.2c-3.7-0.8-7.1-2.8-9.7-5.6
		c-2.6,2.8-6,4.7-9.7,5.6c1.1,3.6,1.1,7.5,0,11.2c3.7,0.8,7.1,2.8,9.7,5.6C197,141.1,200.4,139.2,204.1,138.3z"/>
	<path class="st3" d="M208.2,214.5c-1.4,2.5-2.1,5.2-2.1,8s0.7,5.5,2.1,8c-2.8,0-5.6,0.8-8,2.1c-2.4,1.4-4.4,3.4-5.8,5.8
		c-1.4-2.5-3.4-4.5-5.8-5.8c-2.4-1.4-5.1-2.1-8-2.1c1.4-2.5,2.1-5.2,2.1-8s-0.7-5.5-2.1-8c5.7,0,10.9-3,13.8-8
		c1.4,2.5,3.4,4.5,5.8,5.8C202.6,213.8,205.3,214.5,208.2,214.5z M204.1,228.1c-1.1-3.6-1.1-7.5,0-11.2c-3.7-0.8-7.1-2.8-9.7-5.6
		c-2.6,2.8-6,4.7-9.7,5.6c1.1,3.6,1.1,7.5,0,11.2c3.7,0.8,7.1,2.8,9.7,5.6C197,230.9,200.4,228.9,204.1,228.1z"/>
	<path class="st3" d="M208.2,304.3c-1.4,2.5-2.1,5.2-2.1,8c0,2.8,0.7,5.5,2.1,8c-2.8,0-5.6,0.8-8,2.1c-2.4,1.4-4.4,3.4-5.8,5.8
		c-1.4-2.5-3.4-4.5-5.8-5.8c-2.4-1.4-5.1-2.1-8-2.1c1.4-2.5,2.1-5.2,2.1-8c0-2.8-0.7-5.5-2.1-8c5.7,0,10.9-3,13.8-8
		c1.4,2.5,3.4,4.5,5.8,5.8C202.6,303.5,205.3,304.3,208.2,304.3z M204.1,317.8c-1.1-3.6-1.1-7.5,0-11.2c-3.7-0.8-7.1-2.8-9.7-5.6
		c-2.6,2.8-6,4.7-9.7,5.6c1.1,3.6,1.1,7.5,0,11.2c3.7,0.8,7.1,2.8,9.7,5.6C197,320.6,200.4,318.6,204.1,317.8z"/>
	<path class="st3" d="M208.2,393.3c-1.4,2.5-2.1,5.2-2.1,8c0,2.7,0.7,5.5,2.1,8c-2.8,0-5.6,0.8-8,2.1c-2.4,1.4-4.4,3.4-5.8,5.8
		c-1.4-2.5-3.4-4.5-5.8-5.8c-2.4-1.4-5.1-2.1-8-2.1c1.4-2.5,2.1-5.2,2.1-8c0-2.8-0.7-5.5-2.1-8c5.7,0,10.9-3,13.8-8
		c1.4,2.5,3.4,4.5,5.8,5.8C202.6,392.6,205.3,393.3,208.2,393.3z M204.1,406.9c-1.1-3.6-1.1-7.5,0-11.2c-3.7-0.8-7.1-2.8-9.7-5.6
		c-2.6,2.8-6,4.7-9.7,5.6c1.1,3.6,1.1,7.5,0,11.2c3.7,0.8,7.1,2.8,9.7,5.6C197,409.7,200.4,407.7,204.1,406.9z"/>
	<path class="st3" d="M208.2,486.2c-1.4,2.5-2.1,5.2-2.1,8c0,2.7,0.7,5.5,2.1,8c-2.8,0-5.6,0.8-8,2.1c-2.4,1.4-4.4,3.4-5.8,5.8
		c-1.4-2.5-3.4-4.5-5.8-5.8c-2.4-1.4-5.1-2.1-8-2.1c1.4-2.5,2.1-5.2,2.1-8c0-2.8-0.7-5.5-2.1-8c5.7,0,10.9-3,13.8-8
		c1.4,2.5,3.4,4.5,5.8,5.8C202.6,485.5,205.3,486.2,208.2,486.2z M204.1,499.8c-1.1-3.6-1.1-7.5,0-11.2c-3.7-0.8-7.1-2.8-9.7-5.6
		c-2.6,2.8-6,4.7-9.7,5.6c1.1,3.6,1.1,7.5,0,11.2c3.7,0.8,7.1,2.8,9.7,5.6C197,502.5,200.4,500.6,204.1,499.8z"/>
	<path class="st3" d="M208.2,576.1c-1.4,2.5-2.1,5.2-2.1,8s0.7,5.5,2.1,8c-2.8,0-5.6,0.8-8,2.1c-2.4,1.4-4.4,3.4-5.8,5.8
		c-1.4-2.5-3.4-4.5-5.8-5.8c-2.4-1.4-5.1-2.1-8-2.1c1.4-2.5,2.1-5.2,2.1-8s-0.7-5.5-2.1-8c5.7,0,10.9-3,13.8-8
		c1.4,2.5,3.4,4.5,5.8,5.8C202.6,575.3,205.3,576.1,208.2,576.1z M204.1,589.6c-1.1-3.6-1.1-7.5,0-11.2c-3.7-0.8-7.1-2.8-9.7-5.6
		c-2.6,2.8-6,4.7-9.7,5.6c1.1,3.6,1.1,7.5,0,11.2c3.7,0.8,7.1,2.8,9.7,5.6C197,592.4,200.4,590.5,204.1,589.6z"/>
	<path class="st3" d="M204.1,40c-1.1,3.6-1.1,7.5,0,11.2c-3.7,0.8-7.1,2.8-9.7,5.6c-2.6-2.8-6-4.7-9.7-5.6c1.1-3.6,1.1-7.5,0-11.2
		c3.7-0.8,7.1-2.8,9.7-5.6C197,37.2,200.4,39.1,204.1,40z M199,45.5c0-2.6-2.1-4.6-4.6-4.6s-4.6,2.1-4.6,4.6s2.1,4.6,4.6,4.6
		S199,48.1,199,45.5z"/>
	<path class="st3" d="M204.1,127.2c-1.1,3.6-1.1,7.5,0,11.2c-3.7,0.8-7.1,2.8-9.7,5.6c-2.6-2.8-6-4.7-9.7-5.6
		c1.1-3.6,1.1-7.5,0-11.2c3.7-0.8,7.1-2.8,9.7-5.6C197,124.4,200.4,126.3,204.1,127.2z M199,132.8c0-2.6-2.1-4.6-4.6-4.6
		s-4.6,2.1-4.6,4.6s2.1,4.6,4.6,4.6S199,135.3,199,132.8z"/>
	<path class="st3" d="M204.1,216.9c-1.1,3.6-1.1,7.5,0,11.2c-3.7,0.8-7.1,2.8-9.7,5.6c-2.6-2.8-6-4.7-9.7-5.6
		c1.1-3.6,1.1-7.5,0-11.2c3.7-0.8,7.1-2.8,9.7-5.6C197,214.1,200.4,216.1,204.1,216.9z M199,222.5c0-2.6-2.1-4.6-4.6-4.6
		s-4.6,2.1-4.6,4.6s2.1,4.6,4.6,4.6S199,225.1,199,222.5z"/>
	<path class="st3" d="M204.1,306.6c-1.1,3.6-1.1,7.5,0,11.2c-3.7,0.8-7.1,2.8-9.7,5.6c-2.6-2.8-6-4.7-9.7-5.6
		c1.1-3.6,1.1-7.5,0-11.2c3.7-0.8,7.1-2.8,9.7-5.6C197,303.8,200.4,305.8,204.1,306.6z M199,312.2c0-2.6-2.1-4.6-4.6-4.6
		s-4.6,2.1-4.6,4.6s2.1,4.6,4.6,4.6S199,314.8,199,312.2z"/>
	<path class="st3" d="M204.1,395.7c-1.1,3.6-1.1,7.5,0,11.2c-3.7,0.8-7.1,2.8-9.7,5.6c-2.6-2.8-6-4.7-9.7-5.6
		c1.1-3.6,1.1-7.5,0-11.2c3.7-0.8,7.1-2.8,9.7-5.6C197,392.9,200.4,394.9,204.1,395.7z M199,401.3c0-2.6-2.1-4.6-4.6-4.6
		s-4.6,2.1-4.6,4.6s2.1,4.6,4.6,4.6S199,403.8,199,401.3z"/>
	<path class="st3" d="M204.1,488.6c-1.1,3.6-1.1,7.5,0,11.2c-3.7,0.8-7.1,2.8-9.7,5.6c-2.6-2.8-6-4.7-9.7-5.6
		c1.1-3.6,1.1-7.5,0-11.2c3.7-0.8,7.1-2.8,9.7-5.6C197,485.8,200.4,487.7,204.1,488.6z M199,494.2c0-2.6-2.1-4.6-4.6-4.6
		s-4.6,2.1-4.6,4.6c0,2.6,2.1,4.6,4.6,4.6S199,496.7,199,494.2z"/>
	<path class="st3" d="M204.1,578.5c-1.1,3.6-1.1,7.5,0,11.2c-3.7,0.8-7.1,2.8-9.7,5.6c-2.6-2.8-6-4.7-9.7-5.6
		c1.1-3.6,1.1-7.5,0-11.2c3.7-0.8,7.1-2.8,9.7-5.6C197,575.7,200.4,577.6,204.1,578.5z M199,584c0-2.6-2.1-4.6-4.6-4.6
		s-4.6,2.1-4.6,4.6s2.1,4.6,4.6,4.6S199,586.6,199,584z"/>
	<path class="st3" d="M194.4,40.9c2.6,0,4.6,2.1,4.6,4.6s-2.1,4.6-4.6,4.6s-4.6-2.1-4.6-4.6S191.8,40.9,194.4,40.9z M196.9,45.5
		c0-1.4-1.1-2.5-2.5-2.5c-1.4,0-2.5,1.1-2.5,2.5s1.1,2.5,2.5,2.5C195.8,48.1,196.9,46.9,196.9,45.5z"/>
	<path class="st3" d="M194.4,128.1c2.6,0,4.6,2.1,4.6,4.6s-2.1,4.6-4.6,4.6s-4.6-2.1-4.6-4.6S191.8,128.1,194.4,128.1z M196.9,132.8
		c0-1.4-1.1-2.5-2.5-2.5c-1.4,0-2.5,1.1-2.5,2.5s1.1,2.5,2.5,2.5C195.8,135.3,196.9,134.1,196.9,132.8z"/>
	<path class="st3" d="M194.4,217.8c2.6,0,4.6,2.1,4.6,4.6s-2.1,4.6-4.6,4.6s-4.6-2.1-4.6-4.6S191.8,217.8,194.4,217.8z M196.9,222.5
		c0-1.4-1.1-2.5-2.5-2.5c-1.4,0-2.5,1.1-2.5,2.5c0,1.4,1.1,2.5,2.5,2.5C195.8,225,196.9,223.9,196.9,222.5z"/>
	<path class="st3" d="M194.4,307.6c2.6,0,4.6,2.1,4.6,4.6s-2.1,4.6-4.6,4.6s-4.6-2.1-4.6-4.6S191.8,307.6,194.4,307.6z M196.9,312.2
		c0-1.4-1.1-2.5-2.5-2.5c-1.4,0-2.5,1.1-2.5,2.5c0,1.4,1.1,2.5,2.5,2.5C195.8,314.7,196.9,313.6,196.9,312.2z"/>
	<path class="st3" d="M194.4,396.6c2.6,0,4.6,2.1,4.6,4.6s-2.1,4.6-4.6,4.6s-4.6-2.1-4.6-4.6S191.8,396.6,194.4,396.6z M196.9,401.3
		c0-1.4-1.1-2.5-2.5-2.5c-1.4,0-2.5,1.1-2.5,2.5c0,1.4,1.1,2.5,2.5,2.5C195.8,403.8,196.9,402.7,196.9,401.3z"/>
	<path class="st3" d="M194.4,489.5c2.6,0,4.6,2.1,4.6,4.6c0,2.6-2.1,4.6-4.6,4.6s-4.6-2.1-4.6-4.6
		C189.7,491.6,191.8,489.5,194.4,489.5z M196.9,494.2c0-1.4-1.1-2.5-2.5-2.5c-1.4,0-2.5,1.1-2.5,2.5c0,1.4,1.1,2.5,2.5,2.5
		C195.8,496.7,196.9,495.6,196.9,494.2z"/>
	<path class="st3" d="M194.4,579.4c2.6,0,4.6,2.1,4.6,4.6s-2.1,4.6-4.6,4.6s-4.6-2.1-4.6-4.6S191.8,579.4,194.4,579.4z M196.9,584
		c0-1.4-1.1-2.5-2.5-2.5c-1.4,0-2.5,1.1-2.5,2.5s1.1,2.5,2.5,2.5C195.8,586.6,196.9,585.4,196.9,584z"/>
	<path class="st3" d="M194.4,43c1.4,0,2.5,1.1,2.5,2.5s-1.1,2.5-2.5,2.5c-1.4,0-2.5-1.1-2.5-2.5S193,43,194.4,43z"/>
	<path class="st3" d="M194.4,130.2c1.4,0,2.5,1.1,2.5,2.5s-1.1,2.5-2.5,2.5c-1.4,0-2.5-1.1-2.5-2.5S193,130.2,194.4,130.2z"/>
	<path class="st3" d="M194.4,220c1.4,0,2.5,1.1,2.5,2.5c0,1.4-1.1,2.5-2.5,2.5c-1.4,0-2.5-1.1-2.5-2.5
		C191.9,221.1,193,220,194.4,220z"/>
	<path class="st3" d="M194.4,309.7c1.4,0,2.5,1.1,2.5,2.5c0,1.4-1.1,2.5-2.5,2.5c-1.4,0-2.5-1.1-2.5-2.5
		C191.9,310.8,193,309.7,194.4,309.7z"/>
	<path class="st3" d="M194.4,398.8c1.4,0,2.5,1.1,2.5,2.5c0,1.4-1.1,2.5-2.5,2.5c-1.4,0-2.5-1.1-2.5-2.5
		C191.9,399.9,193,398.8,194.4,398.8z"/>
	<path class="st3" d="M194.4,491.6c1.4,0,2.5,1.1,2.5,2.5c0,1.4-1.1,2.5-2.5,2.5c-1.4,0-2.5-1.1-2.5-2.5
		C191.9,492.8,193,491.6,194.4,491.6z"/>
	<path class="st3" d="M194.4,581.5c1.4,0,2.5,1.1,2.5,2.5s-1.1,2.5-2.5,2.5c-1.4,0-2.5-1.1-2.5-2.5S193,581.5,194.4,581.5z"/>
	<path class="st3" d="M149.5,85.1c1.9,0,3.4,1.5,3.4,3.4c0,1.9-1.5,3.4-3.4,3.4s-3.4-1.5-3.4-3.4C146.1,86.6,147.6,85.1,149.5,85.1z
		"/>
	<circle class="st3" cx="149.5" cy="178.2" r="3.4"/>
	<path class="st3" d="M149.5,264.4c1.9,0,3.4,1.5,3.4,3.4s-1.5,3.4-3.4,3.4s-3.4-1.5-3.4-3.4S147.6,264.4,149.5,264.4z"/>
	<path class="st3" d="M149.5,354.1c1.9,0,3.4,1.5,3.4,3.4c0,1.9-1.5,3.4-3.4,3.4s-3.4-1.5-3.4-3.4
		C146.1,355.7,147.6,354.1,149.5,354.1z"/>
	<circle class="st3" cx="149.5" cy="447.3" r="3.4"/>
	<path class="st3" d="M149.5,533.5c1.9,0,3.4,1.5,3.4,3.4c0,1.9-1.5,3.4-3.4,3.4s-3.4-1.5-3.4-3.4
		C146.1,535.1,147.6,533.5,149.5,533.5z"/>
	<path class="st1" d="M143.2,454v77H69.8v-77H143.2z M118.2,494.2c0-2.8,0.7-5.5,2.1-8c-2.8,0-5.6-0.8-8-2.1
		c-2.4-1.4-4.4-3.4-5.8-5.8c-2.8,4.9-8.1,8-13.8,8c1.4,2.5,2.1,5.2,2.1,8c0,2.7-0.7,5.5-2.1,8c2.8,0,5.6,0.8,8,2.1
		c2.4,1.4,4.4,3.4,5.8,5.8c1.4-2.5,3.4-4.5,5.8-5.8c2.4-1.4,5.1-2.1,8-2.1C118.9,499.7,118.2,496.9,118.2,494.2z"/>
	<path class="st1" d="M143.2,364.2v77H69.8v-77H143.2z M118.2,401.3c0-2.8,0.7-5.5,2.1-8c-2.8,0-5.6-0.8-8-2.1
		c-2.4-1.4-4.4-3.4-5.8-5.8c-2.8,4.9-8.1,8-13.8,8c1.4,2.5,2.1,5.2,2.1,8c0,2.7-0.7,5.5-2.1,8c2.8,0,5.6,0.8,8,2.1
		c2.4,1.4,4.4,3.4,5.8,5.8c1.4-2.5,3.4-4.5,5.8-5.8c2.4-1.4,5.1-2.1,8-2.1C118.9,406.8,118.2,404,118.2,401.3z"/>
	<path class="st1" d="M143.2,274.3v77H69.8v-77H143.2z M118.2,312.2c0-2.8,0.7-5.5,2.1-8c-2.8,0-5.6-0.8-8-2.1
		c-2.4-1.4-4.4-3.4-5.8-5.8c-2.8,4.9-8.1,8-13.8,8c1.4,2.5,2.1,5.2,2.1,8c0,2.8-0.7,5.5-2.1,8c2.8,0,5.6,0.8,8,2.1
		c2.4,1.4,4.4,3.4,5.8,5.8c1.4-2.5,3.4-4.5,5.8-5.8c2.4-1.4,5.1-2.1,8-2.1C118.9,317.7,118.2,315,118.2,312.2z"/>
	<path class="st1" d="M143.2,184.5v77H69.8v-77H143.2z M118.2,222.5c0-2.8,0.7-5.5,2.1-8c-2.8,0-5.6-0.8-8-2.1
		c-2.4-1.4-4.4-3.4-5.8-5.8c-2.8,4.9-8.1,8-13.8,8c1.4,2.5,2.1,5.2,2.1,8s-0.7,5.5-2.1,8c2.8,0,5.6,0.8,8,2.1
		c2.4,1.4,4.4,3.4,5.8,5.8c1.4-2.5,3.4-4.5,5.8-5.8c2.4-1.4,5.1-2.1,8-2.1C118.9,228,118.2,225.2,118.2,222.5z"/>
	<path class="st1" d="M142.8,543.9v77.1H69v-77.1H142.8z M118.2,584c0-2.7,0.7-5.5,2.1-8c-2.8,0-5.6-0.8-8-2.1
		c-2.4-1.4-4.4-3.4-5.8-5.8c-2.8,4.9-8.1,8-13.8,8c1.4,2.5,2.1,5.2,2.1,8s-0.7,5.5-2.1,8c2.8,0,5.6,0.8,8,2.1
		c2.4,1.4,4.4,3.4,5.8,5.8c1.4-2.5,3.4-4.5,5.8-5.8c2.4-1.4,5.1-2.1,8-2.1C118.9,589.5,118.2,586.8,118.2,584z"/>
	<path class="st1" d="M142.8,94.6v77.1H69v-54.2l-5.2,7l-4.6,6.5l-3.1,4.6l-0.1,0c1-1.5,2-3,3.1-4.6c8.8-12.8,18.4-25,28.8-36.4
		l0.1,0.1H142.8z M118.2,132.8c0-2.8,0.7-5.5,2.1-8c-2.8,0-5.6-0.8-8-2.1c-2.4-1.4-4.4-3.4-5.8-5.8c-2.8,4.9-8.1,8-13.8,8
		c1.4,2.5,2.1,5.2,2.1,8s-0.7,5.5-2.1,8c2.8,0,5.6,0.8,8,2.1c2.4,1.4,4.4,3.4,5.8,5.8c1.4-2.5,3.4-4.5,5.8-5.8
		c2.4-1.4,5.1-2.1,8-2.1C118.9,138.3,118.2,135.5,118.2,132.8z"/>
	<path class="st1" d="M142.8,46.6v35.3h-42.4L88.1,94.6L88,94.6c16.5-18,34.8-34.2,54.7-48.1L142.8,46.6z"/>
	<path class="st3" d="M120.3,124.8c-1.4,2.5-2.1,5.2-2.1,8s0.7,5.5,2.1,8c-2.8,0-5.6,0.8-8,2.1c-2.4,1.4-4.4,3.4-5.8,5.8
		c-1.4-2.5-3.4-4.5-5.8-5.8c-2.4-1.4-5.1-2.1-8-2.1c1.4-2.5,2.1-5.2,2.1-8s-0.7-5.5-2.1-8c5.7,0,10.9-3,13.8-8
		c1.4,2.5,3.4,4.5,5.8,5.8C114.7,124,117.5,124.8,120.3,124.8z M116.2,138.3c-1.1-3.6-1.1-7.5,0-11.2c-3.7-0.8-7.1-2.8-9.7-5.6
		c-2.6,2.8-6,4.7-9.7,5.6c1.1,3.6,1.1,7.5,0,11.2c3.7,0.8,7.1,2.8,9.7,5.6C109.1,141.1,112.5,139.2,116.2,138.3z"/>
	<path class="st3" d="M120.3,214.5c-1.4,2.5-2.1,5.2-2.1,8s0.7,5.5,2.1,8c-2.8,0-5.6,0.8-8,2.1c-2.4,1.4-4.4,3.4-5.8,5.8
		c-1.4-2.5-3.4-4.5-5.8-5.8c-2.4-1.4-5.1-2.1-8-2.1c1.4-2.5,2.1-5.2,2.1-8s-0.7-5.5-2.1-8c5.7,0,10.9-3,13.8-8
		c1.4,2.5,3.4,4.5,5.8,5.8C114.7,213.8,117.5,214.5,120.3,214.5z M116.2,228.1c-1.1-3.6-1.1-7.5,0-11.2c-3.7-0.8-7.1-2.8-9.7-5.6
		c-2.6,2.8-6,4.7-9.7,5.6c1.1,3.6,1.1,7.5,0,11.2c3.7,0.8,7.1,2.8,9.7,5.6C109.1,230.9,112.5,228.9,116.2,228.1z"/>
	<path class="st3" d="M120.3,304.3c-1.4,2.5-2.1,5.2-2.1,8c0,2.8,0.7,5.5,2.1,8c-2.8,0-5.6,0.8-8,2.1c-2.4,1.4-4.4,3.4-5.8,5.8
		c-1.4-2.5-3.4-4.5-5.8-5.8c-2.4-1.4-5.1-2.1-8-2.1c1.4-2.5,2.1-5.2,2.1-8c0-2.8-0.7-5.5-2.1-8c5.7,0,10.9-3,13.8-8
		c1.4,2.5,3.4,4.5,5.8,5.8C114.7,303.5,117.5,304.3,120.3,304.3z M116.2,317.8c-1.1-3.6-1.1-7.5,0-11.2c-3.7-0.8-7.1-2.8-9.7-5.6
		c-2.6,2.8-6,4.7-9.7,5.6c1.1,3.6,1.1,7.5,0,11.2c3.7,0.8,7.1,2.8,9.7,5.6C109.1,320.6,112.5,318.6,116.2,317.8z"/>
	<path class="st3" d="M120.3,393.3c-1.4,2.5-2.1,5.2-2.1,8c0,2.7,0.7,5.5,2.1,8c-2.8,0-5.6,0.8-8,2.1c-2.4,1.4-4.4,3.4-5.8,5.8
		c-1.4-2.5-3.4-4.5-5.8-5.8c-2.4-1.4-5.1-2.1-8-2.1c1.4-2.5,2.1-5.2,2.1-8c0-2.8-0.7-5.5-2.1-8c5.7,0,10.9-3,13.8-8
		c1.4,2.5,3.4,4.5,5.8,5.8C114.7,392.6,117.5,393.3,120.3,393.3z M116.2,406.9c-1.1-3.6-1.1-7.5,0-11.2c-3.7-0.8-7.1-2.8-9.7-5.6
		c-2.6,2.8-6,4.7-9.7,5.6c1.1,3.6,1.1,7.5,0,11.2c3.7,0.8,7.1,2.8,9.7,5.6C109.1,409.7,112.5,407.7,116.2,406.9z"/>
	<path class="st3" d="M120.3,486.2c-1.4,2.5-2.1,5.2-2.1,8c0,2.7,0.7,5.5,2.1,8c-2.8,0-5.6,0.8-8,2.1c-2.4,1.4-4.4,3.4-5.8,5.8
		c-1.4-2.5-3.4-4.5-5.8-5.8c-2.4-1.4-5.1-2.1-8-2.1c1.4-2.5,2.1-5.2,2.1-8c0-2.8-0.7-5.5-2.1-8c5.7,0,10.9-3,13.8-8
		c1.4,2.5,3.4,4.5,5.8,5.8C114.7,485.5,117.5,486.2,120.3,486.2z M116.2,499.8c-1.1-3.6-1.1-7.5,0-11.2c-3.7-0.8-7.1-2.8-9.7-5.6
		c-2.6,2.8-6,4.7-9.7,5.6c1.1,3.6,1.1,7.5,0,11.2c3.7,0.8,7.1,2.8,9.7,5.6C109.1,502.5,112.5,500.6,116.2,499.8z"/>
	<path class="st3" d="M120.3,576.1c-1.4,2.5-2.1,5.2-2.1,8s0.7,5.5,2.1,8c-2.8,0-5.6,0.8-8,2.1c-2.4,1.4-4.4,3.4-5.8,5.8
		c-1.4-2.5-3.4-4.5-5.8-5.8c-2.4-1.4-5.1-2.1-8-2.1c1.4-2.5,2.1-5.2,2.1-8s-0.7-5.5-2.1-8c5.7,0,10.9-3,13.8-8
		c1.4,2.5,3.4,4.5,5.8,5.8C114.7,575.3,117.5,576.1,120.3,576.1z M116.2,589.6c-1.1-3.6-1.1-7.5,0-11.2c-3.7-0.8-7.1-2.8-9.7-5.6
		c-2.6,2.8-6,4.7-9.7,5.6c1.1,3.6,1.1,7.5,0,11.2c3.7,0.8,7.1,2.8,9.7,5.6C109.1,592.4,112.5,590.5,116.2,589.6z"/>
	<path class="st3" d="M116.2,127.2c-1.1,3.6-1.1,7.5,0,11.2c-3.7,0.8-7.1,2.8-9.7,5.6c-2.6-2.8-6-4.7-9.7-5.6
		c1.1-3.6,1.1-7.5,0-11.2c3.7-0.8,7.1-2.8,9.7-5.6C109.1,124.4,112.5,126.3,116.2,127.2z M111.2,132.8c0-2.6-2.1-4.6-4.6-4.6
		s-4.6,2.1-4.6,4.6s2.1,4.6,4.6,4.6S111.2,135.3,111.2,132.8z"/>
	<path class="st3" d="M116.2,216.9c-1.1,3.6-1.1,7.5,0,11.2c-3.7,0.8-7.1,2.8-9.7,5.6c-2.6-2.8-6-4.7-9.7-5.6
		c1.1-3.6,1.1-7.5,0-11.2c3.7-0.8,7.1-2.8,9.7-5.6C109.1,214.1,112.5,216.1,116.2,216.9z M111.2,222.5c0-2.6-2.1-4.6-4.6-4.6
		s-4.6,2.1-4.6,4.6s2.1,4.6,4.6,4.6S111.2,225.1,111.2,222.5z"/>
	<path class="st3" d="M116.2,306.6c-1.1,3.6-1.1,7.5,0,11.2c-3.7,0.8-7.1,2.8-9.7,5.6c-2.6-2.8-6-4.7-9.7-5.6
		c1.1-3.6,1.1-7.5,0-11.2c3.7-0.8,7.1-2.8,9.7-5.6C109.1,303.8,112.5,305.8,116.2,306.6z M111.2,312.2c0-2.6-2.1-4.6-4.6-4.6
		s-4.6,2.1-4.6,4.6s2.1,4.6,4.6,4.6S111.2,314.8,111.2,312.2z"/>
	<path class="st3" d="M116.2,395.7c-1.1,3.6-1.1,7.5,0,11.2c-3.7,0.8-7.1,2.8-9.7,5.6c-2.6-2.8-6-4.7-9.7-5.6
		c1.1-3.6,1.1-7.5,0-11.2c3.7-0.8,7.1-2.8,9.7-5.6C109.1,392.9,112.5,394.9,116.2,395.7z M111.2,401.3c0-2.6-2.1-4.6-4.6-4.6
		s-4.6,2.1-4.6,4.6s2.1,4.6,4.6,4.6S111.2,403.8,111.2,401.3z"/>
	<path class="st3" d="M116.2,488.6c-1.1,3.6-1.1,7.5,0,11.2c-3.7,0.8-7.1,2.8-9.7,5.6c-2.6-2.8-6-4.7-9.7-5.6
		c1.1-3.6,1.1-7.5,0-11.2c3.7-0.8,7.1-2.8,9.7-5.6C109.1,485.8,112.5,487.7,116.2,488.6z M111.2,494.2c0-2.6-2.1-4.6-4.6-4.6
		s-4.6,2.1-4.6,4.6c0,2.6,2.1,4.6,4.6,4.6S111.2,496.7,111.2,494.2z"/>
	<path class="st3" d="M116.2,578.5c-1.1,3.6-1.1,7.5,0,11.2c-3.7,0.8-7.1,2.8-9.7,5.6c-2.6-2.8-6-4.7-9.7-5.6
		c1.1-3.6,1.1-7.5,0-11.2c3.7-0.8,7.1-2.8,9.7-5.6C109.1,575.7,112.5,577.6,116.2,578.5z M111.2,584c0-2.6-2.1-4.6-4.6-4.6
		s-4.6,2.1-4.6,4.6s2.1,4.6,4.6,4.6S111.2,586.6,111.2,584z"/>
	<path class="st3" d="M106.5,128.1c2.6,0,4.6,2.1,4.6,4.6s-2.1,4.6-4.6,4.6s-4.6-2.1-4.6-4.6S104,128.1,106.5,128.1z M109,132.8
		c0-1.4-1.1-2.5-2.5-2.5c-1.4,0-2.5,1.1-2.5,2.5s1.1,2.5,2.5,2.5C107.9,135.3,109,134.1,109,132.8z"/>
	<path class="st3" d="M106.5,217.8c2.6,0,4.6,2.1,4.6,4.6s-2.1,4.6-4.6,4.6s-4.6-2.1-4.6-4.6S104,217.8,106.5,217.8z M109,222.5
		c0-1.4-1.1-2.5-2.5-2.5c-1.4,0-2.5,1.1-2.5,2.5c0,1.4,1.1,2.5,2.5,2.5C107.9,225,109,223.9,109,222.5z"/>
	<path class="st3" d="M106.5,307.6c2.6,0,4.6,2.1,4.6,4.6s-2.1,4.6-4.6,4.6s-4.6-2.1-4.6-4.6S104,307.6,106.5,307.6z M109,312.2
		c0-1.4-1.1-2.5-2.5-2.5c-1.4,0-2.5,1.1-2.5,2.5c0,1.4,1.1,2.5,2.5,2.5C107.9,314.7,109,313.6,109,312.2z"/>
	<path class="st3" d="M106.5,396.6c2.6,0,4.6,2.1,4.6,4.6s-2.1,4.6-4.6,4.6s-4.6-2.1-4.6-4.6S104,396.6,106.5,396.6z M109,401.3
		c0-1.4-1.1-2.5-2.5-2.5c-1.4,0-2.5,1.1-2.5,2.5c0,1.4,1.1,2.5,2.5,2.5C107.9,403.8,109,402.7,109,401.3z"/>
	<path class="st3" d="M106.5,489.5c2.6,0,4.6,2.1,4.6,4.6c0,2.6-2.1,4.6-4.6,4.6s-4.6-2.1-4.6-4.6
		C101.9,491.6,104,489.5,106.5,489.5z M109,494.2c0-1.4-1.1-2.5-2.5-2.5c-1.4,0-2.5,1.1-2.5,2.5c0,1.4,1.1,2.5,2.5,2.5
		C107.9,496.7,109,495.6,109,494.2z"/>
	<path class="st3" d="M106.5,579.4c2.6,0,4.6,2.1,4.6,4.6s-2.1,4.6-4.6,4.6s-4.6-2.1-4.6-4.6S104,579.4,106.5,579.4z M109,584
		c0-1.4-1.1-2.5-2.5-2.5c-1.4,0-2.5,1.1-2.5,2.5s1.1,2.5,2.5,2.5C107.9,586.6,109,585.4,109,584z"/>
	<path class="st3" d="M106.5,130.2c1.4,0,2.5,1.1,2.5,2.5s-1.1,2.5-2.5,2.5c-1.4,0-2.5-1.1-2.5-2.5S105.1,130.2,106.5,130.2z"/>
	<path class="st3" d="M106.5,220c1.4,0,2.5,1.1,2.5,2.5c0,1.4-1.1,2.5-2.5,2.5c-1.4,0-2.5-1.1-2.5-2.5
		C104,221.1,105.1,220,106.5,220z"/>
	<path class="st3" d="M106.5,309.7c1.4,0,2.5,1.1,2.5,2.5c0,1.4-1.1,2.5-2.5,2.5c-1.4,0-2.5-1.1-2.5-2.5
		C104,310.8,105.1,309.7,106.5,309.7z"/>
	<path class="st3" d="M106.5,398.8c1.4,0,2.5,1.1,2.5,2.5c0,1.4-1.1,2.5-2.5,2.5c-1.4,0-2.5-1.1-2.5-2.5
		C104,399.9,105.1,398.8,106.5,398.8z"/>
	<path class="st3" d="M106.5,491.6c1.4,0,2.5,1.1,2.5,2.5c0,1.4-1.1,2.5-2.5,2.5c-1.4,0-2.5-1.1-2.5-2.5
		C104,492.8,105.1,491.6,106.5,491.6z"/>
	<path class="st3" d="M106.5,581.5c1.4,0,2.5,1.1,2.5,2.5s-1.1,2.5-2.5,2.5c-1.4,0-2.5-1.1-2.5-2.5S105.1,581.5,106.5,581.5z"/>
	<path class="st3" d="M63.3,174.7c1.9,0,3.4,1.5,3.4,3.4s-1.5,3.4-3.4,3.4c-1.9,0-3.4-1.5-3.4-3.4S61.4,174.7,63.3,174.7z"/>
	<path class="st3" d="M63.3,264.4c1.9,0,3.4,1.5,3.4,3.4s-1.5,3.4-3.4,3.4c-1.9,0-3.4-1.5-3.4-3.4S61.4,264.4,63.3,264.4z"/>
	<path class="st3" d="M63.3,354.1c1.9,0,3.4,1.5,3.4,3.4c0,1.9-1.5,3.4-3.4,3.4c-1.9,0-3.4-1.5-3.4-3.4
		C59.9,355.7,61.4,354.1,63.3,354.1z"/>
	<path class="st3" d="M63.3,443.8c1.9,0,3.4,1.5,3.4,3.4s-1.5,3.4-3.4,3.4c-1.9,0-3.4-1.5-3.4-3.4S61.4,443.8,63.3,443.8z"/>
	<path class="st3" d="M63.3,533.5c1.9,0,3.4,1.5,3.4,3.4c0,1.9-1.5,3.4-3.4,3.4c-1.9,0-3.4-1.5-3.4-3.4
		C59.9,535.1,61.4,533.5,63.3,533.5z"/>
	<path class="st1" d="M56.2,543.9v77.1H0.8l0-77.1H56.2z M31.9,584c0-2.7,0.7-5.5,2.1-8c-2.8,0-5.6-0.8-8-2.1
		c-2.4-1.4-4.4-3.4-5.8-5.8c-2.8,4.9-8.1,8-13.8,8c1.4,2.5,2.1,5.2,2.1,8s-0.7,5.5-2.1,8c2.8,0,5.6,0.8,8,2.1
		c2.4,1.4,4.4,3.4,5.8,5.8c1.4-2.5,3.4-4.5,5.8-5.8c2.4-1.4,5.1-2.1,8-2.1C32.6,589.5,31.9,586.8,31.9,584z"/>
	<path class="st1" d="M56.2,454v77H0.8l0-77H56.2z M31.9,494.2c0-2.8,0.7-5.5,2.1-8c-2.8,0-5.6-0.8-8-2.1c-2.4-1.4-4.4-3.4-5.8-5.8
		c-2.8,4.9-8.1,8-13.8,8c1.4,2.5,2.1,5.2,2.1,8c0,2.7-0.7,5.5-2.1,8c2.8,0,5.6,0.8,8,2.1c2.4,1.4,4.4,3.4,5.8,5.8
		c1.4-2.5,3.4-4.5,5.8-5.8c2.4-1.4,5.1-2.1,8-2.1C32.6,499.7,31.9,496.9,31.9,494.2z"/>
	<path class="st1" d="M56.2,364.2v77H0.8l0-77H56.2z M31.9,401.3c0-2.8,0.7-5.5,2.1-8c-2.8,0-5.6-0.8-8-2.1
		c-2.4-1.4-4.4-3.4-5.8-5.8c-2.8,4.9-8.1,8-13.8,8c1.4,2.5,2.1,5.2,2.1,8c0,2.7-0.7,5.5-2.1,8c2.8,0,5.6,0.8,8,2.1
		c2.4,1.4,4.4,3.4,5.8,5.8c1.4-2.5,3.4-4.5,5.8-5.8c2.4-1.4,5.1-2.1,8-2.1C32.6,406.8,31.9,404,31.9,401.3z"/>
	<path class="st1" d="M56.2,274.3v77H0.8l0-32.3C0.8,303,2,287,4.2,271.3l-0.4,3H56.2z M31.9,312.2c0-2.8,0.7-5.5,2.1-8
		c-2.8,0-5.6-0.8-8-2.1c-2.4-1.4-4.4-3.4-5.8-5.8c-2.8,4.9-8.1,8-13.8,8c1.4,2.5,2.1,5.2,2.1,8c0,2.8-0.7,5.5-2.1,8
		c2.8,0,5.6,0.8,8,2.1s4.4,3.4,5.8,5.8c1.4-2.5,3.4-4.5,5.8-5.8c2.4-1.4,5.1-2.1,8-2.1C32.6,317.7,31.9,315,31.9,312.2z"/>
	<path class="st1" d="M56.2,184.5v77H5.8L5,266l-0.8,5.1c1.9-13.2,4.6-26.2,8.1-39l0.4,0.1c2.7,1.4,5,3.5,6.5,6.2
		c1.4-2.5,3.4-4.5,5.8-5.8s5.1-2.1,8-2.1c-1.4-2.5-2.1-5.2-2.1-8s0.7-5.5,2.1-8c-2.6,0-5-0.6-7.2-1.7s-4.1-2.8-5.6-4.8l-0.3-0.1
		c3.2-9,6.8-17.8,10.7-26.5l0,0l-1.4,3.1H56.2z"/>
	<path class="st1" d="M56.2,135.5v36.2H35.3l-2.7,5.6l-1.9,4.1l0,0C37.9,165.5,46.4,150.2,56.2,135.5L56.2,135.5z"/>
	<path class="st3" d="M34,304.3c-1.4,2.5-2.1,5.2-2.1,8c0,2.8,0.7,5.5,2.1,8c-2.8,0-5.6,0.8-8,2.1c-2.4,1.4-4.4,3.4-5.8,5.8
		c-1.4-2.5-3.4-4.5-5.8-5.8s-5.1-2.1-8-2.1c1.4-2.5,2.1-5.2,2.1-8c0-2.8-0.7-5.5-2.1-8c5.7,0,10.9-3,13.8-8c1.4,2.5,3.4,4.5,5.8,5.8
		C28.4,303.5,31.2,304.3,34,304.3z M29.9,317.8c-1.1-3.6-1.1-7.5,0-11.2c-3.7-0.8-7.1-2.8-9.7-5.6c-2.6,2.8-6,4.7-9.7,5.6
		c1.1,3.6,1.1,7.5,0,11.2c3.7,0.8,7.1,2.8,9.7,5.6C22.8,320.6,26.2,318.6,29.9,317.8z"/>
	<path class="st3" d="M34,393.3c-1.4,2.5-2.1,5.2-2.1,8c0,2.7,0.7,5.5,2.1,8c-2.8,0-5.6,0.8-8,2.1c-2.4,1.4-4.4,3.4-5.8,5.8
		c-1.4-2.5-3.4-4.5-5.8-5.8c-2.4-1.4-5.1-2.1-8-2.1c1.4-2.5,2.1-5.2,2.1-8c0-2.8-0.7-5.5-2.1-8c5.7,0,10.9-3,13.8-8
		c1.4,2.5,3.4,4.5,5.8,5.8C28.4,392.6,31.2,393.3,34,393.3z M29.9,406.9c-1.1-3.6-1.1-7.5,0-11.2c-3.7-0.8-7.1-2.8-9.7-5.6
		c-2.6,2.8-6,4.7-9.7,5.6c1.1,3.6,1.1,7.5,0,11.2c3.7,0.8,7.1,2.8,9.7,5.6C22.8,409.7,26.2,407.7,29.9,406.9z"/>
	<path class="st3" d="M34,486.2c-1.4,2.5-2.1,5.2-2.1,8c0,2.7,0.7,5.5,2.1,8c-2.8,0-5.6,0.8-8,2.1c-2.4,1.4-4.4,3.4-5.8,5.8
		c-1.4-2.5-3.4-4.5-5.8-5.8c-2.4-1.4-5.1-2.1-8-2.1c1.4-2.5,2.1-5.2,2.1-8c0-2.8-0.7-5.5-2.1-8c5.7,0,10.9-3,13.8-8
		c1.4,2.5,3.4,4.5,5.8,5.8C28.4,485.5,31.2,486.2,34,486.2z M29.9,499.8c-1.1-3.6-1.1-7.5,0-11.2c-3.7-0.8-7.1-2.8-9.7-5.6
		c-2.6,2.8-6,4.7-9.7,5.6c1.1,3.6,1.1,7.5,0,11.2c3.7,0.8,7.1,2.8,9.7,5.6C22.8,502.5,26.2,500.6,29.9,499.8z"/>
	<path class="st3" d="M34,576.1c-1.4,2.5-2.1,5.2-2.1,8s0.7,5.5,2.1,8c-2.8,0-5.6,0.8-8,2.1c-2.4,1.4-4.4,3.4-5.8,5.8
		c-1.4-2.5-3.4-4.5-5.8-5.8c-2.4-1.4-5.1-2.1-8-2.1c1.4-2.5,2.1-5.2,2.1-8s-0.7-5.5-2.1-8c5.7,0,10.9-3,13.8-8
		c1.4,2.5,3.4,4.5,5.8,5.8C28.4,575.3,31.2,576.1,34,576.1z M29.9,589.6c-1.1-3.6-1.1-7.5,0-11.2c-3.7-0.8-7.1-2.8-9.7-5.6
		c-2.6,2.8-6,4.7-9.7,5.6c1.1,3.6,1.1,7.5,0,11.2c3.7,0.8,7.1,2.8,9.7,5.6C22.8,592.4,26.2,590.5,29.9,589.6z"/>
	<path class="st3" d="M33,214.5c-1.4,2.5-2.1,5.2-2.1,8s0.7,5.5,2.1,8c-2.8,0-5.6,0.8-8,2.1s-4.4,3.4-5.8,5.8
		c-1.6-2.7-3.8-4.8-6.5-6.2l-0.4-0.1c0.3-0.9,0.5-1.9,0.8-2.8l0.3,0.1c2.2,1,4.2,2.5,5.9,4.3c2.6-2.8,6-4.7,9.7-5.6
		c-1.1-3.6-1.1-7.5,0-11.2c-3.7-0.8-7.1-2.8-9.7-5.6l-0.5-0.2c0.4-1.1,0.8-2.2,1.1-3.3l0.3,0.1c1.5,2,3.4,3.7,5.6,4.8
		S30.5,214.5,33,214.5z"/>
	<path class="st3" d="M29.9,306.6c-1.1,3.6-1.1,7.5,0,11.2c-3.7,0.8-7.1,2.8-9.7,5.6c-2.6-2.8-6-4.7-9.7-5.6c1.1-3.6,1.1-7.5,0-11.2
		c3.7-0.8,7.1-2.8,9.7-5.6C22.8,303.8,26.2,305.8,29.9,306.6z M24.9,312.2c0-2.6-2.1-4.6-4.6-4.6s-4.6,2.1-4.6,4.6s2.1,4.6,4.6,4.6
		S24.9,314.8,24.9,312.2z"/>
	<path class="st3" d="M29.9,395.7c-1.1,3.6-1.1,7.5,0,11.2c-3.7,0.8-7.1,2.8-9.7,5.6c-2.6-2.8-6-4.7-9.7-5.6c1.1-3.6,1.1-7.5,0-11.2
		c3.7-0.8,7.1-2.8,9.7-5.6C22.8,392.9,26.2,394.9,29.9,395.7z M24.9,401.3c0-2.6-2.1-4.6-4.6-4.6s-4.6,2.1-4.6,4.6s2.1,4.6,4.6,4.6
		S24.9,403.8,24.9,401.3z"/>
	<path class="st3" d="M29.9,488.6c-1.1,3.6-1.1,7.5,0,11.2c-3.7,0.8-7.1,2.8-9.7,5.6c-2.6-2.8-6-4.7-9.7-5.6c1.1-3.6,1.1-7.5,0-11.2
		c3.7-0.8,7.1-2.8,9.7-5.6C22.8,485.8,26.2,487.7,29.9,488.6z M24.9,494.2c0-2.6-2.1-4.6-4.6-4.6s-4.6,2.1-4.6,4.6
		c0,2.6,2.1,4.6,4.6,4.6S24.9,496.7,24.9,494.2z"/>
	<path class="st3" d="M29.9,578.5c-1.1,3.6-1.1,7.5,0,11.2c-3.7,0.8-7.1,2.8-9.7,5.6c-2.6-2.8-6-4.7-9.7-5.6c1.1-3.6,1.1-7.5,0-11.2
		c3.7-0.8,7.1-2.8,9.7-5.6C22.8,575.7,26.2,577.6,29.9,578.5z M24.9,584c0-2.6-2.1-4.6-4.6-4.6s-4.6,2.1-4.6,4.6s2.1,4.6,4.6,4.6
		S24.9,586.6,24.9,584z"/>
	<path class="st3" d="M28.9,216.9c-1.1,3.6-1.1,7.5,0,11.2c-3.7,0.8-7.1,2.8-9.7,5.6c-1.7-1.8-3.7-3.3-5.9-4.3l-0.3-0.1
		c0.5-1.8,1-3.5,1.5-5.3l0.2,0.1c0.6,1.8,2.4,3.1,4.4,3.1c2.6,0,4.6-2.1,4.6-4.6s-2.1-4.6-4.6-4.6c-1,0-1.9,0.3-2.7,0.9l-0.3-0.1
		c0.8-2.5,1.6-5,2.5-7.5l0.5,0.2C21.8,214.1,25.2,216.1,28.9,216.9z"/>
	<path class="st3" d="M20.2,307.6c2.6,0,4.6,2.1,4.6,4.6s-2.1,4.6-4.6,4.6s-4.6-2.1-4.6-4.6S17.6,307.6,20.2,307.6z M22.7,312.2
		c0-1.4-1.1-2.5-2.5-2.5s-2.5,1.1-2.5,2.5c0,1.4,1.1,2.5,2.5,2.5S22.7,313.6,22.7,312.2z"/>
	<path class="st3" d="M20.2,396.6c2.6,0,4.6,2.1,4.6,4.6s-2.1,4.6-4.6,4.6s-4.6-2.1-4.6-4.6S17.6,396.6,20.2,396.6z M22.7,401.3
		c0-1.4-1.1-2.5-2.5-2.5s-2.5,1.1-2.5,2.5c0,1.4,1.1,2.5,2.5,2.5S22.7,402.7,22.7,401.3z"/>
	<path class="st3" d="M20.2,489.5c2.6,0,4.6,2.1,4.6,4.6c0,2.6-2.1,4.6-4.6,4.6s-4.6-2.1-4.6-4.6C15.6,491.6,17.6,489.5,20.2,489.5z
		 M22.7,494.2c0-1.4-1.1-2.5-2.5-2.5s-2.5,1.1-2.5,2.5c0,1.4,1.1,2.5,2.5,2.5S22.7,495.6,22.7,494.2z"/>
	<path class="st3" d="M20.2,579.4c2.6,0,4.6,2.1,4.6,4.6s-2.1,4.6-4.6,4.6s-4.6-2.1-4.6-4.6S17.6,579.4,20.2,579.4z M22.7,584
		c0-1.4-1.1-2.5-2.5-2.5s-2.5,1.1-2.5,2.5s1.1,2.5,2.5,2.5S22.7,585.4,22.7,584z"/>
	<path class="st3" d="M19.3,217.8c2.6,0,4.6,2.1,4.6,4.6s-2.1,4.6-4.6,4.6c-2,0-3.7-1.3-4.4-3.1l-0.2-0.1c0.5-1.8,1.1-3.6,1.7-5.4
		l0.3,0.1C17.3,218.2,18.2,217.8,19.3,217.8z M21.8,222.5c0-1.4-1.1-2.5-2.5-2.5s-2.5,1.1-2.5,2.5c0,1.4,1.1,2.5,2.5,2.5
		S21.8,223.9,21.8,222.5z"/>
	<path class="st3" d="M20.2,309.7c1.4,0,2.5,1.1,2.5,2.5c0,1.4-1.1,2.5-2.5,2.5s-2.5-1.1-2.5-2.5C17.7,310.8,18.8,309.7,20.2,309.7z
		"/>
	<path class="st3" d="M20.2,398.8c1.4,0,2.5,1.1,2.5,2.5c0,1.4-1.1,2.5-2.5,2.5s-2.5-1.1-2.5-2.5C17.7,399.9,18.8,398.8,20.2,398.8z
		"/>
	<path class="st3" d="M20.2,491.6c1.4,0,2.5,1.1,2.5,2.5c0,1.4-1.1,2.5-2.5,2.5s-2.5-1.1-2.5-2.5C17.7,492.8,18.8,491.6,20.2,491.6z
		"/>
	<path class="st3" d="M20.2,581.5c1.4,0,2.5,1.1,2.5,2.5s-1.1,2.5-2.5,2.5s-2.5-1.1-2.5-2.5S18.8,581.5,20.2,581.5z"/>
	<circle class="st3" cx="19.3" cy="222.5" r="2.5"/>
	<g>
		<path d="M0.8,633.5c-0.4,0-0.8-0.4-0.8-0.8v-11.7l0-77.1c0-0.4,0.4-0.8,0.8-0.8c0.4,0,0.8,0.4,0.8,0.8l0,77.1v11.7
			C1.6,633.1,1.3,633.5,0.8,633.5z"/>
	</g>
	<g>
		<path d="M0.8,531.9c-0.4,0-0.8-0.4-0.8-0.8l0-77c0-0.4,0.4-0.8,0.8-0.8c0.4,0,0.8,0.4,0.8,0.8l0,77C1.6,531.5,1.3,531.9,0.8,531.9
			z"/>
	</g>
	<g>
		<path d="M0.8,442c-0.4,0-0.8-0.4-0.8-0.8l0-77c0-0.4,0.4-0.8,0.8-0.8c0.4,0,0.8,0.4,0.8,0.8l0,77C1.6,441.7,1.3,442,0.8,442z"/>
	</g>
	<g>
		<path d="M0.8,352.2c-0.4,0-0.8-0.4-0.8-0.8l0-32.3c0-16.1,1.2-32.2,3.4-47.9c0.1-0.4,0.5-0.7,0.9-0.7c0.4,0.1,0.7,0.5,0.7,0.9
			c-2.3,15.7-3.4,31.7-3.4,47.7l0,32.3C1.6,351.8,1.3,352.2,0.8,352.2z"/>
	</g>
	<g>
		<path d="M194.4,150.3l-0.7-1.2c-1.3-2.3-3.2-4.2-5.5-5.5c-2.3-1.3-4.9-2-7.6-2h-1.4l0.7-1.2c1.3-2.3,2-4.9,2-7.6
			c0-2.6-0.7-5.3-2-7.6l-0.7-1.2h1.4c5.4,0,10.4-2.9,13.1-7.6l0.7-1.2l0.7,1.2c1.3,2.3,3.2,4.2,5.5,5.5c2.3,1.3,4.9,2,7.6,2h1.4
			l-0.7,1.2c-1.3,2.3-2,4.9-2,7.6c0,2.7,0.7,5.3,2,7.6l0.7,1.2h-1.4c-2.7,0-5.3,0.7-7.6,2c-2.3,1.3-4.2,3.2-5.5,5.5L194.4,150.3z
			 M181.9,140c2.5,0.2,4.9,0.9,7.1,2.2c2.2,1.2,4,3,5.4,5c1.4-2,3.3-3.8,5.4-5c2.2-1.2,4.6-2,7.1-2.2c-1.1-2.2-1.6-4.7-1.6-7.2
			c0-2.5,0.6-5,1.6-7.2c-2.5-0.2-4.9-0.9-7.1-2.2c-2.2-1.3-4-3-5.4-5c-2.9,4.2-7.5,6.8-12.5,7.2c1.1,2.2,1.6,4.7,1.6,7.2
			S183,137.7,181.9,140z"/>
	</g>
	<g>
		<path d="M194.4,145.1l-0.6-0.6c-2.5-2.7-5.7-4.5-9.3-5.3l-0.8-0.2l0.3-0.8c1.1-3.5,1.1-7.2,0-10.7l-0.3-0.8l0.8-0.2
			c3.6-0.8,6.8-2.7,9.3-5.3l0.6-0.6l0.6,0.6c2.5,2.7,5.7,4.5,9.3,5.3l0.8,0.2l-0.3,0.8c-1.1,3.5-1.1,7.2,0,10.7l0.3,0.8l-0.8,0.2
			c-3.6,0.8-6.8,2.7-9.3,5.3L194.4,145.1z M185.7,137.8c3.3,0.9,6.3,2.6,8.7,5c2.4-2.4,5.4-4.1,8.7-5c-0.9-3.3-0.9-6.7,0-10
			c-3.3-0.9-6.3-2.6-8.7-5c-2.4,2.4-5.4,4.1-8.7,5C186.6,131,186.6,134.5,185.7,137.8z"/>
	</g>
	<g>
		<path d="M194.4,138.2c-3,0-5.4-2.4-5.4-5.4c0-3,2.4-5.4,5.4-5.4c3,0,5.4,2.4,5.4,5.4C199.8,135.8,197.4,138.2,194.4,138.2z
			 M194.4,128.9c-2.1,0-3.9,1.7-3.9,3.9c0,2.1,1.7,3.9,3.9,3.9s3.9-1.7,3.9-3.9C198.2,130.6,196.5,128.9,194.4,128.9z"/>
	</g>
	<g>
		<path d="M194.4,136.1c-1.8,0-3.3-1.5-3.3-3.3c0-1.8,1.5-3.3,3.3-3.3c1.8,0,3.3,1.5,3.3,3.3C197.7,134.6,196.2,136.1,194.4,136.1z
			 M194.4,131c-1,0-1.7,0.8-1.7,1.7c0,0.9,0.8,1.7,1.7,1.7c0.9,0,1.7-0.8,1.7-1.7C196.1,131.8,195.3,131,194.4,131z"/>
	</g>
	<g>
		<path d="M194.4,240l-0.7-1.2c-1.3-2.3-3.2-4.2-5.5-5.5c-2.3-1.3-4.9-2-7.6-2h-1.4l0.7-1.2c1.3-2.3,2-4.9,2-7.6
			c0-2.6-0.7-5.3-2-7.6l-0.7-1.2h1.4c5.4,0,10.4-2.9,13.1-7.6l0.7-1.2l0.7,1.2c1.3,2.3,3.2,4.2,5.5,5.5c2.3,1.3,4.9,2,7.6,2h1.4
			l-0.7,1.2c-1.3,2.3-2,4.9-2,7.6c0,2.7,0.7,5.3,2,7.6l0.7,1.2h-1.4c-2.7,0-5.3,0.7-7.6,2c-2.3,1.3-4.2,3.2-5.5,5.5L194.4,240z
			 M181.9,229.7c2.5,0.2,4.9,0.9,7.1,2.2c2.2,1.2,4,3,5.4,5c1.4-2,3.3-3.8,5.4-5c2.2-1.2,4.6-2,7.1-2.2c-1.1-2.2-1.6-4.7-1.6-7.2
			s0.6-5,1.6-7.2c-2.5-0.2-4.9-0.9-7.1-2.2c-2.2-1.3-4-3-5.4-5c-2.9,4.2-7.5,6.8-12.5,7.2c1.1,2.2,1.6,4.7,1.6,7.2
			S183,227.5,181.9,229.7z"/>
	</g>
	<g>
		<path d="M194.4,234.8l-0.6-0.6c-2.5-2.7-5.7-4.5-9.3-5.3l-0.8-0.2l0.3-0.8c1.1-3.5,1.1-7.2,0-10.7l-0.3-0.8l0.8-0.2
			c3.6-0.8,6.8-2.7,9.3-5.3l0.6-0.6l0.6,0.6c2.5,2.7,5.7,4.5,9.3,5.3l0.8,0.2l-0.3,0.8c-1.1,3.5-1.1,7.2,0,10.7l0.3,0.8l-0.8,0.2
			c-3.6,0.8-6.8,2.7-9.3,5.3L194.4,234.8z M185.7,227.5c3.3,0.9,6.3,2.6,8.7,5c2.4-2.4,5.4-4.1,8.7-5c-0.9-3.3-0.9-6.7,0-10
			c-3.3-0.9-6.3-2.6-8.7-5c-2.4,2.4-5.4,4.1-8.7,5C186.6,220.8,186.6,224.2,185.7,227.5z"/>
	</g>
	<g>
		<path d="M194.4,227.9c-3,0-5.4-2.4-5.4-5.4c0-3,2.4-5.4,5.4-5.4c3,0,5.4,2.4,5.4,5.4C199.8,225.5,197.4,227.9,194.4,227.9z
			 M194.4,218.6c-2.1,0-3.9,1.7-3.9,3.9s1.7,3.8,3.9,3.8s3.9-1.7,3.9-3.8S196.5,218.6,194.4,218.6z"/>
	</g>
	<g>
		<path d="M194.4,225.8c-1.8,0-3.3-1.5-3.3-3.3s1.5-3.3,3.3-3.3c1.8,0,3.3,1.5,3.3,3.3S196.2,225.8,194.4,225.8z M194.4,220.8
			c-1,0-1.7,0.8-1.7,1.7c0,0.9,0.8,1.7,1.7,1.7c0.9,0,1.7-0.8,1.7-1.7C196.1,221.5,195.3,220.8,194.4,220.8z"/>
	</g>
	<g>
		<path d="M194.4,329.7l-0.7-1.2c-1.3-2.3-3.2-4.2-5.5-5.5c-2.3-1.3-4.9-2-7.6-2h-1.4l0.7-1.2c1.3-2.3,2-4.9,2-7.6s-0.7-5.3-2-7.6
			l-0.7-1.2h1.4c5.4,0,10.4-2.9,13.1-7.6l0.7-1.2l0.7,1.2c1.3,2.3,3.2,4.2,5.5,5.5c2.3,1.3,4.9,2,7.6,2h1.4l-0.7,1.2
			c-1.3,2.3-2,4.9-2,7.6s0.7,5.3,2,7.6l0.7,1.2h-1.4c-2.7,0-5.3,0.7-7.6,2c-2.3,1.3-4.2,3.2-5.5,5.5L194.4,329.7z M181.9,319.4
			c2.5,0.2,4.9,0.9,7.1,2.2c2.2,1.2,4,3,5.4,5c1.4-2,3.3-3.8,5.4-5c2.2-1.2,4.6-2,7.1-2.2c-1.1-2.2-1.6-4.7-1.6-7.2
			c0-2.5,0.6-5,1.6-7.2c-2.5-0.2-4.9-0.9-7.1-2.2c-2.2-1.3-4-3-5.4-5c-2.9,4.2-7.5,6.8-12.5,7.2c1.1,2.2,1.6,4.7,1.6,7.2
			C183.5,314.7,183,317.2,181.9,319.4z"/>
	</g>
	<g>
		<path d="M194.4,324.6l-0.6-0.6c-2.5-2.7-5.7-4.5-9.3-5.3l-0.8-0.2l0.3-0.8c1.1-3.5,1.1-7.2,0-10.7l-0.3-0.8l0.8-0.2
			c3.6-0.8,6.8-2.7,9.3-5.3l0.6-0.6l0.6,0.6c2.5,2.7,5.7,4.5,9.3,5.3l0.8,0.2l-0.3,0.8c-1.1,3.5-1.1,7.2,0,10.7l0.3,0.8l-0.8,0.2
			c-3.6,0.8-6.8,2.7-9.3,5.3L194.4,324.6z M185.7,317.2c3.3,0.9,6.3,2.6,8.7,5c2.4-2.4,5.4-4.1,8.7-5c-0.9-3.3-0.9-6.7,0-10
			c-3.3-0.9-6.3-2.6-8.7-5c-2.4,2.4-5.4,4.1-8.7,5C186.6,310.5,186.6,313.9,185.7,317.2z"/>
	</g>
	<g>
		<path d="M194.4,317.7c-3,0-5.4-2.4-5.4-5.4s2.4-5.4,5.4-5.4c3,0,5.4,2.4,5.4,5.4S197.4,317.7,194.4,317.7z M194.4,308.4
			c-2.1,0-3.9,1.7-3.9,3.9s1.7,3.9,3.9,3.9s3.9-1.7,3.9-3.9S196.5,308.4,194.4,308.4z"/>
	</g>
	<g>
		<path d="M194.4,315.5c-1.8,0-3.3-1.5-3.3-3.3c0-1.8,1.5-3.3,3.3-3.3c1.8,0,3.3,1.5,3.3,3.3C197.7,314.1,196.2,315.5,194.4,315.5z
			 M194.4,310.5c-1,0-1.7,0.8-1.7,1.7c0,1,0.8,1.7,1.7,1.7c0.9,0,1.7-0.8,1.7-1.7C196.1,311.3,195.3,310.5,194.4,310.5z"/>
	</g>
	<g>
		<path d="M194.4,418.8l-0.7-1.2c-1.3-2.3-3.2-4.2-5.5-5.5c-2.3-1.3-4.9-2-7.6-2h-1.4l0.7-1.2c1.3-2.3,2-4.9,2-7.6
			c0-2.6-0.7-5.3-2-7.6l-0.7-1.2h1.4c5.4,0,10.4-2.9,13.1-7.6l0.7-1.2l0.7,1.2c1.3,2.3,3.2,4.2,5.5,5.5c2.3,1.3,4.9,2,7.6,2h1.4
			l-0.7,1.2c-1.3,2.3-2,4.9-2,7.6c0,2.6,0.7,5.3,2,7.6l0.7,1.2h-1.4c-2.7,0-5.3,0.7-7.6,2c-2.3,1.3-4.2,3.2-5.5,5.5L194.4,418.8z
			 M181.9,408.5c2.5,0.2,4.9,0.9,7.1,2.2c2.2,1.2,4,3,5.4,5c1.4-2.1,3.3-3.8,5.4-5c2.2-1.2,4.6-2,7.1-2.2c-1.1-2.2-1.6-4.7-1.6-7.2
			c0-2.5,0.6-5,1.6-7.2c-2.5-0.2-4.9-0.9-7.1-2.2c-2.2-1.3-4-3-5.4-5c-2.9,4.2-7.5,6.8-12.5,7.2c1.1,2.2,1.6,4.7,1.6,7.2
			C183.5,403.8,183,406.2,181.9,408.5z"/>
	</g>
	<g>
		<path d="M194.4,413.6l-0.6-0.6c-2.5-2.7-5.7-4.5-9.3-5.3l-0.8-0.2l0.3-0.8c1.1-3.5,1.1-7.2,0-10.7l-0.3-0.8l0.8-0.2
			c3.6-0.8,6.8-2.7,9.3-5.3l0.6-0.6l0.6,0.6c2.5,2.7,5.7,4.5,9.3,5.3l0.8,0.2l-0.3,0.8c-1.1,3.5-1.1,7.2,0,10.7l0.3,0.8l-0.8,0.2
			c-3.6,0.8-6.8,2.7-9.3,5.3L194.4,413.6z M185.7,406.3c3.3,0.9,6.3,2.6,8.7,5c2.4-2.4,5.4-4.1,8.7-5c-0.9-3.3-0.9-6.7,0-10
			c-3.3-0.9-6.3-2.6-8.7-5c-2.4,2.4-5.4,4.1-8.7,5C186.6,399.6,186.6,403,185.7,406.3z"/>
	</g>
	<g>
		<path d="M194.4,406.7c-3,0-5.4-2.4-5.4-5.4c0-3,2.4-5.4,5.4-5.4c3,0,5.4,2.4,5.4,5.4C199.8,404.3,197.4,406.7,194.4,406.7z
			 M194.4,397.4c-2.1,0-3.9,1.7-3.9,3.9c0,2.1,1.7,3.9,3.9,3.9s3.9-1.7,3.9-3.9C198.2,399.2,196.5,397.4,194.4,397.4z"/>
	</g>
	<g>
		<path d="M194.4,404.6c-1.8,0-3.3-1.5-3.3-3.3c0-1.8,1.5-3.3,3.3-3.3c1.8,0,3.3,1.5,3.3,3.3C197.7,403.1,196.2,404.6,194.4,404.6z
			 M194.4,399.6c-1,0-1.7,0.8-1.7,1.7c0,1,0.8,1.7,1.7,1.7c0.9,0,1.7-0.8,1.7-1.7C196.1,400.3,195.3,399.6,194.4,399.6z"/>
	</g>
	<g>
		<path d="M194.4,511.7l-0.7-1.2c-1.3-2.3-3.2-4.2-5.5-5.5c-2.3-1.3-4.9-2-7.6-2h-1.4l0.7-1.2c1.3-2.3,2-4.9,2-7.6
			c0-2.6-0.7-5.3-2-7.6l-0.7-1.2h1.4c5.4,0,10.4-2.9,13.1-7.6l0.7-1.2l0.7,1.2c1.3,2.3,3.2,4.2,5.5,5.5c2.3,1.3,4.9,2,7.6,2h1.4
			l-0.7,1.2c-1.3,2.3-2,4.9-2,7.6c0,2.6,0.7,5.3,2,7.6l0.7,1.2h-1.4c-2.7,0-5.3,0.7-7.6,2c-2.3,1.3-4.2,3.2-5.5,5.5L194.4,511.7z
			 M181.9,501.4c2.5,0.2,4.9,0.9,7.1,2.2c2.2,1.2,4,3,5.4,5c1.4-2,3.3-3.8,5.4-5c2.2-1.2,4.6-2,7.1-2.2c-1.1-2.2-1.6-4.7-1.6-7.2
			c0-2.5,0.6-5,1.6-7.2c-2.5-0.2-4.9-0.9-7.1-2.2c-2.2-1.3-4-3-5.4-5c-2.9,4.2-7.5,6.8-12.5,7.2c1.1,2.2,1.6,4.7,1.6,7.2
			C183.5,496.7,183,499.1,181.9,501.4z"/>
	</g>
	<g>
		<path d="M194.4,506.5l-0.6-0.6c-2.5-2.7-5.7-4.5-9.3-5.3l-0.8-0.2l0.3-0.8c1.1-3.5,1.1-7.2,0-10.7l-0.3-0.8l0.8-0.2
			c3.6-0.8,6.8-2.7,9.3-5.3l0.6-0.6l0.6,0.6c2.5,2.7,5.7,4.5,9.3,5.3l0.8,0.2l-0.3,0.8c-1.1,3.5-1.1,7.2,0,10.7l0.3,0.8l-0.8,0.2
			c-3.6,0.8-6.8,2.7-9.3,5.3L194.4,506.5z M185.7,499.2c3.3,0.9,6.3,2.6,8.7,5c2.4-2.4,5.4-4.1,8.7-5c-0.9-3.3-0.9-6.7,0-10
			c-3.3-0.9-6.3-2.6-8.7-5c-2.4,2.4-5.4,4.1-8.7,5C186.6,492.5,186.6,495.9,185.7,499.2z"/>
	</g>
	<g>
		<path d="M194.4,499.6c-3,0-5.4-2.4-5.4-5.4c0-3,2.4-5.4,5.4-5.4c3,0,5.4,2.4,5.4,5.4C199.8,497.2,197.4,499.6,194.4,499.6z
			 M194.4,490.3c-2.1,0-3.9,1.7-3.9,3.8c0,2.1,1.7,3.9,3.9,3.9s3.9-1.7,3.9-3.9C198.2,492,196.5,490.3,194.4,490.3z"/>
	</g>
	<g>
		<path d="M194.4,497.5c-1.8,0-3.3-1.5-3.3-3.3c0-1.8,1.5-3.3,3.3-3.3c1.8,0,3.3,1.5,3.3,3.3C197.7,496,196.2,497.5,194.4,497.5z
			 M194.4,492.4c-1,0-1.7,0.8-1.7,1.7c0,1,0.8,1.7,1.7,1.7c0.9,0,1.7-0.8,1.7-1.7C196.1,493.2,195.3,492.4,194.4,492.4z"/>
	</g>
	<g>
		<path d="M194.4,601.6l-0.7-1.2c-1.3-2.3-3.2-4.2-5.5-5.5c-2.3-1.3-4.9-2-7.6-2h-1.4l0.7-1.2c1.3-2.3,2-4.9,2-7.6
			c0-2.6-0.7-5.3-2-7.6l-0.7-1.2h1.4c5.4,0,10.4-2.9,13.1-7.6l0.7-1.2l0.7,1.2c1.3,2.3,3.2,4.2,5.5,5.5c2.3,1.3,4.9,2,7.6,2h1.4
			l-0.7,1.2c-1.3,2.3-2,4.9-2,7.6c0,2.7,0.7,5.3,2,7.6l0.7,1.2h-1.4c-2.7,0-5.3,0.7-7.6,2c-2.3,1.3-4.2,3.2-5.5,5.5L194.4,601.6z
			 M181.9,591.2c2.5,0.2,4.9,0.9,7.1,2.2c2.2,1.2,4,3,5.4,5c1.4-2,3.3-3.8,5.4-5c2.2-1.2,4.6-2,7.1-2.2c-1.1-2.2-1.6-4.7-1.6-7.2
			c0-2.5,0.6-5,1.6-7.2c-2.5-0.2-4.9-0.9-7.1-2.2c-2.2-1.3-4-3-5.4-5c-2.9,4.2-7.5,6.8-12.5,7.2c1.1,2.2,1.6,4.7,1.6,7.2
			S183,589,181.9,591.2z"/>
	</g>
	<g>
		<path d="M194.4,596.4l-0.6-0.6c-2.5-2.7-5.7-4.5-9.3-5.3l-0.8-0.2l0.3-0.8c1.1-3.5,1.1-7.2,0-10.7l-0.3-0.8l0.8-0.2
			c3.6-0.8,6.8-2.7,9.3-5.3l0.6-0.6l0.6,0.6c2.5,2.7,5.7,4.5,9.3,5.3l0.8,0.2l-0.3,0.8c-1.1,3.5-1.1,7.2,0,10.7l0.3,0.8l-0.8,0.2
			c-3.6,0.8-6.8,2.7-9.3,5.3L194.4,596.4z M185.7,589c3.3,0.9,6.3,2.6,8.7,5c2.4-2.4,5.4-4.1,8.7-5c-0.9-3.3-0.9-6.7,0-10
			c-3.3-0.9-6.3-2.6-8.7-5c-2.4,2.4-5.4,4.1-8.7,5C186.6,582.3,186.6,585.7,185.7,589z"/>
	</g>
	<g>
		<path d="M194.4,589.5c-3,0-5.4-2.4-5.4-5.4s2.4-5.4,5.4-5.4c3,0,5.4,2.4,5.4,5.4S197.4,589.5,194.4,589.5z M194.4,580.2
			c-2.1,0-3.9,1.7-3.9,3.9s1.7,3.9,3.9,3.9s3.9-1.7,3.9-3.9S196.5,580.2,194.4,580.2z"/>
	</g>
	<g>
		<path d="M194.4,587.4c-1.8,0-3.3-1.5-3.3-3.3s1.5-3.3,3.3-3.3c1.8,0,3.3,1.5,3.3,3.3S196.2,587.4,194.4,587.4z M194.4,582.3
			c-1,0-1.7,0.8-1.7,1.7c0,0.9,0.8,1.7,1.7,1.7c0.9,0,1.7-0.8,1.7-1.7C196.1,583.1,195.3,582.3,194.4,582.3z"/>
	</g>
	<g>
		<path d="M194.4,63.1l-0.7-1.2c-1.3-2.3-3.2-4.2-5.5-5.5c-2.3-1.3-4.9-2-7.6-2h-1.4l0.7-1.2c1.3-2.3,2-4.9,2-7.6s-0.7-5.3-2-7.6
			l-0.7-1.2h1.4c5.4,0,10.4-2.9,13.1-7.6l0.7-1.2l0.7,1.2c1.3,2.3,3.2,4.2,5.5,5.5c2.3,1.3,4.9,2,7.6,2h1.4l-0.7,1.2
			c-1.3,2.3-2,4.9-2,7.6s0.7,5.3,2,7.6l0.7,1.2h-1.4c-2.7,0-5.3,0.7-7.6,2c-2.3,1.3-4.2,3.2-5.5,5.5L194.4,63.1z M181.9,52.8
			c2.5,0.2,4.9,0.9,7.1,2.2c2.2,1.2,4,3,5.4,5c1.4-2,3.3-3.8,5.4-5c2.2-1.2,4.6-2,7.1-2.2c-1.1-2.2-1.6-4.7-1.6-7.2
			c0-2.5,0.6-5,1.6-7.2c-2.5-0.2-4.9-0.9-7.1-2.2c-2.2-1.3-4-3-5.4-5c-2.9,4.2-7.5,6.8-12.5,7.2c1.1,2.2,1.6,4.7,1.6,7.2
			S183,50.5,181.9,52.8z"/>
	</g>
	<g>
		<path d="M194.4,57.9l-0.6-0.6c-2.5-2.7-5.7-4.5-9.3-5.3l-0.8-0.2l0.3-0.8c1.1-3.5,1.1-7.2,0-10.7l-0.3-0.8l0.8-0.2
			c3.6-0.8,6.8-2.7,9.3-5.3l0.6-0.6l0.6,0.6c2.5,2.7,5.7,4.5,9.3,5.3l0.8,0.2l-0.3,0.8c-1.1,3.5-1.1,7.2,0,10.7l0.3,0.8l-0.8,0.2
			c-3.6,0.8-6.8,2.7-9.3,5.3L194.4,57.9z M185.7,50.5c3.3,0.9,6.3,2.6,8.7,5c2.4-2.4,5.4-4.1,8.7-5c-0.9-3.3-0.9-6.7,0-10
			c-3.3-0.9-6.3-2.6-8.7-5c-2.4,2.4-5.4,4.1-8.7,5C186.6,43.8,186.6,47.3,185.7,50.5z"/>
	</g>
	<g>
		<path d="M194.4,51c-3,0-5.4-2.4-5.4-5.4s2.4-5.4,5.4-5.4c3,0,5.4,2.4,5.4,5.4S197.4,51,194.4,51z M194.4,41.7
			c-2.1,0-3.9,1.7-3.9,3.9c0,2.1,1.7,3.9,3.9,3.9s3.9-1.7,3.9-3.9C198.2,43.4,196.5,41.7,194.4,41.7z"/>
	</g>
	<g>
		<path d="M194.4,48.9c-1.8,0-3.3-1.5-3.3-3.3s1.5-3.3,3.3-3.3c1.8,0,3.3,1.5,3.3,3.3S196.2,48.9,194.4,48.9z M194.4,43.8
			c-1,0-1.7,0.8-1.7,1.7s0.8,1.7,1.7,1.7c0.9,0,1.7-0.8,1.7-1.7S195.3,43.8,194.4,43.8z"/>
	</g>
	<g>
		<path d="M106.5,150.3l-0.7-1.2c-1.3-2.3-3.2-4.2-5.5-5.5c-2.3-1.3-4.9-2-7.6-2h-1.4l0.7-1.2c1.3-2.3,2-4.9,2-7.6
			c0-2.7-0.7-5.3-2-7.6l-0.7-1.2h1.4c5.4,0,10.4-2.9,13.1-7.6l0.7-1.2l0.7,1.2c1.3,2.3,3.2,4.2,5.5,5.5c2.3,1.3,4.9,2,7.6,2h1.4
			l-0.7,1.2c-1.3,2.3-2,4.9-2,7.6c0,2.6,0.7,5.3,2,7.6l0.7,1.2h-1.4c-2.7,0-5.3,0.7-7.6,2c-2.3,1.3-4.2,3.2-5.5,5.5L106.5,150.3z
			 M94,140c2.5,0.2,4.9,0.9,7.1,2.2c2.2,1.2,4,3,5.4,5c1.4-2.1,3.3-3.8,5.4-5c2.2-1.2,4.6-2,7.1-2.2c-1.1-2.2-1.6-4.7-1.6-7.2
			c0-2.5,0.6-5,1.6-7.2c-2.5-0.2-4.9-0.9-7.1-2.2c-2.2-1.2-4-3-5.4-5c-2.9,4.2-7.5,6.8-12.5,7.2c1.1,2.2,1.6,4.7,1.6,7.2
			C95.7,135.3,95.1,137.7,94,140z"/>
	</g>
	<g>
		<path d="M106.5,145.1l-0.6-0.6c-2.5-2.7-5.7-4.5-9.3-5.3l-0.8-0.2l0.3-0.8c1.1-3.5,1.1-7.2,0-10.7l-0.3-0.8l0.8-0.2
			c3.6-0.8,6.8-2.7,9.3-5.3l0.6-0.6l0.6,0.6c2.5,2.7,5.7,4.5,9.3,5.3l0.8,0.2l-0.3,0.8c-1.1,3.5-1.1,7.2,0,10.7l0.3,0.8l-0.8,0.2
			c-3.6,0.8-6.8,2.7-9.3,5.3L106.5,145.1z M97.9,137.8c3.3,0.9,6.3,2.6,8.7,5c2.4-2.4,5.4-4.1,8.7-5c-0.9-3.3-0.9-6.7,0-10
			c-3.3-0.9-6.3-2.6-8.7-5c-2.4,2.4-5.4,4.1-8.7,5C98.7,131,98.7,134.5,97.9,137.8z"/>
	</g>
	<g>
		<path d="M106.5,138.2c-3,0-5.4-2.4-5.4-5.4c0-3,2.4-5.4,5.4-5.4s5.4,2.4,5.4,5.4C112,135.8,109.5,138.2,106.5,138.2z M106.5,128.9
			c-2.1,0-3.9,1.7-3.9,3.9c0,2.1,1.7,3.9,3.9,3.9c2.1,0,3.9-1.7,3.9-3.9C110.4,130.6,108.7,128.9,106.5,128.9z"/>
	</g>
	<g>
		<path d="M106.5,136.1c-1.8,0-3.3-1.5-3.3-3.3c0-1.8,1.5-3.3,3.3-3.3c1.8,0,3.3,1.5,3.3,3.3C109.8,134.6,108.4,136.1,106.5,136.1z
			 M106.5,131c-1,0-1.7,0.8-1.7,1.7c0,0.9,0.8,1.7,1.7,1.7c0.9,0,1.7-0.8,1.7-1.7C108.2,131.8,107.5,131,106.5,131z"/>
	</g>
	<g>
		<path d="M106.5,240l-0.7-1.2c-1.3-2.3-3.2-4.2-5.5-5.5c-2.3-1.3-4.9-2-7.6-2h-1.4L92,230c1.3-2.3,2-4.9,2-7.6c0-2.7-0.7-5.3-2-7.6
			l-0.7-1.2h1.4c5.4,0,10.4-2.9,13.1-7.6l0.7-1.2l0.7,1.2c1.3,2.3,3.2,4.2,5.5,5.5c2.3,1.3,4.9,2,7.6,2h1.4l-0.7,1.2
			c-1.3,2.3-2,4.9-2,7.6c0,2.6,0.7,5.3,2,7.6l0.7,1.2h-1.4c-2.7,0-5.3,0.7-7.6,2c-2.3,1.3-4.2,3.2-5.5,5.5L106.5,240z M94,229.7
			c2.5,0.2,4.9,0.9,7.1,2.2c2.2,1.2,4,3,5.4,5c1.4-2.1,3.3-3.8,5.4-5c2.2-1.2,4.6-2,7.1-2.2c-1.1-2.2-1.6-4.7-1.6-7.2
			c0-2.5,0.6-5,1.6-7.2c-2.5-0.2-4.9-0.9-7.1-2.2c-2.2-1.2-4-3-5.4-5c-2.9,4.2-7.5,6.8-12.5,7.2c1.1,2.2,1.6,4.7,1.6,7.2
			C95.7,225,95.1,227.5,94,229.7z"/>
	</g>
	<g>
		<path d="M106.5,234.8l-0.6-0.6c-2.5-2.7-5.7-4.5-9.3-5.3l-0.8-0.2l0.3-0.8c1.1-3.5,1.1-7.2,0-10.7l-0.3-0.8l0.8-0.2
			c3.6-0.8,6.8-2.7,9.3-5.3l0.6-0.6l0.6,0.6c2.5,2.7,5.7,4.5,9.3,5.3l0.8,0.2l-0.3,0.8c-1.1,3.5-1.1,7.2,0,10.7l0.3,0.8l-0.8,0.2
			c-3.6,0.8-6.8,2.7-9.3,5.3L106.5,234.8z M97.9,227.5c3.3,0.9,6.3,2.6,8.7,5c2.4-2.4,5.4-4.1,8.7-5c-0.9-3.3-0.9-6.7,0-10
			c-3.3-0.9-6.3-2.6-8.7-5c-2.4,2.4-5.4,4.1-8.7,5C98.7,220.8,98.7,224.2,97.9,227.5z"/>
	</g>
	<g>
		<path d="M106.5,227.9c-3,0-5.4-2.4-5.4-5.4c0-3,2.4-5.4,5.4-5.4s5.4,2.4,5.4,5.4C112,225.5,109.5,227.9,106.5,227.9z M106.5,218.6
			c-2.1,0-3.9,1.7-3.9,3.9s1.7,3.8,3.9,3.8c2.1,0,3.9-1.7,3.9-3.8S108.7,218.6,106.5,218.6z"/>
	</g>
	<g>
		<path d="M106.5,225.8c-1.8,0-3.3-1.5-3.3-3.3s1.5-3.3,3.3-3.3c1.8,0,3.3,1.5,3.3,3.3S108.4,225.8,106.5,225.8z M106.5,220.8
			c-1,0-1.7,0.8-1.7,1.7c0,0.9,0.8,1.7,1.7,1.7c0.9,0,1.7-0.8,1.7-1.7C108.2,221.5,107.5,220.8,106.5,220.8z"/>
	</g>
	<g>
		<path d="M106.5,329.7l-0.7-1.2c-1.3-2.3-3.2-4.2-5.5-5.5c-2.3-1.3-4.9-2-7.6-2h-1.4l0.7-1.2c1.3-2.3,2-4.9,2-7.6
			c0-2.7-0.7-5.3-2-7.6l-0.7-1.2h1.4c5.4,0,10.4-2.9,13.1-7.6l0.7-1.2l0.7,1.2c1.3,2.3,3.2,4.2,5.5,5.5c2.3,1.3,4.9,2,7.6,2h1.4
			l-0.7,1.2c-1.3,2.3-2,4.9-2,7.6s0.7,5.3,2,7.6l0.7,1.2h-1.4c-2.7,0-5.3,0.7-7.6,2c-2.3,1.3-4.2,3.2-5.5,5.5L106.5,329.7z
			 M94,319.4c2.5,0.2,4.9,0.9,7.1,2.2c2.2,1.2,4,3,5.4,5c1.4-2.1,3.3-3.8,5.4-5c2.2-1.2,4.6-2,7.1-2.2c-1.1-2.2-1.6-4.7-1.6-7.2
			s0.6-5,1.6-7.2c-2.5-0.2-4.9-0.9-7.1-2.2c-2.2-1.2-4-3-5.4-5c-2.9,4.2-7.5,6.8-12.5,7.2c1.1,2.2,1.6,4.7,1.6,7.2
			S95.1,317.2,94,319.4z"/>
	</g>
	<g>
		<path d="M106.5,324.6l-0.6-0.6c-2.5-2.7-5.7-4.5-9.3-5.3l-0.8-0.2l0.3-0.8c1.1-3.5,1.1-7.2,0-10.7l-0.3-0.8l0.8-0.2
			c3.6-0.8,6.8-2.7,9.3-5.3l0.6-0.6l0.6,0.6c2.5,2.7,5.7,4.5,9.3,5.3l0.8,0.2l-0.3,0.8c-1.1,3.5-1.1,7.2,0,10.7l0.3,0.8l-0.8,0.2
			c-3.6,0.8-6.8,2.7-9.3,5.3L106.5,324.6z M97.9,317.2c3.3,0.9,6.3,2.6,8.7,5c2.4-2.4,5.4-4.1,8.7-5c-0.9-3.3-0.9-6.7,0-10
			c-3.3-0.9-6.3-2.6-8.7-5c-2.4,2.4-5.4,4.1-8.7,5C98.7,310.5,98.7,313.9,97.9,317.2z"/>
	</g>
	<g>
		<path d="M106.5,317.7c-3,0-5.4-2.4-5.4-5.4s2.4-5.4,5.4-5.4s5.4,2.4,5.4,5.4S109.5,317.7,106.5,317.7z M106.5,308.4
			c-2.1,0-3.9,1.7-3.9,3.9s1.7,3.9,3.9,3.9c2.1,0,3.9-1.7,3.9-3.9S108.7,308.4,106.5,308.4z"/>
	</g>
	<g>
		<path d="M106.5,315.5c-1.8,0-3.3-1.5-3.3-3.3c0-1.8,1.5-3.3,3.3-3.3c1.8,0,3.3,1.5,3.3,3.3C109.8,314.1,108.4,315.5,106.5,315.5z
			 M106.5,310.5c-1,0-1.7,0.8-1.7,1.7c0,1,0.8,1.7,1.7,1.7c0.9,0,1.7-0.8,1.7-1.7C108.2,311.3,107.5,310.5,106.5,310.5z"/>
	</g>
	<g>
		<path d="M106.5,418.8l-0.7-1.2c-1.3-2.3-3.2-4.2-5.5-5.5c-2.3-1.3-4.9-2-7.6-2h-1.4l0.7-1.2c1.3-2.3,2-4.9,2-7.6
			c0-2.7-0.7-5.3-2-7.6l-0.7-1.2h1.4c5.4,0,10.4-2.9,13.1-7.6l0.7-1.2l0.7,1.2c1.3,2.3,3.2,4.2,5.5,5.5c2.3,1.3,4.9,2,7.6,2h1.4
			l-0.7,1.2c-1.3,2.3-2,4.9-2,7.6c0,2.6,0.7,5.3,2,7.6l0.7,1.2h-1.4c-2.7,0-5.3,0.7-7.6,2c-2.3,1.3-4.2,3.2-5.5,5.5L106.5,418.8z
			 M94,408.5c2.5,0.2,4.9,0.9,7.1,2.2c2.2,1.2,4,3,5.4,5c1.4-2.1,3.3-3.8,5.4-5c2.2-1.2,4.6-2,7.1-2.2c-1.1-2.2-1.6-4.7-1.6-7.2
			c0-2.5,0.6-5,1.6-7.2c-2.5-0.2-4.9-0.9-7.1-2.2c-2.2-1.2-4-3-5.4-5c-2.9,4.2-7.5,6.8-12.5,7.2c1.1,2.2,1.6,4.7,1.6,7.2
			C95.7,403.8,95.1,406.2,94,408.5z"/>
	</g>
	<g>
		<path d="M106.5,413.6l-0.6-0.6c-2.5-2.7-5.7-4.5-9.3-5.3l-0.8-0.2l0.3-0.8c1.1-3.5,1.1-7.2,0-10.7l-0.3-0.8l0.8-0.2
			c3.6-0.8,6.8-2.7,9.3-5.3l0.6-0.6l0.6,0.6c2.5,2.7,5.7,4.5,9.3,5.3l0.8,0.2l-0.3,0.8c-1.1,3.5-1.1,7.2,0,10.7l0.3,0.8l-0.8,0.2
			c-3.6,0.8-6.8,2.7-9.3,5.3L106.5,413.6z M97.9,406.3c3.3,0.9,6.3,2.6,8.7,5c2.4-2.4,5.4-4.1,8.7-5c-0.9-3.3-0.9-6.7,0-10
			c-3.3-0.9-6.3-2.6-8.7-5c-2.4,2.4-5.4,4.1-8.7,5C98.7,399.6,98.7,403,97.9,406.3z"/>
	</g>
	<g>
		<path d="M106.5,406.7c-3,0-5.4-2.4-5.4-5.4c0-3,2.4-5.4,5.4-5.4s5.4,2.4,5.4,5.4C112,404.3,109.5,406.7,106.5,406.7z M106.5,397.4
			c-2.1,0-3.9,1.7-3.9,3.9c0,2.1,1.7,3.9,3.9,3.9c2.1,0,3.9-1.7,3.9-3.9C110.4,399.2,108.7,397.4,106.5,397.4z"/>
	</g>
	<g>
		<path d="M106.5,404.6c-1.8,0-3.3-1.5-3.3-3.3c0-1.8,1.5-3.3,3.3-3.3c1.8,0,3.3,1.5,3.3,3.3C109.8,403.1,108.4,404.6,106.5,404.6z
			 M106.5,399.6c-1,0-1.7,0.8-1.7,1.7c0,1,0.8,1.7,1.7,1.7c0.9,0,1.7-0.8,1.7-1.7C108.2,400.3,107.5,399.6,106.5,399.6z"/>
	</g>
	<g>
		<path d="M106.5,511.7l-0.7-1.2c-1.3-2.3-3.2-4.2-5.5-5.5c-2.3-1.3-4.9-2-7.6-2h-1.4l0.7-1.2c1.3-2.3,2-4.9,2-7.6
			c0-2.7-0.7-5.3-2-7.6l-0.7-1.2h1.4c5.4,0,10.4-2.9,13.1-7.6l0.7-1.2l0.7,1.2c1.3,2.3,3.2,4.2,5.5,5.5c2.3,1.3,4.9,2,7.6,2h1.4
			l-0.7,1.2c-1.3,2.3-2,4.9-2,7.6c0,2.6,0.7,5.3,2,7.6l0.7,1.2h-1.4c-2.7,0-5.3,0.7-7.6,2c-2.3,1.3-4.2,3.2-5.5,5.5L106.5,511.7z
			 M94,501.4c2.5,0.2,4.9,0.9,7.1,2.2c2.2,1.2,4,3,5.4,5c1.4-2.1,3.3-3.8,5.4-5c2.2-1.2,4.6-2,7.1-2.2c-1.1-2.2-1.6-4.7-1.6-7.2
			c0-2.5,0.6-5,1.6-7.2c-2.5-0.2-4.9-0.9-7.1-2.2c-2.2-1.2-4-3-5.4-5c-2.9,4.2-7.5,6.8-12.5,7.2c1.1,2.2,1.6,4.7,1.6,7.2
			C95.7,496.7,95.1,499.1,94,501.4z"/>
	</g>
	<g>
		<path d="M106.5,506.5l-0.6-0.6c-2.5-2.7-5.7-4.5-9.3-5.3l-0.8-0.2l0.3-0.8c1.1-3.5,1.1-7.2,0-10.7l-0.3-0.8l0.8-0.2
			c3.6-0.8,6.8-2.7,9.3-5.3l0.6-0.6l0.6,0.6c2.5,2.7,5.7,4.5,9.3,5.3l0.8,0.2l-0.3,0.8c-1.1,3.5-1.1,7.2,0,10.7l0.3,0.8l-0.8,0.2
			c-3.6,0.8-6.8,2.7-9.3,5.3L106.5,506.5z M97.9,499.2c3.3,0.9,6.3,2.6,8.7,5c2.4-2.4,5.4-4.1,8.7-5c-0.9-3.3-0.9-6.7,0-10
			c-3.3-0.9-6.3-2.6-8.7-5c-2.4,2.4-5.4,4.1-8.7,5C98.7,492.5,98.7,495.9,97.9,499.2z"/>
	</g>
	<g>
		<path d="M106.5,499.6c-3,0-5.4-2.4-5.4-5.4c0-3,2.4-5.4,5.4-5.4s5.4,2.4,5.4,5.4C112,497.2,109.5,499.6,106.5,499.6z M106.5,490.3
			c-2.1,0-3.9,1.7-3.9,3.8c0,2.1,1.7,3.9,3.9,3.9c2.1,0,3.9-1.7,3.9-3.9C110.4,492,108.7,490.3,106.5,490.3z"/>
	</g>
	<g>
		<path d="M106.5,497.5c-1.8,0-3.3-1.5-3.3-3.3c0-1.8,1.5-3.3,3.3-3.3c1.8,0,3.3,1.5,3.3,3.3C109.8,496,108.4,497.5,106.5,497.5z
			 M106.5,492.4c-1,0-1.7,0.8-1.7,1.7c0,1,0.8,1.7,1.7,1.7c0.9,0,1.7-0.8,1.7-1.7C108.2,493.2,107.5,492.4,106.5,492.4z"/>
	</g>
	<g>
		<path d="M106.5,601.6l-0.7-1.2c-1.3-2.3-3.2-4.2-5.5-5.5c-2.3-1.3-4.9-2-7.6-2h-1.4l0.7-1.2c1.3-2.3,2-4.9,2-7.6
			c0-2.7-0.7-5.3-2-7.6l-0.7-1.2h1.4c5.4,0,10.4-2.9,13.1-7.6l0.7-1.2l0.7,1.2c1.3,2.3,3.2,4.2,5.5,5.5c2.3,1.3,4.9,2,7.6,2h1.4
			l-0.7,1.2c-1.3,2.3-2,4.9-2,7.6c0,2.6,0.7,5.3,2,7.6l0.7,1.2h-1.4c-2.7,0-5.3,0.7-7.6,2c-2.3,1.3-4.2,3.2-5.5,5.5L106.5,601.6z
			 M94,591.2c2.5,0.2,4.9,0.9,7.1,2.2c2.2,1.2,4,3,5.4,5c1.4-2.1,3.3-3.8,5.4-5c2.2-1.2,4.6-2,7.1-2.2c-1.1-2.2-1.6-4.7-1.6-7.2
			s0.6-5,1.6-7.2c-2.5-0.2-4.9-0.9-7.1-2.2c-2.2-1.2-4-3-5.4-5c-2.9,4.2-7.5,6.8-12.5,7.2c1.1,2.2,1.6,4.7,1.6,7.2
			S95.1,589,94,591.2z"/>
	</g>
	<g>
		<path d="M106.5,596.4l-0.6-0.6c-2.5-2.7-5.7-4.5-9.3-5.3l-0.8-0.2l0.3-0.8c1.1-3.5,1.1-7.2,0-10.7l-0.3-0.8l0.8-0.2
			c3.6-0.8,6.8-2.7,9.3-5.3l0.6-0.6l0.6,0.6c2.5,2.7,5.7,4.5,9.3,5.3l0.8,0.2l-0.3,0.8c-1.1,3.5-1.1,7.2,0,10.7l0.3,0.8l-0.8,0.2
			c-3.6,0.8-6.8,2.7-9.3,5.3L106.5,596.4z M97.9,589c3.3,0.9,6.3,2.6,8.7,5c2.4-2.4,5.4-4.1,8.7-5c-0.9-3.3-0.9-6.7,0-10
			c-3.3-0.9-6.3-2.6-8.7-5c-2.4,2.4-5.4,4.1-8.7,5C98.7,582.3,98.7,585.7,97.9,589z"/>
	</g>
	<g>
		<path d="M106.5,589.5c-3,0-5.4-2.4-5.4-5.4s2.4-5.4,5.4-5.4s5.4,2.4,5.4,5.4S109.5,589.5,106.5,589.5z M106.5,580.2
			c-2.1,0-3.9,1.7-3.9,3.9s1.7,3.9,3.9,3.9c2.1,0,3.9-1.7,3.9-3.9S108.7,580.2,106.5,580.2z"/>
	</g>
	<g>
		<path d="M106.5,587.4c-1.8,0-3.3-1.5-3.3-3.3s1.5-3.3,3.3-3.3c1.8,0,3.3,1.5,3.3,3.3S108.4,587.4,106.5,587.4z M106.5,582.3
			c-1,0-1.7,0.8-1.7,1.7c0,0.9,0.8,1.7,1.7,1.7c0.9,0,1.7-0.8,1.7-1.7C108.2,583.1,107.5,582.3,106.5,582.3z"/>
	</g>
	<g>
		<path d="M19.3,240l-0.7-1.2c-1.5-2.5-3.6-4.6-6.2-5.9c-0.4-0.2-0.5-0.7-0.3-1.1c0.2-0.4,0.7-0.5,1.1-0.3c2.5,1.3,4.6,3.1,6.1,5.4
			c1.4-2,3.3-3.8,5.4-5c2.2-1.2,4.6-2,7.1-2.2c-1.1-2.2-1.6-4.7-1.6-7.2c0-2.5,0.6-5,1.6-7.2c-2.2-0.2-4.4-0.8-6.3-1.8
			c-2.3-1.2-4.4-2.9-5.9-5.1c-0.3-0.4-0.2-0.9,0.2-1.1c0.4-0.3,0.9-0.2,1.1,0.2c1.4,1.9,3.2,3.5,5.3,4.6c2.1,1.1,4.5,1.7,6.9,1.7
			h1.4l-0.7,1.2c-1.3,2.3-2,4.9-2,7.6c0,2.7,0.7,5.3,2,7.6l0.7,1.2H33c-2.7,0-5.3,0.7-7.6,2c-2.3,1.3-4.2,3.2-5.5,5.5L19.3,240z"/>
	</g>
	<g>
		<path d="M19.3,234.8l-0.6-0.6c-1.6-1.7-3.5-3.1-5.6-4.1c-0.4-0.2-0.6-0.7-0.4-1.1c0.2-0.4,0.7-0.6,1.1-0.4c2.1,1,3.9,2.3,5.5,3.9
			c2.4-2.4,5.4-4.1,8.7-5c-0.9-3.3-0.9-6.7,0-10c-3.6-1-6.7-2.9-9.3-5.6c-0.3-0.3-0.3-0.8,0-1.1c0.3-0.3,0.8-0.3,1.1,0
			c2.5,2.7,5.7,4.5,9.3,5.3l0.8,0.2l-0.3,0.8c-1.1,3.5-1.1,7.2,0,10.7l0.3,0.8l-0.8,0.2c-3.6,0.8-6.8,2.7-9.3,5.3L19.3,234.8z"/>
	</g>
	<g>
		<path d="M19.3,227.9c-2.3,0-4.3-1.4-5.1-3.6c-0.1-0.4,0.1-0.9,0.5-1c0.4-0.1,0.9,0.1,1,0.5c0.5,1.5,2,2.5,3.6,2.5
			c2.1,0,3.9-1.7,3.9-3.8s-1.7-3.9-3.9-3.9c-0.8,0-1.6,0.2-2.2,0.7c-0.4,0.3-0.9,0.2-1.1-0.2c-0.3-0.4-0.2-0.9,0.2-1.1
			c0.9-0.7,2-1,3.2-1c3,0,5.4,2.4,5.4,5.4C24.7,225.5,22.3,227.9,19.3,227.9z"/>
	</g>
	<g>
		<path d="M19.3,225.8c-1.8,0-3.3-1.5-3.3-3.3s1.5-3.3,3.3-3.3c1.8,0,3.3,1.5,3.3,3.3S21.1,225.8,19.3,225.8z M19.3,220.8
			c-0.9,0-1.7,0.8-1.7,1.7c0,0.9,0.8,1.7,1.7,1.7s1.7-0.8,1.7-1.7C21,221.5,20.2,220.8,19.3,220.8z"/>
	</g>
	<g>
		<path d="M20.2,329.7l-0.7-1.2c-1.3-2.3-3.2-4.2-5.5-5.5c-2.3-1.3-4.9-2-7.6-2H5l0.7-1.2c1.3-2.3,2-4.9,2-7.6c0-2.7-0.7-5.3-2-7.6
			L5,303.5h1.4c5.4,0,10.4-2.9,13.1-7.6l0.7-1.2l0.7,1.2c1.3,2.3,3.2,4.2,5.5,5.5c2.3,1.3,4.9,2,7.6,2h1.4l-0.7,1.2
			c-1.3,2.3-2,4.9-2,7.6c0,2.6,0.7,5.3,2,7.6l0.7,1.2H34c-2.7,0-5.3,0.7-7.6,2c-2.3,1.3-4.2,3.2-5.5,5.5L20.2,329.7z M7.7,319.4
			c2.5,0.2,4.9,0.9,7.1,2.2c2.2,1.3,4,3,5.4,5c1.4-2.1,3.3-3.8,5.4-5c2.2-1.2,4.6-2,7.1-2.2c-1.1-2.2-1.6-4.7-1.6-7.2s0.6-5,1.6-7.2
			c-2.5-0.2-4.9-0.9-7.1-2.2c-2.2-1.2-4-3-5.4-5c-2.9,4.2-7.5,6.8-12.5,7.2c1.1,2.2,1.6,4.7,1.6,7.2S8.8,317.2,7.7,319.4z"/>
	</g>
	<g>
		<path d="M20.2,324.6l-0.6-0.6c-2.5-2.7-5.7-4.5-9.3-5.3l-0.8-0.2l0.3-0.8c1.1-3.5,1.1-7.2,0-10.7L9.5,306l0.8-0.2
			c3.6-0.8,6.8-2.7,9.3-5.3l0.6-0.6l0.6,0.6c2.5,2.7,5.7,4.5,9.3,5.3l0.8,0.2l-0.3,0.8c-1.1,3.5-1.1,7.2,0,10.7l0.3,0.8l-0.8,0.2
			c-3.6,0.8-6.8,2.7-9.3,5.3L20.2,324.6z M11.5,317.2c3.3,0.9,6.3,2.6,8.7,5c2.4-2.4,5.4-4.1,8.7-5c-0.9-3.3-0.9-6.7,0-10
			c-3.3-0.9-6.3-2.6-8.7-5c-2.4,2.4-5.4,4.1-8.7,5C12.4,310.5,12.4,313.9,11.5,317.2z"/>
	</g>
	<g>
		<path d="M20.2,317.7c-3,0-5.4-2.4-5.4-5.4s2.4-5.4,5.4-5.4s5.4,2.4,5.4,5.4S23.2,317.7,20.2,317.7z M20.2,308.4
			c-2.1,0-3.9,1.7-3.9,3.9s1.7,3.9,3.9,3.9s3.9-1.7,3.9-3.9S22.3,308.4,20.2,308.4z"/>
	</g>
	<g>
		<path d="M20.2,315.5c-1.8,0-3.3-1.5-3.3-3.3c0-1.8,1.5-3.3,3.3-3.3c1.8,0,3.3,1.5,3.3,3.3C23.5,314.1,22,315.5,20.2,315.5z
			 M20.2,310.5c-0.9,0-1.7,0.8-1.7,1.7c0,1,0.8,1.7,1.7,1.7c1,0,1.7-0.8,1.7-1.7C21.9,311.3,21.2,310.5,20.2,310.5z"/>
	</g>
	<g>
		<path d="M20.2,418.8l-0.7-1.2c-1.3-2.3-3.2-4.2-5.5-5.5c-2.3-1.3-4.9-2-7.6-2H5l0.7-1.2c1.3-2.3,2-4.9,2-7.6c0-2.7-0.7-5.3-2-7.6
			L5,392.5h1.4c5.4,0,10.4-2.9,13.1-7.6l0.7-1.2l0.7,1.2c1.3,2.3,3.2,4.2,5.5,5.5c2.3,1.3,4.9,2,7.6,2h1.4l-0.7,1.2
			c-1.3,2.3-2,4.9-2,7.6c0,2.6,0.7,5.3,2,7.6l0.7,1.2H34c-2.7,0-5.3,0.7-7.6,2c-2.3,1.3-4.2,3.2-5.5,5.5L20.2,418.8z M7.7,408.5
			c2.5,0.2,4.9,0.9,7.1,2.2c2.2,1.2,4,3,5.4,5c1.4-2.1,3.3-3.8,5.4-5c2.2-1.2,4.6-2,7.1-2.2c-1.1-2.2-1.6-4.7-1.6-7.2
			c0-2.5,0.6-5,1.6-7.2c-2.5-0.2-4.9-0.9-7.1-2.2c-2.2-1.2-4-3-5.4-5c-2.9,4.2-7.5,6.8-12.5,7.2c1.1,2.2,1.6,4.7,1.6,7.2
			C9.4,403.8,8.8,406.2,7.7,408.5z"/>
	</g>
	<g>
		<path d="M20.2,413.6l-0.6-0.6c-2.5-2.7-5.7-4.5-9.3-5.3l-0.8-0.2l0.3-0.8c1.1-3.5,1.1-7.2,0-10.7l-0.3-0.8l0.8-0.2
			c3.6-0.8,6.8-2.7,9.3-5.3l0.6-0.6l0.6,0.6c2.5,2.7,5.7,4.5,9.3,5.3l0.8,0.2l-0.3,0.8c-1.1,3.5-1.1,7.2,0,10.7l0.3,0.8l-0.8,0.2
			c-3.6,0.8-6.8,2.7-9.3,5.3L20.2,413.6z M11.5,406.3c3.3,0.9,6.3,2.6,8.7,5c2.4-2.4,5.4-4.1,8.7-5c-0.9-3.3-0.9-6.7,0-10
			c-3.3-0.9-6.3-2.6-8.7-5c-2.4,2.4-5.4,4.1-8.7,5C12.4,399.6,12.4,403,11.5,406.3z"/>
	</g>
	<g>
		<path d="M20.2,406.7c-3,0-5.4-2.4-5.4-5.4c0-3,2.4-5.4,5.4-5.4s5.4,2.4,5.4,5.4C25.7,404.3,23.2,406.7,20.2,406.7z M20.2,397.4
			c-2.1,0-3.9,1.7-3.9,3.9c0,2.1,1.7,3.9,3.9,3.9s3.9-1.7,3.9-3.9C24.1,399.2,22.3,397.4,20.2,397.4z"/>
	</g>
	<g>
		<path d="M20.2,404.6c-1.8,0-3.3-1.5-3.3-3.3c0-1.8,1.5-3.3,3.3-3.3c1.8,0,3.3,1.5,3.3,3.3C23.5,403.1,22,404.6,20.2,404.6z
			 M20.2,399.6c-0.9,0-1.7,0.8-1.7,1.7c0,1,0.8,1.7,1.7,1.7c1,0,1.7-0.8,1.7-1.7C21.9,400.3,21.2,399.6,20.2,399.6z"/>
	</g>
	<g>
		<path d="M20.2,511.7l-0.7-1.2c-1.3-2.3-3.2-4.2-5.5-5.5c-2.3-1.3-4.9-2-7.6-2H5l0.7-1.2c1.3-2.3,2-4.9,2-7.6c0-2.7-0.7-5.3-2-7.6
			L5,485.4h1.4c5.4,0,10.4-2.9,13.1-7.6l0.7-1.2l0.7,1.2c1.3,2.3,3.2,4.2,5.5,5.5c2.3,1.3,4.9,2,7.6,2h1.4l-0.7,1.2
			c-1.3,2.3-2,4.9-2,7.6c0,2.6,0.7,5.3,2,7.6l0.7,1.2H34c-2.7,0-5.3,0.7-7.6,2c-2.3,1.3-4.2,3.2-5.5,5.5L20.2,511.7z M7.7,501.4
			c2.5,0.2,4.9,0.9,7.1,2.2c2.2,1.3,4,3,5.4,5c1.4-2.1,3.3-3.8,5.4-5c2.2-1.2,4.6-2,7.1-2.2c-1.1-2.2-1.6-4.7-1.6-7.2
			c0-2.5,0.6-5,1.6-7.2c-2.5-0.2-4.9-0.9-7.1-2.2c-2.2-1.2-4-3-5.4-5c-2.9,4.2-7.5,6.8-12.5,7.2c1.1,2.2,1.6,4.7,1.6,7.2
			C9.4,496.7,8.8,499.1,7.7,501.4z"/>
	</g>
	<g>
		<path d="M20.2,506.5l-0.6-0.6c-2.5-2.7-5.7-4.5-9.3-5.3l-0.8-0.2l0.3-0.8c1.1-3.5,1.1-7.2,0-10.7L9.5,488l0.8-0.2
			c3.6-0.8,6.8-2.7,9.3-5.3l0.6-0.6l0.6,0.6c2.5,2.7,5.7,4.5,9.3,5.3l0.8,0.2l-0.3,0.8c-1.1,3.5-1.1,7.2,0,10.7l0.3,0.8l-0.8,0.2
			c-3.6,0.8-6.8,2.7-9.3,5.3L20.2,506.5z M11.5,499.2c3.3,0.9,6.3,2.6,8.7,5c2.4-2.4,5.4-4.1,8.7-5c-0.9-3.3-0.9-6.7,0-10
			c-3.3-0.9-6.3-2.6-8.7-5c-2.4,2.4-5.4,4.1-8.7,5C12.4,492.5,12.4,495.9,11.5,499.2z"/>
	</g>
	<g>
		<path d="M20.2,499.6c-3,0-5.4-2.4-5.4-5.4c0-3,2.4-5.4,5.4-5.4s5.4,2.4,5.4,5.4C25.7,497.2,23.2,499.6,20.2,499.6z M20.2,490.3
			c-2.1,0-3.9,1.7-3.9,3.8c0,2.1,1.7,3.9,3.9,3.9s3.9-1.7,3.9-3.9C24.1,492,22.3,490.3,20.2,490.3z"/>
	</g>
	<g>
		<path d="M20.2,497.5c-1.8,0-3.3-1.5-3.3-3.3c0-1.8,1.5-3.3,3.3-3.3c1.8,0,3.3,1.5,3.3,3.3C23.5,496,22,497.5,20.2,497.5z
			 M20.2,492.4c-0.9,0-1.7,0.8-1.7,1.7c0,1,0.8,1.7,1.7,1.7c1,0,1.7-0.8,1.7-1.7C21.9,493.2,21.2,492.4,20.2,492.4z"/>
	</g>
	<g>
		<path d="M20.2,601.6l-0.7-1.2c-1.3-2.3-3.2-4.2-5.5-5.5c-2.3-1.3-4.9-2-7.6-2H5l0.7-1.2c1.3-2.3,2-4.9,2-7.6c0-2.7-0.7-5.3-2-7.6
			L5,575.3h1.4c5.4,0,10.4-2.9,13.1-7.6l0.7-1.2l0.7,1.2c1.3,2.3,3.2,4.2,5.5,5.5c2.3,1.3,4.9,2,7.6,2h1.4l-0.7,1.2
			c-1.3,2.3-2,4.9-2,7.6c0,2.6,0.7,5.3,2,7.6l0.7,1.2H34c-2.7,0-5.3,0.7-7.6,2c-2.3,1.3-4.2,3.2-5.5,5.5L20.2,601.6z M7.7,591.2
			c2.5,0.2,4.9,0.9,7.1,2.2c2.2,1.3,4,3,5.4,5c1.4-2.1,3.3-3.8,5.4-5c2.2-1.2,4.6-2,7.1-2.2c-1.1-2.2-1.6-4.7-1.6-7.2
			c0-2.5,0.6-5,1.6-7.2c-2.5-0.2-4.9-0.9-7.1-2.2c-2.2-1.2-4-3-5.4-5c-2.9,4.2-7.5,6.8-12.5,7.2c1.1,2.2,1.6,4.7,1.6,7.2
			S8.8,589,7.7,591.2z"/>
	</g>
	<g>
		<path d="M20.2,596.4l-0.6-0.6c-2.5-2.7-5.7-4.5-9.3-5.3l-0.8-0.2l0.3-0.8c1.1-3.5,1.1-7.2,0-10.7l-0.3-0.8l0.8-0.2
			c3.6-0.8,6.8-2.7,9.3-5.3l0.6-0.6l0.6,0.6c2.5,2.7,5.7,4.5,9.3,5.3l0.8,0.2l-0.3,0.8c-1.1,3.5-1.1,7.2,0,10.7l0.3,0.8l-0.8,0.2
			c-3.6,0.8-6.8,2.7-9.3,5.3L20.2,596.4z M11.5,589c3.3,0.9,6.3,2.6,8.7,5c2.4-2.4,5.4-4.1,8.7-5c-0.9-3.3-0.9-6.7,0-10
			c-3.3-0.9-6.3-2.6-8.7-5c-2.4,2.4-5.4,4.1-8.7,5C12.4,582.3,12.4,585.7,11.5,589z"/>
	</g>
	<g>
		<path d="M20.2,589.5c-3,0-5.4-2.4-5.4-5.4s2.4-5.4,5.4-5.4s5.4,2.4,5.4,5.4S23.2,589.5,20.2,589.5z M20.2,580.2
			c-2.1,0-3.9,1.7-3.9,3.9s1.7,3.9,3.9,3.9s3.9-1.7,3.9-3.9S22.3,580.2,20.2,580.2z"/>
	</g>
	<g>
		<path d="M20.2,587.4c-1.8,0-3.3-1.5-3.3-3.3s1.5-3.3,3.3-3.3c1.8,0,3.3,1.5,3.3,3.3S22,587.4,20.2,587.4z M20.2,582.3
			c-0.9,0-1.7,0.8-1.7,1.7c0,0.9,0.8,1.7,1.7,1.7c1,0,1.7-0.8,1.7-1.7C21.9,583.1,21.2,582.3,20.2,582.3z"/>
	</g>
	<g>
		<path d="M232.7,633.5H0l0-0.8v-11.7l0-179.7l0-122.1c0-67.6,20.2-132.8,58.3-188.7C96.5,74.7,150,32.2,213,7.7L232.7,0V633.5z
			 M1.6,631.9h229.5V2.3l-17.6,6.8C150.8,33.6,97.6,75.8,59.6,131.4c-38,55.5-58.1,120.5-58,187.7l0,122.1l0,179.7V631.9z"/>
	</g>
	<g>
		<path d="M231.9,621.7h-76.3c-0.4,0-0.8-0.4-0.8-0.8c0-0.4,0.4-0.8,0.8-0.8h76.3c0.4,0,0.8,0.4,0.8,0.8
			C232.7,621.4,232.4,621.7,231.9,621.7z"/>
	</g>
	<g>
		<path d="M142.8,621.7H69c-0.4,0-0.8-0.4-0.8-0.8c0-0.4,0.4-0.8,0.8-0.8h73.8c0.4,0,0.8,0.4,0.8,0.8
			C143.6,621.4,143.2,621.7,142.8,621.7z"/>
	</g>
	<g>
		<path d="M56.2,621.7H0.8c-0.4,0-0.8-0.4-0.8-0.8c0-0.4,0.3-0.8,0.8-0.8h55.4c0.4,0,0.8,0.4,0.8,0.8
			C57,621.4,56.6,621.7,56.2,621.7z"/>
	</g>
	<g>
		<path d="M231.9,172.5h-77.1V93.8h77.1c0.4,0,0.8,0.4,0.8,0.8s-0.4,0.8-0.8,0.8h-75.5v75.5h75.5c0.4,0,0.8,0.4,0.8,0.8
			S232.4,172.5,231.9,172.5z"/>
	</g>
	<g>
		<path d="M231.9,262.3h-77.1v-78.6h77.1c0.4,0,0.8,0.4,0.8,0.8c0,0.4-0.4,0.8-0.8,0.8h-75.5v75.4h75.5c0.4,0,0.8,0.4,0.8,0.8
			S232.4,262.3,231.9,262.3z"/>
	</g>
	<g>
		<path d="M231.9,352.2h-77.1v-78.6h77.1c0.4,0,0.8,0.4,0.8,0.8s-0.4,0.8-0.8,0.8h-75.5v75.4h75.5c0.4,0,0.8,0.4,0.8,0.8
			S232.4,352.2,231.9,352.2z"/>
	</g>
	<g>
		<path d="M231.9,442h-77.1v-78.6h77.1c0.4,0,0.8,0.4,0.8,0.8s-0.4,0.8-0.8,0.8h-75.5v75.4h75.5c0.4,0,0.8,0.4,0.8,0.8
			S232.4,442,231.9,442z"/>
	</g>
	<g>
		<path d="M231.9,531.9h-77.1v-78.6h77.1c0.4,0,0.8,0.4,0.8,0.8s-0.4,0.8-0.8,0.8h-75.5v75.4h75.5c0.4,0,0.8,0.4,0.8,0.8
			S232.4,531.9,231.9,531.9z"/>
	</g>
	<g>
		<path d="M156.5,621.7H142v-77.1H69.8v77.1H55.4v-77.1H0l0-14.4h55.3v-75.4H0l0-0.8l0-13.6h55.4V365H0l0-0.8v-13.6h55.4v-75.4H2.9
			l0.5-4c0.1-0.4,0.5-0.7,0.9-0.7c0.4,0.1,0.7,0.5,0.7,0.9l-0.3,2.1H57v78.6H1.6v11.2H57V442H1.6l0,11.2H57v78.6H1.6l0,11.2H57v77.1
			h11.3v-77.1h75.4v77.1h11.3v-77.1h77.1c0.4,0,0.8,0.4,0.8,0.8c0,0.4-0.4,0.8-0.8,0.8h-75.5V621.7z"/>
	</g>
	<g>
		<path d="M4.3,271.9c0,0-0.1,0-0.1,0c-0.4-0.1-0.7-0.5-0.7-0.9l0.8-5.1l0.9-5.1h50.3v-75.4H28l1.9-4.2l1.9-4.1l2.9-6h20.6v-35.6
			l3.2-4.8l4.6-6.5l6.7-9v55.9H142V95.4H86.2L100.1,81H142V46.1l14.5-9.6V81h75.5c0.4,0,0.8,0.4,0.8,0.8s-0.4,0.8-0.8,0.8h-77.1
			V39.5L143.6,47v35.7h-42.8L89.9,93.8h53.6v78.7H68.2v-52.6l-3.8,5.1l-4.5,6.4l-3,4.4v36.7H35.8l-2.5,5.1l-1.9,4.1l-0.9,2H57v78.6
			H6.5l-0.6,3.8L5,271.3C5,271.7,4.6,271.9,4.3,271.9z"/>
	</g>
	<g>
		<path d="M144,531.9H69v-78.6h75V531.9z M70.6,530.3h71.8v-75.4H70.6V530.3z"/>
	</g>
	<g>
		<path d="M144,442H69v-78.6h75V442z M70.6,440.4h71.8V365H70.6V440.4z"/>
	</g>
	<g>
		<path d="M144,352.2H69v-78.6h75V352.2z M70.6,350.6h71.8v-75.4H70.6V350.6z"/>
	</g>
	<g>
		<path d="M144,262.3H69v-78.6h75V262.3z M70.6,260.7h71.8v-75.4H70.6V260.7z"/>
	</g>
	<g>
		<path d="M149.5,92.7c-2.3,0-4.2-1.9-4.2-4.2c0-2.3,1.9-4.2,4.2-4.2s4.2,1.9,4.2,4.2C153.8,90.8,151.9,92.7,149.5,92.7z
			 M149.5,85.9c-1.4,0-2.6,1.2-2.6,2.6c0,1.4,1.2,2.6,2.6,2.6c1.4,0,2.6-1.2,2.6-2.6C152.2,87,151,85.9,149.5,85.9z"/>
	</g>
	<g>
		<path d="M149.5,182.4c-2.3,0-4.2-1.9-4.2-4.2c0-2.3,1.9-4.2,4.2-4.2s4.2,1.9,4.2,4.2C153.8,180.5,151.9,182.4,149.5,182.4z
			 M149.5,175.5c-1.4,0-2.6,1.2-2.6,2.6c0,1.4,1.2,2.6,2.6,2.6c1.4,0,2.6-1.2,2.6-2.6C152.2,176.7,151,175.5,149.5,175.5z"/>
	</g>
	<g>
		<path d="M149.5,272.1c-2.3,0-4.2-1.9-4.2-4.2c0-2.3,1.9-4.2,4.2-4.2s4.2,1.9,4.2,4.2C153.8,270.2,151.9,272.1,149.5,272.1z
			 M149.5,265.2c-1.4,0-2.6,1.2-2.6,2.6c0,1.5,1.2,2.6,2.6,2.6c1.4,0,2.6-1.2,2.6-2.6C152.2,266.4,151,265.2,149.5,265.2z"/>
	</g>
	<g>
		<path d="M149.5,361.8c-2.3,0-4.2-1.9-4.2-4.2c0-2.3,1.9-4.2,4.2-4.2s4.2,1.9,4.2,4.2C153.8,359.9,151.9,361.8,149.5,361.8z
			 M149.5,354.9c-1.4,0-2.6,1.2-2.6,2.6c0,1.4,1.2,2.6,2.6,2.6c1.4,0,2.6-1.2,2.6-2.6C152.2,356.1,151,354.9,149.5,354.9z"/>
	</g>
	<g>
		<path d="M149.5,451.5c-2.3,0-4.2-1.9-4.2-4.2c0-2.3,1.9-4.2,4.2-4.2s4.2,1.9,4.2,4.2C153.8,449.6,151.9,451.5,149.5,451.5z
			 M149.5,444.6c-1.4,0-2.6,1.2-2.6,2.6c0,1.4,1.2,2.6,2.6,2.6c1.4,0,2.6-1.2,2.6-2.6C152.2,445.8,151,444.6,149.5,444.6z"/>
	</g>
	<g>
		<path d="M149.5,541.2c-2.3,0-4.2-1.9-4.2-4.2c0-2.3,1.9-4.2,4.2-4.2s4.2,1.9,4.2,4.2C153.8,539.3,151.9,541.2,149.5,541.2z
			 M149.5,534.3c-1.4,0-2.6,1.2-2.6,2.6c0,1.5,1.2,2.6,2.6,2.6c1.4,0,2.6-1.2,2.6-2.6C152.2,535.5,151,534.3,149.5,534.3z"/>
	</g>
	<g>
		<path d="M63.3,182.4c-2.3,0-4.2-1.9-4.2-4.2c0-2.3,1.9-4.2,4.2-4.2c2.3,0,4.2,1.9,4.2,4.2C67.6,180.5,65.7,182.4,63.3,182.4z
			 M63.3,175.5c-1.5,0-2.6,1.2-2.6,2.6c0,1.4,1.2,2.6,2.6,2.6c1.4,0,2.6-1.2,2.6-2.6C66,176.7,64.8,175.5,63.3,175.5z"/>
	</g>
	<g>
		<path d="M63.3,272.1c-2.3,0-4.2-1.9-4.2-4.2c0-2.3,1.9-4.2,4.2-4.2c2.3,0,4.2,1.9,4.2,4.2C67.6,270.2,65.7,272.1,63.3,272.1z
			 M63.3,265.2c-1.5,0-2.6,1.2-2.6,2.6c0,1.5,1.2,2.6,2.6,2.6c1.4,0,2.6-1.2,2.6-2.6C66,266.4,64.8,265.2,63.3,265.2z"/>
	</g>
	<g>
		<path d="M63.3,361.8c-2.3,0-4.2-1.9-4.2-4.2c0-2.3,1.9-4.2,4.2-4.2c2.3,0,4.2,1.9,4.2,4.2C67.6,359.9,65.7,361.8,63.3,361.8z
			 M63.3,354.9c-1.5,0-2.6,1.2-2.6,2.6c0,1.4,1.2,2.6,2.6,2.6c1.4,0,2.6-1.2,2.6-2.6C66,356.1,64.8,354.9,63.3,354.9z"/>
	</g>
	<g>
		<path d="M63.3,451.5c-2.3,0-4.2-1.9-4.2-4.2c0-2.3,1.9-4.2,4.2-4.2c2.3,0,4.2,1.9,4.2,4.2C67.6,449.6,65.7,451.5,63.3,451.5z
			 M63.3,444.6c-1.5,0-2.6,1.2-2.6,2.6c0,1.4,1.2,2.6,2.6,2.6c1.4,0,2.6-1.2,2.6-2.6C66,445.8,64.8,444.6,63.3,444.6z"/>
	</g>
	<g>
		<path d="M63.3,541.2c-2.3,0-4.2-1.9-4.2-4.2c0-2.3,1.9-4.2,4.2-4.2c2.3,0,4.2,1.9,4.2,4.2C67.6,539.3,65.7,541.2,63.3,541.2z
			 M63.3,534.3c-1.5,0-2.6,1.2-2.6,2.6c0,1.5,1.2,2.6,2.6,2.6c1.4,0,2.6-1.2,2.6-2.6C66,535.5,64.8,534.3,63.3,534.3z"/>
	</g>
</g>
</svg>
