<svg width="233" height="634" viewBox="0 0 233 634" fill="none" xmlns="http://www.w3.org/2000/svg">
<g clip-path="url(#clip0_30_2)">
<path d="M0.8004 620.9V632.7H231.9V620.9H176.5H163.7H89.9004H77.0004H0.8004Z" fill="#A06B44"/>
<path d="M0.80011 543.9V621H77.1001V543.9H0.80011ZM26.7001 584C26.7001 581.3 26.0001 578.5 24.6001 576C27.4001 576 30.2001 575.2 32.6001 573.9C35.0001 572.5 37.0001 570.5 38.4001 568.1C41.2001 573 46.5001 576.1 52.2001 576.1C50.8001 578.6 50.1001 581.3 50.1001 584.1C50.1001 586.9 50.8001 589.6 52.2001 592.1C49.4001 592.1 46.6001 592.9 44.2001 594.2C41.8001 595.6 39.8001 597.6 38.4001 600C37.0001 597.5 35.0001 595.5 32.6001 594.2C30.2001 592.8 27.5001 592.1 24.6001 592.1C25.9001 589.5 26.7001 586.8 26.7001 584Z" fill="#00CC66"/>
<path d="M0.8004 531.1V543.9H77.1004V621H90.0004V543.9H163.7V621H176.5V543.9H231.9V531.1H176.6V454.1H231.9V441.3H176.5V364.3H231.9V351.5H176.5V274.5H228.9L228.5 271.5C228.5 271.4 228.5 271.4 228.5 271.3L227.7 266L226.9 261.6H176.5V184.6H203.4L202 181.5L200.1 177.4L197.4 171.8H176.5V135.6L173.4 131L168.8 124.5L163.6 117.5V171.7H89.8004V94.6H144.6L132.3 81.8H89.9004V46.6L77.0004 38V81.9H0.700394V94.7H77.0004V171.8H0.700394V184.6H77.0004V261.6H0.700394V274.4H77.0004V351.4H0.700394V364.2H77.0004V441.2H0.700394V454H77.0004V531H0.8004V531.1ZM79.7004 88.5C79.7004 86.6 81.2004 85.1 83.1004 85.1C85.0004 85.1 86.5004 86.6 86.5004 88.5C86.5004 90.4 85.0004 91.9 83.1004 91.9C81.2004 91.9 79.7004 90.4 79.7004 88.5ZM79.7004 178.2C79.7004 176.3 81.2004 174.8 83.1004 174.8C85.0004 174.8 86.5004 176.3 86.5004 178.2C86.5004 180.1 85.0004 181.6 83.1004 181.6C81.2004 181.6 79.7004 180.1 79.7004 178.2ZM79.7004 267.9C79.7004 266 81.2004 264.5 83.1004 264.5C85.0004 264.5 86.5004 266 86.5004 267.9C86.5004 269.8 85.0004 271.3 83.1004 271.3C81.2004 271.3 79.7004 269.8 79.7004 267.9ZM79.7004 357.6C79.7004 355.7 81.2004 354.2 83.1004 354.2C85.0004 354.2 86.5004 355.7 86.5004 357.6C86.5004 359.5 85.0004 361 83.1004 361C81.2004 361 79.7004 359.5 79.7004 357.6ZM79.7004 447.3C79.7004 445.4 81.2004 443.9 83.1004 443.9C85.0004 443.9 86.5004 445.4 86.5004 447.3C86.5004 449.2 85.0004 450.7 83.1004 450.7C81.2004 450.7 79.7004 449.2 79.7004 447.3ZM79.7004 536.9C79.7004 535 81.2004 533.5 83.1004 533.5C85.0004 533.5 86.5004 535 86.5004 536.9C86.5004 538.8 85.0004 540.3 83.1004 540.3C81.2004 540.3 79.7004 538.8 79.7004 536.9ZM89.5004 531.1V454.1H162.9V531.1H89.5004ZM89.5004 441.2V364.2H162.9V441.2H89.5004ZM89.5004 351.4V274.4H162.9V351.4H89.5004ZM89.5004 261.5V184.5H162.9V261.5H89.5004ZM165.9 178.2C165.9 176.3 167.4 174.8 169.3 174.8C171.2 174.8 172.7 176.3 172.7 178.2C172.7 180.1 171.2 181.6 169.3 181.6C167.5 181.6 165.9 180.1 165.9 178.2ZM165.9 267.9C165.9 266 167.4 264.5 169.3 264.5C171.2 264.5 172.7 266 172.7 267.9C172.7 269.8 171.2 271.3 169.3 271.3C167.5 271.3 165.9 269.8 165.9 267.9ZM165.9 357.6C165.9 355.7 167.4 354.2 169.3 354.2C171.2 354.2 172.7 355.7 172.7 357.6C172.7 359.5 171.2 361 169.3 361C167.5 361 165.9 359.5 165.9 357.6ZM165.9 447.3C165.9 445.4 167.4 443.9 169.3 443.9C171.2 443.9 172.7 445.4 172.7 447.3C172.7 449.2 171.2 450.7 169.3 450.7C167.5 450.7 165.9 449.2 165.9 447.3ZM165.9 536.9C165.9 535 167.4 533.5 169.3 533.5C171.2 533.5 172.7 535 172.7 536.9C172.7 538.8 171.2 540.3 169.3 540.3C167.5 540.4 165.9 538.8 165.9 536.9Z" fill="#D90368"/>
<path d="M0.80011 454V531H77.1001V454H0.80011ZM26.7001 494.2C26.7001 491.4 26.0001 488.7 24.6001 486.2C27.4001 486.2 30.2001 485.4 32.6001 484.1C35.0001 482.7 37.0001 480.7 38.4001 478.3C41.2001 483.2 46.5001 486.3 52.2001 486.3C50.8001 488.8 50.1001 491.5 50.1001 494.3C50.1001 497 50.8001 499.8 52.2001 502.3C49.4001 502.3 46.6001 503.1 44.2001 504.4C41.8001 505.8 39.8001 507.8 38.4001 510.2C37.0001 507.7 35.0001 505.7 32.6001 504.4C30.2001 503 27.5001 502.3 24.6001 502.3C25.9001 499.7 26.7001 496.9 26.7001 494.2Z" fill="#00CC66"/>
<path d="M0.80011 364.2V441.2H77.1001V364.2H0.80011ZM26.7001 401.3C26.7001 398.5 26.0001 395.8 24.6001 393.3C27.4001 393.3 30.2001 392.5 32.6001 391.2C35.0001 389.8 37.0001 387.8 38.4001 385.4C41.2001 390.3 46.5001 393.4 52.2001 393.4C50.8001 395.9 50.1001 398.6 50.1001 401.4C50.1001 404.1 50.8001 406.9 52.2001 409.4C49.4001 409.4 46.6001 410.2 44.2001 411.5C41.8001 412.9 39.8001 414.9 38.4001 417.3C37.0001 414.8 35.0001 412.8 32.6001 411.5C30.2001 410.1 27.5001 409.4 24.6001 409.4C25.9001 406.8 26.7001 404 26.7001 401.3Z" fill="#00CC66"/>
<path d="M0.80011 274.3V351.3H77.1001V274.3H0.80011ZM26.7001 312.2C26.7001 309.4 26.0001 306.7 24.6001 304.2C27.4001 304.2 30.2001 303.4 32.6001 302.1C35.0001 300.7 37.0001 298.7 38.4001 296.3C41.2001 301.2 46.5001 304.3 52.2001 304.3C50.8001 306.8 50.1001 309.5 50.1001 312.3C50.1001 315.1 50.8001 317.8 52.2001 320.3C49.4001 320.3 46.6001 321.1 44.2001 322.4C41.8001 323.8 39.8001 325.8 38.4001 328.2C37.0001 325.7 35.0001 323.7 32.6001 322.4C30.2001 321 27.5001 320.3 24.6001 320.3C25.9001 317.7 26.7001 315 26.7001 312.2Z" fill="#00CC66"/>
<path d="M0.80011 184.5V261.5H77.1001V184.5H0.80011ZM26.7001 222.5C26.7001 219.7 26.0001 217 24.6001 214.5C27.4001 214.5 30.2001 213.7 32.6001 212.4C35.0001 211 37.0001 209 38.4001 206.6C41.2001 211.5 46.5001 214.6 52.2001 214.6C50.8001 217.1 50.1001 219.8 50.1001 222.6C50.1001 225.4 50.8001 228.1 52.2001 230.6C49.4001 230.6 46.6001 231.4 44.2001 232.7C41.8001 234.1 39.8001 236.1 38.4001 238.5C37.0001 236 35.0001 234 32.6001 232.7C30.2001 231.3 27.5001 230.6 24.6001 230.6C25.9001 228 26.7001 225.2 26.7001 222.5Z" fill="#00CC66"/>
<path d="M0.80011 94.6V171.7H77.1001V94.6H0.80011ZM26.7001 132.8C26.7001 130 26.0001 127.3 24.6001 124.8C27.4001 124.8 30.2001 124 32.6001 122.7C35.0001 121.3 37.0001 119.3 38.4001 116.9C41.2001 121.8 46.5001 124.9 52.2001 124.9C50.8001 127.4 50.1001 130.1 50.1001 132.9C50.1001 135.7 50.8001 138.4 52.2001 140.9C49.4001 140.9 46.6001 141.7 44.2001 143C41.8001 144.4 39.8001 146.4 38.4001 148.8C37.0001 146.3 35.0001 144.3 32.6001 143C30.2001 141.6 27.5001 140.9 24.6001 140.9C25.9001 138.3 26.7001 135.5 26.7001 132.8Z" fill="#00CC66"/>
<path d="M0.80011 1.40002V81.8H77.1001V38L90.0001 46.6L90.1001 46.5C68.2001 31.1 44.3001 18.4 18.9001 8.50002L0.80011 1.40002ZM26.7001 45.5C26.7001 42.7 26.0001 40 24.6001 37.5C27.4001 37.5 30.2001 36.7 32.6001 35.4C35.0001 34 37.0001 32 38.4001 29.6C41.2001 34.5 46.5001 37.6 52.2001 37.6C50.8001 40.1 50.1001 42.8 50.1001 45.6C50.1001 48.4 50.8001 51.1 52.2001 53.6C49.4001 53.6 46.6001 54.4 44.2001 55.7C41.8001 57.1 39.8001 59.1 38.4001 61.5C37.0001 59 35.0001 57 32.6001 55.7C30.2001 54.3 27.5001 53.6 24.6001 53.6C25.9001 51 26.7001 48.3 26.7001 45.5Z" fill="#00CC66"/>
<path d="M24.5001 37.6C25.9001 40.1 26.6001 42.8 26.6001 45.6C26.6001 48.4 25.9001 51.1 24.5001 53.6C27.3001 53.6 30.1001 54.4 32.5001 55.7C34.9001 57.1 36.9001 59.1 38.3001 61.5C39.7001 59 41.7001 57 44.1001 55.7C46.5001 54.3 49.2001 53.6 52.1001 53.6C50.7001 51.1 50.0001 48.4 50.0001 45.6C50.0001 42.8 50.7001 40.1 52.1001 37.6C46.4001 37.6 41.2001 34.6 38.3001 29.6C36.9001 32.1 34.9001 34.1 32.5001 35.4C30.1001 36.8 27.4001 37.6 24.5001 37.6ZM28.6001 51.1C29.7001 47.5 29.7001 43.6 28.6001 39.9C32.3001 39.1 35.7001 37.1 38.3001 34.3C40.9001 37.1 44.3001 39 48.0001 39.9C46.9001 43.5 46.9001 47.4 48.0001 51.1C44.3001 51.9 40.9001 53.9 38.3001 56.7C35.7001 53.9 32.3001 52 28.6001 51.1Z" fill="#F2BF2E"/>
<path d="M24.5001 124.8C25.9001 127.3 26.6001 130 26.6001 132.8C26.6001 135.6 25.9001 138.3 24.5001 140.8C27.3001 140.8 30.1001 141.6 32.5001 142.9C34.9001 144.3 36.9001 146.3 38.3001 148.7C39.7001 146.2 41.7001 144.2 44.1001 142.9C46.5001 141.5 49.2001 140.8 52.1001 140.8C50.7001 138.3 50.0001 135.6 50.0001 132.8C50.0001 130 50.7001 127.3 52.1001 124.8C46.4001 124.8 41.2001 121.8 38.3001 116.8C36.9001 119.3 34.9001 121.3 32.5001 122.6C30.1001 124 27.4001 124.8 24.5001 124.8ZM28.6001 138.3C29.7001 134.7 29.7001 130.8 28.6001 127.1C32.3001 126.3 35.7001 124.3 38.3001 121.5C40.9001 124.3 44.3001 126.2 48.0001 127.1C46.9001 130.7 46.9001 134.6 48.0001 138.3C44.3001 139.1 40.9001 141.1 38.3001 143.9C35.7001 141.1 32.3001 139.2 28.6001 138.3Z" fill="#F2BF2E"/>
<path d="M24.5001 214.5C25.9001 217 26.6001 219.7 26.6001 222.5C26.6001 225.3 25.9001 228 24.5001 230.5C27.3001 230.5 30.1001 231.3 32.5001 232.6C34.9001 234 36.9001 236 38.3001 238.4C39.7001 235.9 41.7001 233.9 44.1001 232.6C46.5001 231.2 49.2001 230.5 52.1001 230.5C50.7001 228 50.0001 225.3 50.0001 222.5C50.0001 219.7 50.7001 217 52.1001 214.5C46.4001 214.5 41.2001 211.5 38.3001 206.5C36.9001 209 34.9001 211 32.5001 212.3C30.1001 213.8 27.4001 214.5 24.5001 214.5ZM28.6001 228.1C29.7001 224.5 29.7001 220.6 28.6001 216.9C32.3001 216.1 35.7001 214.1 38.3001 211.3C40.9001 214.1 44.3001 216 48.0001 216.9C46.9001 220.5 46.9001 224.4 48.0001 228.1C44.3001 228.9 40.9001 230.9 38.3001 233.7C35.7001 230.9 32.3001 228.9 28.6001 228.1Z" fill="#F2BF2E"/>
<path d="M24.5001 304.3C25.9001 306.8 26.6001 309.5 26.6001 312.3C26.6001 315.1 25.9001 317.8 24.5001 320.3C27.3001 320.3 30.1001 321.1 32.5001 322.4C34.9001 323.8 36.9001 325.8 38.3001 328.2C39.7001 325.7 41.7001 323.7 44.1001 322.4C46.5001 321 49.2001 320.3 52.1001 320.3C50.7001 317.8 50.0001 315.1 50.0001 312.3C50.0001 309.5 50.7001 306.8 52.1001 304.3C46.4001 304.3 41.2001 301.3 38.3001 296.3C36.9001 298.8 34.9001 300.8 32.5001 302.1C30.1001 303.5 27.4001 304.3 24.5001 304.3ZM28.6001 317.8C29.7001 314.2 29.7001 310.3 28.6001 306.6C32.3001 305.8 35.7001 303.8 38.3001 301C40.9001 303.8 44.3001 305.7 48.0001 306.6C46.9001 310.2 46.9001 314.1 48.0001 317.8C44.3001 318.6 40.9001 320.6 38.3001 323.4C35.7001 320.6 32.3001 318.6 28.6001 317.8Z" fill="#F2BF2E"/>
<path d="M24.5001 393.3C25.9001 395.8 26.6001 398.5 26.6001 401.3C26.6001 404 25.9001 406.8 24.5001 409.3C27.3001 409.3 30.1001 410.1 32.5001 411.4C34.9001 412.8 36.9001 414.8 38.3001 417.2C39.7001 414.7 41.7001 412.7 44.1001 411.4C46.5001 410 49.2001 409.3 52.1001 409.3C50.7001 406.8 50.0001 404.1 50.0001 401.3C50.0001 398.5 50.7001 395.8 52.1001 393.3C46.4001 393.3 41.2001 390.3 38.3001 385.3C36.9001 387.8 34.9001 389.8 32.5001 391.1C30.1001 392.6 27.4001 393.3 24.5001 393.3ZM28.6001 406.9C29.7001 403.3 29.7001 399.4 28.6001 395.7C32.3001 394.9 35.7001 392.9 38.3001 390.1C40.9001 392.9 44.3001 394.8 48.0001 395.7C46.9001 399.3 46.9001 403.2 48.0001 406.9C44.3001 407.7 40.9001 409.7 38.3001 412.5C35.7001 409.7 32.3001 407.7 28.6001 406.9Z" fill="#F2BF2E"/>
<path d="M24.5001 486.2C25.9001 488.7 26.6001 491.4 26.6001 494.2C26.6001 496.9 25.9001 499.7 24.5001 502.2C27.3001 502.2 30.1001 503 32.5001 504.3C34.9001 505.7 36.9001 507.7 38.3001 510.1C39.7001 507.6 41.7001 505.6 44.1001 504.3C46.5001 502.9 49.2001 502.2 52.1001 502.2C50.7001 499.7 50.0001 497 50.0001 494.2C50.0001 491.4 50.7001 488.7 52.1001 486.2C46.4001 486.2 41.2001 483.2 38.3001 478.2C36.9001 480.7 34.9001 482.7 32.5001 484C30.1001 485.5 27.4001 486.2 24.5001 486.2ZM28.6001 499.8C29.7001 496.2 29.7001 492.3 28.6001 488.6C32.3001 487.8 35.7001 485.8 38.3001 483C40.9001 485.8 44.3001 487.7 48.0001 488.6C46.9001 492.2 46.9001 496.1 48.0001 499.8C44.3001 500.6 40.9001 502.6 38.3001 505.4C35.7001 502.5 32.3001 500.6 28.6001 499.8Z" fill="#F2BF2E"/>
<path d="M24.5001 576.1C25.9001 578.6 26.6001 581.3 26.6001 584.1C26.6001 586.9 25.9001 589.6 24.5001 592.1C27.3001 592.1 30.1001 592.9 32.5001 594.2C34.9001 595.6 36.9001 597.6 38.3001 600C39.7001 597.5 41.7001 595.5 44.1001 594.2C46.5001 592.8 49.2001 592.1 52.1001 592.1C50.7001 589.6 50.0001 586.9 50.0001 584.1C50.0001 581.3 50.7001 578.6 52.1001 576.1C46.4001 576.1 41.2001 573.1 38.3001 568.1C36.9001 570.6 34.9001 572.6 32.5001 573.9C30.1001 575.3 27.4001 576.1 24.5001 576.1ZM28.6001 589.6C29.7001 586 29.7001 582.1 28.6001 578.4C32.3001 577.6 35.7001 575.6 38.3001 572.8C40.9001 575.6 44.3001 577.5 48.0001 578.4C46.9001 582 46.9001 585.9 48.0001 589.6C44.3001 590.4 40.9001 592.4 38.3001 595.2C35.7001 592.4 32.3001 590.5 28.6001 589.6Z" fill="#F2BF2E"/>
<path d="M28.6 40C29.7 43.6 29.7 47.5 28.6 51.2C32.3 52 35.7 54 38.3 56.8C40.9 54 44.3 52.1 48 51.2C46.9 47.6 46.9 43.7 48 40C44.3 39.2 40.9 37.2 38.3 34.4C35.7 37.2 32.3 39.1 28.6 40ZM33.7 45.5C33.7 42.9 35.8 40.9 38.3 40.9C40.8 40.9 42.9 43 42.9 45.5C42.9 48 40.8 50.1 38.3 50.1C35.8 50.1 33.7 48.1 33.7 45.5Z" fill="#F2BF2E"/>
<path d="M28.6 127.2C29.7 130.8 29.7 134.7 28.6 138.4C32.3 139.2 35.7 141.2 38.3 144C40.9 141.2 44.3 139.3 48 138.4C46.9 134.8 46.9 130.9 48 127.2C44.3 126.4 40.9 124.4 38.3 121.6C35.7 124.4 32.3 126.3 28.6 127.2ZM33.7 132.8C33.7 130.2 35.8 128.2 38.3 128.2C40.8 128.2 42.9 130.3 42.9 132.8C42.9 135.3 40.8 137.4 38.3 137.4C35.8 137.4 33.7 135.3 33.7 132.8Z" fill="#F2BF2E"/>
<path d="M28.6 216.9C29.7 220.5 29.7 224.4 28.6 228.1C32.3 228.9 35.7 230.9 38.3 233.7C40.9 230.9 44.3 229 48 228.1C46.9 224.5 46.9 220.6 48 216.9C44.3 216.1 40.9 214.1 38.3 211.3C35.7 214.1 32.3 216.1 28.6 216.9ZM33.7 222.5C33.7 219.9 35.8 217.9 38.3 217.9C40.8 217.9 42.9 220 42.9 222.5C42.9 225 40.8 227.1 38.3 227.1C35.8 227.1 33.7 225.1 33.7 222.5Z" fill="#F2BF2E"/>
<path d="M28.6 306.6C29.7 310.2 29.7 314.1 28.6 317.8C32.3 318.6 35.7 320.6 38.3 323.4C40.9 320.6 44.3 318.7 48 317.8C46.9 314.2 46.9 310.3 48 306.6C44.3 305.8 40.9 303.8 38.3 301C35.7 303.8 32.3 305.8 28.6 306.6ZM33.7 312.2C33.7 309.6 35.8 307.6 38.3 307.6C40.8 307.6 42.9 309.7 42.9 312.2C42.9 314.7 40.8 316.8 38.3 316.8C35.8 316.8 33.7 314.8 33.7 312.2Z" fill="#F2BF2E"/>
<path d="M28.6 395.7C29.7 399.3 29.7 403.2 28.6 406.9C32.3 407.7 35.7 409.7 38.3 412.5C40.9 409.7 44.3 407.8 48 406.9C46.9 403.3 46.9 399.4 48 395.7C44.3 394.9 40.9 392.9 38.3 390.1C35.7 392.9 32.3 394.9 28.6 395.7ZM33.7 401.3C33.7 398.7 35.8 396.7 38.3 396.7C40.8 396.7 42.9 398.8 42.9 401.3C42.9 403.8 40.8 405.9 38.3 405.9C35.8 405.9 33.7 403.8 33.7 401.3Z" fill="#F2BF2E"/>
<path d="M28.6 488.6C29.7 492.2 29.7 496.1 28.6 499.8C32.3 500.6 35.7 502.6 38.3 505.4C40.9 502.6 44.3 500.7 48 499.8C46.9 496.2 46.9 492.3 48 488.6C44.3 487.8 40.9 485.8 38.3 483C35.7 485.8 32.3 487.7 28.6 488.6ZM33.7 494.2C33.7 491.6 35.8 489.6 38.3 489.6C40.8 489.6 42.9 491.7 42.9 494.2C42.9 496.8 40.8 498.8 38.3 498.8C35.8 498.8 33.7 496.7 33.7 494.2Z" fill="#F2BF2E"/>
<path d="M28.6 578.5C29.7 582.1 29.7 586 28.6 589.7C32.3 590.5 35.7 592.5 38.3 595.3C40.9 592.5 44.3 590.6 48 589.7C46.9 586.1 46.9 582.2 48 578.5C44.3 577.7 40.9 575.7 38.3 572.9C35.7 575.7 32.3 577.6 28.6 578.5ZM33.7 584C33.7 581.4 35.8 579.4 38.3 579.4C40.8 579.4 42.9 581.5 42.9 584C42.9 586.5 40.8 588.6 38.3 588.6C35.8 588.6 33.7 586.6 33.7 584Z" fill="#F2BF2E"/>
<path d="M38.3004 40.9C35.7004 40.9 33.7004 43 33.7004 45.5C33.7004 48 35.8004 50.1 38.3004 50.1C40.8004 50.1 42.9004 48 42.9004 45.5C42.9004 43 40.9004 40.9 38.3004 40.9ZM35.8004 45.5C35.8004 44.1 36.9004 43 38.3004 43C39.7004 43 40.8004 44.1 40.8004 45.5C40.8004 46.9 39.7004 48 38.3004 48C36.9004 48.1 35.8004 46.9 35.8004 45.5Z" fill="#F2BF2E"/>
<path d="M38.3004 128.1C35.7004 128.1 33.7004 130.2 33.7004 132.7C33.7004 135.2 35.8004 137.3 38.3004 137.3C40.8004 137.3 42.9004 135.2 42.9004 132.7C42.9004 130.2 40.9004 128.1 38.3004 128.1ZM35.8004 132.8C35.8004 131.4 36.9004 130.3 38.3004 130.3C39.7004 130.3 40.8004 131.4 40.8004 132.8C40.8004 134.2 39.7004 135.3 38.3004 135.3C36.9004 135.3 35.8004 134.1 35.8004 132.8Z" fill="#F2BF2E"/>
<path d="M38.3004 217.8C35.7004 217.8 33.7004 219.9 33.7004 222.4C33.7004 224.9 35.8004 227 38.3004 227C40.8004 227 42.9004 224.9 42.9004 222.4C42.9004 219.9 40.9004 217.8 38.3004 217.8ZM35.8004 222.5C35.8004 221.1 36.9004 220 38.3004 220C39.7004 220 40.8004 221.1 40.8004 222.5C40.8004 223.9 39.7004 225 38.3004 225C36.9004 225 35.8004 223.9 35.8004 222.5Z" fill="#F2BF2E"/>
<path d="M38.3004 307.6C35.7004 307.6 33.7004 309.7 33.7004 312.2C33.7004 314.7 35.8004 316.8 38.3004 316.8C40.8004 316.8 42.9004 314.7 42.9004 312.2C42.9004 309.7 40.9004 307.6 38.3004 307.6ZM35.8004 312.2C35.8004 310.8 36.9004 309.7 38.3004 309.7C39.7004 309.7 40.8004 310.8 40.8004 312.2C40.8004 313.6 39.7004 314.7 38.3004 314.7C36.9004 314.7 35.8004 313.6 35.8004 312.2Z" fill="#F2BF2E"/>
<path d="M38.3004 396.6C35.7004 396.6 33.7004 398.7 33.7004 401.2C33.7004 403.7 35.8004 405.8 38.3004 405.8C40.8004 405.8 42.9004 403.7 42.9004 401.2C42.9004 398.7 40.9004 396.6 38.3004 396.6ZM35.8004 401.3C35.8004 399.9 36.9004 398.8 38.3004 398.8C39.7004 398.8 40.8004 399.9 40.8004 401.3C40.8004 402.7 39.7004 403.8 38.3004 403.8C36.9004 403.8 35.8004 402.7 35.8004 401.3Z" fill="#F2BF2E"/>
<path d="M38.3004 489.5C35.7004 489.5 33.7004 491.6 33.7004 494.1C33.7004 496.7 35.8004 498.7 38.3004 498.7C40.8004 498.7 42.9004 496.6 42.9004 494.1C43.0004 491.6 40.9004 489.5 38.3004 489.5ZM35.8004 494.2C35.8004 492.8 36.9004 491.7 38.3004 491.7C39.7004 491.7 40.8004 492.8 40.8004 494.2C40.8004 495.6 39.7004 496.7 38.3004 496.7C36.9004 496.7 35.8004 495.6 35.8004 494.2Z" fill="#F2BF2E"/>
<path d="M38.3004 579.4C35.7004 579.4 33.7004 581.5 33.7004 584C33.7004 586.5 35.8004 588.6 38.3004 588.6C40.8004 588.6 42.9004 586.5 42.9004 584C42.9004 581.5 40.9004 579.4 38.3004 579.4ZM35.8004 584C35.8004 582.6 36.9004 581.5 38.3004 581.5C39.7004 581.5 40.8004 582.6 40.8004 584C40.8004 585.4 39.7004 586.5 38.3004 586.5C36.9004 586.6 35.8004 585.4 35.8004 584Z" fill="#F2BF2E"/>
<path d="M38.3003 43C36.9003 43 35.8003 44.1 35.8003 45.5C35.8003 46.9 36.9003 48 38.3003 48C39.7003 48 40.8003 46.9 40.8003 45.5C40.8003 44.1 39.7003 43 38.3003 43Z" fill="#F2BF2E"/>
<path d="M38.3003 130.2C36.9003 130.2 35.8003 131.3 35.8003 132.7C35.8003 134.1 36.9003 135.2 38.3003 135.2C39.7003 135.2 40.8003 134.1 40.8003 132.7C40.8003 131.3 39.7003 130.2 38.3003 130.2Z" fill="#F2BF2E"/>
<path d="M38.3003 220C36.9003 220 35.8003 221.1 35.8003 222.5C35.8003 223.9 36.9003 225 38.3003 225C39.7003 225 40.8003 223.9 40.8003 222.5C40.8003 221.1 39.7003 220 38.3003 220Z" fill="#F2BF2E"/>
<path d="M38.3003 309.7C36.9003 309.7 35.8003 310.8 35.8003 312.2C35.8003 313.6 36.9003 314.7 38.3003 314.7C39.7003 314.7 40.8003 313.6 40.8003 312.2C40.8003 310.8 39.7003 309.7 38.3003 309.7Z" fill="#F2BF2E"/>
<path d="M38.3003 398.8C36.9003 398.8 35.8003 399.9 35.8003 401.3C35.8003 402.7 36.9003 403.8 38.3003 403.8C39.7003 403.8 40.8003 402.7 40.8003 401.3C40.8003 399.9 39.7003 398.8 38.3003 398.8Z" fill="#F2BF2E"/>
<path d="M38.3003 491.6C36.9003 491.6 35.8003 492.7 35.8003 494.1C35.8003 495.5 36.9003 496.6 38.3003 496.6C39.7003 496.6 40.8003 495.5 40.8003 494.1C40.8003 492.8 39.7003 491.6 38.3003 491.6Z" fill="#F2BF2E"/>
<path d="M38.3003 581.5C36.9003 581.5 35.8003 582.6 35.8003 584C35.8003 585.4 36.9003 586.5 38.3003 586.5C39.7003 586.5 40.8003 585.4 40.8003 584C40.8003 582.6 39.7003 581.5 38.3003 581.5Z" fill="#F2BF2E"/>
<path d="M83.2001 85.1C81.3001 85.1 79.8001 86.6 79.8001 88.5C79.8001 90.4 81.3001 91.9 83.2001 91.9C85.1001 91.9 86.6001 90.4 86.6001 88.5C86.6001 86.6 85.1001 85.1 83.2001 85.1Z" fill="#F2BF2E"/>
<path d="M83.2001 181.6C81.3223 181.6 79.8001 180.078 79.8001 178.2C79.8001 176.322 81.3223 174.8 83.2001 174.8C85.0779 174.8 86.6001 176.322 86.6001 178.2C86.6001 180.078 85.0779 181.6 83.2001 181.6Z" fill="#F2BF2E"/>
<path d="M83.2001 264.4C81.3001 264.4 79.8001 265.9 79.8001 267.8C79.8001 269.7 81.3001 271.2 83.2001 271.2C85.1001 271.2 86.6001 269.7 86.6001 267.8C86.6001 265.9 85.1001 264.4 83.2001 264.4Z" fill="#F2BF2E"/>
<path d="M83.2001 354.1C81.3001 354.1 79.8001 355.6 79.8001 357.5C79.8001 359.4 81.3001 360.9 83.2001 360.9C85.1001 360.9 86.6001 359.4 86.6001 357.5C86.6001 355.7 85.1001 354.1 83.2001 354.1Z" fill="#F2BF2E"/>
<path d="M83.2001 450.7C81.3223 450.7 79.8001 449.178 79.8001 447.3C79.8001 445.422 81.3223 443.9 83.2001 443.9C85.0779 443.9 86.6001 445.422 86.6001 447.3C86.6001 449.178 85.0779 450.7 83.2001 450.7Z" fill="#F2BF2E"/>
<path d="M83.2001 533.5C81.3001 533.5 79.8001 535 79.8001 536.9C79.8001 538.8 81.3001 540.3 83.2001 540.3C85.1001 540.3 86.6001 538.8 86.6001 536.9C86.6001 535.1 85.1001 533.5 83.2001 533.5Z" fill="#F2BF2E"/>
<path d="M89.5004 454V531H162.9V454H89.5004ZM114.5 494.2C114.5 491.4 113.8 488.7 112.4 486.2C115.2 486.2 118 485.4 120.4 484.1C122.8 482.7 124.8 480.7 126.2 478.3C129 483.2 134.3 486.3 140 486.3C138.6 488.8 137.9 491.5 137.9 494.3C137.9 497 138.6 499.8 140 502.3C137.2 502.3 134.4 503.1 132 504.4C129.6 505.8 127.6 507.8 126.2 510.2C124.8 507.7 122.8 505.7 120.4 504.4C118 503 115.3 502.3 112.4 502.3C113.8 499.7 114.5 496.9 114.5 494.2Z" fill="#00CC66"/>
<path d="M89.5004 364.2V441.2H162.9V364.2H89.5004ZM114.5 401.3C114.5 398.5 113.8 395.8 112.4 393.3C115.2 393.3 118 392.5 120.4 391.2C122.8 389.8 124.8 387.8 126.2 385.4C129 390.3 134.3 393.4 140 393.4C138.6 395.9 137.9 398.6 137.9 401.4C137.9 404.1 138.6 406.9 140 409.4C137.2 409.4 134.4 410.2 132 411.5C129.6 412.9 127.6 414.9 126.2 417.3C124.8 414.8 122.8 412.8 120.4 411.5C118 410.1 115.3 409.4 112.4 409.4C113.8 406.8 114.5 404 114.5 401.3Z" fill="#00CC66"/>
<path d="M89.5004 274.3V351.3H162.9V274.3H89.5004ZM114.5 312.2C114.5 309.4 113.8 306.7 112.4 304.2C115.2 304.2 118 303.4 120.4 302.1C122.8 300.7 124.8 298.7 126.2 296.3C129 301.2 134.3 304.3 140 304.3C138.6 306.8 137.9 309.5 137.9 312.3C137.9 315.1 138.6 317.8 140 320.3C137.2 320.3 134.4 321.1 132 322.4C129.6 323.8 127.6 325.8 126.2 328.2C124.8 325.7 122.8 323.7 120.4 322.4C118 321 115.3 320.3 112.4 320.3C113.8 317.7 114.5 315 114.5 312.2Z" fill="#00CC66"/>
<path d="M89.5004 184.5V261.5H162.9V184.5H89.5004ZM114.5 222.5C114.5 219.7 113.8 217 112.4 214.5C115.2 214.5 118 213.7 120.4 212.4C122.8 211 124.8 209 126.2 206.6C129 211.5 134.3 214.6 140 214.6C138.6 217.1 137.9 219.8 137.9 222.6C137.9 225.4 138.6 228.1 140 230.6C137.2 230.6 134.4 231.4 132 232.7C129.6 234.1 127.6 236.1 126.2 238.5C124.8 236 122.8 234 120.4 232.7C118 231.3 115.3 230.6 112.4 230.6C113.8 228 114.5 225.2 114.5 222.5Z" fill="#00CC66"/>
<path d="M89.9002 543.9V621H163.7V543.9H89.9002ZM114.5 584C114.5 581.3 113.8 578.5 112.4 576C115.2 576 118 575.2 120.4 573.9C122.8 572.5 124.8 570.5 126.2 568.1C129 573 134.3 576.1 140 576.1C138.6 578.6 137.9 581.3 137.9 584.1C137.9 586.9 138.6 589.6 140 592.1C137.2 592.1 134.4 592.9 132 594.2C129.6 595.6 127.6 597.6 126.2 600C124.8 597.5 122.8 595.5 120.4 594.2C118 592.8 115.3 592.1 112.4 592.1C113.8 589.5 114.5 586.8 114.5 584Z" fill="#00CC66"/>
<path d="M89.9002 94.6V171.7H163.7V117.5L168.9 124.5L173.5 131L176.6 135.6H176.7C175.7 134.1 174.7 132.6 173.6 131C164.8 118.2 155.2 106 144.8 94.6L144.7 94.7H89.9002V94.6ZM114.5 132.8C114.5 130 113.8 127.3 112.4 124.8C115.2 124.8 118 124 120.4 122.7C122.8 121.3 124.8 119.3 126.2 116.9C129 121.8 134.3 124.9 140 124.9C138.6 127.4 137.9 130.1 137.9 132.9C137.9 135.7 138.6 138.4 140 140.9C137.2 140.9 134.4 141.7 132 143C129.6 144.4 127.6 146.4 126.2 148.8C124.8 146.3 122.8 144.3 120.4 143C118 141.6 115.3 140.9 112.4 140.9C113.8 138.3 114.5 135.5 114.5 132.8Z" fill="#00CC66"/>
<path d="M89.9002 46.6V81.9H132.3L144.6 94.6H144.7C128.2 76.6 109.9 60.4 90.0002 46.5L89.9002 46.6Z" fill="#00CC66"/>
<path d="M112.4 124.8C113.8 127.3 114.5 130 114.5 132.8C114.5 135.6 113.8 138.3 112.4 140.8C115.2 140.8 118 141.6 120.4 142.9C122.8 144.3 124.8 146.3 126.2 148.7C127.6 146.2 129.6 144.2 132 142.9C134.4 141.5 137.1 140.8 140 140.8C138.6 138.3 137.9 135.6 137.9 132.8C137.9 130 138.6 127.3 140 124.8C134.3 124.8 129.1 121.8 126.2 116.8C124.8 119.3 122.8 121.3 120.4 122.6C118 124 115.2 124.8 112.4 124.8ZM116.5 138.3C117.6 134.7 117.6 130.8 116.5 127.1C120.2 126.3 123.6 124.3 126.2 121.5C128.8 124.3 132.2 126.2 135.9 127.1C134.8 130.7 134.8 134.6 135.9 138.3C132.2 139.1 128.8 141.1 126.2 143.9C123.6 141.1 120.2 139.2 116.5 138.3Z" fill="#F2BF2E"/>
<path d="M112.4 214.5C113.8 217 114.5 219.7 114.5 222.5C114.5 225.3 113.8 228 112.4 230.5C115.2 230.5 118 231.3 120.4 232.6C122.8 234 124.8 236 126.2 238.4C127.6 235.9 129.6 233.9 132 232.6C134.4 231.2 137.1 230.5 140 230.5C138.6 228 137.9 225.3 137.9 222.5C137.9 219.7 138.6 217 140 214.5C134.3 214.5 129.1 211.5 126.2 206.5C124.8 209 122.8 211 120.4 212.3C118 213.8 115.2 214.5 112.4 214.5ZM116.5 228.1C117.6 224.5 117.6 220.6 116.5 216.9C120.2 216.1 123.6 214.1 126.2 211.3C128.8 214.1 132.2 216 135.9 216.9C134.8 220.5 134.8 224.4 135.9 228.1C132.2 228.9 128.8 230.9 126.2 233.7C123.6 230.9 120.2 228.9 116.5 228.1Z" fill="#F2BF2E"/>
<path d="M112.4 304.3C113.8 306.8 114.5 309.5 114.5 312.3C114.5 315.1 113.8 317.8 112.4 320.3C115.2 320.3 118 321.1 120.4 322.4C122.8 323.8 124.8 325.8 126.2 328.2C127.6 325.7 129.6 323.7 132 322.4C134.4 321 137.1 320.3 140 320.3C138.6 317.8 137.9 315.1 137.9 312.3C137.9 309.5 138.6 306.8 140 304.3C134.3 304.3 129.1 301.3 126.2 296.3C124.8 298.8 122.8 300.8 120.4 302.1C118 303.5 115.2 304.3 112.4 304.3ZM116.5 317.8C117.6 314.2 117.6 310.3 116.5 306.6C120.2 305.8 123.6 303.8 126.2 301C128.8 303.8 132.2 305.7 135.9 306.6C134.8 310.2 134.8 314.1 135.9 317.8C132.2 318.6 128.8 320.6 126.2 323.4C123.6 320.6 120.2 318.6 116.5 317.8Z" fill="#F2BF2E"/>
<path d="M112.4 393.3C113.8 395.8 114.5 398.5 114.5 401.3C114.5 404 113.8 406.8 112.4 409.3C115.2 409.3 118 410.1 120.4 411.4C122.8 412.8 124.8 414.8 126.2 417.2C127.6 414.7 129.6 412.7 132 411.4C134.4 410 137.1 409.3 140 409.3C138.6 406.8 137.9 404.1 137.9 401.3C137.9 398.5 138.6 395.8 140 393.3C134.3 393.3 129.1 390.3 126.2 385.3C124.8 387.8 122.8 389.8 120.4 391.1C118 392.6 115.2 393.3 112.4 393.3ZM116.5 406.9C117.6 403.3 117.6 399.4 116.5 395.7C120.2 394.9 123.6 392.9 126.2 390.1C128.8 392.9 132.2 394.8 135.9 395.7C134.8 399.3 134.8 403.2 135.9 406.9C132.2 407.7 128.8 409.7 126.2 412.5C123.6 409.7 120.2 407.7 116.5 406.9Z" fill="#F2BF2E"/>
<path d="M112.4 486.2C113.8 488.7 114.5 491.4 114.5 494.2C114.5 496.9 113.8 499.7 112.4 502.2C115.2 502.2 118 503 120.4 504.3C122.8 505.7 124.8 507.7 126.2 510.1C127.6 507.6 129.6 505.6 132 504.3C134.4 502.9 137.1 502.2 140 502.2C138.6 499.7 137.9 497 137.9 494.2C137.9 491.4 138.6 488.7 140 486.2C134.3 486.2 129.1 483.2 126.2 478.2C124.8 480.7 122.8 482.7 120.4 484C118 485.5 115.2 486.2 112.4 486.2ZM116.5 499.8C117.6 496.2 117.6 492.3 116.5 488.6C120.2 487.8 123.6 485.8 126.2 483C128.8 485.8 132.2 487.7 135.9 488.6C134.8 492.2 134.8 496.1 135.9 499.8C132.2 500.6 128.8 502.6 126.2 505.4C123.6 502.5 120.2 500.6 116.5 499.8Z" fill="#F2BF2E"/>
<path d="M112.4 576.1C113.8 578.6 114.5 581.3 114.5 584.1C114.5 586.9 113.8 589.6 112.4 592.1C115.2 592.1 118 592.9 120.4 594.2C122.8 595.6 124.8 597.6 126.2 600C127.6 597.5 129.6 595.5 132 594.2C134.4 592.8 137.1 592.1 140 592.1C138.6 589.6 137.9 586.9 137.9 584.1C137.9 581.3 138.6 578.6 140 576.1C134.3 576.1 129.1 573.1 126.2 568.1C124.8 570.6 122.8 572.6 120.4 573.9C118 575.3 115.2 576.1 112.4 576.1ZM116.5 589.6C117.6 586 117.6 582.1 116.5 578.4C120.2 577.6 123.6 575.6 126.2 572.8C128.8 575.6 132.2 577.5 135.9 578.4C134.8 582 134.8 585.9 135.9 589.6C132.2 590.4 128.8 592.4 126.2 595.2C123.6 592.4 120.2 590.5 116.5 589.6Z" fill="#F2BF2E"/>
<path d="M116.5 127.2C117.6 130.8 117.6 134.7 116.5 138.4C120.2 139.2 123.6 141.2 126.2 144C128.8 141.2 132.2 139.3 135.9 138.4C134.8 134.8 134.8 130.9 135.9 127.2C132.2 126.4 128.8 124.4 126.2 121.6C123.6 124.4 120.2 126.3 116.5 127.2ZM121.5 132.8C121.5 130.2 123.6 128.2 126.1 128.2C128.6 128.2 130.7 130.3 130.7 132.8C130.7 135.3 128.6 137.4 126.1 137.4C123.6 137.4 121.5 135.3 121.5 132.8Z" fill="#F2BF2E"/>
<path d="M116.5 216.9C117.6 220.5 117.6 224.4 116.5 228.1C120.2 228.9 123.6 230.9 126.2 233.7C128.8 230.9 132.2 229 135.9 228.1C134.8 224.5 134.8 220.6 135.9 216.9C132.2 216.1 128.8 214.1 126.2 211.3C123.6 214.1 120.2 216.1 116.5 216.9ZM121.5 222.5C121.5 219.9 123.6 217.9 126.1 217.9C128.6 217.9 130.7 220 130.7 222.5C130.7 225 128.6 227.1 126.1 227.1C123.6 227.1 121.5 225.1 121.5 222.5Z" fill="#F2BF2E"/>
<path d="M116.5 306.6C117.6 310.2 117.6 314.1 116.5 317.8C120.2 318.6 123.6 320.6 126.2 323.4C128.8 320.6 132.2 318.7 135.9 317.8C134.8 314.2 134.8 310.3 135.9 306.6C132.2 305.8 128.8 303.8 126.2 301C123.6 303.8 120.2 305.8 116.5 306.6ZM121.5 312.2C121.5 309.6 123.6 307.6 126.1 307.6C128.6 307.6 130.7 309.7 130.7 312.2C130.7 314.7 128.6 316.8 126.1 316.8C123.6 316.8 121.5 314.8 121.5 312.2Z" fill="#F2BF2E"/>
<path d="M116.5 395.7C117.6 399.3 117.6 403.2 116.5 406.9C120.2 407.7 123.6 409.7 126.2 412.5C128.8 409.7 132.2 407.8 135.9 406.9C134.8 403.3 134.8 399.4 135.9 395.7C132.2 394.9 128.8 392.9 126.2 390.1C123.6 392.9 120.2 394.9 116.5 395.7ZM121.5 401.3C121.5 398.7 123.6 396.7 126.1 396.7C128.6 396.7 130.7 398.8 130.7 401.3C130.7 403.8 128.6 405.9 126.1 405.9C123.6 405.9 121.5 403.8 121.5 401.3Z" fill="#F2BF2E"/>
<path d="M116.5 488.6C117.6 492.2 117.6 496.1 116.5 499.8C120.2 500.6 123.6 502.6 126.2 505.4C128.8 502.6 132.2 500.7 135.9 499.8C134.8 496.2 134.8 492.3 135.9 488.6C132.2 487.8 128.8 485.8 126.2 483C123.6 485.8 120.2 487.7 116.5 488.6ZM121.5 494.2C121.5 491.6 123.6 489.6 126.1 489.6C128.6 489.6 130.7 491.7 130.7 494.2C130.7 496.8 128.6 498.8 126.1 498.8C123.6 498.8 121.5 496.7 121.5 494.2Z" fill="#F2BF2E"/>
<path d="M116.5 578.5C117.6 582.1 117.6 586 116.5 589.7C120.2 590.5 123.6 592.5 126.2 595.3C128.8 592.5 132.2 590.6 135.9 589.7C134.8 586.1 134.8 582.2 135.9 578.5C132.2 577.7 128.8 575.7 126.2 572.9C123.6 575.7 120.2 577.6 116.5 578.5ZM121.5 584C121.5 581.4 123.6 579.4 126.1 579.4C128.6 579.4 130.7 581.5 130.7 584C130.7 586.5 128.6 588.6 126.1 588.6C123.6 588.6 121.5 586.6 121.5 584Z" fill="#F2BF2E"/>
<path d="M126.2 128.1C123.6 128.1 121.6 130.2 121.6 132.7C121.6 135.2 123.7 137.3 126.2 137.3C128.7 137.3 130.8 135.2 130.8 132.7C130.8 130.2 128.7 128.1 126.2 128.1ZM123.7 132.8C123.7 131.4 124.8 130.3 126.2 130.3C127.6 130.3 128.7 131.4 128.7 132.8C128.7 134.2 127.6 135.3 126.2 135.3C124.8 135.3 123.7 134.1 123.7 132.8Z" fill="#F2BF2E"/>
<path d="M126.2 217.8C123.6 217.8 121.6 219.9 121.6 222.4C121.6 224.9 123.7 227 126.2 227C128.7 227 130.8 224.9 130.8 222.4C130.8 219.9 128.7 217.8 126.2 217.8ZM123.7 222.5C123.7 221.1 124.8 220 126.2 220C127.6 220 128.7 221.1 128.7 222.5C128.7 223.9 127.6 225 126.2 225C124.8 225 123.7 223.9 123.7 222.5Z" fill="#F2BF2E"/>
<path d="M126.2 307.6C123.6 307.6 121.6 309.7 121.6 312.2C121.6 314.7 123.7 316.8 126.2 316.8C128.7 316.8 130.8 314.7 130.8 312.2C130.8 309.7 128.7 307.6 126.2 307.6ZM123.7 312.2C123.7 310.8 124.8 309.7 126.2 309.7C127.6 309.7 128.7 310.8 128.7 312.2C128.7 313.6 127.6 314.7 126.2 314.7C124.8 314.7 123.7 313.6 123.7 312.2Z" fill="#F2BF2E"/>
<path d="M126.2 396.6C123.6 396.6 121.6 398.7 121.6 401.2C121.6 403.7 123.7 405.8 126.2 405.8C128.7 405.8 130.8 403.7 130.8 401.2C130.8 398.7 128.7 396.6 126.2 396.6ZM123.7 401.3C123.7 399.9 124.8 398.8 126.2 398.8C127.6 398.8 128.7 399.9 128.7 401.3C128.7 402.7 127.6 403.8 126.2 403.8C124.8 403.8 123.7 402.7 123.7 401.3Z" fill="#F2BF2E"/>
<path d="M126.2 489.5C123.6 489.5 121.6 491.6 121.6 494.1C121.6 496.7 123.7 498.7 126.2 498.7C128.7 498.7 130.8 496.6 130.8 494.1C130.8 491.6 128.7 489.5 126.2 489.5ZM123.7 494.2C123.7 492.8 124.8 491.7 126.2 491.7C127.6 491.7 128.7 492.8 128.7 494.2C128.7 495.6 127.6 496.7 126.2 496.7C124.8 496.7 123.7 495.6 123.7 494.2Z" fill="#F2BF2E"/>
<path d="M126.2 579.4C123.6 579.4 121.6 581.5 121.6 584C121.6 586.5 123.7 588.6 126.2 588.6C128.7 588.6 130.8 586.5 130.8 584C130.8 581.5 128.7 579.4 126.2 579.4ZM123.7 584C123.7 582.6 124.8 581.5 126.2 581.5C127.6 581.5 128.7 582.6 128.7 584C128.7 585.4 127.6 586.5 126.2 586.5C124.8 586.6 123.7 585.4 123.7 584Z" fill="#F2BF2E"/>
<path d="M126.2 130.2C124.8 130.2 123.7 131.3 123.7 132.7C123.7 134.1 124.8 135.2 126.2 135.2C127.6 135.2 128.7 134.1 128.7 132.7C128.7 131.3 127.6 130.2 126.2 130.2Z" fill="#F2BF2E"/>
<path d="M126.2 220C124.8 220 123.7 221.1 123.7 222.5C123.7 223.9 124.8 225 126.2 225C127.6 225 128.7 223.9 128.7 222.5C128.7 221.1 127.6 220 126.2 220Z" fill="#F2BF2E"/>
<path d="M126.2 309.7C124.8 309.7 123.7 310.8 123.7 312.2C123.7 313.6 124.8 314.7 126.2 314.7C127.6 314.7 128.7 313.6 128.7 312.2C128.7 310.8 127.6 309.7 126.2 309.7Z" fill="#F2BF2E"/>
<path d="M126.2 398.8C124.8 398.8 123.7 399.9 123.7 401.3C123.7 402.7 124.8 403.8 126.2 403.8C127.6 403.8 128.7 402.7 128.7 401.3C128.7 399.9 127.6 398.8 126.2 398.8Z" fill="#F2BF2E"/>
<path d="M126.2 491.6C124.8 491.6 123.7 492.7 123.7 494.1C123.7 495.5 124.8 496.6 126.2 496.6C127.6 496.6 128.7 495.5 128.7 494.1C128.7 492.8 127.6 491.6 126.2 491.6Z" fill="#F2BF2E"/>
<path d="M126.2 581.5C124.8 581.5 123.7 582.6 123.7 584C123.7 585.4 124.8 586.5 126.2 586.5C127.6 586.5 128.7 585.4 128.7 584C128.7 582.6 127.6 581.5 126.2 581.5Z" fill="#F2BF2E"/>
<path d="M169.4 174.7C167.5 174.7 166 176.2 166 178.1C166 180 167.5 181.5 169.4 181.5C171.3 181.5 172.8 180 172.8 178.1C172.8 176.2 171.3 174.7 169.4 174.7Z" fill="#F2BF2E"/>
<path d="M169.4 264.4C167.5 264.4 166 265.9 166 267.8C166 269.7 167.5 271.2 169.4 271.2C171.3 271.2 172.8 269.7 172.8 267.8C172.8 265.9 171.3 264.4 169.4 264.4Z" fill="#F2BF2E"/>
<path d="M169.4 354.1C167.5 354.1 166 355.6 166 357.5C166 359.4 167.5 360.9 169.4 360.9C171.3 360.9 172.8 359.4 172.8 357.5C172.8 355.7 171.3 354.1 169.4 354.1Z" fill="#F2BF2E"/>
<path d="M169.4 443.8C167.5 443.8 166 445.3 166 447.2C166 449.1 167.5 450.6 169.4 450.6C171.3 450.6 172.8 449.1 172.8 447.2C172.8 445.3 171.3 443.8 169.4 443.8Z" fill="#F2BF2E"/>
<path d="M169.4 533.5C167.5 533.5 166 535 166 536.9C166 538.8 167.5 540.3 169.4 540.3C171.3 540.3 172.8 538.8 172.8 536.9C172.8 535.1 171.3 533.5 169.4 533.5Z" fill="#F2BF2E"/>
<path d="M176.5 543.9V621H231.9V543.9H176.5ZM200.8 584C200.8 581.3 200.1 578.5 198.7 576C201.5 576 204.3 575.2 206.7 573.9C209.1 572.5 211.1 570.5 212.5 568.1C215.3 573 220.6 576.1 226.3 576.1C224.9 578.6 224.2 581.3 224.2 584.1C224.2 586.9 224.9 589.6 226.3 592.1C223.5 592.1 220.7 592.9 218.3 594.2C215.9 595.6 213.9 597.6 212.5 600C211.1 597.5 209.1 595.5 206.7 594.2C204.3 592.8 201.6 592.1 198.7 592.1C200.1 589.5 200.8 586.8 200.8 584Z" fill="#00CC66"/>
<path d="M176.5 454V531H231.9V454H176.5ZM200.8 494.2C200.8 491.4 200.1 488.7 198.7 486.2C201.5 486.2 204.3 485.4 206.7 484.1C209.1 482.7 211.1 480.7 212.5 478.3C215.3 483.2 220.6 486.3 226.3 486.3C224.9 488.8 224.2 491.5 224.2 494.3C224.2 497 224.9 499.8 226.3 502.3C223.5 502.3 220.7 503.1 218.3 504.4C215.9 505.8 213.9 507.8 212.5 510.2C211.1 507.7 209.1 505.7 206.7 504.4C204.3 503 201.6 502.3 198.7 502.3C200.1 499.7 200.8 496.9 200.8 494.2Z" fill="#00CC66"/>
<path d="M176.5 364.2V441.2H231.9V364.2H176.5ZM200.8 401.3C200.8 398.5 200.1 395.8 198.7 393.3C201.5 393.3 204.3 392.5 206.7 391.2C209.1 389.8 211.1 387.8 212.5 385.4C215.3 390.3 220.6 393.4 226.3 393.4C224.9 395.9 224.2 398.6 224.2 401.4C224.2 404.1 224.9 406.9 226.3 409.4C223.5 409.4 220.7 410.2 218.3 411.5C215.9 412.9 213.9 414.9 212.5 417.3C211.1 414.8 209.1 412.8 206.7 411.5C204.3 410.1 201.6 409.4 198.7 409.4C200.1 406.8 200.8 404 200.8 401.3Z" fill="#00CC66"/>
<path d="M176.5 274.3V351.3H231.9V319C231.9 303 230.7 287 228.5 271.3L228.9 274.3H176.5ZM200.8 312.2C200.8 309.4 200.1 306.7 198.7 304.2C201.5 304.2 204.3 303.4 206.7 302.1C209.1 300.7 211.1 298.7 212.5 296.3C215.3 301.2 220.6 304.3 226.3 304.3C224.9 306.8 224.2 309.5 224.2 312.3C224.2 315.1 224.9 317.8 226.3 320.3C223.5 320.3 220.7 321.1 218.3 322.4C215.9 323.7 213.9 325.8 212.5 328.2C211.1 325.7 209.1 323.7 206.7 322.4C204.3 321 201.6 320.3 198.7 320.3C200.1 317.7 200.8 315 200.8 312.2Z" fill="#00CC66"/>
<path d="M176.5 184.5V261.5H226.9L227.7 266L228.5 271.1C226.6 257.9 223.9 244.9 220.4 232.1L220 232.2C217.3 233.6 215 235.7 213.5 238.4C212.1 235.9 210.1 233.9 207.7 232.6C205.3 231.3 202.6 230.5 199.7 230.5C201.1 228 201.8 225.3 201.8 222.5C201.8 219.7 201.1 217 199.7 214.5C202.3 214.5 204.7 213.9 206.9 212.8C209.1 211.7 211 210 212.5 208L212.8 207.9C209.6 198.9 206 190.1 202.1 181.4L203.5 184.5H176.5Z" fill="#00CC66"/>
<path d="M176.5 135.5V171.7H197.4L200.1 177.3L202 181.4C194.8 165.5 186.3 150.2 176.5 135.5Z" fill="#00CC66"/>
<path d="M198.7 304.3C200.1 306.8 200.8 309.5 200.8 312.3C200.8 315.1 200.1 317.8 198.7 320.3C201.5 320.3 204.3 321.1 206.7 322.4C209.1 323.8 211.1 325.8 212.5 328.2C213.9 325.7 215.9 323.7 218.3 322.4C220.7 321.1 223.4 320.3 226.3 320.3C224.9 317.8 224.2 315.1 224.2 312.3C224.2 309.5 224.9 306.8 226.3 304.3C220.6 304.3 215.4 301.3 212.5 296.3C211.1 298.8 209.1 300.8 206.7 302.1C204.3 303.5 201.5 304.3 198.7 304.3ZM202.8 317.8C203.9 314.2 203.9 310.3 202.8 306.6C206.5 305.8 209.9 303.8 212.5 301C215.1 303.8 218.5 305.7 222.2 306.6C221.1 310.2 221.1 314.1 222.2 317.8C218.5 318.6 215.1 320.6 212.5 323.4C209.9 320.6 206.5 318.6 202.8 317.8Z" fill="#F2BF2E"/>
<path d="M198.7 393.3C200.1 395.8 200.8 398.5 200.8 401.3C200.8 404 200.1 406.8 198.7 409.3C201.5 409.3 204.3 410.1 206.7 411.4C209.1 412.8 211.1 414.8 212.5 417.2C213.9 414.7 215.9 412.7 218.3 411.4C220.7 410 223.4 409.3 226.3 409.3C224.9 406.8 224.2 404.1 224.2 401.3C224.2 398.5 224.9 395.8 226.3 393.3C220.6 393.3 215.4 390.3 212.5 385.3C211.1 387.8 209.1 389.8 206.7 391.1C204.3 392.6 201.5 393.3 198.7 393.3ZM202.8 406.9C203.9 403.3 203.9 399.4 202.8 395.7C206.5 394.9 209.9 392.9 212.5 390.1C215.1 392.9 218.5 394.8 222.2 395.7C221.1 399.3 221.1 403.2 222.2 406.9C218.5 407.7 215.1 409.7 212.5 412.5C209.9 409.7 206.5 407.7 202.8 406.9Z" fill="#F2BF2E"/>
<path d="M198.7 486.2C200.1 488.7 200.8 491.4 200.8 494.2C200.8 496.9 200.1 499.7 198.7 502.2C201.5 502.2 204.3 503 206.7 504.3C209.1 505.7 211.1 507.7 212.5 510.1C213.9 507.6 215.9 505.6 218.3 504.3C220.7 502.9 223.4 502.2 226.3 502.2C224.9 499.7 224.2 497 224.2 494.2C224.2 491.4 224.9 488.7 226.3 486.2C220.6 486.2 215.4 483.2 212.5 478.2C211.1 480.7 209.1 482.7 206.7 484C204.3 485.5 201.5 486.2 198.7 486.2ZM202.8 499.8C203.9 496.2 203.9 492.3 202.8 488.6C206.5 487.8 209.9 485.8 212.5 483C215.1 485.8 218.5 487.7 222.2 488.6C221.1 492.2 221.1 496.1 222.2 499.8C218.5 500.6 215.1 502.6 212.5 505.4C209.9 502.5 206.5 500.6 202.8 499.8Z" fill="#F2BF2E"/>
<path d="M198.7 576.1C200.1 578.6 200.8 581.3 200.8 584.1C200.8 586.9 200.1 589.6 198.7 592.1C201.5 592.1 204.3 592.9 206.7 594.2C209.1 595.6 211.1 597.6 212.5 600C213.9 597.5 215.9 595.5 218.3 594.2C220.7 592.8 223.4 592.1 226.3 592.1C224.9 589.6 224.2 586.9 224.2 584.1C224.2 581.3 224.9 578.6 226.3 576.1C220.6 576.1 215.4 573.1 212.5 568.1C211.1 570.6 209.1 572.6 206.7 573.9C204.3 575.3 201.5 576.1 198.7 576.1ZM202.8 589.6C203.9 586 203.9 582.1 202.8 578.4C206.5 577.6 209.9 575.6 212.5 572.8C215.1 575.6 218.5 577.5 222.2 578.4C221.1 582 221.1 585.9 222.2 589.6C218.5 590.4 215.1 592.4 212.5 595.2C209.9 592.4 206.5 590.5 202.8 589.6Z" fill="#F2BF2E"/>
<path d="M199.7 214.5C201.1 217 201.8 219.7 201.8 222.5C201.8 225.3 201.1 228 199.7 230.5C202.5 230.5 205.3 231.3 207.7 232.6C210.1 233.9 212.1 236 213.5 238.4C215.1 235.7 217.3 233.6 220 232.2L220.4 232.1C220.1 231.2 219.9 230.2 219.6 229.3L219.3 229.4C217.1 230.4 215.1 231.9 213.4 233.7C210.8 230.9 207.4 229 203.7 228.1C204.8 224.5 204.8 220.6 203.7 216.9C207.4 216.1 210.8 214.1 213.4 211.3L213.9 211.1C213.5 210 213.1 208.9 212.8 207.8L212.5 207.9C211 209.9 209.1 211.6 206.9 212.7C204.7 213.8 202.2 214.5 199.7 214.5Z" fill="#F2BF2E"/>
<path d="M202.8 306.6C203.9 310.2 203.9 314.1 202.8 317.8C206.5 318.6 209.9 320.6 212.5 323.4C215.1 320.6 218.5 318.7 222.2 317.8C221.1 314.2 221.1 310.3 222.2 306.6C218.5 305.8 215.1 303.8 212.5 301C209.9 303.8 206.5 305.8 202.8 306.6ZM207.8 312.2C207.8 309.6 209.9 307.6 212.4 307.6C214.9 307.6 217 309.7 217 312.2C217 314.7 214.9 316.8 212.4 316.8C209.9 316.8 207.8 314.8 207.8 312.2Z" fill="#F2BF2E"/>
<path d="M202.8 395.7C203.9 399.3 203.9 403.2 202.8 406.9C206.5 407.7 209.9 409.7 212.5 412.5C215.1 409.7 218.5 407.8 222.2 406.9C221.1 403.3 221.1 399.4 222.2 395.7C218.5 394.9 215.1 392.9 212.5 390.1C209.9 392.9 206.5 394.9 202.8 395.7ZM207.8 401.3C207.8 398.7 209.9 396.7 212.4 396.7C214.9 396.7 217 398.8 217 401.3C217 403.8 214.9 405.9 212.4 405.9C209.9 405.9 207.8 403.8 207.8 401.3Z" fill="#F2BF2E"/>
<path d="M202.8 488.6C203.9 492.2 203.9 496.1 202.8 499.8C206.5 500.6 209.9 502.6 212.5 505.4C215.1 502.6 218.5 500.7 222.2 499.8C221.1 496.2 221.1 492.3 222.2 488.6C218.5 487.8 215.1 485.8 212.5 483C209.9 485.8 206.5 487.7 202.8 488.6ZM207.8 494.2C207.8 491.6 209.9 489.6 212.4 489.6C214.9 489.6 217 491.7 217 494.2C217 496.8 214.9 498.8 212.4 498.8C209.9 498.8 207.8 496.7 207.8 494.2Z" fill="#F2BF2E"/>
<path d="M202.8 578.5C203.9 582.1 203.9 586 202.8 589.7C206.5 590.5 209.9 592.5 212.5 595.3C215.1 592.5 218.5 590.6 222.2 589.7C221.1 586.1 221.1 582.2 222.2 578.5C218.5 577.7 215.1 575.7 212.5 572.9C209.9 575.7 206.5 577.6 202.8 578.5ZM207.8 584C207.8 581.4 209.9 579.4 212.4 579.4C214.9 579.4 217 581.5 217 584C217 586.5 214.9 588.6 212.4 588.6C209.9 588.6 207.8 586.6 207.8 584Z" fill="#F2BF2E"/>
<path d="M203.8 216.9C204.9 220.5 204.9 224.4 203.8 228.1C207.5 228.9 210.9 230.9 213.5 233.7C215.2 231.9 217.2 230.4 219.4 229.4L219.7 229.3C219.2 227.5 218.7 225.8 218.2 224L218 224.1C217.4 225.9 215.6 227.2 213.6 227.2C211 227.2 209 225.1 209 222.6C209 220.1 211.1 218 213.6 218C214.6 218 215.5 218.3 216.3 218.9L216.6 218.8C215.8 216.3 215 213.8 214.1 211.3L213.6 211.5C210.9 214.1 207.5 216.1 203.8 216.9Z" fill="#F2BF2E"/>
<path d="M212.5 307.6C209.9 307.6 207.9 309.7 207.9 312.2C207.9 314.7 210 316.8 212.5 316.8C215 316.8 217.1 314.7 217.1 312.2C217.1 309.7 215.1 307.6 212.5 307.6ZM210 312.2C210 310.8 211.1 309.7 212.5 309.7C213.9 309.7 215 310.8 215 312.2C215 313.6 213.9 314.7 212.5 314.7C211.1 314.7 210 313.6 210 312.2Z" fill="#F2BF2E"/>
<path d="M212.5 396.6C209.9 396.6 207.9 398.7 207.9 401.2C207.9 403.7 210 405.8 212.5 405.8C215 405.8 217.1 403.7 217.1 401.2C217.1 398.7 215.1 396.6 212.5 396.6ZM210 401.3C210 399.9 211.1 398.8 212.5 398.8C213.9 398.8 215 399.9 215 401.3C215 402.7 213.9 403.8 212.5 403.8C211.1 403.8 210 402.7 210 401.3Z" fill="#F2BF2E"/>
<path d="M212.5 489.5C209.9 489.5 207.9 491.6 207.9 494.1C207.9 496.7 210 498.7 212.5 498.7C215 498.7 217.1 496.6 217.1 494.1C217.1 491.6 215.1 489.5 212.5 489.5ZM210 494.2C210 492.8 211.1 491.7 212.5 491.7C213.9 491.7 215 492.8 215 494.2C215 495.6 213.9 496.7 212.5 496.7C211.1 496.7 210 495.6 210 494.2Z" fill="#F2BF2E"/>
<path d="M212.5 579.4C209.9 579.4 207.9 581.5 207.9 584C207.9 586.5 210 588.6 212.5 588.6C215 588.6 217.1 586.5 217.1 584C217.1 581.5 215.1 579.4 212.5 579.4ZM210 584C210 582.6 211.1 581.5 212.5 581.5C213.9 581.5 215 582.6 215 584C215 585.4 213.9 586.5 212.5 586.5C211.1 586.5 210 585.4 210 584Z" fill="#F2BF2E"/>
<path d="M213.4 217.8C210.8 217.8 208.8 219.9 208.8 222.4C208.8 224.9 210.9 227 213.4 227C215.4 227 217.1 225.7 217.8 223.9L218 223.8C217.5 222 216.9 220.2 216.3 218.4L216 218.5C215.4 218.2 214.5 217.8 213.4 217.8ZM210.9 222.5C210.9 221.1 212 220 213.4 220C214.8 220 215.9 221.1 215.9 222.5C215.9 223.9 214.8 225 213.4 225C212 225 210.9 223.9 210.9 222.5Z" fill="#F2BF2E"/>
<path d="M212.5 309.7C211.1 309.7 210 310.8 210 312.2C210 313.6 211.1 314.7 212.5 314.7C213.9 314.7 215 313.6 215 312.2C215 310.8 213.9 309.7 212.5 309.7Z" fill="#F2BF2E"/>
<path d="M212.5 398.8C211.1 398.8 210 399.9 210 401.3C210 402.7 211.1 403.8 212.5 403.8C213.9 403.8 215 402.7 215 401.3C215 399.9 213.9 398.8 212.5 398.8Z" fill="#F2BF2E"/>
<path d="M212.5 491.6C211.1 491.6 210 492.7 210 494.1C210 495.5 211.1 496.6 212.5 496.6C213.9 496.6 215 495.5 215 494.1C215 492.8 213.9 491.6 212.5 491.6Z" fill="#F2BF2E"/>
<path d="M212.5 581.5C211.1 581.5 210 582.6 210 584C210 585.4 211.1 586.5 212.5 586.5C213.9 586.5 215 585.4 215 584C215 582.6 213.9 581.5 212.5 581.5Z" fill="#F2BF2E"/>
<path d="M213.4 225C212.02 225 210.9 223.881 210.9 222.5C210.9 221.119 212.02 220 213.4 220C214.781 220 215.9 221.119 215.9 222.5C215.9 223.881 214.781 225 213.4 225Z" fill="#F2BF2E"/>
<path d="M231.9 633.5C232.3 633.5 232.7 633.1 232.7 632.7V621V543.9C232.7 543.5 232.3 543.1 231.9 543.1C231.5 543.1 231.1 543.5 231.1 543.9V621V632.7C231.1 633.1 231.4 633.5 231.9 633.5Z" fill="black"/>
<path d="M231.9 531.9C232.3 531.9 232.7 531.5 232.7 531.1V454.1C232.7 453.7 232.3 453.3 231.9 453.3C231.5 453.3 231.1 453.7 231.1 454.1V531.1C231.1 531.5 231.4 531.9 231.9 531.9Z" fill="black"/>
<path d="M231.9 442C232.3 442 232.7 441.6 232.7 441.2V364.2C232.7 363.8 232.3 363.4 231.9 363.4C231.5 363.4 231.1 363.8 231.1 364.2V441.2C231.1 441.7 231.4 442 231.9 442Z" fill="black"/>
<path d="M231.9 352.2C232.3 352.2 232.7 351.8 232.7 351.4V319.1C232.7 303 231.5 286.9 229.3 271.2C229.2 270.8 228.8 270.5 228.4 270.5C228 270.6 227.7 271 227.7 271.4C230 287.1 231.1 303.1 231.1 319.1V351.4C231.1 351.8 231.4 352.2 231.9 352.2Z" fill="black"/>
<path d="M38.3 150.3L39 149.1C40.3 146.8 42.2 144.9 44.5 143.6C46.8 142.3 49.4 141.6 52.1 141.6H53.5L52.8 140.4C51.5 138.1 50.8 135.5 50.8 132.8C50.8 130.2 51.5 127.5 52.8 125.2L53.5 124H52.1C46.7 124 41.7 121.1 39 116.4L38.3 115.2L37.6 116.4C36.3 118.7 34.4 120.6 32.1 121.9C29.8 123.2 27.2 123.9 24.5 123.9H23.1L23.8 125.1C25.1 127.4 25.8 130 25.8 132.7C25.8 135.4 25.1 138 23.8 140.3L23.1 141.5H24.5C27.2 141.5 29.8 142.2 32.1 143.5C34.4 144.8 36.3 146.7 37.6 149L38.3 150.3ZM50.8 140C48.3 140.2 45.9 140.9 43.7 142.2C41.5 143.4 39.7 145.2 38.3 147.2C36.9 145.2 35 143.4 32.9 142.2C30.7 141 28.3 140.2 25.8 140C26.9 137.8 27.4 135.3 27.4 132.8C27.4 130.3 26.8 127.8 25.8 125.6C28.3 125.4 30.7 124.7 32.9 123.4C35.1 122.1 36.9 120.4 38.3 118.4C41.2 122.6 45.8 125.2 50.8 125.6C49.7 127.8 49.2 130.3 49.2 132.8C49.2 135.3 49.7 137.7 50.8 140Z" fill="black"/>
<path d="M38.3 145.1L38.9 144.5C41.4 141.8 44.6 140 48.2 139.2L49 139L48.7 138.2C47.6 134.7 47.6 131 48.7 127.5L49 126.7L48.2 126.5C44.6 125.7 41.4 123.8 38.9 121.2L38.3 120.6L37.7 121.2C35.2 123.9 32 125.7 28.4 126.5L27.6 126.7L27.9 127.5C29 131 29 134.7 27.9 138.2L27.6 139L28.4 139.2C32 140 35.2 141.9 37.7 144.5L38.3 145.1ZM47 137.8C43.7 138.7 40.7 140.4 38.3 142.8C35.9 140.4 32.9 138.7 29.6 137.8C30.5 134.5 30.5 131.1 29.6 127.8C32.9 126.9 35.9 125.2 38.3 122.8C40.7 125.2 43.7 126.9 47 127.8C46.1 131 46.1 134.5 47 137.8Z" fill="black"/>
<path d="M38.3002 138.2C41.3002 138.2 43.7002 135.8 43.7002 132.8C43.7002 129.8 41.3002 127.4 38.3002 127.4C35.3002 127.4 32.9002 129.8 32.9002 132.8C32.9002 135.8 35.3002 138.2 38.3002 138.2ZM38.3002 128.9C40.4002 128.9 42.2002 130.6 42.2002 132.8C42.2002 134.9 40.5002 136.7 38.3002 136.7C36.1002 136.7 34.4002 135 34.4002 132.8C34.5002 130.6 36.2002 128.9 38.3002 128.9Z" fill="black"/>
<path d="M38.3001 136.1C40.1001 136.1 41.6001 134.6 41.6001 132.8C41.6001 131 40.1001 129.5 38.3001 129.5C36.5001 129.5 35.0001 131 35.0001 132.8C35.0001 134.6 36.5001 136.1 38.3001 136.1ZM38.3001 131C39.3001 131 40.0001 131.8 40.0001 132.7C40.0001 133.6 39.2001 134.4 38.3001 134.4C37.4001 134.4 36.6001 133.6 36.6001 132.7C36.6001 131.8 37.4001 131 38.3001 131Z" fill="black"/>
<path d="M38.3 240L39 238.8C40.3 236.5 42.2 234.6 44.5 233.3C46.8 232 49.4 231.3 52.1 231.3H53.5L52.8 230.1C51.5 227.8 50.8 225.2 50.8 222.5C50.8 219.9 51.5 217.2 52.8 214.9L53.5 213.7H52.1C46.7 213.7 41.7 210.8 39 206.1L38.3 204.9L37.6 206.1C36.3 208.4 34.4 210.3 32.1 211.6C29.8 212.9 27.2 213.6 24.5 213.6H23.1L23.8 214.8C25.1 217.1 25.8 219.7 25.8 222.4C25.8 225.1 25.1 227.7 23.8 230L23.1 231.2H24.5C27.2 231.2 29.8 231.9 32.1 233.2C34.4 234.5 36.3 236.4 37.6 238.7L38.3 240ZM50.8 229.7C48.3 229.9 45.9 230.6 43.7 231.9C41.5 233.1 39.7 234.9 38.3 236.9C36.9 234.9 35 233.1 32.9 231.9C30.7 230.7 28.3 229.9 25.8 229.7C26.9 227.5 27.4 225 27.4 222.5C27.4 220 26.8 217.5 25.8 215.3C28.3 215.1 30.7 214.4 32.9 213.1C35.1 211.8 36.9 210.1 38.3 208.1C41.2 212.3 45.8 214.9 50.8 215.3C49.7 217.5 49.2 220 49.2 222.5C49.2 225 49.7 227.5 50.8 229.7Z" fill="black"/>
<path d="M38.3 234.8L38.9 234.2C41.4 231.5 44.6 229.7 48.2 228.9L49 228.7L48.7 227.9C47.6 224.4 47.6 220.7 48.7 217.2L49 216.4L48.2 216.2C44.6 215.4 41.4 213.5 38.9 210.9L38.3 210.3L37.7 210.9C35.2 213.6 32 215.4 28.4 216.2L27.6 216.4L27.9 217.2C29 220.7 29 224.4 27.9 227.9L27.6 228.7L28.4 228.9C32 229.7 35.2 231.6 37.7 234.2L38.3 234.8ZM47 227.5C43.7 228.4 40.7 230.1 38.3 232.5C35.9 230.1 32.9 228.4 29.6 227.5C30.5 224.2 30.5 220.8 29.6 217.5C32.9 216.6 35.9 214.9 38.3 212.5C40.7 214.9 43.7 216.6 47 217.5C46.1 220.8 46.1 224.2 47 227.5Z" fill="black"/>
<path d="M38.3002 227.9C41.3002 227.9 43.7002 225.5 43.7002 222.5C43.7002 219.5 41.3002 217.1 38.3002 217.1C35.3002 217.1 32.9002 219.5 32.9002 222.5C32.9002 225.5 35.3002 227.9 38.3002 227.9ZM38.3002 218.6C40.4002 218.6 42.2002 220.3 42.2002 222.5C42.2002 224.7 40.5002 226.3 38.3002 226.3C36.1002 226.3 34.4002 224.6 34.4002 222.5C34.4002 220.4 36.2002 218.6 38.3002 218.6Z" fill="black"/>
<path d="M38.3001 225.8C40.1001 225.8 41.6001 224.3 41.6001 222.5C41.6001 220.7 40.1001 219.2 38.3001 219.2C36.5001 219.2 35.0001 220.7 35.0001 222.5C35.0001 224.3 36.5001 225.8 38.3001 225.8ZM38.3001 220.8C39.3001 220.8 40.0001 221.6 40.0001 222.5C40.0001 223.4 39.2001 224.2 38.3001 224.2C37.4001 224.2 36.6001 223.4 36.6001 222.5C36.6001 221.5 37.4001 220.8 38.3001 220.8Z" fill="black"/>
<path d="M38.3 329.7L39 328.5C40.3 326.2 42.2 324.3 44.5 323C46.8 321.7 49.4 321 52.1 321H53.5L52.8 319.8C51.5 317.5 50.8 314.9 50.8 312.2C50.8 309.5 51.5 306.9 52.8 304.6L53.5 303.4H52.1C46.7 303.4 41.7 300.5 39 295.8L38.3 294.6L37.6 295.8C36.3 298.1 34.4 300 32.1 301.3C29.8 302.6 27.2 303.3 24.5 303.3H23.1L23.8 304.5C25.1 306.8 25.8 309.4 25.8 312.1C25.8 314.8 25.1 317.4 23.8 319.7L23.1 320.9H24.5C27.2 320.9 29.8 321.6 32.1 322.9C34.4 324.2 36.3 326.1 37.6 328.4L38.3 329.7ZM50.8 319.4C48.3 319.6 45.9 320.3 43.7 321.6C41.5 322.8 39.7 324.6 38.3 326.6C36.9 324.6 35 322.8 32.9 321.6C30.7 320.4 28.3 319.6 25.8 319.4C26.9 317.2 27.4 314.7 27.4 312.2C27.4 309.7 26.8 307.2 25.8 305C28.3 304.8 30.7 304.1 32.9 302.8C35.1 301.5 36.9 299.8 38.3 297.8C41.2 302 45.8 304.6 50.8 305C49.7 307.2 49.2 309.7 49.2 312.2C49.2 314.7 49.7 317.2 50.8 319.4Z" fill="black"/>
<path d="M38.3 324.6L38.9 324C41.4 321.3 44.6 319.5 48.2 318.7L49 318.5L48.7 317.7C47.6 314.2 47.6 310.5 48.7 307L49 306.2L48.2 306C44.6 305.2 41.4 303.3 38.9 300.7L38.3 300.1L37.7 300.7C35.2 303.4 32 305.2 28.4 306L27.6 306.2L27.9 307C29 310.5 29 314.2 27.9 317.7L27.6 318.5L28.4 318.7C32 319.5 35.2 321.4 37.7 324L38.3 324.6ZM47 317.2C43.7 318.1 40.7 319.8 38.3 322.2C35.9 319.8 32.9 318.1 29.6 317.2C30.5 313.9 30.5 310.5 29.6 307.2C32.9 306.3 35.9 304.6 38.3 302.2C40.7 304.6 43.7 306.3 47 307.2C46.1 310.5 46.1 313.9 47 317.2Z" fill="black"/>
<path d="M38.3002 317.7C41.3002 317.7 43.7002 315.3 43.7002 312.3C43.7002 309.3 41.3002 306.9 38.3002 306.9C35.3002 306.9 32.9002 309.3 32.9002 312.3C32.9002 315.3 35.3002 317.7 38.3002 317.7ZM38.3002 308.4C40.4002 308.4 42.2002 310.1 42.2002 312.3C42.2002 314.5 40.5002 316.2 38.3002 316.2C36.1002 316.2 34.4002 314.5 34.4002 312.3C34.4002 310.1 36.2002 308.4 38.3002 308.4Z" fill="black"/>
<path d="M38.3001 315.5C40.1001 315.5 41.6001 314 41.6001 312.2C41.6001 310.4 40.1001 308.9 38.3001 308.9C36.5001 308.9 35.0001 310.4 35.0001 312.2C35.0001 314.1 36.5001 315.5 38.3001 315.5ZM38.3001 310.5C39.3001 310.5 40.0001 311.3 40.0001 312.2C40.0001 313.2 39.2001 313.9 38.3001 313.9C37.4001 313.9 36.6001 313.1 36.6001 312.2C36.6001 311.3 37.4001 310.5 38.3001 310.5Z" fill="black"/>
<path d="M38.3 418.8L39 417.6C40.3 415.3 42.2 413.4 44.5 412.1C46.8 410.8 49.4 410.1 52.1 410.1H53.5L52.8 408.9C51.5 406.6 50.8 404 50.8 401.3C50.8 398.7 51.5 396 52.8 393.7L53.5 392.5H52.1C46.7 392.5 41.7 389.6 39 384.9L38.3 383.7L37.6 384.9C36.3 387.2 34.4 389.1 32.1 390.4C29.8 391.7 27.2 392.4 24.5 392.4H23.1L23.8 393.6C25.1 395.9 25.8 398.5 25.8 401.2C25.8 403.8 25.1 406.5 23.8 408.8L23.1 410H24.5C27.2 410 29.8 410.7 32.1 412C34.4 413.3 36.3 415.2 37.6 417.5L38.3 418.8ZM50.8 408.5C48.3 408.7 45.9 409.4 43.7 410.7C41.5 411.9 39.7 413.7 38.3 415.7C36.9 413.6 35 411.9 32.9 410.7C30.7 409.5 28.3 408.7 25.8 408.5C26.9 406.3 27.4 403.8 27.4 401.3C27.4 398.8 26.8 396.3 25.8 394.1C28.3 393.9 30.7 393.2 32.9 391.9C35.1 390.6 36.9 388.9 38.3 386.9C41.2 391.1 45.8 393.7 50.8 394.1C49.7 396.3 49.2 398.8 49.2 401.3C49.2 403.8 49.7 406.2 50.8 408.5Z" fill="black"/>
<path d="M38.3 413.6L38.9 413C41.4 410.3 44.6 408.5 48.2 407.7L49 407.5L48.7 406.7C47.6 403.2 47.6 399.5 48.7 396L49 395.2L48.2 395C44.6 394.2 41.4 392.3 38.9 389.7L38.3 389.1L37.7 389.7C35.2 392.4 32 394.2 28.4 395L27.6 395.2L27.9 396C29 399.5 29 403.2 27.9 406.7L27.6 407.5L28.4 407.7C32 408.5 35.2 410.4 37.7 413L38.3 413.6ZM47 406.3C43.7 407.2 40.7 408.9 38.3 411.3C35.9 408.9 32.9 407.2 29.6 406.3C30.5 403 30.5 399.6 29.6 396.3C32.9 395.4 35.9 393.7 38.3 391.3C40.7 393.7 43.7 395.4 47 396.3C46.1 399.6 46.1 403 47 406.3Z" fill="black"/>
<path d="M38.3002 406.7C41.3002 406.7 43.7002 404.3 43.7002 401.3C43.7002 398.3 41.3002 395.9 38.3002 395.9C35.3002 395.9 32.9002 398.3 32.9002 401.3C32.9002 404.3 35.3002 406.7 38.3002 406.7ZM38.3002 397.4C40.4002 397.4 42.2002 399.1 42.2002 401.3C42.2002 403.4 40.5002 405.2 38.3002 405.2C36.1002 405.2 34.4002 403.5 34.4002 401.3C34.5002 399.2 36.2002 397.4 38.3002 397.4Z" fill="black"/>
<path d="M38.3001 404.6C40.1001 404.6 41.6001 403.1 41.6001 401.3C41.6001 399.5 40.1001 398 38.3001 398C36.5001 398 35.0001 399.5 35.0001 401.3C35.0001 403.1 36.5001 404.6 38.3001 404.6ZM38.3001 399.6C39.3001 399.6 40.0001 400.4 40.0001 401.3C40.0001 402.3 39.2001 403 38.3001 403C37.4001 403 36.6001 402.2 36.6001 401.3C36.6001 400.3 37.4001 399.6 38.3001 399.6Z" fill="black"/>
<path d="M38.3 511.7L39 510.5C40.3 508.2 42.2 506.3 44.5 505C46.8 503.7 49.4 503 52.1 503H53.5L52.8 501.8C51.5 499.5 50.8 496.9 50.8 494.2C50.8 491.6 51.5 488.9 52.8 486.6L53.5 485.4H52.1C46.7 485.4 41.7 482.5 39 477.8L38.3 476.6L37.6 477.8C36.3 480.1 34.4 482 32.1 483.3C29.8 484.6 27.2 485.3 24.5 485.3H23.1L23.8 486.5C25.1 488.8 25.8 491.4 25.8 494.1C25.8 496.7 25.1 499.4 23.8 501.7L23.1 502.9H24.5C27.2 502.9 29.8 503.6 32.1 504.9C34.4 506.2 36.3 508.1 37.6 510.4L38.3 511.7ZM50.8 501.4C48.3 501.6 45.9 502.3 43.7 503.6C41.5 504.8 39.7 506.6 38.3 508.6C36.9 506.6 35 504.8 32.9 503.6C30.7 502.4 28.3 501.6 25.8 501.4C26.9 499.2 27.4 496.7 27.4 494.2C27.4 491.7 26.8 489.2 25.8 487C28.3 486.8 30.7 486.1 32.9 484.8C35.1 483.5 36.9 481.8 38.3 479.8C41.2 484 45.8 486.6 50.8 487C49.7 489.2 49.2 491.7 49.2 494.2C49.2 496.7 49.7 499.1 50.8 501.4Z" fill="black"/>
<path d="M38.3 506.5L38.9 505.9C41.4 503.2 44.6 501.4 48.2 500.6L49 500.4L48.7 499.6C47.6 496.1 47.6 492.4 48.7 488.9L49 488.1L48.2 487.9C44.6 487.1 41.4 485.2 38.9 482.6L38.3 482L37.7 482.6C35.2 485.3 32 487.1 28.4 487.9L27.6 488.1L27.9 488.9C29 492.4 29 496.1 27.9 499.6L27.6 500.4L28.4 500.6C32 501.4 35.2 503.3 37.7 505.9L38.3 506.5ZM47 499.2C43.7 500.1 40.7 501.8 38.3 504.2C35.9 501.8 32.9 500.1 29.6 499.2C30.5 495.9 30.5 492.5 29.6 489.2C32.9 488.3 35.9 486.6 38.3 484.2C40.7 486.6 43.7 488.3 47 489.2C46.1 492.5 46.1 495.9 47 499.2Z" fill="black"/>
<path d="M38.3002 499.6C41.3002 499.6 43.7002 497.2 43.7002 494.2C43.7002 491.2 41.3002 488.8 38.3002 488.8C35.3002 488.8 32.9002 491.2 32.9002 494.2C32.9002 497.2 35.3002 499.6 38.3002 499.6ZM38.3002 490.3C40.4002 490.3 42.2002 492 42.2002 494.1C42.2002 496.2 40.5002 498 38.3002 498C36.1002 498 34.4002 496.3 34.4002 494.1C34.5002 492 36.2002 490.3 38.3002 490.3Z" fill="black"/>
<path d="M38.3001 497.5C40.1001 497.5 41.6001 496 41.6001 494.2C41.6001 492.4 40.1001 490.9 38.3001 490.9C36.5001 490.9 35.0001 492.4 35.0001 494.2C35.0001 496 36.5001 497.5 38.3001 497.5ZM38.3001 492.4C39.3001 492.4 40.0001 493.2 40.0001 494.1C40.0001 495.1 39.2001 495.8 38.3001 495.8C37.4001 495.8 36.6001 495 36.6001 494.1C36.6001 493.2 37.4001 492.4 38.3001 492.4Z" fill="black"/>
<path d="M38.3 601.6L39 600.4C40.3 598.1 42.2 596.2 44.5 594.9C46.8 593.6 49.4 592.9 52.1 592.9H53.5L52.8 591.7C51.5 589.4 50.8 586.8 50.8 584.1C50.8 581.5 51.5 578.8 52.8 576.5L53.5 575.3H52.1C46.7 575.3 41.7 572.4 39 567.7L38.3 566.5L37.6 567.7C36.3 570 34.4 571.9 32.1 573.2C29.8 574.5 27.2 575.2 24.5 575.2H23.1L23.8 576.4C25.1 578.7 25.8 581.3 25.8 584C25.8 586.7 25.1 589.3 23.8 591.6L23.1 592.8H24.5C27.2 592.8 29.8 593.5 32.1 594.8C34.4 596.1 36.3 598 37.6 600.3L38.3 601.6ZM50.8 591.2C48.3 591.4 45.9 592.1 43.7 593.4C41.5 594.6 39.7 596.4 38.3 598.4C36.9 596.4 35 594.6 32.9 593.4C30.7 592.2 28.3 591.4 25.8 591.2C26.9 589 27.4 586.5 27.4 584C27.4 581.5 26.8 579 25.8 576.8C28.3 576.6 30.7 575.9 32.9 574.6C35.1 573.3 36.9 571.6 38.3 569.6C41.2 573.8 45.8 576.4 50.8 576.8C49.7 579 49.2 581.5 49.2 584C49.2 586.5 49.7 589 50.8 591.2Z" fill="black"/>
<path d="M38.3 596.4L38.9 595.8C41.4 593.1 44.6 591.3 48.2 590.5L49 590.3L48.7 589.5C47.6 586 47.6 582.3 48.7 578.8L49 578L48.2 577.8C44.6 577 41.4 575.1 38.9 572.5L38.3 571.9L37.7 572.5C35.2 575.2 32 577 28.4 577.8L27.6 578L27.9 578.8C29 582.3 29 586 27.9 589.5L27.6 590.3L28.4 590.5C32 591.3 35.2 593.2 37.7 595.8L38.3 596.4ZM47 589C43.7 589.9 40.7 591.6 38.3 594C35.9 591.6 32.9 589.9 29.6 589C30.5 585.7 30.5 582.3 29.6 579C32.9 578.1 35.9 576.4 38.3 574C40.7 576.4 43.7 578.1 47 579C46.1 582.3 46.1 585.7 47 589Z" fill="black"/>
<path d="M38.3002 589.5C41.3002 589.5 43.7002 587.1 43.7002 584.1C43.7002 581.1 41.3002 578.7 38.3002 578.7C35.3002 578.7 32.9002 581.1 32.9002 584.1C32.9002 587.1 35.3002 589.5 38.3002 589.5ZM38.3002 580.2C40.4002 580.2 42.2002 581.9 42.2002 584.1C42.2002 586.3 40.5002 588 38.3002 588C36.1002 588 34.4002 586.3 34.4002 584.1C34.4002 581.9 36.2002 580.2 38.3002 580.2Z" fill="black"/>
<path d="M38.3001 587.4C40.1001 587.4 41.6001 585.9 41.6001 584.1C41.6001 582.3 40.1001 580.8 38.3001 580.8C36.5001 580.8 35.0001 582.3 35.0001 584.1C35.0001 585.9 36.5001 587.4 38.3001 587.4ZM38.3001 582.3C39.3001 582.3 40.0001 583.1 40.0001 584C40.0001 584.9 39.2001 585.7 38.3001 585.7C37.4001 585.7 36.6001 584.9 36.6001 584C36.6001 583.1 37.4001 582.3 38.3001 582.3Z" fill="black"/>
<path d="M38.3 63.1L39 61.9C40.3 59.6 42.2 57.7 44.5 56.4C46.8 55.1 49.4 54.4 52.1 54.4H53.5L52.8 53.2C51.5 50.9 50.8 48.3 50.8 45.6C50.8 42.9 51.5 40.3 52.8 38L53.5 36.8H52.1C46.7 36.8 41.7 33.9 39 29.2L38.3 28L37.6 29.2C36.3 31.5 34.4 33.4 32.1 34.7C29.8 36 27.2 36.7 24.5 36.7H23.1L23.8 37.9C25.1 40.2 25.8 42.8 25.8 45.5C25.8 48.2 25.1 50.8 23.8 53.1L23.1 54.3H24.5C27.2 54.3 29.8 55 32.1 56.3C34.4 57.6 36.3 59.5 37.6 61.8L38.3 63.1ZM50.8 52.8C48.3 53 45.9 53.7 43.7 55C41.5 56.2 39.7 58 38.3 60C36.9 58 35 56.2 32.9 55C30.7 53.8 28.3 53 25.8 52.8C26.9 50.6 27.4 48.1 27.4 45.6C27.4 43.1 26.8 40.6 25.8 38.4C28.3 38.2 30.7 37.5 32.9 36.2C35.1 34.9 36.9 33.2 38.3 31.2C41.2 35.4 45.8 38 50.8 38.4C49.7 40.6 49.2 43.1 49.2 45.6C49.2 48.1 49.7 50.5 50.8 52.8Z" fill="black"/>
<path d="M38.3 57.9L38.9 57.3C41.4 54.6 44.6 52.8 48.2 52L49 51.8L48.7 51C47.6 47.5 47.6 43.8 48.7 40.3L49 39.5L48.2 39.3C44.6 38.5 41.4 36.6 38.9 34L38.3 33.4L37.7 34C35.2 36.7 32 38.5 28.4 39.3L27.6 39.5L27.9 40.3C29 43.8 29 47.5 27.9 51L27.6 51.8L28.4 52C32 52.8 35.2 54.7 37.7 57.3L38.3 57.9ZM47 50.5C43.7 51.4 40.7 53.1 38.3 55.5C35.9 53.1 32.9 51.4 29.6 50.5C30.5 47.2 30.5 43.8 29.6 40.5C32.9 39.6 35.9 37.9 38.3 35.5C40.7 37.9 43.7 39.6 47 40.5C46.1 43.8 46.1 47.3 47 50.5Z" fill="black"/>
<path d="M38.3002 51C41.3002 51 43.7002 48.6 43.7002 45.6C43.7002 42.6 41.3002 40.2 38.3002 40.2C35.3002 40.2 32.9002 42.6 32.9002 45.6C32.9002 48.6 35.3002 51 38.3002 51ZM38.3002 41.7C40.4002 41.7 42.2002 43.4 42.2002 45.6C42.2002 47.7 40.5002 49.5 38.3002 49.5C36.1002 49.5 34.4002 47.8 34.4002 45.6C34.5002 43.4 36.2002 41.7 38.3002 41.7Z" fill="black"/>
<path d="M38.3001 48.9C40.1001 48.9 41.6001 47.4 41.6001 45.6C41.6001 43.8 40.1001 42.3 38.3001 42.3C36.5001 42.3 35.0001 43.8 35.0001 45.6C35.0001 47.4 36.5001 48.9 38.3001 48.9ZM38.3001 43.8C39.3001 43.8 40.0001 44.6 40.0001 45.5C40.0001 46.4 39.2001 47.2 38.3001 47.2C37.4001 47.2 36.6001 46.4 36.6001 45.5C36.6001 44.6 37.4001 43.8 38.3001 43.8Z" fill="black"/>
<path d="M126.2 150.3L126.9 149.1C128.2 146.8 130.1 144.9 132.4 143.6C134.7 142.3 137.3 141.6 140 141.6H141.4L140.7 140.4C139.4 138.1 138.7 135.5 138.7 132.8C138.7 130.1 139.4 127.5 140.7 125.2L141.4 124H140C134.6 124 129.6 121.1 126.9 116.4L126.2 115.2L125.5 116.4C124.2 118.7 122.3 120.6 120 121.9C117.7 123.2 115.1 123.9 112.4 123.9H111L111.7 125.1C113 127.4 113.7 130 113.7 132.7C113.7 135.3 113 138 111.7 140.3L111 141.5H112.4C115.1 141.5 117.7 142.2 120 143.5C122.3 144.8 124.2 146.7 125.5 149L126.2 150.3ZM138.7 140C136.2 140.2 133.8 140.9 131.6 142.2C129.4 143.4 127.6 145.2 126.2 147.2C124.8 145.1 122.9 143.4 120.8 142.2C118.6 141 116.2 140.2 113.7 140C114.8 137.8 115.3 135.3 115.3 132.8C115.3 130.3 114.7 127.8 113.7 125.6C116.2 125.4 118.6 124.7 120.8 123.4C123 122.2 124.8 120.4 126.2 118.4C129.1 122.6 133.7 125.2 138.7 125.6C137.6 127.8 137.1 130.3 137.1 132.8C137 135.3 137.6 137.7 138.7 140Z" fill="black"/>
<path d="M126.2 145.1L126.8 144.5C129.3 141.8 132.5 140 136.1 139.2L136.9 139L136.6 138.2C135.5 134.7 135.5 131 136.6 127.5L136.9 126.7L136.1 126.5C132.5 125.7 129.3 123.8 126.8 121.2L126.2 120.6L125.6 121.2C123.1 123.9 119.9 125.7 116.3 126.5L115.5 126.7L115.8 127.5C116.9 131 116.9 134.7 115.8 138.2L115.5 139L116.3 139.2C119.9 140 123.1 141.9 125.6 144.5L126.2 145.1ZM134.8 137.8C131.5 138.7 128.5 140.4 126.1 142.8C123.7 140.4 120.7 138.7 117.4 137.8C118.3 134.5 118.3 131.1 117.4 127.8C120.7 126.9 123.7 125.2 126.1 122.8C128.5 125.2 131.5 126.9 134.8 127.8C134 131 134 134.5 134.8 137.8Z" fill="black"/>
<path d="M126.2 138.2C129.2 138.2 131.6 135.8 131.6 132.8C131.6 129.8 129.2 127.4 126.2 127.4C123.2 127.4 120.8 129.8 120.8 132.8C120.7 135.8 123.2 138.2 126.2 138.2ZM126.2 128.9C128.3 128.9 130.1 130.6 130.1 132.8C130.1 134.9 128.4 136.7 126.2 136.7C124.1 136.7 122.3 135 122.3 132.8C122.3 130.6 124 128.9 126.2 128.9Z" fill="black"/>
<path d="M126.2 136.1C128 136.1 129.5 134.6 129.5 132.8C129.5 131 128 129.5 126.2 129.5C124.4 129.5 122.9 131 122.9 132.8C122.9 134.6 124.3 136.1 126.2 136.1ZM126.2 131C127.2 131 127.9 131.8 127.9 132.7C127.9 133.6 127.1 134.4 126.2 134.4C125.3 134.4 124.5 133.6 124.5 132.7C124.5 131.8 125.2 131 126.2 131Z" fill="black"/>
<path d="M126.2 240L126.9 238.8C128.2 236.5 130.1 234.6 132.4 233.3C134.7 232 137.3 231.3 140 231.3H141.4L140.7 230C139.4 227.7 138.7 225.1 138.7 222.4C138.7 219.7 139.4 217.1 140.7 214.8L141.4 213.6H140C134.6 213.6 129.6 210.7 126.9 206L126.2 204.8L125.5 206C124.2 208.3 122.3 210.2 120 211.5C117.7 212.8 115.1 213.5 112.4 213.5H111L111.7 214.7C113 217 113.7 219.6 113.7 222.3C113.7 224.9 113 227.6 111.7 229.9L111 231.1H112.4C115.1 231.1 117.7 231.8 120 233.1C122.3 234.4 124.2 236.3 125.5 238.6L126.2 240ZM138.7 229.7C136.2 229.9 133.8 230.6 131.6 231.9C129.4 233.1 127.6 234.9 126.2 236.9C124.8 234.8 122.9 233.1 120.8 231.9C118.6 230.7 116.2 229.9 113.7 229.7C114.8 227.5 115.3 225 115.3 222.5C115.3 220 114.7 217.5 113.7 215.3C116.2 215.1 118.6 214.4 120.8 213.1C123 211.9 124.8 210.1 126.2 208.1C129.1 212.3 133.7 214.9 138.7 215.3C137.6 217.5 137.1 220 137.1 222.5C137 225 137.6 227.5 138.7 229.7Z" fill="black"/>
<path d="M126.2 234.8L126.8 234.2C129.3 231.5 132.5 229.7 136.1 228.9L136.9 228.7L136.6 227.9C135.5 224.4 135.5 220.7 136.6 217.2L136.9 216.4L136.1 216.2C132.5 215.4 129.3 213.5 126.8 210.9L126.2 210.3L125.6 210.9C123.1 213.6 119.9 215.4 116.3 216.2L115.5 216.4L115.8 217.2C116.9 220.7 116.9 224.4 115.8 227.9L115.5 228.7L116.3 228.9C119.9 229.7 123.1 231.6 125.6 234.2L126.2 234.8ZM134.8 227.5C131.5 228.4 128.5 230.1 126.1 232.5C123.7 230.1 120.7 228.4 117.4 227.5C118.3 224.2 118.3 220.8 117.4 217.5C120.7 216.6 123.7 214.9 126.1 212.5C128.5 214.9 131.5 216.6 134.8 217.5C134 220.8 134 224.2 134.8 227.5Z" fill="black"/>
<path d="M126.2 227.9C129.2 227.9 131.6 225.5 131.6 222.5C131.6 219.5 129.2 217.1 126.2 217.1C123.2 217.1 120.8 219.5 120.8 222.5C120.7 225.5 123.2 227.9 126.2 227.9ZM126.2 218.6C128.3 218.6 130.1 220.3 130.1 222.5C130.1 224.7 128.4 226.3 126.2 226.3C124.1 226.3 122.3 224.6 122.3 222.5C122.3 220.4 124 218.6 126.2 218.6Z" fill="black"/>
<path d="M126.2 225.8C128 225.8 129.5 224.3 129.5 222.5C129.5 220.7 128 219.2 126.2 219.2C124.4 219.2 122.9 220.7 122.9 222.5C122.9 224.3 124.3 225.8 126.2 225.8ZM126.2 220.8C127.2 220.8 127.9 221.6 127.9 222.5C127.9 223.4 127.1 224.2 126.2 224.2C125.3 224.2 124.5 223.4 124.5 222.5C124.5 221.5 125.2 220.8 126.2 220.8Z" fill="black"/>
<path d="M126.2 329.7L126.9 328.5C128.2 326.2 130.1 324.3 132.4 323C134.7 321.7 137.3 321 140 321H141.4L140.7 319.8C139.4 317.5 138.7 314.9 138.7 312.2C138.7 309.5 139.4 306.9 140.7 304.6L141.4 303.4H140C134.6 303.4 129.6 300.5 126.9 295.8L126.2 294.6L125.5 295.8C124.2 298.1 122.3 300 120 301.3C117.7 302.6 115.1 303.3 112.4 303.3H111L111.7 304.5C113 306.8 113.7 309.4 113.7 312.1C113.7 314.8 113 317.4 111.7 319.7L111 320.9H112.4C115.1 320.9 117.7 321.6 120 322.9C122.3 324.2 124.2 326.1 125.5 328.4L126.2 329.7ZM138.7 319.4C136.2 319.6 133.8 320.3 131.6 321.6C129.4 322.8 127.6 324.6 126.2 326.6C124.8 324.5 122.9 322.8 120.8 321.6C118.6 320.4 116.2 319.6 113.7 319.4C114.8 317.2 115.3 314.7 115.3 312.2C115.3 309.7 114.7 307.2 113.7 305C116.2 304.8 118.6 304.1 120.8 302.8C123 301.6 124.8 299.8 126.2 297.8C129.1 302 133.7 304.6 138.7 305C137.6 307.2 137.1 309.7 137.1 312.2C137.1 314.7 137.6 317.2 138.7 319.4Z" fill="black"/>
<path d="M126.2 324.6L126.8 324C129.3 321.3 132.5 319.5 136.1 318.7L136.9 318.5L136.6 317.7C135.5 314.2 135.5 310.5 136.6 307L136.9 306.2L136.1 306C132.5 305.2 129.3 303.3 126.8 300.7L126.2 300.1L125.6 300.7C123.1 303.4 119.9 305.2 116.3 306L115.5 306.2L115.8 307C116.9 310.5 116.9 314.2 115.8 317.7L115.5 318.5L116.3 318.7C119.9 319.5 123.1 321.4 125.6 324L126.2 324.6ZM134.8 317.2C131.5 318.1 128.5 319.8 126.1 322.2C123.7 319.8 120.7 318.1 117.4 317.2C118.3 313.9 118.3 310.5 117.4 307.2C120.7 306.3 123.7 304.6 126.1 302.2C128.5 304.6 131.5 306.3 134.8 307.2C134 310.5 134 313.9 134.8 317.2Z" fill="black"/>
<path d="M126.2 317.7C129.2 317.7 131.6 315.3 131.6 312.3C131.6 309.3 129.2 306.9 126.2 306.9C123.2 306.9 120.8 309.3 120.8 312.3C120.8 315.3 123.2 317.7 126.2 317.7ZM126.2 308.4C128.3 308.4 130.1 310.1 130.1 312.3C130.1 314.5 128.4 316.2 126.2 316.2C124.1 316.2 122.3 314.5 122.3 312.3C122.3 310.1 124 308.4 126.2 308.4Z" fill="black"/>
<path d="M126.2 315.5C128 315.5 129.5 314 129.5 312.2C129.5 310.4 128 308.9 126.2 308.9C124.4 308.9 122.9 310.4 122.9 312.2C122.9 314.1 124.3 315.5 126.2 315.5ZM126.2 310.5C127.2 310.5 127.9 311.3 127.9 312.2C127.9 313.2 127.1 313.9 126.2 313.9C125.3 313.9 124.5 313.1 124.5 312.2C124.5 311.3 125.2 310.5 126.2 310.5Z" fill="black"/>
<path d="M126.2 418.8L126.9 417.6C128.2 415.3 130.1 413.4 132.4 412.1C134.7 410.8 137.3 410.1 140 410.1H141.4L140.7 408.9C139.4 406.6 138.7 404 138.7 401.3C138.7 398.6 139.4 396 140.7 393.7L141.4 392.5H140C134.6 392.5 129.6 389.6 126.9 384.9L126.2 383.7L125.5 384.9C124.2 387.2 122.3 389.1 120 390.4C117.7 391.7 115.1 392.4 112.4 392.4H111L111.7 393.6C113 395.9 113.7 398.5 113.7 401.2C113.7 403.8 113 406.5 111.7 408.8L111 410H112.4C115.1 410 117.7 410.7 120 412C122.3 413.3 124.2 415.2 125.5 417.5L126.2 418.8ZM138.7 408.5C136.2 408.7 133.8 409.4 131.6 410.7C129.4 411.9 127.6 413.7 126.2 415.7C124.8 413.6 122.9 411.9 120.8 410.7C118.6 409.5 116.2 408.7 113.7 408.5C114.8 406.3 115.3 403.8 115.3 401.3C115.3 398.8 114.7 396.3 113.7 394.1C116.2 393.9 118.6 393.2 120.8 391.9C123 390.7 124.8 388.9 126.2 386.9C129.1 391.1 133.7 393.7 138.7 394.1C137.6 396.3 137.1 398.8 137.1 401.3C137 403.8 137.6 406.2 138.7 408.5Z" fill="black"/>
<path d="M126.2 413.6L126.8 413C129.3 410.3 132.5 408.5 136.1 407.7L136.9 407.5L136.6 406.7C135.5 403.2 135.5 399.5 136.6 396L136.9 395.2L136.1 395C132.5 394.2 129.3 392.3 126.8 389.7L126.2 389.1L125.6 389.7C123.1 392.4 119.9 394.2 116.3 395L115.5 395.2L115.8 396C116.9 399.5 116.9 403.2 115.8 406.7L115.5 407.5L116.3 407.7C119.9 408.5 123.1 410.4 125.6 413L126.2 413.6ZM134.8 406.3C131.5 407.2 128.5 408.9 126.1 411.3C123.7 408.9 120.7 407.2 117.4 406.3C118.3 403 118.3 399.6 117.4 396.3C120.7 395.4 123.7 393.7 126.1 391.3C128.5 393.7 131.5 395.4 134.8 396.3C134 399.6 134 403 134.8 406.3Z" fill="black"/>
<path d="M126.2 406.7C129.2 406.7 131.6 404.3 131.6 401.3C131.6 398.3 129.2 395.9 126.2 395.9C123.2 395.9 120.8 398.3 120.8 401.3C120.7 404.3 123.2 406.7 126.2 406.7ZM126.2 397.4C128.3 397.4 130.1 399.1 130.1 401.3C130.1 403.4 128.4 405.2 126.2 405.2C124.1 405.2 122.3 403.5 122.3 401.3C122.3 399.2 124 397.4 126.2 397.4Z" fill="black"/>
<path d="M126.2 404.6C128 404.6 129.5 403.1 129.5 401.3C129.5 399.5 128 398 126.2 398C124.4 398 122.9 399.5 122.9 401.3C122.9 403.1 124.3 404.6 126.2 404.6ZM126.2 399.6C127.2 399.6 127.9 400.4 127.9 401.3C127.9 402.3 127.1 403 126.2 403C125.3 403 124.5 402.2 124.5 401.3C124.5 400.3 125.2 399.6 126.2 399.6Z" fill="black"/>
<path d="M126.2 511.7L126.9 510.5C128.2 508.2 130.1 506.3 132.4 505C134.7 503.7 137.3 503 140 503H141.4L140.7 501.8C139.4 499.5 138.7 496.9 138.7 494.2C138.7 491.5 139.4 488.9 140.7 486.6L141.4 485.4H140C134.6 485.4 129.6 482.5 126.9 477.8L126.2 476.6L125.5 477.8C124.2 480.1 122.3 482 120 483.3C117.7 484.6 115.1 485.3 112.4 485.3H111L111.7 486.5C113 488.8 113.7 491.4 113.7 494.1C113.7 496.7 113 499.4 111.7 501.7L111 502.9H112.4C115.1 502.9 117.7 503.6 120 504.9C122.3 506.2 124.2 508.1 125.5 510.4L126.2 511.7ZM138.7 501.4C136.2 501.6 133.8 502.3 131.6 503.6C129.4 504.8 127.6 506.6 126.2 508.6C124.8 506.5 122.9 504.8 120.8 503.6C118.6 502.4 116.2 501.6 113.7 501.4C114.8 499.2 115.3 496.7 115.3 494.2C115.3 491.7 114.7 489.2 113.7 487C116.2 486.8 118.6 486.1 120.8 484.8C123 483.6 124.8 481.8 126.2 479.8C129.1 484 133.7 486.6 138.7 487C137.6 489.2 137.1 491.7 137.1 494.2C137 496.7 137.6 499.1 138.7 501.4Z" fill="black"/>
<path d="M126.2 506.5L126.8 505.9C129.3 503.2 132.5 501.4 136.1 500.6L136.9 500.4L136.6 499.6C135.5 496.1 135.5 492.4 136.6 488.9L136.9 488.1L136.1 487.9C132.5 487.1 129.3 485.2 126.8 482.6L126.2 482L125.6 482.6C123.1 485.3 119.9 487.1 116.3 487.9L115.5 488.1L115.8 488.9C116.9 492.4 116.9 496.1 115.8 499.6L115.5 500.4L116.3 500.6C119.9 501.4 123.1 503.3 125.6 505.9L126.2 506.5ZM134.8 499.2C131.5 500.1 128.5 501.8 126.1 504.2C123.7 501.8 120.7 500.1 117.4 499.2C118.3 495.9 118.3 492.5 117.4 489.2C120.7 488.3 123.7 486.6 126.1 484.2C128.5 486.6 131.5 488.3 134.8 489.2C134 492.5 134 495.9 134.8 499.2Z" fill="black"/>
<path d="M126.2 499.6C129.2 499.6 131.6 497.2 131.6 494.2C131.6 491.2 129.2 488.8 126.2 488.8C123.2 488.8 120.8 491.2 120.8 494.2C120.7 497.2 123.2 499.6 126.2 499.6ZM126.2 490.3C128.3 490.3 130.1 492 130.1 494.1C130.1 496.2 128.4 498 126.2 498C124.1 498 122.3 496.3 122.3 494.1C122.3 492 124 490.3 126.2 490.3Z" fill="black"/>
<path d="M126.2 497.5C128 497.5 129.5 496 129.5 494.2C129.5 492.4 128 490.9 126.2 490.9C124.4 490.9 122.9 492.4 122.9 494.2C122.9 496 124.3 497.5 126.2 497.5ZM126.2 492.4C127.2 492.4 127.9 493.2 127.9 494.1C127.9 495.1 127.1 495.8 126.2 495.8C125.3 495.8 124.5 495 124.5 494.1C124.5 493.2 125.2 492.4 126.2 492.4Z" fill="black"/>
<path d="M126.2 601.6L126.9 600.4C128.2 598.1 130.1 596.2 132.4 594.9C134.7 593.6 137.3 592.9 140 592.9H141.4L140.7 591.7C139.4 589.4 138.7 586.8 138.7 584.1C138.7 581.4 139.4 578.8 140.7 576.5L141.4 575.3H140C134.6 575.3 129.6 572.4 126.9 567.7L126.2 566.5L125.5 567.7C124.2 570 122.3 571.9 120 573.2C117.7 574.5 115.1 575.2 112.4 575.2H111L111.7 576.4C113 578.7 113.7 581.3 113.7 584C113.7 586.6 113 589.3 111.7 591.6L111 592.8H112.4C115.1 592.8 117.7 593.5 120 594.8C122.3 596.1 124.2 598 125.5 600.3L126.2 601.6ZM138.7 591.2C136.2 591.4 133.8 592.1 131.6 593.4C129.4 594.6 127.6 596.4 126.2 598.4C124.8 596.3 122.9 594.6 120.8 593.4C118.6 592.2 116.2 591.4 113.7 591.2C114.8 589 115.3 586.5 115.3 584C115.3 581.5 114.7 579 113.7 576.8C116.2 576.6 118.6 575.9 120.8 574.6C123 573.4 124.8 571.6 126.2 569.6C129.1 573.8 133.7 576.4 138.7 576.8C137.6 579 137.1 581.5 137.1 584C137.1 586.5 137.6 589 138.7 591.2Z" fill="black"/>
<path d="M126.2 596.4L126.8 595.8C129.3 593.1 132.5 591.3 136.1 590.5L136.9 590.3L136.6 589.5C135.5 586 135.5 582.3 136.6 578.8L136.9 578L136.1 577.8C132.5 577 129.3 575.1 126.8 572.5L126.2 571.9L125.6 572.5C123.1 575.2 119.9 577 116.3 577.8L115.5 578L115.8 578.8C116.9 582.3 116.9 586 115.8 589.5L115.5 590.3L116.3 590.5C119.9 591.3 123.1 593.2 125.6 595.8L126.2 596.4ZM134.8 589C131.5 589.9 128.5 591.6 126.1 594C123.7 591.6 120.7 589.9 117.4 589C118.3 585.7 118.3 582.3 117.4 579C120.7 578.1 123.7 576.4 126.1 574C128.5 576.4 131.5 578.1 134.8 579C134 582.3 134 585.7 134.8 589Z" fill="black"/>
<path d="M126.2 589.5C129.2 589.5 131.6 587.1 131.6 584.1C131.6 581.1 129.2 578.7 126.2 578.7C123.2 578.7 120.8 581.1 120.8 584.1C120.8 587.1 123.2 589.5 126.2 589.5ZM126.2 580.2C128.3 580.2 130.1 581.9 130.1 584.1C130.1 586.3 128.4 588 126.2 588C124.1 588 122.3 586.3 122.3 584.1C122.3 581.9 124 580.2 126.2 580.2Z" fill="black"/>
<path d="M126.2 587.4C128 587.4 129.5 585.9 129.5 584.1C129.5 582.3 128 580.8 126.2 580.8C124.4 580.8 122.9 582.3 122.9 584.1C122.9 585.9 124.3 587.4 126.2 587.4ZM126.2 582.3C127.2 582.3 127.9 583.1 127.9 584C127.9 584.9 127.1 585.7 126.2 585.7C125.3 585.7 124.5 584.9 124.5 584C124.5 583.1 125.2 582.3 126.2 582.3Z" fill="black"/>
<path d="M213.4 240L214.1 238.8C215.6 236.3 217.7 234.2 220.3 232.9C220.7 232.7 220.8 232.2 220.6 231.8C220.4 231.4 219.9 231.3 219.5 231.5C217 232.8 214.9 234.6 213.4 236.9C212 234.9 210.1 233.1 208 231.9C205.8 230.7 203.4 229.9 200.9 229.7C202 227.5 202.5 225 202.5 222.5C202.5 220 201.9 217.5 200.9 215.3C203.1 215.1 205.3 214.5 207.2 213.5C209.5 212.3 211.6 210.6 213.1 208.4C213.4 208 213.3 207.5 212.9 207.3C212.5 207 212 207.1 211.8 207.5C210.4 209.4 208.6 211 206.5 212.1C204.4 213.2 202 213.8 199.6 213.8H198.2L198.9 215C200.2 217.3 200.9 219.9 200.9 222.6C200.9 225.3 200.2 227.9 198.9 230.2L198.2 231.4H199.7C202.4 231.4 205 232.1 207.3 233.4C209.6 234.7 211.5 236.6 212.8 238.9L213.4 240Z" fill="black"/>
<path d="M213.4 234.8L214 234.2C215.6 232.5 217.5 231.1 219.6 230.1C220 229.9 220.2 229.4 220 229C219.8 228.6 219.3 228.4 218.9 228.6C216.8 229.6 215 230.9 213.4 232.5C211 230.1 208 228.4 204.7 227.5C205.6 224.2 205.6 220.8 204.7 217.5C208.3 216.5 211.4 214.6 214 211.9C214.3 211.6 214.3 211.1 214 210.8C213.7 210.5 213.2 210.5 212.9 210.8C210.4 213.5 207.2 215.3 203.6 216.1L202.8 216.3L203.1 217.1C204.2 220.6 204.2 224.3 203.1 227.8L202.8 228.6L203.6 228.8C207.2 229.6 210.4 231.5 212.9 234.1L213.4 234.8Z" fill="black"/>
<path d="M213.4 227.9C215.7 227.9 217.7 226.5 218.5 224.3C218.6 223.9 218.4 223.4 218 223.3C217.6 223.2 217.1 223.4 217 223.8C216.5 225.3 215 226.3 213.4 226.3C211.3 226.3 209.5 224.6 209.5 222.5C209.5 220.4 211.2 218.6 213.4 218.6C214.2 218.6 215 218.8 215.6 219.3C216 219.6 216.5 219.5 216.7 219.1C217 218.7 216.9 218.2 216.5 218C215.6 217.3 214.5 217 213.3 217C210.3 217 207.9 219.4 207.9 222.4C208 225.5 210.4 227.9 213.4 227.9Z" fill="black"/>
<path d="M213.4 225.8C215.2 225.8 216.7 224.3 216.7 222.5C216.7 220.7 215.2 219.2 213.4 219.2C211.6 219.2 210.1 220.7 210.1 222.5C210.1 224.3 211.6 225.8 213.4 225.8ZM213.4 220.8C214.3 220.8 215.1 221.6 215.1 222.5C215.1 223.4 214.3 224.2 213.4 224.2C212.5 224.2 211.7 223.4 211.7 222.5C211.7 221.5 212.5 220.8 213.4 220.8Z" fill="black"/>
<path d="M212.5 329.7L213.2 328.5C214.5 326.2 216.4 324.3 218.7 323C221 321.7 223.6 321 226.3 321H227.7L227 319.8C225.7 317.5 225 314.9 225 312.2C225 309.5 225.7 306.9 227 304.6L227.7 303.5H226.3C220.9 303.5 215.9 300.6 213.2 295.9L212.5 294.7L211.8 295.9C210.5 298.2 208.6 300.1 206.3 301.4C204 302.7 201.4 303.4 198.7 303.4H197.3L198 304.6C199.3 306.9 200 309.5 200 312.2C200 314.8 199.3 317.5 198 319.8L197.3 321H198.7C201.4 321 204 321.7 206.3 323C208.6 324.3 210.5 326.2 211.8 328.5L212.5 329.7ZM225 319.4C222.5 319.6 220.1 320.3 217.9 321.6C215.7 322.9 213.9 324.6 212.5 326.6C211.1 324.5 209.2 322.8 207.1 321.6C204.9 320.4 202.5 319.6 200 319.4C201.1 317.2 201.6 314.7 201.6 312.2C201.6 309.7 201 307.2 200 305C202.5 304.8 204.9 304.1 207.1 302.8C209.3 301.6 211.1 299.8 212.5 297.8C215.4 302 220 304.6 225 305C223.9 307.2 223.4 309.7 223.4 312.2C223.4 314.7 223.9 317.2 225 319.4Z" fill="black"/>
<path d="M212.5 324.6L213.1 324C215.6 321.3 218.8 319.5 222.4 318.7L223.2 318.5L222.9 317.7C221.8 314.2 221.8 310.5 222.9 307L223.2 306L222.4 305.8C218.8 305 215.6 303.1 213.1 300.5L212.5 299.9L211.9 300.5C209.4 303.2 206.2 305 202.6 305.8L201.8 306L202.1 306.8C203.2 310.3 203.2 314 202.1 317.5L201.8 318.3L202.6 318.5C206.2 319.3 209.4 321.2 211.9 323.8L212.5 324.6ZM221.2 317.2C217.9 318.1 214.9 319.8 212.5 322.2C210.1 319.8 207.1 318.1 203.8 317.2C204.7 313.9 204.7 310.5 203.8 307.2C207.1 306.3 210.1 304.6 212.5 302.2C214.9 304.6 217.9 306.3 221.2 307.2C220.3 310.5 220.3 313.9 221.2 317.2Z" fill="black"/>
<path d="M212.5 317.7C215.5 317.7 217.9 315.3 217.9 312.3C217.9 309.3 215.5 306.9 212.5 306.9C209.5 306.9 207.1 309.3 207.1 312.3C207.1 315.3 209.5 317.7 212.5 317.7ZM212.5 308.4C214.6 308.4 216.4 310.1 216.4 312.3C216.4 314.5 214.7 316.2 212.5 316.2C210.3 316.2 208.6 314.5 208.6 312.3C208.6 310.1 210.4 308.4 212.5 308.4Z" fill="black"/>
<path d="M212.5 315.5C214.3 315.5 215.8 314 215.8 312.2C215.8 310.4 214.3 308.9 212.5 308.9C210.7 308.9 209.2 310.4 209.2 312.2C209.2 314.1 210.7 315.5 212.5 315.5ZM212.5 310.5C213.4 310.5 214.2 311.3 214.2 312.2C214.2 313.2 213.4 313.9 212.5 313.9C211.5 313.9 210.8 313.1 210.8 312.2C210.8 311.3 211.5 310.5 212.5 310.5Z" fill="black"/>
<path d="M212.5 418.8L213.2 417.6C214.5 415.3 216.4 413.4 218.7 412.1C221 410.8 223.6 410.1 226.3 410.1H227.7L227 408.9C225.7 406.6 225 404 225 401.3C225 398.6 225.7 396 227 393.7L227.7 392.5H226.3C220.9 392.5 215.9 389.6 213.2 384.9L212.5 383.7L211.8 384.9C210.5 387.2 208.6 389.1 206.3 390.4C204 391.7 201.4 392.4 198.7 392.4H197.3L198 393.6C199.3 395.9 200 398.5 200 401.2C200 403.8 199.3 406.5 198 408.8L197.3 410H198.7C201.4 410 204 410.7 206.3 412C208.6 413.3 210.5 415.2 211.8 417.5L212.5 418.8ZM225 408.5C222.5 408.7 220.1 409.4 217.9 410.7C215.7 411.9 213.9 413.7 212.5 415.7C211.1 413.6 209.2 411.9 207.1 410.7C204.9 409.5 202.5 408.7 200 408.5C201.1 406.3 201.6 403.8 201.6 401.3C201.6 398.8 201 396.3 200 394.1C202.5 393.9 204.9 393.2 207.1 391.9C209.3 390.7 211.1 388.9 212.5 386.9C215.4 391.1 220 393.7 225 394.1C223.9 396.3 223.4 398.8 223.4 401.3C223.3 403.8 223.9 406.2 225 408.5Z" fill="black"/>
<path d="M212.5 413.6L213.1 413C215.6 410.3 218.8 408.5 222.4 407.7L223.2 407.5L222.9 406.7C221.8 403.2 221.8 399.5 222.9 396L223.2 395.2L222.4 395C218.8 394.2 215.6 392.3 213.1 389.7L212.5 389.1L211.9 389.7C209.4 392.4 206.2 394.2 202.6 395L201.8 395.2L202.1 396C203.2 399.5 203.2 403.2 202.1 406.7L201.8 407.5L202.6 407.7C206.2 408.5 209.4 410.4 211.9 413L212.5 413.6ZM221.2 406.3C217.9 407.2 214.9 408.9 212.5 411.3C210.1 408.9 207.1 407.2 203.8 406.3C204.7 403 204.7 399.6 203.8 396.3C207.1 395.4 210.1 393.7 212.5 391.3C214.9 393.7 217.9 395.4 221.2 396.3C220.3 399.6 220.3 403 221.2 406.3Z" fill="black"/>
<path d="M212.5 406.7C215.5 406.7 217.9 404.3 217.9 401.3C217.9 398.3 215.5 395.9 212.5 395.9C209.5 395.9 207.1 398.3 207.1 401.3C207 404.3 209.5 406.7 212.5 406.7ZM212.5 397.4C214.6 397.4 216.4 399.1 216.4 401.3C216.4 403.4 214.7 405.2 212.5 405.2C210.3 405.2 208.6 403.5 208.6 401.3C208.6 399.2 210.4 397.4 212.5 397.4Z" fill="black"/>
<path d="M212.5 404.6C214.3 404.6 215.8 403.1 215.8 401.3C215.8 399.5 214.3 398 212.5 398C210.7 398 209.2 399.5 209.2 401.3C209.2 403.1 210.7 404.6 212.5 404.6ZM212.5 399.6C213.4 399.6 214.2 400.4 214.2 401.3C214.2 402.3 213.4 403 212.5 403C211.5 403 210.8 402.2 210.8 401.3C210.8 400.3 211.5 399.6 212.5 399.6Z" fill="black"/>
<path d="M212.5 511.7L213.2 510.5C214.5 508.2 216.4 506.3 218.7 505C221 503.7 223.6 503 226.3 503H227.7L227 501.8C225.7 499.5 225 496.9 225 494.2C225 491.5 225.7 488.9 227 486.6L227.7 485.4H226.3C220.9 485.4 215.9 482.5 213.2 477.8L212.5 476.6L211.8 477.8C210.5 480.1 208.6 482 206.3 483.3C204 484.6 201.4 485.3 198.7 485.3H197.3L198 486.5C199.3 488.8 200 491.4 200 494.1C200 496.7 199.3 499.4 198 501.7L197.3 502.9H198.7C201.4 502.9 204 503.6 206.3 504.9C208.6 506.2 210.5 508.1 211.8 510.4L212.5 511.7ZM225 501.4C222.5 501.6 220.1 502.3 217.9 503.6C215.7 504.9 213.9 506.6 212.5 508.6C211.1 506.5 209.2 504.8 207.1 503.6C204.9 502.4 202.5 501.6 200 501.4C201.1 499.2 201.6 496.7 201.6 494.2C201.6 491.7 201 489.2 200 487C202.5 486.8 204.9 486.1 207.1 484.8C209.3 483.6 211.1 481.8 212.5 479.8C215.4 484 220 486.6 225 487C223.9 489.2 223.4 491.7 223.4 494.2C223.3 496.7 223.9 499.1 225 501.4Z" fill="black"/>
<path d="M212.5 506.5L213.1 505.9C215.6 503.2 218.8 501.4 222.4 500.6L223.2 500.4L222.9 499.6C221.8 496.1 221.8 492.4 222.9 488.9L223.2 488L222.4 487.8C218.8 487 215.6 485.1 213.1 482.5L212.5 481.9L211.9 482.5C209.4 485.2 206.2 487 202.6 487.8L201.8 488L202.1 488.8C203.2 492.3 203.2 496 202.1 499.5L201.8 500.3L202.6 500.5C206.2 501.3 209.4 503.2 211.9 505.8L212.5 506.5ZM221.2 499.2C217.9 500.1 214.9 501.8 212.5 504.2C210.1 501.8 207.1 500.1 203.8 499.2C204.7 495.9 204.7 492.5 203.8 489.2C207.1 488.3 210.1 486.6 212.5 484.2C214.9 486.6 217.9 488.3 221.2 489.2C220.3 492.5 220.3 495.9 221.2 499.2Z" fill="black"/>
<path d="M212.5 499.6C215.5 499.6 217.9 497.2 217.9 494.2C217.9 491.2 215.5 488.8 212.5 488.8C209.5 488.8 207.1 491.2 207.1 494.2C207 497.2 209.5 499.6 212.5 499.6ZM212.5 490.3C214.6 490.3 216.4 492 216.4 494.1C216.4 496.2 214.7 498 212.5 498C210.3 498 208.6 496.3 208.6 494.1C208.6 492 210.4 490.3 212.5 490.3Z" fill="black"/>
<path d="M212.5 497.5C214.3 497.5 215.8 496 215.8 494.2C215.8 492.4 214.3 490.9 212.5 490.9C210.7 490.9 209.2 492.4 209.2 494.2C209.2 496 210.7 497.5 212.5 497.5ZM212.5 492.4C213.4 492.4 214.2 493.2 214.2 494.1C214.2 495.1 213.4 495.8 212.5 495.8C211.5 495.8 210.8 495 210.8 494.1C210.8 493.2 211.5 492.4 212.5 492.4Z" fill="black"/>
<path d="M212.5 601.6L213.2 600.4C214.5 598.1 216.4 596.2 218.7 594.9C221 593.6 223.6 592.9 226.3 592.9H227.7L227 591.7C225.7 589.4 225 586.8 225 584.1C225 581.4 225.7 578.8 227 576.5L227.7 575.3H226.3C220.9 575.3 215.9 572.4 213.2 567.7L212.5 566.5L211.8 567.7C210.5 570 208.6 571.9 206.3 573.2C204 574.5 201.4 575.2 198.7 575.2H197.3L198 576.4C199.3 578.7 200 581.3 200 584C200 586.6 199.3 589.3 198 591.6L197.3 592.8H198.7C201.4 592.8 204 593.5 206.3 594.8C208.6 596.1 210.5 598 211.8 600.3L212.5 601.6ZM225 591.2C222.5 591.4 220.1 592.1 217.9 593.4C215.7 594.7 213.9 596.4 212.5 598.4C211.1 596.3 209.2 594.6 207.1 593.4C204.9 592.2 202.5 591.4 200 591.2C201.1 589 201.6 586.5 201.6 584C201.6 581.5 201 579 200 576.8C202.5 576.6 204.9 575.9 207.1 574.6C209.3 573.4 211.1 571.6 212.5 569.6C215.4 573.8 220 576.4 225 576.8C223.9 579 223.4 581.5 223.4 584C223.4 586.5 223.9 589 225 591.2Z" fill="black"/>
<path d="M212.5 596.4L213.1 595.8C215.6 593.1 218.8 591.3 222.4 590.5L223.2 590.3L222.9 589.5C221.8 586 221.8 582.3 222.9 578.8L223.2 578L222.4 577.8C218.8 577 215.6 575.1 213.1 572.5L212.5 571.9L211.9 572.5C209.4 575.2 206.2 577 202.6 577.8L201.8 578L202.1 578.8C203.2 582.3 203.2 586 202.1 589.5L201.8 590.3L202.6 590.5C206.2 591.3 209.4 593.2 211.9 595.8L212.5 596.4ZM221.2 589C217.9 589.9 214.9 591.6 212.5 594C210.1 591.6 207.1 589.9 203.8 589C204.7 585.7 204.7 582.3 203.8 579C207.1 578.1 210.1 576.4 212.5 574C214.9 576.4 217.9 578.1 221.2 579C220.3 582.3 220.3 585.7 221.2 589Z" fill="black"/>
<path d="M212.5 589.5C215.5 589.5 217.9 587.1 217.9 584.1C217.9 581.1 215.5 578.7 212.5 578.7C209.5 578.7 207.1 581.1 207.1 584.1C207.1 587.1 209.5 589.5 212.5 589.5ZM212.5 580.2C214.6 580.2 216.4 581.9 216.4 584.1C216.4 586.3 214.7 588 212.5 588C210.3 588 208.6 586.3 208.6 584.1C208.6 581.9 210.4 580.2 212.5 580.2Z" fill="black"/>
<path d="M212.5 587.4C214.3 587.4 215.8 585.9 215.8 584.1C215.8 582.3 214.3 580.8 212.5 580.8C210.7 580.8 209.2 582.3 209.2 584.1C209.2 585.9 210.7 587.4 212.5 587.4ZM212.5 582.3C213.4 582.3 214.2 583.1 214.2 584C214.2 584.9 213.4 585.7 212.5 585.7C211.5 585.7 210.8 584.9 210.8 584C210.8 583.1 211.5 582.3 212.5 582.3Z" fill="black"/>
<path d="M0.000198364 633.5H232.7V632.7V621V441.3V319.2C232.7 251.6 212.5 186.4 174.4 130.5C136.2 74.7 82.7002 32.2 19.7002 7.7L0.000198364 0V633.5ZM231.1 631.9H1.60019V2.3L19.2002 9.1C81.9002 33.6 135.1 75.8 173.1 131.4C211.1 186.9 231.2 251.9 231.1 319.1V441.2V620.9V631.9Z" fill="black"/>
<path d="M0.8004 621.7H77.1004C77.5004 621.7 77.9004 621.3 77.9004 620.9C77.9004 620.5 77.5004 620.1 77.1004 620.1H0.8004C0.4004 620.1 0.000396729 620.5 0.000396729 620.9C0.000396729 621.4 0.3004 621.7 0.8004 621.7Z" fill="black"/>
<path d="M89.9 621.7H163.7C164.1 621.7 164.5 621.3 164.5 620.9C164.5 620.5 164.1 620.1 163.7 620.1H89.9C89.5 620.1 89.1 620.5 89.1 620.9C89.1 621.4 89.5 621.7 89.9 621.7Z" fill="black"/>
<path d="M176.5 621.7H231.9C232.3 621.7 232.7 621.3 232.7 620.9C232.7 620.5 232.4 620.1 231.9 620.1H176.5C176.1 620.1 175.7 620.5 175.7 620.9C175.7 621.4 176.1 621.7 176.5 621.7Z" fill="black"/>
<path d="M0.8004 172.5H77.9004V93.8H0.8004C0.4004 93.8 0.000396729 94.2 0.000396729 94.6C0.000396729 95 0.4004 95.4 0.8004 95.4H76.3004V170.9H0.8004C0.4004 170.9 0.000396729 171.3 0.000396729 171.7C0.000396729 172.1 0.3004 172.5 0.8004 172.5Z" fill="black"/>
<path d="M0.8004 262.3H77.9004V183.7H0.8004C0.4004 183.7 0.000396729 184.1 0.000396729 184.5C0.000396729 184.9 0.4004 185.3 0.8004 185.3H76.3004V260.7H0.8004C0.4004 260.7 0.000396729 261.1 0.000396729 261.5C0.000396729 261.9 0.3004 262.3 0.8004 262.3Z" fill="black"/>
<path d="M0.8004 352.2H77.9004V273.6H0.8004C0.4004 273.6 0.000396729 274 0.000396729 274.4C0.000396729 274.8 0.4004 275.2 0.8004 275.2H76.3004V350.6H0.8004C0.4004 350.6 0.000396729 351 0.000396729 351.4C0.000396729 351.8 0.3004 352.2 0.8004 352.2Z" fill="black"/>
<path d="M0.8004 442H77.9004V363.4H0.8004C0.4004 363.4 0.000396729 363.8 0.000396729 364.2C0.000396729 364.6 0.4004 365 0.8004 365H76.3004V440.4H0.8004C0.4004 440.4 0.000396729 440.8 0.000396729 441.2C0.000396729 441.6 0.3004 442 0.8004 442Z" fill="black"/>
<path d="M0.8004 531.9H77.9004V453.3H0.8004C0.4004 453.3 0.000396729 453.7 0.000396729 454.1C0.000396729 454.5 0.4004 454.9 0.8004 454.9H76.3004V530.3H0.8004C0.4004 530.3 0.000396729 530.7 0.000396729 531.1C0.000396729 531.5 0.3004 531.9 0.8004 531.9Z" fill="black"/>
<path d="M76.2002 621.7H90.7002V544.6H162.9V621.7H177.3V544.6H232.7V530.2H177.4V454.8H232.7V454V440.4H177.3V365H232.7V364.2V350.6H177.3V275.2H229.8L229.3 271.2C229.2 270.8 228.8 270.5 228.4 270.5C228 270.6 227.7 271 227.7 271.4L228 273.5H175.7V352.1H231.1V363.3H175.7V442H231.1V453.2H175.7V531.8H231.1V543H175.7V620.1H164.4V543H89.0002V620.1H77.7002V543H0.600189C0.200189 543 -0.199799 543.4 -0.199799 543.8C-0.199799 544.2 0.200189 544.6 0.600189 544.6H76.1002V621.7H76.2002Z" fill="black"/>
<path d="M228.4 271.9H228.5C228.9 271.8 229.2 271.4 229.2 271L228.4 265.9L227.5 260.8H177.2V185.4H204.7L202.8 181.2L200.9 177.1L198 171.1H177.4V135.5L174.2 130.7L169.6 124.2L162.9 115.2V171.1H90.7002V95.4H146.5L132.6 81H90.7002V46.1L76.2002 36.5V81H0.700195C0.300195 81 -0.0998077 81.4 -0.0998077 81.8C-0.0998077 82.2 0.300195 82.6 0.700195 82.6H77.8002V39.5L89.1002 47V82.7H131.9L142.8 93.8H89.2002V172.5H164.5V119.9L168.3 125L172.8 131.4L175.8 135.8V172.5H196.9L199.4 177.6L201.3 181.7L202.2 183.7H175.7V262.3H226.2L226.8 266.1L227.7 271.3C227.7 271.7 228.1 271.9 228.4 271.9Z" fill="black"/>
<path d="M88.7002 531.9H163.7V453.3H88.7002V531.9ZM162.1 530.3H90.3002V454.9H162.1V530.3Z" fill="black"/>
<path d="M88.7002 442H163.7V363.4H88.7002V442ZM162.1 440.4H90.3002V365H162.1V440.4Z" fill="black"/>
<path d="M88.7002 352.2H163.7V273.6H88.7002V352.2ZM162.1 350.6H90.3002V275.2H162.1V350.6Z" fill="black"/>
<path d="M88.7002 262.3H163.7V183.7H88.7002V262.3ZM162.1 260.7H90.3002V185.3H162.1V260.7Z" fill="black"/>
<path d="M83.2004 92.7C85.5004 92.7 87.4004 90.8 87.4004 88.5C87.4004 86.2 85.5004 84.3 83.2004 84.3C80.9004 84.3 79.0004 86.2 79.0004 88.5C78.9004 90.8 80.8004 92.7 83.2004 92.7ZM83.2004 85.9C84.6004 85.9 85.8004 87.1 85.8004 88.5C85.8004 89.9 84.6004 91.1 83.2004 91.1C81.8004 91.1 80.6004 89.9 80.6004 88.5C80.5004 87 81.7004 85.9 83.2004 85.9Z" fill="black"/>
<path d="M83.2004 182.4C85.5004 182.4 87.4004 180.5 87.4004 178.2C87.4004 175.9 85.5004 174 83.2004 174C80.9004 174 79.0004 175.9 79.0004 178.2C78.9004 180.5 80.8004 182.4 83.2004 182.4ZM83.2004 175.5C84.6004 175.5 85.8004 176.7 85.8004 178.1C85.8004 179.5 84.6004 180.7 83.2004 180.7C81.8004 180.7 80.6004 179.5 80.6004 178.1C80.5004 176.7 81.7004 175.5 83.2004 175.5Z" fill="black"/>
<path d="M83.2004 272.1C85.5004 272.1 87.4004 270.2 87.4004 267.9C87.4004 265.6 85.5004 263.7 83.2004 263.7C80.9004 263.7 79.0004 265.6 79.0004 267.9C78.9004 270.2 80.8004 272.1 83.2004 272.1ZM83.2004 265.2C84.6004 265.2 85.8004 266.4 85.8004 267.8C85.8004 269.3 84.6004 270.4 83.2004 270.4C81.8004 270.4 80.6004 269.2 80.6004 267.8C80.5004 266.4 81.7004 265.2 83.2004 265.2Z" fill="black"/>
<path d="M83.2004 361.8C85.5004 361.8 87.4004 359.9 87.4004 357.6C87.4004 355.3 85.5004 353.4 83.2004 353.4C80.9004 353.4 79.0004 355.3 79.0004 357.6C78.9004 359.9 80.8004 361.8 83.2004 361.8ZM83.2004 354.9C84.6004 354.9 85.8004 356.1 85.8004 357.5C85.8004 358.9 84.6004 360.1 83.2004 360.1C81.8004 360.1 80.6004 358.9 80.6004 357.5C80.5004 356.1 81.7004 354.9 83.2004 354.9Z" fill="black"/>
<path d="M83.2004 451.5C85.5004 451.5 87.4004 449.6 87.4004 447.3C87.4004 445 85.5004 443.1 83.2004 443.1C80.9004 443.1 79.0004 445 79.0004 447.3C78.9004 449.6 80.8004 451.5 83.2004 451.5ZM83.2004 444.6C84.6004 444.6 85.8004 445.8 85.8004 447.2C85.8004 448.6 84.6004 449.8 83.2004 449.8C81.8004 449.8 80.6004 448.6 80.6004 447.2C80.5004 445.8 81.7004 444.6 83.2004 444.6Z" fill="black"/>
<path d="M83.2004 541.2C85.5004 541.2 87.4004 539.3 87.4004 537C87.4004 534.7 85.5004 532.8 83.2004 532.8C80.9004 532.8 79.0004 534.7 79.0004 537C78.9004 539.3 80.8004 541.2 83.2004 541.2ZM83.2004 534.3C84.6004 534.3 85.8004 535.5 85.8004 536.9C85.8004 538.4 84.6004 539.5 83.2004 539.5C81.8004 539.5 80.6004 538.3 80.6004 536.9C80.5004 535.5 81.7004 534.3 83.2004 534.3Z" fill="black"/>
<path d="M169.4 182.4C171.7 182.4 173.6 180.5 173.6 178.2C173.6 175.9 171.7 174 169.4 174C167.1 174 165.2 175.9 165.2 178.2C165.1 180.5 167 182.4 169.4 182.4ZM169.4 175.5C170.9 175.5 172 176.7 172 178.1C172 179.5 170.8 180.7 169.4 180.7C168 180.7 166.8 179.5 166.8 178.1C166.7 176.7 167.9 175.5 169.4 175.5Z" fill="black"/>
<path d="M169.4 272.1C171.7 272.1 173.6 270.2 173.6 267.9C173.6 265.6 171.7 263.7 169.4 263.7C167.1 263.7 165.2 265.6 165.2 267.9C165.1 270.2 167 272.1 169.4 272.1ZM169.4 265.2C170.9 265.2 172 266.4 172 267.8C172 269.3 170.8 270.4 169.4 270.4C168 270.4 166.8 269.2 166.8 267.8C166.7 266.4 167.9 265.2 169.4 265.2Z" fill="black"/>
<path d="M169.4 361.8C171.7 361.8 173.6 359.9 173.6 357.6C173.6 355.3 171.7 353.4 169.4 353.4C167.1 353.4 165.2 355.3 165.2 357.6C165.1 359.9 167 361.8 169.4 361.8ZM169.4 354.9C170.9 354.9 172 356.1 172 357.5C172 358.9 170.8 360.1 169.4 360.1C168 360.1 166.8 358.9 166.8 357.5C166.7 356.1 167.9 354.9 169.4 354.9Z" fill="black"/>
<path d="M169.4 451.5C171.7 451.5 173.6 449.6 173.6 447.3C173.6 445 171.7 443.1 169.4 443.1C167.1 443.1 165.2 445 165.2 447.3C165.1 449.6 167 451.5 169.4 451.5ZM169.4 444.6C170.9 444.6 172 445.8 172 447.2C172 448.6 170.8 449.8 169.4 449.8C168 449.8 166.8 448.6 166.8 447.2C166.7 445.8 167.9 444.6 169.4 444.6Z" fill="black"/>
<path d="M169.4 541.2C171.7 541.2 173.6 539.3 173.6 537C173.6 534.7 171.7 532.8 169.4 532.8C167.1 532.8 165.2 534.7 165.2 537C165.1 539.3 167 541.2 169.4 541.2ZM169.4 534.3C170.9 534.3 172 535.5 172 536.9C172 538.4 170.8 539.5 169.4 539.5C168 539.5 166.8 538.3 166.8 536.9C166.7 535.5 167.9 534.3 169.4 534.3Z" fill="black"/>
</g>
<defs>
<clipPath id="clip0_30_2">
<rect width="232.7" height="633.5" fill="white" transform="matrix(-1 0 0 1 232.7 0)"/>
</clipPath>
</defs>
</svg>
