<svg width="407" height="476" viewBox="0 0 407 476" fill="none" xmlns="http://www.w3.org/2000/svg">
<g clip-path="url(#clip0_11_12197)">
<path d="M391.839 265.811L334.594 323.039L348.245 336.694L405.49 279.465L391.839 265.811Z" fill="#6D4122"/>
<path d="M391.859 265.755L334.62 322.993L319.887 316.89L371.022 265.755H391.859Z" fill="#A06B44"/>
<path d="M391.859 265.755H371.022L319.887 214.619L334.62 208.516L348.274 222.17L391.859 265.755Z" fill="#A06B44"/>
<path d="M371.022 265.755L319.887 316.89V389.206H247.571L196.435 440.342L145.3 389.206H72.9858V316.89L21.8508 265.755L72.9858 214.619V142.303H145.3L196.435 91.17L247.571 142.303H319.887V214.619L371.022 265.755Z" fill="#F75C03"/>
<path d="M348.274 336.647V417.593L334.62 403.94V322.993L348.274 336.647Z" fill="#6D4122"/>
<path d="M348.274 141.223V222.17L334.62 208.516V127.57L348.274 141.223Z" fill="#6D4122"/>
<path d="M348.274 417.593H267.328L253.674 403.94H334.62L348.274 417.593Z" fill="#6D4122"/>
<path d="M334.62 322.993V403.94L319.887 389.206V316.89L334.62 322.993Z" fill="#A06B44"/>
<path d="M334.62 127.57V208.516L319.887 214.619V142.303L334.62 127.57Z" fill="#A06B44"/>
<path d="M316.858 127.57H334.62L319.887 142.303H247.571L253.674 127.57H303.555H316.858Z" fill="#A06B44"/>
<path d="M334.62 403.94H253.674L247.571 389.206H319.887L334.62 403.94Z" fill="#A06B44"/>
<path d="M316.858 123.843V127.569H303.555V123.843C303.555 125.072 306.535 126.068 310.207 126.068C313.879 126.068 316.858 125.072 316.858 123.843Z" fill="#083521"/>
<path d="M316.858 118.245V123.843C316.858 125.072 313.878 126.068 310.206 126.068C306.534 126.068 303.554 125.072 303.554 123.843V118.245C303.554 119.474 306.534 120.473 310.206 120.473C313.878 120.473 316.858 119.474 316.858 118.245Z" fill="#083521"/>
<path d="M316.858 112.65V118.245C316.858 119.474 313.878 120.473 310.206 120.473C306.534 120.473 303.554 119.474 303.554 118.245V112.65C303.554 113.879 306.534 114.875 310.206 114.875C313.878 114.875 316.858 113.879 316.858 112.65Z" fill="#083521"/>
<path d="M316.858 107.052V112.65C316.858 113.879 313.878 114.875 310.206 114.875C306.534 114.875 303.554 113.879 303.554 112.65V107.052C303.554 108.284 306.534 109.28 310.206 109.28C313.878 109.28 316.858 108.283 316.858 107.052Z" fill="#083521"/>
<path d="M316.858 101.457V107.052C316.858 108.284 313.878 109.28 310.206 109.28C306.534 109.28 303.554 108.284 303.554 107.052V101.457C303.554 102.686 306.534 103.682 310.206 103.682C313.878 103.682 316.858 102.685 316.858 101.457Z" fill="#083521"/>
<path d="M316.858 95.861V101.456C316.858 102.685 313.878 103.681 310.206 103.681C306.534 103.681 303.554 102.685 303.554 101.456V95.861C303.554 97.09 306.534 98.086 310.206 98.086C313.878 98.086 316.858 97.09 316.858 95.861Z" fill="#083521"/>
<path d="M316.858 90.263V95.861C316.858 97.09 313.878 98.086 310.206 98.086C306.534 98.086 303.554 97.09 303.554 95.861V90.263C303.554 91.492 306.534 92.488 310.206 92.488C313.878 92.488 316.858 91.492 316.858 90.263Z" fill="#083521"/>
<path d="M316.858 84.668V90.263C316.858 91.492 313.878 92.488 310.206 92.488C306.534 92.488 303.554 91.492 303.554 90.263V84.668C303.554 85.897 306.534 86.893 310.206 86.893C313.878 86.893 316.858 85.897 316.858 84.668Z" fill="#083521"/>
<path d="M316.858 79.07V84.668C316.858 85.897 313.878 86.893 310.206 86.893C306.534 86.893 303.554 85.897 303.554 84.668V79.07C303.554 80.299 306.534 81.295 310.206 81.295C313.878 81.295 316.858 80.298 316.858 79.07Z" fill="#083521"/>
<path d="M316.858 73.474V79.069C316.858 80.298 313.878 81.294 310.206 81.294C306.534 81.294 303.554 80.298 303.554 79.069V73.474C303.554 74.703 306.534 75.699 310.206 75.699C313.878 75.699 316.858 74.703 316.858 73.474Z" fill="#083521"/>
<path d="M316.858 67.876V73.474C316.858 74.703 313.878 75.699 310.206 75.699C306.534 75.699 303.554 74.703 303.554 73.474V67.876C303.554 69.108 306.534 70.104 310.206 70.104C313.878 70.104 316.858 69.108 316.858 67.876Z" fill="#083521"/>
<path d="M316.858 62.281V67.876C316.858 69.108 313.878 70.104 310.206 70.104C306.534 70.104 303.554 69.108 303.554 67.876V62.281C303.554 63.51 306.534 64.506 310.206 64.506C313.878 64.506 316.858 63.51 316.858 62.281Z" fill="#083521"/>
<path d="M316.858 56.683V62.281C316.858 63.51 313.878 64.506 310.206 64.506C306.534 64.506 303.554 63.51 303.554 62.281V56.683C303.554 57.915 306.534 58.911 310.206 58.911C313.878 58.911 316.858 57.915 316.858 56.683Z" fill="#083521"/>
<path d="M316.858 51.088V56.683C316.858 57.915 313.878 58.911 310.206 58.911C306.534 58.911 303.554 57.915 303.554 56.683V51.088C303.554 52.317 306.534 53.313 310.206 53.313C313.878 53.313 316.858 52.316 316.858 51.088Z" fill="#083521"/>
<path d="M316.858 45.492V51.087C316.858 52.316 313.878 53.312 310.206 53.312C306.534 53.312 303.554 52.316 303.554 51.087V45.492C303.554 46.721 306.534 47.717 310.206 47.717C313.878 47.717 316.858 46.721 316.858 45.492Z" fill="#083521"/>
<path d="M316.858 39.894V45.492C316.858 46.721 313.878 47.717 310.206 47.717C306.534 47.717 303.554 46.721 303.554 45.492V39.894C303.554 41.123 306.534 42.119 310.206 42.119C313.878 42.119 316.858 41.123 316.858 39.894Z" fill="#083521"/>
<path d="M316.858 34.299V39.894C316.858 41.123 313.878 42.119 310.206 42.119C306.534 42.119 303.554 41.123 303.554 39.894V34.299C303.554 35.528 306.534 36.524 310.206 36.524C313.878 36.524 316.858 35.528 316.858 34.299Z" fill="#083521"/>
<path d="M316.858 28.701V34.299C316.858 35.528 313.878 36.524 310.206 36.524C306.534 36.524 303.554 35.528 303.554 34.299V28.701C303.554 29.93 306.534 30.929 310.206 30.929C313.878 30.929 316.858 29.93 316.858 28.701Z" fill="#083521"/>
<path d="M316.858 23.106V28.701C316.858 29.93 313.878 30.929 310.206 30.929C306.534 30.929 303.554 29.93 303.554 28.701V23.106C303.554 24.335 306.534 25.331 310.206 25.331C313.878 25.331 316.858 24.334 316.858 23.106Z" fill="#083521"/>
<path d="M316.858 17.508V23.106C316.858 24.335 313.878 25.331 310.206 25.331C306.534 25.331 303.554 24.335 303.554 23.106V17.508C303.554 18.74 306.534 19.736 310.206 19.736C313.878 19.736 316.858 18.739 316.858 17.508Z" fill="#083521"/>
<path d="M316.858 11.912V17.507C316.858 18.739 313.878 19.735 310.206 19.735C306.534 19.735 303.554 18.739 303.554 17.507V11.912C303.554 13.141 306.534 14.137 310.206 14.137C313.878 14.137 316.858 13.141 316.858 11.912Z" fill="#083521"/>
<path d="M316.858 6.31702V11.912C316.858 13.141 313.878 14.137 310.206 14.137C306.534 14.137 303.554 13.141 303.554 11.912V6.31702C303.554 7.54602 306.534 8.54202 310.206 8.54202C313.878 8.54202 316.858 7.54602 316.858 6.31702Z" fill="#083521"/>
<path d="M316.858 0.718994V6.31699C316.858 7.54599 313.878 8.54199 310.206 8.54199C306.534 8.54199 303.554 7.54599 303.554 6.31699V0.718994C303.554 1.94799 306.534 2.94399 310.206 2.94399C313.878 2.94399 316.858 1.94799 316.858 0.718994Z" fill="#083521"/>
<path d="M253.664 403.9L196.427 461.137L210.08 474.79L267.317 417.553L253.664 403.9Z" fill="#6D4122"/>
<path d="M253.674 127.57L247.571 142.303L196.435 91.17V70.334L253.674 127.57Z" fill="#A06B44"/>
<path d="M247.571 389.206L253.674 403.94L196.435 461.178V440.342L247.571 389.206Z" fill="#A06B44"/>
<path d="M196.435 440.342V461.178L152.85 417.593L139.199 403.94L145.3 389.206L196.435 440.342Z" fill="#A06B44"/>
<path d="M196.435 70.334V91.17L145.3 142.303L139.199 127.57L196.435 70.334Z" fill="#A06B44"/>
<path d="M139.199 403.94L152.85 417.593H71.9039L58.2529 403.94H139.199Z" fill="#6D4122"/>
<path d="M96.0849 127.57H139.199L145.3 142.303H72.9859L58.2529 127.57H82.7839H96.0849Z" fill="#A06B44"/>
<path d="M145.3 389.206L139.199 403.94H58.2529L72.9859 389.206H145.3Z" fill="#A06B44"/>
<path d="M96.0849 123.843V127.569H82.7839V123.843C82.7839 125.072 85.7609 126.068 89.4329 126.068C93.1079 126.068 96.0849 125.072 96.0849 123.843Z" fill="#083521"/>
<path d="M96.0849 118.245V123.843C96.0849 125.072 93.1079 126.068 89.4329 126.068C85.7609 126.068 82.7839 125.072 82.7839 123.843V118.245C82.7839 119.474 85.7609 120.473 89.4329 120.473C93.1079 120.473 96.0849 119.474 96.0849 118.245Z" fill="#083521"/>
<path d="M96.0849 112.65V118.245C96.0849 119.474 93.1079 120.473 89.4329 120.473C85.7609 120.473 82.7839 119.474 82.7839 118.245V112.65C82.7839 113.879 85.7609 114.875 89.4329 114.875C93.1079 114.875 96.0849 113.879 96.0849 112.65Z" fill="#083521"/>
<path d="M96.0849 107.052V112.65C96.0849 113.879 93.1079 114.875 89.4329 114.875C85.7609 114.875 82.7839 113.879 82.7839 112.65V107.052C82.7839 108.284 85.7609 109.28 89.4329 109.28C93.1079 109.28 96.0849 108.283 96.0849 107.052Z" fill="#083521"/>
<path d="M96.0849 101.457V107.052C96.0849 108.284 93.1079 109.28 89.4329 109.28C85.7609 109.28 82.7839 108.284 82.7839 107.052V101.457C82.7839 102.686 85.7609 103.682 89.4329 103.682C93.1079 103.681 96.0849 102.685 96.0849 101.457Z" fill="#083521"/>
<path d="M96.0849 95.861V101.456C96.0849 102.685 93.1079 103.681 89.4329 103.681C85.7609 103.681 82.7839 102.685 82.7839 101.456V95.861C82.7839 97.09 85.7609 98.086 89.4329 98.086C93.1079 98.086 96.0849 97.09 96.0849 95.861Z" fill="#083521"/>
<path d="M96.0849 90.263V95.861C96.0849 97.09 93.1079 98.086 89.4329 98.086C85.7609 98.086 82.7839 97.09 82.7839 95.861V90.263C82.7839 91.492 85.7609 92.488 89.4329 92.488C93.1079 92.488 96.0849 91.492 96.0849 90.263Z" fill="#083521"/>
<path d="M96.0849 84.668V90.263C96.0849 91.492 93.1079 92.488 89.4329 92.488C85.7609 92.488 82.7839 91.492 82.7839 90.263V84.668C82.7839 85.897 85.7609 86.893 89.4329 86.893C93.1079 86.893 96.0849 85.897 96.0849 84.668Z" fill="#083521"/>
<path d="M96.0849 79.07V84.668C96.0849 85.897 93.1079 86.893 89.4329 86.893C85.7609 86.893 82.7839 85.897 82.7839 84.668V79.07C82.7839 80.299 85.7609 81.295 89.4329 81.295C93.1079 81.295 96.0849 80.298 96.0849 79.07Z" fill="#083521"/>
<path d="M96.0849 73.474V79.069C96.0849 80.298 93.1079 81.294 89.4329 81.294C85.7609 81.294 82.7839 80.298 82.7839 79.069V73.474C82.7839 74.703 85.7609 75.699 89.4329 75.699C93.1079 75.699 96.0849 74.703 96.0849 73.474Z" fill="#083521"/>
<path d="M96.0849 67.876V73.474C96.0849 74.703 93.1079 75.699 89.4329 75.699C85.7609 75.699 82.7839 74.703 82.7839 73.474V67.876C82.7839 69.108 85.7609 70.104 89.4329 70.104C93.1079 70.104 96.0849 69.108 96.0849 67.876Z" fill="#083521"/>
<path d="M96.0849 62.281V67.876C96.0849 69.108 93.1079 70.104 89.4329 70.104C85.7609 70.104 82.7839 69.108 82.7839 67.876V62.281C82.7839 63.51 85.7609 64.506 89.4329 64.506C93.1079 64.506 96.0849 63.51 96.0849 62.281Z" fill="#083521"/>
<path d="M96.0849 56.683V62.281C96.0849 63.51 93.1079 64.506 89.4329 64.506C85.7609 64.506 82.7839 63.51 82.7839 62.281V56.683C82.7839 57.915 85.7609 58.911 89.4329 58.911C93.1079 58.911 96.0849 57.915 96.0849 56.683Z" fill="#083521"/>
<path d="M96.0849 51.088V56.683C96.0849 57.915 93.1079 58.911 89.4329 58.911C85.7609 58.911 82.7839 57.915 82.7839 56.683V51.088C82.7839 52.317 85.7609 53.313 89.4329 53.313C93.1079 53.313 96.0849 52.316 96.0849 51.088Z" fill="#083521"/>
<path d="M96.0849 45.492V51.087C96.0849 52.316 93.1079 53.312 89.4329 53.312C85.7609 53.312 82.7839 52.316 82.7839 51.087V45.492C82.7839 46.721 85.7609 47.717 89.4329 47.717C93.1079 47.717 96.0849 46.721 96.0849 45.492Z" fill="#083521"/>
<path d="M96.0849 39.894V45.492C96.0849 46.721 93.1079 47.717 89.4329 47.717C85.7609 47.717 82.7839 46.721 82.7839 45.492V39.894C82.7839 41.123 85.7609 42.119 89.4329 42.119C93.1079 42.119 96.0849 41.123 96.0849 39.894Z" fill="#083521"/>
<path d="M96.0849 34.299V39.894C96.0849 41.123 93.1079 42.119 89.4329 42.119C85.7609 42.119 82.7839 41.123 82.7839 39.894V34.299C82.7839 35.528 85.7609 36.524 89.4329 36.524C93.1079 36.524 96.0849 35.528 96.0849 34.299Z" fill="#083521"/>
<path d="M96.0849 28.701V34.299C96.0849 35.528 93.1079 36.524 89.4329 36.524C85.7609 36.524 82.7839 35.528 82.7839 34.299V28.701C82.7839 29.93 85.7609 30.929 89.4329 30.929C93.1079 30.929 96.0849 29.93 96.0849 28.701Z" fill="#083521"/>
<path d="M96.0849 23.106V28.701C96.0849 29.93 93.1079 30.929 89.4329 30.929C85.7609 30.929 82.7839 29.93 82.7839 28.701V23.106C82.7839 24.335 85.7609 25.331 89.4329 25.331C93.1079 25.331 96.0849 24.334 96.0849 23.106Z" fill="#083521"/>
<path d="M96.0849 17.508V23.106C96.0849 24.335 93.1079 25.331 89.4329 25.331C85.7609 25.331 82.7839 24.335 82.7839 23.106V17.508C82.7839 18.74 85.7609 19.736 89.4329 19.736C93.1079 19.735 96.0849 18.739 96.0849 17.508Z" fill="#083521"/>
<path d="M96.0849 11.912V17.507C96.0849 18.739 93.1079 19.735 89.4329 19.735C85.7609 19.735 82.7839 18.739 82.7839 17.507V11.912C82.7839 13.141 85.7609 14.137 89.4329 14.137C93.1079 14.137 96.0849 13.141 96.0849 11.912Z" fill="#083521"/>
<path d="M96.0849 6.31702V11.912C96.0849 13.141 93.1079 14.137 89.4329 14.137C85.7609 14.137 82.7839 13.141 82.7839 11.912V6.31702C82.7839 7.54602 85.7609 8.54202 89.4329 8.54202C93.1079 8.54202 96.0849 7.54602 96.0849 6.31702Z" fill="#083521"/>
<path d="M96.0849 0.718994V6.31699C96.0849 7.54599 93.1079 8.54199 89.4329 8.54199C85.7609 8.54199 82.7839 7.54599 82.7839 6.31699V0.718994C82.7839 1.94799 85.7609 2.94399 89.4329 2.94399C93.1079 2.94399 96.0849 1.94799 96.0849 0.718994Z" fill="#083521"/>
<path d="M72.9859 316.89V389.206L58.2529 403.94V322.993L72.9859 316.89Z" fill="#A06B44"/>
<path d="M72.9859 142.303V214.619L58.2529 208.519V127.57L72.9859 142.303Z" fill="#A06B44"/>
<path d="M72.9859 214.619L21.8509 265.755H1.01392L58.2529 208.519L72.9859 214.619Z" fill="#A06B44"/>
<path d="M72.9859 316.89L58.2529 322.993L1.01392 265.755H21.8509L72.9859 316.89Z" fill="#A06B44"/>
<path d="M196.435 462.193L138.902 404.657H57.536V323.29L0 265.754L57.536 208.221V126.851H138.903L196.436 69.318L253.972 126.851H335.339V208.218L392.875 265.754L335.339 323.29V404.657H253.972L196.435 462.193ZM58.971 403.222H139.497L153.358 417.086L196.436 460.163L253.378 403.221H333.904V322.695L390.846 265.753L333.904 208.811V128.285H253.378L196.436 71.346L139.497 128.285H58.971V208.813L2.029 265.752L58.971 322.694V403.222Z" fill="black"/>
<path d="M196.435 441.357L145.002 389.925H72.268V317.188L20.835 265.755L72.268 214.322V141.585H145.002L196.435 90.155L247.868 141.585H320.605V214.322L372.038 265.755L320.605 317.188V389.925H247.868L196.435 441.357ZM73.704 388.489H145.597L196.435 439.327L247.273 388.489H319.169V316.593L370.007 265.755L319.169 214.917V143.021H247.273L196.435 92.186L145.597 143.021H73.704V214.917L22.866 265.755L73.704 316.593V388.489Z" fill="black"/>
<path d="M348.274 222.887C347.878 222.887 347.556 222.566 347.556 222.169V141.223C347.556 140.827 347.877 140.505 348.274 140.505C348.671 140.505 348.992 140.826 348.992 141.223V222.169C348.992 222.566 348.67 222.887 348.274 222.887Z" fill="black"/>
<path d="M210.089 475.547C209.905 475.547 209.722 475.477 209.582 475.337C209.302 475.057 209.302 474.603 209.582 474.322L267.031 416.876H347.557V336.35L405.003 278.901C405.283 278.621 405.738 278.621 406.018 278.901C406.298 279.181 406.298 279.636 406.018 279.916L348.993 336.945V418.312H267.626L210.597 475.338C210.456 475.477 210.272 475.547 210.089 475.547Z" fill="black"/>
<path d="M152.85 418.311H71.904C71.508 418.311 71.186 417.99 71.186 417.593C71.186 417.197 71.507 416.875 71.904 416.875H152.85C153.246 416.875 153.568 417.196 153.568 417.593C153.568 417.99 153.247 418.311 152.85 418.311Z" fill="black"/>
<path d="M348.274 141.941C348.09 141.941 347.907 141.871 347.767 141.731L334.113 128.077C333.833 127.797 333.833 127.342 334.113 127.062C334.393 126.782 334.848 126.782 335.128 127.062L348.782 140.716C349.062 140.996 349.062 141.45 348.782 141.731C348.641 141.871 348.458 141.941 348.274 141.941Z" fill="black"/>
<path d="M71.9039 418.311C71.7199 418.311 71.5369 418.241 71.3969 418.101L57.7459 404.447C57.4659 404.167 57.4659 403.712 57.7459 403.432C58.0259 403.152 58.4809 403.152 58.7609 403.432L72.4119 417.086C72.6919 417.366 72.6919 417.821 72.4119 418.101C72.2709 418.241 72.0879 418.311 71.9039 418.311Z" fill="black"/>
<path d="M267.328 418.311C267.144 418.311 266.961 418.241 266.821 418.101L253.167 404.447C252.887 404.167 252.887 403.712 253.167 403.432C253.447 403.152 253.902 403.152 254.182 403.432L267.836 417.086C268.116 417.366 268.116 417.82 267.836 418.101C267.695 418.241 267.511 418.311 267.328 418.311Z" fill="black"/>
<path d="M348.274 418.311C348.09 418.311 347.907 418.241 347.767 418.101L334.113 404.447C333.833 404.167 333.833 403.712 334.113 403.432C334.393 403.152 334.848 403.152 335.128 403.432L348.782 417.086C349.062 417.366 349.062 417.82 348.782 418.101C348.641 418.241 348.458 418.311 348.274 418.311Z" fill="black"/>
<path d="M348.274 337.365C348.09 337.365 347.907 337.295 347.767 337.155L334.113 323.501C333.833 323.221 333.833 322.766 334.113 322.486C334.393 322.206 334.848 322.206 335.128 322.486L348.782 336.14C349.062 336.42 349.062 336.875 348.782 337.155C348.641 337.295 348.458 337.365 348.274 337.365Z" fill="black"/>
<path d="M210.089 475.547C209.905 475.547 209.722 475.477 209.582 475.337L195.928 461.686C195.648 461.406 195.648 460.952 195.928 460.671C196.208 460.391 196.662 460.391 196.943 460.671L210.597 474.322C210.877 474.602 210.877 475.056 210.597 475.337C210.456 475.477 210.272 475.547 210.089 475.547Z" fill="black"/>
<path d="M405.51 280.126C405.326 280.126 405.143 280.056 405.003 279.916L391.352 266.262C391.072 265.982 391.072 265.527 391.352 265.247C391.632 264.967 392.086 264.967 392.367 265.247L406.018 278.901C406.298 279.181 406.298 279.636 406.018 279.916C405.877 280.056 405.693 280.126 405.51 280.126Z" fill="black"/>
<path d="M247.57 143.021C247.478 143.021 247.385 143.003 247.296 142.966C246.93 142.814 246.756 142.394 246.908 142.028L253.011 127.295C253.162 126.929 253.582 126.754 253.949 126.907C254.315 127.059 254.489 127.479 254.337 127.845L248.234 142.578C248.119 142.854 247.852 143.021 247.57 143.021Z" fill="black"/>
<path d="M196.435 91.888C196.039 91.888 195.717 91.567 195.717 91.17V70.333C195.717 69.937 196.038 69.615 196.435 69.615C196.832 69.615 197.153 69.936 197.153 70.333V91.17C197.153 91.567 196.832 91.888 196.435 91.888Z" fill="black"/>
<path d="M145.3 143.021C145.018 143.021 144.751 142.854 144.637 142.578L138.536 127.845C138.384 127.479 138.558 127.059 138.925 126.907C139.291 126.755 139.711 126.929 139.863 127.296L145.964 142.029C146.116 142.395 145.942 142.815 145.575 142.967C145.485 143.003 145.391 143.021 145.3 143.021Z" fill="black"/>
<path d="M72.9859 143.021C72.8019 143.021 72.6189 142.951 72.4789 142.811L57.7459 128.078C57.4659 127.798 57.4659 127.343 57.7459 127.063C58.0259 126.783 58.4809 126.783 58.7609 127.063L73.4939 141.796C73.7739 142.076 73.7739 142.53 73.4939 142.811C73.3539 142.951 73.1699 143.021 72.9859 143.021Z" fill="black"/>
<path d="M72.9861 215.337C72.8951 215.337 72.8021 215.319 72.7121 215.282L57.9791 209.182C57.6131 209.03 57.4391 208.611 57.5901 208.244C57.7411 207.878 58.1611 207.703 58.5281 207.855L73.2611 213.956C73.6271 214.108 73.8011 214.527 73.6501 214.894C73.5351 215.17 73.2681 215.337 72.9861 215.337Z" fill="black"/>
<path d="M21.8509 266.472H1.0139C0.617898 266.472 0.295898 266.151 0.295898 265.754C0.295898 265.358 0.616898 265.036 1.0139 265.036H21.8509C22.2469 265.036 22.5689 265.357 22.5689 265.754C22.5689 266.151 22.2469 266.472 21.8509 266.472Z" fill="black"/>
<path d="M58.2529 323.711C57.9709 323.711 57.7039 323.544 57.5899 323.268C57.4379 322.902 57.6119 322.482 57.9779 322.33L72.7109 316.227C73.0779 316.074 73.4969 316.249 73.6489 316.615C73.8009 316.981 73.6269 317.401 73.2609 317.553L58.5279 323.656C58.4379 323.694 58.3449 323.711 58.2529 323.711Z" fill="black"/>
<path d="M58.2529 404.657C58.0689 404.657 57.8859 404.587 57.7459 404.447C57.4659 404.167 57.4659 403.712 57.7459 403.432L72.4789 388.699C72.7589 388.419 73.2129 388.419 73.4939 388.699C73.7739 388.979 73.7739 389.434 73.4939 389.714L58.7609 404.447C58.6199 404.587 58.4369 404.657 58.2529 404.657Z" fill="black"/>
<path d="M139.199 404.657C139.108 404.657 139.014 404.639 138.925 404.602C138.559 404.45 138.385 404.031 138.536 403.664L144.637 388.931C144.788 388.565 145.208 388.39 145.575 388.542C145.941 388.694 146.115 389.113 145.964 389.48L139.863 404.213C139.748 404.49 139.481 404.657 139.199 404.657Z" fill="black"/>
<path d="M196.435 461.896C196.039 461.896 195.717 461.575 195.717 461.178V440.341C195.717 439.945 196.038 439.623 196.435 439.623C196.832 439.623 197.153 439.944 197.153 440.341V461.178C197.153 461.575 196.832 461.896 196.435 461.896Z" fill="black"/>
<path d="M253.674 404.657C253.392 404.657 253.125 404.49 253.011 404.214L246.908 389.481C246.756 389.115 246.93 388.695 247.296 388.543C247.663 388.39 248.082 388.565 248.234 388.931L254.337 403.664C254.489 404.03 254.315 404.45 253.949 404.602C253.859 404.64 253.766 404.657 253.674 404.657Z" fill="black"/>
<path d="M334.62 404.657C334.436 404.657 334.253 404.587 334.113 404.447L319.38 389.714C319.1 389.434 319.1 388.98 319.38 388.699C319.66 388.419 320.114 388.419 320.395 388.699L335.128 403.432C335.408 403.712 335.408 404.166 335.128 404.447C334.987 404.587 334.804 404.657 334.62 404.657Z" fill="black"/>
<path d="M334.62 323.711C334.528 323.711 334.435 323.693 334.346 323.656L319.613 317.553C319.247 317.401 319.073 316.981 319.225 316.615C319.377 316.249 319.796 316.074 320.163 316.227L334.896 322.33C335.262 322.482 335.436 322.902 335.284 323.268C335.169 323.545 334.901 323.711 334.62 323.711Z" fill="black"/>
<path d="M391.859 266.472H371.022C370.626 266.472 370.304 266.151 370.304 265.754C370.304 265.358 370.625 265.036 371.022 265.036H391.859C392.255 265.036 392.577 265.357 392.577 265.754C392.577 266.151 392.255 266.472 391.859 266.472Z" fill="black"/>
<path d="M319.887 215.337C319.605 215.337 319.338 215.17 319.224 214.894C319.072 214.528 319.246 214.108 319.612 213.956L334.345 207.853C334.712 207.7 335.131 207.875 335.283 208.241C335.435 208.607 335.261 209.027 334.895 209.179L320.162 215.282C320.072 215.32 319.979 215.337 319.887 215.337Z" fill="black"/>
<path d="M319.887 143.021C319.703 143.021 319.52 142.951 319.38 142.811C319.1 142.531 319.1 142.076 319.38 141.796L334.113 127.063C334.393 126.783 334.848 126.783 335.128 127.063C335.408 127.343 335.408 127.797 335.128 128.078L320.395 142.811C320.254 142.951 320.071 143.021 319.887 143.021Z" fill="black"/>
<path d="M82.7839 128.353C82.3879 128.353 82.0659 128.032 82.0659 127.635V0.718977C82.0659 0.322977 82.3869 0.000976562 82.7839 0.000976562C83.1809 0.000976562 83.5019 0.321977 83.5019 0.718977V127.636C83.5019 128.032 83.1809 128.353 82.7839 128.353Z" fill="black"/>
<path d="M96.0849 128.353C95.6889 128.353 95.3669 128.032 95.3669 127.635V0.718977C95.3669 0.322977 95.6879 0.000976562 96.0849 0.000976562C96.4819 0.000976562 96.8029 0.321977 96.8029 0.718977V127.636C96.8029 128.032 96.4819 128.353 96.0849 128.353Z" fill="black"/>
<path d="M303.555 128.353C303.159 128.353 302.837 128.032 302.837 127.635V0.718977C302.837 0.322977 303.158 0.000976562 303.555 0.000976562C303.952 0.000976562 304.273 0.321977 304.273 0.718977V127.636C304.273 128.032 303.951 128.353 303.555 128.353Z" fill="black"/>
<path d="M316.858 128.353C316.462 128.353 316.14 128.032 316.14 127.635V0.718977C316.14 0.322977 316.461 0.000976562 316.858 0.000976562C317.255 0.000976562 317.576 0.321977 317.576 0.718977V127.636C317.576 128.032 317.255 128.353 316.858 128.353Z" fill="black"/>
<path d="M89.4329 3.661C85.8849 3.661 82.0659 2.74 82.0659 0.718C82.0659 0.322 82.3869 0 82.7839 0C83.1809 0 83.5019 0.321 83.5019 0.718C83.5019 1.155 85.5809 2.225 89.4329 2.225C93.2879 2.225 95.3669 1.155 95.3669 0.718C95.3669 0.322 95.6879 0 96.0849 0C96.4819 0 96.8029 0.321 96.8029 0.718C96.8029 2.741 92.9829 3.661 89.4329 3.661Z" fill="black"/>
<path d="M89.4329 9.26C85.8849 9.26 82.0659 8.339 82.0659 6.317C82.0659 5.921 82.3869 5.599 82.7839 5.599C83.1809 5.599 83.5019 5.92 83.5019 6.317C83.5019 6.754 85.5809 7.824 89.4329 7.824C93.2879 7.824 95.3669 6.754 95.3669 6.317C95.3669 5.921 95.6879 5.599 96.0849 5.599C96.4819 5.599 96.8029 5.92 96.8029 6.317C96.8029 8.339 92.9829 9.26 89.4329 9.26Z" fill="black"/>
<path d="M89.4329 14.855C85.8849 14.855 82.0659 13.934 82.0659 11.912C82.0659 11.516 82.3869 11.194 82.7839 11.194C83.1809 11.194 83.5019 11.515 83.5019 11.912C83.5019 12.349 85.5809 13.419 89.4329 13.419C93.2879 13.419 95.3669 12.349 95.3669 11.912C95.3669 11.516 95.6879 11.194 96.0849 11.194C96.4819 11.194 96.8029 11.515 96.8029 11.912C96.8029 13.934 92.9829 14.855 89.4329 14.855Z" fill="black"/>
<path d="M89.4329 20.453C85.8849 20.453 82.0659 19.531 82.0659 17.508C82.0659 17.112 82.3869 16.79 82.7839 16.79C83.1809 16.79 83.5019 17.111 83.5019 17.508C83.5019 17.946 85.5809 19.018 89.4329 19.018C93.2879 19.018 95.3669 17.946 95.3669 17.508C95.3669 17.112 95.6879 16.79 96.0849 16.79C96.4819 16.79 96.8029 17.111 96.8029 17.508C96.8029 19.531 92.9829 20.453 89.4329 20.453Z" fill="black"/>
<path d="M89.4329 26.048C85.8849 26.048 82.0659 25.127 82.0659 23.105C82.0659 22.709 82.3869 22.387 82.7839 22.387C83.1809 22.387 83.5019 22.708 83.5019 23.105C83.5019 23.542 85.5809 24.612 89.4329 24.612C93.2879 24.612 95.3669 23.542 95.3669 23.105C95.3669 22.709 95.6879 22.387 96.0849 22.387C96.4819 22.387 96.8029 22.708 96.8029 23.105C96.8029 25.127 92.9829 26.048 89.4329 26.048Z" fill="black"/>
<path d="M89.4329 31.646C85.8849 31.646 82.0659 30.724 82.0659 28.7C82.0659 28.304 82.3869 27.982 82.7839 27.982C83.1809 27.982 83.5019 28.303 83.5019 28.7C83.5019 29.138 85.5809 30.21 89.4329 30.21C93.2879 30.21 95.3669 29.138 95.3669 28.7C95.3669 28.304 95.6879 27.982 96.0849 27.982C96.4819 27.982 96.8029 28.303 96.8029 28.7C96.8029 30.725 92.9829 31.646 89.4329 31.646Z" fill="black"/>
<path d="M89.4329 37.242C85.8849 37.242 82.0659 36.321 82.0659 34.299C82.0659 33.903 82.3869 33.581 82.7839 33.581C83.1809 33.581 83.5019 33.902 83.5019 34.299C83.5019 34.736 85.5809 35.806 89.4329 35.806C93.2879 35.806 95.3669 34.736 95.3669 34.299C95.3669 33.903 95.6879 33.581 96.0849 33.581C96.4819 33.581 96.8029 33.902 96.8029 34.299C96.8029 36.321 92.9829 37.242 89.4329 37.242Z" fill="black"/>
<path d="M89.4329 42.837C85.8849 42.837 82.0659 41.916 82.0659 39.894C82.0659 39.498 82.3869 39.176 82.7839 39.176C83.1809 39.176 83.5019 39.497 83.5019 39.894C83.5019 40.331 85.5809 41.401 89.4329 41.401C93.2879 41.401 95.3669 40.331 95.3669 39.894C95.3669 39.498 95.6879 39.176 96.0849 39.176C96.4819 39.176 96.8029 39.497 96.8029 39.894C96.8029 41.916 92.9829 42.837 89.4329 42.837Z" fill="black"/>
<path d="M89.4329 48.435C85.8849 48.435 82.0659 47.514 82.0659 45.492C82.0659 45.096 82.3869 44.774 82.7839 44.774C83.1809 44.774 83.5019 45.095 83.5019 45.492C83.5019 45.929 85.5809 46.999 89.4329 46.999C93.2879 46.999 95.3669 45.929 95.3669 45.492C95.3669 45.096 95.6879 44.774 96.0849 44.774C96.4819 44.774 96.8029 45.095 96.8029 45.492C96.8029 47.514 92.9829 48.435 89.4329 48.435Z" fill="black"/>
<path d="M89.4329 54.03C85.8849 54.03 82.0659 53.109 82.0659 51.087C82.0659 50.691 82.3869 50.369 82.7839 50.369C83.1809 50.369 83.5019 50.69 83.5019 51.087C83.5019 51.524 85.5809 52.594 89.4329 52.594C93.2879 52.594 95.3669 51.524 95.3669 51.087C95.3669 50.691 95.6879 50.369 96.0849 50.369C96.4819 50.369 96.8029 50.69 96.8029 51.087C96.8029 53.109 92.9829 54.03 89.4329 54.03Z" fill="black"/>
<path d="M89.4329 59.628C85.8849 59.628 82.0659 58.706 82.0659 56.683C82.0659 56.287 82.3869 55.965 82.7839 55.965C83.1809 55.965 83.5019 56.286 83.5019 56.683C83.5019 57.121 85.5809 58.193 89.4329 58.193C93.2879 58.193 95.3669 57.121 95.3669 56.683C95.3669 56.287 95.6879 55.965 96.0849 55.965C96.4819 55.965 96.8029 56.286 96.8029 56.683C96.8029 58.707 92.9829 59.628 89.4329 59.628Z" fill="black"/>
<path d="M89.4329 65.224C85.8849 65.224 82.0659 64.303 82.0659 62.281C82.0659 61.885 82.3869 61.563 82.7839 61.563C83.1809 61.563 83.5019 61.884 83.5019 62.281C83.5019 62.718 85.5809 63.788 89.4329 63.788C93.2879 63.788 95.3669 62.718 95.3669 62.281C95.3669 61.885 95.6879 61.563 96.0849 61.563C96.4819 61.563 96.8029 61.884 96.8029 62.281C96.8029 64.303 92.9829 65.224 89.4329 65.224Z" fill="black"/>
<path d="M89.4329 70.822C85.8849 70.822 82.0659 69.9 82.0659 67.877C82.0659 67.481 82.3869 67.159 82.7839 67.159C83.1809 67.159 83.5019 67.48 83.5019 67.877C83.5019 68.315 85.5809 69.387 89.4329 69.387C93.2879 69.387 95.3669 68.315 95.3669 67.877C95.3669 67.481 95.6879 67.159 96.0849 67.159C96.4819 67.159 96.8029 67.48 96.8029 67.877C96.8029 69.9 92.9829 70.822 89.4329 70.822Z" fill="black"/>
<path d="M89.4329 76.417C85.8849 76.417 82.0659 75.496 82.0659 73.474C82.0659 73.078 82.3869 72.756 82.7839 72.756C83.1809 72.756 83.5019 73.077 83.5019 73.474C83.5019 73.911 85.5809 74.981 89.4329 74.981C93.2879 74.981 95.3669 73.911 95.3669 73.474C95.3669 73.078 95.6879 72.756 96.0849 72.756C96.4819 72.756 96.8029 73.077 96.8029 73.474C96.8029 75.496 92.9829 76.417 89.4329 76.417Z" fill="black"/>
<path d="M89.4329 82.012C85.8849 82.012 82.0659 81.091 82.0659 79.069C82.0659 78.673 82.3869 78.351 82.7839 78.351C83.1809 78.351 83.5019 78.672 83.5019 79.069C83.5019 79.506 85.5809 80.576 89.4329 80.576C93.2879 80.576 95.3669 79.506 95.3669 79.069C95.3669 78.673 95.6879 78.351 96.0849 78.351C96.4819 78.351 96.8029 78.672 96.8029 79.069C96.8029 81.091 92.9829 82.012 89.4329 82.012Z" fill="black"/>
<path d="M89.4329 87.61C85.8849 87.61 82.0659 86.689 82.0659 84.667C82.0659 84.271 82.3869 83.949 82.7839 83.949C83.1809 83.949 83.5019 84.27 83.5019 84.667C83.5019 85.104 85.5809 86.174 89.4329 86.174C93.2879 86.174 95.3669 85.104 95.3669 84.667C95.3669 84.271 95.6879 83.949 96.0849 83.949C96.4819 83.949 96.8029 84.27 96.8029 84.667C96.8029 86.689 92.9829 87.61 89.4329 87.61Z" fill="black"/>
<path d="M89.4329 93.206C85.8849 93.206 82.0659 92.285 82.0659 90.263C82.0659 89.867 82.3869 89.545 82.7839 89.545C83.1809 89.545 83.5019 89.866 83.5019 90.263C83.5019 90.7 85.5809 91.77 89.4329 91.77C93.2879 91.77 95.3669 90.7 95.3669 90.263C95.3669 89.867 95.6879 89.545 96.0849 89.545C96.4819 89.545 96.8029 89.866 96.8029 90.263C96.8029 92.285 92.9829 93.206 89.4329 93.206Z" fill="black"/>
<path d="M89.4329 98.804C85.8849 98.804 82.0659 97.883 82.0659 95.861C82.0659 95.465 82.3869 95.143 82.7839 95.143C83.1809 95.143 83.5019 95.464 83.5019 95.861C83.5019 96.298 85.5809 97.368 89.4329 97.368C93.2879 97.368 95.3669 96.298 95.3669 95.861C95.3669 95.465 95.6879 95.143 96.0849 95.143C96.4819 95.143 96.8029 95.464 96.8029 95.861C96.8029 97.883 92.9829 98.804 89.4329 98.804Z" fill="black"/>
<path d="M89.4329 104.399C85.8849 104.399 82.0659 103.478 82.0659 101.456C82.0659 101.06 82.3869 100.738 82.7839 100.738C83.1809 100.738 83.5019 101.059 83.5019 101.456C83.5019 101.893 85.5809 102.963 89.4329 102.963C93.2879 102.963 95.3669 101.893 95.3669 101.456C95.3669 101.06 95.6879 100.738 96.0849 100.738C96.4819 100.738 96.8029 101.059 96.8029 101.456C96.8029 103.478 92.9829 104.399 89.4329 104.399Z" fill="black"/>
<path d="M89.4329 109.997C85.8849 109.997 82.0659 109.075 82.0659 107.052C82.0659 106.656 82.3869 106.334 82.7839 106.334C83.1809 106.334 83.5019 106.655 83.5019 107.052C83.5019 107.49 85.5809 108.562 89.4329 108.562C93.2879 108.562 95.3669 107.49 95.3669 107.052C95.3669 106.656 95.6879 106.334 96.0849 106.334C96.4819 106.334 96.8029 106.655 96.8029 107.052C96.8029 109.076 92.9829 109.997 89.4329 109.997Z" fill="black"/>
<path d="M89.4329 115.593C85.8849 115.593 82.0659 114.672 82.0659 112.65C82.0659 112.254 82.3869 111.932 82.7839 111.932C83.1809 111.932 83.5019 112.253 83.5019 112.65C83.5019 113.087 85.5809 114.157 89.4329 114.157C93.2879 114.157 95.3669 113.087 95.3669 112.65C95.3669 112.254 95.6879 111.932 96.0849 111.932C96.4819 111.932 96.8029 112.253 96.8029 112.65C96.8029 114.672 92.9829 115.593 89.4329 115.593Z" fill="black"/>
<path d="M89.4329 121.191C85.8849 121.191 82.0659 120.269 82.0659 118.245C82.0659 117.849 82.3869 117.527 82.7839 117.527C83.1809 117.527 83.5019 117.848 83.5019 118.245C83.5019 118.683 85.5809 119.755 89.4329 119.755C93.2879 119.755 95.3669 118.683 95.3669 118.245C95.3669 117.849 95.6879 117.527 96.0849 117.527C96.4819 117.527 96.8029 117.848 96.8029 118.245C96.8029 120.269 92.9829 121.191 89.4329 121.191Z" fill="black"/>
<path d="M89.4329 126.786C85.8849 126.786 82.0659 125.865 82.0659 123.843C82.0659 123.447 82.3869 123.125 82.7839 123.125C83.1809 123.125 83.5019 123.446 83.5019 123.843C83.5019 124.28 85.5809 125.35 89.4329 125.35C93.2879 125.35 95.3669 124.28 95.3669 123.843C95.3669 123.447 95.6879 123.125 96.0849 123.125C96.4819 123.125 96.8029 123.446 96.8029 123.843C96.8029 125.865 92.9829 126.786 89.4329 126.786Z" fill="black"/>
<path d="M310.206 3.661C306.657 3.661 302.837 2.74 302.837 0.718C302.837 0.322 303.158 0 303.555 0C303.952 0 304.273 0.321 304.273 0.718C304.273 1.155 306.352 2.225 310.207 2.225C314.062 2.225 316.141 1.155 316.141 0.718C316.141 0.322 316.462 0 316.859 0C317.256 0 317.577 0.321 317.577 0.718C317.576 2.741 313.756 3.661 310.206 3.661Z" fill="black"/>
<path d="M310.206 9.26C306.657 9.26 302.837 8.339 302.837 6.317C302.837 5.921 303.158 5.599 303.555 5.599C303.952 5.599 304.273 5.92 304.273 6.317C304.273 6.754 306.352 7.824 310.207 7.824C314.062 7.824 316.141 6.754 316.141 6.317C316.141 5.921 316.462 5.599 316.859 5.599C317.256 5.599 317.577 5.92 317.577 6.317C317.576 8.339 313.756 9.26 310.206 9.26Z" fill="black"/>
<path d="M310.206 14.855C306.657 14.855 302.837 13.934 302.837 11.912C302.837 11.516 303.158 11.194 303.555 11.194C303.952 11.194 304.273 11.515 304.273 11.912C304.273 12.349 306.352 13.419 310.207 13.419C314.062 13.419 316.141 12.349 316.141 11.912C316.141 11.516 316.462 11.194 316.859 11.194C317.256 11.194 317.577 11.515 317.577 11.912C317.576 13.934 313.756 14.855 310.206 14.855Z" fill="black"/>
<path d="M310.206 20.453C306.657 20.453 302.837 19.531 302.837 17.508C302.837 17.112 303.158 16.79 303.555 16.79C303.952 16.79 304.273 17.111 304.273 17.508C304.273 17.946 306.352 19.018 310.207 19.018C314.062 19.018 316.141 17.946 316.141 17.508C316.141 17.112 316.462 16.79 316.859 16.79C317.256 16.79 317.577 17.111 317.577 17.508C317.576 19.531 313.756 20.453 310.206 20.453Z" fill="black"/>
<path d="M310.206 26.048C306.657 26.048 302.837 25.127 302.837 23.105C302.837 22.709 303.158 22.387 303.555 22.387C303.952 22.387 304.273 22.708 304.273 23.105C304.273 23.542 306.352 24.612 310.207 24.612C314.062 24.612 316.141 23.542 316.141 23.105C316.141 22.709 316.462 22.387 316.859 22.387C317.256 22.387 317.577 22.708 317.577 23.105C317.576 25.127 313.756 26.048 310.206 26.048Z" fill="black"/>
<path d="M310.206 31.646C306.657 31.646 302.837 30.724 302.837 28.7C302.837 28.304 303.158 27.982 303.555 27.982C303.952 27.982 304.273 28.303 304.273 28.7C304.273 29.138 306.352 30.21 310.207 30.21C314.062 30.21 316.141 29.138 316.141 28.7C316.141 28.304 316.462 27.982 316.859 27.982C317.256 27.982 317.577 28.303 317.577 28.7C317.576 30.725 313.756 31.646 310.206 31.646Z" fill="black"/>
<path d="M310.206 37.242C306.657 37.242 302.837 36.321 302.837 34.299C302.837 33.903 303.158 33.581 303.555 33.581C303.952 33.581 304.273 33.902 304.273 34.299C304.273 34.736 306.352 35.806 310.207 35.806C314.062 35.806 316.141 34.736 316.141 34.299C316.141 33.903 316.462 33.581 316.859 33.581C317.256 33.581 317.577 33.902 317.577 34.299C317.576 36.321 313.756 37.242 310.206 37.242Z" fill="black"/>
<path d="M310.206 42.837C306.657 42.837 302.837 41.916 302.837 39.894C302.837 39.498 303.158 39.176 303.555 39.176C303.952 39.176 304.273 39.497 304.273 39.894C304.273 40.331 306.352 41.401 310.207 41.401C314.062 41.401 316.141 40.331 316.141 39.894C316.141 39.498 316.462 39.176 316.859 39.176C317.256 39.176 317.577 39.497 317.577 39.894C317.576 41.916 313.756 42.837 310.206 42.837Z" fill="black"/>
<path d="M310.206 48.435C306.657 48.435 302.837 47.514 302.837 45.492C302.837 45.096 303.158 44.774 303.555 44.774C303.952 44.774 304.273 45.095 304.273 45.492C304.273 45.929 306.352 46.999 310.207 46.999C314.062 46.999 316.141 45.929 316.141 45.492C316.141 45.096 316.462 44.774 316.859 44.774C317.256 44.774 317.577 45.095 317.577 45.492C317.576 47.514 313.756 48.435 310.206 48.435Z" fill="black"/>
<path d="M310.206 54.03C306.657 54.03 302.837 53.109 302.837 51.087C302.837 50.691 303.158 50.369 303.555 50.369C303.952 50.369 304.273 50.69 304.273 51.087C304.273 51.524 306.352 52.594 310.207 52.594C314.062 52.594 316.141 51.524 316.141 51.087C316.141 50.691 316.462 50.369 316.859 50.369C317.256 50.369 317.577 50.69 317.577 51.087C317.576 53.109 313.756 54.03 310.206 54.03Z" fill="black"/>
<path d="M310.206 59.628C306.657 59.628 302.837 58.706 302.837 56.683C302.837 56.287 303.158 55.965 303.555 55.965C303.952 55.965 304.273 56.286 304.273 56.683C304.273 57.121 306.352 58.193 310.207 58.193C314.062 58.193 316.141 57.121 316.141 56.683C316.141 56.287 316.462 55.965 316.859 55.965C317.256 55.965 317.577 56.286 317.577 56.683C317.576 58.707 313.756 59.628 310.206 59.628Z" fill="black"/>
<path d="M310.206 65.224C306.657 65.224 302.837 64.303 302.837 62.281C302.837 61.885 303.158 61.563 303.555 61.563C303.952 61.563 304.273 61.884 304.273 62.281C304.273 62.718 306.352 63.788 310.207 63.788C314.062 63.788 316.141 62.718 316.141 62.281C316.141 61.885 316.462 61.563 316.859 61.563C317.256 61.563 317.577 61.884 317.577 62.281C317.576 64.303 313.756 65.224 310.206 65.224Z" fill="black"/>
<path d="M310.206 70.822C306.657 70.822 302.837 69.9 302.837 67.877C302.837 67.481 303.158 67.159 303.555 67.159C303.952 67.159 304.273 67.48 304.273 67.877C304.273 68.315 306.352 69.387 310.207 69.387C314.062 69.387 316.141 68.315 316.141 67.877C316.141 67.481 316.462 67.159 316.859 67.159C317.256 67.159 317.577 67.48 317.577 67.877C317.576 69.9 313.756 70.822 310.206 70.822Z" fill="black"/>
<path d="M310.206 76.417C306.657 76.417 302.837 75.496 302.837 73.474C302.837 73.078 303.158 72.756 303.555 72.756C303.952 72.756 304.273 73.077 304.273 73.474C304.273 73.911 306.352 74.981 310.207 74.981C314.062 74.981 316.141 73.911 316.141 73.474C316.141 73.078 316.462 72.756 316.859 72.756C317.256 72.756 317.577 73.077 317.577 73.474C317.576 75.496 313.756 76.417 310.206 76.417Z" fill="black"/>
<path d="M310.206 82.012C306.657 82.012 302.837 81.091 302.837 79.069C302.837 78.673 303.158 78.351 303.555 78.351C303.952 78.351 304.273 78.672 304.273 79.069C304.273 79.506 306.352 80.576 310.207 80.576C314.062 80.576 316.141 79.506 316.141 79.069C316.141 78.673 316.462 78.351 316.859 78.351C317.256 78.351 317.577 78.672 317.577 79.069C317.576 81.091 313.756 82.012 310.206 82.012Z" fill="black"/>
<path d="M310.206 87.61C306.657 87.61 302.837 86.689 302.837 84.667C302.837 84.271 303.158 83.949 303.555 83.949C303.952 83.949 304.273 84.27 304.273 84.667C304.273 85.104 306.352 86.174 310.207 86.174C314.062 86.174 316.141 85.104 316.141 84.667C316.141 84.271 316.462 83.949 316.859 83.949C317.256 83.949 317.577 84.27 317.577 84.667C317.576 86.689 313.756 87.61 310.206 87.61Z" fill="black"/>
<path d="M310.206 93.206C306.657 93.206 302.837 92.285 302.837 90.263C302.837 89.867 303.158 89.545 303.555 89.545C303.952 89.545 304.273 89.866 304.273 90.263C304.273 90.7 306.352 91.77 310.207 91.77C314.062 91.77 316.141 90.7 316.141 90.263C316.141 89.867 316.462 89.545 316.859 89.545C317.256 89.545 317.577 89.866 317.577 90.263C317.576 92.285 313.756 93.206 310.206 93.206Z" fill="black"/>
<path d="M310.206 98.804C306.657 98.804 302.837 97.883 302.837 95.861C302.837 95.465 303.158 95.143 303.555 95.143C303.952 95.143 304.273 95.464 304.273 95.861C304.273 96.298 306.352 97.368 310.207 97.368C314.062 97.368 316.141 96.298 316.141 95.861C316.141 95.465 316.462 95.143 316.859 95.143C317.256 95.143 317.577 95.464 317.577 95.861C317.576 97.883 313.756 98.804 310.206 98.804Z" fill="black"/>
<path d="M310.206 104.399C306.657 104.399 302.837 103.478 302.837 101.456C302.837 101.06 303.158 100.738 303.555 100.738C303.952 100.738 304.273 101.059 304.273 101.456C304.273 101.893 306.352 102.963 310.207 102.963C314.062 102.963 316.141 101.893 316.141 101.456C316.141 101.06 316.462 100.738 316.859 100.738C317.256 100.738 317.577 101.059 317.577 101.456C317.576 103.478 313.756 104.399 310.206 104.399Z" fill="black"/>
<path d="M310.206 109.997C306.657 109.997 302.837 109.075 302.837 107.052C302.837 106.656 303.158 106.334 303.555 106.334C303.952 106.334 304.273 106.655 304.273 107.052C304.273 107.49 306.352 108.562 310.207 108.562C314.062 108.562 316.141 107.49 316.141 107.052C316.141 106.656 316.462 106.334 316.859 106.334C317.256 106.334 317.577 106.655 317.577 107.052C317.576 109.076 313.756 109.997 310.206 109.997Z" fill="black"/>
<path d="M310.206 115.593C306.657 115.593 302.837 114.672 302.837 112.65C302.837 112.254 303.158 111.932 303.555 111.932C303.952 111.932 304.273 112.253 304.273 112.65C304.273 113.087 306.352 114.157 310.207 114.157C314.062 114.157 316.141 113.087 316.141 112.65C316.141 112.254 316.462 111.932 316.859 111.932C317.256 111.932 317.577 112.253 317.577 112.65C317.576 114.672 313.756 115.593 310.206 115.593Z" fill="black"/>
<path d="M310.206 121.191C306.657 121.191 302.837 120.269 302.837 118.245C302.837 117.849 303.158 117.527 303.555 117.527C303.952 117.527 304.273 117.848 304.273 118.245C304.273 118.683 306.352 119.755 310.207 119.755C314.062 119.755 316.141 118.683 316.141 118.245C316.141 117.849 316.462 117.527 316.859 117.527C317.256 117.527 317.577 117.848 317.577 118.245C317.576 120.269 313.756 121.191 310.206 121.191Z" fill="black"/>
<path d="M310.206 126.786C306.657 126.786 302.837 125.865 302.837 123.843C302.837 123.447 303.158 123.125 303.555 123.125C303.952 123.125 304.273 123.446 304.273 123.843C304.273 124.28 306.352 125.35 310.207 125.35C314.062 125.35 316.141 124.28 316.141 123.843C316.141 123.447 316.462 123.125 316.859 123.125C317.256 123.125 317.577 123.446 317.577 123.843C317.576 125.865 313.756 126.786 310.206 126.786Z" fill="black"/>
</g>
<defs>
<clipPath id="clip0_11_12197">
<rect width="406.228" height="475.547" fill="white"/>
</clipPath>
</defs>
</svg>
