<?xml version="1.0" encoding="utf-8"?>
<!-- Generator: Adobe Illustrator 26.3.1, SVG Export Plug-In . SVG Version: 6.00 Build 0)  -->
<svg version="1.1" id="Layer_1" xmlns="http://www.w3.org/2000/svg" xmlns:xlink="http://www.w3.org/1999/xlink" x="0px" y="0px"
	 viewBox="0 0 174.369 358.704" style="enable-background:new 0 0 174.369 358.704;" xml:space="preserve">
<style type="text/css">
	.st0{fill:#083521;}
	.st1{fill:#F2B41B;}
</style>
<g>
	<g>
		<g id="XMLID_00000119827117028149654700000001665201646775671456_">
			<g>
				<g>
					<polygon class="st0" points="161.952,23.584 173.587,36.588 166.721,36.588 					"/>
				</g>
				<g>
					<polygon class="st1" points="173.587,36.588 166.265,77.171 161.839,77.171 160.62,77.171 166.721,36.588 					"/>
				</g>
				<g>
					<polygon class="st0" points="161.952,23.584 166.721,36.588 133.005,36.588 144.706,23.584 					"/>
				</g>
				<g>
					<polygon class="st1" points="166.721,36.588 160.62,77.171 144.387,77.171 140.327,77.171 133.005,36.588 					"/>
				</g>
				<g>
					<polygon class="st0" points="161.952,19.596 161.952,23.584 144.706,23.584 144.706,19.596 149.31,19.596 157.282,19.596 					
						"/>
				</g>
				<g>
					<polygon class="st1" points="161.839,83.578 161.839,87.566 155.288,87.566 151.304,87.566 144.753,87.566 144.753,83.578 
						149.878,83.578 156.348,83.578 					"/>
				</g>
				<g>
					<polygon class="st0" points="161.839,77.171 156.348,83.578 149.878,83.578 144.387,77.171 160.62,77.171 					"/>
				</g>
				<g>
					<path class="st1" d="M158.076,15.236v0.516h-0.794h-3.988V6.26c0.006,0,0.013,0,0.019,0c2.632,0,4.763,0.841,4.763,1.875
						V15.236z"/>
				</g>
				<g>
					<path class="st1" d="M158.076,7.973v0.163c0-1.034-2.131-1.875-4.763-1.875c-0.006,0-0.012,0-0.019,0V1.632
						c1.463,0,2.647,0.466,2.647,1.041L158.076,7.973z"/>
				</g>
				<g>
					<polygon class="st1" points="157.282,15.752 157.282,19.596 149.31,19.596 149.31,15.752 153.294,15.752 					"/>
				</g>
				<g>
					<path class="st0" d="M156.348,93.357v0.188c0,10.954-8.879,19.833-19.833,19.833H91.966v-6.407h44.852
						c7.416,0,13.426-6.013,13.426-13.426v-0.188c0-0.372,0.431-0.706,1.109-0.925c0.525-0.172,1.203-0.275,1.941-0.275
						c0.422,0,0.825,0.034,1.188,0.094C155.579,92.435,156.348,92.86,156.348,93.357z"/>
				</g>
				<g>
					<path class="st0" d="M155.288,87.566v4.591l-0.806,0.094c-0.363-0.059-0.766-0.094-1.188-0.094
						c-0.738,0-1.416,0.103-1.941,0.275l-0.05-0.275v-4.591H155.288z"/>
				</g>
				<g>
					<path class="st1" d="M153.294,6.26v9.492h-3.985h-0.759v-0.516V8.135C148.55,7.104,150.672,6.263,153.294,6.26z"/>
				</g>
				<g>
					<path class="st1" d="M150.66,2.578c0.122-0.531,1.256-0.947,2.635-0.947V6.26c-2.622,0.003-4.744,0.844-4.744,1.875V7.973
						l2.078-5.401L150.66,2.578z"/>
				</g>
				<g>
					<path class="st0" d="M92.018,243.349v114.318h-9.56V243.349v-6.407V13.362c0-0.666,0.881-1.253,2.21-1.588
						c0.741-0.184,1.622-0.294,2.569-0.294s1.828,0.109,2.569,0.294c1.331,0.334,2.213,0.922,2.213,1.588v221.289v2.291V243.349z"/>
				</g>
				<g>
					<path class="st0" d="M89.828,1.969v9.764l-0.075,0.294c-0.741-0.184-1.622-0.294-2.569-0.294s-1.828,0.109-2.569,0.294
						l-0.075-0.294V1.969V1.822c0-0.575,1.185-1.041,2.644-1.041c1.46,0,2.644,0.466,2.644,1.041V1.969z"/>
				</g>
				<g>
					<path class="st0" d="M82.406,106.971v6.407H37.857c-10.954,0-19.833-8.879-19.833-19.833v-0.188
						c0-0.372,0.431-0.706,1.109-0.925c0.525-0.172,1.203-0.275,1.941-0.275c0.422,0,0.825,0.034,1.188,0.094
						c1.094,0.184,1.863,0.609,1.863,1.106v0.188c0,7.413,6.01,13.426,13.426,13.426H82.406z"/>
				</g>
				<g>
					<polygon class="st0" points="29.728,23.584 41.364,36.588 34.2,36.588 29.428,23.584 					"/>
				</g>
				<g>
					<polygon class="st1" points="41.364,36.588 34.041,77.171 29.8,77.171 28.097,77.171 34.2,36.588 					"/>
				</g>
				<g>
					<polygon class="st0" points="29.428,23.584 34.2,36.588 0.781,36.588 12.483,23.584 					"/>
				</g>
				<g>
					<polygon class="st1" points="34.2,36.588 28.097,77.171 12.348,77.171 8.107,77.171 0.781,36.588 					"/>
				</g>
				<g>
					<polygon class="st1" points="29.953,83.578 29.953,87.472 23.068,87.472 19.08,87.472 12.714,87.472 12.714,83.578 
						17.839,83.578 24.309,83.578 					"/>
				</g>
				<g>
					<polygon class="st0" points="29.8,77.171 24.309,83.578 17.839,83.578 12.348,77.171 28.097,77.171 					"/>
				</g>
				<g>
					<polygon class="st0" points="29.728,19.596 29.728,23.584 29.428,23.584 12.483,23.584 12.483,19.596 17.086,19.596 
						25.059,19.596 					"/>
				</g>
				<g>
					<path class="st1" d="M25.853,15.236v0.516h-0.794h-3.985V6.26c0.006,0,0.009,0,0.016,0c2.632,0,4.763,0.841,4.763,1.875V15.236
						z"/>
				</g>
				<g>
					<path class="st1" d="M25.853,7.973v0.163c0-1.034-2.131-1.875-4.763-1.875c-0.006,0-0.009,0-0.016,0V1.632
						c1.46,0,2.644,0.466,2.644,1.041L25.853,7.973z"/>
				</g>
				<g>
					<polygon class="st1" points="25.059,15.752 25.059,19.596 17.086,19.596 17.086,15.752 21.074,15.752 					"/>
				</g>
				<g>
					<path class="st0" d="M23.068,87.566v4.591l-0.806,0.094c-0.363-0.059-0.766-0.094-1.188-0.094
						c-0.738,0-1.416,0.103-1.941,0.275l-0.053-0.275v-4.591v-0.094h3.988V87.566z"/>
				</g>
				<g>
					<path class="st1" d="M21.074,6.26v9.492h-3.988h-0.759v-0.516V8.135C16.327,7.104,18.452,6.263,21.074,6.26z"/>
				</g>
				<g>
					<path class="st1" d="M18.439,2.578c0.122-0.531,1.256-0.947,2.635-0.947V6.26c-2.622,0.003-4.747,0.844-4.747,1.875V7.973
						l2.078-5.401L18.439,2.578z"/>
				</g>
			</g>
			<g>
				<g>
					<path d="M89.828,12.514c-0.432,0-0.781-0.35-0.781-0.781V1.969c0-0.432,0.35-0.781,0.781-0.781s0.781,0.35,0.781,0.781v9.764
						C90.61,12.164,90.26,12.514,89.828,12.514z"/>
				</g>
				<g>
					<path d="M84.54,12.514c-0.432,0-0.781-0.35-0.781-0.781V1.969c0-0.432,0.35-0.781,0.781-0.781s0.781,0.35,0.781,0.781v9.764
						C85.322,12.164,84.972,12.514,84.54,12.514z"/>
				</g>
				<g>
					<path d="M82.406,107.752c-0.432,0-0.781-0.35-0.781-0.781V13.614c0-0.432,0.35-0.781,0.781-0.781s0.781,0.35,0.781,0.781
						v93.357C83.187,107.402,82.837,107.752,82.406,107.752z"/>
				</g>
				<g>
					<path d="M91.966,105.461c-0.432,0-0.781-0.35-0.781-0.781V13.614c0-0.432,0.35-0.781,0.781-0.781s0.781,0.35,0.781,0.781
						v91.066C92.747,105.112,92.398,105.461,91.966,105.461z"/>
				</g>
				<g>
					<path d="M92.747,358.704H81.624V106.971c0-0.432,0.35-0.781,0.781-0.781s0.781,0.35,0.781,0.781v250.17h7.998V104.68
						c0-0.432,0.35-0.781,0.781-0.781s0.781,0.35,0.781,0.781V358.704z"/>
				</g>
				<g>
					<path d="M136.818,107.752H91.966c-0.432,0-0.781-0.35-0.781-0.781s0.35-0.781,0.781-0.781h44.852
						c6.972,0,12.645-5.673,12.645-12.645c0-0.432,0.35-0.781,0.781-0.781s0.781,0.35,0.781,0.781
						C151.025,101.379,144.652,107.752,136.818,107.752z"/>
				</g>
				<g>
					<path d="M82.406,107.752H37.551c-7.834,0-14.208-6.374-14.208-14.208c0-0.432,0.35-0.781,0.781-0.781s0.781,0.35,0.781,0.781
						c0,6.972,5.673,12.645,12.645,12.645h44.855c0.432,0,0.781,0.35,0.781,0.781S82.837,107.752,82.406,107.752z"/>
				</g>
				<g>
					<path d="M82.406,114.159H37.857c-11.367,0-20.615-9.248-20.615-20.615c0-0.432,0.35-0.781,0.781-0.781
						c0.432,0,0.781,0.35,0.781,0.781c0,10.505,8.547,19.052,19.052,19.052h44.549c0.432,0,0.781,0.35,0.781,0.781
						S82.837,114.159,82.406,114.159z"/>
				</g>
				<g>
					<path d="M136.515,114.159H91.966c-0.432,0-0.781-0.35-0.781-0.781s0.35-0.781,0.781-0.781h44.549
						c10.505,0,19.052-8.547,19.052-19.052c0-0.432,0.35-0.781,0.781-0.781c0.432,0,0.781,0.35,0.781,0.781
						C157.129,104.911,147.881,114.159,136.515,114.159z"/>
				</g>
				<g>
					<path d="M82.406,14.397c-0.432,0-0.781-0.352-0.781-0.783c0-1.043,1.021-1.898,2.8-2.346c1.67-0.416,3.851-0.415,5.518,0
						c1.784,0.448,2.805,1.303,2.805,2.346c0,0.432-0.35,0.781-0.781,0.781s-0.781-0.35-0.781-0.781
						c-0.024-0.116-0.452-0.536-1.622-0.83c-1.421-0.353-3.335-0.354-4.759,0c-1.166,0.294-1.593,0.714-1.617,0.834
						C83.187,14.05,82.837,14.397,82.406,14.397z"/>
				</g>
				<g>
					<path d="M89.828,2.603c-0.383,0-0.702-0.276-0.769-0.641c-0.194-0.153-0.877-0.4-1.875-0.4s-1.681,0.247-1.875,0.4
						c-0.067,0.364-0.385,0.641-0.769,0.641c-0.432,0-0.781-0.35-0.781-0.781c0-1.259,1.72-1.822,3.425-1.822
						c1.705,0,3.425,0.563,3.425,1.822C90.61,2.254,90.26,2.603,89.828,2.603z M89.047,1.822
						C89.047,1.822,89.047,1.822,89.047,1.822C89.047,1.822,89.047,1.822,89.047,1.822z M85.322,1.822
						C85.322,1.822,85.322,1.822,85.322,1.822C85.322,1.822,85.322,1.822,85.322,1.822z"/>
				</g>
				<g>
					<path d="M156.348,94.138c-0.397,0-0.725-0.296-0.775-0.68c-0.116-0.108-0.507-0.317-1.221-0.437
						c-0.913-0.149-2.02-0.087-2.756,0.154c-0.341,0.11-0.513,0.225-0.577,0.284c-0.05,0.384-0.378,0.68-0.775,0.68
						c-0.432,0-0.781-0.35-0.781-0.781c0-0.424,0.215-1.205,1.651-1.669c0.624-0.204,1.38-0.313,2.181-0.313
						c0.45,0,0.892,0.035,1.314,0.104c1.604,0.27,2.521,0.954,2.521,1.878C157.129,93.788,156.779,94.138,156.348,94.138z
						 M151.025,93.357C151.025,93.357,151.025,93.357,151.025,93.357L151.025,93.357z M155.567,93.357L155.567,93.357
						C155.567,93.357,155.567,93.357,155.567,93.357z"/>
				</g>
				<g>
					<path d="M34.694,77.952H7.454L0.013,36.727c-0.077-0.425,0.205-0.831,0.63-0.908c0.425-0.078,0.831,0.205,0.908,0.63
						l7.21,39.94h24.628l7.207-39.94c0.077-0.425,0.483-0.707,0.908-0.63c0.425,0.077,0.707,0.483,0.63,0.908L34.694,77.952z"/>
				</g>
				<g>
					<path d="M41.364,37.37c-0.215,0-0.428-0.088-0.583-0.26L29.379,24.365H12.83L1.362,37.111
						c-0.288,0.321-0.783,0.347-1.103,0.058s-0.347-0.783-0.058-1.103l11.934-13.263h17.943l11.868,13.265
						c0.288,0.322,0.26,0.816-0.061,1.103C41.735,37.304,41.55,37.37,41.364,37.37z"/>
				</g>
				<g>
					<path d="M41.364,37.37H0.781C0.35,37.37,0,37.02,0,36.588s0.35-0.781,0.781-0.781h40.582c0.432,0,0.781,0.35,0.781,0.781
						S41.795,37.37,41.364,37.37z"/>
				</g>
				<g>
					<path d="M29.953,84.359H12.714c-0.432,0-0.781-0.35-0.781-0.781c0-0.432,0.35-0.781,0.781-0.781h17.239
						c0.432,0,0.781,0.35,0.781,0.781C30.735,84.009,30.385,84.359,29.953,84.359z"/>
				</g>
				<g>
					<path d="M24.308,84.359c-0.18,0-0.361-0.062-0.508-0.188c-0.327-0.281-0.366-0.774-0.085-1.102l5.491-6.407
						c0.281-0.328,0.774-0.366,1.102-0.085c0.327,0.281,0.366,0.774,0.085,1.102l-5.491,6.407
						C24.747,84.266,24.528,84.359,24.308,84.359z"/>
				</g>
				<g>
					<path d="M17.84,84.359c-0.22,0-0.439-0.092-0.594-0.273l-5.491-6.407c-0.281-0.328-0.243-0.821,0.085-1.102
						c0.327-0.28,0.821-0.243,1.102,0.085l5.491,6.407c0.281,0.328,0.243,0.821-0.085,1.102
						C18.201,84.297,18.02,84.359,17.84,84.359z"/>
				</g>
				<g>
					<path d="M34.2,37.37c-0.318,0-0.617-0.196-0.733-0.512l-4.773-13.005c-0.149-0.405,0.059-0.854,0.464-1.003
						c0.405-0.149,0.854,0.059,1.003,0.464l4.773,13.005c0.149,0.405-0.059,0.854-0.464,1.003C34.381,37.354,34.29,37.37,34.2,37.37
						z"/>
				</g>
				<g>
					<path d="M28.098,77.952c-0.039,0-0.078-0.003-0.117-0.009c-0.427-0.064-0.721-0.462-0.657-0.889l6.104-40.582
						c0.064-0.427,0.463-0.718,0.889-0.657c0.427,0.064,0.721,0.462,0.657,0.889l-6.104,40.582
						C28.811,77.674,28.478,77.952,28.098,77.952z"/>
				</g>
				<g>
					<path d="M34.838,20.377H7.31c-0.432,0-0.781-0.35-0.781-0.781s0.35-0.781,0.781-0.781h27.528c0.432,0,0.781,0.35,0.781,0.781
						S35.27,20.377,34.838,20.377z"/>
				</g>
				<g>
					<path d="M28.94,16.533H13.208c-0.432,0-0.781-0.35-0.781-0.781c0-0.432,0.35-0.781,0.781-0.781H28.94
						c0.432,0,0.781,0.35,0.781,0.781C29.722,16.183,29.372,16.533,28.94,16.533z"/>
				</g>
				<g>
					<path d="M23.718,3.453c-0.383,0-0.702-0.276-0.769-0.641c-0.195-0.153-0.877-0.4-1.875-0.4c-0.997,0-1.679,0.246-1.875,0.4
						c-0.066,0.364-0.385,0.641-0.769,0.641c-0.432,0-0.781-0.35-0.781-0.781c0-0.084,0.009-0.168,0.025-0.25
						c0.267-1.165,1.998-1.572,3.4-1.572c1.705,0,3.425,0.563,3.425,1.822C24.499,3.104,24.15,3.453,23.718,3.453z M22.937,2.672
						C22.937,2.672,22.937,2.672,22.937,2.672C22.937,2.672,22.937,2.672,22.937,2.672z M19.211,2.672
						C19.211,2.672,19.211,2.672,19.211,2.672C19.211,2.672,19.211,2.672,19.211,2.672z"/>
				</g>
				<g>
					<path d="M16.326,8.919c-0.431,0-0.781-0.352-0.781-0.784c0-1.74,2.781-2.653,5.528-2.657c2.772,0,5.561,0.913,5.561,2.657
						c0,0.432-0.35,0.781-0.781,0.781s-0.781-0.35-0.781-0.781c-0.067-0.324-1.502-1.094-3.982-1.094
						c-2.481,0.003-3.914,0.771-3.982,1.098C17.108,8.571,16.758,8.919,16.326,8.919z"/>
				</g>
				<g>
					<path d="M25.853,8.755c-0.309,0-0.602-0.185-0.725-0.49l-2.135-5.301c-0.161-0.4,0.033-0.855,0.433-1.017
						c0.4-0.162,0.855,0.033,1.017,0.433l2.135,5.301c0.161,0.4-0.033,0.855-0.433,1.017C26.049,8.736,25.95,8.755,25.853,8.755z"/>
				</g>
				<g>
					<path d="M16.301,8.817c-0.097,0-0.196-0.018-0.291-0.057c-0.4-0.161-0.595-0.616-0.433-1.016l0.025-0.062l2.074-5.39
						c0.154-0.403,0.606-0.605,1.01-0.449c0.403,0.155,0.604,0.607,0.449,1.01l-2.108,5.474C16.904,8.632,16.611,8.817,16.301,8.817
						z"/>
				</g>
				<g>
					<path d="M16.327,16.017c-0.432,0-0.781-0.35-0.781-0.781V7.973c0-0.432,0.35-0.781,0.781-0.781c0.432,0,0.781,0.35,0.781,0.781
						v7.263C17.108,15.668,16.758,16.017,16.327,16.017z"/>
				</g>
				<g>
					<path d="M25.853,16.017c-0.432,0-0.781-0.35-0.781-0.781V7.973c0-0.432,0.35-0.781,0.781-0.781s0.781,0.35,0.781,0.781v7.263
						C26.634,15.668,26.284,16.017,25.853,16.017z"/>
				</g>
				<g>
					<path d="M17.086,20.377c-0.432,0-0.781-0.35-0.781-0.781v-3.844c0-0.432,0.35-0.781,0.781-0.781s0.781,0.35,0.781,0.781v3.844
						C17.868,20.027,17.518,20.377,17.086,20.377z"/>
				</g>
				<g>
					<path d="M25.059,20.377c-0.432,0-0.781-0.35-0.781-0.781v-3.844c0-0.432,0.35-0.781,0.781-0.781s0.781,0.35,0.781,0.781v3.844
						C25.84,20.027,25.49,20.377,25.059,20.377z"/>
				</g>
				<g>
					<path d="M21.074,16.533c-0.432,0-0.781-0.35-0.781-0.781V1.632c0-0.432,0.35-0.781,0.781-0.781s0.781,0.35,0.781,0.781v14.12
						C21.855,16.183,21.506,16.533,21.074,16.533z"/>
				</g>
				<g>
					<path d="M29.728,24.365c-0.432,0-0.781-0.35-0.781-0.781v-3.988c0-0.432,0.35-0.781,0.781-0.781s0.781,0.35,0.781,0.781v3.988
						C30.51,24.015,30.16,24.365,29.728,24.365z"/>
				</g>
				<g>
					<path d="M12.482,24.365c-0.432,0-0.781-0.35-0.781-0.781v-3.988c0-0.432,0.35-0.781,0.781-0.781
						c0.432,0,0.781,0.35,0.781,0.781v3.988C13.264,24.015,12.914,24.365,12.482,24.365z"/>
				</g>
				<g>
					<path d="M166.917,77.952h-27.243l-7.439-41.225c-0.077-0.425,0.205-0.831,0.63-0.908c0.424-0.078,0.831,0.205,0.908,0.63
						l7.207,39.94h24.631l7.207-39.94c0.077-0.425,0.482-0.707,0.908-0.63c0.425,0.077,0.707,0.483,0.63,0.908L166.917,77.952z"/>
				</g>
				<g>
					<path d="M133.004,37.37c-0.186,0-0.373-0.066-0.522-0.201c-0.321-0.289-0.347-0.783-0.058-1.103l11.934-13.263h17.943
						l11.869,13.265c0.288,0.322,0.26,0.816-0.061,1.103c-0.321,0.288-0.815,0.26-1.103-0.061l-11.403-12.744h-16.548
						l-11.469,12.746C133.431,37.282,133.218,37.37,133.004,37.37z"/>
				</g>
				<g>
					<path d="M173.587,37.37h-40.583c-0.432,0-0.781-0.35-0.781-0.781s0.35-0.781,0.781-0.781h40.583
						c0.432,0,0.781,0.35,0.781,0.781S174.019,37.37,173.587,37.37z"/>
				</g>
				<g>
					<path d="M161.839,84.359h-17.086c-0.432,0-0.781-0.35-0.781-0.781c0-0.432,0.35-0.781,0.781-0.781h17.086
						c0.432,0,0.781,0.35,0.781,0.781C162.62,84.009,162.271,84.359,161.839,84.359z"/>
				</g>
				<g>
					<path d="M149.879,84.359c-0.22,0-0.439-0.092-0.594-0.273l-5.491-6.407c-0.281-0.328-0.243-0.821,0.085-1.102
						c0.327-0.28,0.82-0.243,1.102,0.085l5.491,6.407c0.281,0.328,0.243,0.821-0.085,1.102
						C150.239,84.297,150.059,84.359,149.879,84.359z"/>
				</g>
				<g>
					<path d="M161.839,88.347h-17.086c-0.432,0-0.781-0.35-0.781-0.781s0.35-0.781,0.781-0.781h17.086
						c0.432,0,0.781,0.35,0.781,0.781S162.271,88.347,161.839,88.347z"/>
				</g>
				<g>
					<path d="M166.721,37.37c-0.318,0-0.617-0.196-0.733-0.513l-4.769-13.005c-0.149-0.405,0.059-0.854,0.465-1.002
						c0.403-0.149,0.854,0.059,1.002,0.465l4.769,13.005c0.149,0.405-0.059,0.854-0.465,1.002
						C166.901,37.354,166.81,37.37,166.721,37.37z"/>
				</g>
				<g>
					<path d="M160.621,77.952c-0.038,0-0.078-0.003-0.117-0.009c-0.427-0.064-0.721-0.462-0.657-0.889l6.101-40.582
						c0.064-0.426,0.461-0.72,0.889-0.657c0.427,0.064,0.721,0.462,0.656,0.889l-6.1,40.582
						C161.335,77.674,161.001,77.952,160.621,77.952z"/>
				</g>
				<g>
					<path d="M167.062,20.377H139.53c-0.432,0-0.781-0.35-0.781-0.781s0.35-0.781,0.781-0.781h27.531
						c0.432,0,0.781,0.35,0.781,0.781S167.493,20.377,167.062,20.377z"/>
				</g>
				<g>
					<path d="M161.161,16.533h-15.73c-0.432,0-0.781-0.35-0.781-0.781c0-0.432,0.35-0.781,0.781-0.781h15.73
						c0.432,0,0.781,0.35,0.781,0.781C161.942,16.183,161.592,16.533,161.161,16.533z"/>
				</g>
				<g>
					<path d="M155.942,3.453c-0.383,0-0.702-0.276-0.769-0.64c-0.175-0.134-0.8-0.401-1.879-0.401c-0.997,0-1.679,0.246-1.875,0.4
						c-0.066,0.364-0.385,0.641-0.769,0.641c-0.432,0-0.781-0.35-0.781-0.781c0-0.08,0.008-0.161,0.024-0.243
						c0.268-1.172,1.999-1.579,3.402-1.579c1.707,0,3.429,0.563,3.429,1.822C156.723,3.104,156.373,3.453,155.942,3.453z
						 M151.432,2.672C151.432,2.672,151.432,2.672,151.432,2.672C151.432,2.672,151.432,2.672,151.432,2.672z M155.16,2.672
						C155.16,2.672,155.16,2.672,155.16,2.672C155.16,2.672,155.16,2.672,155.16,2.672z"/>
				</g>
				<g>
					<path d="M148.55,8.919c-0.431,0-0.781-0.352-0.781-0.783c0-1.74,2.779-2.653,5.525-2.657c2.775,0,5.564,0.913,5.564,2.657
						c0,0.432-0.35,0.781-0.781,0.781s-0.781-0.35-0.781-0.781c-0.067-0.324-1.502-1.094-3.982-1.094
						c-2.485,0.003-3.915,0.771-3.982,1.098C149.331,8.571,148.981,8.919,148.55,8.919z"/>
				</g>
				<g>
					<path d="M158.077,8.755c-0.309,0-0.602-0.185-0.725-0.49l-2.135-5.301c-0.161-0.4,0.033-0.855,0.433-1.017
						c0.399-0.162,0.855,0.033,1.017,0.433l2.135,5.301c0.161,0.4-0.033,0.855-0.433,1.017
						C158.273,8.736,158.174,8.755,158.077,8.755z"/>
				</g>
				<g>
					<path d="M148.525,8.817c-0.097,0-0.196-0.018-0.291-0.057c-0.4-0.161-0.595-0.616-0.433-1.016l0.025-0.062l2.074-5.39
						c0.154-0.403,0.606-0.605,1.01-0.449c0.403,0.155,0.604,0.607,0.449,1.01l-2.108,5.474
						C149.128,8.632,148.835,8.817,148.525,8.817z"/>
				</g>
				<g>
					<path d="M148.55,16.017c-0.432,0-0.781-0.35-0.781-0.781V7.973c0-0.432,0.35-0.781,0.781-0.781s0.781,0.35,0.781,0.781v7.263
						C149.331,15.668,148.982,16.017,148.55,16.017z"/>
				</g>
				<g>
					<path d="M158.076,16.017c-0.432,0-0.781-0.35-0.781-0.781V7.973c0-0.432,0.35-0.781,0.781-0.781s0.781,0.35,0.781,0.781v7.263
						C158.858,15.668,158.508,16.017,158.076,16.017z"/>
				</g>
				<g>
					<path d="M149.309,20.377c-0.432,0-0.781-0.35-0.781-0.781v-3.844c0-0.432,0.35-0.781,0.781-0.781s0.781,0.35,0.781,0.781v3.844
						C150.091,20.027,149.741,20.377,149.309,20.377z"/>
				</g>
				<g>
					<path d="M157.282,20.377c-0.432,0-0.781-0.35-0.781-0.781v-3.844c0-0.432,0.35-0.781,0.781-0.781s0.781,0.35,0.781,0.781v3.844
						C158.064,20.027,157.714,20.377,157.282,20.377z"/>
				</g>
				<g>
					<path d="M153.294,16.533c-0.432,0-0.781-0.35-0.781-0.781V1.632c0-0.432,0.35-0.781,0.781-0.781s0.781,0.35,0.781,0.781v14.12
						C154.076,16.183,153.726,16.533,153.294,16.533z"/>
				</g>
				<g>
					<path d="M161.951,24.365c-0.432,0-0.781-0.35-0.781-0.781v-3.988c0-0.432,0.35-0.781,0.781-0.781s0.781,0.35,0.781,0.781v3.988
						C162.733,24.015,162.383,24.365,161.951,24.365z"/>
				</g>
				<g>
					<path d="M144.706,24.365c-0.432,0-0.781-0.35-0.781-0.781v-3.988c0-0.432,0.35-0.781,0.781-0.781s0.781,0.35,0.781,0.781v3.988
						C145.487,24.015,145.138,24.365,144.706,24.365z"/>
				</g>
				<g>
					<path d="M156.348,84.359c-0.18,0-0.361-0.062-0.508-0.188c-0.327-0.281-0.366-0.774-0.085-1.102l5.491-6.407
						c0.281-0.328,0.774-0.366,1.102-0.085c0.327,0.281,0.366,0.774,0.085,1.102l-5.491,6.407
						C156.786,84.266,156.568,84.359,156.348,84.359z"/>
				</g>
				<g>
					<path d="M151.304,92.938c-0.432,0-0.781-0.35-0.781-0.781v-4.591c0-0.432,0.35-0.781,0.781-0.781s0.781,0.35,0.781,0.781v4.591
						C152.085,92.588,151.735,92.938,151.304,92.938z"/>
				</g>
				<g>
					<path d="M155.288,92.938c-0.432,0-0.781-0.35-0.781-0.781v-4.591c0-0.432,0.35-0.781,0.781-0.781s0.781,0.35,0.781,0.781v4.591
						C156.07,92.588,155.72,92.938,155.288,92.938z"/>
				</g>
				<g>
					<path d="M24.124,94.138c-0.397,0-0.725-0.296-0.775-0.68c-0.115-0.108-0.506-0.317-1.218-0.437
						c-0.913-0.149-2.02-0.087-2.755,0.154c-0.341,0.11-0.513,0.225-0.577,0.284c-0.05,0.384-0.378,0.68-0.775,0.68
						c-0.432,0-0.781-0.35-0.781-0.781c0-0.424,0.215-1.205,1.651-1.669c0.624-0.204,1.379-0.313,2.181-0.313
						c0.449,0,0.891,0.035,1.314,0.104c1.602,0.27,2.518,0.955,2.518,1.878C24.906,93.788,24.556,94.138,24.124,94.138z
						 M23.343,93.357C23.343,93.357,23.343,93.357,23.343,93.357C23.343,93.357,23.343,93.357,23.343,93.357z M18.805,93.357
						C18.805,93.357,18.805,93.357,18.805,93.357L18.805,93.357z"/>
				</g>
				<g>
					<path d="M19.08,92.938c-0.432,0-0.781-0.35-0.781-0.781v-4.591c0-0.432,0.35-0.781,0.781-0.781c0.432,0,0.781,0.35,0.781,0.781
						v4.591C19.861,92.588,19.512,92.938,19.08,92.938z"/>
				</g>
				<g>
					<path d="M23.068,92.938c-0.432,0-0.781-0.35-0.781-0.781v-4.591c0-0.432,0.35-0.781,0.781-0.781s0.781,0.35,0.781,0.781v4.591
						C23.849,92.588,23.5,92.938,23.068,92.938z"/>
				</g>
				<g>
					<path d="M29.953,88.253H12.714c-0.432,0-0.781-0.35-0.781-0.781s0.35-0.781,0.781-0.781h17.239c0.432,0,0.781,0.35,0.781,0.781
						S30.385,88.253,29.953,88.253z"/>
				</g>
				<g>
					<path d="M29.953,88.253c-0.432,0-0.781-0.35-0.781-0.781v-3.894c0-0.432,0.35-0.781,0.781-0.781
						c0.432,0,0.781,0.35,0.781,0.781v3.894C30.735,87.903,30.385,88.253,29.953,88.253z"/>
				</g>
				<g>
					<path d="M12.714,88.253c-0.432,0-0.781-0.35-0.781-0.781v-3.894c0-0.432,0.35-0.781,0.781-0.781s0.781,0.35,0.781,0.781v3.894
						C13.495,87.903,13.145,88.253,12.714,88.253z"/>
				</g>
				<g>
					<path d="M161.839,88.347c-0.432,0-0.781-0.35-0.781-0.781v-3.988c0-0.432,0.35-0.781,0.781-0.781s0.781,0.35,0.781,0.781v3.988
						C162.62,87.997,162.271,88.347,161.839,88.347z"/>
				</g>
				<g>
					<path d="M144.753,88.347c-0.432,0-0.781-0.35-0.781-0.781v-3.988c0-0.432,0.35-0.781,0.781-0.781s0.781,0.35,0.781,0.781v3.988
						C145.534,87.997,145.184,88.347,144.753,88.347z"/>
				</g>
			</g>
		</g>
	</g>
	<g>
		<g>
			<g>
				<path d="M26.361,144.729c-1.745,0-3.518-0.272-5.228-0.824c-4.196-1.356-7.784-4.378-9.843-8.291
					c-2.241-4.258-2.574-9.205-0.892-13.234c1.74-4.167,5.565-7.311,9.981-8.204c4.778-0.967,9.516,0.888,12.068,4.726
					c2.782,4.185,2.395,9.544-0.922,12.742c-1.865,1.797-4.497,2.721-7.039,2.47c-2.233-0.22-4.149-1.329-5.394-3.121
					c-1.454-2.093-1.735-4.803-0.716-6.904c1.112-2.292,3.615-3.694,6.079-3.412c2.588,0.298,4.587,2.637,4.458,5.214
					c-0.069,1.381-0.885,2.698-2.13,3.436c-1.14,0.676-2.445,0.75-3.58,0.202c-1.207-0.583-1.986-1.824-1.985-3.162
					c0.001-0.431,0.35-0.78,0.781-0.78c0,0,0.001,0,0.001,0c0.432,0,0.781,0.351,0.78,0.782c-0.001,0.73,0.442,1.434,1.101,1.753
					c0.896,0.433,1.703,0.099,2.103-0.139c0.787-0.467,1.324-1.319,1.366-2.171c0.089-1.771-1.29-3.378-3.075-3.584
					c-1.793-0.206-3.681,0.863-4.495,2.541c-0.777,1.601-0.544,3.693,0.593,5.33c0.98,1.41,2.494,2.283,4.264,2.457
					c2.092,0.206,4.261-0.556,5.8-2.04c3.142-3.029,2.733-7.702,0.705-10.752c-2.198-3.307-6.303-4.9-10.457-4.06
					c-3.915,0.792-7.305,3.579-8.848,7.274c-1.505,3.604-1.194,8.054,0.832,11.904c1.871,3.555,5.13,6.301,8.941,7.532
					c3.971,1.283,8.307,0.906,11.6-1.01c3.385-1.969,5.703-5.303,7.704-8.612l1.525-2.643c0.43-0.758,0.855-1.531,1.283-2.306
					c1.803-3.27,3.668-6.652,6.155-9.537c2.908-3.374,6.64-5.33,10.794-5.658c4.873-0.384,9.667,1.249,13.154,4.482
					c3.557,3.299,5.545,7.949,5.453,12.76c-0.093,4.846-2.772,9.343-6.992,11.736c-4.535,2.572-10.072,2.305-13.78-0.663
					c-4.026-3.224-5.367-9.004-3.053-13.16c1.295-2.325,3.762-4.065,6.437-4.541c2.375-0.422,4.64,0.167,6.375,1.66
					c1.991,1.714,2.96,4.402,2.469,6.848c-0.523,2.604-2.734,4.607-5.377,4.87c-1.374,0.135-2.769-0.284-3.829-1.156
					c-1.036-0.851-1.676-2.048-1.803-3.372c-0.14-1.46,0.551-2.992,1.762-3.9c1.106-0.831,2.456-1.024,3.702-0.528
					c1.324,0.526,2.212,1.837,2.212,3.261c0,0.432-0.35,0.781-0.781,0.781c0,0,0,0,0,0c-0.432,0-0.781-0.35-0.781-0.781
					c0-0.79-0.493-1.517-1.227-1.809c-0.997-0.396-1.798,0.034-2.186,0.325c-0.785,0.589-1.235,1.571-1.145,2.501
					c0.087,0.907,0.527,1.729,1.239,2.314c0.742,0.61,1.721,0.905,2.682,0.808c1.966-0.196,3.611-1.686,4-3.623
					c0.377-1.872-0.41-4.025-1.956-5.356c-1.372-1.181-3.177-1.644-5.082-1.306c-2.225,0.396-4.273,1.837-5.345,3.763
					c-2.181,3.916-0.358,8.76,2.664,11.179c3.214,2.573,8.049,2.783,12.032,0.524c3.742-2.122,6.119-6.11,6.2-10.407
					c0.082-4.301-1.77-8.632-4.953-11.584c-3.167-2.937-7.526-4.42-11.968-4.07c-3.735,0.295-7.1,2.065-9.733,5.12
					c-2.381,2.762-4.205,6.072-5.97,9.272c-0.43,0.78-0.859,1.558-1.295,2.327l-1.536,2.662c-2.116,3.5-4.575,7.022-8.264,9.168
					C31.759,144.062,29.094,144.729,26.361,144.729z"/>
			</g>
		</g>
		<g>
			<g>
				<path d="M147.965,144.73c-2.734,0-5.398-0.667-7.638-1.971c-3.688-2.146-6.147-5.668-8.256-9.154l-1.541-2.671
					c-0.439-0.774-0.868-1.552-1.298-2.331c-1.765-3.2-3.59-6.51-5.971-9.272c-2.633-3.055-5.999-4.826-9.733-5.12
					c-4.439-0.351-8.801,1.133-11.968,4.07c-3.184,2.952-5.035,7.283-4.953,11.584c0.081,4.297,2.457,8.284,6.2,10.407
					c3.984,2.259,8.819,2.049,12.032-0.524c3.022-2.42,4.846-7.263,2.664-11.179c-1.072-1.925-3.12-3.367-5.344-3.763
					c-1.905-0.338-3.71,0.125-5.082,1.306c-1.546,1.331-2.332,3.484-1.956,5.356c0.389,1.937,2.034,3.427,4,3.623
					c0.96,0.097,1.94-0.198,2.682-0.808c0.712-0.585,1.152-1.407,1.239-2.314c0.089-0.93-0.36-1.912-1.145-2.501
					c-0.388-0.292-1.188-0.722-2.186-0.325c-0.734,0.292-1.227,1.019-1.227,1.809c0,0.431-0.349,0.781-0.781,0.781
					s-0.782-0.35-0.782-0.781c0-1.424,0.888-2.735,2.212-3.261c1.246-0.496,2.595-0.303,3.702,0.527
					c1.211,0.909,1.903,2.44,1.763,3.901c-0.127,1.324-0.767,2.521-1.803,3.372c-1.061,0.872-2.458,1.292-3.829,1.156
					c-2.642-0.263-4.853-2.266-5.377-4.87c-0.491-2.446,0.478-5.134,2.469-6.848c1.735-1.493,3.999-2.082,6.375-1.66
					c2.675,0.476,5.142,2.216,6.437,4.541c2.314,4.155,0.973,9.936-3.053,13.16c-3.707,2.968-9.245,3.235-13.78,0.663
					c-4.22-2.393-6.9-6.89-6.992-11.736c-0.092-4.81,1.896-9.461,5.453-12.76c3.486-3.233,8.282-4.866,13.154-4.482
					c4.154,0.328,7.886,2.284,10.794,5.658c2.487,2.886,4.352,6.268,6.156,9.538c0.427,0.775,0.853,1.547,1.286,2.31l1.53,2.652
					c1.993,3.295,4.311,6.629,7.696,8.598c3.293,1.916,7.629,2.293,11.6,1.01c3.811-1.232,7.07-3.977,8.941-7.532
					c2.026-3.85,2.338-8.3,0.833-11.904c-1.543-3.695-4.934-6.483-8.849-7.274c-4.155-0.84-8.258,0.754-10.456,4.06
					c-2.028,3.05-2.437,7.722,0.705,10.752c1.539,1.484,3.71,2.248,5.8,2.04c1.77-0.174,3.285-1.047,4.264-2.457
					c1.138-1.637,1.37-3.729,0.593-5.33c-0.814-1.678-2.703-2.747-4.495-2.541c-1.785,0.205-3.164,1.813-3.075,3.584
					c0.043,0.852,0.579,1.704,1.366,2.171c0.4,0.238,1.206,0.572,2.104,0.139c0.66-0.318,1.102-1.023,1.101-1.752
					c-0.001-0.432,0.349-0.782,0.78-0.783c0,0,0.001,0,0.001,0c0.431,0,0.781,0.349,0.781,0.78c0.002,1.338-0.777,2.579-1.984,3.162
					c-1.135,0.548-2.44,0.474-3.58-0.202c-1.245-0.738-2.061-2.055-2.13-3.436c-0.129-2.578,1.871-4.917,4.458-5.214
					c2.471-0.284,4.967,1.12,6.079,3.411c1.02,2.101,0.739,4.811-0.716,6.904c-1.245,1.792-3.161,2.901-5.394,3.121
					c-2.542,0.251-5.174-0.673-7.038-2.47c-3.317-3.198-3.705-8.557-0.922-12.742c2.551-3.838,7.289-5.693,12.067-4.726
					c4.416,0.893,8.241,4.036,9.981,8.204c1.683,4.029,1.349,8.976-0.892,13.234c-2.06,3.913-5.647,6.936-9.843,8.291
					C151.484,144.457,149.71,144.73,147.965,144.73z"/>
			</g>
		</g>
	</g>
	<g>
		<g>
			<path d="M19.08,77.614c-0.432,0-0.781-0.35-0.781-0.781V36.587c0-0.432,0.35-0.781,0.781-0.781s0.781,0.35,0.781,0.781v40.245
				C19.862,77.264,19.512,77.614,19.08,77.614z"/>
		</g>
	</g>
	<g>
		<g>
			<path d="M152.409,77.614c-0.432,0-0.781-0.35-0.781-0.781V36.587c0-0.432,0.35-0.781,0.781-0.781s0.781,0.35,0.781,0.781v40.245
				C153.19,77.264,152.84,77.614,152.409,77.614z"/>
		</g>
	</g>
</g>
</svg>
