<?xml version="1.0" encoding="utf-8"?>
<!-- Generator: Adobe Illustrator 26.3.1, SVG Export Plug-In . SVG Version: 6.00 Build 0)  -->
<svg version="1.1" id="Layer_1" xmlns="http://www.w3.org/2000/svg" xmlns:xlink="http://www.w3.org/1999/xlink" x="0px" y="0px"
	 viewBox="0 0 94.843 142.263" style="enable-background:new 0 0 94.843 142.263;" xml:space="preserve">
<style type="text/css">
	.st0{fill:#0E4C1F;}
	.st1{fill:#FFCCCC;}
	.st2{fill:#601616;}
	.st3{fill:#9E501B;}
	.st4{fill:#5B2700;}
</style>
<g>
	<g>
		<g id="XMLID_00000103943598917018994830000017191678308158178211_">
			<g>
				<g>
					<path d="M94.141,29.555c0.409,0.054,0.489,0.576,0.243,0.752c-0.029,0.042-0.061,0.08-0.109,0.115l-0.707,0.509
						c-0.048,0.035-0.096,0.054-0.144,0.064c-8.148,4.939-18.296,5.55-27.231,2.45c-3.513-1.219-7.774-3.397-10.989-6.334
						c1.737,2.044,2.687,4.78,2.441,7.732c-0.384,4.607-3.161,8.25-5.55,12.022c-0.003-0.192-0.01-0.387-0.016-0.579
						c-0.086,0.131-0.189,0.25-0.31,0.349c-0.102,0.243-0.253,0.467-0.451,0.672c-0.006,0.006-0.013,0.01-0.019,0.016l-0.198-0.125
						c1.593-2.511,3.394-4.946,4.536-7.71c1.34-3.247,1.887-7.096,0.144-10.308c-1.638-3.01-4.866-4.795-8.241-4.85
						c0.291-0.163,0.339-0.662-0.064-0.733c-0.093-0.016-0.189-0.032-0.282-0.045c0.051-0.022,0.109-0.035,0.176-0.035
						c1.209,0,2.355,0.198,3.413,0.569c0,0.147,0,0.298,0,0.448c0.003,0.003,0.01,0.003,0.016,0.006
						c0.08-0.045,0.176-0.054,0.288-0.013c0.058,0.026,0.115,0.051,0.173,0.074c0.118,0.038,0.23,0.086,0.339,0.141
						c0-0.112,0-0.221,0-0.333c0.87,0.384,1.67,0.889,2.383,1.488c-0.947-1.027-1.76-2.127-2.371-3.305
						c0.006-0.576,0.016-1.139,0.032-1.686l0.067-0.022c2.188,6.299,10.701,10.688,16.498,12.345
						c8.289,2.371,17.365,1.568,24.787-2.924c-0.221,0.003-0.441,0.003-0.662,0.026c-0.058,0.006-0.102-0.003-0.147-0.016
						c-3.625,0.042-5.586-3.458-7.265-6.181c-2.204-3.57-4.466-7.179-7.428-10.176l0.058-0.054c0.045,0.048,0.099,0.09,0.173,0.115
						c0.393,0.147,0.8,0.24,1.209,0.285c1.248,1.376,2.383,2.863,3.439,4.383c1.321,1.897,2.527,3.874,3.743,5.842
						c1.404,2.268,3.145,5.058,6.152,4.981c0.026,0,0.045,0.01,0.07,0.013C92.941,29.462,93.54,29.472,94.141,29.555z"/>
				</g>
				<g>
					<path class="st0" d="M92.334,30.332c0.221-0.022,0.441-0.022,0.662-0.026c-7.422,4.492-16.498,5.295-24.787,2.924
						c-5.797-1.657-14.31-6.046-16.498-12.345c-0.585-1.683-0.717-3.506-0.224-5.448c0.032-0.096,0.067-0.192,0.083-0.291
						c0.022-0.269,0.09-0.537,0.17-0.806c0.003-0.016,0-0.026,0.003-0.038c0.01-0.032,0.019-0.061,0.029-0.089
						c-0.003-0.01-0.003-0.019-0.006-0.026c0.01-0.029,0.026-0.061,0.038-0.09c0,0,0,0,0-0.003c0.163-0.368,0.355-0.72,0.566-1.049
						h0.003c2.425-3.794,7.835-5.195,12.083-5.096c5.007,0.118,9.457,2.415,12.947,5.918c0.032,0.032,0.061,0.061,0.09,0.093
						c2.962,2.998,5.224,6.606,7.428,10.176c1.68,2.723,3.641,6.222,7.265,6.181C92.231,30.329,92.276,30.339,92.334,30.332z
						 M83.341,29.062c0.505,0.118,0.723-0.662,0.214-0.784c-3.062-0.717-5.976-1.859-8.663-3.5c-2.697-1.648-4.933-3.855-7.393-5.81
						c-3.65-2.898-8.442-5.147-12.96-2.812c-0.464,0.24-0.054,0.94,0.409,0.701c5.95-3.074,11.386,2.236,15.615,5.762
						C74.316,25.748,78.574,27.946,83.341,29.062z"/>
				</g>
				<g>
					<path class="st1" d="M87.375,76.755l-0.387,1.753c-2.649,6.027-18.782,10.663-38.284,10.663
						c-19.499,0-35.632-4.636-38.281-10.663l-0.387-1.753c0-0.921,0.314-1.823,0.912-2.687c3.82,5.567,19.275,9.729,37.756,9.729
						c18.488,0,33.946-4.165,37.762-9.732C87.061,74.931,87.375,75.83,87.375,76.755z"/>
				</g>
				<g>
					<path class="st2" d="M86.988,78.508l-11.981,54.513c0,4.664-11.776,8.443-26.303,8.443c-14.524,0-26.3-3.778-26.3-8.443
						L10.423,78.508c2.649,6.027,18.782,10.663,38.281,10.663C68.206,89.171,84.339,84.535,86.988,78.508z"/>
				</g>
				<g>
					<path class="st1" d="M87.375,71.38c0,0.921-0.314,1.82-0.909,2.684c-3.564-5.182-17.218-9.149-34.01-9.668
						c-0.016-1.82-0.038-3.615-0.07-5.378C72.019,59.617,87.375,64.925,87.375,71.38z"/>
				</g>
				<g>
					<path d="M84.589,11.234c0.032,0.073,0.032,0.157,0.003,0.243c-0.006,0.026-0.019,0.051-0.029,0.074
						c-0.006,0.006-0.006,0.013-0.01,0.022c-0.006,0.01-0.016,0.019-0.022,0.032c-0.01,0.01-0.016,0.022-0.026,0.035
						c-1.206,1.785-3.433,2.898-5.573,2.665c-0.333-0.365-0.675-0.726-1.024-1.075c0.01,0.003,0.019,0.006,0.029,0.01
						c1.935,0.72,4.184-0.026,5.512-1.564c-1.955-0.163-3.961-0.419-5.682-1.404c-2.044-1.177-3.452-3.167-5.125-4.783
						c-3.829-3.695-11.018-6.965-14.981-1.507c-0.042,0.058-0.093,0.096-0.144,0.125C57.264,4.392,57.024,4.689,56.81,5
						c-0.045-0.019-0.093-0.029-0.144-0.029c-0.301,0-0.592,0.032-0.87,0.093c0.409-0.678,0.889-1.305,1.443-1.875
						c0.022-0.022,0.048-0.035,0.074-0.051c0.106-0.125,0.218-0.237,0.33-0.355c-2.7-0.985-5.448-2.198-7.966-0.122
						c-0.042,0.208-0.221,0.387-0.483,0.301c-0.026-0.01-0.051-0.019-0.077-0.029c-1.328,0.531-2.243,1.715-2.454,3.135
						c-0.08,0.515-0.861,0.294-0.784-0.218c0.208-1.379,1.024-2.553,2.169-3.276c-1.66-0.557-3.18-0.973-5.058-0.56
						c-1.132,0.25-2.118,0.589-3.01,1.347c-0.342,0.291-0.624,0.547-0.982,0.765c-0.019,0.019-0.045,0.032-0.067,0.051
						c0.054,0.019,0.109,0.032,0.16,0.057c0.042,0.035,0.086,0.067,0.144,0.09c0.022,0.01,0.048,0.019,0.07,0.026
						c0.019,0.01,0.035,0.003,0.054,0.006c0.419,0.202,0.819,0.442,1.142,0.787c0.672,0.723,1.056,1.804,1.452,2.694
						c0.029,0.067,0.038,0.131,0.035,0.192c0.15,0.349,0.227,0.713,0.323,1.084c0.003,0.01,0.003,0.019,0.006,0.029
						c-0.33-0.649-0.704-1.19-1.123-1.619c-0.144-0.144-0.291-0.278-0.445-0.4c-0.186-0.393-0.387-0.781-0.621-1.136
						c-0.454-0.688-1.235-0.989-1.98-1.257c-3.298-0.589-6.67-0.918-9.623,1.017c-2.367,1.548-4.005,3.916-5.794,6.046
						c-2.623,3.122-6.433,6.19-10.675,4.831c1.603,2.806,3.845,5.445,7.147,6.13c0.342,0.035,0.688,0.045,1.03,0.032
						c0.953-1.385,1.913-2.764,2.962-4.073c2.585-3.231,5.842-6.232,9.988-7.179c2.431-0.553,4.949-0.393,7.144,0.611
						c0.01-0.006,0.016-0.019,0.029-0.026c0.784-0.416,1.305-1.113,1.491-1.983c0.003-0.016,0.006-0.029,0.01-0.042
						c0.157,0.365,0.298,0.761,0.429,1.19c-0.275,0.512-0.672,0.953-1.155,1.289c0.512,0.294,1.008,0.624,1.468,1.027
						c0.038,0.019,0.074,0.048,0.106,0.086c0.061,0.054,0.128,0.096,0.186,0.154c0.157,0.857,0.288,1.788,0.397,2.79
						c0.042,0.058,0.074,0.128,0.074,0.218c0.01,0.48,0.352,0.87,0.336,1.369c0,0.035-0.013,0.061-0.019,0.09
						c0.282,1.158,0.681,2.255,0.557,3.493c-0.042,0.403-0.061,0.925-0.186,1.379c-0.029,0.301-0.115,0.633-0.307,0.864
						c0.003,0.064,0.003,0.138,0.003,0.202c0.189-0.115,0.384-0.214,0.605-0.259c0.077-0.013,0.147-0.003,0.211,0.019
						c-0.054-2.172-0.154-4.162-0.307-5.96c0.406,1.817,0.534,3.641,0.419,5.438c0.835-0.07,1.68-0.054,2.521,0.07
						c-0.339,0.16-0.282,0.774,0.176,0.774c0.058,0,0.112,0,0.17,0.003c-0.077,0.048-0.173,0.067-0.282,0.048
						c-0.857-0.15-1.692-0.176-2.495-0.106c-0.032-0.006-0.061-0.016-0.099-0.016c-0.157,0-0.31,0.016-0.464,0.035
						c-0.058,0.006-0.099,0.029-0.141,0.051c-0.019-0.003-0.035,0.003-0.051,0c-0.086,0.01-0.154,0.042-0.211,0.08
						c0-0.003,0.003-0.01,0.003-0.016c-3.225,0.646-5.832,3.02-7.08,6.318c-1.001,2.655-1.708,5.758-1.436,8.679
						c0.016-0.016,0.035-0.032,0.051-0.045c-0.013,0.054-0.019,0.115,0.003,0.179c0.003,0.013,0.003,0.022,0.006,0.035
						c-0.006,0.054-0.006,0.109,0.01,0.17c0.01,0.048,0.022,0.093,0.035,0.138c-0.003,0.035-0.01,0.067,0,0.106
						c0.016,0.083,0.022,0.17,0.019,0.253c0.003,0.035,0.026,0.058,0.035,0.086c-0.01,0.01-0.022,0.019-0.032,0.029
						c0.16,0.941,0.429,1.852,0.841,2.716c2.153,4.514,6.014,8.004,8.41,12.259l-0.477,0.269c-0.074-0.118-0.15-0.237-0.227-0.349
						c-0.045-0.022-0.09-0.054-0.125-0.099c-0.022-0.029-0.042-0.058-0.064-0.083c-0.006-0.01-0.013-0.016-0.016-0.022
						c-0.077-0.102-0.147-0.202-0.211-0.301c-0.048-0.074-0.096-0.147-0.15-0.218c0,0.08-0.003,0.16-0.003,0.24
						c-2.943-4.667-7.492-8.647-8.676-13.868c-0.752,0.569-1.532,1.104-2.345,1.59c-2.607,1.571-5.454,2.71-8.545,2.614
						c-3.17-0.099-6.449-1.062-9.492-1.9c-5.295-1.459-10.004-4.076-13.903-7.895c-0.003-0.006-0.003-0.01-0.003-0.013
						c-0.003-0.003-0.006-0.006-0.01-0.013c0-0.003,0-0.003-0.003-0.006c0-0.003-0.003-0.006-0.003-0.01
						c-0.006-0.01-0.006-0.019-0.016-0.029c-0.01-0.013-0.019-0.026-0.029-0.042c0,0-0.003,0-0.003-0.003
						c-0.006-0.019-0.016-0.038-0.022-0.057c-0.006-0.026-0.013-0.048-0.016-0.074c-0.035-0.246,0.15-0.422,0.39-0.499
						c0.093,0.003,0.186,0.006,0.275,0.013c4.789,1.724,9.946-0.742,13.404-4.22c2.025-2.041,3.663-4.392,5.285-6.756
						c-0.186-0.01-0.371-0.019-0.557-0.042c-0.026,0-0.042-0.013-0.064-0.019c-0.022-0.003-0.042,0.003-0.064,0
						c-3.545-0.736-5.992-3.589-7.697-6.613c-0.022-0.035-0.026-0.067-0.035-0.102c-0.019-0.029-0.042-0.054-0.054-0.09
						c-0.096-0.262-0.096-0.512-0.013-0.777c0.006-0.016,0.016-0.029,0.026-0.045c0.038-0.211,0.211-0.381,0.464-0.275
						c6.321,2.63,10.25-4.687,13.868-8.417c1.673-1.728,3.647-3.138,6.05-3.599c1.926-0.365,3.893-0.163,5.819,0.16
						c0.355-0.064,0.688-0.154,1.024-0.272c0.857-0.454,1.427-1.244,2.326-1.667c0.819-0.384,1.798-0.595,2.684-0.758
						c2.028-0.371,3.762,0.342,5.643,0.989c0.01-0.003,0.019-0.01,0.029-0.013c0.006,0,0.006,0,0.013,0
						c2.895-2.383,5.922-1.046,9.121,0.086c0.016,0.006,0.022,0.016,0.035,0.022c2.767-2.297,6.805-2.329,10.096-0.755
						c2.524,1.206,4.536,3.141,6.427,5.16c1.305,1.395,2.588,2.796,4.424,3.497c1.584,0.605,3.301,0.729,4.978,0.857
						C84.422,10.943,84.544,11.077,84.589,11.234z M43.877,23.576c0.224-3.094-0.307-6.273-1.792-9.361
						c-3.807-3.359-9.466-2.486-13.388,0.246c-4.056,2.828-6.648,7.195-9.444,11.158c-3.849,5.458-10.125,11.75-17.15,10.151
						c3.391,3.004,7.352,5.176,11.76,6.456c2.764,0.803,5.656,1.571,8.516,1.929c3.254,0.406,6.174-0.419,9.002-2.025
						c1.107-0.63,2.163-1.347,3.167-2.131c-0.141-0.953-0.17-1.948-0.051-3.001c0.406-3.609,1.235-7.665,3.759-10.439
						C39.756,24.907,41.752,23.921,43.877,23.576z"/>
				</g>
				<g>
					<path d="M83.555,28.279c0.509,0.122,0.291,0.902-0.214,0.784c-4.767-1.116-9.025-3.314-12.777-6.443
						c-4.229-3.525-9.665-8.836-15.615-5.762c-0.464,0.24-0.873-0.461-0.409-0.701c4.517-2.335,9.309-0.086,12.96,2.812
						c2.46,1.955,4.696,4.162,7.393,5.81C77.579,26.42,80.494,27.562,83.555,28.279z"/>
				</g>
				<g>
					<path class="st0" d="M77.768,10.271c1.721,0.985,3.727,1.241,5.682,1.404c-1.328,1.539-3.577,2.284-5.512,1.564
						c-0.01-0.003-0.019-0.006-0.029-0.01c-1.302-1.299-2.726-2.473-4.312-3.433c-1.459-0.883-3.033-1.545-4.661-1.99
						c-0.816-0.675-1.363-1.558-2.249-2.169c-0.832-0.569-1.808-1.036-2.79-1.267c-1.852-0.435-3.679-0.064-5.317,0.867
						c-0.451,0.259-0.045,0.96,0.409,0.701c1.75-0.995,3.647-1.232,5.554-0.493c1.219,0.474,1.967,1.212,2.78,1.996
						c-2.102-0.377-4.271-0.403-6.398-0.051c-1.6,0.262-3.266,0.745-4.792,1.481c-0.038-0.016-0.077-0.029-0.122-0.032
						c-0.947-0.058-1.804-0.301-2.23-1.174c0.214-0.371,0.451-0.688,0.707-0.953c0.48-0.496,1.024-0.79,1.654-0.893
						c0.17-0.029,0.342-0.042,0.525-0.042c0.224,0,0.403-0.182,0.403-0.406c0-0.173-0.106-0.32-0.259-0.374
						c0.214-0.31,0.454-0.608,0.707-0.893c0.051-0.029,0.102-0.067,0.144-0.125c3.964-5.458,11.152-2.188,14.981,1.507
						C74.316,7.104,75.724,9.093,77.768,10.271z"/>
				</g>
				<g>
					<path d="M77.909,13.23c0.349,0.349,0.691,0.71,1.024,1.075c-0.41-0.045-0.816-0.138-1.209-0.285
						c-0.074-0.026-0.128-0.067-0.173-0.115C77.311,13.636,77.512,13.108,77.909,13.23z"/>
				</g>
				<g>
					<path d="M77.909,13.23c-0.397-0.122-0.598,0.406-0.358,0.675l-0.058,0.054c-0.029-0.032-0.058-0.061-0.09-0.093
						c-3.49-3.503-7.94-5.8-12.947-5.918c-4.248-0.099-9.658,1.302-12.083,5.096H52.37l-0.144-0.093
						c0.07-0.47,0.147-0.921,0.234-1.35c0.71-0.829,1.574-1.523,2.524-2.102c-0.649-0.17-1.209-0.483-1.619-1.008
						c0.128-0.297,0.266-0.576,0.416-0.825c0.425,0.873,1.283,1.116,2.23,1.174c0.045,0.003,0.083,0.016,0.122,0.032
						c1.526-0.736,3.193-1.219,4.792-1.481c2.127-0.352,4.296-0.326,6.398,0.051c-0.813-0.784-1.561-1.523-2.78-1.996
						c-1.907-0.739-3.804-0.502-5.554,0.493c-0.454,0.259-0.861-0.442-0.409-0.701c1.638-0.931,3.465-1.302,5.317-0.867
						c0.982,0.23,1.958,0.697,2.79,1.267c0.886,0.611,1.433,1.494,2.249,2.169c1.628,0.445,3.202,1.107,4.661,1.99
						C75.183,10.757,76.607,11.931,77.909,13.23z"/>
				</g>
				<g>
					<path class="st3" d="M52.457,64.397c16.792,0.518,30.446,4.485,34.01,9.668c-3.817,5.567-19.275,9.732-37.762,9.732
						c-18.481,0-33.936-4.162-37.756-9.729c3.439-5.01,16.306-8.884,32.321-9.607c-0.013,1.667-0.019,3.359-0.019,5.077
						c0,0.051,0.01,0.099,0.029,0.144c0.042,0.569,0.346,1.091,0.848,1.52c-0.045-0.022-0.096-0.038-0.154-0.042
						c-0.541-0.042-1.085,0.016-1.596,0.202c-0.553,0.202-0.973,0.63-1.51,0.841c-0.48,0.192-0.272,0.976,0.214,0.784
						c0.464-0.182,0.819-0.512,1.26-0.733c0.515-0.256,1.065-0.326,1.632-0.285c0.387,0.032,0.483-0.406,0.298-0.649
						c0.835,0.643,2.127,1.049,3.605,1.049c2.582,0,4.607-1.241,4.607-2.822C52.482,67.807,52.473,66.089,52.457,64.397z
						 M58.049,70.753c0-0.224-0.182-0.403-0.406-0.403s-0.406,0.179-0.406,0.403c0,2.876-4.197,5.214-9.361,5.214
						c-5.16,0-9.361-2.339-9.361-5.214c0-0.224-0.182-0.403-0.406-0.403s-0.406,0.179-0.406,0.403c0,3.324,4.565,6.024,10.173,6.024
						C53.487,76.777,58.049,74.077,58.049,70.753z M55.473,72.353c0.416,0.314,0.819-0.39,0.409-0.701
						c-0.56-0.422-1.155-0.848-1.795-1.139c-0.547-0.25-1.081-0.205-1.657-0.096c-0.515,0.093-0.298,0.877,0.214,0.781
						C53.759,70.993,54.622,71.71,55.473,72.353z M55.317,67.365c0.493,0.173,0.707-0.611,0.214-0.781
						c-0.742-0.259-1.616-0.742-2.419-0.563c-0.509,0.115-0.294,0.899,0.218,0.784c0.333-0.077,0.713,0.122,1.021,0.227
						C54.674,67.145,54.993,67.254,55.317,67.365z M49.059,73.94c0.064-0.323,0.093-0.64,0.08-0.969
						c-0.019-0.521-0.832-0.525-0.809,0c0.01,0.256-0.003,0.502-0.051,0.755C48.176,74.234,48.96,74.452,49.059,73.94z
						 M41.663,67.231c0.515-0.083,0.298-0.864-0.214-0.784c-0.931,0.147-1.766,0.557-2.473,1.177
						c-0.393,0.342,0.182,0.915,0.573,0.573C40.156,67.666,40.869,67.356,41.663,67.231z"/>
				</g>
				<g>
					<path d="M57.642,70.35c0.224,0,0.406,0.179,0.406,0.403c0,3.324-4.562,6.024-10.173,6.024c-5.608,0-10.173-2.7-10.173-6.024
						c0-0.224,0.182-0.403,0.406-0.403s0.406,0.179,0.406,0.403c0,2.876,4.2,5.214,9.361,5.214c5.163,0,9.361-2.339,9.361-5.214
						C57.236,70.529,57.418,70.35,57.642,70.35z"/>
				</g>
				<g>
					<path class="st0" d="M57.642,2.782c-0.112,0.118-0.224,0.23-0.33,0.355c-0.026,0.016-0.051,0.029-0.074,0.051
						c-0.553,0.569-1.033,1.196-1.443,1.875c-0.713,0.16-1.347,0.521-1.891,1.084c-0.441,0.451-0.822,1.03-1.152,1.728
						c-0.518,1.094-0.912,2.489-1.209,4.168c-1.926,2.134-5.848,2.671-8.03,0.72c-0.314-1.443-0.707-2.652-1.196-3.621
						c-0.003-0.01-0.003-0.019-0.006-0.029c-0.096-0.371-0.173-0.736-0.323-1.084c0.003-0.061-0.006-0.125-0.035-0.192
						c-0.397-0.889-0.781-1.971-1.452-2.694c-0.323-0.345-0.723-0.585-1.142-0.787c-0.019-0.003-0.035,0.003-0.054-0.006
						c-0.022-0.006-0.048-0.016-0.07-0.026c-0.058-0.022-0.102-0.054-0.144-0.09c-0.051-0.026-0.106-0.038-0.16-0.057
						c0.022-0.019,0.048-0.032,0.067-0.051c0.358-0.218,0.64-0.473,0.982-0.765c0.893-0.758,1.878-1.097,3.01-1.347
						c1.878-0.413,3.397,0.003,5.058,0.56c-1.145,0.723-1.961,1.897-2.169,3.276c-0.077,0.512,0.704,0.733,0.784,0.218
						c0.211-1.42,1.126-2.604,2.454-3.135c0.026,0.01,0.051,0.019,0.077,0.029c0.262,0.086,0.441-0.093,0.483-0.301
						C52.194,0.584,54.942,1.796,57.642,2.782z M47.29,8.319c0.515-0.096,0.298-0.88-0.214-0.784
						c-0.835,0.157-1.935,0.214-2.716-0.23c-0.106-0.24-0.416-0.387-0.643-0.138c-0.019,0.022-0.042,0.045-0.061,0.067
						c-0.192,0.214-0.131,0.477,0.08,0.637C44.692,8.598,46.18,8.527,47.29,8.319z"/>
				</g>
				<g>
					<path d="M56.811,4.999c0.154,0.054,0.259,0.202,0.259,0.374c0,0.224-0.179,0.406-0.403,0.406c-0.182,0-0.355,0.013-0.525,0.042
						l-0.003-0.022c0.106-0.013,0.208-0.07,0.278-0.192C56.539,5.399,56.67,5.194,56.811,4.999z"/>
				</g>
				<g>
					<path d="M56.667,4.97c0.051,0,0.099,0.01,0.144,0.029c-0.141,0.195-0.272,0.4-0.393,0.608c-0.07,0.122-0.173,0.179-0.278,0.192
						c-0.291,0.035-0.614-0.272-0.422-0.601c0.026-0.045,0.054-0.09,0.08-0.134C56.075,5.002,56.366,4.97,56.667,4.97z"/>
				</g>
				<g>
					<path d="M56.139,5.798l0.003,0.022c-0.63,0.102-1.174,0.397-1.654,0.893c-0.256,0.266-0.493,0.582-0.707,0.953
						c-0.029-0.064-0.061-0.131-0.086-0.205c-0.042-0.112-0.118-0.186-0.205-0.227c-0.042,0.057-0.08,0.118-0.122,0.176
						c-0.022,0.035-0.045,0.067-0.067,0.099c0,0.003-0.003,0.003-0.003,0.003c-0.035,0.051-0.07,0.102-0.106,0.154
						c-0.003,0.006-0.01,0.01-0.016,0.016c-0.051,0.08-0.102,0.16-0.157,0.24l-0.266-0.048c0.33-0.697,0.71-1.276,1.152-1.728
						c0.544-0.563,1.177-0.925,1.891-1.084c-0.026,0.045-0.054,0.09-0.08,0.134C55.525,5.526,55.848,5.834,56.139,5.798z"/>
				</g>
				<g>
					<path d="M55.883,71.652c0.409,0.31,0.006,1.014-0.409,0.701c-0.851-0.643-1.715-1.36-2.828-1.155
						c-0.512,0.096-0.729-0.688-0.214-0.781c0.576-0.109,1.11-0.154,1.657,0.096C54.728,70.805,55.323,71.23,55.883,71.652z"/>
				</g>
				<g>
					<path class="st0" d="M55.78,29.181c1.744,3.212,1.196,7.06-0.144,10.308c-1.142,2.764-2.943,5.198-4.536,7.71
						c-1.718,2.706-3.199,5.499-3.359,8.881c-0.25,1.756-0.464,3.542-0.979,5.234c-0.026-0.029-0.048-0.054-0.08-0.073
						c-0.256-2.195-1.008-4.12-2.019-5.909c-2.396-4.255-6.257-7.745-8.41-12.259c-0.413-0.864-0.681-1.776-0.841-2.716
						c0.01-0.01,0.022-0.019,0.032-0.029c-0.01-0.029-0.032-0.051-0.035-0.086c0.003-0.083-0.003-0.17-0.019-0.253
						c-0.01-0.038-0.003-0.07,0-0.106c-0.013-0.045-0.026-0.09-0.035-0.138c-0.016-0.061-0.016-0.115-0.01-0.17
						c-0.003-0.013-0.003-0.022-0.006-0.035c-0.022-0.064-0.016-0.125-0.003-0.179c-0.016,0.013-0.035,0.029-0.051,0.045
						c-0.272-2.921,0.435-6.024,1.436-8.679c1.248-3.298,3.855-5.672,7.08-6.318c0,0.006-0.003,0.013-0.003,0.016
						c0.058-0.038,0.125-0.07,0.211-0.08c0.016,0.003,0.032-0.003,0.051,0c0.042-0.022,0.083-0.045,0.141-0.051
						c0.154-0.019,0.307-0.035,0.464-0.035c0.038,0,0.067,0.01,0.099,0.016c0.803-0.07,1.638-0.045,2.495,0.106
						c0.109,0.019,0.205,0,0.282-0.048C50.915,24.385,54.142,26.17,55.78,29.181z M47.485,25.969
						c0.278-0.445-0.422-0.851-0.701-0.409c-3.372,5.32-4.632,11.555-3.641,17.771c0.083,0.515,0.864,0.297,0.781-0.214
						C42.971,37.118,44.238,31.094,47.485,25.969z"/>
				</g>
				<g>
					<path d="M55.531,66.585c0.493,0.17,0.278,0.953-0.214,0.781c-0.323-0.112-0.643-0.221-0.966-0.333
						c-0.307-0.106-0.688-0.304-1.021-0.227c-0.512,0.115-0.726-0.669-0.218-0.784C53.915,65.843,54.789,66.326,55.531,66.585z"/>
				</g>
				<g>
					<path d="M53.695,7.462c0.026,0.074,0.058,0.141,0.086,0.205c-0.15,0.25-0.288,0.528-0.416,0.825
						c-0.131-0.166-0.246-0.355-0.346-0.569c0.054-0.08,0.106-0.16,0.157-0.24c0.006-0.006,0.013-0.01,0.016-0.016
						c0.035-0.051,0.07-0.102,0.106-0.154c0,0,0.003,0,0.003-0.003c0.022-0.032,0.045-0.064,0.067-0.099
						c0.042-0.058,0.08-0.118,0.122-0.176C53.576,7.276,53.653,7.35,53.695,7.462z"/>
				</g>
				<g>
					<path d="M53.365,8.492c-0.371,0.851-0.669,1.894-0.905,3.11c-0.083,0.093-0.163,0.189-0.24,0.285
						c-0.144-0.147-0.371-0.195-0.541,0.006c-0.042,0.051-0.086,0.102-0.134,0.15c0.298-1.68,0.691-3.074,1.209-4.168l0.266,0.048
						C53.119,8.137,53.234,8.326,53.365,8.492z"/>
				</g>
				<g>
					<path d="M52.457,64.397c0.016,1.692,0.026,3.41,0.026,5.151c0-0.224-0.182-0.406-0.406-0.406s-0.406,0.182-0.406,0.406
						c0-7.627-0.163-14.815-0.349-21.425c0.253-0.422,0.512-0.841,0.774-1.257c0.112,3.855,0.221,7.915,0.291,12.153
						C52.418,60.782,52.441,62.576,52.457,64.397z"/>
				</g>
				<g>
					<path d="M52.22,11.886c0.077-0.096,0.157-0.192,0.24-0.285c-0.086,0.429-0.163,0.88-0.234,1.35
						c-0.01,0.013-0.019,0.019-0.029,0.032c-0.058,0.109-0.128,0.208-0.192,0.31c-0.07,0.029-0.138,0.07-0.186,0.141
						c-0.045,0.058-0.083,0.118-0.125,0.176c-0.051,0.032-0.096,0.073-0.134,0.134c-0.035,0.054-0.07,0.106-0.106,0.16
						c-0.042,0.032-0.083,0.077-0.118,0.131c-0.042,0.067-0.07,0.112-0.099,0.16c0.029-0.262,0.061-0.518,0.096-0.771
						c0.064-0.48,0.134-0.941,0.211-1.382c0.048-0.048,0.093-0.099,0.134-0.15C51.849,11.691,52.076,11.739,52.22,11.886z"/>
				</g>
				<g>
					<path d="M52.226,12.952l0.144,0.093c-0.211,0.329-0.403,0.681-0.566,1.049c0,0.003,0,0.003,0,0.003
						c-0.013,0.029-0.029,0.061-0.038,0.09c0.003,0.006,0.003,0.016,0.006,0.026c-0.01,0.029-0.019,0.057-0.029,0.089
						c-0.003,0.013,0,0.022-0.003,0.038c-0.08,0.269-0.147,0.537-0.17,0.806c-0.016,0.099-0.051,0.195-0.083,0.291
						c-0.493,1.942-0.361,3.765,0.224,5.448l-0.067,0.022c-0.605-0.918-0.697-2.236-0.665-3.404c-0.01-0.022-0.01-0.048-0.013-0.074
						c-0.061,1.03-0.106,2.121-0.134,3.273c-0.502-1.622-0.611-3.359-0.189-5.195c-0.003-0.051,0.006-0.109,0.032-0.17
						c0.006-0.019,0.01-0.038,0.016-0.058c0.026-0.093,0.048-0.182,0.074-0.275c0.026-0.141,0.042-0.281,0.058-0.426
						c0.067-0.208,0.131-0.419,0.211-0.614c0.058-0.141,0.118-0.278,0.16-0.422c0.006-0.022,0.01-0.048,0.013-0.073
						c0.006-0.003,0.01-0.01,0.016-0.016c0.006-0.016,0.016-0.029,0.022-0.042l0.09,0.013c-0.035,0.253-0.067,0.509-0.096,0.771
						c0.029-0.048,0.058-0.093,0.099-0.16c0.035-0.054,0.077-0.099,0.118-0.131c0.035-0.054,0.07-0.106,0.106-0.16
						c0.038-0.061,0.083-0.102,0.134-0.134c0.042-0.058,0.08-0.118,0.125-0.176c0.048-0.07,0.115-0.112,0.186-0.141
						c0.064-0.102,0.134-0.202,0.192-0.31C52.207,12.971,52.217,12.964,52.226,12.952z"/>
				</g>
				<g>
					<path d="M52.076,69.141c0.224,0,0.406,0.182,0.406,0.406S52.3,69.95,52.076,69.95s-0.406-0.179-0.406-0.403
						S51.852,69.141,52.076,69.141z"/>
				</g>
				<g>
					<path d="M52.076,69.95c0.224,0,0.406-0.179,0.406-0.403c0,1.58-2.025,2.822-4.607,2.822c-1.478,0-2.77-0.406-3.605-1.049
						c-0.035-0.051-0.083-0.093-0.144-0.118c-0.502-0.429-0.806-0.95-0.848-1.52c0.058,0.154,0.205,0.259,0.378,0.259
						c0.224,0,0.406-0.179,0.406-0.403c0-0.035,0-0.07,0-0.106c0.013,0.035,0.019,0.074,0.019,0.115
						c0,1.088,1.737,2.009,3.794,2.009s3.794-0.921,3.794-2.009C51.67,69.771,51.852,69.95,52.076,69.95z"/>
				</g>
				<g>
					<path d="M52.079,46.286c0.006,0.192,0.013,0.387,0.016,0.579c-0.262,0.416-0.521,0.835-0.774,1.257
						c-0.006-0.269-0.016-0.534-0.022-0.8c0.006-0.006,0.013-0.01,0.019-0.016c0.198-0.205,0.349-0.429,0.451-0.672
						C51.89,46.536,51.993,46.418,52.079,46.286z"/>
				</g>
				<g>
					<path d="M51.644,20.908c-0.016,0.547-0.026,1.11-0.032,1.686c-0.317-0.611-0.582-1.241-0.781-1.891
						c0.029-1.152,0.074-2.243,0.134-3.273c0.003,0.026,0.003,0.051,0.013,0.074C50.947,18.672,51.039,19.99,51.644,20.908z"/>
				</g>
				<g>
					<path d="M51.612,22.594c-0.006,0.592-0.01,1.2-0.013,1.817c-0.266-0.125-0.537-0.23-0.816-0.323
						c0.006-1.177,0.019-2.307,0.048-3.385C51.03,21.353,51.295,21.983,51.612,22.594z"/>
				</g>
				<g>
					<path d="M51.599,24.411c0,0.112,0,0.221,0,0.333c-0.109-0.054-0.221-0.102-0.339-0.141c-0.058-0.022-0.115-0.048-0.173-0.074
						c-0.112-0.042-0.208-0.032-0.288,0.013c-0.006-0.003-0.013-0.003-0.016-0.006c0-0.15,0-0.301,0-0.448
						C51.062,24.181,51.334,24.286,51.599,24.411z"/>
				</g>
				<g>
					<path class="st4" d="M51.321,48.123c0.186,6.609,0.349,13.798,0.349,21.425c0,1.088-1.737,2.009-3.794,2.009
						s-3.794-0.921-3.794-2.009c0-0.042-0.006-0.08-0.019-0.115c0-4.626,0.048-9.085,0.118-13.324
						c0.95,1.766,1.622,3.647,1.772,5.739c0.003,0.035,0.022,0.061,0.032,0.09c-0.013,0.08-0.006,0.17,0.051,0.262
						c0.07,0.106,0.118,0.198,0.16,0.32c0.067,0.192,0.227,0.275,0.387,0.275c0.23,0.102,0.515-0.029,0.579-0.25
						c0.038-0.038,0.074-0.086,0.096-0.147c0.733-1.913,0.969-3.983,1.251-6.011c0-0.006,0-0.016,0-0.022
						c0.022-0.045,0.035-0.102,0.038-0.163C48.659,53.2,49.84,50.608,51.321,48.123z"/>
				</g>
				<g>
					<path d="M51.545,12.043c-0.077,0.442-0.147,0.902-0.211,1.382l-0.09-0.013c-2.105,1.561-5.279,1.875-7.499,0.528
						c-0.07-0.41-0.147-0.803-0.23-1.177C45.697,14.714,49.619,14.177,51.545,12.043z"/>
				</g>
				<g>
					<path d="M51.298,47.323c0.006,0.266,0.016,0.531,0.022,0.8c-1.481,2.486-2.662,5.077-2.774,8.078
						c-0.003,0.061-0.016,0.118-0.038,0.163c-0.022-0.413-0.003-0.822,0.074-1.216c-0.176-0.278-0.656-0.323-0.717,0.077
						c-0.042,0.285-0.083,0.569-0.125,0.854c0.16-3.381,1.641-6.174,3.359-8.881L51.298,47.323z"/>
				</g>
				<g>
					<path class="st4" d="M51.244,13.412c-0.006,0.013-0.016,0.026-0.022,0.042c-0.006,0.006-0.01,0.013-0.016,0.016
						c-0.003,0.026-0.006,0.051-0.013,0.073c-0.042,0.144-0.102,0.282-0.16,0.422c-0.08,0.195-0.144,0.406-0.211,0.614
						c-0.016,0.144-0.032,0.285-0.058,0.426c-0.026,0.093-0.048,0.182-0.074,0.275c-0.006,0.019-0.01,0.038-0.016,0.058
						c-0.026,0.061-0.035,0.118-0.032,0.17c-0.422,1.836-0.314,3.573,0.189,5.195c-0.029,1.078-0.042,2.207-0.048,3.385
						c-1.059-0.371-2.204-0.569-3.413-0.569c-0.067,0-0.125,0.013-0.176,0.035c-0.841-0.125-1.686-0.141-2.521-0.07
						c0.115-1.798-0.013-3.621-0.419-5.438c0-0.003,0-0.006,0-0.01c-0.128-1.5-0.294-2.87-0.509-4.095
						C45.966,15.287,49.139,14.973,51.244,13.412z"/>
				</g>
				<g>
					<path d="M49.139,72.97c0.013,0.33-0.016,0.646-0.08,0.969c-0.099,0.512-0.883,0.294-0.781-0.214
						c0.048-0.253,0.061-0.499,0.051-0.755C48.307,72.446,49.12,72.449,49.139,72.97z"/>
				</g>
				<g>
					<path d="M48.509,56.364c0,0.006,0,0.016,0,0.022c-0.282,2.028-0.518,4.098-1.251,6.011c-0.022,0.061-0.058,0.109-0.096,0.147
						c-0.064,0.221-0.349,0.352-0.579,0.25c-0.16,0-0.32-0.083-0.387-0.275c-0.042-0.121-0.09-0.214-0.16-0.32
						c-0.058-0.093-0.064-0.182-0.051-0.262c-0.01-0.029-0.029-0.054-0.032-0.09c-0.15-2.092-0.822-3.973-1.772-5.739
						c0-0.17,0.003-0.339,0.006-0.509l0.477-0.269c1.011,1.788,1.763,3.714,2.019,5.909c0.032,0.019,0.054,0.045,0.08,0.073
						c0.515-1.692,0.729-3.477,0.979-5.234c-0.003,0.042-0.006,0.08-0.006,0.122C47.719,56.658,48.346,56.716,48.509,56.364z"/>
				</g>
				<g>
					<path d="M48.582,55.148c-0.077,0.393-0.096,0.803-0.074,1.216c-0.163,0.352-0.79,0.294-0.774-0.163
						c0-0.042,0.003-0.08,0.006-0.122c0.042-0.285,0.083-0.569,0.125-0.854C47.927,54.825,48.406,54.87,48.582,55.148z"/>
				</g>
				<g>
					<path d="M47.476,23.598c0.403,0.07,0.355,0.569,0.064,0.733c-0.058-0.003-0.112-0.003-0.17-0.003
						c-0.457,0-0.515-0.614-0.176-0.774C47.287,23.566,47.383,23.582,47.476,23.598z"/>
				</g>
				<g>
					<path d="M46.785,25.559c0.278-0.442,0.979-0.035,0.701,0.409c-3.247,5.125-4.514,11.149-3.561,17.147
						c0.083,0.512-0.697,0.729-0.781,0.214C42.152,37.115,43.413,30.879,46.785,25.559z"/>
				</g>
				<g>
					<path d="M47.076,7.535c0.512-0.096,0.729,0.688,0.214,0.784c-1.11,0.208-2.598,0.278-3.554-0.448
						c-0.211-0.16-0.272-0.422-0.08-0.637c0.019-0.022,0.042-0.045,0.061-0.067c0.227-0.25,0.537-0.102,0.643,0.138
						C45.14,7.75,46.241,7.692,47.076,7.535z"/>
				</g>
				<g>
					<path d="M44.561,24.005c-0.064-0.022-0.134-0.032-0.211-0.019c-0.221,0.045-0.416,0.144-0.605,0.259
						c0-0.064,0-0.138-0.003-0.202c0.192-0.23,0.278-0.563,0.307-0.864c0.125-0.454,0.144-0.976,0.186-1.379
						c0.125-1.238-0.275-2.335-0.557-3.493c0.006-0.029,0.019-0.054,0.019-0.09c0.016-0.499-0.326-0.889-0.336-1.369
						c0-0.089-0.032-0.16-0.074-0.218c-0.109-1.001-0.24-1.932-0.397-2.79c0.134,0.128,0.147,0.281,0.093,0.409
						c0.566,1.251,0.985,2.518,1.27,3.785c0,0.003,0,0.006,0,0.01C44.408,19.842,44.507,21.832,44.561,24.005z"/>
				</g>
				<g>
					<path d="M44.27,71.32c0.186,0.243,0.09,0.682-0.298,0.649c-0.566-0.042-1.116,0.029-1.632,0.285
						c-0.441,0.221-0.797,0.55-1.26,0.733c-0.486,0.192-0.694-0.592-0.214-0.784c0.537-0.211,0.957-0.64,1.51-0.841
						c0.512-0.186,1.056-0.243,1.596-0.202c0.058,0.003,0.109,0.019,0.154,0.042C44.171,71.243,44.219,71.281,44.27,71.32z"/>
				</g>
				<g>
					<path d="M44.187,55.599c-0.003,0.17-0.006,0.339-0.006,0.509c-0.246-0.454-0.512-0.902-0.79-1.34c0-0.08,0.003-0.16,0.003-0.24
						c0.054,0.07,0.102,0.144,0.15,0.218c0.064,0.099,0.134,0.198,0.211,0.301c0.003,0.006,0.01,0.013,0.016,0.022
						c0.022,0.026,0.042,0.054,0.064,0.083c0.035,0.045,0.08,0.077,0.125,0.099C44.036,55.362,44.113,55.481,44.187,55.599z"/>
				</g>
				<g>
					<path d="M44.27,71.32c-0.051-0.038-0.099-0.077-0.144-0.118C44.187,71.227,44.235,71.268,44.27,71.32z"/>
				</g>
				<g>
					<path d="M43.269,64.461c0.013-1.823,0.032-3.615,0.054-5.375c0.022-1.465,0.045-2.905,0.067-4.319
						c0.278,0.438,0.544,0.886,0.79,1.34c-0.07,4.239-0.118,8.698-0.118,13.324c-0.048-0.17-0.205-0.291-0.387-0.291
						c-0.224,0-0.403,0.182-0.403,0.406c0,0.045,0.003,0.089,0.006,0.134c-0.019-0.045-0.029-0.093-0.029-0.144
						C43.249,67.82,43.256,66.127,43.269,64.461z"/>
				</g>
				<g>
					<path d="M44.062,69.432c0,0.035,0,0.07,0,0.106c0,0.224-0.182,0.403-0.406,0.403c-0.173,0-0.32-0.106-0.378-0.259
						c-0.003-0.045-0.006-0.089-0.006-0.134c0-0.224,0.179-0.406,0.403-0.406C43.857,69.141,44.014,69.263,44.062,69.432z"/>
				</g>
				<g>
					<path class="st0" d="M42.085,14.215c1.484,3.087,2.015,6.267,1.792,9.361c-2.124,0.345-4.12,1.331-5.621,2.985
						c-2.524,2.774-3.353,6.83-3.759,10.439c-0.118,1.052-0.09,2.047,0.051,3.001c-1.005,0.784-2.06,1.5-3.167,2.131
						c-2.828,1.606-5.749,2.431-9.002,2.025c-2.86-0.358-5.752-1.126-8.516-1.929c-4.408-1.28-8.369-3.452-11.76-6.456
						c7.025,1.6,13.302-4.693,17.15-10.151c2.796-3.964,5.387-8.33,9.444-11.158C32.619,11.73,38.278,10.856,42.085,14.215z
						 M40.722,18.201c0.509-0.118,0.294-0.902-0.214-0.781c-5.429,1.276-7.934,6.382-10.698,10.698
						c-3.445,5.371-8.705,10.823-15.701,9.658c-0.512-0.086-0.733,0.694-0.218,0.781c5.544,0.925,10.458-2.102,13.894-6.245
						C31.758,27.524,34.01,19.782,40.722,18.201z"/>
				</g>
				<g>
					<path d="M43.745,13.94c0.214,1.225,0.381,2.594,0.509,4.095c-0.285-1.267-0.704-2.534-1.27-3.785
						c0.054-0.128,0.042-0.281-0.093-0.409c-0.042-0.23-0.083-0.458-0.131-0.678C43.058,13.467,43.39,13.726,43.745,13.94z"/>
				</g>
				<g>
					<path d="M43.515,12.763c0.083,0.374,0.16,0.768,0.23,1.177c-0.355-0.214-0.688-0.474-0.985-0.777
						c-0.038-0.192-0.08-0.381-0.122-0.566c0.125-0.202,0.409-0.307,0.617-0.083C43.339,12.603,43.425,12.686,43.515,12.763z"/>
				</g>
				<g>
					<path d="M43.515,12.763c-0.09-0.077-0.176-0.16-0.259-0.25c-0.208-0.224-0.493-0.118-0.617,0.083
						c-0.109-0.467-0.224-0.902-0.352-1.312c0.157-0.288,0.272-0.601,0.342-0.931c0.106-0.493-0.63-0.713-0.771-0.259
						c-0.099-0.243-0.208-0.474-0.32-0.688L41.551,9.4c0.176,0.403,0.854,0.205,0.768-0.259
						C42.808,10.111,43.201,11.32,43.515,12.763z"/>
				</g>
				<g>
					<path class="st1" d="M43.323,59.086c-0.022,1.76-0.042,3.551-0.054,5.375c-16.015,0.723-28.882,4.597-32.321,9.607
						c-0.598-0.864-0.912-1.766-0.912-2.687C10.036,65.11,24.515,59.924,43.323,59.086z"/>
				</g>
				<g>
					<path d="M42.76,13.163c-0.026-0.026-0.051-0.051-0.077-0.077c-0.15-0.157-0.138-0.349-0.045-0.49
						C42.68,12.782,42.722,12.971,42.76,13.163z"/>
				</g>
				<g>
					<path d="M41.858,10.095c0.141-0.454,0.877-0.234,0.771,0.259c-0.07,0.329-0.186,0.643-0.342,0.931
						C42.155,10.856,42.015,10.46,41.858,10.095z"/>
				</g>
				<g>
					<path d="M42.319,9.141c0.086,0.464-0.592,0.662-0.768,0.259c-0.006-0.022-0.016-0.045-0.022-0.07
						c-0.093-0.365-0.15-0.752-0.326-1.084c-0.038-0.074-0.048-0.147-0.042-0.214c-0.134-0.301-0.269-0.608-0.409-0.909
						c0.154,0.122,0.301,0.256,0.445,0.4C41.615,7.951,41.989,8.492,42.319,9.141z"/>
				</g>
				<g>
					<path class="st0" d="M41.858,10.095c-0.003,0.013-0.006,0.026-0.01,0.042c-0.186,0.87-0.707,1.568-1.491,1.983
						c-0.013,0.006-0.019,0.019-0.029,0.026c-2.195-1.005-4.712-1.165-7.144-0.611c-4.146,0.947-7.403,3.948-9.988,7.179
						c-1.049,1.308-2.009,2.687-2.962,4.073c-0.342,0.013-0.688,0.003-1.03-0.032c-3.301-0.685-5.544-3.324-7.147-6.13
						c4.242,1.36,8.052-1.708,10.675-4.831c1.788-2.131,3.426-4.498,5.794-6.046c2.953-1.935,6.325-1.606,9.623-1.017
						C38.894,5,39.675,5.3,40.129,5.988c0.234,0.355,0.435,0.742,0.621,1.136c-0.704-0.547-1.526-0.825-2.444-0.825
						c-0.224,0-0.403,0.182-0.403,0.406s0.179,0.403,0.403,0.403c0.905,0,1.66,0.323,2.31,0.982c0.342,0.352,0.646,0.79,0.921,1.318
						C41.65,9.621,41.759,9.852,41.858,10.095z M38.284,10.28c0.502,0.144,0.717-0.64,0.214-0.781
						c-6.357-1.823-12.905,0.797-16.2,6.529c-0.262,0.451,0.438,0.861,0.697,0.41C26.118,11.01,32.261,8.553,38.284,10.28z"/>
				</g>
				<g>
					<path d="M41.448,66.447c0.512-0.08,0.729,0.701,0.214,0.784c-0.793,0.125-1.507,0.435-2.115,0.966
						c-0.39,0.342-0.966-0.23-0.573-0.573C39.682,67.004,40.517,66.594,41.448,66.447z"/>
				</g>
				<g>
					<path d="M41.528,9.33c0.006,0.026,0.016,0.048,0.022,0.07l-0.013,0.006c-0.275-0.528-0.579-0.966-0.921-1.318
						c-0.649-0.659-1.404-0.982-2.31-0.982c-0.224,0-0.403-0.179-0.403-0.403s0.179-0.406,0.403-0.406
						c0.918,0,1.74,0.278,2.444,0.825c0.141,0.301,0.275,0.608,0.409,0.909c-0.006,0.067,0.003,0.141,0.042,0.214
						C41.378,8.578,41.436,8.966,41.528,9.33z"/>
				</g>
				<g>
					<path d="M40.508,17.421c0.509-0.121,0.723,0.662,0.214,0.781c-6.712,1.58-8.964,9.322-12.937,14.111
						c-3.436,4.143-8.35,7.169-13.894,6.245c-0.515-0.086-0.294-0.867,0.218-0.781c6.996,1.164,12.256-4.287,15.701-9.658
						C32.574,23.803,35.079,18.697,40.508,17.421z"/>
				</g>
				<g>
					<path d="M38.499,9.5c0.502,0.141,0.288,0.925-0.214,0.781c-6.024-1.728-12.166,0.729-15.289,6.158
						c-0.259,0.451-0.96,0.042-0.697-0.41C25.594,10.296,32.142,7.676,38.499,9.5z"/>
				</g>
			</g>
			<g>
				<g>
					<path d="M47.875,71.876c-2.268,0-4.114-1.045-4.114-2.329l0.602-0.224c0.025,0.07,0.038,0.145,0.038,0.224
						c0,0.797,1.486,1.689,3.474,1.689c1.989,0,3.474-0.892,3.474-1.689h0.64C51.99,70.831,50.144,71.876,47.875,71.876z"/>
				</g>
				<g>
					<path d="M43.918,71.445c-0.58-0.495-0.912-1.097-0.959-1.74l0.638-0.047c0.034,0.468,0.289,0.918,0.737,1.3L43.918,71.445z"/>
				</g>
				<g>
					<path d="M47.875,72.689c-1.495,0-2.88-0.406-3.801-1.116l0.391-0.507c0.811,0.625,2.053,0.983,3.41,0.983
						c2.364,0,4.287-1.122,4.287-2.502h0.64C52.802,71.309,50.638,72.689,47.875,72.689z"/>
				</g>
				<g>
					<path d="M54.058,7.826l-0.554-0.32c0.223-0.386,0.477-0.728,0.754-1.015c0.532-0.55,1.132-0.872,1.833-0.986
						c0.181-0.031,0.37-0.046,0.576-0.046c0.046,0,0.083-0.039,0.083-0.087c0-0.034-0.018-0.063-0.046-0.073l0.213-0.603
						c0.283,0.1,0.473,0.371,0.473,0.676c0,0.401-0.324,0.726-0.723,0.726c-0.17,0-0.324,0.012-0.471,0.037
						c-0.563,0.091-1.045,0.353-1.477,0.8C54.477,7.185,54.255,7.485,54.058,7.826z"/>
				</g>
				<g>
					<path d="M52.774,11.663l-0.628-0.122c0.249-1.28,0.552-2.319,0.926-3.176l0.587,0.255
						C53.308,9.422,53.011,10.446,52.774,11.663z"/>
				</g>
				<g>
					<path d="M51.86,12.099l-0.63-0.112c0.313-1.766,0.717-3.156,1.235-4.25c0.349-0.739,0.757-1.35,1.212-1.814
						c0.583-0.604,1.273-0.999,2.049-1.173l0.14,0.624c-0.652,0.146-1.234,0.481-1.731,0.995c-0.406,0.415-0.773,0.967-1.092,1.642
						C52.55,9.053,52.163,10.39,51.86,12.099z"/>
				</g>
				<g>
					<path d="M51.103,24.09l-0.64-0.004c0.007-1.365,0.023-2.443,0.048-3.391l0.64,0.017C51.126,21.655,51.111,22.729,51.103,24.09z
						"/>
				</g>
				<g>
					<path d="M51.919,24.413l-0.64-0.004l0.001-0.137c0.003-0.571,0.007-1.133,0.012-1.682l0.64,0.007
						c-0.006,0.548-0.009,1.109-0.012,1.678L51.919,24.413z"/>
				</g>
				<g>
					<path d="M52.076,70.27c-0.4,0-0.726-0.324-0.726-0.723c0-7.914-0.176-15.267-0.349-21.416l0.64-0.018
						c0.172,6.153,0.349,13.511,0.349,21.434c0,0.093,0.172,0.093,0.173,0c0-1.634-0.008-3.318-0.026-5.148
						c-0.017-1.952-0.04-3.71-0.071-5.375c-0.072-4.377-0.188-8.598-0.291-12.15l0.64-0.019c0.103,3.554,0.218,7.777,0.291,12.158
						c0.03,1.667,0.053,3.427,0.071,5.38c0.017,1.832,0.026,3.517,0.026,5.154C52.802,69.946,52.476,70.27,52.076,70.27z"/>
				</g>
				<g>
					<path d="M42.576,13.898c-0.041-0.227-0.082-0.45-0.129-0.667l0.625-0.136c0.049,0.224,0.092,0.455,0.134,0.689L42.576,13.898z"
						/>
				</g>
				<g>
					<path d="M42.327,12.669c-0.112-0.48-0.225-0.901-0.346-1.289l0.611-0.191c0.126,0.403,0.242,0.839,0.358,1.334L42.327,12.669z"
						/>
				</g>
				<g>
					<path d="M41.562,10.216c-0.089-0.219-0.193-0.442-0.307-0.661c-0.266-0.51-0.55-0.917-0.867-1.243
						c-0.586-0.595-1.267-0.885-2.08-0.885c-0.399,0-0.723-0.324-0.723-0.723c0-0.4,0.324-0.726,0.723-0.726
						c0.99,0,1.879,0.3,2.641,0.893l-0.392,0.505c-0.647-0.503-1.404-0.758-2.248-0.758c-0.047,0-0.083,0.038-0.083,0.086
						c0,0.047,0.036,0.083,0.083,0.083c0.993,0,1.823,0.352,2.537,1.078c0.363,0.373,0.683,0.829,0.978,1.395
						c0.124,0.237,0.236,0.477,0.332,0.715L41.562,10.216z"/>
				</g>
				<g>
					<path d="M43.202,12.831c-0.316-1.453-0.698-2.612-1.169-3.545l0.571-0.289c0.496,0.982,0.896,2.192,1.224,3.698L43.202,12.831z
						"/>
				</g>
				<g>
					<path d="M43.935,18.062c-0.132-1.547-0.297-2.878-0.505-4.067l0.63-0.11c0.211,1.208,0.379,2.556,0.512,4.123L43.935,18.062z"
						/>
				</g>
				<g>
					<path d="M43.656,70.261c-0.3,0-0.572-0.187-0.677-0.467c-0.031-0.072-0.049-0.162-0.049-0.256c0-1.719,0.006-3.412,0.019-5.079
						c0.013-1.824,0.032-3.616,0.055-5.376c0.022-1.466,0.045-2.906,0.067-4.32l0.64,0.01c-0.022,1.414-0.045,2.854-0.067,4.318
						c-0.022,1.758-0.042,3.549-0.055,5.372c-0.013,1.666-0.019,3.358-0.019,5.075l0.008,0.032c0.009,0.025,0.035,0.051,0.078,0.051
						c0.048,0,0.087-0.037,0.087-0.083v-0.106c0-4.163,0.039-8.524,0.118-13.33l0.64,0.011c-0.08,4.803-0.118,9.159-0.118,13.319
						v0.106C44.382,69.936,44.056,70.261,43.656,70.261z"/>
				</g>
				<g>
					<path d="M47.875,77.097c-5.786,0-10.493-2.846-10.493-6.344c0-0.399,0.326-0.723,0.726-0.723c0.401,0,0.726,0.324,0.726,0.723
						c0,2.699,4.056,4.895,9.041,4.895s9.041-2.196,9.041-4.895c0-0.399,0.326-0.723,0.726-0.723s0.726,0.324,0.726,0.723
						C58.368,74.251,53.661,77.097,47.875,77.097z M38.108,70.67c-0.048,0-0.086,0.036-0.086,0.083c0,3.145,4.42,5.704,9.853,5.704
						s9.853-2.559,9.853-5.704c0-0.093-0.173-0.093-0.173,0c0,3.052-4.343,5.534-9.68,5.534c-5.338,0-9.68-2.483-9.68-5.534
						C38.195,70.707,38.157,70.67,38.108,70.67z"/>
				</g>
				<g>
					<path d="M39.282,68.623c-0.079,0-0.159-0.013-0.237-0.04c-0.259-0.088-0.458-0.31-0.508-0.566
						c-0.046-0.235,0.037-0.466,0.229-0.634c0.77-0.676,1.656-1.098,2.633-1.252H41.4c0.469-0.073,0.809,0.272,0.869,0.648
						c0.061,0.383-0.172,0.706-0.554,0.768c-0.757,0.119-1.414,0.419-1.955,0.891C39.62,68.56,39.454,68.623,39.282,68.623z
						 M41.498,66.764c-0.855,0.135-1.633,0.506-2.312,1.102c-0.019,0.017-0.023,0.026-0.023,0.026c0,0.013,0.024,0.057,0.073,0.08
						c0.049,0.023,0.078,0.004,0.101-0.015c0.634-0.554,1.4-0.904,2.276-1.042c0.027-0.014,0.026-0.065-0.01-0.11
						C41.567,66.759,41.529,66.758,41.498,66.764L41.498,66.764z"/>
				</g>
				<g>
					<path d="M40.935,73.336c-0.262,0-0.496-0.157-0.604-0.428c-0.141-0.354-0.023-0.826,0.417-1.002
						c0.231-0.091,0.443-0.231,0.668-0.379c0.261-0.172,0.53-0.349,0.851-0.466c0.533-0.194,1.116-0.268,1.73-0.22
						c0.087,0.005,0.177,0.028,0.264,0.07c0.11,0.048,0.204,0.127,0.273,0.227c0.17,0.222,0.198,0.563,0.059,0.816
						c-0.127,0.232-0.37,0.358-0.647,0.333c-0.558-0.039-1.038,0.042-1.462,0.253c-0.172,0.086-0.334,0.193-0.505,0.306
						c-0.239,0.158-0.486,0.322-0.781,0.438C41.109,73.319,41.02,73.336,40.935,73.336z M43.642,71.467
						c-0.413,0-0.799,0.065-1.157,0.195c-0.25,0.091-0.477,0.241-0.718,0.399c-0.242,0.16-0.493,0.325-0.784,0.439
						c-0.026,0.011-0.06,0.031-0.067,0.088c-0.008,0.058,0.016,0.103,0.027,0.111c0.253-0.103,0.462-0.241,0.683-0.387
						c0.179-0.118,0.364-0.241,0.572-0.345c0.531-0.264,1.119-0.367,1.798-0.318c0.022,0.001,0.034,0,0.036-0.002
						c0.012-0.014,0.019-0.088-0.016-0.135l-0.033-0.026c-0.013-0.007-0.022-0.008-0.028-0.008
						C43.849,71.471,43.745,71.467,43.642,71.467z"/>
				</g>
				<g>
					<path d="M55.688,72.751c-0.139,0-0.28-0.047-0.407-0.143l-0.14-0.106c-0.784-0.595-1.522-1.158-2.437-0.989
						c-0.266,0.05-0.522-0.039-0.697-0.244c-0.178-0.208-0.236-0.5-0.15-0.744c0.08-0.223,0.269-0.377,0.518-0.422
						c0.673-0.126,1.245-0.155,1.847,0.12c0.692,0.315,1.32,0.772,1.855,1.175h0.001c0.378,0.287,0.366,0.774,0.135,1.08
						C56.075,72.657,55.884,72.751,55.688,72.751z M53.03,70.843c0.984,0,1.782,0.607,2.498,1.15l0.138,0.105
						c0.026,0.009,0.059-0.029,0.067-0.087c0.007-0.057-0.019-0.085-0.042-0.103l0,0c-0.507-0.382-1.101-0.815-1.735-1.103
						c-0.451-0.206-0.895-0.18-1.465-0.073c-0.022,0.004-0.032,0.009-0.034,0.011c-0.003,0.008-0.003,0.059,0.031,0.104
						c0.032,0.043,0.067,0.043,0.099,0.037C52.738,70.856,52.886,70.843,53.03,70.843z"/>
				</g>
				<g>
					<path d="M48.714,74.552c-0.184,0-0.372-0.068-0.517-0.195c-0.201-0.176-0.285-0.429-0.232-0.694
						c0.04-0.211,0.055-0.427,0.045-0.679c-0.011-0.258,0.102-0.481,0.309-0.613c0.223-0.141,0.521-0.151,0.761-0.024
						c0.231,0.121,0.369,0.344,0.379,0.612c0.013,0.343-0.015,0.685-0.086,1.043c-0.048,0.248-0.206,0.436-0.432,0.513
						C48.868,74.54,48.791,74.552,48.714,74.552z M48.718,72.898c-0.023,0-0.044,0.005-0.057,0.013
						c-0.005,0.003-0.013,0.009-0.012,0.045v0.001c0.011,0.297-0.007,0.568-0.057,0.827c-0.008,0.039-0.004,0.069,0.036,0.098
						c0.044,0.032,0.095,0.032,0.107,0.026c0,0,0.005-0.008,0.009-0.03c0.062-0.31,0.086-0.603,0.074-0.896
						c-0.002-0.043-0.015-0.058-0.037-0.07C48.762,72.902,48.739,72.898,48.718,72.898z"/>
				</g>
				<g>
					<path d="M55.454,67.71c-0.08,0-0.162-0.014-0.243-0.043l-0.965-0.332c-0.064-0.022-0.133-0.048-0.203-0.076
						c-0.221-0.085-0.47-0.182-0.641-0.142c-0.468,0.103-0.801-0.215-0.881-0.568c-0.09-0.398,0.129-0.751,0.521-0.84
						c0.729-0.163,1.466,0.132,2.117,0.391c0.163,0.065,0.323,0.129,0.477,0.182c0.255,0.088,0.43,0.288,0.48,0.549
						c0.052,0.268-0.043,0.551-0.241,0.722C55.755,67.657,55.609,67.71,55.454,67.71z M53.488,66.468
						c0.282,0,0.556,0.106,0.785,0.194c0.063,0.024,0.123,0.048,0.182,0.068l0.967,0.333c0.021,0.007,0.032,0.007,0.035,0.007
						c0.011-0.006,0.037-0.049,0.034-0.103c-0.003-0.05-0.028-0.068-0.063-0.081h-0.001c-0.162-0.057-0.331-0.124-0.503-0.193
						c-0.592-0.236-1.203-0.48-1.74-0.36c-0.029,0.007-0.051,0.011-0.037,0.074c0.011,0.049,0.038,0.104,0.114,0.085
						C53.336,66.476,53.412,66.468,53.488,66.468z"/>
				</g>
				<g>
					<path d="M48.796,56.505l-0.574-0.283l0.287,0.142l-0.288-0.14c0.001-0.003,0.005-0.018,0.006-0.04
						c0.123-3.286,1.494-6.002,2.819-8.225c0.254-0.425,0.515-0.846,0.779-1.264c0.323-0.51,0.653-1.017,0.983-1.525
						c2.062-3.17,4.194-6.448,4.519-10.353c0.231-2.769-0.61-5.432-2.366-7.499l0.46-0.443c3.974,3.63,8.931,5.593,10.878,6.268
						c9.145,3.172,19.224,2.268,26.96-2.422l0.049-0.029l0.056-0.011l0.725-0.518c0.008-0.006,0.017-0.014,0.033-0.038l0.032-0.046
						l0.045-0.032c0.004-0.007,0.014-0.054-0.007-0.105c-0.023-0.053-0.061-0.065-0.092-0.069c-0.578-0.08-1.143-0.09-1.73-0.031
						l-0.036,0.003l-0.089-0.014c-0.037,0.001-0.074,0.001-0.111,0.001c-3.113,0-4.873-2.843-6.292-5.134l-0.315-0.51
						c-1.09-1.766-2.217-3.591-3.418-5.317c-1.172-1.688-2.289-3.111-3.414-4.351l0.474-0.43c1.143,1.261,2.277,2.705,3.465,4.415
						c1.212,1.74,2.343,3.573,3.438,5.346l0.315,0.51c1.352,2.184,3.033,4.902,5.872,4.829c0.051-0.003,0.074,0.005,0.097,0.009
						c0.62-0.058,1.218-0.046,1.829,0.038c0.314,0.042,0.558,0.261,0.635,0.572c0.067,0.272-0.013,0.552-0.202,0.719
						c-0.036,0.047-0.085,0.101-0.155,0.151l-0.708,0.51c-0.063,0.046-0.132,0.081-0.206,0.103
						c-7.892,4.766-18.153,5.684-27.461,2.454c-1.707-0.592-5.683-2.155-9.347-4.941c0.973,1.827,1.402,3.916,1.222,6.064
						c-0.339,4.066-2.515,7.413-4.62,10.649c-0.329,0.505-0.657,1.01-0.978,1.518c-0.261,0.413-0.519,0.83-0.77,1.25
						c-1.283,2.153-2.611,4.779-2.729,7.925C48.861,56.323,48.837,56.423,48.796,56.505z"/>
				</g>
				<g>
					<path d="M48.061,56.094l-0.639-0.03c0.156-3.289,1.475-5.991,3.408-9.037c0.364-0.574,0.739-1.144,1.115-1.715
						c1.242-1.888,2.526-3.84,3.396-5.946c0.904-2.19,2.127-6.406,0.158-10.033c-1.542-2.834-4.594-4.628-7.965-4.682l0.01-0.64
						c3.601,0.058,6.865,1.98,8.517,5.017c1.553,2.861,1.507,6.619-0.129,10.583c-0.894,2.162-2.195,4.14-3.453,6.053
						c-0.374,0.568-0.747,1.135-1.109,1.706C49.492,50.33,48.21,52.946,48.061,56.094z"/>
				</g>
				<g>
					<path d="M53.777,26.144c-0.705-0.592-1.481-1.076-2.307-1.44c-0.248-0.116-0.503-0.218-0.788-0.313
						c-1.048-0.367-2.161-0.553-3.312-0.553c-0.026,0-0.039,0.005-0.049,0.009l-0.254-0.587c0.094-0.041,0.196-0.061,0.303-0.061
						c1.224,0,2.408,0.197,3.519,0.587c0.304,0.101,0.582,0.212,0.846,0.336c0.214,0.094,0.425,0.197,0.633,0.306
						c-0.4-0.559-0.747-1.122-1.04-1.686c-0.337-0.651-0.607-1.305-0.802-1.945c-0.54-1.742-0.608-3.533-0.203-5.322
						c0.002-0.087,0.021-0.174,0.058-0.261l0,0c-0.003,0,0.002-0.016,0.007-0.032l0.069-0.261c0.018-0.106,0.033-0.239,0.048-0.376
						l0.014-0.063l0.032-0.1c0.02-0.062,0.04-0.124,0.06-0.187c-2.203,1.198-5.021,1.237-7.03,0.019
						c-0.386-0.233-0.739-0.511-1.048-0.827l-0.076-0.076c-0.239-0.249-0.272-0.606-0.084-0.89c0.12-0.195,0.329-0.328,0.553-0.35
						c0.209-0.022,0.412,0.059,0.566,0.225c0.075,0.08,0.152,0.155,0.233,0.224c1.946,1.74,5.701,1.396,7.584-0.691
						c0.052-0.052,0.089-0.095,0.123-0.138c0.132-0.157,0.304-0.246,0.488-0.252c0.077-0.003,0.155,0.009,0.229,0.034
						c0.024-0.028,0.049-0.056,0.074-0.084c0.562-0.656,1.247-1.262,2.042-1.805c-0.467-0.214-0.853-0.513-1.151-0.895
						c-0.147-0.186-0.276-0.399-0.384-0.632l-0.076-0.164l0.102-0.15c0.053-0.077,0.102-0.155,0.152-0.232l0.191-0.27L53.1,7.241
						l0.066-0.095c0.022-0.032,0.044-0.065,0.067-0.096l0.157-0.217l0.241,0.116C53.8,7.03,53.93,7.173,53.997,7.352
						c0.021,0.061,0.044,0.11,0.065,0.156c0.317,0.653,0.904,0.95,1.97,1.015c0.027,0.002,0.052,0.006,0.075,0.01
						c1.432-0.676,3.077-1.178,4.767-1.456c1.81-0.3,3.65-0.334,5.483-0.104c-0.546-0.486-1.137-0.919-1.929-1.227
						c-1.755-0.681-3.532-0.522-5.279,0.472C58.795,6.42,58.373,6.3,58.167,5.94c-0.204-0.357-0.095-0.777,0.255-0.978
						c1.796-1.021,3.715-1.332,5.549-0.901c0.973,0.228,1.974,0.683,2.897,1.314c0.529,0.365,0.939,0.815,1.336,1.251
						c0.291,0.319,0.566,0.622,0.884,0.893c1.664,0.461,3.236,1.135,4.675,2.006c1.511,0.914,2.941,2.052,4.373,3.48l-0.452,0.453
						c-1.394-1.391-2.785-2.498-4.252-3.386c-1.407-0.852-2.948-1.509-4.58-1.955l-0.067-0.018l-0.053-0.044
						c-0.375-0.31-0.693-0.66-1.001-0.998c-0.39-0.428-0.758-0.832-1.225-1.154c-0.845-0.579-1.797-1.012-2.681-1.219
						c-1.675-0.393-3.434-0.105-5.086,0.834c-0.021,0.012-0.058,0.033-0.017,0.105c0.044,0.078,0.089,0.052,0.11,0.04
						c1.897-1.078,3.911-1.255,5.827-0.513c1.251,0.486,2.018,1.226,2.83,2.01l0.815,0.786l-1.037-0.186
						c-2.098-0.377-4.214-0.394-6.29-0.051c-1.675,0.275-3.303,0.777-4.706,1.454l-0.13,0.062l-0.133-0.055
						c-0.825-0.057-1.958-0.249-2.503-1.337h-0.037l-0.047,0.062c-0.011,0.017-0.022,0.034-0.033,0.052
						c0.068,0.127,0.145,0.243,0.228,0.349c0.342,0.439,0.815,0.731,1.448,0.897l0.729,0.191l-0.644,0.392
						c-0.975,0.594-1.799,1.28-2.447,2.037c-0.084,0.094-0.16,0.185-0.233,0.276l-0.226,0.282l-0.252-0.258
						c-0.025-0.025-0.045-0.032-0.05-0.032c-0.062,0.076-0.115,0.135-0.171,0.191c-2.127,2.357-6.248,2.719-8.469,0.732
						c-0.092-0.079-0.189-0.172-0.28-0.27c-0.01-0.012-0.03-0.025-0.036-0.023c-0.021,0.002-0.055,0.024-0.076,0.057
						c-0.037,0.057-0.014,0.08,0.004,0.099l0.072,0.072c0.274,0.28,0.585,0.524,0.924,0.729c2.057,1.249,5.061,1.033,7.143-0.511
						l1.099-0.815l-0.643,1.253c-0.002,0.013-0.006,0.025-0.009,0.037c-0.04,0.137-0.091,0.261-0.141,0.382l-0.031,0.074
						c-0.062,0.152-0.115,0.317-0.17,0.49l-0.023,0.071c-0.016,0.14-0.032,0.278-0.057,0.416l-0.08,0.303
						c-0.01,0.038-0.015,0.056-0.021,0.075l-0.023,0.139c-0.389,1.691-0.327,3.382,0.182,5.029c0.184,0.604,0.44,1.222,0.759,1.838
						c0.565,1.088,1.346,2.177,2.322,3.235L53.777,26.144z"/>
				</g>
				<g>
					<path d="M77.406,34.852c-3.08,0-6.209-0.434-9.286-1.313c-5.094-1.457-14.346-5.738-16.712-12.548
						c-0.637-1.831-0.715-3.727-0.232-5.632l0.021-0.065c0.024-0.072,0.047-0.14,0.057-0.198c0.023-0.282,0.1-0.579,0.168-0.812
						c0.001-0.016,0.004-0.035,0.009-0.055l-0.011-0.022l0.042-0.123c0.008-0.025,0.02-0.052,0.031-0.078l0.018-0.042
						c0.165-0.372,0.363-0.739,0.589-1.092l0.099-0.147c2.615-3.908,8.226-5.19,12.264-5.096c4.807,0.114,9.36,2.193,13.166,6.012
						c0.034,0.034,0.065,0.065,0.096,0.099c3.076,3.115,5.409,6.894,7.468,10.229l0.247,0.402c1.629,2.655,3.474,5.657,6.742,5.627
						l0.047-0.001l0.045,0.013c0.236-0.016,0.44-0.018,0.637-0.021l1.259-0.017l-1.008,0.61
						C88.498,33.403,83.035,34.852,77.406,34.852z M52.06,14.362c-0.001,0.012-0.003,0.025-0.006,0.04
						c-0.073,0.25-0.143,0.511-0.165,0.771c-0.021,0.136-0.055,0.237-0.085,0.326l-0.013,0.04c-0.446,1.76-0.373,3.531,0.222,5.242
						c2.28,6.563,11.308,10.721,16.283,12.143c8.117,2.322,16.609,1.479,23.501-2.295c-3.387-0.191-5.33-3.359-6.903-5.924
						l-0.246-0.4c-2.042-3.308-4.356-7.056-7.383-10.12l-0.01-0.011c-0.025-0.028-0.05-0.053-0.078-0.081
						c-3.688-3.701-8.089-5.715-12.728-5.825c-3.92-0.094-9.378,1.15-11.806,4.949l-0.096,0.148
						c-0.16,0.262-0.303,0.532-0.426,0.804l-0.015,0.035l0.002,0.007L52.06,14.362z"/>
				</g>
				<g>
					<path d="M83.442,29.394c-0.057,0-0.115-0.007-0.174-0.02c-4.708-1.103-9.052-3.293-12.909-6.509
						c-0.337-0.281-0.682-0.574-1.034-0.872c-3.984-3.378-8.943-7.582-14.229-4.851c-0.423,0.219-0.829-0.006-0.995-0.329
						c-0.082-0.159-0.106-0.335-0.067-0.498c0.046-0.189,0.173-0.346,0.359-0.442c4.866-2.515,9.922,0.159,13.305,2.846
						c0.786,0.625,1.56,1.283,2.308,1.921c1.59,1.355,3.235,2.756,5.053,3.866c2.564,1.566,5.447,2.731,8.569,3.462h0.002
						c0.392,0.094,0.609,0.451,0.515,0.849C84.061,29.168,83.774,29.394,83.442,29.394z M58.634,15.61
						c4.153,0,7.928,3.201,11.104,5.895c0.351,0.297,0.694,0.589,1.03,0.869c3.78,3.152,8.035,5.298,12.645,6.377
						c0.067,0.016,0.097-0.035,0.108-0.081c0.016-0.066-0.01-0.073-0.04-0.08c-3.188-0.746-6.134-1.937-8.756-3.538
						c-1.861-1.137-3.525-2.555-5.135-3.926c-0.744-0.634-1.514-1.289-2.291-1.907c-3.236-2.569-8.052-5.137-12.614-2.778
						c-0.023,0.012-0.03,0.054-0.018,0.078c0.019,0.036,0.06,0.092,0.133,0.054C56.109,15.898,57.388,15.61,58.634,15.61z"/>
				</g>
				<g>
					<path d="M15.843,39.039c-0.67,0-1.338-0.055-2.004-0.166c-0.248-0.042-0.437-0.191-0.519-0.41
						c-0.089-0.239-0.034-0.53,0.14-0.741c0.172-0.208,0.435-0.305,0.701-0.261c5.561,0.926,10.735-2.276,15.379-9.515
						c0.341-0.533,0.679-1.078,1.018-1.626c2.453-3.963,4.99-8.062,9.876-9.211c0.261-0.062,0.51,0.012,0.688,0.2
						c0.186,0.197,0.256,0.488,0.18,0.741c-0.071,0.236-0.256,0.404-0.508,0.463c-4.567,1.075-7.053,5.157-9.458,9.105
						c-1.032,1.694-2.098,3.445-3.305,4.899C24.532,36.736,20.181,39.039,15.843,39.039z M14.031,38.09
						c-0.026,0-0.053,0.009-0.079,0.042c-0.035,0.044-0.037,0.096-0.032,0.108c6.526,1.087,11.333-3.375,13.619-6.131
						c1.177-1.419,2.185-3.073,3.251-4.823c2.473-4.06,5.03-8.258,9.859-9.395c0.037-0.008,0.039-0.018,0.041-0.025
						c0.009-0.03-0.002-0.084-0.033-0.117c-0.014-0.014-0.03-0.026-0.075-0.016h-0.001c-4.627,1.088-7.093,5.072-9.478,8.924
						c-0.341,0.551-0.68,1.099-1.023,1.635c-4.795,7.475-10.187,10.773-16.023,9.801C14.048,38.091,14.039,38.09,14.031,38.09z"/>
				</g>
				<g>
					<path d="M22.673,16.954c-0.267,0-0.526-0.15-0.66-0.382c-0.126-0.22-0.123-0.476,0.009-0.703
						c3.372-5.868,10.028-8.551,16.565-6.677c0.253,0.071,0.434,0.253,0.496,0.499c0.066,0.26-0.015,0.549-0.207,0.735
						c-0.18,0.174-0.427,0.234-0.679,0.161c-5.888-1.688-11.885,0.728-14.923,6.011C23.143,16.824,22.924,16.954,22.673,16.954
						L22.673,16.954z M34.444,9.242c-4.843,0-9.329,2.529-11.868,6.946c-0.023,0.039-0.015,0.053-0.008,0.064
						c0.019,0.033,0.068,0.062,0.106,0.062c0.012,0,0.025,0,0.046-0.035c3.188-5.543,9.481-8.077,15.654-6.306
						c0.04,0.011,0.049,0.002,0.057-0.006c0.027-0.026,0.042-0.081,0.032-0.118c-0.003-0.013-0.007-0.029-0.049-0.041l-0.002-0.001
						C37.083,9.426,35.75,9.242,34.444,9.242z"/>
				</g>
				<g>
					<path d="M46.752,63.149c-0.08,0-0.159-0.013-0.235-0.038c-0.29-0.024-0.525-0.206-0.623-0.487
						c-0.031-0.091-0.066-0.161-0.124-0.248c-0.077-0.124-0.113-0.253-0.11-0.388c-0.011-0.029-0.021-0.068-0.025-0.113
						c-0.133-1.858-0.701-3.693-1.735-5.616c-0.232-0.427-0.494-0.872-0.779-1.32c-0.965-1.531-2.127-3.016-3.25-4.451
						c-2.189-2.797-4.449-5.685-5.351-9.045c-0.662,0.484-1.328,0.927-1.986,1.321c-3.111,1.874-5.964,2.743-8.719,2.659
						c-2.999-0.094-6.029-0.933-8.96-1.744l-0.607-0.168C8.8,42.01,4.076,39.327,0.206,35.536l-0.021-0.021H0.046l-0.002-0.261
						c-0.003-0.007-0.005-0.014-0.007-0.02c-0.017-0.064-0.025-0.097-0.029-0.135c-0.054-0.373,0.186-0.706,0.61-0.842l0.053-0.017
						l0.055,0.002c0.097,0.003,0.193,0.007,0.287,0.013l0.086,0.018c4.857,1.749,9.936-0.994,13.069-4.145
						c1.817-1.831,3.274-3.845,4.933-6.253c-0.001,0-0.003,0-0.004-0.001c-0.036-0.003-0.067-0.01-0.092-0.017
						c-0.016,0-0.034-0.001-0.053-0.004c-3.097-0.642-5.758-2.919-7.932-6.772c-0.027-0.042-0.043-0.089-0.053-0.126
						c-0.021-0.032-0.042-0.068-0.058-0.113c-0.118-0.323-0.124-0.644-0.017-0.983c0.011-0.029,0.021-0.051,0.03-0.068
						c0.051-0.192,0.168-0.349,0.328-0.436c0.168-0.091,0.367-0.097,0.561-0.016c4.838,2.011,8.256-2.119,11.273-5.764
						c0.776-0.938,1.51-1.824,2.242-2.58c1.999-2.064,4.034-3.272,6.219-3.691c2.042-0.386,4.113-0.144,5.877,0.149
						c0.303-0.057,0.597-0.137,0.898-0.241c0.366-0.198,0.679-0.464,1.01-0.745c0.391-0.333,0.796-0.677,1.309-0.918
						c0.848-0.397,1.829-0.611,2.762-0.783c1.928-0.353,3.566,0.219,5.299,0.825l0.358,0.124c2.806-2.213,5.786-1.142,8.668-0.105
						c0.173,0.062,0.347,0.125,0.521,0.187c2.689-2.12,6.702-2.389,10.288-0.676c2.583,1.234,4.661,3.243,6.522,5.23l0.09,0.096
						c1.281,1.369,2.49,2.662,4.215,3.321c1.519,0.58,3.198,0.708,4.821,0.832l0.067,0.005c0.308,0.024,0.553,0.222,0.645,0.519
						c0.055,0.14,0.057,0.296,0.005,0.451c-0.003,0.016-0.018,0.053-0.034,0.088l-0.101,0.167c-1.287,1.905-3.649,3.032-5.863,2.79
						c-0.446-0.049-0.879-0.151-1.287-0.303c-0.108-0.038-0.207-0.103-0.294-0.197c-0.225-0.251-0.251-0.638-0.068-0.925
						c0.164-0.256,0.46-0.365,0.754-0.274l0.036,0.012c1.55,0.576,3.401,0.16,4.709-1.003c-1.691-0.166-3.542-0.471-5.138-1.385
						c-1.462-0.842-2.607-2.087-3.715-3.29c-0.476-0.517-0.968-1.052-1.474-1.54c-2.256-2.177-6.181-4.605-9.816-4.286
						c-1.911,0.168-3.487,1.089-4.684,2.737c-0.052,0.072-0.117,0.133-0.195,0.185c-0.252,0.287-0.466,0.557-0.651,0.826
						c-0.132,0.183-0.259,0.38-0.381,0.587c-0.114,0.198-0.298,0.322-0.516,0.348c-0.276,0.031-0.568-0.104-0.724-0.341
						c-0.147-0.224-0.152-0.5-0.013-0.739L55.524,4.9c0.429-0.711,0.929-1.361,1.491-1.939c0.021-0.021,0.042-0.038,0.061-0.052
						l-0.037-0.014c-2.508-0.927-4.879-1.803-7.079-0.052c-0.059,0.158-0.166,0.289-0.304,0.369
						c-0.155,0.091-0.341,0.112-0.525,0.059c-1.157,0.506-1.957,1.559-2.147,2.84c-0.06,0.382-0.378,0.615-0.76,0.557
						c-0.378-0.057-0.727-0.399-0.657-0.869c0.184-1.221,0.825-2.328,1.789-3.119c-1.381-0.433-2.707-0.705-4.292-0.357
						c-0.959,0.212-1.971,0.513-2.872,1.278L40.053,3.72c-0.156,0.133-0.306,0.262-0.465,0.385c0.503,0.25,0.861,0.503,1.152,0.815
						c0.591,0.636,0.969,1.52,1.302,2.299c0.07,0.165,0.14,0.326,0.209,0.482c0.037,0.085,0.057,0.171,0.062,0.256
						c0.117,0.288,0.191,0.581,0.261,0.864l0.063,0.256c0.036,0.191-0.003,0.374-0.1,0.521c0.31,0.146,0.482,0.475,0.408,0.818
						c-0.077,0.36-0.202,0.702-0.374,1.017c-0.221,0.411-0.519,0.785-0.874,1.1c0.414,0.259,0.767,0.519,1.091,0.8
						c0.054,0.032,0.103,0.073,0.147,0.122c0.016,0.013,0.032,0.026,0.049,0.038c0.047,0.036,0.094,0.073,0.137,0.117
						c0.171,0.162,0.245,0.388,0.205,0.61c0.539,1.208,0.957,2.465,1.243,3.74l-0.624,0.14c-0.285-1.269-0.705-2.521-1.249-3.723
						l-0.058-0.128l0.055-0.129c0.006-0.015,0.01-0.024-0.019-0.052c-0.029-0.029-0.055-0.048-0.08-0.067
						c-0.033-0.025-0.066-0.051-0.098-0.08l-0.103-0.084c-0.398-0.349-0.849-0.664-1.417-0.99l-0.438-0.251l0.414-0.288
						c0.441-0.307,0.807-0.715,1.056-1.178c0.143-0.262,0.247-0.546,0.311-0.846c0.006-0.03,0.009-0.062-0.037-0.094
						c-0.045-0.031-0.096-0.029-0.107-0.022L42.164,10.2c-0.202,0.948-0.776,1.72-1.617,2.179c-0.012,0.01-0.025,0.021-0.042,0.031
						l-0.147,0.095l-0.159-0.073c-2.071-0.948-4.471-1.151-6.94-0.59c-3.421,0.781-6.629,3.093-9.809,7.067
						c-1.032,1.286-1.984,2.651-2.949,4.054l-0.091,0.132l-0.161,0.006c-0.364,0.014-0.726,0.002-1.075-0.033l-0.032-0.005
						c-2.878-0.597-5.285-2.652-7.36-6.284l-0.321-0.561c-0.018,0.13-0.003,0.262,0.048,0.402l0.071,0.15
						c0,0.001,0.001,0.002,0.001,0.002c2.077,3.671,4.578,5.833,7.445,6.441c0.02-0.001,0.047-0.001,0.077,0.004l0.078,0.021
						c0.172,0.02,0.343,0.029,0.515,0.038l0.57,0.03l-0.323,0.471c-1.424,2.075-3.196,4.658-5.322,6.801
						c-3.262,3.281-8.569,6.13-13.697,4.311c-0.052-0.003-0.105-0.005-0.158-0.007c-0.054,0.024-0.135,0.07-0.126,0.132l0.005,0.023
						l0.1,0.13c3.775,3.667,8.374,6.266,13.672,7.725l0.608,0.168c2.894,0.801,5.887,1.63,8.809,1.721
						c2.636,0.088,5.366-0.758,8.37-2.568c0.768-0.459,1.547-0.988,2.317-1.571l0.396-0.3l0.11,0.484
						c0.776,3.424,2.997,6.261,5.348,9.266c1.133,1.448,2.305,2.945,3.287,4.503c0.292,0.46,0.561,0.917,0.801,1.358
						c1.072,1.993,1.663,3.901,1.808,5.833c0.007,0.017,0.013,0.032,0.018,0.047l0.025,0.075l-0.012,0.078
						c-0.003,0.022-0.001,0.03,0.007,0.043c0.083,0.125,0.142,0.242,0.191,0.385c0.01,0.027,0.026,0.059,0.084,0.059h0.068
						l0.062,0.028c0.027,0.012,0.062,0.01,0.096-0.005c0.029-0.013,0.044-0.032,0.046-0.041l0.023-0.078l0.057-0.058
						c0.016-0.016,0.021-0.026,0.023-0.033c0.655-1.71,0.911-3.584,1.159-5.397l0.071-0.52c-0.02-0.393-0.003-0.764,0.05-1.109
						c-0.025-0.01-0.049-0.012-0.059-0.008l-0.203,1.458c-0.217,1.557-0.442,3.167-0.907,4.695l-0.166,0.545l-0.401-0.449
						L46.37,61.42l-0.004-0.145c-0.226-1.939-0.874-3.833-1.979-5.788c-1.07-1.899-2.468-3.688-3.821-5.417
						c-1.673-2.14-3.403-4.353-4.6-6.861c-0.404-0.844-0.696-1.786-0.868-2.8l-0.028-0.163l0.02-0.02
						c0.002-0.057-0.002-0.115-0.012-0.17l-0.049,0.048l-0.062-0.67c-0.306-3.289,0.623-6.613,1.456-8.822
						c1.294-3.42,4.025-5.856,7.306-6.517c0.079-0.037,0.16-0.061,0.245-0.07l0.01-0.001c0.048-0.022,0.108-0.042,0.183-0.05
						c0.151-0.019,0.32-0.037,0.499-0.037c0.049,0,0.09,0.006,0.12,0.013c0.85-0.07,1.7-0.032,2.53,0.113
						c0.018,0.004,0.042,0.005,0.057-0.004c0.067-0.038,0.085-0.119,0.075-0.142c-0.114-0.02-0.206-0.035-0.295-0.047
						c-0.786-0.116-1.61-0.138-2.45-0.068l-0.37,0.031l0.024-0.37c0.116-1.809-0.023-3.608-0.412-5.348l0.624-0.14
						c0.376,1.682,0.526,3.418,0.446,5.165c0.763-0.042,1.511-0.008,2.228,0.098c0.093,0.013,0.193,0.029,0.29,0.046
						c0.29,0.051,0.5,0.255,0.547,0.532c0.053,0.312-0.104,0.639-0.382,0.795c-0.137,0.085-0.311,0.116-0.494,0.084
						c-0.79-0.138-1.601-0.172-2.411-0.102l-0.045,0.004l-0.079-0.016c-0.149-0.007-0.292,0.013-0.427,0.03
						c-0.008,0.003-0.018,0.009-0.028,0.015l-0.095,0.051l-0.078-0.012c-0.004,0-0.007,0-0.012,0
						c-0.015,0.004-0.031,0.011-0.053,0.026l-0.497,0.33v-0.212c-2.896,0.723-5.292,2.951-6.457,6.031
						c-0.758,2.009-1.597,4.962-1.459,7.93l0.3-0.241l-0.213,0.906l0.026,0.135l-0.01,0.045c-0.003,0.026-0.002,0.037,0.001,0.049
						c0.012,0.059,0.023,0.096,0.033,0.132l0.017,0.057l-0.005,0.059l-0.323,0.019l0.319,0.019c0-0.001,0.001-0.01-0.002-0.023
						c0.017,0.089,0.026,0.173,0.027,0.255c0.007,0.016,0.014,0.032,0.019,0.048l0.06,0.186l-0.052,0.052
						c0.165,0.892,0.429,1.721,0.785,2.467c1.167,2.446,2.875,4.63,4.527,6.743c1.367,1.748,2.78,3.556,3.874,5.497
						c0.906,1.602,1.516,3.168,1.85,4.753c0.241-1.09,0.397-2.21,0.55-3.304l0.208-1.444c0.044-0.29,0.231-0.495,0.5-0.552
						c0.301-0.064,0.633,0.081,0.803,0.351l0.068,0.107l-0.024,0.125c-0.067,0.345-0.09,0.728-0.068,1.137l0.001,0.062l-0.078,0.568
						c-0.253,1.848-0.514,3.76-1.194,5.535c-0.026,0.071-0.065,0.138-0.116,0.201c-0.068,0.157-0.197,0.287-0.363,0.365
						C46.974,63.125,46.863,63.149,46.752,63.149z M0.651,35.06l0.003,0.003c-0.002-0.004-0.004-0.008-0.006-0.012L0.651,35.06z
						 M19.204,23.251L19.204,23.251C19.205,23.251,19.204,23.251,19.204,23.251z M19.254,22.437c0.263,0.026,0.536,0.038,0.81,0.033
						c0.941-1.366,1.873-2.696,2.884-3.957c3.273-4.091,6.598-6.475,10.166-7.29c2.544-0.579,5.027-0.385,7.19,0.561
						c0.645-0.374,1.072-0.965,1.232-1.714c0.003-0.019,0.008-0.04,0.014-0.06c0.014-0.047,0.033-0.091,0.055-0.132
						c-0.152-0.067-0.276-0.187-0.347-0.349l-0.013-0.037c-0.012-0.035-0.02-0.059-0.027-0.085
						c-0.022-0.086-0.042-0.175-0.063-0.265c-0.062-0.272-0.121-0.528-0.236-0.745c-0.049-0.094-0.076-0.196-0.08-0.298
						l-0.065-0.146c-0.102-0.231-0.206-0.463-0.313-0.692c-0.211-0.448-0.401-0.797-0.598-1.096
						c-0.377-0.571-1.036-0.848-1.796-1.123c-3.003-0.535-6.446-0.939-9.365,0.974c-1.859,1.216-3.29,2.988-4.674,4.701
						c-0.349,0.432-0.697,0.862-1.05,1.284c-3.4,4.046-6.927,5.808-10.248,5.131C14.611,20.174,16.75,21.912,19.254,22.437z
						 M11.567,16.753c0.002,0.005,0.005,0.009,0.008,0.014C11.573,16.763,11.57,16.758,11.567,16.753z M11.485,16.105l0.671,0.215
						c4.14,1.325,7.904-1.841,10.333-4.732c0.351-0.418,0.696-0.846,1.043-1.274c1.415-1.752,2.878-3.563,4.821-4.834
						c3.124-2.048,6.725-1.623,9.854-1.064l0.052,0.014c0.679,0.245,1.609,0.58,2.139,1.382c0.214,0.325,0.418,0.699,0.643,1.176
						c0.109,0.233,0.214,0.47,0.319,0.704l0.127,0.287L41.48,8.062c-0.002,0.014,0.001,0.025,0.007,0.038
						c0.153,0.289,0.224,0.599,0.292,0.899c0.019,0.085,0.038,0.17,0.06,0.253l0.009,0.028c0.02,0.03,0.072,0.017,0.088,0.012
						c0.067-0.02,0.072-0.057,0.07-0.079l-0.057-0.23c-0.073-0.292-0.142-0.568-0.254-0.827l-0.03-0.069l0.004-0.076
						c0.001-0.01,0-0.025-0.01-0.048c-0.069-0.154-0.14-0.319-0.211-0.487c-0.328-0.767-0.667-1.56-1.182-2.114
						c-0.241-0.257-0.548-0.471-0.991-0.689c-0.023-0.003-0.049-0.009-0.077-0.02c-0.029-0.009-0.061-0.021-0.088-0.033
						c-0.076-0.029-0.137-0.07-0.187-0.108c-0.012-0.004-0.025-0.008-0.038-0.012l-0.583-0.203l0.42-0.361
						c0.019-0.016,0.039-0.031,0.059-0.044l0.051-0.038c0.286-0.174,0.524-0.378,0.8-0.614l0.142-0.121
						c1.008-0.856,2.109-1.186,3.149-1.416c1.971-0.432,3.534,0.001,5.228,0.569l0.639,0.214l-0.57,0.36
						c-1.098,0.693-1.835,1.806-2.024,3.053c-0.005,0.03-0.004,0.07,0.042,0.107c0.045,0.036,0.097,0.039,0.11,0.035
						c0.229-1.566,1.22-2.832,2.65-3.404l0.115-0.046l0.19,0.072c0.011,0.004,0.023,0.003,0.025,0.002
						c0.005-0.002,0.026-0.023,0.034-0.065l0.022-0.112l0.088-0.073c2.505-2.066,5.189-1.074,7.783-0.115l0.954,0.35l-0.417,0.44
						c-0.08,0.083-0.159,0.166-0.235,0.255L57.482,3.41l-0.21-0.247l0.176,0.267c-0.507,0.525-0.977,1.136-1.377,1.799l-0.077,0.128
						c-0.023,0.041-0.015,0.054-0.006,0.068c0.023,0.035,0.074,0.062,0.113,0.057c0.008-0.001,0.022-0.002,0.04-0.034
						c0.132-0.227,0.27-0.44,0.411-0.635c0.205-0.297,0.444-0.598,0.727-0.918l0.036-0.04l0.047-0.026
						c0.026-0.015,0.036-0.025,0.041-0.033c1.311-1.805,3.043-2.814,5.146-2.999c3.856-0.338,7.964,2.193,10.317,4.463
						c0.519,0.501,1.018,1.043,1.5,1.567c1.075,1.168,2.186,2.375,3.562,3.168c1.698,0.972,3.672,1.206,5.548,1.363l0.626,0.052
						l-0.411,0.475c-1.475,1.71-3.887,2.391-5.866,1.655l-0.032-0.007c-0.002,0.002-0.02,0.026-0.026,0.067
						c-0.004,0.029-0.001,0.068,0.021,0.092c0.014,0.014,0.026,0.022,0.039,0.026c0.365,0.136,0.745,0.226,1.139,0.269
						c1.988,0.217,4.106-0.798,5.273-2.526c0.006-0.008,0.012-0.017,0.018-0.026l0.016-0.035l0.039-0.047l-0.02,0.001l-0.012-0.032
						c-0.02-0.071-0.061-0.074-0.085-0.076l-0.066-0.005c-1.669-0.127-3.395-0.259-5.001-0.872c-1.864-0.711-3.181-2.12-4.454-3.482
						l-0.09-0.096c-1.818-1.941-3.844-3.901-6.331-5.09c-3.429-1.64-7.258-1.359-9.754,0.713l-0.162,0.135l-0.222-0.116
						c-0.195-0.069-0.403-0.143-0.61-0.218c-2.881-1.036-5.603-2.015-8.162,0.092L49.254,2.38H49.19l-0.088,0.032l-0.617-0.214
						c-1.651-0.577-3.211-1.121-4.972-0.8c-0.891,0.164-1.824,0.367-2.606,0.733c-0.435,0.205-0.79,0.506-1.166,0.826
						c-0.349,0.296-0.709,0.603-1.145,0.834L38.553,3.81c-0.358,0.126-0.709,0.22-1.073,0.285l-0.055,0.01L37.37,4.096
						c-1.72-0.289-3.742-0.533-5.707-0.161c-2.051,0.393-3.975,1.541-5.879,3.507c-0.715,0.738-1.441,1.614-2.209,2.542
						c-3.001,3.627-6.738,8.143-12.012,5.947c-0.01-0.011-0.021,0.008-0.027,0.037l-0.01,0.058l-0.031,0.051
						C11.49,16.086,11.488,16.095,11.485,16.105z M84.797,11.781L84.797,11.781L84.797,11.781z M84.82,11.74l-0.031,0.036
						C84.801,11.765,84.811,11.753,84.82,11.74z M84.363,11.351l0.023,0.022l0.227-0.033L84.363,11.351z M58.086,2.411
						c0.001,0.001,0.003,0.002,0.005,0.003L58.086,2.411z M58.467,1.898l0.009,0.006C58.473,1.902,58.47,1.9,58.467,1.898z"/>
				</g>
				<g>
					<path d="M23.995,44.577c-0.551,0-1.103-0.035-1.656-0.104c-2.919-0.366-5.842-1.148-8.566-1.939
						C9.314,41.24,5.316,39.045,1.89,36.011l-0.936-0.829l1.219,0.278c0.732,0.167,1.455,0.244,2.165,0.244
						c6.387,0.001,11.824-6.256,14.653-10.267c0.448-0.635,0.89-1.28,1.334-1.927c2.327-3.393,4.734-6.902,8.188-9.31l0,0
						c3.777-2.632,9.703-3.824,13.783-0.224l0.049,0.043l0.028,0.058c1.448,3.013,2.062,6.216,1.822,9.522l-0.018,0.252l-0.25,0.041
						c-2.163,0.352-4.043,1.349-5.435,2.884c-2.551,2.804-3.306,6.956-3.678,10.26c-0.111,0.985-0.095,1.939,0.05,2.918l0.027,0.184
						l-0.147,0.115c-1.042,0.814-2.121,1.539-3.205,2.157C28.981,43.862,26.498,44.577,23.995,44.577z M3.192,36.28
						c3.153,2.586,6.767,4.481,10.759,5.64c2.699,0.784,5.592,1.559,8.467,1.919c2.969,0.37,5.766-0.261,8.805-1.986
						c1.007-0.573,2.01-1.243,2.983-1.992c-0.128-0.969-0.137-1.919-0.027-2.897c0.383-3.4,1.166-7.679,3.841-10.618
						c1.436-1.583,3.353-2.631,5.555-3.041c0.182-3.084-0.406-6.074-1.749-8.891c-3.821-3.32-9.381-2.172-12.945,0.311l0,0
						c-3.358,2.341-5.731,5.801-8.026,9.147c-0.446,0.65-0.89,1.297-1.339,1.934C16.443,30.16,10.365,37.085,3.192,36.28z"/>
				</g>
				<g>
					<path d="M43.477,43.945c-0.084,0-0.166-0.014-0.243-0.043c-0.218-0.083-0.366-0.272-0.406-0.52
						c-1.001-6.274,0.308-12.664,3.686-17.993c0.22-0.349,0.657-0.444,1.013-0.219c0.342,0.215,0.44,0.631,0.229,0.969
						c-3.2,5.051-4.448,11.062-3.516,16.927c0.043,0.267-0.056,0.529-0.265,0.699C43.832,43.882,43.652,43.945,43.477,43.945z
						 M47.122,25.688c-0.027,0-0.049,0.014-0.067,0.042v0.001c-3.294,5.198-4.571,11.43-3.595,17.55
						c0.014,0.027,0.065,0.026,0.109-0.009s0.045-0.072,0.04-0.103c-0.957-6.021,0.324-12.189,3.606-17.37
						c0.016-0.025,0.031-0.05-0.028-0.087C47.163,25.696,47.141,25.688,47.122,25.688z"/>
				</g>
				<g>
					<path d="M45.869,8.781c-0.824,0-1.674-0.16-2.327-0.655c-0.185-0.141-0.299-0.334-0.319-0.545
						c-0.019-0.2,0.05-0.399,0.194-0.56l0.063-0.069c0.164-0.18,0.386-0.261,0.61-0.226c0.204,0.033,0.388,0.16,0.504,0.342
						c0.759,0.385,1.836,0.263,2.422,0.153c0.267-0.051,0.521,0.037,0.697,0.242c0.178,0.208,0.238,0.5,0.152,0.744
						c-0.079,0.224-0.267,0.38-0.517,0.426C46.903,8.717,46.391,8.781,45.869,8.781z M43.986,7.358c-0.01,0-0.031,0.022-0.033,0.025
						l-0.059,0.065C43.87,7.475,43.858,7.5,43.86,7.52c0.002,0.023,0.021,0.06,0.069,0.096c0.926,0.703,2.467,0.545,3.302,0.388
						c0.024-0.005,0.032-0.011,0.032-0.011c0.005-0.01,0.004-0.061-0.028-0.105s-0.067-0.045-0.1-0.039l0,0
						c-0.847,0.159-2.043,0.241-2.934-0.267L44.109,7.53l-0.042-0.097C44.047,7.39,44.008,7.362,43.986,7.358
						C43.987,7.358,43.987,7.358,43.986,7.358z"/>
				</g>
				<g>
					<path d="M48.704,84.596c-18.547,0-34.344-4.143-38.415-10.076c-0.698-1.007-1.052-2.064-1.052-3.14
						c0-3.424,3.498-6.514,10.116-8.935c6.203-2.27,14.703-3.746,23.936-4.158c0.451-0.024,0.815,0.322,0.834,0.763
						c0.02,0.441-0.322,0.815-0.763,0.834c-18.237,0.813-32.523,5.862-32.523,11.495c0,0.744,0.259,1.495,0.77,2.232
						c3.732,5.439,19.333,9.384,37.098,9.384c17.771,0,33.375-3.947,37.103-9.384c0.51-0.74,0.768-1.491,0.768-2.232
						c0-5.8-15.348-10.987-34.213-11.562c-0.072-0.003-0.164-0.003-0.258-0.007c-0.441-0.018-0.784-0.391-0.766-0.832
						s0.394-0.784,0.832-0.766c0.072,0.003,0.144,0.006,0.216,0.006c9.641,0.293,18.554,1.724,25.122,4.029
						c6.978,2.449,10.667,5.607,10.667,9.132c0,1.071-0.353,2.127-1.05,3.138C83.057,80.451,67.257,84.596,48.704,84.596z"/>
				</g>
				<g>
					<path d="M48.704,89.971c-19.768,0-36.176-4.685-39.013-11.141c-0.301-0.674-0.455-1.373-0.455-2.075
						c0-1.075,0.355-2.132,1.054-3.143c3.642-5.305,16.573-9.211,32.942-9.95h0.004c0.029-0.002,0.057-0.004,0.087-0.004
						c0.442,0,0.8,0.358,0.8,0.8c0,0.431-0.341,0.782-0.768,0.799c-0.02,0.002-0.04,0.003-0.061,0.003
						c-15.636,0.707-28.37,4.428-31.687,9.26c-0.513,0.74-0.772,1.491-0.772,2.234c0,0.476,0.107,0.955,0.317,1.427
						c1.176,2.676,5.661,5.279,12.308,7.148c6.976,1.961,15.94,3.041,25.242,3.041c9.303,0,18.269-1.08,25.246-3.041
						c6.647-1.869,11.132-4.472,12.306-7.143c0.213-0.476,0.32-0.956,0.32-1.432c0-0.742-0.258-1.495-0.768-2.237
						c-3.429-4.987-17.154-8.821-33.375-9.321l-0.319-0.009c-0.441-0.013-0.789-0.381-0.776-0.823
						c0.013-0.441,0.371-0.786,0.823-0.776l0.32,0.009c16.964,0.524,30.886,4.548,34.645,10.014
						c0.696,1.014,1.049,2.072,1.049,3.143c0,0.702-0.154,1.401-0.457,2.079C84.883,85.285,68.474,89.971,48.704,89.971z"/>
				</g>
				<g>
					<path d="M48.704,142.263c-7.106,0-13.797-0.892-18.841-2.511c-5.403-1.734-8.259-4.062-8.259-6.732c0-0.442,0.358-0.8,0.8-0.8
						s0.8,0.358,0.8,0.8c0,3.615,10.472,7.643,25.5,7.643c15.03,0,25.503-4.028,25.503-7.643c0-0.442,0.358-0.8,0.8-0.8
						s0.8,0.358,0.8,0.8c0,2.67-2.856,4.998-8.259,6.732C62.503,141.372,55.811,142.263,48.704,142.263z"/>
				</g>
				<g>
					<path d="M87.375,77.555c-0.442,0-0.8-0.358-0.8-0.8v-5.374c0-0.442,0.358-0.8,0.8-0.8s0.8,0.358,0.8,0.8v5.374
						C88.175,77.196,87.817,77.555,87.375,77.555z"/>
				</g>
				<g>
					<path d="M10.036,77.555c-0.442,0-0.8-0.358-0.8-0.8v-5.374c0-0.442,0.358-0.8,0.8-0.8s0.8,0.358,0.8,0.8v5.374
						C10.836,77.196,10.478,77.555,10.036,77.555z"/>
				</g>
				<g>
					<path d="M75.008,133.821c-0.057,0-0.114-0.006-0.172-0.019c-0.431-0.095-0.704-0.521-0.609-0.953l12.368-56.267
						c0.095-0.431,0.521-0.704,0.953-0.609c0.431,0.095,0.704,0.522,0.609,0.953l-0.387,1.753l-11.981,54.513
						C75.706,133.566,75.375,133.821,75.008,133.821z"/>
				</g>
				<g>
					<path d="M22.403,133.821c-0.367,0-0.699-0.255-0.78-0.628L9.642,78.68l-0.387-1.753c-0.095-0.431,0.177-0.858,0.609-0.953
						c0.433-0.096,0.859,0.177,0.953,0.609l0.387,1.753l11.981,54.514c0.095,0.432-0.178,0.858-0.609,0.953
						C22.518,133.815,22.46,133.821,22.403,133.821z"/>
				</g>
			</g>
		</g>
	</g>
	<g>
		<g>
			<path d="M52.481,115.705c-0.112,0-0.225-0.023-0.333-0.073c-0.402-0.184-0.578-0.659-0.394-1.06l4.589-10.017
				c0.184-0.402,0.659-0.578,1.06-0.394c0.402,0.184,0.578,0.659,0.394,1.06l-4.589,10.018
				C53.074,115.531,52.784,115.705,52.481,115.705z"/>
		</g>
	</g>
	<g>
		<g>
			<path d="M41.956,119.748c-0.112,0-0.225-0.024-0.333-0.073c-0.401-0.184-0.577-0.659-0.393-1.061l5.592-12.175
				c0.184-0.401,0.66-0.577,1.061-0.393c0.401,0.184,0.577,0.659,0.393,1.061l-5.592,12.175
				C42.549,119.575,42.259,119.748,41.956,119.748z"/>
		</g>
	</g>
</g>
</svg>
