<?xml version="1.0" encoding="utf-8"?>
<!-- Generator: Adobe Illustrator 26.3.1, SVG Export Plug-In . SVG Version: 6.00 Build 0)  -->
<svg version="1.1" id="Layer_1" xmlns="http://www.w3.org/2000/svg" xmlns:xlink="http://www.w3.org/1999/xlink" x="0px" y="0px"
	 viewBox="0 0 67.875 67.875" style="enable-background:new 0 0 67.875 67.875;" xml:space="preserve">
<style type="text/css">
	.st0{fill:#2B2B2B;}
	.st1{fill:#939393;}
	.st2{fill:#BABABA;}
</style>
<g>
	<g>
		<g id="XMLID_00000026124081735453049340000001775989719192619152_">
			<g>
				<g>
					<path d="M67.629,33.94c0,18.577-15.116,33.689-33.693,33.689S0.246,52.517,0.246,33.94S15.358,0.246,33.935,0.246
						S67.629,15.363,67.629,33.94z"/>
				</g>
				<g>
					<path class="st0" d="M7.032,26.412c0.102,0.033,0.209,0.049,0.311,0.049c0.434,0,0.835-0.278,0.975-0.713
						c0.172-0.537-0.127-1.114-0.663-1.286l-3.526-1.13c2.277-6.385,6.549-11.828,12.061-15.579l1.974,3.125
						c0.197,0.307,0.528,0.479,0.868,0.479c0.184,0,0.373-0.053,0.545-0.16c0.479-0.303,0.623-0.934,0.319-1.413l-1.974-3.121
						c4.702-2.773,10.173-4.37,16.013-4.37c1.093,0,2.175,0.057,3.24,0.168l-0.496,3.674c-0.078,0.561,0.315,1.077,0.876,1.151
						c0.045,0.008,0.09,0.012,0.139,0.012c0.504,0,0.942-0.373,1.012-0.889l0.5-3.67c6.782,1.143,12.835,4.448,17.43,9.182
						L53.909,14.4c-0.418,0.381-0.451,1.028-0.07,1.45c0.201,0.221,0.479,0.332,0.758,0.332c0.246,0,0.491-0.086,0.688-0.266
						l2.728-2.478c4.251,4.984,6.983,11.299,7.478,18.225l-3.698,0.147c-0.565,0.02-1.003,0.5-0.983,1.065
						c0.025,0.549,0.479,0.983,1.024,0.983c0.012,0,0.029,0,0.041,0l3.698-0.147c0.004,0.078,0.008,0.152,0.008,0.229
						c0,6.917-2.236,13.318-6.02,18.532l-2.916-2.257c-0.446-0.348-1.089-0.262-1.438,0.184c-0.344,0.446-0.262,1.089,0.184,1.433
						l2.92,2.261C54.085,59.2,48.282,62.96,41.66,64.627l-0.79-3.624c-0.119-0.553-0.663-0.901-1.216-0.782
						c-0.553,0.123-0.901,0.668-0.782,1.22l0.786,3.616c-1.855,0.34-3.768,0.524-5.721,0.524c-4.947,0-9.633-1.143-13.806-3.174
						l1.724-3.276c0.262-0.504,0.07-1.122-0.43-1.384c-0.504-0.262-1.122-0.07-1.384,0.43l-1.72,3.268
						C12.5,58.127,7.831,53.016,5.067,46.869l3.42-1.401c0.524-0.213,0.774-0.811,0.561-1.335c-0.217-0.524-0.815-0.774-1.335-0.561
						l-3.428,1.405c-1.286-3.44-1.99-7.155-1.99-11.037c0-3.002,0.426-5.902,1.212-8.654L7.032,26.412z M33.935,57.468
						c12.974,0,23.533-10.554,23.533-23.528S46.91,10.411,33.935,10.411S10.407,20.965,10.407,33.94S20.961,57.468,33.935,57.468z"
						/>
				</g>
				<g>
					<path d="M57.468,33.94c0,12.974-10.558,23.528-23.533,23.528S10.407,46.914,10.407,33.94s10.554-23.528,23.528-23.528
						S57.468,20.965,57.468,33.94z M33.935,55.42c11.848,0,21.485-9.637,21.485-21.481s-9.637-21.481-21.485-21.481
						c-11.844,0-21.481,9.637-21.481,21.481S22.091,55.42,33.935,55.42z"/>
				</g>
				<g>
					<path class="st1" d="M55.42,33.94c0,11.844-9.637,21.481-21.485,21.481c-11.844,0-21.481-9.637-21.481-21.481
						s9.637-21.481,21.481-21.481C45.784,12.459,55.42,22.095,55.42,33.94z M33.935,50.878c9.342,0,16.939-7.601,16.939-16.939
						c0-9.342-7.597-16.939-16.939-16.939c-9.338,0-16.935,7.597-16.935,16.939C17.001,43.277,24.598,50.878,33.935,50.878z"/>
				</g>
				<g>
					<path d="M50.874,33.94c0,9.338-7.597,16.939-16.939,16.939c-9.338,0-16.935-7.601-16.935-16.939
						c0-9.342,7.597-16.939,16.935-16.939C43.277,17.001,50.874,24.598,50.874,33.94z M33.935,48.831
						c8.211,0,14.891-6.68,14.891-14.891s-6.68-14.891-14.891-14.891c-8.207,0-14.887,6.68-14.887,14.891
						S25.728,48.831,33.935,48.831z"/>
				</g>
				<g>
					<path class="st2" d="M48.827,33.94c0,8.211-6.68,14.891-14.891,14.891c-8.207,0-14.887-6.68-14.887-14.891
						s6.68-14.891,14.887-14.891C42.147,19.048,48.827,25.728,48.827,33.94z M33.935,42.38c4.657,0,8.441-3.788,8.441-8.441
						s-3.784-8.441-8.441-8.441c-4.652,0-8.441,3.788-8.441,8.441S29.283,42.38,33.935,42.38z"/>
				</g>
				<g>
					<path d="M42.376,33.94c0,4.652-3.784,8.441-8.441,8.441c-4.652,0-8.441-3.788-8.441-8.441s3.788-8.441,8.441-8.441
						C38.592,25.499,42.376,29.287,42.376,33.94z M33.935,40.333c3.526,0,6.393-2.867,6.393-6.393c0-3.526-2.867-6.393-6.393-6.393
						c-3.522,0-6.393,2.867-6.393,6.393C27.542,37.466,30.413,40.333,33.935,40.333z"/>
				</g>
				<g>
					<circle class="st1" cx="33.935" cy="33.94" r="6.393"/>
				</g>
			</g>
		</g>
	</g>
</g>
</svg>
