<?xml version="1.0" encoding="utf-8"?>
<!-- Generator: Adobe Illustrator 26.3.1, SVG Export Plug-In . SVG Version: 6.00 Build 0)  -->
<svg version="1.1" id="Layer_1" xmlns="http://www.w3.org/2000/svg" xmlns:xlink="http://www.w3.org/1999/xlink" x="0px" y="0px"
	 viewBox="0 0 68.932 68.932" style="enable-background:new 0 0 68.932 68.932;" xml:space="preserve">
<style type="text/css">
	.st0{fill:#2B2B2B;}
	.st1{fill:#939393;}
	.st2{fill:#BABABA;}
</style>
<g>
	<g id="XMLID_00000114781651095445275550000009956054909939444404_">
		<g>
			<g>
				<path d="M68.157,34.464c0,18.577-15.116,33.693-33.693,33.693S0.775,53.041,0.775,34.464S15.887,0.775,34.464,0.775
					S68.157,15.887,68.157,34.464z"/>
			</g>
			<g>
				<path class="st0" d="M7.557,26.937c0.106,0.033,0.209,0.049,0.315,0.049c0.434,0,0.835-0.274,0.975-0.713
					c0.172-0.537-0.127-1.114-0.663-1.286l-3.53-1.126c2.281-6.385,6.549-11.832,12.065-15.583l1.974,3.125
					c0.192,0.311,0.528,0.479,0.868,0.479c0.184,0,0.373-0.049,0.545-0.16c0.479-0.299,0.618-0.934,0.319-1.409l-1.974-3.125
					c4.702-2.769,10.173-4.366,16.013-4.366c1.093,0,2.175,0.053,3.24,0.164l-0.5,3.674c-0.074,0.561,0.319,1.077,0.876,1.155
					c0.049,0.004,0.094,0.008,0.139,0.008c0.504,0,0.946-0.373,1.016-0.889l0.496-3.665c6.782,1.143,12.839,4.444,17.43,9.182
					l-2.723,2.478c-0.422,0.381-0.451,1.028-0.07,1.446c0.201,0.221,0.479,0.336,0.758,0.336c0.246,0,0.491-0.09,0.688-0.266
					l2.728-2.482c4.251,4.988,6.983,11.299,7.478,18.229l-3.698,0.143c-0.565,0.025-1.003,0.5-0.983,1.065
					c0.025,0.553,0.475,0.983,1.024,0.983c0.012,0,0.029,0,0.041,0l3.698-0.147c0,0.078,0.008,0.152,0.008,0.229
					c0,6.917-2.24,13.318-6.02,18.532l-2.916-2.257c-0.446-0.344-1.089-0.262-1.438,0.184c-0.344,0.446-0.262,1.089,0.184,1.438
					l2.92,2.257c-4.231,5.107-10.03,8.867-16.652,10.534l-0.79-3.62c-0.119-0.553-0.663-0.905-1.216-0.782
					c-0.553,0.119-0.905,0.663-0.782,1.216l0.786,3.616c-1.859,0.34-3.768,0.528-5.721,0.528c-4.947,0-9.633-1.143-13.806-3.178
					l1.72-3.276c0.266-0.5,0.074-1.118-0.43-1.384c-0.5-0.262-1.118-0.07-1.38,0.43l-1.72,3.268
					c-5.82-3.317-10.488-8.424-13.253-14.576l3.42-1.401c0.524-0.213,0.774-0.811,0.561-1.335c-0.217-0.524-0.815-0.774-1.335-0.557
					l-3.432,1.401c-1.282-3.436-1.986-7.155-1.986-11.037c0-2.998,0.426-5.902,1.212-8.654L7.557,26.937z M34.464,57.997
					c12.974,0,23.528-10.558,23.528-23.533S47.438,10.936,34.464,10.936S10.936,21.49,10.936,34.464S21.49,57.997,34.464,57.997z"/>
			</g>
			<g>
				<path class="st1" d="M55.945,34.464c0,11.848-9.637,21.485-21.481,21.485s-21.481-9.637-21.481-21.485
					c0-11.844,9.637-21.481,21.481-21.481S55.945,22.62,55.945,34.464z M34.464,51.403c9.342,0,16.939-7.597,16.939-16.939
					c0-9.338-7.597-16.939-16.939-16.939c-9.338,0-16.939,7.601-16.939,16.939C17.525,43.806,25.126,51.403,34.464,51.403z"/>
			</g>
			<g>
				<path class="st2" d="M49.355,34.464c0,8.211-6.68,14.891-14.891,14.891s-14.891-6.68-14.891-14.891s6.68-14.891,14.891-14.891
					S49.355,26.253,49.355,34.464z M27.936,32.543c0.549,0.553,1.278,0.852,2.052,0.852c0.778,0,1.507-0.299,2.056-0.852
					c1.134-1.13,1.134-2.973,0-4.108c-0.549-0.549-1.278-0.852-2.056-0.852c-0.774,0-1.503,0.303-2.052,0.852
					c-0.565,0.565-0.852,1.311-0.852,2.056C27.084,31.237,27.371,31.978,27.936,32.543z M27.936,40.677
					c0.549,0.549,1.278,0.852,2.052,0.852c0.778,0,1.507-0.303,2.056-0.852c0.549-0.549,0.852-1.278,0.852-2.056
					c0-0.774-0.303-1.503-0.852-2.052c-0.549-0.549-1.278-0.852-2.056-0.852c-0.774,0-1.503,0.303-2.052,0.852
					c-0.549,0.549-0.852,1.278-0.852,2.052C27.084,39.399,27.387,40.128,27.936,40.677z M38.121,33.395
					c0.745,0,1.487-0.283,2.056-0.852c1.13-1.13,1.13-2.973,0-4.108c-0.569-0.565-1.311-0.852-2.056-0.852
					c-0.745,0-1.487,0.287-2.056,0.852c-1.13,1.134-1.13,2.977,0,4.108C36.635,33.113,37.376,33.395,38.121,33.395z M36.065,40.677
					c0.569,0.565,1.311,0.852,2.056,0.852c0.745,0,1.487-0.287,2.056-0.852c0.549-0.549,0.852-1.278,0.852-2.056
					c0-0.774-0.303-1.503-0.852-2.052c-1.134-1.134-2.977-1.134-4.112,0c-0.549,0.549-0.852,1.278-0.852,2.052
					C35.214,39.399,35.517,40.128,36.065,40.677z"/>
			</g>
			<g>
				<path class="st2" d="M29.382,29.885c-0.336,0.332-0.336,0.876,0,1.212c0.16,0.164,0.385,0.242,0.606,0.242
					c0.225,0,0.446-0.078,0.61-0.242c0.332-0.336,0.332-0.881,0-1.212c-0.164-0.164-0.381-0.254-0.61-0.254
					C29.758,29.631,29.545,29.721,29.382,29.885z"/>
			</g>
			<g>
				<path class="st2" d="M29.382,38.015c-0.16,0.164-0.25,0.377-0.25,0.606s0.09,0.446,0.25,0.61c0.324,0.324,0.889,0.324,1.216,0
					c0.16-0.164,0.25-0.381,0.25-0.61s-0.09-0.442-0.25-0.606c-0.164-0.16-0.381-0.25-0.61-0.25
					C29.758,37.765,29.545,37.855,29.382,38.015z"/>
			</g>
			<g>
				<path class="st2" d="M37.515,29.885c-0.336,0.332-0.336,0.876,0,1.212c0.336,0.336,0.876,0.336,1.212,0
					c0.336-0.336,0.336-0.881,0-1.212c-0.168-0.168-0.385-0.254-0.606-0.254C37.9,29.631,37.683,29.717,37.515,29.885z"/>
			</g>
			<g>
				<path class="st2" d="M37.515,38.015c-0.164,0.164-0.254,0.377-0.254,0.606s0.09,0.446,0.254,0.61
					c0.336,0.332,0.881,0.332,1.212,0c0.164-0.164,0.254-0.381,0.254-0.61s-0.09-0.442-0.254-0.606
					c-0.168-0.168-0.385-0.25-0.606-0.25C37.9,37.765,37.683,37.847,37.515,38.015z"/>
			</g>
		</g>
	</g>
</g>
</svg>
