<?xml version="1.0" encoding="utf-8"?>
<!-- Generator: Adobe Illustrator 26.3.1, SVG Export Plug-In . SVG Version: 6.00 Build 0)  -->
<svg version="1.1" id="Layer_1" xmlns="http://www.w3.org/2000/svg" xmlns:xlink="http://www.w3.org/1999/xlink" x="0px" y="0px"
	 viewBox="0 0 1453.98 126.741" style="enable-background:new 0 0 1453.98 126.741;" xml:space="preserve">
<style type="text/css">
	.st0{fill:#939393;}
</style>
<g>
	<g>
		<rect class="st0" width="1453.98" height="126.741"/>
	</g>
	<g>
		<g>
			<path d="M105.677,64.658H44.289c-0.442,0-0.8-0.358-0.8-0.8s0.358-0.8,0.8-0.8h61.388c0.442,0,0.8,0.358,0.8,0.8
				S106.119,64.658,105.677,64.658z"/>
		</g>
	</g>
	<g>
		<g>
			<path d="M249.243,90.795h-65.946c-0.442,0-0.8-0.358-0.8-0.8s0.358-0.8,0.8-0.8h65.946c0.442,0,0.8,0.358,0.8,0.8
				S249.685,90.795,249.243,90.795z"/>
		</g>
	</g>
	<g>
		<g>
			<path d="M422.216,45.054h-67.374c-0.442,0-0.8-0.358-0.8-0.8s0.358-0.8,0.8-0.8h67.374c0.442,0,0.8,0.358,0.8,0.8
				C423.016,44.696,422.658,45.054,422.216,45.054z"/>
		</g>
	</g>
	<g>
		<g>
			<path d="M533.038,102.557h-70.357c-0.442,0-0.8-0.358-0.8-0.8s0.358-0.8,0.8-0.8h70.357c0.442,0,0.8,0.358,0.8,0.8
				C533.838,102.199,533.48,102.557,533.038,102.557z"/>
		</g>
	</g>
	<g>
		<g>
			<path d="M753.853,35.492h-50.899c-0.442,0-0.8-0.358-0.8-0.8s0.358-0.8,0.8-0.8h50.899c0.442,0,0.8,0.358,0.8,0.8
				S754.295,35.492,753.853,35.492z"/>
		</g>
	</g>
	<g>
		<g>
			<path d="M817.235,90.795h-51.917c-0.442,0-0.8-0.358-0.8-0.8s0.358-0.8,0.8-0.8h51.917c0.442,0,0.8,0.358,0.8,0.8
				S817.677,90.795,817.235,90.795z"/>
		</g>
	</g>
	<g>
		<g>
			<path d="M980.804,45.054h-80.881c-0.442,0-0.8-0.358-0.8-0.8s0.358-0.8,0.8-0.8h80.881c0.442,0,0.8,0.358,0.8,0.8
				S981.246,45.054,980.804,45.054z"/>
		</g>
	</g>
	<g>
		<g>
			<path d="M1088.686,97.329h-87.629c-0.442,0-0.8-0.358-0.8-0.8s0.358-0.8,0.8-0.8h87.629c0.442,0,0.8,0.358,0.8,0.8
				C1089.485,96.971,1089.127,97.329,1088.686,97.329z"/>
		</g>
	</g>
	<g>
		<g>
			<path d="M1324.512,64.658h-98.679c-0.442,0-0.8-0.358-0.8-0.8s0.358-0.8,0.8-0.8h98.679c0.442,0,0.8,0.358,0.8,0.8
				S1324.954,64.658,1324.512,64.658z"/>
		</g>
	</g>
	<g>
		<g>
			<path d="M1416.601,31.269h-37.247c-0.442,0-0.8-0.358-0.8-0.8s0.358-0.8,0.8-0.8h37.247c0.442,0,0.8,0.358,0.8,0.8
				S1417.043,31.269,1416.601,31.269z"/>
		</g>
	</g>
	<g>
		<g>
			<path d="M1395.33,102.557h-27.692c-0.442,0-0.8-0.358-0.8-0.8s0.358-0.8,0.8-0.8h27.692c0.442,0,0.8,0.358,0.8,0.8
				S1395.772,102.557,1395.33,102.557z"/>
		</g>
	</g>
	<g>
		<g>
			<path d="M561.086,35.492h-18.629c-0.442,0-0.8-0.358-0.8-0.8s0.358-0.8,0.8-0.8h18.629c0.442,0,0.8,0.358,0.8,0.8
				S561.528,35.492,561.086,35.492z"/>
		</g>
	</g>
	<g>
		<g>
			<path d="M669.8,82.954h-62.084c-0.442,0-0.8-0.358-0.8-0.8s0.358-0.8,0.8-0.8H669.8c0.442,0,0.8,0.358,0.8,0.8
				S670.242,82.954,669.8,82.954z"/>
		</g>
	</g>
	<g>
		<g>
			<path d="M1160.163,64.658h-50.566c-0.442,0-0.8-0.358-0.8-0.8s0.358-0.8,0.8-0.8h50.566c0.442,0,0.8,0.358,0.8,0.8
				S1160.604,64.658,1160.163,64.658z"/>
		</g>
	</g>
</g>
</svg>
