<?xml version="1.0" encoding="utf-8"?>
<!-- Generator: Adobe Illustrator 26.3.1, SVG Export Plug-In . SVG Version: 6.00 Build 0)  -->
<svg version="1.1" id="Layer_1" xmlns="http://www.w3.org/2000/svg" xmlns:xlink="http://www.w3.org/1999/xlink" x="0px" y="0px"
	 viewBox="0 0 77.282 676.854" style="enable-background:new 0 0 77.282 676.854;" xml:space="preserve">
<style type="text/css">
	.st0{fill:#F75C03;}
	.st1{fill:#2274A5;}
	.st2{fill:#00CC66;}
	.st3{fill:#D90368;}
</style>
<g>
	<g>
		<path class="st0" d="M1.49,264.125V38.642c7.253-7.253,12.914-12.917,18.575-18.575C25.726,14.404,31.383,8.746,38.639,1.49
			c14.509,14.509,22.643,22.643,37.152,37.152v225.482c-14.306,14.306-22.415,22.415-36.547,36.543
			c-0.2-0.2-0.403-0.403-0.606-0.606c-0.203,0.203-0.409,0.406-0.609,0.606C23.899,286.537,15.793,278.431,1.49,264.125z"/>
	</g>
	<g>
		<path d="M38.639,302.767l-1.355-1.354c-14.131-14.131-22.237-22.237-36.54-36.543l-0.309-0.309V38.206l8.169-8.169
			c3.812-3.813,7.264-7.265,10.715-10.714c5.66-5.663,11.318-11.321,18.575-18.577L38.639,0l38.206,38.206v226.355l-0.309,0.309
			c-14.306,14.306-22.415,22.415-36.547,36.543c-0.196,0.199-0.401,0.404-0.606,0.609L38.639,302.767z M2.544,263.688
			c14.066,14.069,22.148,22.151,36.094,36.097c13.947-13.944,22.034-22.031,36.1-36.097V39.079L38.639,2.98
			C31.738,9.881,26.276,15.344,20.81,20.813c-3.452,3.45-6.903,6.901-10.715,10.714l-7.551,7.552V263.688z"/>
	</g>
	<path class="st1" d="M41.402,59.033l7.137,6.5c0,0-3.674,3.557-5.15,3.029L41.402,59.033z"/>
	<g>
		<path class="st2" d="M11.958,265.318c3.244-5.623,8.077-9.999,13.745-12.701c4.17-1.988,8.794-3.07,13.573-3.07
			c-2.382,4.126-5.62,7.58-9.409,10.196C24.685,263.314,18.463,265.318,11.958,265.318z"/>
	</g>
	<g>
		<path class="st2" d="M25.703,246.48c-5.667-2.702-10.5-7.078-13.745-12.701c6.504,0,12.727,2.004,17.909,5.575
			c3.79,2.616,7.028,6.07,9.409,10.193C34.497,249.547,29.873,248.469,25.703,246.48z"/>
	</g>
	<g>
		<path class="st2" d="M11.958,71.21c3.244-5.623,8.077-9.999,13.745-12.701c4.17-1.988,8.794-3.067,13.573-3.067
			c-2.382,4.123-5.62,7.576-9.409,10.193C24.685,69.206,18.463,71.21,11.958,71.21z"/>
	</g>
	<g>
		<path class="st2" d="M25.703,52.372c-5.667-2.702-10.5-7.078-13.745-12.701c6.504,0,12.727,2.004,17.909,5.575
			c3.79,2.616,7.028,6.07,9.409,10.196C34.497,55.442,29.873,54.361,25.703,52.372z"/>
	</g>
	<g>
		<path class="st1" d="M25.703,252.617c-0.222-0.989-0.343-2.014-0.343-3.07c0-1.053,0.121-2.077,0.343-3.067
			c4.17,1.988,8.794,3.067,13.573,3.067C34.497,249.547,29.873,250.629,25.703,252.617z"/>
	</g>
	<g>
		<path class="st1" d="M25.703,58.509c-0.222-0.989-0.343-2.014-0.343-3.067c0-1.053,0.121-2.08,0.343-3.07
			c4.17,1.988,8.794,3.07,13.573,3.07C34.497,55.442,29.873,56.52,25.703,58.509z"/>
	</g>
	<g>
		<path class="st1" d="M35.154,262.746c-1.988-0.599-3.79-1.64-5.287-3.003c3.79-2.616,7.028-6.07,9.409-10.196
			C36.901,253.657,35.528,258.17,35.154,262.746z"/>
	</g>
	<g>
		<path class="st1" d="M29.867,239.354c1.497-1.364,3.298-2.404,5.287-3.003c0.374,4.576,1.747,9.089,4.123,13.196
			C36.895,245.424,33.657,241.971,29.867,239.354z"/>
	</g>
	<g>
		<path class="st1" d="M35.154,68.641c-1.988-0.603-3.79-1.643-5.287-3.006c3.79-2.616,7.028-6.07,9.409-10.193
			C36.901,59.552,35.528,64.062,35.154,68.641z"/>
	</g>
	<g>
		<path class="st1" d="M29.867,45.246c1.497-1.364,3.298-2.404,5.287-3.003c0.374,4.576,1.747,9.089,4.123,13.199
			C36.895,51.316,33.657,47.862,29.867,45.246z"/>
	</g>
	<g>
		<path class="st2" d="M39.276,281.092c-3.263-5.651-4.637-12.057-4.123-18.346c0.374-4.576,1.747-9.089,4.123-13.199
			c2.359,4.088,3.729,8.572,4.113,13.123C43.922,268.978,42.549,275.419,39.276,281.092z"/>
	</g>
	<g>
		<path class="st2" d="M35.154,236.351c-0.517-6.286,0.859-12.695,4.123-18.346c3.276,5.674,4.646,12.115,4.113,18.425
			c-0.384,4.548-1.757,9.032-4.113,13.117C36.901,245.44,35.528,240.927,35.154,236.351z"/>
	</g>
	<g>
		<path class="st2" d="M39.276,86.984c-3.263-5.651-4.637-12.057-4.123-18.343c0.374-4.579,1.747-9.089,4.123-13.199
			c2.359,4.085,3.729,8.569,4.113,13.12C43.922,74.873,42.549,81.311,39.276,86.984z"/>
	</g>
	<g>
		<path class="st2" d="M35.154,42.243c-0.517-6.286,0.859-12.695,4.123-18.343c3.276,5.67,4.646,12.111,4.113,18.422
			c-0.384,4.551-1.757,9.032-4.113,13.12C36.901,51.332,35.528,46.819,35.154,42.243z"/>
	</g>
	<g>
		<path class="st1" d="M43.39,262.67c-0.384-4.551-1.754-9.035-4.113-13.123c2.35,4.075,5.534,7.491,9.263,10.094
			C47.084,260.999,45.33,262.042,43.39,262.67z"/>
	</g>
	<g>
		<path class="st1" d="M39.276,249.547c2.356-4.085,3.729-8.569,4.113-13.117c1.941,0.625,3.695,1.668,5.15,3.025
			C44.81,242.06,41.626,245.475,39.276,249.547z"/>
	</g>
	<g>
		<path class="st1" d="M39.276,55.442c2.356-4.088,3.729-8.569,4.113-13.12c1.941,0.625,3.695,1.668,5.15,3.025
			C44.81,47.951,41.626,51.367,39.276,55.442z"/>
	</g>
	<g>
		<path class="st2" d="M48.54,259.642c-3.729-2.604-6.914-6.019-9.263-10.094c4.69,0,9.229,1.04,13.339,2.962
			c5.769,2.689,10.687,7.11,13.976,12.809C60.023,265.318,53.75,263.279,48.54,259.642z"/>
	</g>
	<g>
		<path class="st2" d="M39.276,249.547c2.35-4.072,5.534-7.488,9.263-10.091c5.211-3.638,11.483-5.677,18.051-5.677
			c-3.289,5.699-8.207,10.117-13.976,12.809C48.505,248.51,43.967,249.547,39.276,249.547z"/>
	</g>
	<g>
		<path class="st2" d="M48.54,65.533c-3.729-2.604-6.914-6.019-9.263-10.091c4.69,0,9.229,1.037,13.339,2.959
			c5.769,2.692,10.687,7.11,13.976,12.809C60.023,71.21,53.75,69.171,48.54,65.533z"/>
	</g>
	<g>
		<path class="st2" d="M39.276,55.442c2.35-4.075,5.534-7.491,9.263-10.094c5.211-3.638,11.483-5.677,18.051-5.677
			c-3.289,5.699-8.207,10.12-13.976,12.809C48.505,54.402,43.967,55.442,39.276,55.442z"/>
	</g>
	<g>
		<path class="st1" d="M52.615,252.509c-4.11-1.922-8.648-2.962-13.339-2.962c4.69,0,9.229-1.037,13.339-2.959
			c0.209,0.955,0.317,1.944,0.317,2.959C52.932,250.565,52.824,251.555,52.615,252.509z"/>
	</g>
	<g>
		<path class="st1" d="M52.615,58.401c-4.11-1.922-8.648-2.959-13.339-2.959c4.69,0,9.229-1.04,13.339-2.962
			c0.209,0.955,0.317,1.944,0.317,2.962C52.932,56.457,52.824,57.446,52.615,58.401z"/>
	</g>
	<g>
		<path d="M40.234,197.027c-3.182,0-6.461-0.801-9.459-2.378c-4.768-2.51-8.452-6.883-10.105-11.997
			c-1.727-5.346-1.204-11.209,1.398-15.686c2.612-4.488,6.895-7.481,11.135-10.048l3.241-1.87c0.569-0.322,1.133-0.64,1.699-0.958
			c4.222-2.376,8.588-4.833,12.384-7.867c3.697-2.955,5.535-6.467,6.147-11.743c0.593-5.141-1.197-10.386-4.911-14.39
			c-3.484-3.757-8.557-5.974-13.63-5.974c-0.112,0-0.224,0.001-0.337,0.003c-5.172,0.098-9.971,2.956-12.525,7.461
			c-2.719,4.794-2.468,10.608,0.626,14.469c2.906,3.631,8.721,5.823,13.418,3.205c2.306-1.283,4.034-3.736,4.509-6.401
			c0.406-2.28-0.147-4.438-1.557-6.079c-1.59-1.844-4.158-2.781-6.393-2.336c-2.302,0.462-4.074,2.419-4.309,4.758
			c-0.114,1.138,0.235,2.294,0.956,3.172c0.692,0.842,1.662,1.362,2.733,1.465c1.092,0.104,2.244-0.423,2.937-1.344
			c0.341-0.454,0.843-1.388,0.382-2.548c-0.332-0.838-1.193-1.422-2.094-1.422c-0.582,0-1.054-0.472-1.054-1.054
			c0-0.582,0.472-1.054,1.054-1.054c1.771,0,3.399,1.106,4.053,2.752c0.614,1.546,0.376,3.22-0.655,4.592
			c-1.124,1.496-3.019,2.354-4.824,2.176c-1.632-0.157-3.109-0.947-4.16-2.225c-1.074-1.308-1.593-3.028-1.424-4.72
			c0.326-3.252,2.79-5.971,5.991-6.614c2.999-0.602,6.3,0.587,8.404,3.028c1.832,2.13,2.554,4.908,2.034,7.823
			c-0.583,3.273-2.713,6.289-5.558,7.873c-5.082,2.831-12.149,1.194-16.088-3.729c-3.627-4.527-3.955-11.289-0.814-16.826
			c2.919-5.149,8.406-8.417,14.318-8.529c5.847-0.114,11.53,2.308,15.552,6.645c4.133,4.456,6.123,10.312,5.459,16.066
			c-0.682,5.881-2.753,9.812-6.925,13.147c-3.93,3.14-8.371,5.639-12.666,8.057c-0.564,0.317-1.126,0.634-1.686,0.951l-3.215,1.854
			c-3.982,2.411-8.012,5.214-10.386,9.294c-2.307,3.967-2.761,9.193-1.215,13.978c1.486,4.595,4.796,8.524,9.081,10.78
			c4.641,2.442,10.003,2.816,14.341,1.004c4.448-1.858,7.803-5.939,8.758-10.651c1.009-4.992-0.906-9.926-4.879-12.569
			c-3.659-2.432-9.266-2.925-12.901,0.841c-1.776,1.844-2.69,4.442-2.442,6.948c0.209,2.115,1.251,3.924,2.935,5.094
			c1.953,1.357,4.447,1.636,6.353,0.71c1.996-0.969,3.268-3.215,3.022-5.34c-0.242-2.11-2.118-3.743-4.231-3.635
			c-0.999,0.049-1.998,0.678-2.547,1.603c-0.277,0.468-0.668,1.408-0.163,2.451c0.368,0.762,1.18,1.273,2.021,1.273
			c0.004,0,0.007,0,0.008,0c0.581,0,1.052,0.47,1.054,1.051c0.002,0.582-0.469,1.055-1.051,1.057c-0.004,0-0.008,0-0.011,0
			c-1.658,0-3.195-0.966-3.918-2.463c-0.682-1.409-0.592-3.03,0.248-4.444c0.914-1.54,2.544-2.548,4.255-2.633
			c3.167-0.155,6.063,2.308,6.429,5.499c0.35,3.033-1.375,6.108-4.195,7.477c-2.581,1.253-5.908,0.909-8.476-0.876
			c-2.199-1.528-3.56-3.879-3.83-6.618c-0.307-3.113,0.822-6.335,3.022-8.618c3.915-4.057,10.469-4.534,15.585-1.133
			c4.689,3.12,6.957,8.906,5.777,14.742c-1.091,5.388-4.927,10.054-10.011,12.177C44.835,196.598,42.56,197.027,40.234,197.027z"/>
	</g>
	<g>
		<g>
			<path class="st0" d="M38.639,375.577c14.509,14.509,22.643,22.643,37.152,37.152v225.482
				c-14.509,14.509-22.643,22.643-37.152,37.152C24.13,660.855,15.996,652.72,1.49,638.211V412.729
				c7.253-7.253,12.914-12.917,18.575-18.575c5.661-5.664,11.315-11.319,18.571-18.578H38.639z"/>
		</g>
		<g>
			<path class="st0" d="M1.49,338.427c7.253-7.256,12.914-12.914,18.575-18.578c5.502-5.499,10.998-11.001,17.966-17.969
				c0.2,0.2,0.406,0.406,0.609,0.609c0.203-0.203,0.406-0.406,0.606-0.609c6.967,6.964,12.467,12.47,17.972,17.969
				c5.658,5.664,11.322,11.322,18.575,18.578c-14.509,14.509-22.643,22.643-37.152,37.149h-0.003
				c-7.256-7.253-12.911-12.914-18.571-18.571C14.404,351.341,8.743,345.683,1.49,338.427z"/>
		</g>
		<g>
			<path d="M38.639,376.632c-0.2,0-0.387-0.056-0.547-0.152c-0.072-0.043-0.14-0.096-0.202-0.158
				c-3.785-3.784-7.134-7.134-10.276-10.277c-2.881-2.881-5.587-5.588-8.295-8.294L0,338.427l19.319-19.323
				c3.109-3.107,6.215-6.214,9.586-9.587l9.734-9.733l9.554,9.553c3.441,3.441,6.604,6.604,9.769,9.766
				c3.252,3.255,6.505,6.508,10.06,10.062l9.26,9.261l-0.745,0.745c-14.501,14.501-22.635,22.635-37.129,37.125
				C39.216,376.503,38.942,376.632,38.639,376.632z M2.98,338.427l17.83,17.832c2.707,2.706,5.414,5.413,8.295,8.295
				c2.934,2.935,6.05,6.052,9.533,9.533c13.8-13.797,21.864-21.861,35.664-35.66l-7.77-7.77c-3.556-3.555-6.809-6.808-10.06-10.063
				c-3.164-3.161-6.327-6.324-9.769-9.766l-8.065-8.065l-8.242,8.244c-3.371,3.373-6.478,6.48-9.586,9.587L2.98,338.427z"/>
		</g>
		<g>
			<path d="M38.639,676.854l-0.745-0.745C23.385,661.6,15.251,653.465,0.745,638.956l-0.309-0.309V412.292l7.865-7.866
				c3.933-3.934,7.476-7.477,11.018-11.018l18.88-18.886h0.876l37.77,37.77v226.355L38.639,676.854z M2.544,637.775
				c14.064,14.066,22.152,22.155,36.096,36.098l36.098-36.098v-224.61l-36.1-36.1L20.81,394.899
				c-3.543,3.541-7.086,7.084-11.019,11.017l-7.248,7.248V637.775z"/>
		</g>
		<g>
			<path class="st2" d="M11.958,639.525c3.244-5.623,8.077-9.999,13.745-12.701c4.17-1.988,8.794-3.07,13.573-3.07
				c-2.382,4.126-5.62,7.579-9.409,10.196C24.685,637.521,18.463,639.525,11.958,639.525z"/>
		</g>
		<g>
			<path class="st2" d="M25.703,620.687c-5.667-2.702-10.5-7.078-13.745-12.701c6.504,0,12.727,2.004,17.909,5.575
				c3.79,2.616,7.028,6.07,9.409,10.193C34.497,623.754,29.873,622.676,25.703,620.687z"/>
		</g>
		<g>
			<path class="st2" d="M11.958,445.417c3.244-5.623,8.077-9.999,13.745-12.701c4.17-1.988,8.794-3.067,13.573-3.067
				c-2.382,4.123-5.62,7.576-9.409,10.193C24.685,443.412,18.463,445.417,11.958,445.417z"/>
		</g>
		<g>
			<path class="st2" d="M25.703,426.579c-5.667-2.702-10.5-7.078-13.745-12.701c6.504,0,12.727,2.004,17.909,5.575
				c3.79,2.616,7.028,6.07,9.409,10.196C34.497,429.649,29.873,428.567,25.703,426.579z"/>
		</g>
		<g>
			<path class="st2" d="M19.722,349.227c1.928-3.343,2.892-7.072,2.892-10.802s-0.964-7.456-2.892-10.798
				c3.86,0,7.57-1.031,10.798-2.895c3.232-1.865,5.978-4.564,7.906-7.906c1.931,3.343,4.678,6.041,7.906,7.906
				c3.232,1.865,6.945,2.895,10.802,2.895c-1.928,3.343-2.895,7.069-2.895,10.798s0.967,7.459,2.895,10.802
				c-7.716,0-14.848,4.116-18.708,10.802c-1.928-3.343-4.675-6.041-7.906-7.906C27.292,350.257,23.581,349.227,19.722,349.227z
				 M25.307,330.852c1.529,4.925,1.529,10.224,0,15.15c5.03,1.138,9.619,3.787,13.12,7.576c3.501-3.79,8.09-6.438,13.123-7.576
				c-1.532-4.925-1.532-10.224,0-15.15c-5.033-1.139-9.622-3.79-13.123-7.576C34.925,327.062,30.336,329.714,25.307,330.852z"/>
		</g>
		<g>
			<path class="st1" d="M25.703,626.824c-0.222-0.989-0.343-2.014-0.343-3.07c0-1.053,0.121-2.077,0.343-3.067
				c4.17,1.988,8.794,3.067,13.573,3.067C34.497,623.754,29.873,624.835,25.703,626.824z"/>
		</g>
		<g>
			<path class="st1" d="M25.703,432.716c-0.222-0.989-0.343-2.014-0.343-3.067c0-1.056,0.121-2.08,0.343-3.07
				c4.17,1.988,8.794,3.07,13.573,3.07C34.497,429.649,29.873,430.727,25.703,432.716z"/>
		</g>
		<g>
			<path class="st3" d="M25.307,346.002c1.529-4.925,1.529-10.224,0-15.15c5.03-1.139,9.619-3.79,13.12-7.576
				c3.501,3.787,8.09,6.438,13.123,7.576c-1.532,4.925-1.532,10.224,0,15.15c-5.033,1.138-9.622,3.787-13.123,7.576
				C34.925,349.788,30.336,347.14,25.307,346.002z M32.119,338.425c0,3.485,2.826,6.308,6.308,6.308
				c3.485,0,6.308-2.822,6.308-6.308c0-3.482-2.822-6.308-6.308-6.308C34.944,332.117,32.119,334.943,32.119,338.425z"/>
		</g>
		<g>
			<path class="st1" d="M35.154,636.953c-1.988-0.599-3.79-1.64-5.287-3.003c3.79-2.616,7.028-6.07,9.409-10.196
				C36.901,627.864,35.528,632.377,35.154,636.953z"/>
		</g>
		<g>
			<path class="st1" d="M29.867,613.561c1.497-1.364,3.298-2.404,5.287-3.003c0.374,4.576,1.747,9.086,4.123,13.196
				C36.895,619.631,33.657,616.178,29.867,613.561z"/>
		</g>
		<g>
			<path class="st1" d="M35.154,442.845c-1.988-0.599-3.79-1.64-5.287-3.003c3.79-2.616,7.028-6.07,9.409-10.193
				C36.901,433.759,35.528,438.269,35.154,442.845z"/>
		</g>
		<g>
			<path class="st1" d="M29.867,419.453c1.497-1.364,3.298-2.404,5.287-3.003c0.374,4.576,1.747,9.089,4.123,13.199
				C36.895,425.523,33.657,422.069,29.867,419.453z"/>
		</g>
		<g>
			<path class="st2" d="M38.426,344.733c-3.482,0-6.308-2.822-6.308-6.308c0-3.482,2.826-6.308,6.308-6.308
				c3.485,0,6.308,2.826,6.308,6.308C44.734,341.911,41.912,344.733,38.426,344.733z M35.008,338.425
				c0,1.887,1.532,3.422,3.419,3.422s3.422-1.535,3.422-3.422c0-1.887-1.535-3.419-3.422-3.419S35.008,336.538,35.008,338.425z"/>
		</g>
		<g>
			<path class="st2" d="M39.276,655.296c-3.263-5.648-4.637-12.054-4.123-18.343c0.374-4.576,1.747-9.089,4.123-13.199
				c2.359,4.088,3.729,8.572,4.113,13.12C43.922,643.185,42.549,649.626,39.276,655.296z"/>
		</g>
		<g>
			<path class="st2" d="M35.154,610.558c-0.517-6.286,0.859-12.695,4.123-18.346c3.276,5.674,4.646,12.115,4.113,18.425
				c-0.384,4.548-1.757,9.032-4.113,13.117C36.901,619.644,35.528,615.134,35.154,610.558z"/>
		</g>
		<g>
			<path class="st2" d="M39.276,461.191c-3.263-5.651-4.637-12.057-4.123-18.346c0.374-4.576,1.747-9.086,4.123-13.196
				c2.359,4.085,3.729,8.569,4.113,13.12C43.922,449.077,42.549,455.517,39.276,461.191z"/>
		</g>
		<g>
			<path class="st2" d="M35.154,416.45c-0.517-6.286,0.859-12.695,4.123-18.343c3.276,5.67,4.646,12.111,4.113,18.422
				c-0.384,4.551-1.757,9.032-4.113,13.12C36.901,425.539,35.528,421.026,35.154,416.45z"/>
		</g>
		<g>
			<path class="st3" d="M38.426,341.847c-1.887,0-3.419-1.535-3.419-3.422c0-1.887,1.532-3.419,3.419-3.419s3.422,1.532,3.422,3.419
				C41.848,340.312,40.313,341.847,38.426,341.847z"/>
		</g>
		<g>
			<path class="st1" d="M43.39,636.874c-0.384-4.548-1.754-9.032-4.113-13.12c2.35,4.075,5.534,7.491,9.263,10.094
				C47.084,635.206,45.33,636.249,43.39,636.874z"/>
		</g>
		<g>
			<path class="st1" d="M39.276,623.754c2.356-4.085,3.729-8.569,4.113-13.117c1.941,0.625,3.695,1.668,5.15,3.025
				C44.81,616.266,41.626,619.682,39.276,623.754z"/>
		</g>
		<g>
			<path class="st1" d="M43.39,442.769c-0.384-4.551-1.754-9.035-4.113-13.12c2.35,4.072,5.534,7.488,9.263,10.091
				C47.084,441.097,45.33,442.144,43.39,442.769z"/>
		</g>
		<g>
			<path class="st1" d="M39.276,429.649c2.356-4.088,3.729-8.569,4.113-13.12c1.941,0.625,3.695,1.668,5.15,3.025
				C44.81,422.158,41.626,425.574,39.276,429.649z"/>
		</g>
		<g>
			<path class="st2" d="M48.54,633.848c-3.729-2.604-6.914-6.019-9.263-10.094c4.69,0,9.229,1.04,13.339,2.962
				c5.769,2.689,10.687,7.11,13.976,12.809C60.023,639.525,53.75,637.486,48.54,633.848z"/>
		</g>
		<g>
			<path class="st2" d="M39.276,623.754c2.35-4.072,5.534-7.488,9.263-10.091c5.211-3.638,11.483-5.677,18.051-5.677
				c-3.289,5.699-8.207,10.117-13.976,12.809C48.505,622.717,43.967,623.754,39.276,623.754z"/>
		</g>
		<g>
			<path class="st2" d="M48.54,439.74c-3.729-2.604-6.914-6.019-9.263-10.091c4.69,0,9.229,1.037,13.339,2.959
				c5.769,2.692,10.687,7.11,13.976,12.809C60.023,445.417,53.75,443.378,48.54,439.74z"/>
		</g>
		<g>
			<path class="st2" d="M39.276,429.649c2.35-4.075,5.534-7.491,9.263-10.094c5.211-3.638,11.483-5.677,18.051-5.677
				c-3.289,5.699-8.207,10.12-13.976,12.809C48.505,428.609,43.967,429.649,39.276,429.649z"/>
		</g>
		<g>
			<path class="st1" d="M52.615,626.716c-4.11-1.922-8.648-2.962-13.339-2.962c4.69,0,9.229-1.037,13.339-2.959
				c0.209,0.955,0.317,1.944,0.317,2.959C52.932,624.772,52.824,625.761,52.615,626.716z"/>
		</g>
		<g>
			<path class="st1" d="M52.615,432.608c-4.11-1.922-8.648-2.959-13.339-2.959c4.69,0,9.229-1.04,13.339-2.962
				c0.209,0.955,0.317,1.944,0.317,2.962C52.932,430.664,52.824,431.653,52.615,432.608z"/>
		</g>
		<g>
			<path d="M38.426,362.137l-0.913-1.582c-1.799-3.119-4.399-5.719-7.52-7.52c-3.12-1.802-6.671-2.754-10.272-2.754h-1.824
				l0.911-1.58c1.8-3.12,2.751-6.673,2.751-10.275c0-3.6-0.951-7.152-2.751-10.272l-0.911-1.58h1.824
				c3.6,0,7.152-0.953,10.272-2.754c3.121-1.801,5.721-4.401,7.52-7.52l0.912-1.581l0.913,1.58c1.803,3.12,4.403,5.721,7.521,7.521
				c3.123,1.802,6.676,2.754,10.275,2.754h1.824l-0.911,1.58c-1.802,3.124-2.755,6.676-2.755,10.272
				c0,3.598,0.953,7.151,2.755,10.275l0.911,1.58h-1.824c-7.317,0-14.136,3.937-17.795,10.275L38.426,362.137z M21.434,348.238
				c3.377,0.257,6.67,1.271,9.613,2.972c2.944,1.699,5.469,4.044,7.379,6.841c3.873-5.663,10.155-9.291,16.996-9.813
				c-1.468-3.057-2.237-6.417-2.237-9.813c0-3.395,0.769-6.753,2.237-9.81c-3.376-0.257-6.67-1.272-9.616-2.972
				c-2.942-1.699-5.467-4.044-7.379-6.841c-1.91,2.797-4.435,5.142-7.379,6.841c-2.944,1.7-6.237,2.714-9.613,2.972
				c1.465,3.054,2.234,6.412,2.234,9.81C23.668,341.824,22.9,345.184,21.434,348.238z"/>
		</g>
		<g>
			<path d="M38.426,355.13l-0.774-0.838c-3.375-3.653-7.724-6.165-12.578-7.263l-1.112-0.252l0.338-1.089
				c1.474-4.751,1.474-9.773,0-14.525l-0.338-1.089l1.112-0.252c4.85-1.098,9.2-3.61,12.578-7.264l0.774-0.837l0.774,0.837
				c3.379,3.655,7.73,6.167,12.582,7.264l1.113,0.252l-0.339,1.089c-1.478,4.751-1.478,9.773,0,14.524l0.339,1.089l-1.113,0.252
				c-4.856,1.098-9.206,3.61-12.582,7.263L38.426,355.13z M26.621,345.242c4.477,1.21,8.521,3.545,11.805,6.816
				c3.284-3.272,7.33-5.607,11.808-6.816c-1.193-4.481-1.193-9.151,0-13.631c-4.476-1.209-8.521-3.545-11.808-6.817
				c-3.287,3.272-7.33,5.608-11.805,6.817C27.811,336.092,27.811,340.762,26.621,345.242z"/>
		</g>
		<g>
			<path d="M38.426,345.787c-4.059,0-7.361-3.302-7.361-7.361s3.302-7.362,7.361-7.362s7.362,3.303,7.362,7.362
				S42.485,345.787,38.426,345.787z M38.426,333.171c-2.897,0-5.254,2.357-5.254,5.254s2.357,5.254,5.254,5.254
				s5.254-2.357,5.254-5.254S41.323,333.171,38.426,333.171z"/>
		</g>
		<g>
			<path d="M38.426,342.901c-2.466,0-4.472-2.008-4.472-4.475c0-2.467,2.006-4.473,4.472-4.473c2.468,0,4.476,2.006,4.476,4.473
				C42.902,340.893,40.894,342.901,38.426,342.901z M38.426,336.06c-1.304,0-2.365,1.061-2.365,2.365
				c0,1.306,1.061,2.368,2.365,2.368c1.306,0,2.368-1.062,2.368-2.368C40.794,337.121,39.732,336.06,38.426,336.06z"/>
		</g>
		<g>
			<path d="M38.316,567.559c-2.327,0-4.601-0.429-6.676-1.296c-5.085-2.124-8.921-6.79-10.011-12.177
				c-1.18-5.837,1.088-11.623,5.777-14.742c5.117-3.402,11.672-2.925,15.585,1.132c2.2,2.284,3.33,5.506,3.023,8.619
				c-0.27,2.739-1.629,5.089-3.827,6.618c-2.572,1.784-5.899,2.127-8.48,0.876c-2.82-1.368-4.546-4.444-4.196-7.478
				c0.366-3.191,3.258-5.663,6.434-5.499c1.711,0.087,3.34,1.097,4.253,2.636c0.838,1.413,0.929,3.032,0.249,4.44
				c-0.728,1.5-2.271,2.467-3.93,2.467c-0.582,0-1.054-0.472-1.054-1.054s0.472-1.054,1.054-1.054c0.845,0,1.662-0.514,2.033-1.278
				c0.502-1.04,0.112-1.98-0.165-2.447c-0.549-0.925-1.548-1.556-2.546-1.606c-2.077-0.105-3.992,1.526-4.234,3.635
				c-0.245,2.126,1.026,4.372,3.023,5.341c1.907,0.925,4.402,0.646,6.357-0.711c1.682-1.17,2.724-2.979,2.932-5.094
				c0.247-2.507-0.666-5.105-2.443-6.95c-3.631-3.766-9.238-3.274-12.9-0.84c-3.972,2.642-5.887,7.576-4.878,12.569
				c0.953,4.711,4.309,8.792,8.758,10.65c4.339,1.813,9.701,1.438,14.341-1.004c4.286-2.256,7.597-6.185,9.082-10.78
				c1.547-4.789,1.093-10.014-1.214-13.978c-2.378-4.083-6.406-6.885-10.405-9.304l-3.203-1.847
				c-0.554-0.314-1.117-0.631-1.682-0.949c-4.294-2.417-8.735-4.916-12.664-8.055c-4.173-3.332-6.243-7.264-6.922-13.147
				c-0.667-5.753,1.323-11.61,5.46-16.067c4.018-4.336,9.678-6.746,15.549-6.644c5.91,0.112,11.397,3.38,14.32,8.528
				c3.137,5.537,2.81,12.3-0.813,16.829c-3.94,4.921-11.008,6.557-16.092,3.729c-2.846-1.586-4.976-4.605-5.558-7.879
				c-0.518-2.914,0.205-5.691,2.037-7.82c2.104-2.441,5.401-3.631,8.405-3.026c3.203,0.641,5.665,3.36,5.988,6.612
				c0.169,1.692-0.35,3.412-1.424,4.72c-1.049,1.277-2.527,2.067-4.16,2.224c-1.813,0.177-3.7-0.68-4.824-2.177
				c-1.031-1.372-1.269-3.046-0.655-4.593c0.658-1.646,2.286-2.751,4.053-2.751c0.582,0,1.054,0.472,1.054,1.054
				c0,0.582-0.472,1.054-1.054,1.054c-0.913,0-1.754,0.572-2.095,1.424c-0.461,1.159,0.042,2.093,0.382,2.546
				c0.692,0.922,1.847,1.45,2.937,1.345c1.072-0.103,2.043-0.623,2.734-1.464c0.721-0.878,1.069-2.034,0.956-3.173
				c-0.232-2.339-2.003-4.294-4.305-4.755c-2.236-0.449-4.803,0.489-6.394,2.334c-1.41,1.639-1.964,3.797-1.559,6.076
				c0.474,2.666,2.201,5.121,4.508,6.406c4.699,2.616,10.514,0.424,13.421-3.205c3.09-3.863,3.341-9.679,0.626-14.472
				c-2.557-4.504-7.357-7.363-12.527-7.46c-5.19-0.122-10.406,2.131-13.964,5.97c-3.718,4.005-5.508,9.25-4.912,14.391
				c0.609,5.279,2.446,8.79,6.144,11.742c3.797,3.033,8.161,5.49,12.382,7.866c0.566,0.319,1.131,0.637,1.694,0.956l3.229,1.862
				c4.257,2.575,8.539,5.567,11.154,10.058c2.604,4.473,3.127,10.337,1.399,15.687c-1.653,5.114-5.336,9.487-10.106,11.997
				C44.777,566.757,41.497,567.558,38.316,567.559z"/>
		</g>
		<g>
			<path d="M39.277,657.403l-0.913-1.58c-3.329-5.763-4.803-12.319-4.26-18.956c0.048-0.58,0.556-1.004,1.136-0.965
				c0.58,0.048,1.012,0.556,0.964,1.136c-0.454,5.565,0.605,11.067,3.072,16.03c2.479-4.989,3.536-10.517,3.064-16.106
				c-0.049-0.58,0.382-1.09,0.962-1.139c0.579-0.046,1.089,0.382,1.139,0.962c0.562,6.662-0.908,13.246-4.251,19.038L39.277,657.403
				z"/>
		</g>
		<g>
			<path d="M68.416,640.579h-1.825c-6.706,0-13.157-2.029-18.655-5.867c-0.477-0.333-0.594-0.99-0.261-1.467
				c0.334-0.477,0.99-0.594,1.467-0.261c4.613,3.22,9.943,5.078,15.52,5.427c-3.096-4.666-7.382-8.358-12.493-10.74
				c-0.527-0.246-0.756-0.873-0.51-1.4c0.246-0.527,0.872-0.756,1.4-0.51c6.09,2.839,11.084,7.416,14.443,13.237L68.416,640.579z"/>
		</g>
		<g>
			<path d="M11.958,640.579h-1.824l0.912-1.58c3.308-5.734,8.22-10.273,14.204-13.126c0.527-0.25,1.155-0.027,1.405,0.498
				c0.25,0.525,0.028,1.154-0.498,1.405c-5.014,2.39-9.222,6.046-12.269,10.636c5.515-0.345,10.797-2.17,15.382-5.329
				c0.48-0.33,1.135-0.209,1.466,0.27c0.33,0.48,0.21,1.136-0.27,1.466C24.995,638.587,18.596,640.579,11.958,640.579z"/>
		</g>
		<g>
			<path d="M30.529,619.759c-0.179,0-0.36-0.045-0.526-0.141l-9.825-5.67c-0.504-0.291-0.677-0.935-0.386-1.44
				c0.291-0.504,0.937-0.676,1.439-0.386l9.825,5.67c0.504,0.291,0.677,0.935,0.386,1.44
				C31.247,619.57,30.893,619.759,30.529,619.759z"/>
		</g>
		<g>
			<path d="M20.706,635.53c-0.364,0-0.718-0.189-0.913-0.527c-0.291-0.504-0.118-1.149,0.386-1.44l9.825-5.67
				c0.503-0.292,1.148-0.118,1.439,0.386c0.291,0.504,0.118,1.149-0.386,1.439l-9.825,5.67
				C21.066,635.485,20.885,635.53,20.706,635.53z"/>
		</g>
		<g>
			<path d="M57.844,635.53c-0.179,0-0.36-0.045-0.526-0.141l-9.825-5.67c-0.504-0.291-0.677-0.935-0.386-1.439
				c0.291-0.504,0.936-0.676,1.439-0.386l9.825,5.67c0.504,0.291,0.677,0.935,0.386,1.44
				C58.562,635.341,58.207,635.53,57.844,635.53z"/>
		</g>
		<g>
			<path d="M39.276,646.059c-0.582,0-1.054-0.472-1.054-1.054v-11.344c0-0.582,0.472-1.054,1.054-1.054s1.054,0.472,1.054,1.054
				v11.344C40.33,645.587,39.858,646.059,39.276,646.059z"/>
		</g>
		<g>
			<path d="M39.276,616.156c-0.582,0-1.054-0.472-1.054-1.054v-11.344c0-0.582,0.472-1.054,1.054-1.054s1.054,0.472,1.054,1.054
				v11.344C40.33,615.685,39.858,616.156,39.276,616.156z"/>
		</g>
		<g>
			<path d="M48.021,619.759c-0.364,0-0.718-0.189-0.913-0.527c-0.291-0.504-0.118-1.148,0.386-1.44l9.825-5.67
				c0.503-0.291,1.148-0.119,1.439,0.386c0.291,0.504,0.118,1.148-0.386,1.44l-9.825,5.67
				C48.381,619.714,48.2,619.759,48.021,619.759z"/>
		</g>
		<g>
			<path d="M36.098,638.338l-1.248-0.376c-2.096-0.631-4.064-1.749-5.692-3.233l-0.98-0.893l1.091-0.753
				c3.753-2.591,6.811-5.902,9.087-9.841c0.003-0.005,0.006-0.01,0.008-0.015l1.825,1.054c0,0,0,0,0,0l0,0
				c0,0.001-0.001,0.002-0.002,0.002c-0.002,0.003-0.003,0.006-0.005,0.009c-2.27,3.931-3.608,8.22-3.978,12.746L36.098,638.338z
				 M31.591,634.003c0.821,0.605,1.714,1.112,2.651,1.504c0.194-1.575,0.499-3.121,0.915-4.633
				C34.046,632.001,32.853,633.049,31.591,634.003z"/>
		</g>
		<g>
			<path d="M25.702,621.741c-0.152,0-0.306-0.033-0.453-0.103c-5.984-2.853-10.896-7.392-14.204-13.126l-0.912-1.58h1.824
				c6.638,0,13.037,1.992,18.507,5.761c0.479,0.33,0.6,0.986,0.27,1.466c-0.331,0.479-0.987,0.599-1.466,0.27
				c-4.584-3.159-9.867-4.984-15.382-5.329c3.047,4.59,7.255,8.245,12.269,10.636c0.525,0.251,0.748,0.88,0.498,1.405
				C26.474,621.519,26.096,621.741,25.702,621.741z"/>
		</g>
		<g>
			<path d="M43.391,611.691c-0.03,0-0.06-0.001-0.09-0.004c-0.58-0.049-1.011-0.559-0.962-1.139
				c0.472-5.592-0.585-11.122-3.063-16.109c-2.47,4.969-3.53,10.472-3.072,16.032c0.048,0.58-0.384,1.089-0.964,1.137
				c-0.575,0.048-1.088-0.383-1.137-0.964c-0.546-6.632,0.927-13.188,4.26-18.96l0.913-1.581l0.913,1.581
				c3.344,5.79,4.814,12.375,4.251,19.041C44.393,611.276,43.933,611.691,43.391,611.691z"/>
		</g>
		<g>
			<path d="M52.616,621.849c-0.397,0-0.777-0.225-0.956-0.608c-0.246-0.527-0.018-1.155,0.509-1.401
				c5.112-2.386,9.398-6.078,12.493-10.74c-5.576,0.349-10.907,2.207-15.52,5.427c-0.477,0.334-1.134,0.217-1.467-0.261
				c-0.333-0.477-0.217-1.134,0.261-1.467c5.497-3.838,11.948-5.866,18.655-5.866h1.825l-0.912,1.581
				c-3.357,5.816-8.351,10.393-14.443,13.237C52.917,621.817,52.765,621.849,52.616,621.849z"/>
		</g>
		<g>
			<path d="M40.189,624.281l-1.826-1.053l0,0c0,0,0,0,0-0.001c2.258-3.915,3.596-8.18,3.976-12.677l0.112-1.32l1.261,0.406
				c2.05,0.659,3.968,1.786,5.546,3.258l0.953,0.889l-1.068,0.746C45.448,617.107,42.435,620.388,40.189,624.281z M44.294,612.108
				c-0.194,1.532-0.494,3.037-0.898,4.511c1.068-1.079,2.214-2.086,3.437-3.016C46.048,613.009,45.193,612.506,44.294,612.108z"/>
		</g>
		<g>
			<path d="M53.362,628.229l-1.193-0.558c-4.062-1.9-8.4-2.863-12.892-2.863V622.7c4.497,0,8.835-0.962,12.892-2.86l1.193-0.558
				l0.282,1.287c0.227,1.034,0.342,2.105,0.342,3.185c0,1.082-0.115,2.154-0.342,3.188L53.362,628.229z M47.522,623.755
				c1.451,0.381,2.878,0.864,4.276,1.448c0.054-0.478,0.081-0.962,0.081-1.449c0-0.485-0.027-0.968-0.08-1.445
				C50.401,622.892,48.974,623.375,47.522,623.755z"/>
		</g>
		<g>
			<path d="M42.451,638.283l-0.112-1.321c-0.38-4.497-1.715-8.76-3.968-12.668c-0.003-0.005-0.005-0.009-0.008-0.014l1.826-1.053
				c0.003,0.005,0.005,0.009,0.008,0.014c2.245,3.888,5.255,7.167,8.946,9.744l1.069,0.746l-0.953,0.889
				c-1.578,1.472-3.496,2.598-5.546,3.258L42.451,638.283z M43.397,630.893c0.403,1.473,0.703,2.978,0.897,4.51
				c0.899-0.398,1.754-0.901,2.539-1.495C45.611,632.978,44.465,631.972,43.397,630.893z"/>
		</g>
		<g>
			<path d="M38.364,624.281L38.364,624.281c-2.247-3.888-5.392-7.295-9.096-9.852l-1.091-0.753l0.98-0.893
				c1.628-1.484,3.596-2.602,5.692-3.233l1.248-0.376l0.106,1.299c0.37,4.528,1.71,8.818,3.983,12.751
				c0.001,0.001,0.002,0.002,0.002,0.004L38.364,624.281z M31.591,613.508c1.262,0.954,2.455,2.002,3.567,3.13
				c-0.416-1.513-0.722-3.059-0.915-4.634C33.306,612.396,32.413,612.903,31.591,613.508z"/>
		</g>
		<g>
			<path d="M24.964,628.344l-0.289-1.289c-0.244-1.089-0.368-2.199-0.368-3.3c0-1.099,0.124-2.208,0.368-3.297l0.289-1.289
				l1.193,0.568c4.067,1.939,8.603,2.964,13.12,2.964v2.108c-4.511,0-9.048,1.026-13.12,2.968L24.964,628.344z M26.509,622.206
				c-0.063,0.516-0.095,1.034-0.095,1.548c0,0.516,0.032,1.034,0.095,1.551c1.477-0.628,3.004-1.146,4.561-1.55
				C29.513,623.351,27.986,622.833,26.509,622.206z"/>
		</g>
		<g>
			<path d="M39.277,463.299l-0.913-1.581c-3.329-5.766-4.803-12.322-4.26-18.959c0.048-0.58,0.556-1.009,1.136-0.965
				c0.58,0.048,1.012,0.556,0.964,1.136c-0.454,5.564,0.606,11.067,3.072,16.032c2.478-4.991,3.536-10.52,3.064-16.105
				c-0.049-0.58,0.382-1.09,0.962-1.139c0.579-0.049,1.089,0.382,1.139,0.962c0.562,6.659-0.908,13.242-4.251,19.037L39.277,463.299
				z"/>
		</g>
		<g>
			<path d="M68.416,446.47h-1.825c-6.707,0-13.158-2.029-18.655-5.866c-0.477-0.333-0.594-0.99-0.261-1.467
				c0.334-0.477,0.99-0.594,1.467-0.261c4.612,3.22,9.943,5.078,15.52,5.427c-3.095-4.663-7.381-8.354-12.493-10.74
				c-0.527-0.246-0.755-0.874-0.509-1.401c0.247-0.527,0.873-0.755,1.401-0.509c6.092,2.844,11.086,7.421,14.443,13.237
				L68.416,446.47z"/>
		</g>
		<g>
			<path d="M11.958,446.47h-1.825l0.912-1.58c3.308-5.734,8.22-10.273,14.204-13.126c0.527-0.25,1.155-0.027,1.405,0.498
				c0.25,0.525,0.028,1.154-0.498,1.405c-5.013,2.39-9.222,6.046-12.269,10.636c5.515-0.345,10.798-2.17,15.382-5.329
				c0.48-0.33,1.135-0.209,1.466,0.27c0.33,0.48,0.21,1.136-0.27,1.466C24.995,444.478,18.596,446.47,11.958,446.47z"/>
		</g>
		<g>
			<path d="M30.529,425.654c-0.179,0-0.36-0.045-0.526-0.141l-9.825-5.674c-0.504-0.291-0.677-0.936-0.386-1.439
				c0.291-0.504,0.937-0.676,1.439-0.386l9.825,5.674c0.504,0.291,0.677,0.936,0.386,1.439
				C31.247,425.465,30.893,425.654,30.529,425.654z"/>
		</g>
		<g>
			<path d="M20.706,441.422c-0.364,0-0.718-0.189-0.913-0.527c-0.291-0.504-0.118-1.149,0.386-1.44l9.825-5.67
				c0.503-0.291,1.148-0.119,1.439,0.386c0.291,0.504,0.118,1.149-0.386,1.439l-9.825,5.67
				C21.066,441.376,20.884,441.422,20.706,441.422z"/>
		</g>
		<g>
			<path d="M57.844,441.422c-0.179,0-0.36-0.045-0.526-0.141l-9.825-5.67c-0.504-0.291-0.677-0.935-0.386-1.439
				c0.291-0.504,0.936-0.676,1.439-0.386l9.825,5.67c0.504,0.291,0.677,0.935,0.386,1.44
				C58.562,441.233,58.207,441.422,57.844,441.422z"/>
		</g>
		<g>
			<path d="M39.276,451.954c-0.582,0-1.054-0.472-1.054-1.054v-11.347c0-0.582,0.472-1.054,1.054-1.054s1.054,0.472,1.054,1.054
				V450.9C40.33,451.482,39.858,451.954,39.276,451.954z"/>
		</g>
		<g>
			<path d="M39.276,422.048c-0.582,0-1.054-0.472-1.054-1.054V409.65c0-0.582,0.472-1.054,1.054-1.054s1.054,0.472,1.054,1.054
				v11.344C40.33,421.576,39.858,422.048,39.276,422.048z"/>
		</g>
		<g>
			<path d="M48.021,425.654c-0.364,0-0.718-0.189-0.913-0.527c-0.291-0.504-0.119-1.148,0.386-1.439l9.825-5.674
				c0.503-0.291,1.148-0.119,1.439,0.386c0.291,0.504,0.119,1.148-0.386,1.439l-9.825,5.674
				C48.381,425.609,48.2,425.654,48.021,425.654z"/>
		</g>
		<g>
			<path d="M36.098,444.23l-1.248-0.376c-2.096-0.631-4.064-1.749-5.692-3.233l-0.98-0.893l1.091-0.753
				c3.701-2.555,6.844-5.959,9.09-9.843c0.002-0.003,0.004-0.006,0.005-0.009l1.825,1.055c-0.001,0.002-0.002,0.004-0.004,0.006
				c-2.271,3.933-3.611,8.222-3.981,12.748L36.098,444.23z M31.591,439.895c0.821,0.605,1.714,1.112,2.651,1.504
				c0.194-1.574,0.5-3.121,0.915-4.634C34.046,437.893,32.853,438.941,31.591,439.895z"/>
		</g>
		<g>
			<path d="M25.702,427.633c-0.152,0-0.306-0.033-0.453-0.103c-5.984-2.853-10.895-7.392-14.204-13.126l-0.912-1.58h1.825
				c6.638,0,13.037,1.992,18.507,5.761c0.479,0.33,0.6,0.986,0.27,1.466c-0.331,0.479-0.987,0.599-1.466,0.27
				c-4.584-3.159-9.867-4.984-15.382-5.329c3.047,4.59,7.256,8.245,12.269,10.636c0.525,0.251,0.748,0.88,0.498,1.405
				C26.474,427.411,26.096,427.633,25.702,427.633z"/>
		</g>
		<g>
			<path d="M43.391,417.583c-0.03,0-0.06-0.001-0.09-0.004c-0.58-0.049-1.011-0.559-0.962-1.139
				c0.472-5.592-0.585-11.121-3.063-16.107c-2.47,4.967-3.53,10.469-3.072,16.03c0.048,0.58-0.384,1.089-0.964,1.137
				c-0.575,0.052-1.088-0.383-1.137-0.964c-0.546-6.633,0.927-13.188,4.26-18.957l0.913-1.579l0.913,1.579
				c3.344,5.788,4.814,12.37,4.251,19.038C44.393,417.167,43.933,417.583,43.391,417.583z"/>
		</g>
		<g>
			<path d="M52.616,427.741c-0.397,0-0.777-0.226-0.956-0.609c-0.246-0.528-0.018-1.155,0.51-1.4
				c5.11-2.383,9.396-6.074,12.493-10.74c-5.576,0.349-10.907,2.207-15.52,5.427c-0.477,0.333-1.134,0.216-1.467-0.261
				c-0.333-0.477-0.217-1.134,0.261-1.467c5.497-3.838,11.948-5.866,18.655-5.866h1.825l-0.912,1.581
				c-3.359,5.821-8.354,10.398-14.443,13.237C52.916,427.709,52.765,427.741,52.616,427.741z"/>
		</g>
		<g>
			<path d="M40.189,430.175l-1.826-1.053c0,0,0,0,0,0c2.259-3.92,3.596-8.186,3.976-12.682l0.112-1.321l1.262,0.406
				c2.05,0.66,3.967,1.786,5.546,3.258l0.953,0.889l-1.069,0.746C45.447,422.999,42.435,426.281,40.189,430.175z M44.294,418
				c-0.194,1.532-0.494,3.037-0.898,4.511c1.068-1.079,2.214-2.086,3.437-3.016C46.048,418.901,45.193,418.398,44.294,418z"/>
		</g>
		<g>
			<path d="M53.362,434.121l-1.193-0.558c-4.058-1.898-8.395-2.86-12.892-2.86v-2.108c4.493,0,8.83-0.963,12.892-2.863l1.193-0.558
				l0.282,1.287c0.227,1.034,0.342,2.106,0.342,3.188c0,1.08-0.115,2.151-0.342,3.185L53.362,434.121z M47.522,429.648
				c1.451,0.38,2.879,0.862,4.276,1.446c0.054-0.477,0.08-0.96,0.08-1.445c0-0.487-0.027-0.971-0.081-1.449
				C50.4,428.784,48.973,429.267,47.522,429.648z"/>
		</g>
		<g>
			<path d="M42.451,444.178l-0.112-1.321c-0.38-4.502-1.715-8.764-3.969-12.67c-0.002-0.004-0.005-0.007-0.007-0.011l1.825-1.054
				c2.247,3.893,5.259,7.175,8.954,9.754l1.069,0.746l-0.953,0.889c-1.582,1.475-3.5,2.602-5.546,3.261L42.451,444.178z
				 M43.397,436.785c0.403,1.474,0.703,2.979,0.897,4.512c0.898-0.398,1.753-0.902,2.539-1.498
				C45.611,438.87,44.465,437.864,43.397,436.785z"/>
		</g>
		<g>
			<path d="M38.364,430.176c-0.003-0.006-0.007-0.012-0.01-0.017c-2.245-3.883-5.386-7.285-9.085-9.839l-1.091-0.753l0.98-0.893
				c1.628-1.484,3.596-2.602,5.692-3.233l1.248-0.376l0.106,1.299c0.37,4.526,1.708,8.813,3.976,12.743
				c0.003,0.005,0.006,0.01,0.009,0.015L38.364,430.176z M31.591,419.4c1.261,0.954,2.454,2.002,3.566,3.129
				c-0.416-1.513-0.721-3.058-0.915-4.633C33.306,418.288,32.413,418.794,31.591,419.4z"/>
		</g>
		<g>
			<path d="M24.964,434.235l-0.289-1.289c-0.244-1.089-0.368-2.199-0.368-3.297c0-1.101,0.124-2.211,0.368-3.301l0.289-1.289
				l1.193,0.568c4.071,1.941,8.608,2.967,13.12,2.967v2.108c-4.516,0-9.053,1.025-13.12,2.964L24.964,434.235z M26.509,428.097
				c-0.063,0.517-0.095,1.036-0.095,1.551c0,0.515,0.032,1.032,0.095,1.548c1.477-0.627,3.003-1.145,4.561-1.549
				C29.513,429.243,27.986,428.725,26.509,428.097z"/>
		</g>
	</g>
	<g>
		<path d="M39.277,283.2l-0.913-1.581c-3.329-5.766-4.803-12.322-4.26-18.959c0.048-0.58,0.556-1.004,1.136-0.965
			c0.58,0.048,1.012,0.556,0.964,1.136c-0.454,5.564,0.606,11.067,3.072,16.032c2.478-4.991,3.536-10.519,3.064-16.105
			c-0.049-0.58,0.382-1.09,0.962-1.139c0.579-0.043,1.089,0.382,1.139,0.962c0.562,6.659-0.908,13.242-4.251,19.037L39.277,283.2z"
			/>
	</g>
	<g>
		<path d="M68.416,266.372h-1.825c-6.706,0-13.157-2.029-18.655-5.867c-0.477-0.333-0.594-0.99-0.261-1.467
			c0.334-0.477,0.99-0.594,1.467-0.261c4.613,3.22,9.943,5.078,15.52,5.427c-3.096-4.666-7.382-8.358-12.493-10.74
			c-0.527-0.246-0.756-0.873-0.51-1.4c0.246-0.527,0.872-0.756,1.4-0.51c6.09,2.839,11.084,7.416,14.443,13.237L68.416,266.372z"/>
	</g>
	<g>
		<path d="M11.958,266.372h-1.824l0.912-1.58c3.308-5.734,8.22-10.273,14.204-13.126c0.527-0.25,1.155-0.027,1.405,0.498
			c0.25,0.525,0.028,1.154-0.498,1.405c-5.014,2.39-9.222,6.046-12.269,10.636c5.515-0.345,10.797-2.17,15.382-5.329
			c0.48-0.33,1.135-0.209,1.466,0.27c0.33,0.48,0.21,1.136-0.27,1.466C24.995,264.38,18.596,266.372,11.958,266.372z"/>
	</g>
	<g>
		<path d="M30.529,245.552c-0.179,0-0.36-0.045-0.526-0.141l-9.825-5.67c-0.504-0.291-0.677-0.935-0.386-1.439
			c0.291-0.504,0.937-0.676,1.439-0.386l9.825,5.67c0.504,0.291,0.677,0.935,0.386,1.439
			C31.247,245.363,30.893,245.552,30.529,245.552z"/>
	</g>
	<g>
		<path d="M20.706,261.323c-0.364,0-0.718-0.189-0.913-0.527c-0.291-0.504-0.118-1.149,0.386-1.439l9.825-5.67
			c0.503-0.292,1.148-0.118,1.439,0.386c0.291,0.504,0.118,1.149-0.386,1.439l-9.825,5.67
			C21.066,261.278,20.885,261.323,20.706,261.323z"/>
	</g>
	<g>
		<path d="M57.844,261.323c-0.179,0-0.36-0.045-0.526-0.141l-9.825-5.67c-0.504-0.291-0.677-0.935-0.386-1.439
			c0.291-0.504,0.936-0.676,1.439-0.386l9.825,5.67c0.504,0.291,0.677,0.935,0.386,1.439
			C58.562,261.134,58.207,261.323,57.844,261.323z"/>
	</g>
	<g>
		<path d="M39.276,271.852c-0.582,0-1.054-0.472-1.054-1.054v-11.344c0-0.582,0.472-1.054,1.054-1.054s1.054,0.472,1.054,1.054
			v11.344C40.33,271.38,39.858,271.852,39.276,271.852z"/>
	</g>
	<g>
		<path d="M39.276,241.949c-0.582,0-1.054-0.472-1.054-1.054v-11.344c0-0.582,0.472-1.054,1.054-1.054s1.054,0.472,1.054,1.054
			v11.344C40.33,241.478,39.858,241.949,39.276,241.949z"/>
	</g>
	<g>
		<path d="M48.021,245.552c-0.364,0-0.718-0.189-0.913-0.527c-0.291-0.504-0.118-1.148,0.386-1.439l9.825-5.67
			c0.503-0.291,1.148-0.118,1.439,0.386c0.291,0.504,0.118,1.148-0.386,1.439l-9.825,5.67
			C48.381,245.507,48.2,245.552,48.021,245.552z"/>
	</g>
	<g>
		<path d="M36.098,264.131l-1.248-0.376c-2.096-0.631-4.064-1.749-5.692-3.233l-0.98-0.893l1.091-0.753
			c3.753-2.591,6.811-5.902,9.087-9.841c0.003-0.005,0.006-0.01,0.008-0.015l1.825,1.054c0,0,0,0,0,0l0,0
			c0,0.001-0.001,0.002-0.002,0.002c-0.002,0.003-0.003,0.006-0.005,0.009c-2.27,3.931-3.608,8.22-3.978,12.746L36.098,264.131z
			 M31.591,259.796c0.821,0.605,1.714,1.112,2.651,1.504c0.194-1.575,0.499-3.121,0.915-4.633
			C34.046,257.795,32.853,258.843,31.591,259.796z"/>
	</g>
	<g>
		<path d="M25.702,247.535c-0.152,0-0.306-0.033-0.453-0.103c-5.984-2.853-10.895-7.392-14.204-13.126l-0.912-1.58h1.825
			c6.638,0,13.037,1.992,18.507,5.761c0.479,0.33,0.6,0.986,0.27,1.466c-0.331,0.479-0.987,0.6-1.466,0.27
			c-4.584-3.159-9.867-4.984-15.382-5.329c3.047,4.59,7.256,8.245,12.269,10.636c0.525,0.251,0.748,0.88,0.498,1.405
			C26.474,247.313,26.096,247.535,25.702,247.535z"/>
	</g>
	<g>
		<path d="M43.391,237.484c-0.03,0-0.06-0.001-0.09-0.004c-0.58-0.049-1.011-0.559-0.962-1.139
			c0.472-5.592-0.585-11.122-3.063-16.109c-2.47,4.969-3.53,10.472-3.072,16.032c0.048,0.58-0.384,1.089-0.964,1.137
			c-0.575,0.049-1.088-0.383-1.137-0.964c-0.546-6.632,0.927-13.188,4.26-18.96l0.913-1.581l0.913,1.581
			c3.344,5.79,4.814,12.375,4.251,19.041C44.393,237.069,43.933,237.484,43.391,237.484z"/>
	</g>
	<g>
		<path d="M52.616,247.642c-0.397,0-0.777-0.225-0.956-0.608c-0.246-0.527-0.018-1.155,0.509-1.401
			c5.112-2.386,9.398-6.078,12.493-10.74c-5.576,0.349-10.907,2.207-15.52,5.427c-0.477,0.333-1.134,0.216-1.467-0.261
			c-0.333-0.477-0.217-1.134,0.261-1.467c5.497-3.838,11.948-5.866,18.655-5.866h1.825l-0.912,1.581
			c-3.357,5.816-8.351,10.393-14.443,13.237C52.917,247.61,52.765,247.642,52.616,247.642z"/>
	</g>
	<g>
		<path d="M40.189,250.074l-1.826-1.053l0,0c0,0,0,0,0,0c2.227-3.86,3.601-8.244,3.976-12.678l0.112-1.321l1.261,0.406
			c2.05,0.659,3.968,1.786,5.546,3.258l0.953,0.889l-1.068,0.746C45.448,242.9,42.435,246.181,40.189,250.074z M44.293,237.901
			c-0.196,1.525-0.502,3.04-0.912,4.527c1.072-1.085,2.224-2.097,3.452-3.032C46.048,238.802,45.192,238.299,44.293,237.901z"/>
	</g>
	<g>
		<path d="M53.362,254.022l-1.193-0.558c-4.062-1.9-8.4-2.863-12.892-2.863v-2.108c4.497,0,8.835-0.962,12.892-2.86l1.193-0.558
			l0.282,1.287c0.227,1.034,0.342,2.105,0.342,3.185c0,1.082-0.115,2.155-0.342,3.188L53.362,254.022z M47.522,249.548
			c1.451,0.381,2.878,0.864,4.276,1.448c0.054-0.478,0.081-0.962,0.081-1.449c0-0.485-0.027-0.968-0.08-1.445
			C50.401,248.685,48.974,249.168,47.522,249.548z"/>
	</g>
	<g>
		<path d="M42.451,264.081l-0.112-1.323c-0.38-4.499-1.715-8.763-3.968-12.671c-0.003-0.005-0.005-0.009-0.008-0.014l1.826-1.053
			l0,0c0,0.001,0,0.001,0.001,0.002c0.002,0.002,0.002,0.004,0.004,0.007c2.245,3.89,5.256,7.17,8.949,9.748l1.069,0.746
			l-0.953,0.889c-1.576,1.47-3.493,2.597-5.544,3.261L42.451,264.081z M43.397,256.686c0.404,1.474,0.703,2.979,0.897,4.512
			c0.899-0.399,1.754-0.903,2.539-1.496C45.611,258.771,44.464,257.765,43.397,256.686z"/>
	</g>
	<g>
		<path d="M38.364,250.075C38.364,250.074,38.364,250.074,38.364,250.075L38.364,250.075c-2.247-3.889-5.392-7.296-9.096-9.853
			l-1.091-0.753l0.98-0.893c1.628-1.484,3.596-2.602,5.692-3.233l1.248-0.376l0.106,1.299c0.365,4.465,1.741,8.87,3.978,12.743
			c0.002,0.003,0.004,0.007,0.006,0.01l0,0c0,0,0,0,0,0L38.364,250.075z M31.591,239.301c1.267,0.958,2.465,2.011,3.582,3.144
			c-0.422-1.526-0.733-3.081-0.929-4.649C33.306,238.189,32.413,238.695,31.591,239.301z"/>
	</g>
	<g>
		<path d="M24.964,254.137l-0.289-1.289c-0.244-1.089-0.368-2.199-0.368-3.301c0-1.099,0.124-2.208,0.368-3.297l0.289-1.289
			l1.193,0.568c4.067,1.939,8.603,2.964,13.12,2.964v2.108c-4.512,0-9.049,1.026-13.12,2.967L24.964,254.137z M26.509,247.999
			c-0.063,0.516-0.095,1.034-0.095,1.548c0,0.516,0.032,1.034,0.095,1.551c1.477-0.628,3.004-1.146,4.561-1.551
			C29.512,249.144,27.986,248.626,26.509,247.999z"/>
	</g>
	<g>
		<path d="M39.277,89.092l-0.913-1.581c-3.329-5.766-4.803-12.321-4.26-18.956c0.047-0.58,0.555-1.012,1.136-0.964
			c0.58,0.047,1.012,0.556,0.964,1.136c-0.454,5.562,0.606,11.064,3.072,16.028c2.478-4.991,3.535-10.519,3.064-16.105
			c-0.049-0.58,0.382-1.09,0.962-1.139c0.579-0.044,1.089,0.382,1.139,0.962c0.562,6.659-0.908,13.242-4.251,19.037L39.277,89.092z"
			/>
	</g>
	<g>
		<path d="M68.416,72.264h-1.825c-6.707,0-13.158-2.029-18.655-5.866c-0.477-0.333-0.594-0.99-0.261-1.467
			c0.334-0.477,0.99-0.594,1.467-0.261c4.612,3.22,9.943,5.078,15.52,5.427c-3.095-4.663-7.381-8.354-12.493-10.74
			c-0.527-0.246-0.755-0.873-0.509-1.401c0.247-0.527,0.873-0.754,1.401-0.509c6.092,2.844,11.086,7.421,14.443,13.237
			L68.416,72.264z"/>
	</g>
	<g>
		<path d="M11.958,72.264h-1.825l0.912-1.58c3.308-5.734,8.22-10.273,14.204-13.126c0.527-0.25,1.155-0.027,1.405,0.498
			c0.25,0.525,0.028,1.154-0.498,1.405c-5.013,2.39-9.222,6.046-12.269,10.636c5.515-0.345,10.798-2.17,15.382-5.329
			c0.48-0.33,1.135-0.209,1.466,0.27c0.33,0.48,0.21,1.136-0.27,1.466C24.995,70.271,18.596,72.264,11.958,72.264z"/>
	</g>
	<g>
		<path d="M30.529,51.447c-0.179,0-0.36-0.045-0.526-0.141l-9.825-5.674c-0.504-0.291-0.677-0.936-0.386-1.439
			c0.291-0.504,0.937-0.676,1.439-0.386l9.825,5.674c0.504,0.291,0.677,0.936,0.386,1.439
			C31.247,51.258,30.893,51.447,30.529,51.447z"/>
	</g>
	<g>
		<path d="M20.706,67.215c-0.364,0-0.718-0.189-0.913-0.527c-0.291-0.504-0.118-1.149,0.386-1.439l9.825-5.67
			c0.503-0.291,1.148-0.119,1.439,0.386s0.118,1.149-0.386,1.439l-9.825,5.67C21.066,67.17,20.884,67.215,20.706,67.215z"/>
	</g>
	<g>
		<path d="M57.844,67.215c-0.179,0-0.36-0.045-0.526-0.141l-9.825-5.67c-0.504-0.291-0.677-0.935-0.386-1.439
			c0.291-0.504,0.936-0.676,1.439-0.386l9.825,5.67c0.504,0.291,0.677,0.935,0.386,1.439C58.562,67.026,58.207,67.215,57.844,67.215
			z"/>
	</g>
	<g>
		<path d="M39.276,77.747c-0.582,0-1.054-0.472-1.054-1.054V65.346c0-0.582,0.472-1.054,1.054-1.054s1.054,0.472,1.054,1.054v11.347
			C40.33,77.275,39.858,77.747,39.276,77.747z"/>
	</g>
	<g>
		<path d="M39.276,47.841c-0.582,0-1.054-0.472-1.054-1.054V35.444c0-0.582,0.472-1.054,1.054-1.054s1.054,0.472,1.054,1.054v11.344
			C40.33,47.369,39.858,47.841,39.276,47.841z"/>
	</g>
	<g>
		<path d="M48.021,51.447c-0.364,0-0.718-0.189-0.913-0.527c-0.291-0.504-0.119-1.148,0.386-1.439l9.825-5.674
			c0.503-0.291,1.148-0.119,1.439,0.386c0.291,0.504,0.119,1.148-0.386,1.439l-9.825,5.674C48.381,51.402,48.2,51.447,48.021,51.447
			z"/>
	</g>
	<g>
		<path d="M36.098,70.028l-1.249-0.379c-2.097-0.636-4.065-1.754-5.691-3.236l-0.98-0.893l1.091-0.753
			c3.701-2.555,6.844-5.959,9.09-9.844c0.002-0.002,0.004-0.006,0.005-0.009l1.825,1.055c-0.002,0.003-0.004,0.006-0.006,0.009
			c-2.271,3.932-3.609,8.221-3.979,12.748L36.098,70.028z M31.591,65.688c0.82,0.605,1.714,1.112,2.651,1.506
			c0.194-1.575,0.5-3.123,0.916-4.636C34.046,63.686,32.853,64.734,31.591,65.688z"/>
	</g>
	<g>
		<path d="M25.702,53.426c-0.152,0-0.306-0.033-0.453-0.103c-5.984-2.853-10.895-7.392-14.204-13.126l-0.912-1.58h1.825
			c6.638,0,13.037,1.992,18.507,5.761c0.479,0.33,0.6,0.986,0.27,1.466c-0.331,0.479-0.987,0.6-1.466,0.27
			c-4.584-3.159-9.867-4.984-15.382-5.329c3.047,4.59,7.256,8.245,12.269,10.636c0.525,0.251,0.748,0.88,0.498,1.405
			C26.474,53.204,26.096,53.426,25.702,53.426z"/>
	</g>
	<g>
		<path d="M43.391,43.376c-0.03,0-0.06-0.001-0.09-0.004c-0.58-0.049-1.011-0.559-0.962-1.139
			c0.472-5.592-0.585-11.121-3.063-16.107c-2.47,4.967-3.53,10.469-3.072,16.03c0.048,0.58-0.384,1.089-0.964,1.137
			c-0.575,0.054-1.088-0.383-1.137-0.964c-0.546-6.633,0.927-13.188,4.26-18.957l0.913-1.579l0.913,1.579
			c3.344,5.788,4.814,12.37,4.251,19.038C44.393,42.96,43.933,43.376,43.391,43.376z"/>
	</g>
	<g>
		<path d="M52.616,53.534c-0.397,0-0.777-0.226-0.956-0.609c-0.246-0.528-0.018-1.155,0.51-1.4c5.11-2.383,9.396-6.074,12.493-10.74
			c-5.576,0.349-10.907,2.207-15.52,5.427c-0.477,0.333-1.134,0.216-1.467-0.261c-0.333-0.477-0.217-1.134,0.261-1.467
			c5.497-3.838,11.948-5.866,18.655-5.866h1.825l-0.912,1.581c-3.359,5.821-8.354,10.398-14.443,13.237
			C52.916,53.502,52.765,53.534,52.616,53.534z"/>
	</g>
	<g>
		<path d="M40.189,55.969l-1.826-1.053c0,0,0,0,0,0c2.259-3.92,3.596-8.186,3.976-12.682l0.112-1.321l1.262,0.406
			c2.05,0.66,3.967,1.786,5.546,3.258l0.953,0.889l-1.069,0.746C45.447,48.792,42.435,52.074,40.189,55.969z M44.294,43.793
			c-0.194,1.532-0.494,3.037-0.898,4.511c1.068-1.079,2.214-2.086,3.437-3.016C46.048,44.694,45.193,44.191,44.294,43.793z"/>
	</g>
	<g>
		<path d="M53.362,59.914l-1.193-0.558c-4.058-1.898-8.395-2.86-12.892-2.86v-2.108c4.493,0,8.83-0.963,12.892-2.863l1.193-0.558
			l0.282,1.287c0.227,1.034,0.342,2.106,0.342,3.188c0,1.08-0.115,2.151-0.342,3.185L53.362,59.914z M47.522,55.441
			c1.451,0.38,2.879,0.862,4.276,1.446c0.054-0.477,0.08-0.96,0.08-1.445c0-0.487-0.027-0.971-0.081-1.449
			C50.4,54.578,48.973,55.06,47.522,55.441z"/>
	</g>
	<g>
		<path d="M42.451,69.971L42.34,68.65c-0.38-4.502-1.715-8.764-3.969-12.67c-0.002-0.004-0.005-0.007-0.007-0.011l1.825-1.054
			c2.247,3.893,5.259,7.175,8.954,9.754l1.069,0.746l-0.953,0.889c-1.582,1.475-3.5,2.602-5.546,3.261L42.451,69.971z
			 M43.397,62.578c0.403,1.474,0.703,2.979,0.897,4.512c0.898-0.398,1.753-0.902,2.539-1.498
			C45.611,64.664,44.465,63.657,43.397,62.578z"/>
	</g>
	<g>
		<path d="M38.364,55.969c-0.003-0.006-0.007-0.012-0.01-0.017c-2.245-3.883-5.386-7.285-9.085-9.839l-1.091-0.753l0.98-0.893
			c1.628-1.484,3.596-2.602,5.692-3.233l1.248-0.376l0.106,1.299c0.37,4.526,1.708,8.813,3.976,12.743
			c0.003,0.005,0.006,0.01,0.009,0.015L38.364,55.969z M31.591,45.193c1.261,0.954,2.454,2.002,3.566,3.129
			c-0.416-1.513-0.721-3.058-0.915-4.633C33.306,44.081,32.413,44.588,31.591,45.193z"/>
	</g>
	<g>
		<path d="M24.964,60.028l-0.289-1.289c-0.244-1.089-0.368-2.199-0.368-3.297c0-1.101,0.124-2.211,0.368-3.3l0.289-1.289
			l1.193,0.568c4.071,1.941,8.608,2.967,13.12,2.967v2.108c-4.516,0-9.053,1.025-13.12,2.964L24.964,60.028z M26.509,53.891
			c-0.063,0.517-0.095,1.036-0.095,1.551c0,0.515,0.032,1.032,0.095,1.548c1.477-0.627,3.003-1.145,4.561-1.549
			C29.513,55.037,27.986,54.518,26.509,53.891z"/>
	</g>
</g>
</svg>
