<?xml version="1.0" encoding="utf-8"?>
<!-- Generator: Adobe Illustrator 26.3.1, SVG Export Plug-In . SVG Version: 6.00 Build 0)  -->
<svg version="1.1" id="Layer_1" xmlns="http://www.w3.org/2000/svg" xmlns:xlink="http://www.w3.org/1999/xlink" x="0px" y="0px"
	 viewBox="0 0 280.298 140.481" style="enable-background:new 0 0 280.298 140.481;" xml:space="preserve">
<style type="text/css">
	.st0{fill:#F2B41B;}
</style>
<g>
	<path class="st0" d="M140.149,0.332C62.93,0.332,0.332,62.93,0.332,140.149h279.633C279.966,62.93,217.368,0.332,140.149,0.332z"/>
	<path d="M280.298,140.481H0v-0.332c0-18.92,3.706-37.274,11.014-54.552c7.059-16.689,17.164-31.677,30.035-44.548
		s27.859-22.976,44.548-30.035C102.875,3.706,121.229,0,140.149,0s37.274,3.706,54.552,11.014
		c16.689,7.059,31.677,17.164,44.548,30.035s22.976,27.859,30.035,44.548c7.308,17.279,11.014,35.633,11.014,54.552V140.481z
		 M0.665,139.817h278.968C279.45,63.059,216.948,0.664,140.149,0.664S0.848,63.059,0.665,139.817z"/>
</g>
</svg>
