<svg width="677" height="78" viewBox="0 0 677 78" fill="none" xmlns="http://www.w3.org/2000/svg">
<g clip-path="url(#clip0_15_2)">
<path d="M412.729 1.49002L638.212 1.49003C645.465 8.74303 651.129 14.404 656.787 20.065C662.45 25.726 668.108 31.383 675.364 38.639C660.855 53.148 652.721 61.282 638.212 75.791L412.73 75.791C398.424 61.485 390.315 53.376 376.187 39.244C376.387 39.044 376.59 38.841 376.793 38.638C376.59 38.435 376.387 38.229 376.187 38.029C390.317 23.899 398.423 15.793 412.729 1.49002Z" fill="#F75C03"/>
<path d="M374.087 38.639L375.441 37.284C389.572 23.153 397.678 15.047 411.984 0.744017L412.293 0.435017L638.648 0.435026L646.817 8.60403C650.63 12.416 654.082 15.868 657.531 19.319C663.194 24.979 668.852 30.637 676.108 37.894L676.854 38.639L638.648 76.845L412.293 76.845L411.984 76.536C397.678 62.23 389.569 54.121 375.441 39.989C375.242 39.793 375.037 39.588 374.832 39.383L374.087 38.639ZM413.166 2.54402C399.097 16.61 391.015 24.692 377.069 38.638C391.013 52.585 399.1 60.672 413.166 74.738L637.775 74.738L673.874 38.639C666.973 31.738 661.51 26.276 656.041 20.81C652.591 17.358 649.14 13.907 645.327 10.095L637.775 2.54403L413.166 2.54402Z" fill="black"/>
<path d="M617.821 41.402L611.321 48.539C611.321 48.539 607.764 44.865 608.292 43.389L617.821 41.402Z" fill="#2274A5"/>
<path d="M411.536 11.958C417.159 15.202 421.535 20.035 424.237 25.703C426.225 29.873 427.307 34.497 427.307 39.276C423.181 36.894 419.727 33.656 417.111 29.867C413.54 24.685 411.536 18.463 411.536 11.958Z" fill="#00CC66"/>
<path d="M430.374 25.703C433.076 20.036 437.452 15.203 443.075 11.958C443.075 18.462 441.071 24.685 437.5 29.867C434.884 33.657 431.43 36.895 427.307 39.276C427.307 34.497 428.385 29.873 430.374 25.703Z" fill="#00CC66"/>
<path d="M605.644 11.958C611.267 15.202 615.643 20.035 618.345 25.703C620.333 29.873 621.412 34.497 621.412 39.276C617.289 36.894 613.836 33.656 611.219 29.867C607.648 24.685 605.644 18.463 605.644 11.958Z" fill="#00CC66"/>
<path d="M624.482 25.703C627.184 20.036 631.56 15.203 637.183 11.958C637.183 18.462 635.179 24.685 631.608 29.867C628.992 33.657 625.538 36.895 621.412 39.276C621.412 34.497 622.493 29.873 624.482 25.703Z" fill="#00CC66"/>
<path d="M424.237 25.703C425.226 25.481 426.251 25.36 427.307 25.36C428.36 25.36 429.384 25.481 430.374 25.703C428.386 29.873 427.307 34.497 427.307 39.276C427.307 34.497 426.225 29.873 424.237 25.703Z" fill="#2274A5"/>
<path d="M618.345 25.703C619.334 25.481 620.359 25.36 621.412 25.36C622.465 25.36 623.492 25.481 624.482 25.703C622.494 29.873 621.412 34.497 621.412 39.276C621.412 34.497 620.334 29.873 618.345 25.703Z" fill="#2274A5"/>
<path d="M414.108 35.154C414.707 33.166 415.748 31.364 417.111 29.867C419.727 33.657 423.181 36.895 427.307 39.276C423.197 36.901 418.684 35.528 414.108 35.154Z" fill="#2274A5"/>
<path d="M437.5 29.867C438.864 31.364 439.904 33.165 440.503 35.154C435.927 35.528 431.414 36.901 427.307 39.277C431.43 36.895 434.883 33.657 437.5 29.867Z" fill="#2274A5"/>
<path d="M608.213 35.154C608.816 33.166 609.856 31.364 611.219 29.867C613.835 33.657 617.289 36.895 621.412 39.276C617.302 36.901 612.792 35.528 608.213 35.154Z" fill="#2274A5"/>
<path d="M631.608 29.867C632.972 31.364 634.012 33.165 634.611 35.154C630.035 35.528 625.522 36.901 621.412 39.277C625.538 36.895 628.992 33.657 631.608 29.867Z" fill="#2274A5"/>
<path d="M395.762 39.276C401.413 36.013 407.819 34.639 414.108 35.153C418.684 35.527 423.197 36.9 427.307 39.276C423.219 41.635 418.735 43.005 414.184 43.389C407.876 43.922 401.435 42.549 395.762 39.276Z" fill="#00CC66"/>
<path d="M440.503 35.154C446.789 34.637 453.198 36.013 458.849 39.277C453.175 42.553 446.734 43.923 440.424 43.39C435.876 43.006 431.392 41.633 427.307 39.277C431.414 36.901 435.927 35.528 440.503 35.154Z" fill="#00CC66"/>
<path d="M589.87 39.276C595.521 36.013 601.927 34.639 608.213 35.153C612.792 35.527 617.302 36.9 621.412 39.276C617.327 41.635 612.843 43.005 608.292 43.389C601.981 43.922 595.543 42.549 589.87 39.276Z" fill="#00CC66"/>
<path d="M634.611 35.154C640.897 34.637 647.306 36.013 652.954 39.277C647.284 42.553 640.843 43.923 634.532 43.39C629.981 43.006 625.5 41.633 621.412 39.277C625.522 36.901 630.035 35.528 634.611 35.154Z" fill="#00CC66"/>
<path d="M414.184 43.39C418.735 43.006 423.219 41.636 427.307 39.277C423.232 41.627 419.816 44.811 417.213 48.54C415.855 47.084 414.812 45.33 414.184 43.39Z" fill="#2274A5"/>
<path d="M427.307 39.276C431.392 41.632 435.876 43.005 440.424 43.389C439.799 45.33 438.756 47.084 437.399 48.539C434.794 44.81 431.379 41.626 427.307 39.276Z" fill="#2274A5"/>
<path d="M621.412 39.276C625.5 41.632 629.981 43.005 634.532 43.389C633.907 45.33 632.864 47.084 631.507 48.539C628.903 44.81 625.487 41.626 621.412 39.276Z" fill="#2274A5"/>
<path d="M417.212 48.54C419.816 44.811 423.231 41.626 427.306 39.277C427.306 43.967 426.266 48.506 424.344 52.616C421.655 58.385 417.234 63.303 411.535 66.592C411.536 60.023 413.575 53.75 417.212 48.54Z" fill="#00CC66"/>
<path d="M427.307 39.276C431.379 41.626 434.795 44.81 437.398 48.539C441.036 53.75 443.075 60.022 443.075 66.59C437.376 63.301 432.958 58.383 430.266 52.614C428.344 48.505 427.307 43.967 427.307 39.276Z" fill="#00CC66"/>
<path d="M611.321 48.54C613.925 44.811 617.34 41.626 621.412 39.277C621.412 43.967 620.375 48.506 618.453 52.616C615.761 58.385 611.343 63.303 605.644 66.592C605.644 60.023 607.683 53.75 611.321 48.54Z" fill="#00CC66"/>
<path d="M621.412 39.276C625.487 41.626 628.903 44.81 631.506 48.539C635.144 53.75 637.183 60.022 637.183 66.59C631.484 63.301 627.063 58.383 624.374 52.614C622.452 48.505 621.412 43.967 621.412 39.276Z" fill="#00CC66"/>
<path d="M424.345 52.615C426.267 48.505 427.307 43.967 427.307 39.276C427.307 43.966 428.344 48.505 430.266 52.615C429.311 52.824 428.322 52.932 427.307 52.932C426.289 52.932 425.299 52.824 424.345 52.615Z" fill="#2274A5"/>
<path d="M618.453 52.615C620.375 48.505 621.412 43.967 621.412 39.276C621.412 43.966 622.452 48.505 624.374 52.615C623.419 52.824 622.43 52.932 621.412 52.932C620.397 52.932 619.408 52.824 618.453 52.615Z" fill="#2274A5"/>
<path d="M479.827 40.234C479.827 37.052 480.628 33.773 482.205 30.775C484.715 26.007 489.088 22.323 494.202 20.67C499.548 18.943 505.411 19.466 509.888 22.068C514.376 24.68 517.369 28.963 519.936 33.203L521.806 36.444C522.128 37.013 522.446 37.577 522.764 38.143C525.14 42.365 527.597 46.731 530.631 50.527C533.586 54.224 537.098 56.062 542.374 56.674C547.515 57.267 552.76 55.477 556.764 51.763C560.521 48.279 562.738 43.206 562.738 38.133C562.738 38.021 562.737 37.909 562.735 37.796C562.637 32.624 559.779 27.825 555.274 25.271C550.48 22.552 544.666 22.803 540.805 25.897C537.174 28.803 534.982 34.618 537.6 39.315C538.883 41.621 541.336 43.349 544.001 43.824C546.281 44.23 548.439 43.677 550.08 42.267C551.924 40.677 552.861 38.109 552.416 35.874C551.954 33.572 549.997 31.8 547.658 31.565C546.52 31.451 545.364 31.8 544.486 32.521C543.644 33.213 543.124 34.183 543.021 35.254C542.917 36.346 543.444 37.498 544.365 38.191C544.819 38.532 545.753 39.034 546.913 38.573C547.751 38.241 548.335 37.38 548.335 36.479C548.335 35.897 548.807 35.425 549.389 35.425C549.971 35.425 550.443 35.897 550.443 36.479C550.443 38.25 549.337 39.878 547.691 40.532C546.145 41.146 544.471 40.908 543.099 39.877C541.603 38.753 540.745 36.858 540.923 35.053C541.08 33.421 541.87 31.944 543.148 30.893C544.456 29.819 546.176 29.3 547.868 29.469C551.12 29.795 553.839 32.259 554.482 35.46C555.084 38.459 553.895 41.76 551.454 43.864C549.324 45.696 546.546 46.418 543.631 45.898C540.358 45.315 537.342 43.185 535.758 40.34C532.927 35.258 534.564 28.191 539.487 24.252C544.014 20.625 550.776 20.297 556.313 23.438C561.462 26.357 564.73 31.844 564.842 37.756C564.956 43.603 562.534 49.286 558.197 53.308C553.741 57.441 547.885 59.431 542.131 58.767C536.25 58.085 532.319 56.014 528.984 51.842C525.844 47.912 523.345 43.471 520.927 39.176C520.61 38.612 520.293 38.05 519.976 37.49L518.122 34.275C515.711 30.293 512.908 26.263 508.828 23.889C504.861 21.582 499.635 21.128 494.85 22.674C490.255 24.16 486.326 27.47 484.07 31.755C481.628 36.396 481.254 41.758 483.066 46.096C484.924 50.544 489.005 53.899 493.717 54.854C498.709 55.863 503.643 53.948 506.286 49.975C508.718 46.316 509.211 40.709 505.445 37.074C503.601 35.298 501.003 34.384 498.497 34.632C496.382 34.841 494.573 35.883 493.403 37.567C492.046 39.52 491.767 42.014 492.693 43.92C493.662 45.916 495.908 47.188 498.033 46.942C500.143 46.7 501.776 44.824 501.668 42.711C501.619 41.712 500.99 40.713 500.065 40.164C499.597 39.887 498.657 39.496 497.614 40.001C496.852 40.369 496.341 41.181 496.341 42.022C496.341 42.026 496.341 42.03 496.341 42.03C496.341 42.611 495.871 43.082 495.29 43.084C494.708 43.086 494.235 42.615 494.233 42.033C494.233 42.029 494.233 42.025 494.233 42.022C494.233 40.364 495.199 38.827 496.696 38.104C498.105 37.422 499.726 37.512 501.14 38.352C502.68 39.266 503.688 40.896 503.773 42.607C503.928 45.774 501.465 48.67 498.274 49.036C495.241 49.386 492.166 47.661 490.797 44.841C489.544 42.26 489.888 38.933 491.673 36.365C493.201 34.166 495.552 32.805 498.291 32.535C501.404 32.228 504.626 33.357 506.909 35.557C510.966 39.472 511.443 46.026 508.042 51.142C504.922 55.831 499.136 58.099 493.3 56.919C487.912 55.828 483.246 51.992 481.123 46.908C480.256 44.835 479.827 42.56 479.827 40.234Z" fill="black"/>
<path d="M301.277 38.639C286.768 53.148 278.634 61.282 264.125 75.791L38.6431 75.791C24.1341 61.282 16.0001 53.148 1.49109 38.639C15.9991 24.13 24.1341 15.996 38.6431 1.48999L264.125 1.49C271.378 8.743 277.042 14.404 282.7 20.065C288.364 25.726 294.019 31.38 301.278 38.636L301.278 38.639L301.277 38.639Z" fill="#F75C03"/>
<path d="M338.427 1.49002C345.683 8.74302 351.341 14.404 357.005 20.065C362.504 25.567 368.006 31.063 374.974 38.031C374.774 38.231 374.568 38.437 374.365 38.64C374.568 38.843 374.771 39.046 374.974 39.246C368.01 46.213 362.504 51.713 357.005 57.218C351.341 62.876 345.683 68.54 338.427 75.793C323.918 61.284 315.784 53.15 301.278 38.641L301.278 38.638C308.531 31.382 314.192 25.727 319.849 20.067C325.513 14.404 331.171 8.74302 338.427 1.49002Z" fill="#F75C03"/>
<path d="M300.222 38.639C300.222 38.439 300.278 38.252 300.374 38.092C300.417 38.02 300.47 37.952 300.532 37.89C304.316 34.105 307.666 30.756 310.809 27.614C313.69 24.733 316.397 22.027 319.103 19.319L338.427 1.35696e-05L357.75 19.319C360.857 22.428 363.964 25.534 367.337 28.905L377.07 38.639L367.517 48.193C364.076 51.634 360.913 54.797 357.751 57.962C354.496 61.214 351.243 64.467 347.689 68.022L338.428 77.282L337.683 76.537C323.182 62.036 315.048 53.902 300.558 39.408C300.351 39.216 300.222 38.942 300.222 38.639ZM338.427 2.98001L320.595 20.81C317.889 23.517 315.182 26.224 312.3 29.105C309.365 32.039 306.248 35.155 302.767 38.638C316.564 52.438 324.628 60.502 338.427 74.302L346.197 66.532C349.752 62.976 353.005 59.723 356.26 56.472C359.421 53.308 362.584 50.145 366.026 46.703L374.091 38.638L365.847 30.396C362.474 27.025 359.367 23.918 356.26 20.81L338.427 2.98001Z" fill="black"/>
<path d="M2.88477e-05 38.639L0.745024 37.894C15.254 23.385 23.389 15.251 37.898 0.744993L38.2071 0.435993L264.562 0.436003L272.428 8.301C276.362 12.234 279.905 15.777 283.446 19.319L302.332 38.199L302.332 39.075L264.562 76.845L38.2071 76.845L2.88477e-05 38.639ZM39.079 2.54399C25.013 16.608 16.924 24.696 2.98105 38.64L39.079 74.738L263.689 74.738L299.789 38.638L281.955 20.81C278.414 17.267 274.871 13.724 270.938 9.791L263.69 2.543L39.079 2.54399Z" fill="black"/>
<path d="M37.3291 11.958C42.9521 15.202 47.3282 20.035 50.0302 25.703C52.0182 29.873 53.1001 34.497 53.1001 39.276C48.9741 36.894 45.5211 33.656 42.9041 29.867C39.3331 24.685 37.3291 18.463 37.3291 11.958Z" fill="#00CC66"/>
<path d="M56.1669 25.703C58.8689 20.036 63.2449 15.203 68.8679 11.958C68.8679 18.462 66.864 24.685 63.293 29.867C60.677 33.657 57.2229 36.895 53.0999 39.276C53.0999 34.497 54.1779 29.873 56.1669 25.703Z" fill="#00CC66"/>
<path d="M231.437 11.958C237.06 15.202 241.436 20.035 244.138 25.703C246.126 29.873 247.205 34.497 247.205 39.276C243.082 36.894 239.629 33.656 237.012 29.867C233.442 24.685 231.437 18.463 231.437 11.958Z" fill="#00CC66"/>
<path d="M250.275 25.703C252.977 20.036 257.353 15.203 262.976 11.958C262.976 18.462 260.972 24.685 257.401 29.867C254.785 33.657 251.331 36.895 247.205 39.276C247.205 34.497 248.287 29.873 250.275 25.703Z" fill="#00CC66"/>
<path d="M327.627 19.722C330.97 21.65 334.699 22.614 338.429 22.614C342.159 22.614 345.885 21.65 349.227 19.722C349.227 23.582 350.258 27.292 352.122 30.52C353.987 33.752 356.686 36.498 360.028 38.426C356.685 40.357 353.987 43.104 352.122 46.332C350.257 49.564 349.227 53.277 349.227 57.134C345.884 55.206 342.158 54.239 338.429 54.239C334.7 54.239 330.97 55.206 327.627 57.134C327.627 49.418 323.511 42.286 316.825 38.426C320.168 36.498 322.866 33.751 324.731 30.52C326.597 27.292 327.627 23.581 327.627 19.722ZM346.002 25.307C341.077 26.836 335.778 26.836 330.852 25.307C329.714 30.337 327.065 34.926 323.276 38.427C327.066 41.928 329.714 46.517 330.852 51.55C335.777 50.018 341.076 50.018 346.002 51.55C347.141 46.517 349.792 41.928 353.578 38.427C349.792 34.925 347.14 30.336 346.002 25.307Z" fill="#00CC66"/>
<path d="M50.03 25.703C51.019 25.481 52.044 25.36 53.1 25.36C54.153 25.36 55.177 25.481 56.167 25.703C54.179 29.873 53.1 34.497 53.1 39.276C53.1 34.497 52.019 29.873 50.03 25.703Z" fill="#2274A5"/>
<path d="M244.138 25.703C245.127 25.481 246.152 25.36 247.205 25.36C248.261 25.36 249.285 25.481 250.275 25.703C248.287 29.873 247.205 34.497 247.205 39.276C247.205 34.497 246.127 29.873 244.138 25.703Z" fill="#2274A5"/>
<path d="M330.852 25.307C335.777 26.836 341.076 26.836 346.002 25.307C347.141 30.337 349.792 34.926 353.578 38.427C349.791 41.928 347.14 46.517 346.002 51.55C341.077 50.018 335.778 50.018 330.852 51.55C329.714 46.517 327.065 41.928 323.276 38.427C327.066 34.925 329.714 30.336 330.852 25.307ZM338.429 32.119C334.944 32.119 332.121 34.945 332.121 38.427C332.121 41.912 334.943 44.735 338.429 44.735C341.911 44.735 344.737 41.913 344.737 38.427C344.737 34.944 341.911 32.119 338.429 32.119Z" fill="#D90368"/>
<path d="M39.9011 35.154C40.5001 33.166 41.5411 31.364 42.9041 29.867C45.5201 33.657 48.9741 36.895 53.1001 39.276C48.9901 36.901 44.4771 35.528 39.9011 35.154Z" fill="#2274A5"/>
<path d="M63.2932 29.867C64.6572 31.364 65.6971 33.165 66.2961 35.154C61.7201 35.528 57.2101 36.901 53.1001 39.277C57.2231 36.895 60.6762 33.657 63.2932 29.867Z" fill="#2274A5"/>
<path d="M234.009 35.154C234.608 33.166 235.649 31.364 237.012 29.867C239.628 33.657 243.082 36.895 247.205 39.276C243.095 36.901 238.585 35.528 234.009 35.154Z" fill="#2274A5"/>
<path d="M257.401 29.867C258.765 31.364 259.805 33.165 260.404 35.154C255.828 35.528 251.315 36.901 247.205 39.277C251.331 36.895 254.785 33.657 257.401 29.867Z" fill="#2274A5"/>
<path d="M332.121 38.426C332.121 34.944 334.943 32.118 338.429 32.118C341.911 32.118 344.737 34.944 344.737 38.426C344.737 41.911 341.911 44.734 338.429 44.734C334.943 44.734 332.121 41.912 332.121 38.426ZM338.429 35.008C336.542 35.008 335.007 36.54 335.007 38.427C335.007 40.314 336.542 41.849 338.429 41.849C340.316 41.849 341.848 40.314 341.848 38.427C341.848 36.54 340.316 35.008 338.429 35.008Z" fill="#00CC66"/>
<path d="M21.5581 39.276C27.2061 36.013 33.6121 34.639 39.9011 35.153C44.4771 35.527 48.9901 36.9 53.1001 39.276C49.0121 41.635 44.5281 43.005 39.9801 43.389C33.6691 43.922 27.2281 42.549 21.5581 39.276Z" fill="#00CC66"/>
<path d="M66.2961 35.154C72.5821 34.637 78.9911 36.013 84.6421 39.277C78.9681 42.553 72.527 43.923 66.217 43.39C61.669 43.006 57.185 41.633 53.1 39.277C57.21 36.901 61.7201 35.528 66.2961 35.154Z" fill="#00CC66"/>
<path d="M215.663 39.276C221.314 36.013 227.72 34.639 234.009 35.153C238.585 35.527 243.095 36.9 247.205 39.276C243.12 41.635 238.636 43.005 234.085 43.389C227.777 43.922 221.337 42.549 215.663 39.276Z" fill="#00CC66"/>
<path d="M260.404 35.154C266.69 34.637 273.099 36.013 278.747 39.277C273.077 42.553 266.636 43.923 260.325 43.39C255.774 43.006 251.293 41.633 247.205 39.277C251.315 36.901 255.828 35.528 260.404 35.154Z" fill="#00CC66"/>
<path d="M335.007 38.426C335.007 36.539 336.542 35.007 338.429 35.007C340.316 35.007 341.848 36.539 341.848 38.426C341.848 40.313 340.316 41.848 338.429 41.848C336.542 41.848 335.007 40.313 335.007 38.426Z" fill="#D90368"/>
<path d="M39.9801 43.39C44.5281 43.006 49.0121 41.636 53.1001 39.277C49.0251 41.627 45.6091 44.811 43.0061 48.54C41.6481 47.084 40.6051 45.33 39.9801 43.39Z" fill="#2274A5"/>
<path d="M53.1 39.276C57.185 41.632 61.669 43.005 66.217 43.389C65.592 45.33 64.5491 47.084 63.1921 48.539C60.5881 44.81 57.172 41.626 53.1 39.276Z" fill="#2274A5"/>
<path d="M234.085 43.39C238.636 43.006 243.12 41.636 247.205 39.277C243.133 41.627 239.717 44.811 237.114 48.54C235.757 47.084 234.71 45.33 234.085 43.39Z" fill="#2274A5"/>
<path d="M247.205 39.276C251.293 41.632 255.774 43.005 260.325 43.389C259.7 45.33 258.657 47.084 257.3 48.539C254.696 44.81 251.28 41.626 247.205 39.276Z" fill="#2274A5"/>
<path d="M43.0061 48.54C45.6101 44.811 49.0251 41.626 53.1001 39.277C53.1001 43.967 52.0601 48.506 50.1381 52.616C47.4491 58.385 43.0281 63.303 37.3291 66.592C37.3291 60.023 39.3681 53.75 43.0061 48.54Z" fill="#00CC66"/>
<path d="M53.0999 39.276C57.1719 41.626 60.5879 44.81 63.1909 48.539C66.8289 53.75 68.8679 60.022 68.8679 66.59C63.1689 63.301 58.751 58.383 56.059 52.614C54.137 48.505 53.0999 43.967 53.0999 39.276Z" fill="#00CC66"/>
<path d="M237.114 48.54C239.718 44.811 243.133 41.626 247.205 39.277C247.205 43.967 246.168 48.506 244.246 52.616C241.554 58.385 237.136 63.303 231.437 66.592C231.437 60.023 233.476 53.75 237.114 48.54Z" fill="#00CC66"/>
<path d="M247.205 39.276C251.28 41.626 254.696 44.81 257.299 48.539C260.937 53.75 262.976 60.022 262.976 66.59C257.277 63.301 252.856 58.383 250.167 52.614C248.245 48.505 247.205 43.967 247.205 39.276Z" fill="#00CC66"/>
<path d="M50.1381 52.615C52.0601 48.505 53.1 43.967 53.1 39.276C53.1 43.966 54.1371 48.505 56.0591 52.615C55.1041 52.824 54.115 52.932 53.1 52.932C52.082 52.932 51.0931 52.824 50.1381 52.615Z" fill="#2274A5"/>
<path d="M244.246 52.615C246.168 48.505 247.205 43.967 247.205 39.276C247.205 43.966 248.245 48.505 250.167 52.615C249.212 52.824 248.223 52.932 247.205 52.932C246.19 52.932 245.201 52.824 244.246 52.615Z" fill="#2274A5"/>
<path d="M314.717 38.426L316.299 37.513C319.418 35.714 322.018 33.114 323.819 29.993C325.621 26.873 326.573 23.322 326.573 19.721L326.573 17.897L328.153 18.808C331.273 20.608 334.826 21.559 338.428 21.559C342.028 21.559 345.58 20.608 348.7 18.808L350.28 17.897L350.28 19.721C350.28 23.321 351.233 26.873 353.034 29.993C354.835 33.114 357.435 35.714 360.554 37.513L362.135 38.425L360.555 39.338C357.435 41.141 354.834 43.741 353.034 46.859C351.232 49.982 350.28 53.535 350.28 57.134L350.28 58.958L348.7 58.047C345.576 56.245 342.024 55.292 338.428 55.292C334.83 55.292 331.277 56.245 328.153 58.047L326.573 58.958L326.573 57.134C326.573 49.817 322.636 42.998 316.298 39.339L314.717 38.426ZM328.616 21.434C328.359 24.811 327.345 28.104 325.644 31.047C323.945 33.991 321.6 36.516 318.803 38.426C324.466 42.299 328.094 48.581 328.616 55.422C331.673 53.954 335.033 53.185 338.429 53.185C341.824 53.185 345.182 53.954 348.239 55.422C348.496 52.046 349.511 48.752 351.211 45.806C352.91 42.864 355.255 40.339 358.052 38.427C355.255 36.517 352.91 33.992 351.211 31.048C349.511 28.104 348.497 24.811 348.239 21.435C345.185 22.9 341.827 23.669 338.429 23.669C335.03 23.668 331.67 22.9 328.616 21.434Z" fill="black"/>
<path d="M321.724 38.426L322.562 37.652C326.215 34.277 328.727 29.928 329.825 25.074L330.077 23.962L331.166 24.3C335.917 25.774 340.939 25.774 345.691 24.3L346.78 23.962L347.032 25.074C348.13 29.924 350.642 34.274 354.296 37.652L355.133 38.426L354.296 39.2C350.641 42.579 348.129 46.93 347.032 51.782L346.78 52.895L345.691 52.556C340.94 51.078 335.918 51.078 331.167 52.556L330.078 52.895L329.826 51.782C328.728 46.926 326.216 42.576 322.563 39.2L321.724 38.426ZM331.612 26.621C330.402 31.098 328.067 35.142 324.796 38.426C328.068 41.71 330.403 45.756 331.612 50.234C336.093 49.041 340.763 49.041 345.243 50.234C346.452 45.758 348.788 41.713 352.06 38.426C348.788 35.139 346.452 31.096 345.243 26.621C340.762 27.811 336.092 27.811 331.612 26.621Z" fill="black"/>
<path d="M331.067 38.426C331.067 34.367 334.369 31.065 338.428 31.065C342.487 31.065 345.79 34.367 345.79 38.426C345.79 42.485 342.487 45.788 338.428 45.788C334.369 45.788 331.067 42.485 331.067 38.426ZM343.683 38.426C343.683 35.529 341.326 33.172 338.429 33.172C335.532 33.172 333.175 35.529 333.175 38.426C333.175 41.323 335.532 43.68 338.429 43.68C341.326 43.68 343.683 41.323 343.683 38.426Z" fill="black"/>
<path d="M333.953 38.426C333.953 35.96 335.961 33.954 338.428 33.954C340.895 33.954 342.901 35.96 342.901 38.426C342.901 40.894 340.895 42.902 338.428 42.902C335.961 42.902 333.953 40.894 333.953 38.426ZM340.794 38.426C340.794 37.122 339.733 36.061 338.429 36.061C337.123 36.061 336.061 37.122 336.061 38.426C336.061 39.732 337.123 40.794 338.429 40.794C339.733 40.794 340.794 39.732 340.794 38.426Z" fill="black"/>
<path d="M109.295 38.316C109.295 35.989 109.724 33.715 110.591 31.64C112.715 26.555 117.381 22.719 122.768 21.629C128.605 20.449 134.391 22.717 137.51 27.406C140.912 32.523 140.435 39.078 136.378 42.991C134.094 45.191 130.872 46.321 127.759 46.014C125.02 45.744 122.67 44.385 121.141 42.187C119.357 39.615 119.014 36.288 120.265 33.707C121.633 30.887 124.709 29.161 127.743 29.511C130.934 29.877 133.406 32.769 133.242 35.945C133.155 37.656 132.145 39.285 130.606 40.198C129.193 41.036 127.574 41.127 126.166 40.447C124.666 39.719 123.699 38.176 123.699 36.517C123.699 35.935 124.171 35.463 124.753 35.463C125.335 35.463 125.807 35.935 125.807 36.517C125.807 37.362 126.321 38.179 127.085 38.55C128.125 39.052 129.065 38.662 129.532 38.385C130.457 37.836 131.088 36.837 131.138 35.839C131.243 33.762 129.612 31.847 127.503 31.605C125.377 31.36 123.131 32.631 122.162 34.628C121.237 36.535 121.516 39.03 122.873 40.985C124.043 42.667 125.852 43.709 127.967 43.917C130.474 44.164 133.072 43.251 134.917 41.474C138.683 37.843 138.191 32.236 135.757 28.574C133.115 24.602 128.181 22.687 123.188 23.696C118.477 24.649 114.396 28.005 112.538 32.454C110.725 36.793 111.1 42.155 113.542 46.795C115.798 51.081 119.727 54.392 124.322 55.877C129.111 57.424 134.336 56.97 138.3 54.663C142.383 52.285 145.185 48.257 147.604 44.258L149.451 41.055C149.765 40.501 150.082 39.938 150.4 39.373C152.817 35.079 155.316 30.638 158.455 26.709C161.787 22.536 165.719 20.466 171.602 19.787C177.355 19.12 183.212 21.11 187.669 25.247C192.005 29.265 194.415 34.925 194.313 40.796C194.201 46.706 190.933 52.193 185.785 55.116C180.248 58.253 173.485 57.926 168.956 54.303C164.035 50.363 162.399 43.295 165.227 38.211C166.813 35.365 169.832 33.235 173.106 32.653C176.02 32.135 178.797 32.858 180.926 34.69C183.367 36.794 184.557 40.091 183.952 43.095C183.311 46.298 180.592 48.76 177.34 49.083C175.648 49.252 173.928 48.733 172.62 47.659C171.343 46.61 170.553 45.132 170.396 43.499C170.219 41.686 171.076 39.799 172.573 38.675C173.945 37.644 175.619 37.406 177.166 38.02C178.812 38.678 179.917 40.306 179.917 42.073C179.917 42.655 179.445 43.127 178.863 43.127C178.281 43.127 177.809 42.655 177.809 42.073C177.809 41.16 177.237 40.319 176.385 39.978C175.226 39.517 174.292 40.02 173.839 40.36C172.917 41.052 172.389 42.207 172.494 43.297C172.597 44.369 173.117 45.34 173.958 46.031C174.836 46.752 175.992 47.1 177.131 46.987C179.47 46.755 181.425 44.984 181.886 42.682C182.335 40.446 181.397 37.879 179.552 36.288C177.913 34.878 175.755 34.324 173.476 34.729C170.81 35.203 168.355 36.93 167.07 39.237C164.454 43.936 166.646 49.751 170.275 52.658C174.138 55.748 179.954 55.999 184.747 53.284C189.251 50.727 192.11 45.927 192.207 40.757C192.329 35.567 190.076 30.351 186.237 26.793C182.232 23.075 176.987 21.285 171.846 21.881C166.567 22.49 163.056 24.327 160.104 28.025C157.071 31.822 154.614 36.186 152.238 40.407C151.919 40.973 151.601 41.538 151.282 42.101L149.42 45.33C146.845 49.587 143.853 53.869 139.362 56.484C134.889 59.088 129.025 59.611 123.675 57.883C118.561 56.23 114.188 52.547 111.678 47.777C110.097 44.777 109.296 41.497 109.295 38.316Z" fill="black"/>
<path d="M19.451 39.277L21.031 38.364C26.794 35.035 33.35 33.561 39.987 34.104C40.567 34.152 40.9911 34.66 40.9521 35.24C40.9041 35.82 40.396 36.252 39.816 36.204C34.251 35.75 28.749 36.809 23.786 39.276C28.775 41.755 34.3031 42.812 39.8921 42.34C40.4721 42.291 40.982 42.722 41.031 43.302C41.077 43.881 40.6491 44.391 40.0691 44.441C33.4071 45.003 26.823 43.533 21.031 40.19L19.451 39.277Z" fill="black"/>
<path d="M36.275 68.416L36.275 66.591C36.275 59.885 38.304 53.434 42.142 47.936C42.475 47.459 43.132 47.342 43.609 47.675C44.086 48.009 44.203 48.665 43.87 49.142C40.65 53.755 38.792 59.085 38.443 64.662C43.109 61.566 46.801 57.28 49.183 52.169C49.429 51.642 50.056 51.413 50.583 51.659C51.11 51.905 51.339 52.531 51.093 53.059C48.254 59.149 43.677 64.143 37.856 67.502L36.275 68.416Z" fill="black"/>
<path d="M36.275 11.958L36.275 10.134L37.8549 11.046C43.5889 14.354 48.128 19.266 50.981 25.25C51.231 25.777 51.008 26.405 50.483 26.655C49.958 26.905 49.329 26.683 49.078 26.157C46.688 21.143 43.032 16.935 38.442 13.888C38.787 19.403 40.612 24.685 43.771 29.27C44.101 29.75 43.9799 30.405 43.5009 30.736C43.0209 31.066 42.365 30.946 42.035 30.466C38.267 24.995 36.275 18.596 36.275 11.958Z" fill="black"/>
<path d="M57.095 30.529C57.095 30.35 57.14 30.169 57.236 30.003L62.906 20.178C63.197 19.674 63.841 19.501 64.346 19.792C64.85 20.083 65.022 20.729 64.732 21.231L59.062 31.056C58.771 31.56 58.127 31.733 57.622 31.442C57.284 31.247 57.095 30.893 57.095 30.529Z" fill="black"/>
<path d="M41.324 20.706C41.324 20.342 41.5131 19.988 41.8511 19.793C42.3551 19.502 43.0001 19.675 43.2911 20.179L48.9611 30.004C49.2531 30.507 49.0791 31.152 48.5751 31.443C48.0711 31.734 47.426 31.561 47.136 31.057L41.4661 21.232C41.3691 21.066 41.324 20.885 41.324 20.706Z" fill="black"/>
<path d="M41.324 57.844C41.324 57.665 41.369 57.484 41.465 57.318L47.135 47.493C47.426 46.989 48.07 46.816 48.574 47.107C49.078 47.398 49.25 48.043 48.96 48.546L43.29 58.371C42.999 58.875 42.355 59.048 41.85 58.757C41.513 58.562 41.324 58.207 41.324 57.844Z" fill="black"/>
<path d="M30.795 39.276C30.795 38.694 31.2671 38.222 31.8491 38.222L43.1931 38.222C43.7751 38.222 44.2471 38.694 44.2471 39.276C44.2471 39.858 43.7751 40.33 43.1931 40.33L31.8491 40.33C31.2671 40.33 30.795 39.858 30.795 39.276Z" fill="black"/>
<path d="M60.6981 39.276C60.6981 38.694 61.1701 38.222 61.7521 38.222L73.0961 38.222C73.6781 38.222 74.1501 38.694 74.1501 39.276C74.1501 39.858 73.6781 40.33 73.0961 40.33L61.7521 40.33C61.1691 40.33 60.6981 39.858 60.6981 39.276Z" fill="black"/>
<path d="M57.0951 48.021C57.0951 47.657 57.284 47.303 57.622 47.108C58.126 46.817 58.77 46.99 59.062 47.494L64.732 57.319C65.023 57.822 64.851 58.467 64.346 58.758C63.842 59.049 63.198 58.876 62.906 58.372L57.2361 48.547C57.1401 48.381 57.0951 48.2 57.0951 48.021Z" fill="black"/>
<path d="M38.5159 36.098L38.892 34.85C39.523 32.754 40.6409 30.786 42.1249 29.158L43.0179 28.178L43.7709 29.269C46.3619 33.022 49.6729 36.08 53.6119 38.356C53.6169 38.359 53.622 38.362 53.627 38.364L52.5729 40.189L52.5709 40.187C52.5679 40.185 52.565 40.184 52.562 40.182C48.631 37.912 44.3419 36.574 39.8159 36.204L38.5159 36.098ZM42.851 31.591C42.246 32.412 41.7389 33.305 41.3469 34.242C42.9219 34.436 44.4679 34.741 45.9799 35.157C44.8529 34.046 43.805 32.853 42.851 31.591Z" fill="black"/>
<path d="M55.1131 25.702C55.1131 25.55 55.1461 25.396 55.2161 25.249C58.0691 19.265 62.6081 14.353 68.3421 11.045L69.9221 10.133L69.9221 11.957C69.9221 18.595 67.9301 24.994 64.1611 30.464C63.8311 30.943 63.1751 31.064 62.6951 30.734C62.2161 30.403 62.0961 29.747 62.4251 29.268C65.5841 24.684 67.4091 19.401 67.7542 13.886C63.1641 16.933 59.5091 21.141 57.1181 26.155C56.8671 26.68 56.2381 26.903 55.7131 26.653C55.3351 26.474 55.1131 26.096 55.1131 25.702Z" fill="black"/>
<path d="M65.163 43.391C65.163 43.361 65.164 43.331 65.167 43.301C65.216 42.721 65.726 42.29 66.306 42.339C71.898 42.811 77.428 41.754 82.415 39.276C77.446 36.806 71.943 35.746 66.383 36.204C65.803 36.252 65.294 35.82 65.246 35.24C65.198 34.665 65.629 34.152 66.21 34.103C72.842 33.557 79.398 35.03 85.17 38.363L86.751 39.276L85.17 40.189C79.38 43.533 72.795 45.003 66.129 44.44C65.578 44.393 65.163 43.933 65.163 43.391Z" fill="black"/>
<path d="M55.0051 52.616C55.0051 52.219 55.2301 51.839 55.6131 51.66C56.1401 51.414 56.7681 51.642 57.0141 52.169C59.4001 57.281 63.0921 61.567 67.7541 64.662C67.4051 59.086 65.5471 53.755 62.3271 49.142C61.9931 48.665 62.1101 48.008 62.5881 47.675C63.0651 47.342 63.7221 47.458 64.0551 47.936C67.8931 53.433 69.9211 59.884 69.9211 66.591L69.9211 68.416L68.3401 67.504C62.5241 64.147 57.9471 59.153 55.1031 53.061C55.0371 52.917 55.0051 52.765 55.0051 52.616Z" fill="black"/>
<path d="M52.573 40.189L53.626 38.363L53.627 38.363C57.542 40.621 61.807 41.959 66.304 42.339L67.624 42.451L67.218 43.712C66.559 45.762 65.432 47.68 63.96 49.258L63.071 50.211L62.325 49.143C59.747 45.448 56.466 42.435 52.573 40.189ZM64.746 44.294C63.214 44.1 61.709 43.8 60.235 43.396C61.314 44.464 62.321 45.61 63.251 46.833C63.845 46.048 64.348 45.193 64.746 44.294Z" fill="black"/>
<path d="M48.625 53.362L49.183 52.169C51.083 48.107 52.046 43.769 52.046 39.277L54.154 39.277C54.154 43.774 55.116 48.112 57.014 52.169L57.572 53.362L56.285 53.644C55.251 53.871 54.18 53.986 53.1 53.986C52.018 53.986 50.946 53.871 49.912 53.644L48.625 53.362ZM53.099 47.522C52.718 48.973 52.235 50.4 51.651 51.798C52.129 51.852 52.613 51.879 53.1 51.879C53.585 51.879 54.068 51.852 54.545 51.799C53.962 50.401 53.479 48.974 53.099 47.522Z" fill="black"/>
<path d="M38.5709 42.451L39.892 42.339C44.389 41.959 48.6519 40.624 52.5599 38.371C52.5649 38.368 52.5689 38.366 52.5739 38.363L53.627 40.189C53.622 40.192 53.6179 40.194 53.6129 40.197C49.7249 42.442 46.446 45.452 43.869 49.143L43.1229 50.212L42.2339 49.259C40.7619 47.681 39.636 45.763 38.976 43.713L38.5709 42.451ZM45.9609 43.397C44.4879 43.8 42.9829 44.1 41.4509 44.294C41.8489 45.193 42.3519 46.048 42.9459 46.833C43.8759 45.611 44.8819 44.465 45.9609 43.397Z" fill="black"/>
<path d="M52.5729 38.364C56.4609 36.117 59.8679 32.972 62.4249 29.268L63.1779 28.177L64.0709 29.157C65.5549 30.785 66.673 32.753 67.304 34.849L67.6799 36.097L66.3809 36.203C61.8529 36.573 57.5629 37.913 53.6299 40.186C53.6299 40.186 53.6279 40.188 53.6259 40.188L52.5729 38.364ZM63.3459 31.591C62.3919 32.853 61.3439 34.046 60.2159 35.158C61.7289 34.742 63.2749 34.436 64.8499 34.243C64.4579 33.306 63.9509 32.413 63.3459 31.591Z" fill="black"/>
<path d="M48.5101 24.964L49.7991 24.675C50.8881 24.431 51.9981 24.307 53.0991 24.307C54.1981 24.307 55.3071 24.431 56.3961 24.675L57.6851 24.964L57.1171 26.157C55.1781 30.224 54.1531 34.76 54.1531 39.277L52.045 39.277C52.045 34.766 51.0191 30.229 49.0771 26.157L48.5101 24.964ZM54.6481 26.509C54.1321 26.446 53.614 26.414 53.1 26.414C52.584 26.414 52.0661 26.446 51.5491 26.509C52.1771 27.986 52.6951 29.513 53.0991 31.07C53.5031 29.513 54.0211 27.986 54.6481 26.509Z" fill="black"/>
<path d="M213.555 39.277L215.136 38.364C220.902 35.035 227.458 33.561 234.095 34.104C234.675 34.152 235.104 34.66 235.06 35.24C235.012 35.82 234.504 36.252 233.924 36.204C228.36 35.75 222.857 36.81 217.892 39.276C222.883 41.754 228.412 42.812 233.997 42.34C234.577 42.291 235.087 42.722 235.136 43.302C235.185 43.881 234.754 44.391 234.174 44.441C227.515 45.003 220.932 43.533 215.137 40.19L213.555 39.277Z" fill="black"/>
<path d="M230.384 68.416L230.384 66.591C230.384 59.884 232.413 53.433 236.25 47.936C236.583 47.459 237.24 47.342 237.717 47.675C238.194 48.009 238.311 48.665 237.978 49.142C234.758 53.754 232.9 59.085 232.551 64.662C237.214 61.567 240.905 57.281 243.291 52.169C243.537 51.642 244.165 51.414 244.692 51.66C245.219 51.907 245.447 52.533 245.201 53.061C242.357 59.153 237.78 64.147 231.964 67.504L230.384 68.416Z" fill="black"/>
<path d="M230.384 11.958L230.384 10.133L231.964 11.045C237.698 14.353 242.237 19.265 245.09 25.249C245.34 25.776 245.117 26.404 244.592 26.654C244.067 26.904 243.438 26.682 243.187 26.156C240.797 21.143 237.141 16.934 232.551 13.887C232.896 19.402 234.721 24.685 237.88 29.269C238.21 29.749 238.089 30.404 237.61 30.735C237.13 31.065 236.474 30.945 236.144 30.465C232.376 24.995 230.384 18.596 230.384 11.958Z" fill="black"/>
<path d="M251.2 30.529C251.2 30.35 251.245 30.169 251.341 30.003L257.015 20.178C257.306 19.674 257.951 19.501 258.454 19.792C258.958 20.083 259.13 20.729 258.84 21.231L253.166 31.056C252.875 31.56 252.23 31.733 251.727 31.442C251.389 31.247 251.2 30.893 251.2 30.529Z" fill="black"/>
<path d="M235.432 20.706C235.432 20.342 235.621 19.988 235.959 19.793C236.463 19.502 237.108 19.675 237.399 20.179L243.069 30.004C243.36 30.507 243.188 31.152 242.683 31.443C242.179 31.734 241.534 31.561 241.244 31.057L235.574 21.232C235.478 21.066 235.432 20.884 235.432 20.706Z" fill="black"/>
<path d="M235.432 57.844C235.432 57.665 235.477 57.484 235.573 57.318L241.243 47.493C241.534 46.989 242.178 46.816 242.682 47.107C243.186 47.398 243.358 48.043 243.068 48.546L237.398 58.371C237.107 58.875 236.463 59.048 235.958 58.757C235.621 58.562 235.432 58.207 235.432 57.844Z" fill="black"/>
<path d="M224.9 39.276C224.9 38.694 225.372 38.222 225.954 38.222L237.301 38.222C237.883 38.222 238.355 38.694 238.355 39.276C238.355 39.858 237.883 40.33 237.301 40.33L225.954 40.33C225.372 40.33 224.9 39.858 224.9 39.276Z" fill="black"/>
<path d="M254.806 39.276C254.806 38.694 255.278 38.222 255.86 38.222L267.204 38.222C267.786 38.222 268.258 38.694 268.258 39.276C268.258 39.858 267.786 40.33 267.204 40.33L255.86 40.33C255.278 40.33 254.806 39.858 254.806 39.276Z" fill="black"/>
<path d="M251.2 48.021C251.2 47.657 251.389 47.303 251.727 47.108C252.231 46.817 252.875 46.989 253.166 47.494L258.84 57.319C259.131 57.822 258.959 58.467 258.454 58.758C257.95 59.049 257.306 58.877 257.015 58.372L251.341 48.547C251.245 48.381 251.2 48.2 251.2 48.021Z" fill="black"/>
<path d="M232.624 36.098L233 34.85C233.631 32.754 234.749 30.786 236.233 29.158L237.126 28.178L237.879 29.269C240.434 32.97 243.838 36.113 247.722 38.359C247.725 38.361 247.728 38.363 247.731 38.364L246.676 40.189C246.674 40.188 246.672 40.187 246.67 40.185C242.737 37.914 238.448 36.574 233.922 36.204L232.624 36.098ZM236.959 31.591C236.354 32.412 235.847 33.305 235.455 34.242C237.029 34.436 238.576 34.742 240.089 35.157C238.961 34.046 237.913 32.853 236.959 31.591Z" fill="black"/>
<path d="M249.221 25.702C249.221 25.55 249.254 25.396 249.324 25.249C252.177 19.265 256.716 14.354 262.45 11.045L264.03 10.133L264.03 11.958C264.03 18.596 262.038 24.995 258.269 30.465C257.939 30.944 257.283 31.065 256.803 30.735C256.324 30.404 256.204 29.748 256.533 29.269C259.692 24.685 261.517 19.402 261.862 13.887C257.272 16.934 253.617 21.143 251.226 26.156C250.975 26.681 250.346 26.904 249.821 26.654C249.443 26.474 249.221 26.096 249.221 25.702Z" fill="black"/>
<path d="M259.271 43.391C259.271 43.361 259.272 43.331 259.275 43.301C259.324 42.721 259.834 42.29 260.414 42.339C266.006 42.811 271.535 41.754 276.521 39.276C271.554 36.806 266.052 35.746 260.491 36.204C259.911 36.252 259.402 35.82 259.354 35.24C259.302 34.665 259.737 34.152 260.318 34.103C266.951 33.557 273.506 35.03 279.275 38.363L280.854 39.276L279.275 40.189C273.487 43.533 266.905 45.003 260.237 44.44C259.687 44.393 259.271 43.933 259.271 43.391Z" fill="black"/>
<path d="M249.113 52.616C249.113 52.219 249.339 51.839 249.722 51.66C250.25 51.414 250.877 51.642 251.122 52.17C253.505 57.28 257.196 61.566 261.862 64.663C261.513 59.087 259.655 53.756 256.435 49.143C256.102 48.666 256.219 48.009 256.696 47.676C257.173 47.343 257.83 47.459 258.163 47.937C262.001 53.434 264.029 59.885 264.029 66.592L264.029 68.417L262.448 67.505C256.627 64.146 252.05 59.151 249.211 53.062C249.145 52.916 249.113 52.765 249.113 52.616Z" fill="black"/>
<path d="M246.679 40.189L247.732 38.363C251.652 40.622 255.918 41.959 260.414 42.339L261.735 42.451L261.329 43.713C260.669 45.763 259.543 47.68 258.071 49.259L257.182 50.212L256.436 49.143C253.855 45.447 250.573 42.435 246.679 40.189ZM258.854 44.294C257.322 44.1 255.817 43.8 254.343 43.396C255.422 44.464 256.429 45.61 257.359 46.833C257.953 46.048 258.456 45.193 258.854 44.294Z" fill="black"/>
<path d="M242.733 53.362L243.291 52.169C245.189 48.111 246.151 43.774 246.151 39.277L248.259 39.277C248.259 43.77 249.222 48.107 251.122 52.169L251.68 53.362L250.393 53.644C249.359 53.871 248.287 53.986 247.205 53.986C246.125 53.986 245.054 53.871 244.02 53.644L242.733 53.362ZM247.206 47.522C246.826 48.973 246.344 50.401 245.76 51.798C246.237 51.852 246.72 51.878 247.205 51.878C247.692 51.878 248.176 51.851 248.654 51.797C248.07 50.4 247.587 48.973 247.206 47.522Z" fill="black"/>
<path d="M232.676 42.451L233.997 42.339C238.499 41.959 242.761 40.624 246.667 38.37C246.671 38.368 246.674 38.365 246.678 38.363L247.732 40.188C243.839 42.435 240.557 45.447 237.978 49.142L237.232 50.211L236.343 49.258C234.868 47.676 233.741 45.758 233.082 43.712L232.676 42.451ZM240.069 43.397C238.595 43.8 237.09 44.1 235.557 44.294C235.955 45.192 236.459 46.047 237.055 46.833C237.984 45.611 238.99 44.465 240.069 43.397Z" fill="black"/>
<path d="M246.678 38.364C246.684 38.361 246.69 38.357 246.695 38.354C250.578 36.109 253.98 32.968 256.534 29.269L257.287 28.178L258.18 29.158C259.664 30.786 260.782 32.754 261.413 34.85L261.789 36.098L260.49 36.204C255.964 36.574 251.677 37.912 247.747 40.18C247.742 40.183 247.737 40.186 247.732 40.189L246.678 38.364ZM257.454 31.591C256.5 32.852 255.452 34.045 254.325 35.157C255.838 34.741 257.383 34.436 258.958 34.242C258.566 33.306 258.06 32.413 257.454 31.591Z" fill="black"/>
<path d="M242.619 24.964L243.908 24.675C244.997 24.431 246.107 24.307 247.205 24.307C248.306 24.307 249.416 24.431 250.506 24.675L251.795 24.964L251.227 26.157C249.286 30.228 248.26 34.765 248.26 39.277L246.152 39.277C246.152 34.761 245.127 30.224 243.188 26.157L242.619 24.964ZM248.757 26.509C248.24 26.446 247.721 26.414 247.206 26.414C246.691 26.414 246.174 26.446 245.658 26.509C246.285 27.986 246.803 29.512 247.207 31.07C247.611 29.513 248.129 27.986 248.757 26.509Z" fill="black"/>
<path d="M393.654 39.277L395.235 38.364C401.001 35.035 407.557 33.561 414.194 34.104C414.774 34.152 415.198 34.66 415.159 35.24C415.111 35.82 414.603 36.252 414.023 36.204C408.459 35.75 402.956 36.81 397.991 39.276C402.982 41.754 408.51 42.812 414.096 42.34C414.676 42.291 415.186 42.722 415.235 43.302C415.278 43.881 414.853 44.391 414.273 44.441C407.614 45.003 401.031 43.533 395.236 40.19L393.654 39.277Z" fill="black"/>
<path d="M410.482 68.416L410.482 66.591C410.482 59.885 412.511 53.434 416.349 47.936C416.682 47.459 417.339 47.342 417.816 47.675C418.293 48.009 418.41 48.665 418.077 49.142C414.857 53.755 412.999 59.085 412.65 64.662C417.316 61.566 421.008 57.28 423.39 52.169C423.636 51.642 424.263 51.413 424.79 51.659C425.317 51.905 425.546 52.531 425.3 53.059C422.461 59.149 417.884 64.143 412.063 67.502L410.482 68.416Z" fill="black"/>
<path d="M410.482 11.958L410.482 10.134L412.062 11.046C417.796 14.354 422.335 19.266 425.188 25.25C425.438 25.777 425.215 26.405 424.69 26.655C424.165 26.905 423.536 26.683 423.285 26.157C420.895 21.143 417.239 16.935 412.649 13.888C412.994 19.403 414.819 24.685 417.978 29.27C418.308 29.75 418.187 30.405 417.708 30.736C417.228 31.066 416.572 30.946 416.242 30.466C412.474 24.995 410.482 18.596 410.482 11.958Z" fill="black"/>
<path d="M431.302 30.529C431.302 30.35 431.347 30.169 431.443 30.003L437.113 20.178C437.404 19.674 438.048 19.501 438.552 19.792C439.056 20.083 439.228 20.729 438.938 21.231L433.268 31.056C432.977 31.56 432.333 31.733 431.829 31.442C431.491 31.247 431.302 30.893 431.302 30.529Z" fill="black"/>
<path d="M415.531 20.706C415.531 20.342 415.72 19.988 416.058 19.793C416.562 19.502 417.207 19.675 417.497 20.179L423.167 30.004C423.459 30.507 423.285 31.152 422.781 31.443C422.277 31.734 421.632 31.561 421.342 31.057L415.672 21.232C415.576 21.066 415.531 20.885 415.531 20.706Z" fill="black"/>
<path d="M415.531 57.844C415.531 57.665 415.576 57.484 415.672 57.318L421.342 47.493C421.633 46.989 422.277 46.816 422.781 47.107C423.285 47.398 423.457 48.043 423.167 48.546L417.497 58.371C417.206 58.875 416.562 59.048 416.058 58.757C415.72 58.562 415.531 58.207 415.531 57.844Z" fill="black"/>
<path d="M405.002 39.276C405.002 38.694 405.474 38.222 406.056 38.222L417.4 38.222C417.982 38.222 418.454 38.694 418.454 39.276C418.454 39.858 417.982 40.33 417.4 40.33L406.056 40.33C405.474 40.33 405.002 39.858 405.002 39.276Z" fill="black"/>
<path d="M434.905 39.276C434.905 38.694 435.377 38.222 435.959 38.222L447.303 38.222C447.885 38.222 448.357 38.694 448.357 39.276C448.357 39.858 447.885 40.33 447.303 40.33L435.959 40.33C435.376 40.33 434.905 39.858 434.905 39.276Z" fill="black"/>
<path d="M431.302 48.021C431.302 47.657 431.491 47.303 431.829 47.108C432.333 46.817 432.977 46.99 433.268 47.494L438.938 57.319C439.229 57.822 439.056 58.467 438.552 58.758C438.048 59.049 437.404 58.876 437.113 58.372L431.443 48.547C431.347 48.381 431.302 48.2 431.302 48.021Z" fill="black"/>
<path d="M412.723 36.098L413.099 34.85C413.73 32.754 414.848 30.786 416.332 29.158L417.225 28.178L417.978 29.269C420.569 33.022 423.88 36.08 427.819 38.356C427.824 38.359 427.829 38.362 427.834 38.364L426.78 40.189L426.778 40.187C426.775 40.185 426.772 40.184 426.769 40.182C422.838 37.912 418.549 36.574 414.023 36.204L412.723 36.098ZM417.058 31.591C416.453 32.412 415.946 33.305 415.554 34.242C417.129 34.436 418.675 34.741 420.187 35.157C419.059 34.046 418.011 32.853 417.058 31.591Z" fill="black"/>
<path d="M429.319 25.702C429.319 25.55 429.352 25.396 429.422 25.249C432.275 19.265 436.814 14.354 442.548 11.045L444.128 10.133L444.128 11.958C444.128 18.596 442.136 24.995 438.367 30.465C438.037 30.944 437.381 31.065 436.901 30.735C436.422 30.404 436.301 29.748 436.631 29.269C439.79 24.685 441.615 19.402 441.96 13.887C437.37 16.934 433.715 21.143 431.324 26.156C431.073 26.681 430.444 26.904 429.919 26.654C429.541 26.474 429.319 26.096 429.319 25.702Z" fill="black"/>
<path d="M439.37 43.391C439.37 43.361 439.371 43.331 439.374 43.301C439.423 42.721 439.933 42.29 440.513 42.339C446.105 42.811 451.635 41.754 456.622 39.276C451.653 36.806 446.15 35.746 440.59 36.204C440.01 36.252 439.501 35.82 439.453 35.24C439.404 34.665 439.836 34.152 440.417 34.103C447.049 33.557 453.605 35.03 459.377 38.363L460.958 39.276L459.377 40.189C453.587 43.533 447.002 45.003 440.336 44.44C439.785 44.393 439.37 43.933 439.37 43.391Z" fill="black"/>
<path d="M429.212 52.616C429.212 52.219 429.437 51.839 429.82 51.66C430.347 51.414 430.975 51.642 431.221 52.169C433.607 57.281 437.299 61.567 441.961 64.662C441.612 59.086 439.754 53.755 436.534 49.142C436.201 48.665 436.318 48.008 436.795 47.675C437.272 47.342 437.929 47.458 438.262 47.936C442.1 53.433 444.128 59.884 444.128 66.591L444.128 68.416L442.547 67.504C436.731 64.147 432.154 59.153 429.31 53.061C429.244 52.917 429.212 52.765 429.212 52.616Z" fill="black"/>
<path d="M426.78 40.189L427.833 38.363C431.693 40.59 436.077 41.964 440.511 42.339L441.832 42.451L441.426 43.712C440.767 45.762 439.64 47.68 438.168 49.258L437.279 50.211L436.533 49.143C433.954 45.448 430.673 42.435 426.78 40.189ZM438.953 44.293C437.428 44.097 435.913 43.791 434.426 43.381C435.511 44.453 436.523 45.605 437.458 46.833C438.052 46.048 438.555 45.192 438.953 44.293Z" fill="black"/>
<path d="M422.832 53.362L423.39 52.169C425.29 48.107 426.253 43.769 426.253 39.277L428.361 39.277C428.361 43.774 429.323 48.112 431.221 52.169L431.779 53.362L430.492 53.644C429.458 53.871 428.387 53.986 427.307 53.986C426.225 53.986 425.152 53.871 424.119 53.644L422.832 53.362ZM427.306 47.522C426.925 48.973 426.442 50.4 425.858 51.798C426.336 51.852 426.82 51.879 427.307 51.879C427.792 51.879 428.275 51.852 428.752 51.799C428.169 50.401 427.686 48.974 427.306 47.522Z" fill="black"/>
<path d="M412.773 42.451L414.096 42.339C418.595 41.959 422.859 40.624 426.767 38.371C426.772 38.368 426.776 38.366 426.781 38.363L427.834 40.189L427.832 40.19C427.83 40.192 427.828 40.192 427.825 40.194C423.935 42.439 420.655 45.45 418.077 49.143L417.331 50.212L416.442 49.259C414.972 47.683 413.845 45.766 413.181 43.715L412.773 42.451ZM420.168 43.397C418.694 43.801 417.189 44.1 415.656 44.294C416.055 45.193 416.559 46.048 417.152 46.833C418.083 45.611 419.089 44.464 420.168 43.397Z" fill="black"/>
<path d="M426.779 38.364C426.78 38.364 426.78 38.364 426.779 38.364C430.668 36.117 434.075 32.972 436.632 29.268L437.385 28.177L438.278 29.157C439.762 30.785 440.88 32.753 441.511 34.849L441.887 36.097L440.588 36.203C436.123 36.568 431.718 37.944 427.845 40.181C427.842 40.183 427.838 40.185 427.835 40.187L426.779 38.364ZM437.553 31.591C436.595 32.858 435.542 34.056 434.409 35.173C435.935 34.751 437.49 34.44 439.058 34.244C438.665 33.306 438.159 32.413 437.553 31.591Z" fill="black"/>
<path d="M422.717 24.964L424.006 24.675C425.095 24.431 426.205 24.307 427.307 24.307C428.406 24.307 429.515 24.431 430.604 24.675L431.893 24.964L431.325 26.157C429.386 30.224 428.361 34.76 428.361 39.277L426.253 39.277C426.253 34.765 425.227 30.228 423.286 26.157L422.717 24.964ZM428.855 26.509C428.339 26.446 427.821 26.414 427.307 26.414C426.791 26.414 426.273 26.446 425.756 26.509C426.384 27.986 426.902 29.513 427.307 31.07C427.71 29.512 428.228 27.986 428.855 26.509Z" fill="black"/>
<path d="M587.762 39.277L589.343 38.364C595.109 35.035 601.664 33.561 608.299 34.104C608.879 34.151 609.311 34.659 609.263 35.24C609.216 35.82 608.707 36.252 608.127 36.204C602.565 35.75 597.063 36.81 592.099 39.276C597.09 41.754 602.618 42.811 608.204 42.34C608.784 42.291 609.294 42.722 609.343 43.302C609.387 43.881 608.961 44.391 608.381 44.441C601.722 45.003 595.139 43.533 589.344 40.19L587.762 39.277Z" fill="black"/>
<path d="M604.59 68.416L604.59 66.591C604.59 59.884 606.619 53.433 610.456 47.936C610.789 47.459 611.446 47.342 611.923 47.675C612.4 48.009 612.517 48.665 612.184 49.142C608.964 53.754 607.106 59.085 606.757 64.662C611.42 61.567 615.111 57.281 617.497 52.169C617.743 51.642 618.37 51.414 618.898 51.66C619.425 51.907 619.652 52.533 619.407 53.061C616.563 59.153 611.986 64.147 606.17 67.504L604.59 68.416Z" fill="black"/>
<path d="M604.59 11.958L604.59 10.133L606.17 11.045C611.904 14.353 616.443 19.265 619.296 25.249C619.546 25.776 619.323 26.404 618.798 26.654C618.273 26.904 617.644 26.682 617.393 26.156C615.003 21.143 611.347 16.934 606.757 13.887C607.102 19.402 608.927 24.685 612.086 29.269C612.416 29.749 612.295 30.404 611.816 30.735C611.336 31.065 610.68 30.945 610.35 30.465C606.583 24.995 604.59 18.596 604.59 11.958Z" fill="black"/>
<path d="M625.407 30.529C625.407 30.35 625.452 30.169 625.548 30.003L631.222 20.178C631.513 19.674 632.158 19.501 632.661 19.792C633.165 20.083 633.337 20.729 633.047 21.231L627.373 31.056C627.082 31.56 626.437 31.733 625.934 31.442C625.596 31.247 625.407 30.893 625.407 30.529Z" fill="black"/>
<path d="M609.639 20.706C609.639 20.342 609.828 19.988 610.166 19.793C610.67 19.502 611.315 19.675 611.605 20.179L617.275 30.004C617.566 30.507 617.394 31.152 616.889 31.443C616.384 31.734 615.74 31.561 615.45 31.057L609.78 21.232C609.684 21.066 609.639 20.884 609.639 20.706Z" fill="black"/>
<path d="M609.639 57.844C609.639 57.665 609.684 57.484 609.78 57.318L615.45 47.493C615.741 46.989 616.385 46.816 616.889 47.107C617.393 47.398 617.565 48.043 617.275 48.546L611.605 58.371C611.314 58.875 610.67 59.048 610.166 58.757C609.828 58.562 609.639 58.207 609.639 57.844Z" fill="black"/>
<path d="M599.107 39.276C599.107 38.694 599.579 38.222 600.161 38.222L611.508 38.222C612.09 38.222 612.562 38.694 612.562 39.276C612.562 39.858 612.09 40.33 611.508 40.33L600.161 40.33C599.579 40.33 599.107 39.858 599.107 39.276Z" fill="black"/>
<path d="M629.013 39.276C629.013 38.694 629.485 38.222 630.067 38.222L641.41 38.222C641.992 38.222 642.464 38.694 642.464 39.276C642.464 39.858 641.992 40.33 641.41 40.33L630.066 40.33C629.485 40.33 629.013 39.858 629.013 39.276Z" fill="black"/>
<path d="M625.407 48.021C625.407 47.657 625.596 47.303 625.934 47.108C626.438 46.817 627.082 46.989 627.373 47.494L633.047 57.319C633.338 57.822 633.166 58.467 632.661 58.758C632.157 59.049 631.513 58.877 631.222 58.372L625.548 48.547C625.452 48.381 625.407 48.2 625.407 48.021Z" fill="black"/>
<path d="M606.826 36.098L607.205 34.849C607.841 32.752 608.959 30.784 610.441 29.158L611.334 28.178L612.087 29.269C614.642 32.97 618.046 36.113 621.931 38.359C621.933 38.361 621.937 38.363 621.94 38.364L620.885 40.189C620.882 40.187 620.879 40.185 620.876 40.183C616.944 37.912 612.655 36.574 608.128 36.204L606.826 36.098ZM611.166 31.591C610.561 32.411 610.054 33.305 609.66 34.242C611.235 34.436 612.783 34.742 614.296 35.158C613.168 34.046 612.12 32.853 611.166 31.591Z" fill="black"/>
<path d="M623.428 25.702C623.428 25.55 623.461 25.396 623.531 25.249C626.384 19.265 630.923 14.354 636.657 11.045L638.237 10.133L638.237 11.958C638.237 18.596 636.245 24.995 632.476 30.465C632.146 30.944 631.49 31.065 631.01 30.735C630.531 30.404 630.41 29.748 630.74 29.269C633.899 24.685 635.724 19.402 636.069 13.887C631.479 16.934 627.824 21.143 625.433 26.156C625.182 26.681 624.553 26.904 624.028 26.654C623.65 26.474 623.428 26.096 623.428 25.702Z" fill="black"/>
<path d="M633.478 43.391C633.478 43.361 633.479 43.331 633.482 43.301C633.531 42.721 634.041 42.29 634.621 42.339C640.213 42.811 645.742 41.754 650.728 39.276C645.761 36.806 640.259 35.746 634.698 36.204C634.118 36.252 633.609 35.82 633.561 35.24C633.507 34.665 633.944 34.152 634.525 34.103C641.158 33.557 647.713 35.03 653.482 38.363L655.061 39.276L653.482 40.189C647.694 43.533 641.112 45.003 634.444 44.44C633.894 44.393 633.478 43.933 633.478 43.391Z" fill="black"/>
<path d="M623.32 52.616C623.32 52.219 623.546 51.839 623.929 51.66C624.457 51.414 625.084 51.642 625.329 52.17C627.712 57.28 631.403 61.566 636.069 64.663C635.72 59.087 633.862 53.756 630.642 49.143C630.309 48.666 630.426 48.009 630.903 47.676C631.38 47.343 632.037 47.459 632.37 47.937C636.208 53.434 638.236 59.885 638.236 66.592L638.236 68.417L636.655 67.505C630.834 64.146 626.257 59.151 623.418 53.062C623.352 52.916 623.32 52.765 623.32 52.616Z" fill="black"/>
<path d="M620.885 40.189L621.938 38.363C625.858 40.622 630.124 41.959 634.62 42.339L635.941 42.451L635.535 43.713C634.875 45.763 633.749 47.68 632.277 49.259L631.388 50.212L630.642 49.143C628.062 45.447 624.78 42.435 620.885 40.189ZM633.061 44.294C631.529 44.1 630.024 43.8 628.55 43.396C629.629 44.464 630.636 45.61 631.566 46.833C632.16 46.048 632.663 45.193 633.061 44.294Z" fill="black"/>
<path d="M616.94 53.362L617.498 52.169C619.396 48.111 620.358 43.774 620.358 39.277L622.466 39.277C622.466 43.77 623.429 48.107 625.329 52.169L625.887 53.362L624.6 53.644C623.566 53.871 622.494 53.986 621.412 53.986C620.332 53.986 619.261 53.871 618.227 53.644L616.94 53.362ZM621.413 47.522C621.033 48.973 620.551 50.401 619.967 51.798C620.444 51.852 620.927 51.878 621.412 51.878C621.899 51.878 622.383 51.851 622.861 51.797C622.276 50.4 621.794 48.973 621.413 47.522Z" fill="black"/>
<path d="M606.883 42.451L608.204 42.34C612.706 41.96 616.968 40.625 620.874 38.371C620.878 38.369 620.881 38.366 620.885 38.364L621.939 40.189C618.046 42.436 614.764 45.448 612.185 49.143L611.439 50.212L610.55 49.259C609.075 47.677 607.948 45.759 607.289 43.713L606.883 42.451ZM614.276 43.397C612.802 43.8 611.297 44.1 609.764 44.294C610.162 45.192 610.666 46.047 611.262 46.833C612.19 45.611 613.197 44.465 614.276 43.397Z" fill="black"/>
<path d="M620.885 38.364C620.891 38.361 620.897 38.357 620.902 38.354C624.785 36.109 628.187 32.968 630.741 29.269L631.494 28.178L632.387 29.158C633.871 30.786 634.989 32.754 635.62 34.85L635.996 36.098L634.697 36.204C630.171 36.574 625.884 37.912 621.954 40.18C621.949 40.183 621.944 40.186 621.939 40.189L620.885 38.364ZM631.661 31.591C630.707 32.852 629.659 34.045 628.532 35.157C630.045 34.741 631.59 34.436 633.165 34.242C632.773 33.306 632.266 32.413 631.661 31.591Z" fill="black"/>
<path d="M616.826 24.964L618.115 24.675C619.204 24.431 620.314 24.307 621.412 24.307C622.513 24.307 623.623 24.431 624.712 24.675L626.001 24.964L625.433 26.157C623.492 30.228 622.466 34.765 622.466 39.277L620.358 39.277C620.358 34.761 619.333 30.224 617.394 26.157L616.826 24.964ZM622.963 26.509C622.446 26.446 621.927 26.414 621.412 26.414C620.897 26.414 620.38 26.446 619.864 26.509C620.491 27.986 621.009 29.512 621.413 31.07C621.817 29.513 622.336 27.986 622.963 26.509Z" fill="black"/>
</g>
<defs>
<clipPath id="clip0_15_2">
<rect width="77.282" height="676.854" fill="white" transform="translate(676.854 3.05176e-05) rotate(90)"/>
</clipPath>
</defs>
</svg>
