<svg viewBox="0 0 1042.8 593.35" xml:space="preserve" xmlns="http://www.w3.org/2000/svg">
  <style>
    .st0{fill:#6d4122}.st1{fill:#2274a5}.st2{fill:#f1c40f}.st4{fill:#d90368}.st5{fill:#0c6}
  </style>
  <path class="st0" d="M183.35 32.377h14.06v128.76h-14.06zM1042.1 593.19h-14.5l.7-592.487 13.8 14.06z"/>
  <path class="st0" d="M1042.1 592.87v-14.5l-1041.398.7 14.061 13.8z"/>
  <clipPath id="mask">
		<path fill="black" d="M183.39 187.08h661.78v372.24H183.39z"/>
	</clipPath>
  <path class="st1" d="m845.16 187.08-.02 98.482s-.248 6.975-4.946 9.848c-4.697 2.873-13.309 9.194-25.074-2.833 0 0-4.636-2.699-1.887-16.546s7.148-17.627 1.72-28.722-20.984-6.203-20.984-6.203l-3.036 1.652.307-1.407s2.268-4.262 2.419-6.84.903-8.288-5.151-14.867-13.531-4.364-17.349-3.845-15.361 4.96-20.292 4.643c-4.931-.318-13.42.563-17.747-14.072 0-19.289 13.704-19.169 16.262-19.229 2.559-.061 95.778-.061 95.778-.061z"/>
  <path class="st2" d="M196.75 34.026h649.36v127.11H196.75z"/>
  <path class="st0" d="M183.39 19.966h661.78v14.06H183.39z"/>
  <path d="M1008.8 268.86V19.97H864.44v539.36h144.36V268.86zM19.97 444.05v115.28h144.16V19.97H19.97v424.08zM1028.07.71V578.6H.67V.71h1027.4zM845.18 559.33V187.09H183.4v96.512a13.736 13.736 0 0 0 0 2.765v272.97h661.78zm0-398.19V19.98H183.4v141.17h661.78z" style="fill:#a06b44"/>
  <path class="st0" d="M1008.8 559.24v.084h-14.479l-46.264-46.264a57.353 57.353 0 0 1 8.326-6.198l52.378 52.378h.039z"/>
  <path class="st0" d="M1008.8 544.64v14.603h-.039l-52.378-52.378a57.441 57.441 0 0 1 9.893-4.828l.118.318 42.282 42.285h.124z"/>
  <path class="st0" d="M1008.8 530.12v14.524h-.124l-42.282-42.285-.118-.318a57.114 57.114 0 0 1 11.346-2.976l31.054 31.054h.124z"/>
  <path class="st0" d="M1008.8 515.6v14.521h-.124l-31.054-31.054a57.263 57.263 0 0 1 8.862-.688 57.37 57.37 0 0 1-4.299-9.256l.008-.003 26.483 26.48h.124z"/>
  <path class="st0" d="M1008.8 501.07v14.521h-.124l-26.483-26.48-.008.003a57.615 57.615 0 0 1-3.389-17.747l.174-.003 29.706 29.706h.124z"/>
  <path class="st0" d="M1008.8 486.55v14.521h-.124l-29.706-29.706-.174.003a57.688 57.688 0 0 1 1.116-13.229l.444.09 28.32 28.32h.124z"/>
  <path class="st0" d="M1008.8 472.03v14.521h-.124l-28.32-28.32-.444-.09a57.674 57.674 0 0 1 3.54-11.335l25.224 25.224h.124z"/>
  <path class="st0" d="M1008.8 457.51v14.521h-.124l-25.224-25.224a57.776 57.776 0 0 1 3.032-6.041c-3.366 0-6.687-.292-9.938-.865l-112.03-112.03h-.079V313.35h.079l144.16 144.16h.124z"/>
  <path class="st0" d="M1008.8 442.99v14.521h-.124l-144.16-144.16h-.079V298.83h.079l17.356 17.356.413.267a63.981 63.981 0 0 0-1.349 2.228c1.208 0 2.408-.034 3.605-.101l.017.292 124.12 124.12h.125z"/>
  <path class="st0" d="M1008.8 428.47v14.521h-.124l-124.12-124.12-.017-.292a64.176 64.176 0 0 0 12.588-1.97l.11.419 111.44 111.44h.123z"/>
  <path class="st0" d="M1008.8 413.95v14.521h-.124l-111.44-111.44-.11-.419a63.787 63.787 0 0 0 10.481-3.729l22.254 22.254.244-.062a64.062 64.062 0 0 0 6.488 15.743 63.228 63.228 0 0 0 3.023-5.929l69.057 69.06h.125z"/>
  <path class="st0" d="M1008.8 399.42v14.521h-.124l-69.057-69.06a64.085 64.085 0 0 0 3.717-10.801l65.34 65.34h.124z"/>
  <path class="st0" d="M1008.8 384.9v14.524h-.124l-65.34-65.34a64.148 64.148 0 0 0 1.815-12.709l63.525 63.525h.124z"/>
  <path class="st0" d="M1008.8 370.38v14.521h-.124l-63.525-63.525a63.393 63.393 0 0 0-.155-7.941 27.635 27.635 0 0 0 4.833-1.973l.079.152 58.768 58.765h.124z"/>
  <path class="st0" d="M1008.8 355.86v14.521h-.124l-58.768-58.765-.079-.152a28.194 28.194 0 0 0 5.937-4.145 64.269 64.269 0 0 0 10.191 5.735l-.028.059 42.746 42.746h.125z"/>
  <path class="st0" d="M1008.8 341.34v14.521h-.124l-42.746-42.746.028-.059a64.132 64.132 0 0 0 19.722 5.288l22.996 22.996h.124z"/>
  <path class="st0" d="M1008.8 326.82v14.521h-.124l-22.996-22.996c2.172.225 4.366.337 6.575.337a64.242 64.242 0 0 0-28.006-25.881c.455-2.012.694-4.105.694-6.249 0-1.256-.081-2.492-.244-3.706h.003l43.974 43.974h.124z"/>
  <path class="st0" d="M1008.8 312.3v14.521h-.124l-43.974-43.974h-.003a26.969 26.969 0 0 0-.45-2.546 63.605 63.605 0 0 0 7.929-4.499l36.497 36.497h.125z"/>
  <path class="st0" d="M1008.8 297.77v14.521h-.124l-36.497-36.497a63.632 63.632 0 0 0 8.123-6.398l28.374 28.374h.124z"/>
  <path class="st0" d="M1008.8 283.25v14.521h-.124l-28.374-28.374a63.49 63.49 0 0 0 6.926-7.536l.287.225 21.161 21.164h.124z"/>
  <path class="st0" d="M1008.8 268.86v14.398h-.124l-21.161-21.164-.287-.225a64.226 64.226 0 0 0 5.027-7.449c-3.861 0-7.674.346-11.397 1.017l-116.34-116.34h-.079v-14.6l144.36 144.36zM1008.8 254.21v14.645l-144.36-144.36v-14.442h.079l22.223 22.223-.034.056h.09l121.88 121.88h.124z"/>
  <path class="st0" d="M1008.8 239.69v14.524h-.124l-121.88-121.88a57.534 57.534 0 0 1 17.165 2.644l104.72 104.71h.124z"/>
  <path class="st0" d="M1008.8 225.16v14.521h-.124l-104.72-104.71a57.575 57.575 0 0 1 32.636 26.16 57.698 57.698 0 0 1 3.161-4.886l68.919 68.919h.125z"/>
  <path class="st0" d="M1008.8 210.64v14.521h-.124l-68.919-68.919a57.184 57.184 0 0 1 6.741-7.78l62.179 62.179h.123z"/>
  <path class="st0" d="M1008.8 196.12v14.521h-.124l-62.179-62.179a57.583 57.583 0 0 1 8.047-6.474l54.131 54.131h.125z"/>
  <path class="st0" d="M1008.8 181.6v14.521h-.124l-54.131-54.131a57.307 57.307 0 0 1 9.436-5.086l44.696 44.696h.123z"/>
  <path class="st0" d="M1008.8 166.61v14.996h-.124L963.98 136.91a57.417 57.417 0 0 1 11.085-3.436l33.136 33.136h.599z"/>
  <path class="st0" d="M1008.8 152.56v14.046h-.599l-33.136-33.136a57.736 57.736 0 0 1 11.419-1.141 57.426 57.426 0 0 1-2.161-4.122l24.353 24.353h.124z"/>
  <path class="st0" d="M1008.8 138.04v14.521h-.124l-24.353-24.353a57.482 57.482 0 0 1-5.353-19.877l29.706 29.708h.124z"/>
  <path class="st0" d="M1008.8 123.52v14.521h-.124l-29.706-29.708a57.486 57.486 0 0 1 .534-13.988l29.172 29.174h.124z"/>
  <path class="st0" d="M1008.8 109v14.521h-.124l-29.172-29.174a57.42 57.42 0 0 1 3.009-11.253l.413.157L1008.675 109h.125z"/>
  <path class="st0" d="M1008.8 94.472v14.524h-.124l-25.749-25.749-.413-.157a57.307 57.307 0 0 1 3.97-8.37c-4.695 0-9.309-.57-13.757-1.669v-.003l-53.08-53.08h14.521l74.508 74.505h.124z"/>
  <path class="st0" d="M1008.8 79.951v14.521h-.1l-74.54-74.505h14.52l60.02 59.984z"/>
  <path class="st0" d="M1008.8 65.43v14.521h-.1l-60.02-59.984h14.53l45.49 45.463z"/>
  <path class="st0" d="M1008.8 50.908V65.43h-.1l-45.49-45.463h14.52l30.97 30.941z"/>
  <path class="st0" d="M1008.8 36.387v14.521h-.1l-30.97-30.941h14.52l16.45 16.42z"/>
  <path class="st0" d="M1008.8 19.967v16.42h-.1l-16.45-16.42zM994.31 559.33h-14.521l-38.756-38.756a57.49 57.49 0 0 1 7.013-7.508l46.264 46.264z"/>
  <path class="st2" d="M980.3 269.4a63.632 63.632 0 0 1-8.123 6.398 64.19 64.19 0 0 1-35.583 10.751 64.217 64.217 0 0 1 23.074-23.26 64.373 64.373 0 0 1 9.694-4.659 64.164 64.164 0 0 1 22.892-4.215A64.312 64.312 0 0 1 980.3 269.4z"/>
  <path class="st4" d="m986.48 74.719-20.057 11.582a72.449 72.449 0 0 1-29.832-17.224V45.915A57.552 57.552 0 0 0 957.676 67a57.566 57.566 0 0 0 15.047 6.05 57.375 57.375 0 0 0 13.757 1.669z"/>
  <path class="st4" d="M978.96 108.33a57.482 57.482 0 0 0 5.353 19.877c.66 1.394 1.38 2.77 2.161 4.122l-20.057-11.582a72.481 72.481 0 0 1 0-34.446l20.057-11.582a57.253 57.253 0 0 0-3.97 8.37 57.438 57.438 0 0 0-3.009 11.253 57.468 57.468 0 0 0-.535 13.988zM946.49 148.47a57.305 57.305 0 0 0-6.741 7.78 57.611 57.611 0 0 0-3.161 4.886v-23.161a72.449 72.449 0 0 1 29.832-17.224l20.057 11.582a57.579 57.579 0 0 0-22.504 4.577 57.396 57.396 0 0 0-9.436 5.086 57.57 57.57 0 0 0-8.047 6.474zM976.54 439.9c3.251.573 6.572.865 9.938.865l-20.057 11.582a72.515 72.515 0 0 1-29.832-17.224v-23.161a57.567 57.567 0 0 0 21.085 21.085 57.578 57.578 0 0 0 18.866 6.853zM983.44 446.81a57.674 57.674 0 0 0-4.656 24.564 57.591 57.591 0 0 0 7.688 27.003l-20.057-11.579a72.481 72.481 0 0 1 0-34.446l20.057-11.582a57.761 57.761 0 0 0-3.032 6.04z"/>
  <path class="st4" d="M977.62 499.06a56.978 56.978 0 0 0-11.346 2.976 57.395 57.395 0 0 0-9.893 4.828 57.48 57.48 0 0 0-8.326 6.198 57.49 57.49 0 0 0-11.461 14.114v-23.161a72.465 72.465 0 0 1 29.832-17.221l20.057 11.579a57.02 57.02 0 0 0-8.863.687z"/>
  <path class="st2" d="M992.25 318.68c-2.209 0-4.403-.112-6.575-.337a64.132 64.132 0 0 1-19.722-5.288 64.226 64.226 0 0 1-29.362-26.505 64.246 64.246 0 0 1 55.659 32.13z"/>
  <path class="st0" d="m864.51 139.09 116.34 116.34a64.08 64.08 0 0 0-11.495 3.198l-.107-.278-29.236-29.236h-.003a64.306 64.306 0 0 0-3.422-6.836 64.764 64.764 0 0 0-1.211 2.2h-.003l-70.867-70.867h-.079V139.09h.079zM979.79 559.33h-14.521l-56.596-56.596a57.359 57.359 0 0 1 6.825 3.361 57.552 57.552 0 0 1 21.088 21.085 57.478 57.478 0 0 1 4.448-6.606l38.756 38.756zM864.51 327.87 976.54 439.9a57.58 57.58 0 0 1-18.865-6.853 57.567 57.567 0 0 1-21.085-21.085 56 56 0 0 1-.896 1.5l-.289-.177-70.895-70.895h-.079v-14.521h.078zM972.72 73.047v.003A57.58 57.58 0 0 1 957.673 67a57.552 57.552 0 0 1-21.085-21.085 59.91 59.91 0 0 1-2.029 3.262l-.657-.43-28.784-28.781h14.521l53.081 53.081z"/>
  <path class="st0" d="m969.25 258.35.107.278a64.277 64.277 0 0 0-9.694 4.659l-14.729-14.729a64.192 64.192 0 0 0-4.923-19.444h.003l29.236 29.236zM965.27 559.33h-14.521l-60.864-60.864a57.448 57.448 0 0 1 18.789 4.268l56.596 56.596z"/>
  <path class="st5" d="M964.69 282.84c.163 1.214.244 2.45.244 3.706 0 2.144-.239 4.237-.694 6.249a64.187 64.187 0 0 0-27.654-6.249 64.19 64.19 0 0 0 27.654-6.252c.188.835.34 1.683.45 2.546z"/>
  <path class="st1" d="M966.42 86.301a72.481 72.481 0 0 0 0 34.446 72.449 72.449 0 0 0-29.832 17.224 72.468 72.468 0 0 0-29.832-17.224 72.481 72.481 0 0 0 0-34.446 72.468 72.468 0 0 0 29.832-17.224 72.449 72.449 0 0 0 29.832 17.224zm-18.219 17.221c0-6.412-5.201-11.61-11.613-11.61s-11.613 5.198-11.613 11.61c0 6.415 5.201 11.613 11.613 11.613s11.613-5.198 11.613-11.613zM966.42 452.35a72.481 72.481 0 0 0 0 34.446 72.476 72.476 0 0 0-29.832 17.221 72.484 72.484 0 0 0-29.832-17.221 72.481 72.481 0 0 0 0-34.446 72.534 72.534 0 0 0 29.832-17.224 72.504 72.504 0 0 0 29.832 17.224zm-18.219 17.222c0-6.412-5.201-11.613-11.613-11.613-6.415 0-11.613 5.201-11.613 11.613 0 6.415 5.198 11.613 11.613 11.613 6.412 0 11.613-5.198 11.613-11.613z"/>
  <path class="st0" d="m944.93 248.56 14.729 14.729a63.39 63.39 0 0 0-3.903 2.487 28.187 28.187 0 0 0-10.77-6.123 64.412 64.412 0 0 0-.056-11.093z"/>
  <path class="st5" d="M944.99 259.65a28.187 28.187 0 0 1 10.77 6.123 64.206 64.206 0 0 0-19.171 20.773 64.202 64.202 0 0 0 8.401-26.896zM955.76 307.32a28.231 28.231 0 0 1-5.937 4.145 27.635 27.635 0 0 1-4.833 1.973 64.177 64.177 0 0 0-8.401-26.887 64.233 64.233 0 0 0 19.171 20.769z"/>
  <path class="st0" d="M950.75 559.33h-14.524l-71.718-71.721h-.079v-14.521h.079l23.291 23.291a56.524 56.524 0 0 1-1.102 1.998c1.068 0 2.133.031 3.189.09l60.864 60.863z"/>
  <path class="st2" d="M943.33 334.09a64.173 64.173 0 0 1-3.717 10.801 63.228 63.228 0 0 1-3.023 5.929 64.078 64.078 0 0 1-6.488-15.743 64.16 64.16 0 0 1-1.896-21.796 64.215 64.215 0 0 1 8.385-26.727 64.163 64.163 0 0 1 8.556 34.828 64.236 64.236 0 0 1-1.817 12.708zM944.93 248.56a64.202 64.202 0 0 1-8.345 37.989 64.21 64.21 0 0 1-8.385-26.733c-.371-4.4-.289-8.828.25-13.215a64.103 64.103 0 0 1 2.622-11.9 64.086 64.086 0 0 1 4.302-10.222c.388-.739.792-1.472 1.211-2.2a64.306 64.306 0 0 1 8.345 26.281z"/>
  <path class="st4" d="M936.59 91.912c6.412 0 11.613 5.198 11.613 11.61 0 6.415-5.201 11.613-11.613 11.613s-11.613-5.198-11.613-11.613c0-6.412 5.201-11.61 11.613-11.61z"/>
  <circle class="st4" cx="936.59" cy="469.57" r="11.613"/>
  <path class="st4" d="M908.68 502.73a57.448 57.448 0 0 0-18.789-4.268l-1.225-1.225 18.095-10.444a72.495 72.495 0 0 1 29.832 17.221v23.161a57.552 57.552 0 0 0-21.088-21.085 57.89 57.89 0 0 0-6.825-3.36zM890.17 440.66c4.17-.25 8.258-.95 12.2-2.068a57.663 57.663 0 0 0 27.053-16.789 57.254 57.254 0 0 0 7.165-9.84v23.161a72.523 72.523 0 0 1-29.832 17.224l-20.059-11.582a53.436 53.436 0 0 0 3.473-.106zM936.59 137.97v23.161a57.583 57.583 0 0 0-32.636-26.16 57.534 57.534 0 0 0-17.165-2.644l-.034-.034 20.003-11.548a72.476 72.476 0 0 1 29.832 17.225zM920.13 64.022a57.608 57.608 0 0 0 14.426-14.844 60.93 60.93 0 0 0 2.029-3.262v23.161a72.468 72.468 0 0 1-29.832 17.224l-20.059-11.582c4.583 0 9.087-.545 13.437-1.59a57.198 57.198 0 0 0 10.691-3.706 57.495 57.495 0 0 0 9.308-5.401z"/>
  <path class="st0" d="m864.51 487.61 71.72 71.72H921.7l-57.19-57.2h-.08v-14.52zM935.4 413.29l.289.177a57.308 57.308 0 0 1-6.269 8.34l-.233-.208-64.682-64.682h-.079v-14.521h.079L935.4 413.29zM935.38 224.48h.003a64.086 64.086 0 0 0-4.302 10.222l-66.568-66.568h-.079v-14.521h.079l70.867 70.867zM933.9 48.748l.657.43a57.683 57.683 0 0 1-6.606 8.143l-.104-.101-37.253-37.253h14.521L933.9 48.748z"/>
  <path class="st5" d="M936.59 286.55a64.234 64.234 0 0 0-8.385 26.727 28.038 28.038 0 0 1-10.492-6.165 64.179 64.179 0 0 0 18.877-20.562zM928.2 259.82a64.185 64.185 0 0 0 8.385 26.733 64.166 64.166 0 0 0-18.876-20.565c.18-.166.36-.332.545-.495a28.036 28.036 0 0 1 9.946-5.673z"/>
  <path class="st0" d="m864.51 168.13 66.568 66.568a64.103 64.103 0 0 0-2.622 11.9l-63.946-63.946h-.079v-14.521h.079zM930.1 335.07l-.244.062-22.254-22.254a63.91 63.91 0 0 0 9.345-5.246l.155.225 10.68 10.677h.194a64.078 64.078 0 0 0 2.124 16.536zM929.19 421.6l.233.208a57.594 57.594 0 0 1-7.581 7.002l-.129-.166-57.205-57.205h-.079v-14.521h.079L929.19 421.6z"/>
  <path class="st2" d="M894.06 255.77a64.224 64.224 0 0 1 23.653 10.214 64.144 64.144 0 0 1 18.876 20.565 64.17 64.17 0 0 1-27.182-6.033 64.27 64.27 0 0 1-14.046-8.935 64.231 64.231 0 0 1-8.047-8.036 64.525 64.525 0 0 1-6.384-9.129c4.465 0 8.859.463 13.13 1.354zM895.84 301.12a64.019 64.019 0 0 1 8.511-5.895 64.182 64.182 0 0 1 32.237-8.671 64.187 64.187 0 0 1-19.64 21.085 64.014 64.014 0 0 1-9.345 5.246 63.846 63.846 0 0 1-10.481 3.729 64.176 64.176 0 0 1-16.193 2.071 64.073 64.073 0 0 1 7.536-10.461 63.724 63.724 0 0 1 7.375-7.104z"/>
  <path class="st0" d="m864.51 182.66 63.946 63.946a64.154 64.154 0 0 0-.25 13.215c-.315.101-.627.208-.936.32l-.118-.318-62.642-62.642h-.079V182.66h.079zM928.2 313.28a65.985 65.985 0 0 0-.228 5.26h-.194l-10.68-10.677-.155-.225c.256-.171.511-.346.764-.523a28.05 28.05 0 0 0 10.493 6.165zM927.85 57.219l.104.101a57.466 57.466 0 0 1-7.82 6.701l-44.058-44.055h14.521l37.253 37.253z"/>
  <path class="st0" d="m927.15 259.82.118.318a28.036 28.036 0 0 0-9.011 5.353l-.421-.464-53.328-53.328h-.079v-14.521h.079l62.642 62.642z"/>
  <path class="st5" d="M909.41 280.52a64.185 64.185 0 0 0 27.182 6.033 64.182 64.182 0 0 0-27.182 6.03 28.469 28.469 0 0 1-.646-6.03c0-.601.02-1.2.059-1.79a28.07 28.07 0 0 1 .587-4.243z"/>
  <path class="st0" d="m921.71 428.64.129.166a57.663 57.663 0 0 1-9.014 5.693l-.222-.441-48.099-48.101h-.079v-14.521h.079l57.206 57.204zM864.51 502.13l57.19 57.2h-14.52l-42.67-42.68h-.08v-14.52zM876.08 19.967l44.058 44.055a57.31 57.31 0 0 1-9.309 5.4l-.16-.346-46.157-46.156h-.079v-2.953h11.647zM917.84 265.03l.421.464c-.185.163-.365.329-.545.495a64.24 64.24 0 0 0-23.653-10.214l-29.551-29.551h-.079v-14.521h.079l53.328 53.327z"/>
  <path class="st0" d="m912.61 434.06.222.441a57.384 57.384 0 0 1-10.458 4.094l-.098-.348-37.764-37.764h-.079v-14.524h.079l48.098 48.101zM910.66 69.077l.16.346a57.223 57.223 0 0 1-10.691 3.706l-.02-.081-35.606-35.606h-.079V22.92h.079l46.157 46.157zM909.41 280.52a28.07 28.07 0 0 0-.587 4.243l-.315-.02-13.15-13.15.006-.008a64.22 64.22 0 0 0 14.046 8.935z"/>
  <path class="st0" d="m908.5 284.74.315.02c-.039.59-.059 1.189-.059 1.79 0 2.068.225 4.085.646 6.03a63.312 63.312 0 0 0-5.055 2.641l-.157-.273-39.686-39.683h-.079v-14.524h.079l22.805 22.805a64.298 64.298 0 0 0 8.047 8.036l-.006.008 13.15 13.15zM864.51 516.65l42.67 42.68h-14.52l-28.15-28.16h-.08v-14.52z"/>
  <path class="st4" d="M893.9 95.88a57.57 57.57 0 0 0-7.207-21.161l20.059 11.582a72.481 72.481 0 0 1 0 34.446l-20.003 11.548-.022-.022a57.531 57.531 0 0 0 7.269-21.854 57.194 57.194 0 0 0-.096-14.539zM892.01 486.06a57.52 57.52 0 0 0 2.251-12.268c.107-1.405.157-2.815.157-4.223a57.87 57.87 0 0 0-1.107-11.251l-.003-.003a57.54 57.54 0 0 0-6.609-17.55l20.059 11.582a72.481 72.481 0 0 1 0 34.446l-18.095 10.444-.863-.863a57.629 57.629 0 0 0 4.21-10.314z"/>
  <path class="st0" d="m904.19 294.95.157.273a64.019 64.019 0 0 0-8.511 5.895l-31.332-31.33h-.079v-14.521h.079l39.686 39.683zM902.27 438.24l.098.348a57.263 57.263 0 0 1-12.2 2.068l-25.662-25.659h-.079v-14.521h.079l37.764 37.764zM900.11 73.047l.02.081a57.493 57.493 0 0 1-13.437 1.59v-.565l-22.189-22.192h-.079v-14.52h.079l35.606 35.606z"/>
  <path class="st0" d="m864.51 269.78 31.332 31.33a63.727 63.727 0 0 0-7.376 7.103l-.405-.36-23.552-23.552h-.079V269.78h.08zM894.42 469.57c0 1.408-.051 2.818-.157 4.223l-29.829-29.829v-14.443h.079l28.798 28.795.003.003a57.947 57.947 0 0 1 1.106 11.251z"/>
  <path class="st0" d="m864.43 443.96 29.829 29.829a57.531 57.531 0 0 1-2.251 12.268l-27.5-27.497h-.079v-14.6zM864.51 226.22l29.551 29.551a64.256 64.256 0 0 0-13.13-1.354 64.525 64.525 0 0 0 6.384 9.129l-22.805-22.805h-.079V226.22h.079zM894.42 103.52c0 2.304-.138 4.605-.416 6.895l-.093-.011-29.399-29.402h-.079V66.481h.079l29.396 29.396c.343 2.538.512 5.089.512 7.643z"/>
  <path class="st0" d="m893.91 110.41.093.011a57.5 57.5 0 0 1-2.599 11.503l-.511-.014-26.381-26.381h-.079V81.008h.079l29.398 29.402zM893.9 95.88l-29.396-29.396h-.079V51.962h.079l22.189 22.192v.565A57.54 57.54 0 0 1 893.9 95.88zM893.31 458.32l-28.798-28.795h-.079v-14.521h.079l25.662 25.659c-1.152.073-2.31.107-3.473.107a57.55 57.55 0 0 1 6.609 17.55zM892.66 559.33h-14.52l-13.63-13.64h-.08v-14.52h.08zM864.51 458.56l27.5 27.497a57.634 57.634 0 0 1-4.209 10.315l-23.291-23.291h-.079V458.56h.079z"/>
  <path class="st0" d="m890.89 121.91.511.014a57.708 57.708 0 0 1-4.67 10.351l-22.223-22.223h-.079V95.529h.079l26.382 26.381zM888.06 307.86l.405.36a64.073 64.073 0 0 0-6.187 8.233l-.413-.267-17.356-17.356h-.079v-14.521h.079l23.551 23.551zM878.14 559.33h-13.71v-13.64h.08z"/>
  <path class="st1" d="M280.39 187.24c1.801 0 3.605.34 5.294 1.034 4.336 1.781 7.522 5.785 8.893 10.202 1.343 4.327.938 9.109-1.124 13.144-2.054 4.012-5.712 7.308-10.113 8.472-4.209 1.115-8.66.337-12.807-.686l-3.184-.854c-4.749-1.312-9.548-2.95-14.49-3.318-3.088-.343-5.881.056-8.826 1.652a15.515 15.515 0 0 0-3.066 2.051c-3.639 2.886-5.822 7.232-6.232 11.86-.028.309-.048.618-.059.927-.185 4.909 1.748 9.789 5.294 13.201l-.003.003c-3.349-3.363-8.067-5.195-12.807-5.016-4.898.185-9.435 2.49-12.605 6.204-2.841 3.327-3.97 7.39-3.65 11.717.362 4.872 1.978 9.601 3.273 14.282l.84 3.136c1.006 4.088 1.773 8.474.677 12.625-1.146 4.336-4.397 7.941-8.351 9.964-3.976 2.034-8.691 2.433-12.956 1.11-4.352-1.352-8.3-4.493-10.054-8.764a13.635 13.635 0 0 1-.95-3.833v-99.277h97.004v.164z"/>
  <path class="st0" d="M164.13 559.16v.166h-14.355l-46.264-46.264a57.194 57.194 0 0 1 8.326-6.196l52.293 52.294z"/>
  <path class="st0" d="M164.13 544.64v14.521l-52.294-52.294a57.269 57.269 0 0 1 9.89-4.831l.118.318 42.286 42.286z"/>
  <path class="st0" d="M164.13 530.12v14.524l-42.285-42.285-.118-.318a57.114 57.114 0 0 1 11.346-2.976l31.057 31.055z"/>
  <path class="st0" d="M164.13 515.6v14.521l-31.057-31.054a57.33 57.33 0 0 1 8.865-.688 57.37 57.37 0 0 1-4.299-9.256l.008-.003 26.483 26.48z"/>
  <path class="st0" d="M164.13 501.07v14.521l-26.483-26.48-.008.003a57.487 57.487 0 0 1-3.391-17.744l.177-.006 29.705 29.706z"/>
  <path class="st0" d="M164.13 486.55v14.521l-29.705-29.706-.177.006a57.688 57.688 0 0 1 1.116-13.232l.447.09 28.319 28.321z"/>
  <path class="st0" d="M164.13 472.03v14.521l-28.32-28.32-.447-.09a57.684 57.684 0 0 1 3.543-11.335l25.224 25.224z"/>
  <path class="st0" d="M164.13 457.51v14.521l-25.224-25.224a57.776 57.776 0 0 1 3.032-6.041c-3.366 0-6.69-.292-9.938-.865L19.97 327.871V313.35l144.16 144.16z"/>
  <path class="st0" d="M164.13 442.99v14.521L19.97 313.351V298.83l17.356 17.356.413.267a63.981 63.981 0 0 0-1.349 2.228c1.208 0 2.408-.034 3.605-.101l.017.292 124.12 124.12z"/>
  <path class="st0" d="M164.13 428.47v14.521L40.01 318.871l-.017-.292a64.176 64.176 0 0 0 12.588-1.97l.11.419 111.44 111.44z"/>
  <path class="st0" d="M164.13 413.95v14.521L52.69 317.031l-.11-.419a64.065 64.065 0 0 0 10.481-3.729l22.254 22.254.242-.062a64.149 64.149 0 0 0 6.491 15.743 63.228 63.228 0 0 0 3.023-5.929l69.057 69.061z"/>
  <path class="st0" d="M164.13 399.42v14.521l-69.057-69.06a64.085 64.085 0 0 0 3.717-10.801l65.34 65.34z"/>
  <path class="st0" d="M164.13 384.9v14.524l-65.34-65.34a64.148 64.148 0 0 0 1.815-12.709L164.13 384.9z"/>
  <path class="st0" d="M164.13 370.38v14.521l-63.525-63.525a63.393 63.393 0 0 0-.155-7.941 27.73 27.73 0 0 0 4.833-1.973l.079.152 58.768 58.766z"/>
  <path class="st0" d="M164.13 355.86v14.521l-58.768-58.765-.079-.152a28.194 28.194 0 0 0 5.937-4.145 64.269 64.269 0 0 0 10.191 5.735l-.028.059 42.747 42.747z"/>
  <path class="st0" d="M164.13 341.34v14.521l-42.746-42.746.028-.059a64.132 64.132 0 0 0 19.722 5.288l22.996 22.996z"/>
  <path class="st0" d="M164.13 326.82v14.521l-22.996-22.996c2.172.225 4.364.337 6.575.337a64.236 64.236 0 0 0-28.008-25.881 28.315 28.315 0 0 0 .453-9.955h.003l43.973 43.974z"/>
  <path class="st0" d="M164.13 312.3v14.521l-43.974-43.974h-.003a27.97 27.97 0 0 0-.452-2.546 64.024 64.024 0 0 0 7.932-4.499L164.13 312.3zM164.13 297.77v14.521l-36.497-36.497a64.079 64.079 0 0 0 8.123-6.398l28.374 28.374z"/>
  <path class="st0" d="M164.13 283.25v14.521l-28.374-28.374a63.49 63.49 0 0 0 6.926-7.536l.284.225 21.164 21.164z"/>
  <path class="st0" d="M164.13 268.73v14.521l-21.164-21.164-.284-.225a63.849 63.849 0 0 0 5.027-7.449c-4.032 0-8.011.377-11.891 1.11l-.135-.719-115.71-115.71v-14.521l144.16 144.16z"/>
  <path class="st0" d="M164.13 254.21v14.521L19.97 124.571V110.05l22.223 22.223-.034.056h.09l121.88 121.88z"/>
  <path class="st0" d="M164.13 239.69v14.524L42.25 132.334a57.55 57.55 0 0 1 17.165 2.644l104.72 104.71zM164.13 225.16v14.521L59.41 134.971a57.583 57.583 0 0 1 32.636 26.16 58.42 58.42 0 0 1 3.158-4.886l68.923 68.918z"/>
  <path class="st0" d="M164.13 210.64v14.521l-68.922-68.919a57.415 57.415 0 0 1 6.744-7.78l62.178 62.178z"/>
  <path class="st0" d="M164.13 196.12v14.521l-62.179-62.179a57.583 57.583 0 0 1 8.047-6.474l54.132 54.132z"/>
  <path class="st0" d="M164.13 181.6v14.521l-54.131-54.131a57.396 57.396 0 0 1 9.436-5.086L164.13 181.6z"/>
  <path class="st0" d="M164.13 166.61v14.996l-44.696-44.696a57.417 57.417 0 0 1 11.085-3.436l33.136 33.136h.475z"/>
  <path class="st0" d="M164.13 152.56v14.046h-.475l-33.136-33.136a57.736 57.736 0 0 1 11.419-1.141 57.426 57.426 0 0 1-2.161-4.122l24.353 24.353z"/>
  <path class="st0" d="M164.13 138.04v14.521l-24.353-24.353a57.502 57.502 0 0 1-5.356-19.88l29.709 29.712z"/>
  <path class="st0" d="M164.13 123.52v14.521l-29.708-29.711a57.486 57.486 0 0 1 .534-13.985l29.174 29.175z"/>
  <path class="st0" d="M164.13 109v14.521l-29.174-29.174a57.22 57.22 0 0 1 3.012-11.253l.413.157L164.13 109z"/>
  <path class="st0" d="M164.13 94.472v14.524l-25.749-25.749-.413-.157a57.307 57.307 0 0 1 3.97-8.37c-4.695 0-9.309-.57-13.757-1.669v-.003l-53.08-53.08h14.521l74.508 74.504z"/>
  <path class="st0" d="M164.13 79.951v14.521L89.62 19.967h14.52z"/>
  <path class="st0" d="M164.13 65.43v14.521l-59.99-59.984h14.52zM164.13 50.908V65.43l-45.47-45.463h14.52z"/>
  <path class="st0" d="M164.13 36.387v14.521l-30.95-30.941h14.53z"/>
  <path class="st0" d="M164.13 19.967v16.42l-16.42-16.42zM149.77 559.33h-14.521l-38.756-38.756a57.083 57.083 0 0 1 7.013-7.508l46.264 46.264z"/>
  <path class="st2" d="M127.63 275.8a64.18 64.18 0 0 1-35.584 10.751 64.217 64.217 0 0 1 19.171-20.773 64.433 64.433 0 0 1 13.594-7.145 64.01 64.01 0 0 1 11.003-3.105 64.043 64.043 0 0 1 11.891-1.11 63.934 63.934 0 0 1-5.027 7.449 63.569 63.569 0 0 1-6.926 7.536 64.08 64.08 0 0 1-8.122 6.397z"/>
  <path class="st4" d="m141.94 74.719-20.057 11.582a72.449 72.449 0 0 1-29.832-17.224V45.915A57.544 57.544 0 0 0 113.136 67a57.566 57.566 0 0 0 15.047 6.05 57.37 57.37 0 0 0 13.757 1.669z"/>
  <path class="st4" d="M134.95 94.343a57.468 57.468 0 0 0-.534 13.985 57.502 57.502 0 0 0 5.356 19.88c.66 1.394 1.38 2.77 2.161 4.122l-20.057-11.582a72.43 72.43 0 0 1 0-34.446l20.057-11.582a57.253 57.253 0 0 0-3.97 8.37 57.273 57.273 0 0 0-3.013 11.253z"/>
  <path class="st4" d="M110 141.99a57.453 57.453 0 0 0-8.047 6.474 57.536 57.536 0 0 0-9.902 12.666v-23.161a72.449 72.449 0 0 1 29.832-17.224l20.057 11.582a57.579 57.579 0 0 0-22.504 4.577A57.396 57.396 0 0 0 110 141.99zM132 439.9c3.248.573 6.572.865 9.938.865l-20.059 11.582a72.523 72.523 0 0 1-29.829-17.224v-23.161a57.544 57.544 0 0 0 21.085 21.085A57.556 57.556 0 0 0 132 439.9zM138.9 446.81a57.684 57.684 0 0 0-3.543 11.335 57.763 57.763 0 0 0-1.116 13.232 57.517 57.517 0 0 0 3.391 17.744 57.449 57.449 0 0 0 4.299 9.256l-20.059-11.579a72.481 72.481 0 0 1 0-34.446l20.059-11.582a57.949 57.949 0 0 0-3.031 6.04zM111.83 506.87a57.248 57.248 0 0 0-8.326 6.196 57.478 57.478 0 0 0-11.461 14.114v-23.161a72.473 72.473 0 0 1 29.829-17.221l20.059 11.579a57.33 57.33 0 0 0-8.865.688 56.978 56.978 0 0 0-11.346 2.976 57.223 57.223 0 0 0-9.89 4.829z"/>
  <path class="st2" d="M147.71 318.68c-2.211 0-4.403-.112-6.575-.337a64.132 64.132 0 0 1-19.722-5.288 64.226 64.226 0 0 1-29.362-26.505 64.178 64.178 0 0 1 27.652 6.249 64.245 64.245 0 0 1 28.007 25.881z"/>
  <path class="st0" d="m135.68 254.81.135.719a64.01 64.01 0 0 0-11.003 3.105l-.107-.278-29.236-29.236a64.306 64.306 0 0 0-3.422-6.836c-.36.621-.705 1.248-1.042 1.877l-.702-.208-70.336-70.336v-14.521l115.71 115.71zM135.25 559.33h-14.524l-56.593-56.596a57.359 57.359 0 0 1 6.825 3.361 57.575 57.575 0 0 1 21.088 21.085 57.478 57.478 0 0 1 4.448-6.606l38.756 38.756zM19.967 327.87l112.03 112.03a57.548 57.548 0 0 1-18.865-6.853 57.544 57.544 0 0 1-21.085-21.085 49.13 49.13 0 0 1-.899 1.5l-.287-.177-70.895-70.895v-14.521zM128.18 73.047v.003A57.58 57.58 0 0 1 113.133 67a57.552 57.552 0 0 1-21.085-21.085 58.153 58.153 0 0 1-2.032 3.262l-.658-.43-28.78-28.78h14.521l53.081 53.08z"/>
  <path class="st0" d="M100.39 248.56a64.192 64.192 0 0 0-4.923-19.444l29.236 29.236.107.278a64.433 64.433 0 0 0-13.594 7.145 28.187 28.187 0 0 0-10.77-6.123 64.3 64.3 0 0 0-.056-11.092zM64.134 502.73l56.593 56.596h-14.521l-60.861-60.864a57.483 57.483 0 0 1 18.789 4.268z"/>
  <path class="st5" d="M120.15 282.84a28.315 28.315 0 0 1-.453 9.955 64.178 64.178 0 0 0-27.652-6.249 64.18 64.18 0 0 0 27.652-6.252c.189.835.341 1.683.453 2.546z"/>
  <path class="st1" d="M121.88 86.301a72.43 72.43 0 0 0 0 34.446 72.449 72.449 0 0 0-29.832 17.224 72.487 72.487 0 0 0-29.832-17.224 72.481 72.481 0 0 0 0-34.446 72.487 72.487 0 0 0 29.832-17.224 72.449 72.449 0 0 0 29.832 17.224zm-18.219 17.221c0-6.412-5.201-11.61-11.613-11.61-6.415 0-11.613 5.198-11.613 11.61 0 6.415 5.198 11.613 11.613 11.613 6.412 0 11.613-5.198 11.613-11.613zM121.88 452.35a72.481 72.481 0 0 0 0 34.446 72.484 72.484 0 0 0-29.829 17.221 72.503 72.503 0 0 0-29.832-17.221 72.481 72.481 0 0 0 0-34.446 72.553 72.553 0 0 0 29.832-17.224 72.512 72.512 0 0 0 29.829 17.224zm-18.219 17.222c0-6.412-5.198-11.613-11.61-11.613-6.415 0-11.613 5.201-11.613 11.613 0 6.415 5.198 11.613 11.613 11.613 6.412 0 11.61-5.198 11.61-11.613z"/>
  <path class="st5" d="M100.45 259.65a28.187 28.187 0 0 1 10.77 6.123 64.206 64.206 0 0 0-19.171 20.773 64.288 64.288 0 0 0 8.401-26.896zM111.22 307.32a28.231 28.231 0 0 1-5.937 4.145 27.73 27.73 0 0 1-4.833 1.973 64.263 64.263 0 0 0-8.401-26.887 64.233 64.233 0 0 0 19.171 20.769z"/>
  <path class="st0" d="m45.345 498.46 60.861 60.864H91.685l-71.718-71.721v-14.521l23.291 23.291a58.156 58.156 0 0 1-1.101 1.998c1.067-.001 2.132.03 3.188.089z"/>
  <path class="st2" d="M95.071 344.89a63.228 63.228 0 0 1-3.023 5.929 64.204 64.204 0 0 1-6.491-15.743 64.287 64.287 0 0 1 6.492-48.523 64.249 64.249 0 0 1 8.401 26.887 63.58 63.58 0 0 1 .155 7.941 64.148 64.148 0 0 1-1.815 12.709 64.411 64.411 0 0 1-3.719 10.8zM100.39 248.56c.337 3.689.357 7.401.056 11.093a64.288 64.288 0 0 1-8.401 26.896 64.21 64.21 0 0 1-8.385-26.733 64.026 64.026 0 0 1 .301-13.628 63.842 63.842 0 0 1 2.667-11.784 63.739 63.739 0 0 1 5.417-12.124 64.306 64.306 0 0 1 8.345 26.28z"/>
  <path class="st4" d="M92.047 91.912c6.412 0 11.613 5.198 11.613 11.61 0 6.415-5.201 11.613-11.613 11.613-6.415 0-11.613-5.198-11.613-11.613 0-6.412 5.198-11.61 11.613-11.61zM92.047 457.96c6.412 0 11.61 5.201 11.61 11.613 0 6.415-5.198 11.613-11.61 11.613-6.415 0-11.613-5.198-11.613-11.613 0-6.412 5.198-11.613 11.613-11.613zM64.134 502.73a57.483 57.483 0 0 0-18.789-4.268l-1.225-1.225 18.095-10.444a72.514 72.514 0 0 1 29.832 17.221v23.161a57.575 57.575 0 0 0-27.913-24.445zM45.626 440.66c4.17-.247 8.258-.95 12.203-2.068a57.555 57.555 0 0 0 19.469-9.787 57.482 57.482 0 0 0 14.749-16.842v23.161a72.542 72.542 0 0 1-29.832 17.224l-20.059-11.582a53.3 53.3 0 0 0 3.47-.106zM92.047 137.97v23.161a57.59 57.59 0 0 0-32.636-26.16 57.55 57.55 0 0 0-17.165-2.644l-.034-.034 20.003-11.548a72.489 72.489 0 0 1 29.832 17.225zM75.593 64.022a57.401 57.401 0 0 0 7.817-6.701 57.21 57.21 0 0 0 6.606-8.143 59.114 59.114 0 0 0 2.032-3.262v23.161a72.487 72.487 0 0 1-29.832 17.224l-20.06-11.582c4.583 0 9.087-.545 13.434-1.59a57.152 57.152 0 0 0 10.694-3.706 57.683 57.683 0 0 0 9.309-5.401z"/>
  <path class="st0" d="m19.967 487.61 71.718 71.72H77.164l-57.197-57.2zM90.861 413.29l.287.177a57.506 57.506 0 0 1-6.266 8.34l-.233-.208-64.682-64.682v-14.521l70.894 70.894zM90.302 223.95l.702.208a63.906 63.906 0 0 0-4.375 10.247l-.582-.188-66.082-66.082v-14.521l70.337 70.336zM89.358 48.748l.658.43a57.266 57.266 0 0 1-6.606 8.143L46.056 19.967h14.521l28.781 28.781z"/>
  <path class="st0" d="m86.048 234.22.582.188a64.005 64.005 0 0 0-2.667 11.784l-.528-.065-63.468-63.468v-14.521l66.081 66.082z"/>
  <path class="st5" d="M92.047 286.55a64.234 64.234 0 0 0-8.385 26.727 28.014 28.014 0 0 1-10.492-6.165 64.168 64.168 0 0 0 18.877-20.562z"/>
  <path class="st5" d="M83.663 259.82a64.185 64.185 0 0 0 8.385 26.733 64.166 64.166 0 0 0-18.876-20.565 27.968 27.968 0 0 1 10.491-6.168z"/>
  <path class="st0" d="m85.557 335.07-.242.062-22.254-22.254a64.223 64.223 0 0 0 9.345-5.246l.155.225 10.68 10.677h.194a64.25 64.25 0 0 0 2.122 16.536zM84.649 421.6l.233.208a57.414 57.414 0 0 1-7.584 7.002l-.129-.166-57.202-57.205v-14.521L84.649 421.6z"/>
  <path class="st2" d="M49.515 255.77a64.226 64.226 0 0 1 23.656 10.214 64.155 64.155 0 0 1 18.876 20.565 64.17 64.17 0 0 1-27.182-6.033 64.27 64.27 0 0 1-14.046-8.935 63.897 63.897 0 0 1-8.047-8.036 64.28 64.28 0 0 1-6.384-9.129c4.461 0 8.856.463 13.127 1.354z"/>
  <path class="st2" d="M63.061 312.88a64.125 64.125 0 0 1-10.481 3.729 64.176 64.176 0 0 1-16.193 2.071c.436-.753.885-1.498 1.349-2.228a63.706 63.706 0 0 1 6.187-8.233 63.451 63.451 0 0 1 7.376-7.1 64.385 64.385 0 0 1 13.566-8.539 64.182 64.182 0 0 1 27.182-6.03 64.187 64.187 0 0 1-19.64 21.085 64.374 64.374 0 0 1-9.346 5.245z"/>
  <path class="st0" d="m83.435 246.12.528.065a64.092 64.092 0 0 0-.301 13.628c-.315.101-.627.208-.936.32l-.118-.318-62.642-62.642v-14.521l63.469 63.468zM83.663 313.28a65.985 65.985 0 0 0-.228 5.26h-.194l-10.68-10.677-.155-.225c.256-.171.511-.346.764-.523a28.018 28.018 0 0 0 10.493 6.165zM83.309 57.219l.101.101a57.261 57.261 0 0 1-7.817 6.701L31.535 19.967h14.521l37.253 37.252z"/>
  <path class="st0" d="m82.609 259.82.118.318a27.94 27.94 0 0 0-9.011 5.353l-.421-.464-53.328-53.328v-14.521l62.642 62.642z"/>
  <path class="st5" d="M64.865 280.52a64.185 64.185 0 0 0 27.182 6.033 64.182 64.182 0 0 0-27.182 6.03 28.469 28.469 0 0 1-.646-6.03c0-.601.02-1.2.059-1.79a28.07 28.07 0 0 1 .587-4.243z"/>
  <path class="st0" d="m77.169 428.64.129.166a57.555 57.555 0 0 1-9.011 5.693l-.222-.441-48.099-48.101v-14.521l57.203 57.204zM19.967 502.13l57.197 57.2H62.642l-42.675-42.68zM31.535 19.967l44.058 44.055a57.53 57.53 0 0 1-9.309 5.4l-.16-.346L19.967 22.92v-2.953h11.568zM73.294 265.03l.421.464c-.183.163-.365.326-.545.495a64.226 64.226 0 0 0-23.656-10.214l-29.548-29.551v-14.521l53.328 53.327z"/>
  <path class="st0" d="m68.065 434.06.222.441a57.384 57.384 0 0 1-10.458 4.094l-.098-.348-37.764-37.764v-14.524l48.098 48.101zM66.124 69.077l.16.346a57.177 57.177 0 0 1-10.694 3.706l-.02-.081-35.603-35.607V22.92l46.157 46.157zM64.865 280.52a28.07 28.07 0 0 0-.587 4.243l-.315-.02-13.15-13.15.006-.008a64.196 64.196 0 0 0 14.046 8.935z"/>
  <path class="st0" d="m63.963 284.74.315.02c-.039.59-.059 1.189-.059 1.79 0 2.068.225 4.085.646 6.03a64.562 64.562 0 0 0-5.058 2.641l-.157-.273-39.683-39.683v-14.524l22.805 22.805a63.963 63.963 0 0 0 8.047 8.036l-.006.008 13.15 13.15zM19.967 516.65l42.675 42.68H48.121l-28.154-28.16z"/>
  <path class="st4" d="M49.363 95.88a57.46 57.46 0 0 0-7.207-21.161l20.059 11.582a72.481 72.481 0 0 1 0 34.446l-20.003 11.548-.022-.022a57.778 57.778 0 0 0 4.67-10.351 57.324 57.324 0 0 0 2.599-11.503 57.194 57.194 0 0 0-.096-14.539zM47.464 486.06a57.092 57.092 0 0 0 2.253-12.268 57.639 57.639 0 0 0-.95-15.474l-.003-.003a57.385 57.385 0 0 0-6.609-17.55l20.059 11.582a72.481 72.481 0 0 1 0 34.446L44.12 497.237l-.863-.863a57.177 57.177 0 0 0 4.207-10.314z"/>
  <path class="st0" d="m59.65 294.95.157.273a63.923 63.923 0 0 0-8.508 5.898l-31.332-31.332v-14.521L59.65 294.95zM57.731 438.24l.098.348a57.135 57.135 0 0 1-12.203 2.068l-25.659-25.659v-14.521l37.764 37.764zM55.57 73.047l.02.081a57.448 57.448 0 0 1-13.434 1.59v-.565L19.967 51.962V37.441L55.57 73.047z"/>
  <path class="st0" d="m19.967 269.78 31.332 31.332a63.534 63.534 0 0 0-7.376 7.1l-.405-.36L19.966 284.3v-14.52zM49.875 469.57c0 1.408-.051 2.818-.157 4.223l-29.75-29.75v-14.521l28.798 28.795.003.003a57.774 57.774 0 0 1 1.106 11.25z"/>
  <path class="st0" d="m19.967 444.04 29.75 29.75a57.226 57.226 0 0 1-2.253 12.268l-27.497-27.497V444.04zM19.967 226.22l29.548 29.551a64.258 64.258 0 0 0-13.128-1.354 64.28 64.28 0 0 0 6.384 9.129l-22.804-22.805V226.22zM49.875 103.52c0 2.304-.138 4.605-.416 6.895l-.093-.011-29.399-29.402V66.481l29.396 29.397c.343 2.537.512 5.088.512 7.642z"/>
  <path class="st0" d="m49.366 110.41.093.011a57.294 57.294 0 0 1-2.599 11.503l-.511-.014-26.382-26.38V81.008l29.399 29.402zM49.363 95.88 19.967 66.483V51.962l22.189 22.192v.565a57.448 57.448 0 0 1 7.207 21.161zM48.765 458.32l-28.798-28.795v-14.521l25.659 25.659a54.75 54.75 0 0 1-3.47.107 57.42 57.42 0 0 1 6.609 17.55zM48.121 559.33H33.6l-13.633-13.64v-14.52zM19.967 458.56l27.497 27.497a57.254 57.254 0 0 1-4.206 10.315l-23.291-23.291V458.56z"/>
  <path class="st0" d="m46.348 121.91.511.014a57.708 57.708 0 0 1-4.67 10.351l-22.222-22.222V95.529l26.381 26.381zM43.519 307.86l.405.36a63.524 63.524 0 0 0-6.187 8.233l-.413-.267-17.356-17.356v-14.521l23.551 23.551zM33.6 559.33H19.967v-13.64z"/>
  <path d="M234.74 231.5a.702.702 0 0 1-.7-.767c.438-4.758 2.738-9.137 6.475-12.33a16.269 16.269 0 0 1 3.204-2.144c2.747-1.395 5.841-1.975 9.195-1.726 4.067.303 8.046 1.452 11.893 2.564.913.264 1.824.527 2.732.778a.702.702 0 1 1-.374 1.354c-.914-.253-1.829-.517-2.748-.783-3.779-1.092-7.686-2.22-11.608-2.512-3.095-.23-5.94.301-8.455 1.578a14.846 14.846 0 0 0-2.927 1.959c-3.458 2.954-5.585 6.999-5.989 11.39a.7.7 0 0 1-.698.639z"/>
  <path d="M1028.759 579.291H0V0h1028.759v579.291zM1.405 577.886h1025.949V1.405H1.405v576.481z"/>
  <path d="M164.83 560.03H19.26V19.27h145.57v540.76zm-144.16-1.405h142.76V20.665H20.67v537.96zM845.87 161.84H182.69V19.27h663.18v142.57zm-661.78-1.405h660.37V20.675H184.09v139.76zM1009.5 560.03H863.73V19.27h145.77v540.76zm-144.36-1.405h142.96V20.665H865.14v537.96zM845.87 560.03H182.69V186.38h663.18v373.65zm-661.78-1.405h660.37v-370.84H184.09v370.84z"/>
  <path d="m147.212 20.458.993-.994 16.42 16.42-.993.994zM132.688 20.47l.993-.993 30.943 30.943-.994.993zM118.166 20.468l.993-.993 45.464 45.463-.993.994zM103.644 20.465l.993-.994 59.985 59.986-.993.993zM89.123 20.462l.993-.994 74.507 74.508-.993.993zM74.603 20.461l.994-.993 53.08 53.08-.994.993zM137.88 83.75l.993-.994 25.75 25.749-.994.993zM60.08 20.464l.993-.994 28.782 28.781-.994.994zM134.174 94.55l.993-.994 29.458 29.458-.993.993zM45.559 20.463l.993-.993 37.252 37.252-.993.994zM163.63 138.54l-29.99-30 .99-.99.29.28 29.7 29.71zM31.04 20.465l.993-.993 44.441 44.441-.993.994zM139.275 128.698l.994-.994 24.352 24.353-.993.993zM19.47 23.416l.993-.993L66.62 68.579l-.994.994zM163.16 167.1l-33.46-33.46.99-.99.32.32 33.14 33.14zM19.47 37.936l.993-.994 35.605 35.605-.994.993zM118.497 136.964l.993-.993 45.134 45.133-.994.994zM19.473 52.46l.994-.993 22.19 22.193-.994.993zM109.053 142.038l.994-.993 54.58 54.58-.993.993zM19.47 66.98l.993-.993 29.398 29.397-.994.994zM163.63 211.14l-62.66-62.66.99-1 .49.49 62.17 62.18zM19.471 81.497l.994-.993 29.4 29.4-.993.994zM94.417 156.45l.994-.993 69.215 69.216-.994.993zM19.47 96.022l.993-.994 26.381 26.382-.993.993zM58.912 135.463l.993-.994L164.62 239.184l-.994.993zM19.465 110.544l.993-.993 144.156 144.156-.993.994zM19.207 124.807l.994-.993L164.93 268.543l-.994.993zM19.47 139.586l.994-.993 115.71 115.71-.993.993zM142.46 262.594l.993-.994 21.164 21.164-.994.993zM163.63 298.27l-28.69-28.7.99-.99.32.32 28.37 28.38zM94.968 229.613l.994-.993 29.236 29.235-.994.994zM19.471 154.111l.994-.993 70.334 70.334-.993.994zM126.757 275.922l.993-.994 36.868 36.868-.994.993zM99.486 248.645l.993-.993 14.482 14.481-.994.994zM19.466 168.632l.994-.994 66.08 66.08-.993.994zM119.664 283.34l.993-.994 43.973 43.973-.993.993zM19.472 183.15l.993-.993 63.468 63.468-.993.993zM140.632 318.833l.994-.994 22.995 22.996-.993.993zM19.466 197.67l.994-.994 62.642 62.642-.994.993zM120.876 313.609l.993-.994 42.746 42.746-.994.993zM19.465 212.194l.994-.994 53.327 53.328-.993.993zM104.854 312.114l.993-.993 58.766 58.766-.994.993zM19.476 226.704l.993-.993 29.774 29.774-.994.993zM99.895 321.652l.993-.993 63.737 63.737-.993.994zM50.32 272.085l.994-.993 13.15 13.15-.993.993zM19.474 241.237l.994-.993 22.805 22.804-.994.994zM98.044 334.337l.994-.993 65.586 65.586-.993.994zM72.065 308.35l.994-.994 10.68 10.677-.993.994zM19.47 255.767l.994-.993 39.683 39.682-.994.994zM94.422 345.234l.993-.993 69.204 69.204-.994.993zM62.36 313.176l.993-.993 22.45 22.45-.993.993zM51.027 301.84l-.225-.23-31.332-31.33.993-.99 31.558 31.56zM52.194 317.52l.993-.993 111.44 111.439-.994.993zM19.473 284.797l.994-.994 23.551 23.551-.993.994zM39.512 319.355l.994-.994 124.117 124.117-.994.994zM19.465 299.32l.993-.994 17.356 17.356-.993.993zM19.466 313.846l.993-.994L164.616 457.01l-.994.993zM163.63 472.53l-25.47-25.48.99-.99.25.25 25.22 25.23zM19.462 328.362l.993-.993 112.238 112.238-.993.993zM135.303 458.73l.993-.994 28.32 28.32-.993.993zM19.47 342.887l.994-.994 70.894 70.894-.994.994zM133.92 471.863l.994-.993 29.706 29.705-.994.993zM19.474 357.412l.993-.993L85.15 421.1l-.993.993zM137.127 489.632l.994-.993 26.48 26.48-.993.994zM19.472 371.92l.994-.993 57.203 57.203-.993.994zM163.63 530.61l-31.27-31.27.99-.99.22.21 31.05 31.06zM19.47 386.435l.993-.993 48.1 48.1-.993.993zM121.34 502.848l.994-.993 42.285 42.284-.994.994zM19.473 400.977l.993-.994 37.764 37.764-.994.993zM163.71 559.74l-52.7-52.71.99-.99.33.33 52.38 52.38zM19.462 415.493l.994-.994 25.96 25.96-.994.993zM102.81 513.367l.993-.994 46.452 46.452-.994.993zM19.452 430.036l.994-.993 28.796 28.796-.994.993zM95.833 520.903l.993-.994 38.92 38.919-.994.993zM49.574 474.64l-.354-.35-30.014-30.01.993-1 .264.27 30.105 30.1zM63.424 502.995l.993-.994 56.81 56.81-.993.994zM19.47 459.059l.993-.994 27.744 27.744-.994.993zM105.72 559.84l-86.25-86.26.993-.99 86.237 86.24zM19.469 488.094l.993-.993 71.722 71.72-.994.994zM19.47 502.613l.994-.993 57.198 57.197-.994.993zM19.472 517.133l.994-.994 42.676 42.677-.994.993zM19.464 531.662l.994-.994 28.154 28.155-.993.993zM19.465 546.192l.994-.994 13.633 13.633-.994.993z"/>
  <path d="m92.047 528.58-.608-1.053a56.988 56.988 0 0 0-20.831-20.828 57.256 57.256 0 0 0-6.742-3.32 56.653 56.653 0 0 0-18.56-4.216 56.796 56.796 0 0 0-3.151-.089h-1.218l.61-1.054a56.663 56.663 0 0 0 5.243-12.161 56.509 56.509 0 0 0 2.226-12.118 57.041 57.041 0 0 0-.901-15.097l-.04-.191a56.61 56.61 0 0 0-6.528-17.336l-.609-1.054h1.217a54.02 54.02 0 0 0 3.425-.105 56.539 56.539 0 0 0 12.056-2.043 56.812 56.812 0 0 0 10.331-4.044 57.02 57.02 0 0 0 16.392-12.54 56.867 56.867 0 0 0 7.077-9.721l.609-1.053.608 1.053a56.965 56.965 0 0 0 20.828 20.828 56.655 56.655 0 0 0 18.635 6.769c3.215.567 6.518.855 9.818.855h1.216l-.608 1.054a57.353 57.353 0 0 0-2.995 5.968 57.097 57.097 0 0 0-3.5 11.197 57.123 57.123 0 0 0-1.102 13.069 56.702 56.702 0 0 0 3.35 17.528 56.737 56.737 0 0 0 4.247 9.143l.609 1.054h-1.217c-2.928 0-5.874.229-8.757.68a56.434 56.434 0 0 0-11.207 2.939 56.736 56.736 0 0 0-9.767 4.769 56.68 56.68 0 0 0-8.228 6.122 56.608 56.608 0 0 0-6.928 7.416 56.993 56.993 0 0 0-4.394 6.525l-.606 1.054zm-48.696-30.897a58.072 58.072 0 0 1 21.051 4.398 58.516 58.516 0 0 1 6.908 3.401 58.405 58.405 0 0 1 20.736 20.313 58.35 58.35 0 0 1 3.894-5.658 58.025 58.025 0 0 1 7.099-7.6 58.027 58.027 0 0 1 8.428-6.271c.375-.233.78-.475 1.311-.784a58.08 58.08 0 0 1 8.699-4.105 57.907 57.907 0 0 1 11.485-3.012 58.027 58.027 0 0 1 7.777-.684 58.243 58.243 0 0 1-3.765-8.327 58.092 58.092 0 0 1-3.461-19.786c0-3.871.389-7.763 1.158-11.567a58.52 58.52 0 0 1 3.586-11.473 58.698 58.698 0 0 1 2.482-5.074 57.921 57.921 0 0 1-8.865-.864 58.047 58.047 0 0 1-19.094-6.936 58.375 58.375 0 0 1-20.734-20.313 58.354 58.354 0 0 1-6.644 8.932 58.424 58.424 0 0 1-16.798 12.85 58.247 58.247 0 0 1-10.586 4.144 57.99 57.99 0 0 1-12.352 2.093c-.749.048-1.524.08-2.315.096a57.978 57.978 0 0 1 6.059 16.513v.001l.045.212a58.496 58.496 0 0 1 1.12 11.388 57.05 57.05 0 0 1-.159 4.276 57.954 57.954 0 0 1-2.281 12.416 58.004 58.004 0 0 1-4.784 11.421z"/>
  <path d="m92.047 504.99-.486-.465a72.017 72.017 0 0 0-29.543-17.054l-.646-.188.16-.653a72.008 72.008 0 0 0 0-34.111l-.16-.653.646-.188a72.072 72.072 0 0 0 29.543-17.057l.486-.465.486.465a72.034 72.034 0 0 0 29.54 17.057l.646.188-.16.653a72.008 72.008 0 0 0 0 34.111l.16.653-.646.188a72.003 72.003 0 0 0-29.54 17.054l-.486.465zm-28.993-18.678a73.45 73.45 0 0 1 28.993 16.738 73.432 73.432 0 0 1 28.991-16.738 73.448 73.448 0 0 1 0-33.477 73.47 73.47 0 0 1-28.991-16.74 73.489 73.489 0 0 1-28.993 16.74 73.448 73.448 0 0 1 0 33.477z"/>
  <path d="M91.345 411.96h1.405v23.161h-1.405zM121.517 451.735l20.06-11.582.702 1.217-20.06 11.581zM121.531 487.38l.702-1.217 20.06 11.578-.701 1.217zM91.345 504.02h1.405v23.161h-1.405zM41.822 497.79 61.875 486.2l.703 1.216-20.053 11.592zM41.804 441.366l.703-1.217 20.059 11.581-.703 1.217zM92.047 481.88c-6.791 0-12.315-5.525-12.315-12.315 0-6.791 5.525-12.315 12.315-12.315 6.789 0 12.313 5.525 12.313 12.315 0 6.791-5.523 12.315-12.313 12.315zm0-23.226c-6.016 0-10.91 4.894-10.91 10.911 0 6.016 4.894 10.911 10.91 10.911 6.015 0 10.908-4.894 10.908-10.911 0-6.016-4.893-10.911-10.908-10.911zM92.047 162.54l-.608-1.053a56.996 56.996 0 0 0-20.831-20.831 57.116 57.116 0 0 0-11.408-5.01 56.854 56.854 0 0 0-16.956-2.612h-1.306l.636-1.099a56.735 56.735 0 0 0 7.186-21.598 56.595 56.595 0 0 0-.094-14.361 56.511 56.511 0 0 0-7.12-20.904l-.609-1.054h1.217c4.47 0 8.934-.528 13.269-1.571a56.592 56.592 0 0 0 10.564-3.661 56.981 56.981 0 0 0 16.918-11.955 56.707 56.707 0 0 0 8.532-11.267l.609-1.052.608 1.053a56.957 56.957 0 0 0 20.828 20.828 56.854 56.854 0 0 0 14.863 5.976 56.737 56.737 0 0 0 13.59 1.649h1.217l-.608 1.054a56.838 56.838 0 0 0-3.922 8.268 56.773 56.773 0 0 0-3.503 24.93 56.618 56.618 0 0 0 5.29 19.638 56.807 56.807 0 0 0 2.134 4.072l.609 1.054h-1.217c-3.779 0-7.574.379-11.28 1.127a56.968 56.968 0 0 0-20.268 8.418 56.963 56.963 0 0 0-14.612 14.081 57.816 57.816 0 0 0-3.12 4.827l-.608 1.053zm-48.694-30.898a58.249 58.249 0 0 1 16.269 2.664c4.067 1.278 8 3.005 11.689 5.134a58.41 58.41 0 0 1 20.737 20.317 58.924 58.924 0 0 1 2.588-3.917 58.36 58.36 0 0 1 18.145-16.399 58.343 58.343 0 0 1 17.597-6.655 58.57 58.57 0 0 1 10.363-1.143 57.881 57.881 0 0 1-1.6-3.131 58 58 0 0 1-5.42-20.122 58.017 58.017 0 0 1 .54-14.155 58.061 58.061 0 0 1 3.049-11.391 58.088 58.088 0 0 1 3.431-7.431 58.1 58.1 0 0 1-12.73-1.677 58.223 58.223 0 0 1-15.23-6.123A58.375 58.375 0 0 1 92.047 47.3a58.184 58.184 0 0 1-8.134 10.516 58.185 58.185 0 0 1-7.912 6.783 58.426 58.426 0 0 1-9.422 5.466 58.058 58.058 0 0 1-10.825 3.752 58.22 58.22 0 0 1-12.401 1.597 57.89 57.89 0 0 1 6.708 20.378 58.037 58.037 0 0 1 .096 14.716 58.102 58.102 0 0 1-2.631 11.643 58.685 58.685 0 0 1-4.173 9.491z"/>
  <path d="m92.047 138.94-.486-.465a72.002 72.002 0 0 0-29.542-17.057l-.646-.188.16-.653a72.008 72.008 0 0 0 0-34.111l-.16-.653.646-.188a72.007 72.007 0 0 0 29.542-17.057l.486-.465.486.465a71.96 71.96 0 0 0 29.543 17.057l.646.188-.16.653a71.931 71.931 0 0 0 0 34.111l.16.653-.646.188a71.978 71.978 0 0 0-29.543 17.057l-.486.465zm-28.993-18.681a73.44 73.44 0 0 1 28.993 16.74 73.406 73.406 0 0 1 28.993-16.74 73.37 73.37 0 0 1 0-33.478 73.387 73.387 0 0 1-28.993-16.74 73.44 73.44 0 0 1-28.993 16.74 73.452 73.452 0 0 1 0 33.478z"/>
  <path d="M91.345 45.915h1.405v23.162h-1.405zM121.526 85.689l20.057-11.58.702 1.217-20.056 11.58zM121.532 121.362l.703-1.216 20.057 11.582-.703 1.217zM91.345 137.97h1.405v23.162h-1.405zM42.517 132.93l-.722-1.2.056-.04 20.013-11.55.702 1.22zM41.802 75.326l.703-1.217L62.564 85.69l-.703 1.217zM92.047 115.84c-6.791 0-12.315-5.525-12.315-12.315 0-6.789 5.525-12.313 12.315-12.313 6.791 0 12.315 5.523 12.315 12.313.001 6.79-5.524 12.315-12.315 12.315zm0-23.223c-6.016 0-10.91 4.893-10.91 10.908 0 6.016 4.894 10.911 10.91 10.911s10.911-4.894 10.911-10.911c0-6.015-4.895-10.908-10.911-10.908zM82.963 259.88a64.903 64.903 0 0 1 3-25.69 64.751 64.751 0 0 1 5.476-12.257l.609-1.052.608 1.053a65.341 65.341 0 0 1 3.46 6.911 64.795 64.795 0 0 1 4.976 19.657c.341 3.724.36 7.498.057 11.214l-1.401-.114a63.921 63.921 0 0 0-.055-10.972 63.398 63.398 0 0 0-4.869-19.231 63.857 63.857 0 0 0-2.777-5.684 63.226 63.226 0 0 0-4.749 10.913 63.49 63.49 0 0 0-2.935 25.135l-1.4.117zM64.568 281.15a64.997 64.997 0 0 1-14.2-9.033 64.829 64.829 0 0 1-14.589-17.353l-.609-1.054h1.217c4.449 0 8.915.461 13.271 1.369a64.587 64.587 0 0 1 23.914 10.325l-.804 1.152a63.178 63.178 0 0 0-23.397-10.102 63.792 63.792 0 0 0-11.746-1.328 63.368 63.368 0 0 0 13.643 15.912 63.579 63.579 0 0 0 13.894 8.838l-.594 1.274zM120 280.93l-.604-1.268a63.657 63.657 0 0 0 22.73-18.23 63.292 63.292 0 0 0 4.343-6.302 63.377 63.377 0 0 0-10.523 1.086 63.455 63.455 0 0 0-10.883 3.071 63.791 63.791 0 0 0-13.446 7.068l-.797-1.157a64.893 64.893 0 0 1 24.866-10.363 64.95 64.95 0 0 1 12.021-1.122h1.217l-.608 1.054a64.855 64.855 0 0 1-5.082 7.531 64.36 64.36 0 0 1-7.002 7.618A65.103 65.103 0 0 1 120 280.93zM129.88 309.1a.7.7 0 0 1-.351-.094l-20.017-11.557a.703.703 0 0 1 .703-1.217l20.017 11.557a.703.703 0 0 1-.352 1.311z"/>
  <path d="M109.87 276.96a.702.702 0 0 1-.352-1.311l20.017-11.557a.703.703 0 0 1 .703 1.217l-20.017 11.557a.7.7 0 0 1-.351.094zM74.227 276.96a.7.7 0 0 1-.351-.094l-20.017-11.557a.703.703 0 0 1 .703-1.217l20.017 11.557a.703.703 0 0 1-.352 1.311zM92.047 267.07a.702.702 0 0 1-.702-.702v-23.117a.702.702 0 1 1 1.404 0v23.117a.702.702 0 0 1-.702.702zM92.047 328a.702.702 0 0 1-.702-.702v-23.116a.702.702 0 1 1 1.404 0v23.116a.702.702 0 0 1-.702.702zM54.211 309.1a.702.702 0 0 1-.352-1.311l20.017-11.557a.703.703 0 0 1 .703 1.217l-20.017 11.557a.7.7 0 0 1-.351.094zM92.655 286.9l-1.217-.702.004-.007a63.164 63.164 0 0 0 8.306-26.595l.071-.867.833.252a29.066 29.066 0 0 1 11.039 6.275l.655.595-.729.503a63.1 63.1 0 0 0-18.954 20.531c-.002.006-.005.01-.008.015zm8.415-26.309a64.563 64.563 0 0 1-4.225 17.648 64.512 64.512 0 0 1 13.239-12.526 27.697 27.697 0 0 0-9.014-5.122zM148.92 319.38h-1.217c-2.226 0-4.462-.115-6.647-.341a64.76 64.76 0 0 1-19.938-5.346 65.125 65.125 0 0 1-10.302-5.798l.797-1.156a63.743 63.743 0 0 0 10.08 5.672 63.327 63.327 0 0 0 19.507 5.23c1.733.179 3.499.287 5.266.321-6.445-10.684-15.783-19.151-27.073-24.533l.604-1.268c11.921 5.682 21.713 14.729 28.315 26.164l.608 1.055z"/>
  <path d="m92.047 352.22-.608-1.053a64.888 64.888 0 0 1-8.476-37.95l1.4.117a63.596 63.596 0 0 0 1.873 21.559 63.53 63.53 0 0 0 5.811 14.494 63.701 63.701 0 0 0 6.059-15.47 63.559 63.559 0 0 0 1.795-12.569 62.852 62.852 0 0 0-.153-7.854l1.4-.115c.219 2.674.272 5.375.156 8.028a64.94 64.94 0 0 1-1.835 12.846 65.038 65.038 0 0 1-3.758 10.92 64.244 64.244 0 0 1-3.057 5.993l-.607 1.054zM36.387 319.38h-1.218l.61-1.054a64.595 64.595 0 0 1 7.618-10.575 64.306 64.306 0 0 1 7.456-7.178 64.899 64.899 0 0 1 13.713-8.632l.595 1.273a63.71 63.71 0 0 0-13.418 8.446 62.997 62.997 0 0 0-7.295 7.023 63.127 63.127 0 0 0-6.824 9.281 63.634 63.634 0 0 0 14.778-2.036 63.556 63.556 0 0 0 10.365-3.688 63.64 63.64 0 0 0 9.999-5.705l.806 1.151a65.139 65.139 0 0 1-20.816 9.602 64.99 64.99 0 0 1-16.369 2.092z"/>
  <path d="m84.288 314.22-.841-.272a28.902 28.902 0 0 1-10.755-6.319l-.636-.592.713-.497c7.7-5.374 13.979-12.213 18.663-20.326l.007-.011 1.217.702-.007.012c-4.708 8.163-7.496 17.052-8.286 26.423l-.075.88zm-9.995-7.038a27.522 27.522 0 0 0 8.751 5.145c.591-6.044 2-11.887 4.207-17.467a64.517 64.517 0 0 1-12.958 12.322z"/>
  <path d="m64.365 293.59-.187-.86a29.195 29.195 0 0 1-.662-6.179c0-.616.021-1.234.061-1.837.086-1.432.288-2.895.601-4.344l.186-.861.798.373a63.067 63.067 0 0 0 26.885 5.966v1.405c-9.368 0-18.413 2.007-26.885 5.964l-.797.373zm1.015-12.063a27.24 27.24 0 0 0-.401 3.276 26.668 26.668 0 0 0-.058 1.748c0 1.68.154 3.365.458 5.021a64.351 64.351 0 0 1 17.073-5.021 64.421 64.421 0 0 1-17.072-5.024z"/>
  <path d="m91.439 286.9-.003-.005-.012-.021c-4.683-8.108-10.959-14.943-18.655-20.314l-.711-.496.632-.593a28.543 28.543 0 0 1 10.758-6.324l.84-.269.074.879a63.057 63.057 0 0 0 8.273 26.407l.02.034-1.216.702zm-17.146-20.983a64.448 64.448 0 0 1 12.954 12.318 64.435 64.435 0 0 1-4.203-17.466l-.077.028a27.125 27.125 0 0 0-8.674 5.12zM99.82 314.36l-.071-.865a63.133 63.133 0 0 0-8.31-26.594l1.217-.702.009.015c4.751 8.224 11.128 15.131 18.954 20.529l.729.503-.655.595a28.905 28.905 0 0 1-6.085 4.247 28.451 28.451 0 0 1-4.955 2.022l-.833.25zm-2.974-19.501a64.521 64.521 0 0 1 4.225 17.642 27.423 27.423 0 0 0 9.013-5.119 64.439 64.439 0 0 1-13.238-12.523z"/>
  <path d="m120.19 293.81-.794-.378c-8.6-4.101-17.802-6.181-27.349-6.181v-1.405c9.543 0 18.745-2.081 27.349-6.184l.794-.379.193.858a29.15 29.15 0 0 1 0 12.81l-.193.859zm-18.541-7.262a64.368 64.368 0 0 1 17.544 5.237 27.68 27.68 0 0 0 0-10.475 64.437 64.437 0 0 1-17.544 5.238zM991.744 20.464l.994-.994 16.42 16.42-.994.994zM977.224 20.47l.993-.993 30.941 30.94-.993.994zM962.704 20.467l.993-.993 45.463 45.462-.994.994zM948.183 20.464l.994-.993 59.983 59.983-.993.993zM933.666 20.488l.993-.994 74.507 74.507-.993.994zM919.134 20.466l.993-.994 53.08 53.08-.993.994zM982.411 83.755l.994-.994 25.749 25.75-.994.993zM904.643 20.502l.994-.993 28.782 28.782-.994.993zM1008.2 124.01l-29.48-29.454.99-.994.28.284 29.21 29.174zM890.097 20.468l.994-.993 37.252 37.252-.994.993zM978.143 108.505l.994-.994 29.993 29.993-.994.994zM875.593 20.487l.993-.994 44.441 44.442-.993.993zM983.81 128.703l.993-.993 24.353 24.352-.994.994zM864 23.424l.993-.993 46.157 46.156-.994.994zM1007.7 167.1l-33.46-33.46.99-.99.33.32 33.14 33.14zM864.007 37.944l.993-.994 35.606 35.606-.993.994zM1008.2 182.1l-45.16-45.14.99-.99.44.44 44.73 44.69zM864.052 52.426l.994-.993 22.19 22.193-.993.994zM953.592 142.044l.993-.994 54.58 54.58-.993.994zM864.003 66.988l.993-.994 29.398 29.398-.994.994zM1008.2 211.14l-62.69-62.66.99-1 .49.49 62.21 62.18zM863.97 81.476l.994-.994 29.4 29.4-.993.994zM1008.2 225.66l-69.24-69.21.99-1 .3.3 68.95 68.92zM864.01 96.026l.993-.993 26.381 26.38-.993.994zM903.452 135.478l.994-.993 104.714 104.714-.993.994zM864.002 110.547l.994-.994 144.156 144.157-.993.993zM863.744 124.81l.994-.993 144.729 144.729-.994.993zM864.019 139.604l.993-.993 116.34 116.34-.994.993zM987.074 262.558l.994-.993 21.162 21.165-.994.993zM1008.2 298.27l-28.72-28.7.99-.99.32.32 28.41 28.38zM939.51 229.612l.993-.994 29.236 29.236-.994.994zM864.007 154.122l.994-.994 70.865 70.866-.993.993zM971.293 275.928l.993-.994 36.868 36.868-.994.993zM944.432 249.064l.994-.994 14.729 14.73-.994.993zM864.003 168.639l.994-.994 66.567 66.567-.994.994zM964.194 283.345l.993-.993 43.974 43.973-.994.993zM864.006 183.154l.993-.994 63.945 63.945-.993.994zM985.17 318.838l.993-.993 22.995 22.996-.993.993zM864.004 197.671l.994-.993 62.642 62.642-.994.993zM965.415 313.614l.994-.993 42.745 42.746-.993.993zM864.002 212.198l.993-.993 53.328 53.327-.994.994zM949.403 312.14l.993-.993 58.766 58.765-.993.994zM864 226.726l.994-.994 29.775 29.775-.994.994zM944.426 321.658l.993-.993 63.738 63.737-.994.993zM894.855 272.088l.993-.993 13.15 13.15-.993.993zM864.008 241.239l.993-.994 22.805 22.805-.994.993zM942.579 334.343l.993-.993 65.586 65.586-.993.993zM916.595 308.35l.993-.994 10.68 10.678-.993.993zM864.019 255.793l.993-.993 39.684 39.683-.993.994zM938.948 345.23l.993-.993 69.204 69.203-.993.994zM906.896 313.18l.994-.994 22.45 22.45-.993.994zM895.57 301.84l-.23-.23-31.33-31.33.99-.99 31.56 31.56zM896.723 317.516l.993-.993 111.44 111.439-.994.993zM864 284.802l.994-.993 23.551 23.551-.993.994zM884.044 319.37l.994-.993 124.117 124.117-.994.994zM863.999 299.327l.993-.994 17.356 17.356-.993.993zM864.004 313.848l.993-.994 144.157 144.157-.994.993zM1008.2 472.53l-25.5-25.48.99-.99.25.25 25.26 25.23zM864.003 328.364l.993-.993 112.238 112.238-.993.993zM979.847 458.728l.993-.994 28.32 28.32-.993.994zM864.002 342.894l.993-.993 70.894 70.893-.993.994zM978.455 471.869l.994-.993 29.705 29.705-.994.993zM864.008 357.415l.993-.993 64.682 64.682-.993.993zM981.695 489.668l.994-.993 26.48 26.48-.993.994zM864.006 371.933l.994-.993 57.205 57.205-.994.993zM976.891 499.348l.994-.993 31.27 31.27-.994.993zM863.993 386.427l.994-.994 48.1 48.1-.994.993zM965.872 502.817l.994-.993 42.283 42.283-.994.993zM864.005 400.98l.993-.994 37.764 37.764-.994.993zM955.541 507.033l.993-.994 52.706 52.706-.993.994zM889.97 441.46l-.3-.3-25.66-25.66.99-1 25.97 25.96zM947.349 513.382l.993-.993 46.452 46.451-.994.994zM864.018 430.074l.994-.993 28.796 28.796-.994.993zM979.3 559.82l-38.92-38.92.99-.99.16.17 38.76 38.75zM894.12 474.64l-.36-.35-30.01-30.01.99-1 30.37 30.37zM907.948 503.02l.994-.993 56.81 56.811-.993.994zM864.022 459.111l.993-.993 27.745 27.745-.993.994zM950.27 559.84l-86.26-86.26.99-.99 86.25 86.24-.49.51zM863.991 488.092l.994-.994 71.72 71.722-.993.993zM863.993 502.6l.994-.993 57.197 57.198-.994.993zM863.995 517.12l.993-.994 42.677 42.677-.994.993zM863.997 531.669l.993-.994 28.155 28.155-.994.994zM863.999 546.198l.993-.994 13.633 13.633-.993.994z"/>
  <path d="m936.59 528.58-.608-1.054a56.965 56.965 0 0 0-27.573-24.148 56.625 56.625 0 0 0-18.56-4.216 56.796 56.796 0 0 0-3.151-.089h-1.218l.61-1.054a57.122 57.122 0 0 0 5.246-12.162 56.844 56.844 0 0 0 2.223-12.118c.103-1.358.155-2.761.155-4.172 0-3.663-.357-7.348-1.062-10.955l-.034-.161a56.754 56.754 0 0 0-6.528-17.336l-.608-1.054h1.217c1.176 0 2.329-.035 3.429-.105a56.664 56.664 0 0 0 12.053-2.043 56.783 56.783 0 0 0 10.331-4.044 56.999 56.999 0 0 0 8.904-5.624 57.075 57.075 0 0 0 7.489-6.917 56.741 56.741 0 0 0 7.078-9.721l.609-1.053.608 1.053a56.98 56.98 0 0 0 20.828 20.828 56.676 56.676 0 0 0 18.635 6.769c3.218.567 6.521.855 9.817.855h1.216l-.608 1.054a57.353 57.353 0 0 0-2.995 5.968 57.088 57.088 0 0 0-3.497 11.197 57.182 57.182 0 0 0-1.101 13.066 56.808 56.808 0 0 0 3.347 17.531 56.777 56.777 0 0 0 4.247 9.143l.609 1.054h-1.217c-2.929 0-5.874.229-8.754.68a56.416 56.416 0 0 0-11.207 2.939 56.955 56.955 0 0 0-9.772 4.767 56.944 56.944 0 0 0-15.154 13.541 56.943 56.943 0 0 0-4.393 6.525l-.611 1.056zm-48.696-30.898c.674.014 1.354.041 2.033.078a58.038 58.038 0 0 1 19.018 4.32 58.516 58.516 0 0 1 6.908 3.401 58.392 58.392 0 0 1 20.737 20.313 58.336 58.336 0 0 1 3.894-5.657 58.315 58.315 0 0 1 44.799-22.455 58.139 58.139 0 0 1-3.764-8.328 58.234 58.234 0 0 1-3.458-19.786c0-3.872.389-7.764 1.157-11.567a58.514 58.514 0 0 1 3.584-11.473 58.698 58.698 0 0 1 2.482-5.074 57.97 57.97 0 0 1-8.865-.864 58.076 58.076 0 0 1-19.094-6.936 58.406 58.406 0 0 1-20.733-20.313 58.107 58.107 0 0 1-6.645 8.931 58.43 58.43 0 0 1-7.674 7.087 58.518 58.518 0 0 1-9.124 5.762 58.247 58.247 0 0 1-10.586 4.144 58.083 58.083 0 0 1-12.349 2.093c-.751.048-1.528.08-2.319.096a58.136 58.136 0 0 1 6.063 16.531l.001.001.041.195a58.692 58.692 0 0 1 1.12 11.387c0 1.447-.053 2.885-.159 4.276a58.316 58.316 0 0 1-2.278 12.415 58.466 58.466 0 0 1-4.789 11.423z"/>
  <path d="m936.59 504.99-.486-.465a71.988 71.988 0 0 0-29.543-17.054l-.646-.188.16-.653a72.008 72.008 0 0 0 0-34.111l-.16-.653.646-.188a72.037 72.037 0 0 0 29.543-17.057l.486-.465.486.465a72.013 72.013 0 0 0 29.542 17.057l.646.188-.16.653a72.008 72.008 0 0 0 0 34.111l.16.654-.646.188a71.986 71.986 0 0 0-29.542 17.054l-.486.464zm-28.994-18.678a73.44 73.44 0 0 1 28.994 16.737 73.419 73.419 0 0 1 28.993-16.737 73.42 73.42 0 0 1 0-33.477 73.46 73.46 0 0 1-28.993-16.74 73.466 73.466 0 0 1-28.994 16.74 73.42 73.42 0 0 1 0 33.477z"/>
  <path d="M935.89 411.96h1.405v23.161h-1.405zM966.048 451.74l20.058-11.58.702 1.216-20.057 11.58zM966.063 487.4l.702-1.216 20.056 11.58-.702 1.216zM935.89 504.02h1.405v23.161h-1.405zM886.409 497.762l20.053-11.592.703 1.216-20.053 11.593zM886.314 441.367l.702-1.217 20.06 11.581-.703 1.217zM936.59 481.88c-6.791 0-12.315-5.525-12.315-12.315 0-6.791 5.525-12.315 12.315-12.315 6.791 0 12.315 5.525 12.315 12.315 0 6.791-5.525 12.315-12.315 12.315zm0-23.226c-6.016 0-10.911 4.894-10.911 10.911 0 6.016 4.894 10.911 10.911 10.911 6.016 0 10.91-4.894 10.91-10.911 0-6.016-4.894-10.911-10.91-10.911zM936.59 162.54l-.608-1.053a56.988 56.988 0 0 0-20.828-20.831 57.105 57.105 0 0 0-11.411-5.01 56.854 56.854 0 0 0-16.956-2.612h-1.306l.635-1.099a57.12 57.12 0 0 0 4.619-10.235 56.903 56.903 0 0 0 2.567-11.363 56.595 56.595 0 0 0-.094-14.361 56.614 56.614 0 0 0-7.12-20.904l-.608-1.054h1.216c4.469 0 8.934-.528 13.273-1.571a56.661 56.661 0 0 0 10.561-3.661 57.004 57.004 0 0 0 16.921-11.955 57.056 57.056 0 0 0 6.525-8.044 59.985 59.985 0 0 0 2.004-3.223l.609-1.052.608 1.053a56.95 56.95 0 0 0 20.828 20.828 56.868 56.868 0 0 0 14.863 5.976 56.735 56.735 0 0 0 13.589 1.649h1.217l-.608 1.054a56.902 56.902 0 0 0-7.422 33.201 56.617 56.617 0 0 0 5.287 19.634 56.96 56.96 0 0 0 2.134 4.072l.609 1.054h-1.218c-3.779 0-7.574.379-11.28 1.127a56.968 56.968 0 0 0-28.219 14.813 56.747 56.747 0 0 0-6.658 7.685 57.15 57.15 0 0 0-3.123 4.827l-.606 1.055zm-48.694-30.899a58.249 58.249 0 0 1 16.269 2.664 58.485 58.485 0 0 1 11.692 5.134 58.4 58.4 0 0 1 20.734 20.316 58.478 58.478 0 0 1 2.591-3.918 58.1 58.1 0 0 1 6.823-7.875 58.36 58.36 0 0 1 11.319-8.523 58.356 58.356 0 0 1 6.378-3.177 58.355 58.355 0 0 1 11.219-3.478 58.57 58.57 0 0 1 10.363-1.143 58.221 58.221 0 0 1-1.6-3.131 58.01 58.01 0 0 1-5.418-20.119 57.98 57.98 0 0 1-.205-4.866 58.278 58.278 0 0 1 3.791-20.683 58.088 58.088 0 0 1 3.431-7.431 58.092 58.092 0 0 1-12.73-1.677 58.25 58.25 0 0 1-15.23-6.123 58.375 58.375 0 0 1-20.734-20.313 62.13 62.13 0 0 1-1.444 2.272 58.556 58.556 0 0 1-6.687 8.244 58.402 58.402 0 0 1-17.338 12.249 58.124 58.124 0 0 1-10.822 3.752 58.28 58.28 0 0 1-12.404 1.597 57.984 57.984 0 0 1 6.708 20.378 58.038 58.038 0 0 1 .097 14.716 58.354 58.354 0 0 1-2.631 11.643 58.565 58.565 0 0 1-4.172 9.492z"/>
  <path d="m936.59 138.94-.486-.465a71.981 71.981 0 0 0-29.543-17.057l-.646-.188.16-.653a72.008 72.008 0 0 0 0-34.111l-.16-.653.646-.188a71.988 71.988 0 0 0 29.543-17.057l.486-.465.486.465a71.968 71.968 0 0 0 29.542 17.057l.646.188-.16.654a72.008 72.008 0 0 0 0 34.111l.16.654-.646.188a71.968 71.968 0 0 0-29.542 17.057l-.486.463zm-28.994-18.681a73.42 73.42 0 0 1 28.994 16.74 73.4 73.4 0 0 1 28.993-16.74 73.448 73.448 0 0 1 0-33.477 73.4 73.4 0 0 1-28.993-16.74 73.394 73.394 0 0 1-28.994 16.74 73.448 73.448 0 0 1 0 33.477z"/>
  <path d="M935.89 45.915h1.405v23.162h-1.405zM966.047 85.698l20.056-11.58.703 1.217-20.057 11.58zM966.098 121.332l.703-1.217 20.056 11.583-.703 1.216zM935.89 137.97h1.405v23.162h-1.405zM887.06 132.93l-.72-1.2.05-.04 20.01-11.55.71 1.22zM886.322 75.34l.702-1.216 20.06 11.581-.703 1.217zM936.59 115.84c-6.791 0-12.315-5.525-12.315-12.315 0-6.789 5.525-12.313 12.315-12.313 6.791 0 12.315 5.523 12.315 12.313s-5.525 12.315-12.315 12.315zm0-23.223c-6.016 0-10.911 4.893-10.911 10.908 0 6.016 4.894 10.911 10.911 10.911 6.016 0 10.91-4.894 10.91-10.911 0-6.015-4.894-10.908-10.91-10.908zM927.5 259.88a64.958 64.958 0 0 1 7.252-35.723c.378-.72.79-1.469 1.224-2.223l.608-1.057.609 1.056a65.533 65.533 0 0 1 3.46 6.911 64.795 64.795 0 0 1 4.976 19.657c.341 3.724.36 7.498.057 11.214l-1.401-.114a63.921 63.921 0 0 0-.055-10.972 63.369 63.369 0 0 0-4.869-19.231 63.812 63.812 0 0 0-2.776-5.682 63.463 63.463 0 0 0-7.438 22.977 63.564 63.564 0 0 0-.247 13.07l-1.4.117zM909.11 281.15a64.984 64.984 0 0 1-14.2-9.033 65.233 65.233 0 0 1-8.135-8.124 65.427 65.427 0 0 1-6.454-9.229l-.609-1.054h1.217c4.451 0 8.917.461 13.274 1.369a64.577 64.577 0 0 1 23.911 10.325l-.804 1.152a63.194 63.194 0 0 0-23.395-10.102 63.804 63.804 0 0 0-11.749-1.328 64.09 64.09 0 0 0 5.685 7.964 63.62 63.62 0 0 0 21.852 16.786l-.593 1.274zM964.54 280.93l-.605-1.268a63.097 63.097 0 0 0 7.842-4.449 63.205 63.205 0 0 0 8.035-6.328 63.051 63.051 0 0 0 6.851-7.453 63.83 63.83 0 0 0 4.343-6.302 63.556 63.556 0 0 0-30.992 8.765 63.402 63.402 0 0 0-3.86 2.459l-.798-1.156a65.282 65.282 0 0 1 13.746-7.224 64.999 64.999 0 0 1 11.621-3.232 65.116 65.116 0 0 1 11.521-1.028h1.217l-.608 1.054a65.354 65.354 0 0 1-5.082 7.531 64.448 64.448 0 0 1-7.002 7.619 64.6 64.6 0 0 1-8.212 6.468 65.22 65.22 0 0 1-8.017 4.544zM974.42 309.1a.7.7 0 0 1-.351-.094l-20.017-11.557a.703.703 0 0 1 .703-1.217l20.017 11.557a.703.703 0 0 1-.352 1.311z"/>
  <path d="M954.41 276.96a.702.702 0 0 1-.352-1.311l20.017-11.557a.703.703 0 0 1 .703 1.217l-20.017 11.557a.698.698 0 0 1-.351.094zM918.77 276.96a.7.7 0 0 1-.351-.094l-20.017-11.557a.703.703 0 0 1 .703-1.217l20.017 11.557a.703.703 0 0 1-.352 1.311zM936.59 267.07a.702.702 0 0 1-.702-.702v-23.117a.702.702 0 1 1 1.404 0v23.117a.702.702 0 0 1-.702.702zM936.59 328a.702.702 0 0 1-.702-.702v-23.116a.702.702 0 1 1 1.404 0v23.116a.702.702 0 0 1-.702.702zM898.75 309.1a.702.702 0 0 1-.352-1.311l20.017-11.557a.703.703 0 0 1 .703 1.217l-20.017 11.557a.7.7 0 0 1-.351.094zM937.2 286.9l-1.217-.703a.016.016 0 0 0 .004-.007l.004-.007a63.086 63.086 0 0 0 8.301-26.587l.071-.867.833.252a29.066 29.066 0 0 1 11.039 6.275l.655.595-.729.503c-7.824 5.397-14.2 12.303-18.95 20.525l-.011.021zm8.415-26.309a64.45 64.45 0 0 1-4.222 17.643 64.488 64.488 0 0 1 13.234-12.521 27.687 27.687 0 0 0-9.012-5.122zM993.46 319.38h-1.217c-2.226 0-4.462-.115-6.647-.341a64.747 64.747 0 0 1-19.937-5.346 65.09 65.09 0 0 1-10.302-5.798l.797-1.156a63.743 63.743 0 0 0 10.08 5.672 63.313 63.313 0 0 0 19.506 5.23c1.733.179 3.499.287 5.266.321-6.445-10.683-15.781-19.15-27.071-24.533l.605-1.268c11.92 5.683 21.71 14.73 28.311 26.164l.609 1.055z"/>
  <path d="m936.59 352.22-.608-1.053a64.887 64.887 0 0 1-8.476-37.95l1.4.117a63.473 63.473 0 0 0 7.685 36.053 62.846 62.846 0 0 0 2.382-4.786 63.584 63.584 0 0 0 3.677-10.684 63.559 63.559 0 0 0 1.795-12.569 62.852 62.852 0 0 0-.153-7.854l1.4-.115c.219 2.674.272 5.375.156 8.028a64.94 64.94 0 0 1-1.835 12.846 65.041 65.041 0 0 1-3.758 10.92 64.603 64.603 0 0 1-3.056 5.993l-.609 1.054zM880.93 319.38h-1.218l.61-1.054a65.027 65.027 0 0 1 15.074-17.756 64.852 64.852 0 0 1 8.605-5.96 64.014 64.014 0 0 1 5.11-2.67l.593 1.274a62.214 62.214 0 0 0-4.998 2.612 63.545 63.545 0 0 0-8.419 5.831 63.729 63.729 0 0 0-14.119 16.306 63.634 63.634 0 0 0 14.778-2.036 63.24 63.24 0 0 0 10.365-3.688 63.42 63.42 0 0 0 9.244-5.189c.255-.171.507-.342.755-.516l.806 1.151a64.782 64.782 0 0 1-10.222 5.833 64.725 64.725 0 0 1-23.321 5.76 65.65 65.65 0 0 1-3.643.102z"/>
  <path d="m928.83 314.22-.841-.272a28.925 28.925 0 0 1-10.755-6.319l-.637-.593.713-.497c7.702-5.375 13.983-12.216 18.667-20.332l.003-.006 1.217.702c-4.713 8.166-7.503 17.06-8.293 26.435l-.074.882zm-9.995-7.039a27.572 27.572 0 0 0 8.751 5.146 64.408 64.408 0 0 1 4.207-17.467 64.565 64.565 0 0 1-12.958 12.321z"/>
  <path d="m908.91 293.59-.187-.86a29.246 29.246 0 0 1-.662-6.179c0-.618.02-1.236.061-1.837.086-1.432.288-2.895.602-4.344l.186-.861.798.373a63.067 63.067 0 0 0 26.885 5.966v1.405c-9.368 0-18.413 2.007-26.885 5.964l-.798.373zm1.015-12.063a27.24 27.24 0 0 0-.401 3.276 26.53 26.53 0 0 0-.058 1.748c0 1.681.154 3.366.458 5.021a64.351 64.351 0 0 1 17.073-5.021 64.432 64.432 0 0 1-17.072-5.024z"/>
  <path d="m935.98 286.9-.019-.034c-4.682-8.105-10.957-14.938-18.651-20.307l-.717-.501.643-.592c.195-.179.373-.344.557-.505a28.587 28.587 0 0 1 10.196-5.814l.84-.269.074.879a63.078 63.078 0 0 0 8.292 26.438l.001.003-1.216.702zm-17.146-20.983a64.475 64.475 0 0 1 12.954 12.318 64.435 64.435 0 0 1-4.203-17.466l-.077.028a27.224 27.224 0 0 0-8.674 5.12zM944.36 314.36l-.071-.865a63.061 63.061 0 0 0-8.301-26.579l-.004-.007-.004-.007 1.217-.703.012.022c4.751 8.221 11.126 15.125 18.95 20.522l.729.503-.655.595a28.905 28.905 0 0 1-11.04 6.27l-.833.249zm-2.97-19.496a64.408 64.408 0 0 1 4.221 17.637 27.423 27.423 0 0 0 9.013-5.119 64.447 64.447 0 0 1-13.234-12.518z"/>
  <path d="m964.73 293.81-.794-.378c-8.601-4.101-17.803-6.181-27.352-6.181v-1.405c9.545 0 18.747-2.081 27.352-6.184l.794-.379.193.858c.197.871.352 1.75.461 2.612a29.078 29.078 0 0 1-.461 10.199l-.193.858zm-18.542-7.262a64.375 64.375 0 0 1 17.545 5.237 27.756 27.756 0 0 0-.001-10.475 64.416 64.416 0 0 1-17.544 5.238zM199.49 300.42c-1.79 0-3.581-.264-5.302-.798-4.831-1.5-8.754-4.928-10.495-9.168a14.265 14.265 0 0 1-.999-4.03 14.526 14.526 0 0 1 0-2.904 14.418 14.418 0 0 1 2.317-6.564c2.828-4.259 7.712-6.393 12.444-5.442 5.158 1.038 8.837 5.288 8.749 10.106-.05 2.705-1.311 5.33-3.375 7.023-1.808 1.484-4.036 2.079-6.272 1.675-2.612-.469-4.813-2.255-5.608-4.549-.867-2.496-.063-5.362 1.955-6.967 2.113-1.672 5.285-1.424 7.073.553.954 1.055 1.318 2.607.949 4.051-.336 1.319-1.229 2.319-2.45 2.746a3.6 3.6 0 0 1-3.724-.853.702.702 0 1 1 .995-.991c.58.581 1.489.79 2.266.519 1.052-.367 1.424-1.265 1.552-1.767.25-.978.002-2.062-.63-2.761-1.301-1.439-3.614-1.617-5.157-.395-1.557 1.239-2.175 3.463-1.501 5.406.631 1.823 2.409 3.247 4.529 3.627 1.827.33 3.649-.16 5.133-1.378 1.749-1.435 2.819-3.664 2.861-5.962.086-4.69-3.769-7.928-7.621-8.703-4.168-.84-8.485 1.061-10.996 4.842a13.01 13.01 0 0 0-2.089 5.926 13.103 13.103 0 0 0 0 2.627c.125 1.263.428 2.485.901 3.636 1.584 3.857 5.177 6.983 9.612 8.36 4.093 1.271 8.623.882 12.428-1.064 3.964-2.029 6.952-5.587 7.992-9.518 1.065-4.033.302-8.284-.68-12.277l-.836-3.122c-.246-.888-.505-1.783-.764-2.68-1.098-3.795-2.233-7.719-2.531-11.732-.345-4.67.974-8.897 3.816-12.225 3.336-3.91 8.115-6.261 13.112-6.45 4.982-.187 9.839 1.714 13.332 5.222.07.07.142.142.21.213a14.531 14.531 0 0 1 3.518 13.898c-1.456 5.271-5.757 9.182-10.704 9.73-5.368.595-10.643-2.692-12.004-7.477-.761-2.675-.224-5.785 1.402-8.114 1.441-2.064 3.543-3.298 5.92-3.476 2.731-.206 5.425 1.062 6.863 3.222 1.526 2.299 1.372 5.393-.373 7.525a5.434 5.434 0 0 1-3.648 1.956 5.108 5.108 0 0 1-3.782-1.146c-1.166-.963-1.777-2.585-1.556-4.13.201-1.405 1.039-2.524 2.301-3.067a3.629 3.629 0 0 1 3.961.761.704.704 0 0 1-.994.994 2.21 2.21 0 0 0-2.413-.464c-1.096.473-1.388 1.441-1.465 1.975-.153 1.072.263 2.19 1.06 2.848a3.716 3.716 0 0 0 2.751.831 4.016 4.016 0 0 0 2.698-1.448c1.358-1.659 1.477-4.067.29-5.857-1.144-1.718-3.388-2.762-5.589-2.599-1.947.145-3.678 1.168-4.872 2.879-1.391 1.992-1.852 4.646-1.203 6.925 1.316 4.627 6.368 6.92 10.498 6.465 4.38-.485 8.2-3.985 9.504-8.708a13.122 13.122 0 0 0-3.368-12.744c-3.218-3.231-7.698-4.987-12.284-4.81-4.606.175-9.015 2.346-12.097 5.958-2.597 3.041-3.801 6.917-3.484 11.209.288 3.867 1.402 7.719 2.48 11.445.261.903.521 1.803.77 2.701l.842 3.141c1.031 4.188 1.823 8.649.678 12.986-1.14 4.31-4.396 8.202-8.71 10.41a18.076 18.076 0 0 1-8.186 1.949z"/>
  <path d="M249.69 249.53c-3.756 0-7.445-1.438-10.205-4.094-3.696-3.556-5.704-8.561-5.509-13.733.012-.317.032-.642.061-.964.436-4.918 2.804-9.419 6.496-12.347a22.11 22.11 0 0 1 3.168-2.119c2.882-1.561 5.818-2.111 9.237-1.732 4.404.492 8.737 1.703 12.926 2.873.559.156 1.117.312 1.674.466l3.178.853c4.037.996 8.35 1.771 12.445.685 3.993-1.056 7.607-4.088 9.667-8.113 1.975-3.863 2.368-8.461 1.078-12.616-1.397-4.502-4.571-8.151-8.489-9.761a13.155 13.155 0 0 0-5.027-.981c-2.646 0-5.186.757-7.347 2.19-3.841 2.549-5.771 6.933-4.917 11.167.779 3.87 4.006 7.744 8.683 7.744l.155-.002c2.337-.043 4.602-1.131 6.06-2.908 1.237-1.508 1.735-3.36 1.401-5.214-.389-2.157-1.837-3.965-3.688-4.605-1.978-.687-4.238-.059-5.497 1.526-1.243 1.567-1.063 3.921.402 5.246.712.643 1.816.895 2.814.64.511-.131 1.424-.51 1.798-1.579a2.258 2.258 0 0 0-.526-2.307.704.704 0 0 1 .99-.998 3.639 3.639 0 0 1 .862 3.768c-.431 1.233-1.443 2.136-2.776 2.476-1.462.374-3.035.006-4.104-.959-2.003-1.813-2.254-5.026-.56-7.162 1.624-2.045 4.527-2.86 7.058-1.98 2.323.804 4.133 3.035 4.611 5.684.408 2.267-.195 4.523-1.697 6.354-1.716 2.092-4.378 3.371-7.121 3.422l-.17.001c-4.811.001-9.03-3.704-10.071-8.871-.967-4.796 1.199-9.748 5.518-12.615 2.392-1.586 5.201-2.424 8.124-2.424 1.935 0 3.806.365 5.561 1.087 4.301 1.767 7.777 5.746 9.297 10.644 1.397 4.502.971 9.485-1.169 13.672-2.239 4.374-6.186 7.675-10.559 8.831-4.4 1.166-8.923.361-13.155-.683l-3.197-.858-1.683-.468c-4.136-1.156-8.413-2.35-12.703-2.83-3.164-.351-5.759.133-8.413 1.572a20.673 20.673 0 0 0-2.964 1.984c-3.391 2.689-5.566 6.834-5.969 11.372-.027.298-.046.598-.057.891-.178 4.703 1.721 9.438 5.079 12.669 3.36 3.234 8.243 4.47 12.746 3.226 4.794-1.322 8.347-5.201 8.84-9.653.464-4.19-1.866-9.324-6.567-10.664-2.313-.659-5.008-.192-7.031 1.22-1.741 1.214-2.781 2.975-2.93 4.957-.167 2.232.896 4.513 2.645 5.676a5.05 5.05 0 0 0 5.955-.293 4.086 4.086 0 0 0 1.472-2.744 3.784 3.784 0 0 0-.847-2.798c-.669-.811-1.804-1.236-2.894-1.081-.546.077-1.533.375-2.017 1.496a2.245 2.245 0 0 0 .473 2.456.703.703 0 0 1-.993.993 3.661 3.661 0 0 1-.769-4.006c.552-1.28 1.685-2.129 3.109-2.331 1.562-.222 3.202.397 4.175 1.577a5.185 5.185 0 0 1 1.162 3.829 5.498 5.498 0 0 1-1.981 3.694c-2.162 1.769-5.296 1.923-7.623.375-2.191-1.457-3.474-4.186-3.268-6.951.181-2.411 1.434-4.543 3.527-6.004 2.361-1.647 5.511-2.191 8.22-1.419 4.852 1.382 8.181 6.728 7.578 12.17-.556 5.018-4.519 9.379-9.862 10.853a14.57 14.57 0 0 1-3.89.528z"/>
  <path class="st2" d="M235.38 209.82a24.772 24.772 0 0 0-6.03 24.032 24.774 24.774 0 0 0-23.827 6.791 24.786 24.786 0 0 0-17.797-17.238 24.781 24.781 0 0 0 6.032-24.03 24.772 24.772 0 0 0 23.825-6.794h.003a24.763 24.763 0 0 0 17.794 17.239z"/>
  <path d="m205.18 242-.334-1.17a24.093 24.093 0 0 0-6.402-10.691 24.133 24.133 0 0 0-10.891-6.058l-1.18-.297.846-.873a23.955 23.955 0 0 0 6.785-16.752 24.09 24.09 0 0 0-.923-6.596l-.333-1.17 1.18.296c8.316 2.089 17.186-.442 23.149-6.601l.207-.214h.828l.148.51a24.109 24.109 0 0 0 6.399 10.691 24.121 24.121 0 0 0 10.891 6.058l1.18.296-.847.874a23.95 23.95 0 0 0-6.782 16.749c0 2.231.311 4.452.923 6.602l.333 1.169-1.179-.295a24.155 24.155 0 0 0-5.859-.724 24.209 24.209 0 0 0-17.293 7.322l-.846.874zm-16.156-18.97a25.544 25.544 0 0 1 10.397 6.1 25.484 25.484 0 0 1 6.429 10.198c4.699-4.417 11-6.929 17.468-6.929 1.696 0 3.393.17 5.06.508a25.486 25.486 0 0 1-.682-5.855 25.338 25.338 0 0 1 6.382-16.868 25.53 25.53 0 0 1-10.397-6.101 25.518 25.518 0 0 1-6.427-10.199 25.561 25.561 0 0 1-22.527 6.426c.453 1.918.682 3.881.682 5.848a25.333 25.333 0 0 1-6.385 16.872z"/>
  <path d="m207.07 234.47-.365-.667a28.479 28.479 0 0 0-12.183-11.801l-.678-.343.395-.649a28.477 28.477 0 0 0 4.128-16.451l-.042-.759.76.018a28.482 28.482 0 0 0 16.311-4.65l.636-.416.364.667a28.49 28.49 0 0 0 12.183 11.801l.678.343-.395.649a28.475 28.475 0 0 0-4.128 16.451l.042.759-.76-.018a28.457 28.457 0 0 0-16.311 4.65l-.635.416zm-11.248-13.375a29.864 29.864 0 0 1 11.749 11.38 29.87 29.87 0 0 1 15.73-4.485 29.863 29.863 0 0 1 3.981-15.865 29.864 29.864 0 0 1-11.749-11.38 29.87 29.87 0 0 1-15.73 4.485 29.852 29.852 0 0 1-3.981 15.865z"/>
  <path d="M211.57 224.55c-.648 0-1.301-.08-1.946-.242a7.888 7.888 0 0 1-4.879-3.621 7.888 7.888 0 0 1-.889-6.01 7.888 7.888 0 0 1 3.621-4.879 7.888 7.888 0 0 1 6.01-.889 7.888 7.888 0 0 1 4.879 3.621 7.888 7.888 0 0 1 .889 6.01 7.888 7.888 0 0 1-3.621 4.879 7.885 7.885 0 0 1-4.064 1.131zm-.026-14.477a6.487 6.487 0 0 0-3.345.931 6.488 6.488 0 0 0-2.98 4.015 6.489 6.489 0 0 0 .732 4.947 6.496 6.496 0 0 0 4.015 2.981 6.489 6.489 0 0 0 4.947-.732 6.49 6.49 0 0 0 2.98-4.015 6.489 6.489 0 0 0-.732-4.947 6.488 6.488 0 0 0-4.015-2.98 6.493 6.493 0 0 0-1.602-.2z"/>
  <path d="M211.56 221.24c-.377 0-.756-.047-1.131-.141a4.596 4.596 0 0 1-2.842-2.111 4.6 4.6 0 0 1-.52-3.502 4.63 4.63 0 0 1 5.613-3.361 4.632 4.632 0 0 1 3.361 5.613 4.596 4.596 0 0 1-2.111 2.842 4.592 4.592 0 0 1-2.37.66zm-.005-7.849a3.228 3.228 0 0 0-3.125 2.438 3.202 3.202 0 0 0 .362 2.438 3.196 3.196 0 0 0 1.978 1.47c.833.209 1.699.08 2.438-.362a3.196 3.196 0 0 0 1.47-1.978 3.226 3.226 0 0 0-3.123-4.006z"/>
  <path class="st2" d="M246.99 190.56a10.96 10.96 0 0 1 0 10.95 10.928 10.928 0 0 1 0-10.95z"/>
  <path d="M246.99 202.07a.563.563 0 0 1-.487-.281 11.451 11.451 0 0 1-1.504-4.788 11.447 11.447 0 0 1 1.504-6.724.561.561 0 0 1 .974 0 11.466 11.466 0 0 1 1.503 6.694 11.438 11.438 0 0 1-1.503 4.818.565.565 0 0 1-.487.281zm-.001-10.28a10.318 10.318 0 0 0-.87 5.116c.1 1.179.392 2.308.87 3.371a10.31 10.31 0 0 0 .871-3.397 10.343 10.343 0 0 0-.871-5.09zm1.431 5.135h.003-.003z"/>
  <path class="st2" d="M243.77 198c1.295.905 2.4 2.091 3.217 3.504-1.63 0-3.206-.362-4.631-1.028a10.94 10.94 0 0 1-4.853-4.445c2.28-.001 4.458.707 6.267 1.969z"/>
  <path d="M246.99 202.07c-1.696 0-3.334-.364-4.869-1.081a11.45 11.45 0 0 1-5.101-4.673.561.561 0 0 1 .487-.843c2.367 0 4.645.716 6.587 2.071a11.46 11.46 0 0 1 3.382 3.683.561.561 0 0 1-.486.843zm-8.415-5.419a10.31 10.31 0 0 0 4.022 3.319c1.061.496 2.175.804 3.326.922a10.32 10.32 0 0 0-2.471-2.427 10.34 10.34 0 0 0-4.877-1.814z"/>
  <path class="st2" d="M256.47 196.03a10.963 10.963 0 0 1-4.771 4.409 10.918 10.918 0 0 1-4.709 1.065 10.945 10.945 0 0 1 9.48-5.474z"/>
  <path d="M246.99 202.07a.563.563 0 0 1-.487-.843 11.47 11.47 0 0 1 3.432-3.722 11.468 11.468 0 0 1 6.535-2.033.563.563 0 0 1 .487.843 11.474 11.474 0 0 1-5.016 4.634 11.55 11.55 0 0 1-4.951 1.121zm8.412-5.419a10.348 10.348 0 0 0-4.829 1.779 10.339 10.339 0 0 0-2.516 2.46 10.416 10.416 0 0 0 3.399-.954 10.352 10.352 0 0 0 3.946-3.285z"/>
  <path class="st2" d="M251.7 202.57a10.94 10.94 0 0 1 4.771 4.409c-2.256 0-4.417-.694-6.215-1.936a10.933 10.933 0 0 1-3.265-3.538c1.658 0 3.262.373 4.709 1.065z"/>
  <path d="M256.47 207.54c-2.347 0-4.607-.704-6.535-2.036a11.422 11.422 0 0 1-3.432-3.719.564.564 0 0 1 .487-.843c1.706 0 3.418.387 4.951 1.12a11.46 11.46 0 0 1 5.016 4.635.564.564 0 0 1-.487.843zm-8.413-5.418a10.308 10.308 0 0 0 2.516 2.457 10.319 10.319 0 0 0 4.829 1.782 10.345 10.345 0 0 0-3.946-3.285 10.434 10.434 0 0 0-3.399-.954z"/>
  <path class="st2" d="M248.42 206.09a10.94 10.94 0 0 1-1.43 6.37 10.938 10.938 0 0 1 0-10.95 10.934 10.934 0 0 1 1.43 4.58z"/>
  <path d="M246.99 213.02a.563.563 0 0 1-.487-.281 11.453 11.453 0 0 1-1.504-6.727 11.428 11.428 0 0 1 1.504-4.786.561.561 0 0 1 .973 0 11.406 11.406 0 0 1 1.503 4.815 11.456 11.456 0 0 1-1.503 6.696.558.558 0 0 1-.486.283zm-.001-10.28a10.342 10.342 0 0 0-.87 3.368c-.15 1.766.15 3.516.87 5.118a10.315 10.315 0 0 0 .87-5.092 10.256 10.256 0 0 0-.87-3.394z"/>
  <path class="st2" d="M246.99 201.51a10.947 10.947 0 0 1-9.483 5.474 10.959 10.959 0 0 1 4.853-4.448c1.424-.667 3-1.026 4.63-1.026z"/>
  <path d="M237.5 207.54a.563.563 0 0 1-.487-.843 11.475 11.475 0 0 1 5.101-4.676 11.407 11.407 0 0 1 4.869-1.078.563.563 0 0 1 .487.843 11.46 11.46 0 0 1-3.382 3.683 11.468 11.468 0 0 1-6.588 2.071zm8.415-5.42a10.278 10.278 0 0 0-3.325.919 10.332 10.332 0 0 0-4.022 3.323 10.337 10.337 0 0 0 4.877-1.815 10.335 10.335 0 0 0 2.47-2.427z"/>
  <path class="st2" d="M206.32 247.47a10.945 10.945 0 0 1-9.483 5.474 10.957 10.957 0 0 1 9.483-5.474zM201.55 254.01a10.957 10.957 0 0 1 4.771 4.409c-2.259 0-4.42-.694-6.218-1.933a10.977 10.977 0 0 1-3.262-3.535c0-.003-.003-.003-.003-.006 1.658 0 3.262.377 4.712 1.065z"/>
  <path class="st2" d="M196.84 242a10.926 10.926 0 0 1 1.43 6.367 10.925 10.925 0 0 1-1.43 4.58 10.914 10.914 0 0 1-1.427-4.555A10.918 10.918 0 0 1 196.84 242z"/>
  <path class="st2" d="M198.27 257.52a10.94 10.94 0 0 1-1.43 6.37 10.957 10.957 0 0 1 0-10.95c0 .003.003.003.003.006a10.956 10.956 0 0 1 1.427 4.574zM193.62 249.44a10.939 10.939 0 0 1 3.217 3.504c-1.63 0-3.203-.36-4.631-1.026a10.964 10.964 0 0 1-4.853-4.448c2.282 0 4.46.708 6.267 1.97z"/>
  <path class="st2" d="M196.84 252.94a10.918 10.918 0 0 1-3.217 3.504 10.933 10.933 0 0 1-6.266 1.97 10.935 10.935 0 0 1 4.853-4.445c1.427-.666 3-1.029 4.63-1.029z"/>
  <path d="M196.84 253.51a.563.563 0 0 1-.487-.281 11.388 11.388 0 0 1-1.501-4.789 11.44 11.44 0 0 1 1.501-6.721.563.563 0 0 1 .973.001 11.437 11.437 0 0 1 1.504 6.694 11.546 11.546 0 0 1-1.504 4.815.56.56 0 0 1-.486.281zm0-10.278a10.31 10.31 0 0 0-.867 5.114c.098 1.177.389 2.306.866 3.369a10.44 10.44 0 0 0 .871-3.393v-.001a10.312 10.312 0 0 0-.87-5.089z"/>
  <path d="M196.84 253.51c-1.697 0-3.335-.363-4.868-1.078a11.475 11.475 0 0 1-5.101-4.676.561.561 0 0 1 .487-.843c2.37 0 4.648.716 6.588 2.071a11.415 11.415 0 0 1 3.382 3.684c.1.174.1.388 0 .562a.567.567 0 0 1-.488.28zm-8.416-5.419a10.35 10.35 0 0 0 4.023 3.323c1.059.494 2.174.802 3.326.919a10.294 10.294 0 0 0-2.473-2.427 10.31 10.31 0 0 0-4.876-1.815z"/>
  <path d="M196.84 253.51a.563.563 0 0 1-.487-.843 11.584 11.584 0 0 1 3.432-3.719 11.475 11.475 0 0 1 6.537-2.035.563.563 0 0 1 .487.843 11.472 11.472 0 0 1-5.016 4.635 11.416 11.416 0 0 1-4.953 1.119zm8.416-5.419a10.346 10.346 0 0 0-4.832 1.782 10.487 10.487 0 0 0-2.515 2.459c1.179-.12 2.319-.44 3.401-.956a10.345 10.345 0 0 0 3.946-3.285z"/>
  <path d="M206.32 258.98c-2.347 0-4.608-.703-6.537-2.032a11.617 11.617 0 0 1-3.448-3.75.562.562 0 0 1 .502-.814c1.722 0 3.388.376 4.953 1.119a11.479 11.479 0 0 1 5.017 4.635.561.561 0 0 1-.487.842zm-8.415-5.419a10.505 10.505 0 0 0 2.516 2.462 10.344 10.344 0 0 0 4.83 1.779 10.35 10.35 0 0 0-3.945-3.286 10.35 10.35 0 0 0-3.401-.955z"/>
  <path d="M196.84 264.46a.563.563 0 0 1-.487-.281 11.453 11.453 0 0 1-1.501-6.724c.14-1.671.659-3.327 1.5-4.788a.563.563 0 0 1 .986.022 11.585 11.585 0 0 1 1.491 4.794 11.457 11.457 0 0 1-1.503 6.696.56.56 0 0 1-.486.281zm-.001-10.276a10.276 10.276 0 0 0-.866 3.366c-.15 1.767.149 3.516.867 5.116a10.324 10.324 0 0 0 .87-5.091 10.455 10.455 0 0 0-.871-3.391zm.566-1.23h.003-.003z"/>
  <path d="M187.36 258.98a.563.563 0 0 1-.487-.843 11.45 11.45 0 0 1 5.102-4.674 11.434 11.434 0 0 1 4.868-1.081.56.56 0 0 1 .486.843 11.535 11.535 0 0 1-3.383 3.685 11.45 11.45 0 0 1-6.586 2.07zm8.414-5.419a10.325 10.325 0 0 0-3.324.921 10.314 10.314 0 0 0-4.022 3.32 10.323 10.323 0 0 0 4.876-1.814 10.443 10.443 0 0 0 2.47-2.427zM828.99 300.26c-2.828 0-5.65-.659-8.178-1.952-4.314-2.207-7.57-6.099-8.71-10.41-1.147-4.34-.355-8.799.673-12.971l.845-3.151c.251-.906.512-1.809.773-2.714 1.076-3.723 2.19-7.573 2.476-11.437.319-4.292-.886-8.168-3.483-11.21-3.083-3.612-7.493-5.783-12.097-5.956-4.63-.174-9.292 1.695-12.475 5.002a13.133 13.133 0 0 0-3.179 12.552c1.304 4.722 5.125 8.221 9.506 8.706 4.123.456 9.181-1.836 10.498-6.464.649-2.279.188-4.933-1.202-6.924-1.195-1.711-2.926-2.734-4.875-2.88-2.198-.166-4.443.881-5.588 2.601a4.967 4.967 0 0 0 .29 5.855 4.018 4.018 0 0 0 2.698 1.448 3.724 3.724 0 0 0 2.751-.832c.796-.657 1.212-1.773 1.06-2.844-.076-.535-.368-1.504-1.467-1.977a2.202 2.202 0 0 0-2.41.462.702.702 0 1 1-.994-.993 3.618 3.618 0 0 1 3.96-.759c1.263.544 2.102 1.663 2.302 3.069.22 1.545-.391 3.164-1.557 4.126a5.124 5.124 0 0 1-3.782 1.147 5.43 5.43 0 0 1-3.648-1.957c-1.747-2.133-1.9-5.227-.372-7.523 1.439-2.162 4.134-3.427 6.862-3.224 2.378.178 4.481 1.412 5.922 3.477 1.626 2.329 2.163 5.438 1.402 8.113-1.362 4.786-6.634 8.069-12.004 7.476-4.947-.548-9.25-4.457-10.706-9.729-1.356-4.909-.007-10.235 3.522-13.9 3.508-3.644 8.444-5.627 13.54-5.432 4.996.188 9.775 2.539 13.113 6.448 2.842 3.329 4.162 7.557 3.815 12.226-.298 4.009-1.431 7.931-2.528 11.723-.26.9-.52 1.798-.768 2.693l-.84 3.132c-.98 3.977-1.742 8.227-.675 12.262 1.04 3.933 4.027 7.491 7.992 9.519 3.804 1.945 8.333 2.333 12.426 1.062 4.434-1.376 8.028-4.501 9.613-8.36 1.627-3.96 1.171-8.629-1.19-12.186-2.509-3.781-6.825-5.682-10.996-4.842-3.852.775-7.706 4.013-7.621 8.702.042 2.299 1.111 4.528 2.86 5.963 1.484 1.218 3.309 1.708 5.133 1.379 2.121-.382 3.899-1.806 4.53-3.628.674-1.945.057-4.168-1.503-5.406-1.539-1.222-3.853-1.046-5.155.394-.633.7-.88 1.784-.63 2.763.128.502.5 1.399 1.551 1.765a2.197 2.197 0 0 0 2.266-.517.702.702 0 1 1 .995.992 3.607 3.607 0 0 1-3.723.852c-1.22-.425-2.113-1.426-2.449-2.744-.369-1.444-.005-2.997.95-4.053 1.79-1.979 4.962-2.226 7.071-.552 2.018 1.602 2.823 4.467 1.956 6.966-.795 2.294-2.997 4.08-5.609 4.551-2.238.403-4.466-.192-6.274-1.675-2.063-1.693-3.325-4.319-3.374-7.024-.088-4.817 3.592-9.066 8.749-10.105 4.732-.953 9.617 1.184 12.444 5.443 2.615 3.94 3.12 9.112 1.319 13.497-1.743 4.241-5.667 7.669-10.496 9.168a17.958 17.958 0 0 1-5.305.797z"/>
  <path d="M778.79 249.37c-1.3 0-2.607-.172-3.886-.526-5.344-1.476-9.308-5.838-9.863-10.854-.603-5.442 2.726-10.787 7.578-12.168 2.711-.772 5.862-.228 8.223 1.421 2.092 1.46 3.343 3.592 3.523 6.001.207 2.766-1.075 5.495-3.266 6.953-2.326 1.547-5.459 1.392-7.621-.377a5.502 5.502 0 0 1-1.981-3.694 5.184 5.184 0 0 1 1.161-3.83c.973-1.18 2.614-1.798 4.177-1.576 1.423.203 2.555 1.052 3.106 2.33a3.66 3.66 0 0 1-.768 4.006.704.704 0 0 1-.994-.993c.64-.639.829-1.627.471-2.457-.482-1.12-1.469-1.417-2.014-1.495-1.088-.155-2.226.268-2.895 1.079a3.788 3.788 0 0 0-.847 2.799 4.087 4.087 0 0 0 1.473 2.744 5.051 5.051 0 0 0 5.953.294c1.748-1.163 2.81-3.445 2.643-5.679-.148-1.981-1.187-3.74-2.926-4.954-2.023-1.412-4.718-1.88-7.034-1.221-4.701 1.338-7.031 6.472-6.567 10.663.493 4.45 4.046 8.33 8.842 9.655a13.338 13.338 0 0 0 12.746-3.229c3.357-3.232 5.256-7.967 5.078-12.665-.176-4.674-2.38-9.151-6.047-12.282-3.088-2.637-7.021-3.86-11.382-3.536-3.921.291-7.828 1.421-11.607 2.513-.918.266-1.835.53-2.749.783l-3.188.855c-4.246 1.046-8.77 1.85-13.17.687-4.373-1.156-8.319-4.458-10.557-8.832-2.141-4.186-2.568-9.169-1.17-13.672 1.52-4.898 4.995-8.877 9.296-10.644 4.446-1.826 9.69-1.314 13.685 1.337 4.318 2.865 6.484 7.817 5.518 12.615-1.04 5.166-5.26 8.869-10.071 8.87l-.172-.002c-2.741-.05-5.403-1.328-7.119-3.42-1.503-1.832-2.107-4.09-1.698-6.357.477-2.647 2.287-4.877 4.611-5.683 2.532-.877 5.434-.063 7.057 1.982 1.695 2.136 1.444 5.348-.559 7.16-1.068.966-2.64 1.334-4.102.961-1.335-.341-2.347-1.244-2.777-2.479a3.65 3.65 0 0 1 .862-3.767.704.704 0 0 1 .993.994 2.236 2.236 0 0 0-.527 2.31c.373 1.07 1.287 1.449 1.798 1.58.996.255 2.1.002 2.813-.642 1.465-1.325 1.645-3.678.401-5.245-1.258-1.585-3.518-2.213-5.496-1.528-1.852.642-3.3 2.449-3.688 4.605-.334 1.855.164 3.708 1.402 5.217 1.458 1.777 3.723 2.863 6.058 2.906 4.766.09 8.052-3.828 8.839-7.741.853-4.236-1.077-8.619-4.917-11.168-3.612-2.397-8.354-2.86-12.374-1.208-3.918 1.609-7.091 5.258-8.488 9.761-1.29 4.155-.897 8.754 1.079 12.616 2.059 4.025 5.672 7.058 9.665 8.114 4.097 1.083 8.41.309 12.461-.689l3.169-.85c.904-.25 1.814-.513 2.728-.777 3.847-1.112 7.826-2.263 11.893-2.565 4.734-.35 9.022.987 12.398 3.869 3.965 3.385 6.348 8.232 6.539 13.297.195 5.169-1.813 10.173-5.508 13.731a14.755 14.755 0 0 1-10.211 4.097z"/>
  <path d="M828.99 300.26c-2.828 0-5.65-.659-8.178-1.952-4.314-2.207-7.57-6.099-8.71-10.41-1.147-4.34-.355-8.799.673-12.971l.845-3.151c.251-.906.512-1.809.773-2.714 1.076-3.723 2.19-7.573 2.476-11.437.319-4.292-.886-8.168-3.483-11.21-3.083-3.612-7.493-5.783-12.097-5.956-4.63-.174-9.292 1.695-12.475 5.002a13.133 13.133 0 0 0-3.179 12.552c1.304 4.722 5.125 8.221 9.506 8.706 4.123.456 9.181-1.836 10.498-6.464.649-2.279.188-4.933-1.202-6.924-1.195-1.711-2.926-2.734-4.875-2.88-2.198-.166-4.443.881-5.588 2.601a4.967 4.967 0 0 0 .29 5.855 4.018 4.018 0 0 0 2.698 1.448 3.724 3.724 0 0 0 2.751-.832c.796-.657 1.212-1.773 1.06-2.844-.076-.535-.368-1.504-1.467-1.977a2.202 2.202 0 0 0-2.41.462.702.702 0 1 1-.994-.993 3.618 3.618 0 0 1 3.96-.759c1.263.544 2.102 1.663 2.302 3.069.22 1.545-.391 3.164-1.557 4.126a5.124 5.124 0 0 1-3.782 1.147 5.43 5.43 0 0 1-3.648-1.957c-1.747-2.133-1.9-5.227-.372-7.523 1.439-2.162 4.134-3.427 6.862-3.224 2.378.178 4.481 1.412 5.922 3.477 1.626 2.329 2.163 5.438 1.402 8.113-1.362 4.786-6.634 8.069-12.004 7.476-4.947-.548-9.25-4.457-10.706-9.729-1.356-4.909-.007-10.235 3.522-13.9 3.508-3.644 8.444-5.627 13.54-5.432 4.996.188 9.775 2.539 13.113 6.448 2.842 3.329 4.162 7.557 3.815 12.226-.298 4.009-1.431 7.931-2.528 11.723-.26.9-.52 1.798-.768 2.693l-.84 3.132c-.98 3.977-1.742 8.227-.675 12.262 1.04 3.933 4.027 7.491 7.992 9.519 3.804 1.945 8.333 2.333 12.426 1.062 4.434-1.376 8.028-4.501 9.613-8.36 1.627-3.96 1.171-8.629-1.19-12.186-2.509-3.781-6.825-5.682-10.996-4.842-3.852.775-7.706 4.013-7.621 8.702.042 2.299 1.111 4.528 2.86 5.963 1.484 1.218 3.309 1.708 5.133 1.379 2.121-.382 3.899-1.806 4.53-3.628.674-1.945.057-4.168-1.503-5.406-1.539-1.222-3.853-1.046-5.155.394-.633.7-.88 1.784-.63 2.763.128.502.5 1.399 1.551 1.765a2.197 2.197 0 0 0 2.266-.517.702.702 0 1 1 .995.992 3.607 3.607 0 0 1-3.723.852c-1.22-.425-2.113-1.426-2.449-2.744-.369-1.444-.005-2.997.95-4.053 1.79-1.979 4.962-2.226 7.071-.552 2.018 1.602 2.823 4.467 1.956 6.966-.795 2.294-2.997 4.08-5.609 4.551-2.238.403-4.466-.192-6.274-1.675-2.063-1.693-3.325-4.319-3.374-7.024-.088-4.817 3.592-9.066 8.749-10.105 4.732-.953 9.617 1.184 12.444 5.443 2.615 3.94 3.12 9.112 1.319 13.497-1.743 4.241-5.667 7.669-10.496 9.168a17.958 17.958 0 0 1-5.305.797z"/>
  <path d="M778.79 249.37c-1.3 0-2.607-.172-3.886-.526-5.344-1.476-9.308-5.838-9.863-10.854-.603-5.442 2.726-10.787 7.578-12.168 2.711-.772 5.862-.228 8.223 1.421 2.092 1.46 3.343 3.592 3.523 6.001.207 2.766-1.075 5.495-3.266 6.953-2.326 1.547-5.459 1.392-7.621-.377a5.502 5.502 0 0 1-1.981-3.694 5.184 5.184 0 0 1 1.161-3.83c.973-1.18 2.614-1.798 4.177-1.576 1.423.203 2.555 1.052 3.106 2.33a3.66 3.66 0 0 1-.768 4.006.704.704 0 0 1-.994-.993c.64-.639.829-1.627.471-2.457-.482-1.12-1.469-1.417-2.014-1.495-1.088-.155-2.226.268-2.895 1.079a3.788 3.788 0 0 0-.847 2.799 4.087 4.087 0 0 0 1.473 2.744 5.051 5.051 0 0 0 5.953.294c1.748-1.163 2.81-3.445 2.643-5.679-.148-1.981-1.187-3.74-2.926-4.954-2.023-1.412-4.718-1.88-7.034-1.221-4.701 1.338-7.031 6.472-6.567 10.663.493 4.45 4.046 8.33 8.842 9.655a13.338 13.338 0 0 0 12.746-3.229c3.357-3.232 5.256-7.967 5.078-12.665-.185-4.904-2.382-9.375-6.027-12.266-3.74-2.965-7.143-4.027-11.375-3.555-4.294.48-8.573 1.677-12.711 2.833-.558.156-1.115.312-1.671.465l-3.188.855c-4.246 1.046-8.77 1.85-13.17.687-4.373-1.156-8.319-4.458-10.557-8.832-2.141-4.186-2.568-9.169-1.17-13.672 1.52-4.898 4.995-8.877 9.296-10.644 4.446-1.826 9.69-1.314 13.685 1.337 4.318 2.865 6.484 7.817 5.518 12.615-1.04 5.166-5.26 8.869-10.071 8.87l-.172-.002c-2.741-.05-5.403-1.328-7.119-3.42-1.503-1.832-2.107-4.09-1.698-6.357.477-2.647 2.287-4.877 4.611-5.683 2.532-.877 5.434-.063 7.057 1.982 1.695 2.136 1.444 5.348-.559 7.16-1.068.966-2.64 1.334-4.102.961-1.335-.341-2.347-1.244-2.777-2.479a3.65 3.65 0 0 1 .862-3.767.704.704 0 0 1 .993.994 2.236 2.236 0 0 0-.527 2.31c.373 1.07 1.287 1.449 1.798 1.58.996.255 2.1.002 2.813-.642 1.465-1.325 1.645-3.678.401-5.245-1.258-1.585-3.518-2.213-5.496-1.528-1.852.642-3.3 2.449-3.688 4.605-.334 1.855.164 3.708 1.402 5.217 1.458 1.777 3.723 2.863 6.058 2.906 4.766.09 8.052-3.828 8.839-7.741.853-4.236-1.077-8.619-4.917-11.168-3.612-2.397-8.354-2.86-12.374-1.208-3.918 1.609-7.091 5.258-8.488 9.761-1.29 4.155-.897 8.754 1.079 12.616 2.059 4.025 5.672 7.058 9.665 8.114 4.097 1.083 8.41.309 12.461-.689l3.169-.85a502.19 502.19 0 0 0 1.661-.463c4.192-1.172 8.527-2.384 12.933-2.877 4.637-.519 8.346.633 12.404 3.85 3.968 3.146 6.359 7.999 6.559 13.313.195 5.169-1.813 10.173-5.508 13.731a14.748 14.748 0 0 1-10.211 4.099z"/>
  <path class="st2" d="M833.78 206.01a24.772 24.772 0 0 0 6.98 17.238 24.758 24.758 0 0 0-11.208 6.235 24.801 24.801 0 0 0-6.589 11.003 24.767 24.767 0 0 0-23.827-6.794 24.772 24.772 0 0 0-6.03-24.029 24.77 24.77 0 0 0 17.797-17.238 24.771 24.771 0 0 0 23.827 6.791 24.799 24.799 0 0 0-.95 6.794zm-4.364-1.646a29.369 29.369 0 0 1-16.713-4.763 29.36 29.36 0 0 1-12.484 12.091 29.344 29.344 0 0 1 4.232 16.853 29.34 29.34 0 0 1 16.71 4.765 29.378 29.378 0 0 1 12.484-12.091 29.317 29.317 0 0 1-4.229-16.855z"/>
  <path class="st2" d="M812.7 199.6a29.377 29.377 0 0 0 16.713 4.763 29.322 29.322 0 0 0 4.229 16.856 29.378 29.378 0 0 0-12.484 12.091 29.332 29.332 0 0 0-16.71-4.765 29.344 29.344 0 0 0-4.232-16.853A29.369 29.369 0 0 0 812.7 199.6zm5.991 23.872a7.236 7.236 0 1 0-8.781-5.257 7.236 7.236 0 0 0 8.781 5.257z"/>
  <path class="st2" d="M823.95 214.69a7.236 7.236 0 1 1-14.037 3.52 7.236 7.236 0 0 1 14.037-3.52zm-6.064 5.567a3.93 3.93 0 0 0 2.852-4.76c-.528-2.099-2.664-3.377-4.763-2.852a3.924 3.924 0 0 0 1.911 7.612z"/>
  <path class="st2" d="M820.74 215.5a3.93 3.93 0 0 1-2.852 4.76 3.924 3.924 0 0 1-1.911-7.612 3.932 3.932 0 0 1 4.763 2.852z"/>
  <path d="m823.3 241.85-.846-.875c-4.505-4.655-10.808-7.325-17.293-7.325-1.97 0-3.941.243-5.859.724l-1.179.295.333-1.169c.612-2.15.923-4.371.923-6.599a23.953 23.953 0 0 0-6.782-16.75l-.846-.873 1.18-.297a24.119 24.119 0 0 0 10.891-6.058 24.118 24.118 0 0 0 6.402-10.691l.334-1.17.846.874c5.964 6.157 14.835 8.686 23.152 6.599l1.18-.296-.333 1.17a24.106 24.106 0 0 0-.923 6.602 23.948 23.948 0 0 0 6.782 16.75l.847.874-1.181.296a24.118 24.118 0 0 0-10.891 6.058 24.151 24.151 0 0 0-6.402 10.691l-.335 1.17zm-18.14-9.604a25.619 25.619 0 0 1 17.469 6.931 25.556 25.556 0 0 1 6.429-10.197 25.527 25.527 0 0 1 10.397-6.101 25.331 25.331 0 0 1-6.382-16.868c0-1.972.229-3.936.682-5.854a25.559 25.559 0 0 1-22.528-6.421 25.532 25.532 0 0 1-6.429 10.198 25.529 25.529 0 0 1-10.397 6.1 25.339 25.339 0 0 1 6.382 16.869c0 1.97-.229 3.933-.682 5.852a25.387 25.387 0 0 1 5.059-.509z"/>
  <path d="m821.41 234.31-.636-.416a28.487 28.487 0 0 0-16.309-4.651l-.76.018.042-.759a28.482 28.482 0 0 0-4.13-16.449l-.395-.649.678-.343a28.495 28.495 0 0 0 12.185-11.801l.364-.667.636.415a28.492 28.492 0 0 0 16.313 4.649l.76-.018-.042.759a28.448 28.448 0 0 0 4.127 16.451l.395.649-.678.343a28.51 28.51 0 0 0-12.185 11.801l-.365.668zm-16.228-6.479a29.84 29.84 0 0 1 15.728 4.485 29.899 29.899 0 0 1 11.75-11.38 29.832 29.832 0 0 1-3.98-15.866 29.883 29.883 0 0 1-15.731-4.483 29.873 29.873 0 0 1-11.75 11.38 29.855 29.855 0 0 1 3.983 15.864z"/>
  <path d="M816.93 224.39c-3.554 0-6.798-2.408-7.703-6.007-1.065-4.245 1.522-8.565 5.768-9.63 4.247-1.064 8.568 1.522 9.633 5.768.516 2.056.2 4.19-.89 6.009s-2.822 3.105-4.878 3.621a7.925 7.925 0 0 1-1.93.239zm-6.341-6.349a6.545 6.545 0 0 0 7.928 4.747c3.494-.877 5.623-4.432 4.747-7.926s-4.435-5.622-7.928-4.747a6.541 6.541 0 0 0-4.747 7.926z"/>
  <path d="M816.93 221.08a4.634 4.634 0 0 1-4.488-3.502 4.595 4.595 0 0 1 .518-3.502 4.59 4.59 0 0 1 2.841-2.11 4.637 4.637 0 0 1 5.615 3.362 4.635 4.635 0 0 1-3.362 5.613h-.001a4.616 4.616 0 0 1-1.123.139zm.953-.82h.003-.003zm-.958-7.028c-.258 0-.52.031-.782.097-.833.209-1.535.73-1.977 1.469s-.571 1.605-.361 2.438a3.223 3.223 0 0 0 3.907 2.342 3.227 3.227 0 0 0 2.342-3.908 3.233 3.233 0 0 0-3.129-2.438z"/>
  <path class="st2" d="M781.5 190.4a10.95 10.95 0 0 1 0 10.95 10.951 10.951 0 0 1-1.433-4.583 10.955 10.955 0 0 1 1.433-6.367z"/>
  <path d="M781.5 201.91a.564.564 0 0 1-.487-.28 11.428 11.428 0 0 1-1.506-4.818v-.001a11.474 11.474 0 0 1 1.506-6.693.561.561 0 0 1 .974 0 11.462 11.462 0 0 1 1.501 6.723 11.592 11.592 0 0 1-1.501 4.788.561.561 0 0 1-.487.281zm-.873-5.19a10.36 10.36 0 0 0 .872 3.397c.479-1.067.77-2.196.868-3.37a10.34 10.34 0 0 0-.868-5.115 10.355 10.355 0 0 0-.872 5.088z"/>
  <path class="st2" d="M790.98 195.87a10.952 10.952 0 0 1-9.481 5.476 10.937 10.937 0 0 1 9.481-5.476z"/>
  <path d="M781.5 201.91a.563.563 0 0 1-.488-.842 11.392 11.392 0 0 1 3.38-3.685 11.448 11.448 0 0 1 6.587-2.073.563.563 0 0 1 .487.843 11.46 11.46 0 0 1-5.098 4.676 11.419 11.419 0 0 1-4.868 1.081zm8.414-5.421a10.318 10.318 0 0 0-4.877 1.817 10.285 10.285 0 0 0-2.471 2.427 10.33 10.33 0 0 0 3.328-.921 10.363 10.363 0 0 0 4.02-3.323z"/>
  <path class="st2" d="M778.23 197.81a10.948 10.948 0 0 1 3.268 3.54 10.95 10.95 0 0 1-9.483-5.476c2.259 0 4.417.697 6.215 1.936z"/>
  <path d="M781.5 201.91c-1.726 0-3.392-.377-4.953-1.12a11.468 11.468 0 0 1-5.017-4.638.564.564 0 0 1 .487-.843c2.343 0 4.602.704 6.534 2.035a11.437 11.437 0 0 1 3.435 3.721c.1.174.101.388 0 .562a.558.558 0 0 1-.486.283zm-8.416-5.421a10.342 10.342 0 0 0 3.946 3.288 10.31 10.31 0 0 0 3.403.956 10.28 10.28 0 0 0-2.519-2.461 10.341 10.341 0 0 0-4.83-1.783z"/>
  <path class="st2" d="M781.5 201.35a10.972 10.972 0 0 1-3.268 3.538 10.947 10.947 0 0 1-6.215 1.936 10.944 10.944 0 0 1 9.483-5.474z"/>
  <path d="M772.02 207.38a.563.563 0 0 1-.487-.843 11.466 11.466 0 0 1 5.016-4.638 11.444 11.444 0 0 1 4.954-1.117.561.561 0 0 1 .486.844 11.452 11.452 0 0 1-3.435 3.719 11.47 11.47 0 0 1-6.534 2.035zm8.415-5.42c-1.18.12-2.32.439-3.402.954a10.35 10.35 0 0 0-3.946 3.288 10.354 10.354 0 0 0 4.829-1.782 10.295 10.295 0 0 0 2.519-2.46z"/>
  <path class="st2" d="M782.93 205.9a10.933 10.933 0 0 1-1.427 6.395 10.93 10.93 0 0 1 0-10.947 10.95 10.95 0 0 1 1.427 4.552z"/>
  <path d="M781.5 212.86a.563.563 0 0 1-.487-.281 11.477 11.477 0 0 1-1.506-6.693 11.569 11.569 0 0 1 1.507-4.816.563.563 0 0 1 .486-.28h.001a.56.56 0 0 1 .486.281 11.56 11.56 0 0 1 1.501 4.786 11.448 11.448 0 0 1-1.501 6.723.564.564 0 0 1-.487.28zm0-10.274a10.46 10.46 0 0 0-.872 3.392 10.335 10.335 0 0 0 .873 5.088 10.32 10.32 0 0 0 .867-5.116 10.448 10.448 0 0 0-.868-3.364z"/>
  <path class="st2" d="M786.13 202.37a10.952 10.952 0 0 1 4.85 4.448c-2.279 0-4.456-.708-6.266-1.973a10.921 10.921 0 0 1-3.214-3.501 10.96 10.96 0 0 1 4.63 1.026z"/>
  <path d="M790.98 207.38c-2.368 0-4.646-.717-6.588-2.074a11.574 11.574 0 0 1-3.38-3.681.564.564 0 0 1 .487-.843c1.697 0 3.334.363 4.868 1.078a11.465 11.465 0 0 1 5.099 4.677.564.564 0 0 1-.486.843zm-8.412-5.42a10.437 10.437 0 0 0 2.467 2.424 10.322 10.322 0 0 0 4.877 1.817 10.343 10.343 0 0 0-4.021-3.323 10.33 10.33 0 0 0-3.323-.918z"/>
  <path class="st2" d="M841.13 247.31a10.945 10.945 0 0 1-9.481 5.473 10.94 10.94 0 0 1 9.481-5.473z"/>
  <path class="st2" d="M836.28 253.81a10.928 10.928 0 0 1 4.85 4.445 10.947 10.947 0 0 1-9.48-5.474c1.626 0 3.202.36 4.63 1.029zM831.65 241.83a10.95 10.95 0 0 1 0 10.95 10.938 10.938 0 0 1 0-10.95zM833.07 257.34a10.966 10.966 0 0 1-1.427 6.398 10.966 10.966 0 0 1-1.433-6.37c.132-1.588.607-3.15 1.43-4.577.003 0 .003-.003.003-.003a10.958 10.958 0 0 1 1.427 4.552z"/>
  <path class="st2" d="M831.65 252.78s0 .003-.003.003a10.922 10.922 0 0 1-3.265 3.535 10.932 10.932 0 0 1-6.215 1.936 10.963 10.963 0 0 1 4.771-4.409 10.924 10.924 0 0 1 4.712-1.065z"/>
  <path class="st2" d="M828.38 249.24a10.969 10.969 0 0 1 3.268 3.54 10.957 10.957 0 0 1-9.483-5.474 10.96 10.96 0 0 1 6.215 1.934z"/>
  <path d="M831.65 253.35a.564.564 0 0 1-.487-.28 11.437 11.437 0 0 1-1.506-4.818v-.001a11.475 11.475 0 0 1 1.506-6.693.561.561 0 0 1 .974 0 11.462 11.462 0 0 1 1.501 6.723 11.592 11.592 0 0 1-1.501 4.788.561.561 0 0 1-.487.281zm-.873-5.191a10.34 10.34 0 0 0 .872 3.398c.479-1.067.77-2.196.868-3.37a10.34 10.34 0 0 0-.868-5.115 10.353 10.353 0 0 0-.872 5.087z"/>
  <path d="M831.65 253.35a.563.563 0 0 1-.487-.843 11.423 11.423 0 0 1 3.38-3.684 11.468 11.468 0 0 1 6.588-2.071.563.563 0 0 1 .487.843 11.44 11.44 0 0 1-5.099 4.674 11.441 11.441 0 0 1-4.869 1.081zm8.414-5.419c-1.75.179-3.418.797-4.878 1.815a10.317 10.317 0 0 0-2.47 2.427 10.293 10.293 0 0 0 3.327-.922 10.324 10.324 0 0 0 4.021-3.32z"/>
  <path d="M831.65 253.35c-1.732 0-3.398-.377-4.954-1.12a11.473 11.473 0 0 1-5.015-4.635.561.561 0 0 1 .487-.843c2.345 0 4.604.703 6.534 2.032a11.464 11.464 0 0 1 3.435 3.722.561.561 0 0 1-.487.844zm-8.415-5.419a10.347 10.347 0 0 0 3.945 3.285 10.27 10.27 0 0 0 3.403.956 10.344 10.344 0 0 0-2.52-2.462 10.345 10.345 0 0 0-4.828-1.779z"/>
  <path d="M822.16 258.82a.563.563 0 0 1-.487-.843 11.474 11.474 0 0 1 5.016-4.634 11.405 11.405 0 0 1 4.954-1.12.562.562 0 0 1 .468.873 11.42 11.42 0 0 1-3.417 3.689 11.447 11.447 0 0 1-6.534 2.035zm8.415-5.42a10.26 10.26 0 0 0-3.401.956 10.367 10.367 0 0 0-3.946 3.285 10.315 10.315 0 0 0 4.828-1.782 10.291 10.291 0 0 0 2.519-2.459z"/>
  <path d="M831.65 264.3a.563.563 0 0 1-.487-.281 11.483 11.483 0 0 1-1.506-6.696 11.466 11.466 0 0 1 1.503-4.813.563.563 0 0 1 .977-.003 11.588 11.588 0 0 1 1.501 4.786 11.466 11.466 0 0 1-1.501 6.725.56.56 0 0 1-.487.282zm-.002-10.278a10.337 10.337 0 0 0-.871 3.393 10.354 10.354 0 0 0 .873 5.09 10.347 10.347 0 0 0 .868-5.117 10.424 10.424 0 0 0-.87-3.366z"/>
  <path d="M841.13 258.82c-2.366 0-4.644-.716-6.587-2.071a11.423 11.423 0 0 1-3.38-3.684.564.564 0 0 1 .487-.843c1.699 0 3.337.364 4.869 1.081a11.435 11.435 0 0 1 5.098 4.673.564.564 0 0 1-.487.844zm-8.414-5.42c.678.94 1.506 1.754 2.47 2.427a10.347 10.347 0 0 0 4.877 1.814 10.31 10.31 0 0 0-4.02-3.319 10.251 10.251 0 0 0-3.327-.922z"/>
  <path d="M1042.8 593.35H14.7a.702.702 0 1 1 0-1.404h1026.7V14.766a.702.702 0 1 1 1.405 0v578.59z"/>
  <path d="M1042.1 15.466a.699.699 0 0 1-.501-.21l-13.794-14.06a.703.703 0 0 1 1.002-.984l13.794 14.06a.702.702 0 0 1-.501 1.194zM1042.1 593.35a.703.703 0 0 1-.497-.206l-14.06-14.06a.703.703 0 0 1 .993-.993l14.06 14.06a.703.703 0 0 1-.496 1.199zM14.763 593.35a.701.701 0 0 1-.497-.206l-14.06-14.06a.703.703 0 0 1 .993-.993l14.06 14.06a.703.703 0 0 1-.496 1.199zM197.45 161.84a.702.702 0 0 1-.702-.702V33.328h648.42a.702.702 0 1 1 0 1.404h-647.01v126.4a.703.703 0 0 1-.702.704z"/>
  <path d="M197.64 34.916a.701.701 0 0 1-.497-.206l-14.247-14.247a.703.703 0 0 1 .993-.993l14.247 14.247a.703.703 0 0 1-.496 1.199z"/>
</svg>